<svg xmlns="http://www.w3.org/2000/svg" width="1080" viewBox="0 0 810 810" height="1080" version="1.0"><defs><clipPath id="a"><path d="M205.508 65h435v655h-435zm0 0"/></clipPath></defs><g clip-path="url(#a)"><path fill="#d6efc8" d="M479.758 65.371c-13.89 0-29.145 5.016-45.078 13.207-15.711 8.438-32.114 19.82-48.047 32.805-15.934 12.762-31.192 26.879-44.856 40.773a719.215 719.215 0 0 0-34.367 37.582c-16.168 19.367-32.789 45.555-47.812 75.39-15.036 30.071-28.47 63.786-38.258 98.638-9.79 35.082-15.711 70.843-15.711 105.004 0 34.171 6.156 66.52 20.266 94.308 4.324 8.649 11.156 20.043 19.812 33.027 8.422 12.75 18.434 26.88 28.914 40.54 10.477 13.675 21.399 26.878 31.645 38.039 10.242 10.941 20.03 19.59 27.777 24.379 18.887 11.16 43.934 17.765 71.71 19.808 27.56 1.836 57.837-.676 86.747-8.191 28.914-7.293 56.457-19.13 78.77-35.54 22.308-16.628 39.62-37.581 48.046-62.859 8.422-25.968 13.887-56.039 17.079-88.152 3.175-31.895 4.085-66.067 3.863-100.461-.453-33.938-1.82-68.563-3.645-101.356-1.586-32.57-3.644-63.55-4.777-90.886-1.133-26.422-3.422-48.29-7.512-66.285-4.097-18-9.789-32.57-17.531-44.422-7.969-11.84-17.758-21.41-30.512-29.614-12.523-7.968-27.765-14.574-46.445-20.265-4.324-1.145-25.27-3.88-30.047-4.102l-6.832-.457-13.2-.91"/></g><path d="M292.61 120.496c2.952 1.59 6.82 2.281 7.964 6.371 15.024 0 30.281-.914 45.301-1.355 10.48-.457 20.488-1.602 30.734-2.293.692.691 1.825.469 2.97.469 2.276-1.602-.235-3.426.218-5.47 1.148-2.28 2.969-4.1 5.469-5.015 3.41-.91 7.289 0 10.933-1.367 4.324-.453 7.735 5.473 12.746 2.516 4.32 1.355 10.7-.47 14.801 2.5.91 1.367.453 3.41 2.277 4.558 10.7-.457 21.164-.914 31.645-1.367l-5.234 15.719c-11.61.453-23.457.675-34.614.218-1.132.915-15.933 19.82-15.71 20.043-5.688.235-16.61 52.391-18.887 62.418-2.735 10.016-7.512 19.82-11.391 29.614 12.758 4.324 24.367 10.707 31.879 22.543 1.82 3.425 5.922 7.293 8.644 10.027 10.258-2.512 18.68 1.133 25.5 9.563.91 1.378 2.97.91 3.422 2.734.914.91 2.735.91 3.41 0-2.277-8.426 3.645-15.031 4.56-22.324-1.145-.676-1.602-2.5-2.513-3.188-.68-3.648-4.09-5.691-5.234-9.105-.457-2.059.91-4.102 1.367-6.38 4.32-5.015 6.598-10.929 8.422-17.085 1.145-5.238 9.566-5.926 7.746-12.297 1.586-4.555 7.055-1.145 9.555-2.734.91-5.012 6.156-5.926 10.023-7.746.91-3.649 3.41-7.293 5.922-10.473 2.953-2.969 7.965-2.512 11.156-1.602-.691-5.468 3.41-10.25 1.82-14.804-.687-10.707 2.278-21.645-.687-31.66-2.734-2.5-1.367-6.149-1.824-9.794-1.82-2.734-2.043-6.148-2.953-9.34l-6.379.458c-10.922.222-22.078.68-33.234.914l5.234-15.719c12.289-.457 24.355-.914 37.332-1.148 2.277-3.41 5.246-6.836 9.566-7.735l7.059-.234c2.73-1.59 5.465-4.559 9.11-3.192 2.277 1.145 4.777 3.426 7.277 1.145 2.511-2.969 6.836-2.277 10.023-1.367 2.5 2.047 4.778 5.015 4.778 8.425 29.601 0 59.878-1.367 89.703-2.734v18.219c-29.825.691-59.868 1.601-89.47 1.371-2.51 2.277-2.51 6.144-3.878 8.879-1.59.457-.457 2.281-1.367 3.191 0 5.692-5.235 5.926-7.965 12.528-.68 4.324-.914 7.972-.68 12.984.914 5.703 1.367 9.793 2.047 15.719 3.422 18.453 6.832 35.761 7.508 55.582.914 6.144-4.777 10.25-2.73 16.394-.68 4.336 4.097 25.746 5.242 28.48-2.055 17.766 15.48 33.25-.688 51.481-1.367 4.09-12.523 15.942-16.844 16.852-8.421 4.324-7.511 21.41-14.113 26.422-2.965 8.425-11.156 15.03-17.078 21.187-7.055 13.664-13.887 43.735-9.79 57.63l9.79 51.245c4.559 19.13 6.379 40.094 8.879 60.594l-80.367 45.098c-3.41-7.746-6.602-15.72-9.114-23.688-.675 1.145-3.175 7.059-3.632 7.059 0 3.644-7.977 15.496-9.801 18.453 4.101.457 5.703 5.012 9.113 6.379 3.422 1.824 17.531 10.015 17.754 2.734-1.586-3.644-2.953-7.289-4.32-10.937l80.367-44.875c.91 8.66 2.055 17.539 3.644 25.964-.234.692 1.59 16.176 2.043 16.41 8.88 1.133 17.079 4.09 25.5 5.458 7.293 4.558 17.082 4.336 23.223 10.718 2.516-.691 4.793.453 7.293-.468 7.965-1.133 12.977 4.558 18.445 8.66 4.32 6.379 11.153 10.703 12.285 18.23l7.512 11.617c0 1.133.91 2.043 1.367 3.176.457 4.793 3.868 8.66 5.235 13.219 3.187 4.102 4.097 9.559 6.156 14.574 1.133 6.602-1.367 13.219-6.156 17.54-.91 2.738-3.633.456-5 1.823-8.2 1.368-14.125-4.101-20.035-8.425-4.332-2.97-8.2-7.97-13.211-9.57-2.953 3.644.457 9.792-2.5 13.218-.91.219-1.82.91-2.735.453-.687.223-.91 1.133-1.82 1.133-2.277-.91-2.043-3.644-3.188-5.691a16.755 16.755 0 0 1 0-8.203c-2.968-.676-5.69-4.325-6.144-7.293-.914-4.325 1.586-7.97 2.277-11.836-1.601-1.133-3.425.453-5.246.675-8.187 1.602-17.066 2.059-24.812 5.016-25.043 5.691-24.133.688-41.668 11.16-1.586-.457-3.41-.68-5.012-1.133-3.41 3.41 6.379 40.317-8.187 39.864-4.098 2.5-11.157 2.043-15.02-.692-4.793-3.648-5.469-9.336-7.293-14.351-.453-4.102-2.277-7.516-3.41-11.16-1.367 2.058-1.145 4.793-2.965 6.835-1.133 2.5-2.957 0-4.324-.234-1.602-3.176 2.957-8.879-2.278-9.101-2.277-.915-3.187-3.426-3.187-5.692-.223-1.367.453-2.969.453-4.336-2.953.91-6.144.688-9.555 1.82-5.011 0-9.343-3.644-15.035-3.867-6.597-1.367-13.886.457-20.71-1.601 0-.453 0-.899-.231-1.133-.457.234-.457.68-.457.914-3.645.453-6.602-2.281-10.024-2.957-8.879-4.102-17.066-9.574-24.59-16.633l-2.953-2.055c-4.558-6.37-10.703-12.296-13.89-19.351-2.043-2.738-5.235-2.059-6.602-5.016 0-2.734-1.586-5.691-2.496-8.66h-.691c1.601-.676 0-2.043-.457-2.957-.676-12.305 0-23.465 1.367-36.215 2.969-50.113 22.77-94.77 44.402-138.953 5.469-9.793 8.88-20.5 17.078-28.926 1.59-4.324 2.043-9.117 5-12.984h.688c-1.367-15.938.68-35.305 3.644-52.625 4.09-15.027 1.356-30.055 2.047-45.555-2.957-6.601-10.48-3.867-12.98-10.027-87.88-66.274-50.09-80.625-9.79-168.32-.452-3.192.692-4.336.692-7.059l-73.312.914c-.457.91-6.157 14.793-11.157 12.969 1.82 138.953-.457 278.586-.457 417.762 1.368 54.214.68 123.457 1.133 177.671h-20.031l-3.192-591.785c-5.23-3.18-4.777-9.34-5.011-14.808-2.73-5.692-.219-10.703 1.367-16.16 1.144-2.282 5.246-2.06 3.879-5.25 0-16.852-.453-36.215-.235-52.844 1.145-.223 20.723-2.504 21.856 2.511.914 17.543.691 34.614.691 51.934"/><path fill="#00ade5" d="M394.145 430.05c2.277 16.852 1.144.91 4.777-2.956 2.965 0-3.633 18.676 2.512 14.808 2.277-.691-5.47-17.777 8.199-9.574 1.133 7.516-19.59 16.176 22.535 22.324 3.644-2.504-2.5-15.718 5.012-15.484.218 2.266-.457 10.469 2.73 11.379 4.559-3.41-2.73-9.793 2.957-10.469 1.367 4.09 0 8.192 2.735 11.84 3.644 2.953 1.586-9.797 2.043-11.383 2.277 1.133 1.601 15.703 6.156 10.469-1.602-2.5-1.145-5.926-.91-9.102 2.277 2.043 4.086 4.543 6.144 6.368.91-.676 2.5-1.368 2.953-2.5 1.825 1.824.692 6.601 3.88 6.378 2.277-1.82 4.542-4.336 5-7.289 3.421-3.425-3.645 13.66-1.825 14.805 7.746-2.277.234 19.586.234 19.809 14.801 29.847 18.668 61.96 20.723 94.53 0 4.337.902 29.161 3.633 32.13-.676 2.722 2.512 1.808 3.191 3.633 4.555 4.336 3.188 10.707 7.512 15.043.453 6.144-7.969 5.234-6.824 11.382 3.191 7.524 3.191 17.086-1.367 23.922 5.925 11.383 13.433-24.379 13.433-25.511 3.414 7.968 2.957 21.863 4.102 30.746 3.867-1.368 6.367-9.793 6.82-13.207 2.059-8.203-3.863-14.348-5.23-21.875 5.687 3.879 8.421 9.804 11.375 15.718 5.011 0-1.586-12.984-.91-16.398 10.023-4.777 12.523 9.793 16.62 13.664 3.426 0 6.16-3.871 10.024-1.813 10.922 7.516 21.402 23 10.023 35.305-2.511 2.735-40.757 9.793-47.812 8.192 6.367-3.176 13.2-6.602 20.258-9.102 2.953-7.75-11.157-.234-12.98.453-13.434 7.516-24.356 11.164-38.024 17.543-33.23 2.047-39.832-35.316-51.223-57.406.914-1.598-17.078-40.55-18.21-49.434-9.567-21.41-9.333-46.687.456-67.652 2.043-2.723 11.832-9.336 8.88-12.75-1.602.457-10.704 8.66-12.302 9.793-10.703-2.043-7.511-18.453-15.48-20.277-3.188 2.515.457 28.027.234 32.804 1.824 10.485-3.187 20.5-.234 30.07 1.367 7.06-2.5 14.118-3.41 20.735-1.368 16.851-10.243 32.789-25.5 43.039-1.368 1.145-10.246 0-4.32 3.645 4.995 1.148 9.788-1.133 14.343-2.5-5.469 17.308-5.469 17.543-23.457 13.898-2.734 2.5-.691 10.469.688 5.922 8.191 2.27 12.289 5.004 20.945 5.691 5-7.058 11.836-12.761 16.156-20.273 13.668 5.469 24.824 28.465 28.922 41.23.457 1.367 1.59-.222 2.281-.457.453-5.015-2.511-11.394-1.148-16.398 15.023.68 4.558 33.027 11.156 42.367-6.379 5.469-17.531-1.148-24.355-1.602-16.168-.445-40.301-4.324-51.457-18.675-10.934-7.973-30.73-31.883-28.688-47.145 2.043-20.277.91-46.7 7.512-65.828.453 1.586-.457 4.543 1.367 5.91 2.965.914 5.465-26.422 7.508-33.023 4.101-14.809 11.847-28.926 15.71-43.278 10.704-14.117 14.348-38.718 27.102-51.246-.23-3.187 7.512-4.554 3.18-5.703.688-3.867.91-7.512 3.879-10.703 2.73.91-.457 3.867-.234 5.469"/><path fill="#f2581a" d="M288.965 68.328c1.367 18.453-.457 35.54.457 52.168-1.367.914-2.969.457-4.324 0 .457-17.539.898-35.082.222-52.625l3.645.457M278.719 69.695c-1.367 17.32-.453 34.172-1.145 51.258-2.043.223-3.187.223-5.012 0 .692-17.777 0-33.262-.222-52.168 1.824-.68 5.012-1.133 6.379.91"/><path fill="#f19969" d="M519.824 162.64c1.367 5.692.223 11.614 1.59 16.852-.914 19.586 5.23 41.45-8.422 58.301-1.367 2.059-5.234 2.516-4.324 5.25 2.957 1.367 6.602.676 9.555.223 5.246 2.734 1.367 12.304-2.278 14.804-2.953 2.282-7.511 2.282-10.699 1.602.453 1.367-2.266 2.734.234 3.867 8.422 2.957 10.008 12.762 12.29 20.043 1.82 7.984 5.007 16.176 1.82 24.379-2.043 1.824-7.055-1.824-6.82 2.5 2.043 2.281 3.867 5.469 6.363 7.516 3.644 5.703 6.836 12.984 4.101 20.054-2.734 5.235-7.054 12.07-13.433 14.117-2.735 2.278-6.367 1.825-9.098 4.336-2.058 3.18 2.5 5.457 1.809 9.102 0 8.207-2.957 14.809-6.367 21.867-2.512 2.277-3.422 6.149-7.29 6.149-2.277 2.511-6.597 3.644-6.597 7.293-4.559 9.57 4.777 19.585-10.024 32.113-9.336 3.644-22.078 3.191-32.101 2.277-11.61-1.367-22.313-4.558-32.32-9.336-3.426-1.824-6.836-3.414-10.481-4.781-2.734-2.055 0-5.012-1.133-7.746-.453-5.473-.687-33.938 3.192-39.41.675.914 2.265.691 3.175.457 2.965-3.41-5.687-2.5-.91-11.16 1.364.234 1.598 1.601 2.73 2.043l.235-46.454c1.367-5.023 3.867-16.183 6.824-19.597-.222-.91-1.132-1.133-1.812-1.367-4.555 2.511-2.512 14.128-10.934 9.336-8.656-3.176-10.023-14.114-18.668-17.985-10.242-5.469-23-5.926-31.422-15.262-2.734-3.644-5.468-6.613-7.511-10.484-2.278-2.043-3.41-5.691-6.145-7.512.914 0 .914-1.148 1.367-1.367-2.277-2.734-.453-5.926-1.144-8.66 1.601-1.59.691-3.18 1.144-5.238 0-8.88 17.989-35.305 27.09-42.14.457-8.661-19.355 19.132-19.812 19.585-.223-5.234 12.066-22.543 16.62-28.469l-.218-.453.676-.457c6.836-10.937 25.957-48.066 22.312-69.02 4.555-6.148 10.242-4.78 15.477-1.824 4.101-.457 7.523 0 10.258.235 11.609.457 13.422 2.957 4.543 8.426-1.133.69-.676 2.511-1.368 3.867-2.5 6.383-7.964 15.496-17.52 28.703-12.757-13.207-4.558 3.644-.69 1.367-2.735 4.102-2.735 9.57-5.012 13.895-6.363 28.937-20.031 53.539-30.5 81.093 1.133 2.047 12.289-2.734 13.656-2.734 20.266 5.234 25.047 25.055 39.844 32.113 7.512-1.59 13.656-1.367 19.125 4.336 2.054 2.5 12.3 8.883 11.61 10.25-3.188-.691-6.833-2.969-10.466-4.101-5.246 5.234 19.801 15.027 22.989 15.027.457-.453-7.512-21.629-6.145-27.555.91-2.5 10.012-26.66 1.367-16.863-2.734-9.106-5.687-5.004-2.969-15.254 2.278-.91 1.825-3.644 2.735-5.469 1.144-2.054 2.734-3.879 3.187-6.144.692-2.293 1.149-5.926 3.649-7.75 1.133.222 2.043 1.367 3.41 1.133.234-1.368 1.144-2.5.453-3.868.457-1.144-.219-1.824.914-2.734 2.512-5.469 10.02 2.277 14.121-1.133 4.324-5.469-2.277-3.648-5.699-2.969.688-1.59 2.73-2.734 2.965-4.558.457 0 .914.91 1.59 1.601l2.511-4.101c22.532-7.75 15.024 13.219 9.332 5.691-2.054-.457-1.597 1.367-2.73 2.512 13.652 14.117 4.098-8.203-3.426 3.633.914 1.148 3.192.469 3.192 1.824-1.59 0-4.559-.676-5.91 1.602 2.042 2.5 4.996.457 7.277 2.043 4.555 2.968 9.11 4.34 5.922 10.718.91 2.047.453 4.547 1.586 6.368-2.496 1.37-4.32-1.586-6.364-2.278-1.144.91-2.734.457-4.101.91 7.289 4.559 8.199 17.086 6.144 24.602 2.055.91 4.555 1.824 5.47 4.101-1.825-.91-3.415.914-5.235 1.368-15.258 2.734-24.133-25.055-34.157-20.73-5.011 2.054 31.645 24.155 26.41 28.937 2.5.218-9.109 17.996-16.167 15.937.691-6.144 6.144-13.437 7.511-20.277-1.82-5-11.609 23.469-11.832 24.379-18.21 10.25 12.29 7.738 14.11 7.972.691-1.367 1.367-.234 2.511-.914 28-15.937 12.747-10.48 30.957 5.703 1.145.68 3.422.223 4.336-1.378-.691-1.133-1.367-2.266-2.734-2.735-7.746-7.734-19.813-46.23-6.613-53.746-2.957-6.613-10.465-25.969-5-53.3 1.133-5.927 2.043-12.762 3.633-18.91-1.356-4.102.925-9.118 0-13.661 1.144-5.016.234-9.805 0-14.809-.223-4.101 0-7.98-.676-11.394-5.692-28.246-5.235-28.469 1.144-32.57 1.82-1.368 3.867.68 5.453-.235 4.559-2.277 8.422-3.41 11.614-3.41 3.187-.223 5.687.688 7.746 2.043 6.14-3.633 10.02-3.176 6.14 11.852 2.282 13.66-3.644 32.804-12.742 35.996"/><path fill="#fabe8e" d="M379.797 146.23c12.3 1.602 0 25.97-2.719 31.438-10.023 17.996-37.113 48.746-30.746 70.844.688 3.644 5.688 10.015 5.688 13.66.69 0 1.367.691 2.058.691 0 .676.91 1.59 1.586 1.59 0 2.043 5.012 7.746 7.07 10.016-5.011 0-10.023-.68-15.035-1.813-2.5-2.969-4.777-5.703-6.601-9.117-2.278-2.043-3.41-5.691-6.145-7.512.914 0 .914-1.148 1.367-1.367-2.277-2.734-.453-5.926-1.144-8.66 1.601-1.59.691-3.18 1.144-5.238 0-8.88 17.989-35.305 27.09-42.14.457-8.661-19.355 19.132-19.812 19.585-.223-5.234 12.066-22.543 16.62-28.469l-.218-.453.676-.457c4.324-7.058 13.89-25.055 19.12-42.598M384.355 118.441c2.735 5.704 0 15.262-2.957 21.864 1.825-7.512 2.735-14.57 1.59-20.496.457-.457.91-.914 1.367-1.368"/><path fill="#a9c4d0" d="M632.516 128.469c-30.957.219-94.024-.692-95.157 2.953.442 2.058-1.379 2.738-1.824 4.105 1.133-2.504 2.5-8.66 2.957-13.207 4.778-4.558 63.524-2.734 94.024-3.425v9.574M493.414 123.91l-1.148 7.293-74.446 1.367 2.282-6.382 73.312-2.278"/><path d="M405.078 123.688c-2.969 6.148-15.945 14.117-16.402 20.265l-.899.688c2.043 2.28-12.523 12.074-4.554 2.047.91-7.282-1.602-15.485 5.453-20.5.91.914-2.719 8.882-2.5 14.117 1.601.457 1.367-1.59 2.277-2.043 0-1.367 16.168-18.219 16.625-14.575"/><path fill="#fff" d="M583.336 130.969v-.457l.469.457h-.47"/><path fill="#a9c4d0" d="m293.066 125.055-.691 3.867-23.445-.234 24.136-3.633M379.121 128.469l-.687 5.691-76.727 1.145-.91-4.102 78.324-2.734M284.176 135.527c.453 2.278 3.644 13.895 7.523 8.203.676 1.133 1.367 1.59 1.367 2.958-3.191 1.82-18.902 3.644-23.003 2.054-1.82-4.554-2.278-10.027-2.278-14.804 3.422-1.825 14.8-2.282 16.39 1.59"/><path fill="#fff" d="M291.7 142.363c-1.145-1.367.218-5.015-.235-7.058.687 1.824 1.144 4.324.234 7.058"/><path fill="#f2581a" d="m290.098 154.2.234 592.698h-2.277l-2.735-594.285 4.778 1.586M277.117 155.113l.692 591.785h-2.055l-3.192-592.007 4.555.222"/><path d="M377.754 181.313c1.824 7.058-17.535 38.953-21.856 41.91.223.687-8.878 17.773-11.156 16.172-.234-6.836 4.559-12.07 7.969-17.54 5.23-5.914 24.367-40.542 25.043-40.542"/><path fill="#d24429" d="M490.902 201.813c-.457 3.19-.68 5.468-1.132 8.66-2.735-1.825-5.47 0-8.204.222 3.192-7.058 2.97-9.105 9.336-8.882"/><path d="M469.957 235.07c-.457.914-1.367.914-2.047.223-.23-2.734-5.465-5.691-1.586-7.746 2.043 1.601 3.867 4.789 3.633 7.523M463.813 229.602l-.458 2.28c-1.59.677-1.59-1.148-2.277-2.28.235-.91.91-1.368 1.367-2.055 1.145 0 2.278.91 1.368 2.055M474.055 230.969c-.676.914 1.367 3.414-1.368 2.734-.91-1.144-1.363-2.969-2.73-3.187.234-.914-.914-1.825.91-2.282 1.367 0 2.278 1.825 3.188 2.735M464.047 236.441c.219 2.043 3.176 3.176 2.73 5.457l3.633 5.012c.457 1.602-.676 1.367-1.586 2.059-3.191-2.516-6.601-4.336-10.023-6.617-1.367 1.367-3.633-.223-5 1.148-1.367.453-.692-1.148-1.145-1.602 3.188-1.136 1.367-5.457 4.778-5.914l6.613.457"/><path fill="#fff" d="M463.59 240.762v.914c-1.824-.68-4.336-2.5-6.38-1.145-.233-1.59 1.59-1.59 2.735-1.824 1.368.469 3.188.234 3.645 2.055"/><path d="M460.855 246.234c1.368 0 2.5 1.368 3.192 2.278v.675c-3.426.235-7.512-1.367-10.938-2.953 0-.914 1.149-.457 1.602-1.367 2.5-.691 3.633 2.5 6.144 1.367M502.746 254.426c-.676-1.824-3.191-4.324-.676-6.371 2.496.222 7.508 13.898 14.332 1.59 2.512.234-4.777 13.218-13.656 4.78M373.887 270.145c3.644.453 21.402 20.73 27.09 11.171 5.921 9.102-9.11 7.735-15.711 5.457-3.868-2.046-20.711-17.543-15.477-22.32l4.098 5.692M453.11 281.082c-2.044 2.734 1.824 4.781 1.148 7.75-1.602.676-2.512-2.281-4.336-2.516-.223-2.277.234-5.234 3.187-5.234M490.902 307.727c6.61 6.382-6.144.457 3.645 2.058.91 4.559-21.168 12.985-25.723 10.016.453-1.133 20.488-11.84 22.078-12.074M450.832 317.754c-1.133 1.367-1.586 7.293-3.187 9.793-2.5 13.664-12.067 18.676-.223 31.203-1.367 1.367-3.41-1.367-4.777-.223 1.132 2.739 10.011 7.973 5.91 9.563-6.364-2.957-12.29-7.281-17.52-12.75-2.512.91-7.969 7.058-10.023 5.469l7.965-8.883c11.39-8.66 10.933-23.688 18.21-35.082.692-2.735 5.47-2.5 3.645.91M500.703 325.27c-5.012 11.851-10.258 23.687-15.258 35.996-1.82 3.41-16.402 10.011-17.988 5.687.688-1.367 2.5-1.367 3.867-1.601 14.578-11.16 19.121-23.676 27.098-39.848.914.453 1.59-1.824 2.281-.234M410.531 339.621c0 2.055-1.808 2.5-3.41 2.5-.91-2.047-2.5-4.09-1.82-6.601.687-.915.453-2.047 1.82-2.739 3.192.457 2.734 4.34 3.41 6.84M477.023 348.957c-1.367 3.426-5.699 3.191-7.289 6.148-1.59.688-3.41 2.055-5.234 1.38h-.688c1.145-4.794 6.598-6.618 10.7-7.985l2.511.457M482.477 371.734c-.676 2.512-20.489 12.528-25.043 7.293 3.421-5.691 12.066.457 16.168-4.78 2.277-.911 6.378-7.071 8.875-2.513M449.922 400.215c-1.367 1.824-5 .68-4.555 3.867-1.133 1.367 2.735 8.883-3.867 5.016-7.746-10.942-11.379-41.008-17.3-9.793-3.868.453-2.278 5.234-2.512 7.277.457.914 1.144 1.602.925 2.738-.468.453-1.148.23-1.601.23-4.102-7.745.453-17.304.91-26.655-.235-1.368.457-2.278 1.367-3.41-1.601-1.137-2.043 1.367-3.644 1.82-4.555 3.648-10.012 6.382-12.747 11.382-1.144.235-2.277 1.368-3.421.458.91-7.516 9.566-12.075 15.492-16.852 3.644-1.59 7.273-4.102 11.152-2.734 2.5.453 3.633 2.968 5.234 4.558 2.043-.914 12.747 19.13 14.567 22.098M485.21 379.938c.692 2.5-22.765 14.808-25.722 7.515.223-1.133 1.59-2.047 2.5-2.5 10.48 3.41 18.668-6.605 23.223-5.015M475.879 395.422c0 .457-.68.691-.91 1.148-4.102.22-7.29 1.368-11.156.91 2.054-4.558 8.421-2.734 12.066-2.058"/><path fill="#9ee0f2" d="M424.656 436.887c2.043 1.133 4.555 1.133 6.598 2.047-1.586 4.101-1.133 7.968-1.586 12.07-5.922-.91-12.3-2.734-17.992-5.234-.453-4.336-1.363-9.336 1.824-11.852 3.867.914 7.512 2.059 11.156 2.969"/><path fill="#1a67bb" d="m418.512 439.621-1.367 1.133c-2.97-3.41 2.957 7.75 7.511 3.871-1.367-2.723 1.367-4.547 2.5-2.957-.457 14.352-22.988-.234-10.469-3.867.915.219 1.825.676 1.825 1.82"/><path fill="#00ade5" d="M405.3 627.309c3.188 3.425-7.058-3.649-6.378-5.47 2.055 2.056 4.332 3.645 6.379 5.47M428.523 635.277c2.512 6.618-9.101-2.043-5.691-2.5 2.047-.234 3.645 1.59 5.691 2.5"/><path fill="#e9e6ba" d="M582.66 666.04c2.278 8.425 11.61 10.468 15.254 17.983l4.777 8.66c-3.41-8.203-12.523-10.925-17.078-18.218-4.777-4.793-4.777-17.778-12.965-21.867a16.044 16.044 0 0 1-1.378-7.98c7.066 4.788 11.843 12.76 11.39 21.421"/><path fill="#fffccc" d="M581.527 673.316c8.422 15.954 26.633 19.145 24.356 41.23-9.336 4.325-16.625-3.41-23.223-9.1 2.278-4.337 8.653-4.794 10.7-8.895-2.278-3.192-.458-7.281-4.56-9.102-1.82-5.238-7.964-7.058-9.788-12.308-2.496-5.692-5.453-10.703-5.008-17.762 2.73 5.234 6.832 10.027 7.523 15.937"/><path d="M454.71 658.055c3.868 9.117 12.747 15.718 21.169 20.054 2.277-.457 17.078-1.144 18.445 1.133-4.101 6.606-12.066 8.66-19.355 10.25-9.102.91-23.903-23.234-21.625-32.113l1.367.676"/><path fill="#c9e7f8" d="M571.738 672.64c6.364 4.325 15.242 20.954 4.32 25.055-2.277-3.422-.456-8.879-3.187-12.761-5.691-3.868-4.781 28.027-9.789 28.027-1.824-3.649-2.969-8.43-.234-11.852 7.742-1.824 5.242-17.308 6.832-23.234 4.554.234 6.379 12.527 9.332 11.852 4.793-2.059-9.555-20.735-10.008-12.528-.914-.457-2.059-.691-3.192-.691.223-2.5 2.5-4.559 3.645-6.836 1.59.234 1.367 2.058 2.281 2.969"/><path fill="#c9e7f8" d="M565.36 689.727c.91 6.601-2.06 10.925-7.981 6.601-2.5-3.867.234-9.336.926-13.672 2.953.235 4.097-3.414 6.363-4.781-.676 4.102 2.969 7.516.691 11.852"/><path d="M563.758 682.656c-.457 2.735-1.824 5.246-.223 7.746.223 1.149-.687 1.149-1.367 1.602-.453 0-.688-.688-1.145-.91-.222-3.192.235-6.16 1.145-9.336.68-.469 1.133.453 1.59.898"/><path fill="#c9e7f8" d="m586.07 689.035-2.047.914.223-3.191c.234.691 1.145 1.601 1.824 2.277M584.703 694.05c-1.367-2.734-.898.454-.898.454-.692.457-1.38 1.137-2.278 1.137.453-1.368 11.832-9.563 3.176-1.59M590.168 697.242c-4.098.91-7.277 3.645-10.922 5.922-.91-.91-2.055-1.601-2.512-2.969 4.102-1.133 9.57-1.586 12.067-7.511 1.367 1.367.914 2.957 1.367 4.558"/><path fill="#fff" d="m602.926 693.36 1.367 2.968zm0 0"/><path fill="#c9e7f8" d="m570.137 697.918.453-2.5c1.148.457.68-.914.914-1.59l.676 4.09h-2.043M454.934 695.875c.457 10.012-11.61-.914-13.891 1.82.234-3.867 5.246 1.133 8.656-2.5 2.278 1.813 2.5-2.277 3.41-2.968 1.149.91 1.368 2.5 1.825 3.648"/><path fill="#fffccc" d="M465.18 719.105c-1.133 5.235.91 8.883-3.868 12.528-1.144 1.59-2.277.914-3.878 2.047-4.543-4.547-4.778-9.559-6.602-15.032-3.187-6.144.234-8.203 6.145-10.246 1.824-4.78-10.008 4.559-9.79-.457 5.922-3.191 17.993-.457 5.704-5.011 1.367-1.59 6.363-5.926 4.543-8.207l2.511 15.953 5.235 8.425"/><path fill="#e9e6ba" d="M469.043 717.063c-.219 10.468 5.246 7.968-2.953 15.027l1.367-13.66c-2.5-6.16-8.879-11.852-6.836-19.145 2.969 5.926 5.012 12.074 8.422 17.778"/><path fill="#c9e7f8" d="M440.824 704.3c-7.07 10.938-9.789-13.44 0 0M442.41 707.71c-.676 17.087-5.687 6.837-1.82 2.735l-.223-1.367c.676-.457 1.133-1.59 2.043-1.367"/><path fill="#fffccc" d="M469.957 710.68c6.832.222 9.566 29.613-5.234 25.511.691-1.367 2.277-2.058 3.187-2.511 8.656-4.09 3.414-23.688 0-23.688v-1.137c.235 0 1.59 1.368 2.047 1.825"/><path fill="#5ecbf5" d="M381.164 448.727c4.793 50.8-48.723 108.882-23.898 174.933-17.079.235-31.88-7.277-14.344 3.649.91 0 2.953 1.144 2.953 2.054 2.734 0 6.613 0 9.566.903-3.863 0-12.52 8.66-15.476 8.66 7.277 7.293 14.113 20.73 11.156 31.89-10.933-10.48-24.59-29.379-23-42.363 2.043-20.277.91-46.7 7.512-65.828.453 1.586-.457 4.543 1.367 5.91 2.965.914 5.465-26.422 7.508-33.023 4.101-14.809 11.847-28.926 15.71-43.278 8.657-11.617 12.759-30.289 20.946-43.507M542.59 681.977c1.133-4.778 1.59-9.793 1.59-14.118-13.434 0-26.867 10.473-40.301 12.297 3.879-1.824 10.71-12.297 13.433-15.265 1.145-.91 5.922-5.692 7.747-6.836 2.953-.899 8.656 2.058 10.476 2.058l5.91.91c5.246 2.047 7.29 10.016 7.97 19.586-2.282.457-4.548.914-6.825 1.368M423.746 509.777c4.098-3.191 7.29-6.836 7.29-11.16-16.169-21.644-24.825-21.644-25.735 0-3.867-14.351-4.778-31.66-4.778-46.922 59.188 29.836 20.032 77.211 20.032 102.723 10.48 0 16.168-23.012 28.691-23.012-5.691 17.32-30.512 108.43 8.645 108.43 0 2.059 14.343 24.144 15.254 24.144-5.688 0-13.434-6.824-20.036-6.824 0 2.957 0 8.649 1.825 10.703 0 16.852 11.843 21.633 23 25.97-28.235-2.513-34.61-36.673-45.313-57.407.914-1.598-17.078-40.55-18.21-49.434-9.567-21.41-9.333-46.687.456-67.652 1.586-2.047 7.278-6.149 8.88-9.559"/><path d="M466.777 514.79c.903.456.446 1.589.223 2.046-1.133.676-14.344-5.469-16.168-6.383-13.887-.676-20.488 7.059-27.766 17.777-6.613-.234 17.977-24.835 19.344-26.203 7.969-4.558 18.668 8.66 24.367 12.762"/><path fill="#e9e6ba" d="M457.668 709.313c-1.59.91-6.836 2.734-7.29 3.648 1.821.91 5.247 0 6.38 2.277 2.496 4.782.91 10.926.91 15.262 7.965 0 5.687-16.172 1.367-19.363l-1.367-1.824M593.137 690.86c1.367 3.644 1.133 8.66-2.735 10.484 0 .91 3.41 1.59 4.102 1.59.676 1.82 4.086 11.847 6.367 7.289 2.055 5.015 5.012-14.805-7.058-19.586l-.676.222"/><path fill="#5ecbf5" d="M460.168 525.95c4.555 3.413 9.566 6.148 12.066 11.163 12.754 24.14 5.012 68.563 5.7 94.52 2.265-4.324 4.777-8.649 7.968-12.75l.676.457c-1.59 5.469-5.465 30.746-11.156 30.289-10.242-.91-6.145-84.27-6.379-94.078-.898-14.336-1.586-17.305-8.875-29.602"/><path fill="#fabe8e" d="M489.547 238.484c-.457-4.78-9.348-6.601-13.89-6.601 0 2.043.456 5.469 1.823 9.558.22.457 9.332.91 10.465 0-.222-.68 1.825-1.59 1.602-2.957M474.746 218.207c5.012.457 12.29.914 12.524-1.133-5.47-.91-5.47-2.5 0-3.867-2.512-.234-5.704 0-10.247 1.59l-2.277 3.41M472.688 217.988c.234 0 .69 0 1.148.219-.234-.453-.691-.91-.914-.91-.235.234-.235.457-.235.691M471.324 221.633c-.222-.457-.222-.91-.457-1.145-.222.453-.676.91-.91 1.367.453-.222.91-.222 1.367-.222M446.512 258.527c.91-.222 1.82-.68 2.953-1.367.234 0 1.148-.914 1.601-.914.91-.219 3.192 0 3.868.234.234 0 .457.223.691.223 3.41-.457 6.598 2.512 10.008 6.383 3.867 2.277 7.746 3.867 9.566 2.512 1.59-1.38-.687-8.438-2.512-9.57-4.777-3.192-17.976 0-20.03-5.47-2.044-4.78.452-11.851 4.32-14.574l.234-.457c.91 0 2.043-.457 3.191-.457l.676-6.836c.688-.218 2.277-2.043 3.188-1.132.457 0 3.414 1.355 3.414 1.812 3.644 0 4.554-1.367 4.554-3.414-3.867-.223-8.644-3.867-10.699.457-1.133.91-.457 1.59-.914 2.734.692 1.368-.219 2.5-.453 3.868-1.367.234-2.277-.91-3.41-1.133-2.5 1.824-2.957 5.457-3.649 7.75-.453 2.265-2.043 4.09-3.187 6.144-.91 1.825-.457 4.559-2.735 5.47-1.351 4.546-1.351 6.37-.675 7.737M496.824 120.953c2.965-.91 7.29-1.367 9.79-.457 3.644 1.133 5.011 5.692 9.331 3.649 3.188-1.149 4.102-8.66 9.114-6.836 6.597 2.043-.914 11.613-2.5 14.347-3.645 6.606-4.559 14.352-6.157 21.633-.914-2.266-.68-4.781-4.09-4.781-.91 2.738-.91 5.926-.687 9.34 1.82 3.867 1.367 12.527 1.598 17.32.68 11.383 1.367 25.734-1.364 36.894l-4.558 14.13c0 1.132-1.367 3.41-1.602 4.542-2.043 7.528 2.281 17.543 2.281 25.512-2.734 1.371-5.234 1.602-7.058.914-3.41-8.883-7.965-26.426-3.41-49.422 1.133-5.925 2.043-12.761 3.633-18.91-1.356-4.101.925-9.117 0-13.66 1.144-5.016.234-9.805 0-14.809-.223-4.101 0-7.98-.676-11.394-3.645-17.762-4.778-24.367-3.645-28.012M386.41 263.32c-1.367-1.367-9.566-7.75-11.39-3.882-4.555 9.34 17.535 21.41 20.726 15.03 1.82-3.636-4.558-11.148-9.336-11.148M452.656 320.71c-3.191 8.204-10.246 23.47-6.367 32.349 3.633 8.207 25.266 11.617 25.266.914-1.82 0-4.555-.914-6.375-.914 0-2.735-4.102-5.47-2.282-9.336 1.825-4.102 22.09-8.66 15.715-19.82l-25.957-3.192M438.766 374.926l-2.043-2.281c15.933 18.687 15.933 33.261 15.933 59.683 1.145-9.793 13.89-29.379 7.512-40.55-2.957-5.235-21.402-15.25-21.402-16.852M423.512 432.094c3.879-7.969-5-34.614 5.465-35.07l2.968 1.59c6.82 5.702 8.645 22.32 2.278 35.761-3.645-.68-7.29-1.367-10.711-2.281M398.023 377.438c6.364 7.738-5.011 31.203.676 36.671 1.367 0 13.434-20.273 13.434-20.73 2.277 0 .222 23.23.222 34.625-1.59-.688-3.175-1.379-4.543-2.055-3.425-1.824-6.835-3.414-10.48-4.781-2.734-2.055 0-5.012-1.133-7.746-.234-4.781-.687-26.645 1.824-35.985M416.91 296.8c-2.043 7.735-8.187 47.145 2.735 38.954 0 14.57-7.055 6.824-14.567 8.644l-.457-25.5c1.367-5.023 3.867-16.183 6.824-19.597-.222-.91-1.132-1.133-1.812-1.367-5.7 4.558 9.101-5.235 7.277-1.133M516.402 331.414c-8.644-17.762-18.21 10.941-21.625 17.777 4.778 0 17.301 2.735 20.27-3.878 1.355-2.958-1.145-10.016 1.355-13.899M509.125 269.465c-1.824 0-4.336-.453-6.145 0-8.656 3.414-1.835 28.246 5.688 30.746 6.82 1.824 6.379-30.746.457-30.746"/></svg>