<svg xmlns="http://www.w3.org/2000/svg" width="1080" viewBox="0 0 810 810" height="1080" version="1.0"><defs><clipPath id="d"><path d="M407 601h202v201.77H407zm0 0"/></clipPath><clipPath id="e"><path d="M270 1.02h193V151H270zm0 0"/></clipPath><clipPath id="f"><path d="M669 418h141v150H669zm0 0"/></clipPath><clipPath id="c"><path d="M0 0h810v803H0z"/></clipPath><filter x="0%" y="0%" width="100%" height="100%" id="a"><feColorMatrix values="0 0 0 0 1 0 0 0 0 1 0 0 0 0 1 0 0 0 1 0" color-interpolation-filters="sRGB"/></filter><mask id="b"><g filter="url(#a)"><path fill-opacity=".2" d="M-81-81h972v972H-81z"/></g></mask></defs><g mask="url(#b)"><g clip-path="url(#c)" transform="translate(0 7)"><path fill="#d3282d" d="m726.918 608.922.031.058.031.055c.301.52.645 1.063 1.016 1.617 5.563 8.297 18.238 19.532 23.434 23.977.336.289.636.543.886.758l2.325 1.976 2.304-2.011c.246-.215.543-.477.88-.774 4.945-4.375 17.038-15.433 22.652-23.758.523-.773.984-1.523 1.378-2.226l.043-.074.04-.079c.167-.34 1.027-2.078 1.394-3.242.527-1.691.793-3.449.777-5.222-.074-9.348-7.742-16.95-17.086-16.95h-.14c-4.899.04-9.469 2.215-12.63 5.758-3.183-3.453-7.733-5.555-12.573-5.555h-.14a16.94 16.94 0 0 0-12.04 5.106 16.964 16.964 0 0 0-4.91 12.121 16.866 16.866 0 0 0 1.21 6.164c.329.817.99 2.063 1.118 2.3zm14.648-22.145h.114c5.758 0 10.68 3.61 12.633 8.7 1.882-5.157 6.792-8.856 12.597-8.903h.113c7.426 0 13.48 5.989 13.543 13.43a13.521 13.521 0 0 1-.617 4.133c-.304.957-1.183 2.722-1.183 2.722-.356.633-.77 1.293-1.23 1.977-5.442 8.07-17.56 19.105-22.06 23.082-.331.293-.62.55-.867.766-.242-.207-.543-.461-.875-.746-4.664-3.997-17.418-15.235-22.793-23.258a27.042 27.042 0 0 1-.898-1.426s-.68-1.27-.95-1.95a13.386 13.386 0 0 1-.96-4.878c-.055-7.48 5.957-13.59 13.433-13.649M343.824 585.7l.063.112c.3.52.64 1.063 1.015 1.614 5.563 8.3 18.243 19.535 23.434 23.98.34.29.64.543.883.754l2.332 1.98 2.3-2.015c.247-.21.544-.473.88-.77 4.94-4.375 17.039-15.437 22.652-23.761.523-.774.988-1.524 1.383-2.223l.043-.074.035-.078c.172-.34 1.027-2.078 1.394-3.246.532-1.688.793-3.446.782-5.22-.079-9.347-7.743-16.952-17.09-16.952h-.14c-4.9.039-9.474 2.219-12.626 5.761-3.184-3.453-7.734-5.554-12.578-5.554h-.14a16.962 16.962 0 0 0-12.044 5.105c-3.203 3.25-4.941 7.555-4.906 12.121a17.03 17.03 0 0 0 1.211 6.164c.328.817.984 2.063 1.117 2.301zm14.653-22.145h.109c5.762 0 10.684 3.61 12.633 8.695 1.879-5.152 6.793-8.855 12.601-8.898h.11c7.43 0 13.48 5.984 13.543 13.43a13.36 13.36 0 0 1-.618 4.128c-.3.957-1.183 2.727-1.183 2.727-.356.633-.77 1.293-1.227 1.976-5.441 8.067-17.566 19.106-22.062 23.082-.328.293-.621.551-.863.766-.247-.211-.543-.465-.88-.75-4.66-3.992-17.413-15.23-22.792-23.254a25.979 25.979 0 0 1-.895-1.426s-.68-1.273-.953-1.949a13.503 13.503 0 0 1-.957-4.883c-.063-7.476 5.953-13.586 13.434-13.644"/><path fill="#ec3e3d" d="M98.918 164.41h-.09c-3.207.024-6.2 1.45-8.266 3.77-2.09-2.262-5.07-3.637-8.238-3.637h-.09a11.108 11.108 0 0 0-7.886 3.34 11.111 11.111 0 0 0-3.215 7.937c.012 1.387.281 2.746.793 4.04.215.535.648 1.347.73 1.507l.043.07c.196.34.422.696.664 1.063 3.64 5.43 11.946 12.79 15.348 15.7.219.187.414.355.578.491l1.527 1.297 1.504-1.316c.164-.14.36-.317.575-.508 3.238-2.863 11.16-10.105 14.835-15.559a19.2 19.2 0 0 0 .903-1.457l.027-.05.028-.047c.109-.223.671-1.36.91-2.125.347-1.11.523-2.258.511-3.418-.05-6.121-5.07-11.098-11.191-11.098m584.195 243.992h-.093c-3.207.028-6.2 1.453-8.266 3.774-2.09-2.262-5.067-3.637-8.234-3.637h-.094a11.092 11.092 0 0 0-7.887 3.34 11.12 11.12 0 0 0-3.215 7.937c.012 1.387.281 2.747.793 4.04.219.53.649 1.347.73 1.503l.024.04.02.035c.195.34.422.695.664 1.058 3.64 5.434 11.945 12.79 15.347 15.703.22.188.418.352.578.493l1.528 1.296 1.508-1.316c.16-.14.355-.316.57-.508 3.238-2.863 11.16-10.11 14.836-15.558.34-.504.648-.997.902-1.457l.028-.051.027-.047c.11-.223.672-1.363.91-2.125.348-1.11.524-2.258.512-3.418-.051-6.121-5.07-11.102-11.188-11.102"/><path fill="#d3282d" d="m208.855 43.855.028.06.035.058c.3.515.644 1.058 1.016 1.617 5.558 8.293 18.242 19.527 23.433 23.972.336.29.637.547.887.758l2.328 1.977 2.3-2.012c.247-.215.544-.476.876-.773 4.945-4.371 17.047-15.434 22.656-23.758.52-.774.988-1.524 1.383-2.223l.078-.152c.168-.34 1.023-2.082 1.395-3.246.53-1.688.793-3.446.777-5.223-.078-9.347-7.738-16.945-17.086-16.945h-.14c-4.903.039-9.47 2.21-12.63 5.758-3.183-3.457-7.734-5.559-12.57-5.559h-.144a16.994 16.994 0 0 0-12.043 5.106 16.967 16.967 0 0 0-4.907 12.12 16.931 16.931 0 0 0 1.211 6.165c.328.816.989 2.062 1.117 2.3zm14.653-22.144h.11c5.76 0 10.679 3.61 12.632 8.7 1.883-5.157 6.79-8.856 12.602-8.903h.109c7.43 0 13.48 5.992 13.539 13.43a13.384 13.384 0 0 1-.613 4.132c-.301.957-1.184 2.723-1.184 2.723a27.396 27.396 0 0 1-1.23 1.98c-5.442 8.07-17.563 19.102-22.059 23.082-.328.293-.621.547-.863.762-.246-.207-.543-.46-.88-.746-4.663-3.996-17.413-15.234-22.792-23.258a25.72 25.72 0 0 1-.899-1.425s-.675-1.27-.949-1.95a13.38 13.38 0 0 1-.957-4.875c-.062-7.48 5.953-13.59 13.434-13.652"/><path fill="#f89b22" d="m197.746 694.086-18.8-2.574-8.536-16.95-8.258 17.083-18.757 2.882 13.69 13.13-3.054 18.726 16.723-8.961 16.867 8.691-3.355-18.672 13.48-13.355m402.68-90.277-18.797-2.579-8.535-16.94-8.262 17.073-18.754 2.883 13.692 13.133-3.06 18.726 16.727-8.964 16.868 8.691-3.356-18.672 13.477-13.351m-343.981-28.762-17.265-2.363-7.84-15.567-7.586 15.688-17.23 2.644 12.581 12.067-2.808 17.195 15.363-8.234 15.488 7.988-3.085-17.153 12.382-12.265M729.164 91.82l-18.797-2.574-8.535-16.95-8.262 17.083-18.758 2.879 13.696 13.137-3.059 18.726 16.727-8.965 16.867 8.692-3.36-18.676 13.481-13.352M467.18 173.75l-18.797-2.574-8.535-16.946-8.262 17.079-18.754 2.882 13.691 13.133-3.054 18.727 16.722-8.969 16.868 8.695-3.356-18.675 13.477-13.352"/><path fill="#46b8b5" d="M328.117 160.559h-.004c-28.054 0-54.433 10.925-74.27 30.761-19.84 19.832-30.765 46.203-30.765 74.258 0 28.055 10.926 54.422 30.766 74.262 19.836 19.832 46.215 30.758 74.27 30.758 28.062 0 54.437-10.926 74.277-30.758 19.836-19.84 30.761-46.207 30.761-74.262s-10.925-54.426-30.761-74.258c-19.84-19.836-46.215-30.761-74.274-30.761zm64.735 181.832c-3.149.328-11.637.988-13.993-.055-2.504-1.113.672-7.367.028-17.078-.649-9.711.968-13.465 2.238-17.188 1.262-3.726-2.918-7.664-6.781-11.73-3.86-4.059-6.375-23.887-6.153-26.82.23-2.93-17.644 3.035-21.753 4.156-2.618.715-11.567-2.98-18.325-6.383-3.824-1.922-6.945-3.758-7.816-4.645-2.41-2.449-2.031-10.906-.668-14.933 1.371-4.035-1.961-11.035 0-17.094 1.297-3.992 4.594-7.55 8.484-11.184 2.02-1.878 4.196-3.78 6.336-5.769 6.281-5.82 13.797-5.242 18.313-4.992 4.515.246 34.86 12.906 36.543 13.722 1.68.813 6.144-4.52 6.652-9.25.508-4.734-18.371-6.863-21.98-7.347-3.61-.485 4.742-3.074 5.25-6.028.515-2.949-7.172-3.824-12.586-2.843-5.414.976-10.934 9.21-14.735 10.148-3.804.942-14.875-5.113-14.86-7.305.02-2.191 9.368-7.117 10.419-8.335 1.055-1.22-.172-3.872 0-5.97.172-2.093 2.394-2.573 8.027-4.515 5.637-1.933 5.867-3.613 6.7-6.61.34-1.234-.055-2.363-.56-3.484 30.907 10.93 54.86 36.547 63.481 68.461-1.937 1.664-3.773 3.828-2.738 6.332 2.004 4.844-5.121.793-7.758-1.922-2.633-2.707-9.914-6.07-9.262-1.55.649 4.52 18.141 7.71 21.7 11.836.351.402.68.785.996 1.16.355 3.418.535 6.89.535 10.402 0 30.813-13.887 58.387-35.734 76.813zm-48.829-176.012c.711 3.203 1.07 8.062 1.07 8.062-4.39 2.457-9.738 2.782-7.573 3.227 2.168.453 3.488.312.625 2.394-2.2 1.606-6.368 4.348-10.032 6.708-1.11.718-2.175 1.402-3.125 2-4.058 2.582-7.965 5.093-8.832 3.539-.867-1.559-1.488-8.008-2.383-9.84-.89-1.836-6.761-6.313-7.492-6.172-.73.137-5.605 4.02-5.605 4.02s1.906 2.55 0 3.296c-1.903.75-3.457 1.188-5.363 0-1.907-1.183-12.88 2.371-13.946 3.766-1.062 1.387 9.324.379 14.29-.156 4.96-.532 13.437-.692 12.8 1.386-.633 2.082-6.96 11.34-15.66 15.25-8.7 3.907-10.406 6.371-15.129 10.043-4.727 3.672-14.441 3.762-16.672 4.95-2.226 1.187-.176 7.66-4.617 7.351-4.438-.308-6.887-4.004-8.992-.98-2.11 3.023-3.766 7.832-2.84 8.52.922.69 4.144-4.923 6.195-3.223 2.047 1.695-.965 5.765-3.73 7.656-2.762 1.89-5.082 3.394-2.73 4.328 2.355.926 1.62 3.246 2.269 4.922.207.547.199 1.222.086 1.887 9.113-2.56 28.39 9.902 30.816 13.43 2.664 3.87 3.824 6.917 10.031 8.402 6.215 1.48 16.54 5.593 18.024 10.968 1.48 5.375-6.059 20.07-8.125 24.184-2.063 4.11-4.07 11.484-5.977 16.816-1.902 5.336-5.8 6.477-2.586 10.325 3.22 3.847 2.223 10.015 3.59 12.48s2.664 5.09 0 4.465c-2.664-.621-16.8-11.09-29.883-25.883-13.082-14.79-13.152-21.566-14.007-24.496-.852-2.93-10.239-10.942-14.653-13.352-4.41-2.41-4.523-12.343-.93-21.07 3.344-8.133 7.993-12.3 10.79-14.617a18.799 18.799 0 0 1-.415-.262c-1.062-.71.09-4.008-3.328-6.937-3.418-2.93-2.097-9.262-1.539-14.618.563-5.355 2.438-6.367 1.903-11.59-.024-.265-.055-.503-.082-.742 17.152-30.832 50.058-51.695 87.847-51.695h.004c5.41 0 10.719.434 15.906 1.258zm-65.64 186.5c5.668.945 15.086 2.836 18.601 1.84 5.075-1.446 14.262-4.352 18.02-3.246 1.586.468 7.023 2.105 13.11 3.675 8.34 2.145 17.894 4.153 20.44 2.813 4.41-2.316 13.048-5.258 16.618-5.184 1.3.024 5.344.715 9.969 1.59-14.032 7.442-30.032 11.664-47.024 11.664h-.004c-18.09 0-35.066-4.781-49.73-13.152"/><path fill="#1e4764" d="M679.809 549.824 658.66 525.25c-3.144-3.656-9.66-6.645-14.48-6.645h-27.075v-9.593h26.23c4.84 0 8.767-3.926 8.767-8.77V375.277c0-4.84-3.926-8.761-8.766-8.761h-206.79c-4.839 0-8.765 3.921-8.765 8.761v124.965c0 4.844 3.926 8.77 8.766 8.77h26.23v9.593h-27.074c-4.82 0-11.336 2.989-14.484 6.645l-21.145 24.574c-1.828 2.125-2.12 4.02-1.105 5.239h-.004c2.098 3.261 17.058 19.05 35.332 19.05h211.359c18.274 0 33.18-15.797 35.282-19.062l-.012-.004c1-1.219.699-3.106-1.117-5.223zm-18.961-11.133 7.273 9.336h-17.105l-5.23-9.336zm-227.434 9.336 5.23-9.336h14.38l-4.278 9.336zm19.664 0 4.277-9.336h14.598l-3.328 9.336zm56.668-9.336-1.426 9.336h-15.855l2.379-9.336zm-13.762-4.488 2.375-9.336h13.5l-1.425 9.336zm-3.98 0h-14.317l3.329-9.336h13.363zm-1.14 4.488-2.38 9.336h-15.722l3.328-9.336zm37.741 0-.476 9.336h-15.934l1.426-9.336zm-14.3-4.488 1.425-9.336h13.579l-.477 9.336zm33.133 4.488.472 9.336h-15.96l.476-9.336zm-14.786-4.488.477-9.336h13.601l.477 9.336zm18.375 0-.48-9.336h13.578l1.43 9.336zm15.211 4.488 1.426 9.336h-15.937l-.473-9.336zm21.617-4.488-2.378-9.336h13.367l3.328 9.336zm15.918 4.488 3.325 9.336h-15.723L589 538.691zm-16.378 9.336h-15.856l-1.426-9.336h14.907zm-17.965-13.824-1.43-9.336h13.5l2.375 9.336zm38.476 4.488h14.598l4.281 9.336h-15.55zm18.93 0h14.383l5.226 9.336h-15.332zm23.234-13.824 7.278 9.336H643.27l-5.227-9.336zm-16.597 0 5.23 9.336h-13.922l-4.281-9.336zm-13.024 9.336h-14.144l-3.328-9.336h13.191zm-180.144-37.715V379.031h199.273v117.457zm52.527 12.524h94.219v9.593h-94.219zm-29.137 15.855h13.188l-3.332 9.336h-14.137zm-4.336 0-4.28 9.336h-13.923l5.23-9.336zm-29.546 0h12.007l-5.23 9.336h-14.055zm-10.774 13.824h15.035l-5.226 9.336h-17.09l7.281-9.336"/><path fill="#b9b6a5" d="M773.176 240.121v-13.426h-111.89v156.016h29.374v25.691h111.9V283.863h-29.383zm-4.035 138.555H665.32V244.16h103.82zm29.379 25.687H694.703v-21.652h18.559v14.875h67.55v-37.492h-7.636v-8.926h19.664v-6.55h-19.664v-8.923h19.664v-6.55h-19.664v-8.922h19.664v-11.578h-19.664v-7.32h25.344v103.038"/><path fill="#b9b6a5" d="M717.66 302.922h-33.777v37.492h67.55v-37.492H717.66m-45.8-51.449v11.578h91.605v-11.578h-91.606m91.606 27.054v-6.55h-91.606v6.55h91.606m-45.805 8.923h-45.8v6.546h91.605v-6.547H717.66m0 61.891h-45.8v6.547h91.605v-6.547H717.66m0 15.469h-45.8v6.546h91.605v-6.546H717.66"/><path fill="#ec3e3d" d="M580 15.336h-.004c-45.012 0-82.254 27.824-88.52 64.043-14.062 12.246-22.96 30.27-22.96 50.383 0 19.511 8.367 37.07 21.71 49.289l-11.96 33.789 25.906-23.98a66.508 66.508 0 0 0 31.168 7.714c24.258 0 45.488-12.922 57.2-32.258a102.901 102.901 0 0 0 19.12-4.093l41.903 38.789-17.801-50.285c20.535-13.715 33.695-34.836 33.695-58.532 0-41.34-40.05-74.86-89.457-74.86zm-44.66 176.672a62.4 62.4 0 0 1-29.035-7.184l-2.86-1.512-2.375 2.2-12.324 11.402 5.785-16.344 1.012-2.847-2.23-2.043c-12.856-11.77-20.231-28.504-20.231-45.918 0-16.805 6.707-32.067 17.57-43.282a65.307 65.307 0 0 0-.109 3.715c0 41.344 40.05 74.856 89.453 74.856H580c2.27 0 4.52-.086 6.746-.227-11.223 16.399-30.078 27.184-51.406 27.184zm93.43-70.82h-97.543v-7.665h97.543zm0-18.106h-97.543v-7.664h97.543zm0-18.105h-97.543v-7.665h97.543zm0-18.11h-97.543v-7.66h97.543v7.66"/><path fill="#f89b22" d="M80.04 206.05H55.36c-9.868 0-17.872 7.993-17.872 17.868v2.16H34.36v13.965h.38v101.55l.413.5 21.344 31.583 11.2 16.578 11.206-16.578 21.34-31.578.414-.504V240.043h.38v-13.965h-3.13v-2.16c0-9.875-8.004-17.867-17.867-17.867zm.269 131.673c-.657 1.343-3.766 6.511-12.614 6.511-8.863 0-11.965-5.191-12.61-6.507V242.12H80.31zm-29.383-.078c-.586 1-2.473 3.722-5.996 4.355a6.258 6.258 0 0 1-1.106.102c-2.324 0-4.113-1.356-4.926-2.102v-97.879h12.028zm45.57 2.359c-.808.746-2.594 2.098-4.922 2.098-.367 0-.742-.036-1.11-.102-3.53-.633-5.417-3.367-5.995-4.355V242.12h12.027zm-36.488 31.445a16.855 16.855 0 0 1 7.687-1.84c2.7 0 5.32.63 7.692 1.84l-7.692 11.375-7.687-11.375"/><path fill="#37939d" d="M298.281 371.96H148.574v149.68h51.238v28.977H349.52V400.934h-51.24zm46.668 174.09H204.375v-24.41h6.512v17.903H338.44V412.011h-40.16V405.5h46.668zM153.145 376.528h140.57v140.551h-140.57zm62.308 145.114h82.828v-20.25c7.18-3.016 14.996-4.407 24.485-4.407 3.664 0 7.355.192 11.109.454v37.539H215.453zm107.387-29.22zm4 .075zm3.758.16zm-32.317 3.817v-.004c.422-.164.852-.317 1.278-.469a71.22 71.22 0 0 0-1.278.473zm1.707-.625zm2.313-.743zm2.008-.558zm1.867-.457zm2.379-.485zm1.941-.328c.61-.09 1.223-.183 1.832-.257-.61.074-1.223.168-1.832.257zm2.008-.277zm2.273-.238zm1.899-.153c.61-.039 1.222-.07 1.832-.101-.61.031-1.223.062-1.832.101zm2.238-.113zm2.078-.058"/><path fill="#37939d" d="M223.43 510.566h63.773v-127.53h-127.55v127.53zm0-4.562h-59.211V452.12l19.469-14.246 15.789 27.934 2.27 4.011 3.995-2.308 12.57-7.27 2.72 1.68 23.081 14.25 2.985 1.836 2.55-2.403 30.356-28.593 2.633 2.078v56.914zm-16.004-96.488c2.039 0 3.91.718 5.383 1.91a6.617 6.617 0 0 1-.813-3.188 6.664 6.664 0 0 1 6.664-6.66 6.62 6.62 0 0 1 4.77 2.035c.23.235.449.489.644.758 3.047-7.05 10.059-11.988 18.223-11.988 8.957 0 16.516 5.93 18.992 14.07a13.235 13.235 0 0 1 6.492-1.7c7.352 0 13.313 5.958 13.313 13.31h-82.215a8.546 8.546 0 0 1 8.547-8.547"/><g clip-path="url(#d)"><path fill="#d3282d" d="M419.156 601.879h37.114V715.41h9.894v-64.914h37.121v64.914h9.89v-87h37.118v87h9.898v-41.879h37.114v41.88h11.394v8.55h-11.394v37.93H560.19v-37.93h-9.898v72.71h-37.117v-72.71h-9.89v64.969h-37.122v-64.97h-9.894v78.825h-37.114v-78.824h-11.398v-8.55h11.398zm173.582 76.219h-27.984v37.312h27.984zm-47.011-45.118h-27.985v82.43h27.985zm-47.012 22.082H470.73v60.348h27.985zm-47.012-48.617H423.72V715.41h27.984V606.445"/></g><path fill="#376c87" d="M368.855 614.855h-9.8l-48.16-37.851c-2.457-1.93-5.676-2.89-8.891-2.89-3.219 0-6.442.96-8.899 2.89l-48.16 37.851h-9.797v7.704l-28.625 22.5v129.96H397.48V645.06l-28.625-22.496zm-4.566 4.567v48.941l-11.21 7.871v-7.093H250.925v7.093l-11.207-7.87v-48.942zm-53.394 85.719c-2.457-1.93-5.676-2.895-8.891-2.895-3.219 0-6.442.961-8.899 2.895l-.48.375-13.367-9.391h45.488l-13.371 9.395zm-8.891-17.04h-34.176l-15.574-10.933h99.5l-15.578 10.934zm-90.91-34.257 77.785 54.617-77.785 61.144zm181.82 115.617-.246-.05-77.547-60.946 77.793-54.621V769.46"/><path fill="#376c87" d="M353.078 639.246v-8.027H250.926v8.027h102.152M250.926 650.18v8.023h102.152v-8.023H250.926"/><path fill="#5b293a" d="m397.29 75.184-30.9-17.832-21.163-12.223v60.11l21.164-12.22 30.898-17.835"/><g clip-path="url(#e)"><path fill="#5b293a" d="M366.39 150.125h96.395V1H270v149.125zM441 6.41h13.965v10.38H441zm0 21.32h13.965v10.38H441zm0 21.32h13.965v10.38H441zm0 21.321h13.965V80.75H441zm0 21.324h13.965v10.375H441zm0 21.32h13.965v10.376H441zm0 21.32h13.965v10.376H441zm-149.21 10.376h-13.97v-10.375h13.97zm0-21.32h-13.97v-10.375h13.97zm0-21.32h-13.97V91.694h13.97zm0-21.321h-13.97V70.371h13.97zm0-21.32h-13.97V49.05h13.97zm0-21.32h-13.97V27.73h13.97zm0-21.32h-13.97V6.41h13.97zm7.222-11.407H433.77v18.465H299.012zm0 28.117H433.77v84.121H299.012zm0 93.773H433.77v18.47H299.012v-18.47"/></g><g clip-path="url(#f)"><path fill="#376c87" d="M743.73 418.672c-19.84 0-38.488 7.726-52.52 21.75-14.026 14.027-21.753 32.676-21.753 52.515 0 19.833 7.727 38.489 21.754 52.512 14.031 14.028 32.68 21.754 52.52 21.754 19.843 0 38.5-7.726 52.523-21.754 14.031-14.023 21.754-32.68 21.754-52.511 0-19.84-7.723-38.489-21.754-52.516-14.024-14.024-32.68-21.75-52.524-21.75zm45.786 128.586c-2.235.226-8.235.695-9.899-.043-1.773-.79.477-5.207.02-12.074-.457-6.871.683-9.524 1.578-12.157.898-2.632-2.059-5.418-4.79-8.293-2.73-2.87-4.51-16.898-4.347-18.968.156-2.075-12.484 2.148-15.387 2.941-1.851.504-8.18-2.105-12.96-4.512-2.704-1.363-4.915-2.66-5.528-3.289-1.703-1.73-1.433-7.707-.469-10.558.965-2.852-1.386-7.805 0-12.09.914-2.824 3.243-5.336 5.996-7.906 1.43-1.332 2.97-2.672 4.48-4.082 4.442-4.114 9.759-3.704 12.95-3.528 3.195.176 24.653 9.125 25.84 9.7 1.191.578 4.348-3.188 4.707-6.544.36-3.343-12.988-4.847-15.543-5.187-2.555-.344 3.352-2.18 3.715-4.266.36-2.086-5.074-2.703-8.902-2.007-3.832.687-7.73 6.507-10.418 7.175-2.688.66-10.524-3.62-10.512-5.168.015-1.547 6.625-5.035 7.371-5.894.742-.86-.121-2.738 0-4.219.117-1.484 1.687-1.82 5.672-3.195 3.988-1.364 4.152-2.555 4.738-4.672.242-.879-.035-1.676-.39-2.469 21.851 7.735 38.792 25.848 44.886 48.414-1.375 1.176-2.664 2.707-1.933 4.48 1.414 3.423-3.621.555-5.485-1.355-1.867-1.918-7.011-4.297-6.55-1.105.457 3.199 12.828 5.46 15.343 8.37.25.286.485.56.703.821.25 2.422.375 4.875.375 7.36 0 21.792-9.812 41.285-25.261 54.32zm-34.532-124.469c.5 2.262.754 5.703.754 5.703-3.105 1.735-6.886 1.965-5.355 2.281 1.535.317 2.469.22.441 1.692-1.55 1.129-4.504 3.078-7.094 4.742-.785.504-1.539.988-2.21 1.414-2.868 1.824-5.633 3.606-6.243 2.5-.617-1.098-1.054-5.656-1.687-6.953-.63-1.305-4.778-4.465-5.3-4.367-.513.097-3.962 2.84-3.962 2.84s1.352 1.804 0 2.336c-1.344.527-2.445.836-3.793 0-1.347-.844-9.11 1.675-9.855 2.66-.758.98 6.586.27 10.101-.11 3.508-.379 9.504-.492 9.055.98-.45 1.473-4.93 8.02-11.078 10.786-6.153 2.766-7.36 4.508-10.7 7.102-3.343 2.593-10.21 2.664-11.785 3.5-1.578.84-.132 5.414-3.27 5.195-3.14-.215-4.866-2.832-6.358-.695-1.493 2.14-2.66 5.539-2.012 6.027.656.484 2.933-3.48 4.387-2.281 1.445 1.199-.68 4.082-2.641 5.418-1.953 1.34-3.594 2.402-1.93 3.058 1.668.656 1.145 2.297 1.606 3.48.148.387.136.868.062 1.337 6.442-1.809 20.074 7 21.79 9.5 1.886 2.734 2.702 4.89 7.093 5.937 4.395 1.05 11.695 3.957 12.742 7.758 1.051 3.805-4.281 14.191-5.738 17.101-1.461 2.907-2.879 8.122-4.227 11.895-1.347 3.77-4.105 4.578-1.832 7.297 2.278 2.723 1.57 7.082 2.535 8.824.97 1.746 1.887 3.602 0 3.16-1.878-.441-11.878-7.843-21.128-18.3-9.254-10.461-9.301-15.254-9.903-17.325-.605-2.074-7.246-7.738-10.367-9.441-3.113-1.703-3.2-8.73-.656-14.902 2.367-5.754 5.656-8.696 7.629-10.34a3.263 3.263 0 0 1-.29-.184c-.753-.5.063-2.832-2.355-4.902-2.414-2.067-1.484-6.547-1.09-10.336.399-3.79 1.73-4.5 1.348-8.2-.016-.183-.043-.351-.059-.523 12.13-21.8 35.403-36.55 62.121-36.55 3.832 0 7.586.304 11.254.886zm-46.418 131.879c4.008.672 10.668 2.008 13.149 1.305 3.594-1.024 10.09-3.078 12.746-2.297 1.117.332 4.969 1.492 9.27 2.597 5.898 1.52 12.656 2.938 14.457 1.993 3.12-1.637 9.222-3.72 11.746-3.668.925.02 3.78.504 7.054 1.125-9.926 5.265-21.238 8.25-33.258 8.25-12.793 0-24.796-3.387-35.164-9.305"/></g><path fill="#d3282d" d="m786.2 208.117-9.391-10.906c-1.395-1.625-4.286-2.953-6.426-2.953h-12.016v-4.262h11.637a3.889 3.889 0 0 0 3.894-3.887v-55.472a3.892 3.892 0 0 0-3.894-3.89h-91.785a3.891 3.891 0 0 0-3.89 3.89v55.472a3.888 3.888 0 0 0 3.89 3.887h11.64v4.262h-12.015c-2.14 0-5.032 1.328-6.43 2.953l-9.387 10.906c-.808.942-.937 1.781-.488 2.324h-.004c.934 1.45 7.574 8.454 15.688 8.454h93.816c8.11 0 14.727-7.008 15.656-8.461h-.004c.442-.543.313-1.38-.492-2.317zm-8.423-4.945 3.23 4.144h-7.593l-2.32-4.144zm-100.949 4.144 2.32-4.144h6.387l-1.902 4.144zm8.727 0 1.902-4.144h6.477l-1.477 4.144zm25.156-4.144-.633 4.144h-7.039l1.055-4.144zm-6.11-1.988 1.055-4.149h5.992l-.632 4.149zm-1.765 0h-6.356l1.477-4.149h5.934zm-.508 1.988-1.055 4.144h-6.98l1.48-4.144zm16.754 0-.215 4.144h-7.07l.633-4.144zm-6.348-1.988.633-4.149h6.028l-.215 4.149zm14.707 1.988.211 4.144h-7.086l.211-4.144zm-6.562-1.988.21-4.149h6.036l.215 4.149zm8.156 0-.215-4.149h6.024l.636 4.149zm6.75 1.988.633 4.144h-7.07l-.215-4.144zm9.594-1.988-1.05-4.149h5.933l1.476 4.149zm7.066 1.988 1.477 4.144h-6.977l-1.058-4.144zm-7.265 4.144h-7.043l-.633-4.144h6.617zm-7.98-6.132-.634-4.149h5.993l1.054 4.149zm17.081 1.988h6.48l1.9 4.144h-6.903zm8.399 0h6.386l2.32 4.144h-6.8zm10.32-6.137 3.227 4.149h-6.247l-2.324-4.149zm-7.371 0 2.324 4.149h-6.183l-1.895-4.149zm-5.781 4.149h-6.278l-1.476-4.149h5.855zm-79.961-16.743v-52.136h88.453v52.136zm23.312 5.555h41.828v4.262H703.2zm-12.933 7.04h5.859l-1.48 4.148h-6.274zm-1.922 0-1.899 4.148h-6.183l2.324-4.149zm-13.117 0h5.332l-2.32 4.148H672zm-4.782 6.136h6.676l-2.32 4.144h-7.582l3.226-4.144"/><path fill="#5b293a" d="M193.168 228.016v-9.965h-83.059v115.808h21.809v19.067h83.055v-92.438h-21.805zm-3.004 102.847H113.11v-99.851h77.055zm21.813 19.067h-77.063v-16.07h13.777v11.035h50.141v-27.829h-5.664v-6.625h14.59v-4.859h-14.59v-6.621h14.59v-4.863h-14.59v-6.625h14.59v-8.594h-14.59v-5.43h18.809v76.48"/><path fill="#5b293a" d="M151.957 274.629h-25.07v27.836h50.14v-27.836h-25.07m-33.997-38.184v8.594h67.993v-8.594h-67.992m67.992 20.082v-4.863h-67.992v4.863h67.992m-33.996 6.621h-33.996v4.864h67.992v-4.864h-33.996m0 45.938h-33.996v4.86h67.992v-4.86h-33.996m0 11.488h-33.996v4.856h67.992v-4.856h-33.996"/><path fill="#46b8b5" d="M189.773 68.477c-29.82 0-54.5 18.433-58.648 42.433-9.32 8.113-15.21 20.055-15.21 33.38 0 12.929 5.538 24.562 14.382 32.651l-7.926 22.391 17.164-15.887a44.08 44.08 0 0 0 20.649 5.114c16.07 0 30.14-8.563 37.902-21.375a68.575 68.575 0 0 0 12.664-2.715l27.766 25.703-11.793-33.317c13.605-9.09 22.324-23.082 22.324-38.777 0-27.394-26.54-49.601-59.274-49.601zm-29.59 117.058a41.333 41.333 0 0 1-19.234-4.765l-1.898-1-1.574 1.457-8.16 7.55 3.831-10.824.668-1.887-1.476-1.351c-8.52-7.805-13.403-18.89-13.403-30.426 0-11.137 4.442-21.246 11.641-28.676a39.59 39.59 0 0 0-.07 2.465c0 27.387 26.531 49.594 59.265 49.594a70.92 70.92 0 0 0 4.473-.152c-7.437 10.867-19.926 18.015-34.062 18.015zm61.907-46.926h-64.63v-5.078h64.63zm0-11.996h-64.63v-5.082h64.63zm0-12h-64.63v-5.074h64.63zm0-12h-64.63V97.54h64.63v5.074"/><path fill="#1e4764" d="M397.785 382.559h-19.16c-7.668 0-13.879 6.21-13.879 13.875v1.68h-2.43v10.835h.293v78.852l.32.387 16.575 24.523 8.7 12.867 8.698-12.867 16.57-24.524.321-.386v-78.852h.293v-10.836h-2.426v-1.68c0-7.663-6.219-13.874-13.875-13.874zm.207 102.238c-.508 1.039-2.926 5.055-9.789 5.055-6.883 0-9.293-4.032-9.793-5.055v-74.23h19.582zm-22.812-.063c-.457.782-1.918 2.895-4.657 3.38-.285.05-.57.077-.859.077-1.805 0-3.191-1.046-3.824-1.625v-76h9.34zm35.382 1.832c-.625.579-2.015 1.625-3.82 1.625-.285 0-.574-.027-.863-.078-2.742-.484-4.207-2.61-4.656-3.379v-74.168h9.34zm-28.328 24.418a13.042 13.042 0 0 1 5.97-1.43c2.089 0 4.128.489 5.964 1.43l-5.965 8.832-5.969-8.832"/><path fill="#ec3e3d" d="M161.7 534.047H55.835v105.851h36.23v20.489H197.93V554.539H161.7zm33.003 123.11h-99.41v-17.259h4.605v12.657h90.2v-32.778c-.887-.066-1.774-.136-2.657-.195.883.059 1.77.129 2.657.195v-57.406h-28.399v-4.605h33.004zM59.066 537.276h99.403v99.391H59.066zm44.059 102.621h58.574v-14.324c5.078-2.133 10.606-3.113 17.317-3.113 2.586 0 5.203.137 7.855.316v26.547h-83.746zm75.941-20.664zm2.832.051zm2.657.113zm-22.856 2.7v-.004c.301-.114.602-.223.906-.328-.304.105-.605.222-.906.332zm1.207-.446zm1.633-.52zm1.422-.398zm1.32-.32zm1.684-.344c.328-.058.652-.117.98-.168-.328.051-.652.11-.98.168zm1.37-.234a73.51 73.51 0 0 1 .001 0zm1.423-.195zm1.605-.164zm1.344-.11c.434-.027.863-.054 1.297-.07-.434.015-.863.043-1.297.07zm1.582-.078zm1.469-.039"/><path fill="#ec3e3d" d="M108.766 632.063h45.101v-90.18H63.668v90.18zm0-3.231H66.898v-38.094l13.766-10.074 11.168 19.75 1.602 2.836 2.824-1.633 8.89-5.137 1.926 1.184 16.324 10.074 2.106 1.301 1.805-1.695 21.468-20.223 1.864 1.469v40.242zm-11.313-68.223c1.442 0 2.766.5 3.805 1.348a4.708 4.708 0 0 1 4.137-6.96c1.324 0 2.52.55 3.37 1.433.165.168.325.343.458.539 2.156-4.989 7.113-8.473 12.89-8.473 6.328 0 11.676 4.188 13.426 9.945a9.37 9.37 0 0 1 4.594-1.199c5.199 0 9.41 4.211 9.41 9.406H91.41a6.04 6.04 0 0 1 6.043-6.039"/><path fill="#b9b6a5" d="M134.188 383.035h-26.25v80.281h-6.997v-45.902H74.695v45.902h-7v-61.52h-26.25v61.52h-6.992v-29.613H8.203v29.613H.148v6.047h8.055v26.82h26.25v-26.82h6.992v51.418h26.25v-51.418h7v45.942h26.246v-45.942h6.996v55.746h26.25v-55.746h8.055v-6.047h-8.054zM11.433 436.934h19.789v26.382h-19.79zm33.242-31.907h19.789v58.29h-19.79zm33.246 15.614H97.71v42.675H77.92zm33.242-34.38h19.793v77.055h-19.793v-77.054"/><path fill="#f89b22" d="M712.5 599.629h-6.523l-32.094-25.219c-1.637-1.289-3.781-1.93-5.926-1.93-2.144 0-4.289.641-5.93 1.93l-32.086 25.219h-6.527v5.133l-19.07 14.988v86.594H731.57V619.75l-19.07-14.988zm-3.04 3.043v32.61l-7.468 5.241v-4.726h-68.066v4.726l-7.473-5.242v-32.61zm-35.577 57.113c-1.637-1.285-3.781-1.93-5.926-1.93-2.144 0-4.289.645-5.93 1.93l-.316.246-8.906-6.25h30.308l-8.91 6.254zm-5.926-11.351h-22.766l-10.379-7.29h66.297l-10.382 7.29zm-60.574-22.829 51.832 36.391-51.832 40.742zm121.148 77.036-.16-.036L676.7 662l51.832-36.395v77.036"/><path fill="#f89b22" d="M701.992 615.875v-5.344h-68.066v5.344h68.066m-68.066 7.289v5.348h68.066v-5.348h-68.066m-78.004-338.359-28.137-16.243-19.277-11.125v54.735l19.277-11.125 28.137-16.242"/><path fill="#f89b22" d="M527.785 353.043h87.778V217.25h-175.56v135.793zm67.934-130.867h12.722v9.449H595.72zm0 19.414h12.722v9.453H595.72zm0 19.414h12.722v9.453H595.72zm0 19.414h12.722v9.453H595.72zm0 19.418h12.722v9.453H595.72zm0 19.418h12.722v9.45H595.72zm0 19.414h12.722v9.45H595.72zm-135.875 9.45h-12.715v-9.45h12.715zm0-19.415h-12.715v-9.45h12.715zm0-19.414h-12.715v-9.453h12.715zm0-19.418h-12.715v-9.453h12.715zm0-19.414h-12.715v-9.453h12.715zm0-19.414h-12.715v-9.453h12.715zm0-19.418h-12.715v-9.45h12.715zm6.586-10.387h122.71v16.813H466.43zm0 25.606h122.71v76.605H466.43zm0 85.39h122.71v16.817H466.43v-16.817"/><path fill="#46b8b5" d="m624.707 317.586.91 18.816 9.047-.07 9.04-.074.609-18.832-9.805.082-9.801.078m-3.504-72.336 3.067 63.293 10.164-.082 10.171-.082 2.047-63.336-12.726.105-12.723.102"/></g></g></svg>