<svg xmlns="http://www.w3.org/2000/svg" width="1080" viewBox="0 0 810 810" height="1080" version="1.0"><defs><clipPath id="a"><path d="M253 742h11v2.766h-11zm0 0"/></clipPath><clipPath id="b"><path d="M268 744.3h16v.466h-16zm0 0"/></clipPath><clipPath id="c"><path d="M153 533.02h296.953v211.746H153zm0 0"/></clipPath></defs><path fill="#e2c4af" d="M127.922 99.879c2.445 14.488 4.687 25.84 5.84 31.441 14.066 1.965 32.625 4.645 50.57 7.496-1.477-7.082-3.289-14.086-5.523-20.859a53.795 53.795 0 0 0-3.164-7.59l-1.583-1.113c-5.265-3.422-21.109-11.887-46.14-9.375"/><path fill="#b37b55" d="M68.781 247.04c3.762-2 7.34-2.657 10.727-2.294 2.578-19.129 4.633-39.488 5.808-52.215 3.11 5.219 6.684 7.922 10.524 9.305 1.555.48 3.133.836 4.68 1.09l.207.023 11.718.078-2.691-8.289c-.777.645-1.59 1.09-2.45 1.254-6.167 1.172-16.968-5.652-23.296-14.594l-6.79.829c-.152 4.976.759 11.332 1.344 20.347l-15.886 16.082c-.18-.187-.356-.386-.531-.582-1.766 11.07-4.211 24.965-7.036 37.926a90.394 90.394 0 0 1 13.672-8.96"/><path fill="#c69575" d="M118.531 225.89c-4.355-6.464-13.707-16.23-17.793-22.921l-.218-.043a34.43 34.43 0 0 1-4.688-1.098c3.031 5.063 12.04 22.465 21.34 40.688 7.871-1.043 15.402-2.036 22.183-3.227.856-.738 1.704-1.465 2.547-2.195l-11.66-3.305c-5.926-1.871-8.93-3.773-11.71-7.898"/><path fill="#d6ab8c" d="m112.453 203.027-11.77-.136-.163.035.218.043c4.086 6.691 13.438 16.457 17.793 22.922 2.781 4.125 5.785 6.027 11.711 7.898l11.66 3.305c4.141-3.559 8.094-7 11.957-10.278-30.668-9.879-41.386-23.765-41.406-23.789M290.242 519.488a58.779 58.779 0 0 0-.523-2.445c-.422-1.785-1.02-3.496-1.91-5.48.89 1.984 1.488 3.695 1.91 5.48.187.77.355 1.598.523 2.445M247.844 395.07c.46.782.902 1.555 1.332 2.301-.43-.746-.871-1.512-1.332-2.3M264.027 443.281c-.066-.156-.136-.324-.21-.48.074.156.144.324.21.48M20.258 324.508l-.016.41a146.8 146.8 0 0 0 0 .004l.016-.414M265.688 447.617c.18.582.347 1.176.5 1.778-.508-2.024-1.196-3.903-1.938-5.606a36.286 36.286 0 0 1 1.438 3.828M267.766 465.281l.004.364-.004-.364M276.762 484.23l.031.079-.168-.399.137.32M280.05 494.988c-.034-.218-.09-.468-.136-.722.047.254.098.488.137.722M271.473 474.922c-.141-.2-.29-.399-.43-.598.144.2.285.399.43.598M37.79 402.773a192.555 192.555 0 0 1-4.028-8.867l-.035-.078c-4.32-10.191-7.883-21.043-10.27-32.484 5.926 28.465 19.086 53.261 33.23 73.328-.187-.27-.363-.543-.542-.817-6.555-9.382-12.883-19.77-18.356-31.082M273.488 477.977l-.156-.266.156.266M272.387 476.246c-.125-.187-.254-.367-.38-.558.138.203.255.37.38.558M278.602 489.086l-.094-.266.094.266M279.457 492.176a19.006 19.006 0 0 0-.14-.578c.054.199.097.39.14.578M267.742 464.066c.004.16.004.332.012.489-.008-.157-.008-.328-.012-.489M275.637 481.832l-.188-.367c.078.16.133.258.188.367M20.523 320.355c.047-.53.11-1.07.168-1.613-.058.543-.12 1.082-.168 1.613M262.445 440.09l-.05-.086.05.086M267.7 462.793c.003.187.01.367.015.55-.004-.183-.012-.363-.016-.55M259.648 435.684l-.246-.336.246.336M259.273 435.172l-.175-.223.175.223M262.14 439.566c-.156-.273-.312-.55-.468-.808.156.258.312.531.469.808M258.629 431.645c.035.347.066.69.101 1.046-.035-.355-.066-.707-.101-1.046M260.535 436.95l-.164-.24.164.24M260.738 437.258l-.203-.309.203.309M274.621 479.914c-.082-.144-.18-.324-.281-.492.11.18.191.336.281.492M261.402 438.305c-.14-.223-.277-.446-.41-.649.133.203.27.426.41.649M268.488 471.145l.211.234-.21-.234M21.02 345.797a149.56 149.56 0 0 1-.711-9.64c.128 3.253.37 6.464.71 9.64M257.254 419.77c.644 3.734.898 6.957 1.305 11.113-.407-4.156-.66-7.38-1.305-11.113M260.14 436.379c-.105-.156-.21-.3-.304-.442.101.145.2.286.305.442M20.344 322.664c.023-.41.066-.832.093-1.242-.027.41-.07.832-.093 1.242M253.254 405.105c-.902-2-2.324-4.664-4.063-7.703 1.739 3.036 3.153 5.696 4.063 7.703M268.008 470.613l.144.157-.144-.157M259.027 434.86l-.074-.098.074.097M267.77 467.547l-.004.129.004-.13M267.633 461.434c.012.203.023.402.031.609-.008-.207-.02-.406-.031-.61M117.172 242.516c-9.3-18.223-18.309-35.625-21.332-40.68-3.84-1.383-7.414-4.086-10.524-9.305-1.175 12.727-3.23 33.086-5.808 52.215-3.387-.363-6.965.293-10.727 2.293A90.394 90.394 0 0 0 55.11 256a78.075 78.075 0 0 0-3.238 2.68c17.598-9.79 42.774-13.192 65.3-16.164"/><path fill="#ddbaa1" d="M254.008 406.89c.058.18.12.372.18.583-.06-.211-.122-.403-.18-.582M255.844 412.758c.152.457.285.879.398 1.238-.113-.36-.246-.781-.398-1.238M253.785 406.258c.07.172.133.355.2.547-.067-.192-.13-.375-.2-.547M257.23 417.992c.055.59.063 1.18.024 1.77.039-.59.039-1.18-.024-1.77M248.234 420.54c-.355-1.294-1.066-3.302-2.707-8.634-.277-.957-.515-1.582-.933-2.383-.656-1.437-1.578-3.218-2.68-5.23-15.61 12.18-20.676 22.809-20.773 22.934-10.317 13.41 3.195 32.828 8.648 24.894 7.195-10.473 13.828-16.039 19.711-20.875-.234-2.406-.488-4.621-.91-7.062a10.985 10.985 0 0 0-.356-3.645M267.3 456.867c-.007-.14.009-.285-.01-.422-.024-.242-.06-.511-.09-.773.03.262.066.531.09.773.019.137.003.282.01.422M260.73 437.258l-.195-.309-.164-.234c.113.168.242.351.36.543M264.027 443.281c-.066-.156-.136-.324-.21-.48-.223-.488-.45-.953-.68-1.399.3.59.601 1.23.89 1.88M258.625 460.867a252.12 252.12 0 0 0-.395-3.3c-.32-2.579-.976-5.02-1.78-7.223a41.118 41.118 0 0 0-1.985-4.543 44.153 44.153 0 0 0-3.422-5.63c-7.281 5.446-17.688 14.532-22.785 25.075-2.262 4.664-2.508 13.469-.535 15.656 3.836 4.262 10.453 2.563 16.593-.222 4.243-1.922 9.739-7.02 14.79-10.625-.024-2.243-.141-5.223-.47-8.774-.007-.136.005-.277-.011-.414M263.102 441.328a50.302 50.302 0 0 0-.657-1.238l-.05-.086c.234.422.472.863.707 1.324M259.406 435.355l.242.329-.242-.329M259.11 434.969l.163.203-.164-.203M258.992 434.813l.035.046-.035-.046M260.992 437.656c.133.203.27.426.41.649-.14-.223-.277-.446-.41-.649M259.84 435.945c.09.133.195.278.3.434a19.681 19.681 0 0 0-.3-.434M271.473 474.922c-.145-.2-.286-.399-.422-.586.137.187.281.387.422.586M276.762 484.23l-.133-.296.133.296M268.488 471.145c-.133-.145-.246-.286-.336-.375l-.144-.157-.207-.222-.11-.11c.043.051.34.344.797.864M274.621 479.914c-.09-.156-.172-.312-.262-.469.09.157.172.313.262.47M275.637 481.832l-.164-.312.164.312M272.387 476.246c-.125-.187-.242-.355-.364-.531.122.176.243.351.364.531M273.488 477.977l-.148-.254.148.254M268.7 471.379l.308.363c.133.156.258.301.41.485l.215.273a44.108 44.108 0 0 0-.676-.813l-.258-.308-.21-.234.21.234M260.969 476.914l-.219-.27a23.526 23.526 0 0 0-.332-.39c-3.652 2.75-8.61 6.2-14.738 9.738-8.118 4.7-9.907 14.828-3.086 20.164 1.113.875 2.3 1.543 3.554 1.89 6.715 1.895 14.258.942 25.938-5.335-.098-.176-.188-.332-.29-.512-1.362-12.222-7.597-21.3-10.827-25.285M279.457 492.176c-.043-.188-.086-.38-.133-.567.047.188.09.38.133.567M280.05 494.988c-.038-.234-.09-.468-.132-.707.043.239.094.473.133.707M278.602 489.086l-.067-.2.067.2M277.762 486.691c-.067-.18-.133-.355-.203-.535.07.176.136.356.203.535"/><path fill="#c69575" d="M283.11 534.04c-.516-4.4-1.11-8.231-1.817-11.466-6.11 2.836-20.402 6.781-48.047 1.95 11.668 4.484 22.32 10.285 26.89 14.519 1.505 1.398 2.981 3.031 4.419 4.852.191-.043.39-.086.578-.13.71-.148 1.41-.3 2.097-.437 2.645-.539 5.122-.984 7.43-1.363.192-.031.39-.067.582-.098a167.467 167.467 0 0 1 10.125-1.324c-.82-2.293-1.59-4.477-2.258-6.504"/><path fill="#e2c4af" d="M189.563 311.902c.332-.226.664-.449 1-.68-.305.208-.602.4-.903.61-.535.36-1.074.73-1.601 1.086-.809.539-1.618 1.07-2.418 1.594-.5.328-1.008.656-1.512.984-.867.559-1.738 1.094-2.594 1.633-.422.258-.847.527-1.265.781a188.431 188.431 0 0 1-3.79 2.254c-14.91 8.566-29.77 16.047-42.003 21.848a643.807 643.807 0 0 0 10.703-5.192c21.074 13.332 44.492 25.211 65.68 28.621 8.94 1.442 16.867 1.454 22.617 1.102-2.555-7.016-12.48-38.059-43.915-54.64M240.46 358.555"/><path fill="#ddbaa1" d="M241.508 384.996c.012.02.918.965 1.71 2.387-.558-1-1.093-1.942-1.534-2.688l-.176.301M232.531 388.309c-2.949 1.242-5.586 2.253-6.191 2.449-14.672 4.582-26.121.383-39.742-4.91-9.098-3.532-27.188-15.965-40.868-24.797 0 0 56.465 91.765 61.454 80.16 10.601-24.672 19.953-33.336 32.12-41.508a382.265 382.265 0 0 0-4.75-7.898c-.796-1.418-1.523-2.7-2.023-3.496"/><path fill="#ead5c6" d="M271.512 474.977h-.004.004M262.395 440.004c-.024-.043-.047-.078-.067-.121-.015-.024-.027-.055-.047-.078.035.062.07.129.114.199m-.211-.36c-.004-.015-.012-.027-.016-.042-.008-.008-.012-.02-.02-.032.012.024.024.047.036.075M291.371 526.406c-.031-.195-.055-.394-.082-.586.027.192.05.39.082.586M267.734 469.035c.008-.066.008-.125.008-.191 0 .066 0 .125-.008.191m.008-.191c.004-.121.004-.25.012-.38v-.026c-.008.144-.008.277-.012.406M273.332 477.71c-.27-.44-.543-.855-.805-1.257.262.402.536.817.805 1.258m-.812-1.266c-.008-.011-.012-.02-.02-.023.008.004.012.012.02.023m-.036-.054c0-.004-.007-.004-.011-.012.004.008.011.008.011.012m-.03-.047-.009-.008.008.008M274.34 479.422c-.13-.23-.258-.453-.387-.668-.031-.055-.055-.106-.082-.152.156.265.313.543.469.82M271.043 474.324c-.047-.058-.086-.113-.133-.176-.012-.015-.031-.039-.047-.066-.008-.004-.008-.012-.011-.016.058.082.125.168.191.258m-.168-.222c-.008-.012-.012-.02-.02-.024-.003-.012-.011-.02-.015-.023a.055.055 0 0 0 .023.027c.004.008.004.016.012.02m-.14-.188s-.005 0-.005-.004c-.011-.023-.03-.043-.05-.066.02.023.039.047.054.07M267.7 462.793l-.036-.75.035.75M267.633 461.434c-.008-.133-.012-.274-.02-.41.008.136.012.277.02.41M267.547 459.992c-.016-.305-.043-.633-.067-.949.024.316.051.637.067.95M267.441 458.457l-.132-1.531c.046.523.09 1.031.132 1.531M259.098 434.95l-.04-.048.04.047M267.754 468.344c.004-.207.012-.434.012-.668 0 .234-.008.46-.012.668M259.402 435.348l-.129-.168.13.168M267.766 465.281c0-.125-.008-.254-.008-.383 0 .13.008.258.008.383M241.684 384.695l-.18-.3c1.875-3.918 2.41-7.97 2.41-11.325 0-4.422-.93-7.62-.934-7.632.004.023 3.547 11.62-1.296 19.257M278.65999999999997 489.27000000000004v-.004.004M277.852 486.934v-.008.008m-.004-.012v-.02.02m-.012-.035v-.012c-.008-.008-.008-.008-.008-.016 0 .008.008.02.008.028m-.008-.028c-.004-.004-.004-.011-.004-.015 0-.008-.008-.012-.008-.012 0 .004.008.016.012.027m-.02-.039c0-.007 0-.007-.003-.011v-.016c0 .016.004.02.004.027m-.004-.027c-.008 0-.008-.004-.008-.012 0 0-.004-.004-.004-.011.004.011.004.02.012.023M279.914 494.266l-.101-.52c-.02-.066-.032-.133-.043-.191.046.234.097.468.144.71M259.836 435.938l-.184-.254.184.253M275.02 480.645c-.004-.008-.012-.012-.012-.02-.047-.082-.09-.172-.137-.254a.34.34 0 0 0 .035.067c.043.074.07.14.114.207m-.047-.086-.067-.122c-.047-.09-.101-.183-.152-.28.074.132.144.269.219.402m-.23-.414c0-.012-.005-.02-.013-.024.008.004.012.012.012.024m-.027-.055c0-.008 0-.008-.008-.012.008.004.008.004.008.012M276.625 483.91c-.04-.074-.066-.144-.098-.219-.007-.003-.007-.003-.007-.011-.012-.016-.016-.035-.024-.055-.004-.004-.004-.012-.012-.023-.004-.012-.011-.024-.02-.043-.003-.004-.003-.012-.01-.016-.005-.02-.013-.04-.017-.05l-.007-.005a37.449 37.449 0 0 1 .195.422m-.484-1.043c-.055-.113-.11-.23-.16-.336-.083-.172-.165-.332-.243-.496v-.004c.133.278.27.551.403.836m-.258-.543-.008-.004.008.004M213.621 318.277c-4.828-4.312-10.39-8.265-16.777-11.507 6.386 3.242 11.949 7.195 16.777 11.507M277.453 485.898c-.023-.062-.047-.12-.066-.175l-.004-.008c-.008-.016-.012-.035-.02-.047-.066-.168-.133-.324-.199-.488-.004-.016-.016-.035-.023-.055 0-.004 0-.012-.004-.012-.008-.011-.008-.023-.012-.043-.008-.004-.012-.015-.012-.027-.008-.008-.008-.012-.015-.02-.004-.02-.012-.03-.016-.046a38.3 38.3 0 0 1 .371.922M261.672 438.758c-.043-.078-.09-.156-.133-.23.043.074.09.152.133.23m-.133-.23c-.012-.012-.016-.024-.023-.036-.008-.008-.012-.012-.012-.023a.386.386 0 0 0 .035.058M267.676 470.266s.027-.364.054-1.051c.004-.055.004-.106.004-.16-.023.78-.054 1.21-.058 1.21M267.77 467.547c0-.293.007-.613.007-.953 0 .34-.007.66-.007.953M253.785 406.258l-.012-.031.012.03M254.008 406.89l-.024-.085.024.086M267.18 455.48c-.004-.035-.012-.066-.012-.101 0 .035.008.066.012.101m-.016-.148c-.008-.031-.008-.055-.016-.086.008.031.008.055.016.086m-.016-.121c-.039-.356-.09-.723-.136-1.117v-.024c.047.399.09.778.136 1.14m-.136-1.14c-.035-.293-.075-.601-.114-.922.04.32.079.63.114.922M255.844 412.758c-.016-.051-.028-.106-.047-.153.02.047.031.102.047.153m-.067-.211c-.004-.024-.015-.05-.023-.074.008.023.02.05.023.074m-.023-.078c-.004-.012-.012-.028-.012-.04 0 .012.008.028.012.04m-.024-.074c0-.004-.007-.012-.007-.016 0 .004.007.012.007.016m-.02-.047c-.023-.075-.046-.153-.07-.223.024.07.048.148.07.223M295.004 540.79c-.55-.517-.856-.802-.856-.802s-.484 0-1.386.032c0-.032-.008-.055-.008-.086-.012-.184-.027-.368-.04-.547-.019-.188-.03-.375-.05-.559-.004-.078-.012-.164-.016-.25 0-.015-.007-.027-.007-.047 0-.035-.004-.078-.004-.12-.008-.032-.008-.06-.016-.09 0-.055-.004-.11-.012-.165-.004-.066-.011-.125-.015-.191 0-.043-.008-.09-.012-.137-.027-.328-.055-.644-.078-.965-.008-.02-.008-.031-.008-.047-.02-.183-.031-.363-.047-.543 0-.02-.008-.039-.008-.062 0-.016 0-.035-.003-.055-.208-2.289-.422-4.468-.665-6.527 1.055 3.183 2.344 6.734 3.73 10.594-.167.195-.331.375-.5.566M256.906 416.148c-.152-.554-.363-1.21-.664-2.152.301.942.512 1.598.664 2.152M280.46 497.754l-.015-.09c0-.027-.007-.055-.007-.086a40.522 40.522 0 0 0-.31-2.133c.134.766.243 1.535.333 2.309M258.629 431.645c-.024-.254-.055-.516-.07-.762.015.246.046.508.07.762M258.953 434.762c-.082-.723-.156-1.403-.223-2.07.075.667.141 1.347.223 2.07"/><path fill="#d6ab8c" d="m259.11 434.969-.079-.102.078.102M261.672 438.758c-.09-.156-.18-.297-.27-.445.09.144.18.289.27.445"/><path fill="#ead5c6" d="M261.672 438.758c0-.008-.004-.012-.004-.02a7.6 7.6 0 0 1-.145-.234c.047.078.102.164.149.254"/><path fill="#d6ab8c" d="m260.992 437.656-.254-.398.254.398M262.395 440.004c-.082-.149-.168-.29-.247-.434.079.14.164.285.247.434"/><path fill="#ead5c6" d="M262.395 440.004c-.004-.004-.004-.012-.012-.012.008 0 .008.008.012.012m-.024-.035a4.383 4.383 0 0 0-.187-.324c-.012-.028-.024-.051-.036-.075.075.125.153.258.223.399"/><path fill="#d6ab8c" d="m259.84 435.945-.188-.261.188.261"/><path fill="#ead5c6" d="m259.84 435.945-.188-.261.188.261"/><path fill="#d6ab8c" d="M252.39 428.852c-.937.789-1.91 1.582-2.89 2.394.23 2.344.445 4.86.781 7.934 0 0 .297.355.762.992 4.566-3.422 7.91-5.41 7.91-5.41-.082-.723-.156-1.403-.223-2.07-.035-.356-.066-.7-.101-1.047-.024-.254-.055-.516-.07-.762-.407-4.156-.66-7.38-1.305-11.113-.227 3.347-1.938 6.636-4.863 9.082"/><path fill="#ead5c6" d="M251.043 440.172c-.465-.637-.762-.992-.762-.992-.336-3.075-.55-5.59-.781-7.934.98-.812 1.953-1.605 2.89-2.394.13-.102.255-.211.376-.317 2.695-2.41 4.273-5.562 4.488-8.765.644 3.734.898 6.957 1.305 11.113.015.246.046.508.07.762.035.347.066.69.101 1.046.067.668.141 1.348.223 2.07 0 0-3.176 1.895-7.574 5.16 0 .005-.004.005-.004.005-.02.012-.031.023-.05.031l-.016.016c-.012.007-.02.011-.024.02 0 0 0 .007-.008.007-.007 0-.011.004-.02.012-.003.004-.003.004-.01.004 0 .007-.005.007-.013.011l-.004.008c-.02.012-.039.024-.054.035v.008c-.051.027-.09.067-.133.094"/><path fill="#d6ab8c" d="m260.371 436.715-.223-.332.223.332M259.406 435.355l-.133-.175.133.175"/><path fill="#ead5c6" d="m259.406 435.355-.133-.175.133.175"/><path fill="#d6ab8c" d="M247.266 394.54c-2.805 1.788-5.442 3.464-7.961 5.163.945 1.625 1.824 3.16 2.61 4.59a120.638 120.638 0 0 1 7.44-5.356l.403.215c1.941 3.32 2.898 4.817 3.496 5.953-.91-2.007-2.324-4.668-4.063-7.703-.445-.777-.886-1.55-1.347-2.332a435.731 435.731 0 0 0-4.617-7.675c1.48 2.632 3.175 5.742 4.039 7.144"/><path fill="#ead5c6" d="M253.254 405.102c-.102-.188-.211-.395-.332-.61-.469-.828-1.133-1.906-2.145-3.617-.007-.004-.007-.012-.011-.016-.02-.03-.036-.062-.055-.097-.012-.012-.02-.032-.031-.043l-.055-.094c-.004-.012-.016-.027-.023-.043l-.004-.008c-.012-.015-.02-.035-.032-.047 0-.007-.007-.02-.011-.023l-.285-.477c-.16-.277-.329-.566-.512-.875a53.561 53.561 0 0 0-.403-.214c-2.71 1.8-5.187 3.597-7.44 5.355a217.339 217.339 0 0 0-2.61-4.59c2.52-1.7 5.156-3.375 7.96-5.164-.863-1.402-2.558-4.512-4.038-7.144a435.731 435.731 0 0 1 4.617 7.675c.46.782.902 1.555 1.347 2.332 1.73 3.036 3.153 5.692 4.063 7.7"/><path fill="#d6ab8c" d="M278.535 488.887"/><path fill="#ead5c6" d="M278.535 488.887c-.219-.672-.45-1.32-.683-1.953 0-.008-.004-.02-.004-.032-.008-.004-.008-.011-.012-.015-.008-.02-.012-.04-.02-.055-.007-.008-.007-.008-.007-.012-.004-.02-.012-.03-.016-.05-.008-.012-.008-.024-.012-.036.254.668.512 1.399.754 2.153"/><path fill="#d6ab8c" d="M277.559 486.156a48.408 48.408 0 0 0-.766-1.847l-.031-.079c.27.625.543 1.27.797 1.926M275.473 481.52a53.601 53.601 0 0 0-.84-1.575c.273.489.562 1.02.84 1.575"/><path fill="#ead5c6" d="M275.473 481.52c-.012-.032-.032-.067-.047-.106.015.04.035.074.047.106m-.055-.106-.398-.77c-.043-.066-.07-.132-.114-.207.176.317.344.645.512.977m-.512-.976c-.09-.168-.18-.336-.273-.493.094.164.183.325.273.493"/><path fill="#d6ab8c" d="M276.629 483.934a47.468 47.468 0 0 0-.98-2.079c.331.649.66 1.348.98 2.079"/><path fill="#ead5c6" d="M276.629 483.934c0-.012 0-.02-.004-.024a.153.153 0 0 1-.02-.05h-.007c-.004-.024-.016-.04-.028-.067-.183-.402-.367-.8-.55-1.184.207.426.41.86.609 1.325m-.61-1.325c-.054-.109-.105-.218-.156-.32l-.125-.254c.094.188.188.38.282.574"/><path fill="#d6ab8c" d="M279.324 491.61"/><path fill="#ead5c6" d="M278.691 489.375c-.007-.02-.007-.031-.011-.05.004.019.004.03.011.05M278.66 489.266"/><path fill="#d6ab8c" d="M279.918 494.281"/><path fill="#ead5c6" d="M279.918 494.281c-.004-.023-.012-.039-.016-.062.004.023.012.039.016.062m-.016-.062"/><path fill="#d6ab8c" d="M280.445 497.664"/><path fill="#ead5c6" d="M280.445 497.664c0-.027-.007-.055-.007-.086 0 .031.007.059.007.086m-.007-.086c-.07-.61-.157-1.21-.254-1.808 0-.004-.004-.012-.004-.024s-.008-.023-.008-.035c0-.02-.004-.043-.004-.059l-.008-.007c-.031-.204-.066-.41-.101-.614.144.805.277 1.668.378 2.547"/><path fill="#d6ab8c" d="M272.086 502.71c5.508 9.856 7.871 14.08 8.965 18.747.086.352.16.75.242 1.117 2.64-1.222 3.766-2.25 3.766-2.25 1.25 5.297 3.78 11.883 6.558 19.742.438-.015.82-.035 1.145-.046a300.04 300.04 0 0 0-.989-10.41c-.132-1.11-.265-2.169-.402-3.204-.031-.195-.055-.394-.082-.586a134.933 134.933 0 0 0-.45-3.023 89.97 89.97 0 0 0-.476-2.684c-.043-.207-.078-.418-.12-.625a58.779 58.779 0 0 0-.524-2.445c-.422-1.785-1.02-3.496-1.91-5.48a68.933 68.933 0 0 0-1.567-3.231c-.406-.785-.84-1.613-1.32-2.508-.485-.89-1.008-1.844-1.574-2.87-.856-1.544-1.813-3.255-2.887-5.173-3.02 1.906-5.797 3.543-8.375 4.93"/><path fill="#ead5c6" d="M291.617 540.066c-2.777-7.859-5.308-14.445-6.558-19.742 0 0-1.125 1.028-3.766 2.25-.082-.367-.156-.765-.242-1.117-1.094-4.668-3.457-8.89-8.965-18.746.02-.008.035-.02.059-.031 2.562-1.38 5.316-3.004 8.316-4.899 1.074 1.918 2.031 3.63 2.887 5.172.566 1.027 1.09 1.98 1.574 2.871.48.895.914 1.723 1.32 2.508a68.933 68.933 0 0 1 1.567 3.23c.89 1.985 1.488 3.696 1.91 5.481.187.77.355 1.598.523 2.445.043.207.078.418.121.625.164.852.32 1.719.477 2.684.156.965.305 1.98.45 3.023.026.192.05.39.081.586.137 1.035.27 2.094.402 3.203.368 3.192.692 6.676.989 10.41-.325.012-.707.032-1.145.047"/><path fill="#d6ab8c" d="M260.883 468.844c-.586.37-1.18.781-1.778 1.21.032 2.95-.097 4.634-.097 4.634.008 0 .32.316.816.87l.211.243.305.355.078.098c4.727-3.567 7.258-5.988 7.258-5.988s.027-.422.058-1.211c.008-.2.012-.399.02-.618v-.093c.004-.207.012-.434.012-.668l.004-.13c.007-.558.007-1.19 0-1.901l-.004-.364c-.008-.234-.008-.476-.012-.726-.008-.157-.008-.328-.012-.489-.008-.234-.012-.476-.027-.722-.004-.184-.012-.364-.016-.551l-.035-.75c-.008-.207-.02-.406-.031-.61-.012-.273-.031-.55-.047-.828-.008-.203-.02-.402-.04-.613-.015-.305-.042-.633-.066-.949-.011-.2-.023-.387-.039-.586l-.132-1.531c.328 4.523-2.075 9.101-6.426 11.918"/><path fill="#ead5c6" d="m260.418 476.254-.078-.098-.305-.355-.21-.242c-.497-.555-.81-.872-.817-.872 0 0 .097-1.34.097-3.71v-.922c.598-.43 1.192-.84 1.778-1.211.09-.063.187-.13.277-.188 3.918-2.652 6.184-6.754 6.176-10.906 0-.273-.004-.547-.027-.824.046.523.09 1.031.132 1.531.016.2.028.387.04.586.023.316.05.644.066.95.02.21.031.41.039.612.016.278.035.555.047.829.012.203.023.402.031.609l.035.75c.004.187.012.367.016.55.015.247.02.489.027.723.004.16.004.332.012.489.004.25.004.492.012.726l.004.364c0 .332.007.648.007.949 0 .34-.007.66-.007.953l-.004.129c0 .234-.008.46-.012.668v.121c-.008.203-.012.394-.02.59 0 .054 0 .105-.004.16a33.27 33.27 0 0 1-.054 1.05s-2.196 2.102-6.313 5.27c-.004 0-.004 0-.011.008-.036.023-.07.055-.114.082 0 .008-.004.008-.011.012l-.036.031c-.023.02-.05.035-.066.047 0 0 0 .008-.008.008-.012.011-.031.02-.043.03-.004.005-.012.005-.012.013-.015.011-.035.023-.046.035a.263.263 0 0 0-.055.043c-.043.027-.082.058-.125.09 0 .003-.008.003-.012.011-.027.02-.054.043-.078.059-.02.012-.031.027-.043.039-.012.004-.02.012-.023.016-.008 0-.012.007-.02.011a.396.396 0 0 1-.078.055c-.02.012-.031.031-.047.043-.043.031-.078.055-.117.086"/><path fill="#d6ab8c" d="M266.898 453.148a30.394 30.394 0 0 0-.71-3.753 32.346 32.346 0 0 1 .71 3.754"/><path fill="#ead5c6" d="M266.898 453.148c0-.015 0-.027-.007-.046a31.27 31.27 0 0 0-.797-4.063l.094.356a30.849 30.849 0 0 1 .71 3.753M265.758 447.848c0-.004-.004-.012-.004-.02 0 .008.004.016.004.02M265.746 447.805c-.008-.016-.012-.035-.02-.055.008.02.012.04.02.055M265.723 447.738c0-.004-.008-.015-.008-.027 0 .012.008.023.008.027M265.71 447.691c0-.007-.007-.02-.007-.023 0 .004.008.016.008.023"/><path fill="#d6ab8c" d="M273.34 477.723"/><path fill="#ead5c6" d="M273.34 477.723"/><path fill="#d6ab8c" d="M274.36 479.445"/><path fill="#ead5c6" d="M274.36 479.445c-.118-.199-.231-.39-.34-.586.109.188.222.387.34.586m-.34-.586a7.107 7.107 0 0 1 0 0"/><path fill="#d6ab8c" d="M272.023 475.715"/><path fill="#ead5c6" d="M272.023 475.715c-.003-.012-.015-.024-.023-.035-.18-.258-.355-.512-.523-.746.175.242.351.492.546.78"/><path fill="#d6ab8c" d="M271.05 474.336c-.132-.18-.25-.332-.37-.492.11.144.238.312.37.492"/><path fill="#ead5c6" d="M271.05 474.336c-.062-.082-.128-.168-.187-.254.059.086.121.172.188.254M270.863 474.082a.055.055 0 0 1-.023-.027c-.04-.051-.067-.098-.106-.14-.015-.024-.035-.048-.054-.071.054.078.117.156.183.238"/><path fill="#ddbaa1" d="M253.254 405.105c-.598-1.136-1.555-2.632-3.496-5.953a53.561 53.561 0 0 0-.403-.214c-2.71 1.8-5.187 3.597-7.44 5.355 1.1 2.012 2.023 3.793 2.679 5.23.418.801.656 1.426.933 2.383 1.641 5.332 2.352 7.34 2.707 8.633.332 1.2.434 2.43.356 3.645.422 2.441.676 4.656.91 7.062.98-.812 1.953-1.605 2.89-2.394 2.926-2.446 4.637-5.735 4.864-9.09.039-.59.031-1.18-.024-1.77a9.817 9.817 0 0 0-.324-1.844c-.152-.554-.363-1.21-.664-2.152a337.753 337.753 0 0 1-2.035-6.477c-.078-.257-.14-.449-.2-.628l-.023-.086c-.066-.192-.129-.375-.199-.547-.156-.406-.32-.754-.531-1.153"/><path fill="#ead5c6" d="M249.5 431.246c-.234-2.406-.488-4.621-.91-7.062.02-.27.023-.536.023-.801 0-.953-.12-1.903-.379-2.844-.355-1.293-1.066-3.3-2.707-8.633-.277-.957-.515-1.582-.933-2.383-.656-1.437-1.578-3.218-2.68-5.23a120.638 120.638 0 0 1 7.441-5.356l.403.215c1.941 3.32 2.898 4.817 3.496 5.953.21.399.375.747.531 1.153.07.172.133.355.2.547l.023.086c.058.18.12.37.199.629a337.753 337.753 0 0 0 1.637 5.238c.152.457.285.879.398 1.238.301.942.512 1.598.664 2.152.164.59.27 1.188.324 1.844.032.336.051.68.051 1.024 0 .246-.008.5-.027.746-.215 3.21-1.793 6.363-4.488 8.773-.121.106-.246.215-.375.317-.938.789-1.91 1.582-2.891 2.394"/><path fill="#ddbaa1" d="M266.898 453.148a32.346 32.346 0 0 0-1.21-5.53 37.3 37.3 0 0 0-1.43-3.828c-.078-.177-.153-.34-.23-.509a40.38 40.38 0 0 0-1.633-3.277c-.082-.149-.168-.293-.254-.438-.157-.277-.313-.55-.47-.808-.089-.156-.179-.301-.269-.453-.14-.223-.277-.446-.41-.649l-.262-.398c-.117-.192-.246-.375-.359-.543l-.23-.336c-.106-.156-.211-.3-.301-.434l-.192-.261-.242-.329-.133-.183-.164-.203-.082-.11c-.074-.097-3.418 1.891-7.984 5.313a44.153 44.153 0 0 1 3.422 5.629 41.118 41.118 0 0 1 1.984 4.543c.805 2.203 1.461 4.644 1.781 7.222.157 1.239.286 2.332.395 3.301.016.137.004.278.012.414.328 3.551.445 6.531.468 8.774.598-.43 1.192-.84 1.778-1.211 4.351-2.817 6.754-7.395 6.418-11.977-.008-.14.008-.285-.012-.422-.023-.242-.059-.511-.09-.773-.086-.762-.18-1.582-.3-2.524"/><path fill="#ead5c6" d="M259.105 470.055c-.023-2.243-.14-5.223-.468-8.774-.008-.136.004-.277-.012-.414a252.12 252.12 0 0 0-.395-3.3c-.32-2.579-.976-5.02-1.78-7.223a41.118 41.118 0 0 0-1.985-4.543 44.153 44.153 0 0 0-3.422-5.63c4.465-3.335 7.754-5.312 7.977-5.312h.007l.082.11.164.203.133.183.242.329.192.261c.09.133.195.278.3.434l.231.336c.113.168.242.351.36.543l.261.398c.133.203.27.426.41.649.09.152.18.297.27.453.156.258.312.531.469.808.086.145.171.29.254.438a40.38 40.38 0 0 1 1.633 3.277c.077.168.152.332.23.508a37.3 37.3 0 0 1 1.43 3.828c.539 1.742.968 3.598 1.21 5.531.122.942.215 1.762.301 2.524.031.262.067.531.09.773.02.137.004.282.012.422.023.29.035.57.035.86-.004 4.195-2.27 8.285-6.176 10.93-.09.058-.187.124-.277.187-.586.37-1.18.781-1.778 1.21"/><path fill="#ddbaa1" d="M267.676 470.266s-2.531 2.421-7.258 5.988c.11.125.21.246.332.39l.219.27c3.23 3.984 9.465 13.063 10.828 25.285.101.18.191.336.289.512 2.578-1.387 5.355-3.024 8.375-4.957l-.016-.09a44.05 44.05 0 0 0-.394-2.676c-.04-.234-.09-.468-.133-.707a44.626 44.626 0 0 0-.461-2.105c-.043-.188-.086-.38-.133-.567a49.18 49.18 0 0 0-.722-2.523l-.067-.2c-.242-.753-.5-1.484-.773-2.195-.067-.18-.133-.359-.203-.535-.254-.656-.528-1.3-.797-1.926l-.133-.296a38.96 38.96 0 0 0-.992-2.102l-.164-.312a47.097 47.097 0 0 0-.852-1.606c-.09-.156-.172-.312-.262-.469-.293-.507-.582-1-.87-1.468l-.15-.254c-.32-.52-.64-1.008-.952-1.477-.121-.18-.242-.355-.364-.531a47.243 47.243 0 0 0-.973-1.379c-.132-.18-.26-.348-.394-.524-.36-.476-.71-.925-1.023-1.312l-.215-.273c-.152-.184-.277-.329-.41-.485l-.309-.363-.21-.234c-.458-.52-.755-.813-.813-.88"/><path fill="#ead5c6" d="M272.086 502.71c-.098-.175-.188-.331-.29-.51-1.362-12.223-7.597-21.302-10.827-25.286l-.219-.27a23.526 23.526 0 0 0-.332-.39c4.727-3.567 7.258-5.988 7.258-5.988.058.066.355.359.812.879l.211.234.309.363c.133.156.258.301.41.485l.215.273c.312.387.664.836 1.023 1.313.133.175.262.343.395.523.137.187.281.387.422.586.18.254.367.515.55.793a49.068 49.068 0 0 1 1.316 2.008l.15.254c.288.468.577.96.87 1.468.09.157.172.313.262.47.285.519.574 1.05.852 1.605l.164.312c.343.672.672 1.371.992 2.102l.133.296c.27.625.543 1.27.797 1.926.07.176.136.356.203.535.273.711.531 1.442.773 2.196l.067.199c.257.816.5 1.66.722 2.523.047.188.09.38.133.567.168.691.324 1.394.461 2.105.043.239.094.473.133.707.156.875.289 1.766.394 2.676l.016.09c-3 1.922-5.754 3.547-8.316 4.926-.024.011-.04.023-.06.03"/><path fill="#c69575" d="M285.367 540.543c2.656-.266 4.766-.402 6.25-.477-2.777-7.859-5.308-14.445-6.558-19.742 0 0-1.125 1.028-3.766 2.25.707 3.235 1.3 7.067 1.816 11.465.668 2.027 1.438 4.211 2.258 6.504"/><path fill="#ead5c6" d="M285.367 540.543c-.82-2.293-1.59-4.477-2.258-6.504-.515-4.398-1.109-8.23-1.816-11.465 2.64-1.222 3.766-2.25 3.766-2.25 1.25 5.297 3.78 11.883 6.558 19.742-1.484.075-3.594.211-6.25.477"/><path fill="#e2c4af" d="M194.582 308.398c-.203.145-.41.29-.613.434-.2.145-.403.29-.61.434-.148.109-.3.214-.453.324-.617.433-1.238.863-1.855 1.289-.16.117-.324.23-.488.344-.336.23-.668.453-1 .68 31.433 16.581 41.359 47.624 43.914 54.64 5.898-.36 9.503-1.106 9.503-1.106-.332-.91-.8-2.277-1.433-4.015-.32-.867-.684-1.824-1.086-2.867-.207-.516-.418-1.055-.645-1.614a108.264 108.264 0 0 0-1.496-3.543 120.64 120.64 0 0 0-2.824-5.968 101.36 101.36 0 0 0-1.64-3.114 115.941 115.941 0 0 0-1.934-3.418 104.562 104.562 0 0 0-4.406-6.847 98.946 98.946 0 0 0-3.43-4.61c-.688-.867-1.399-1.73-2.125-2.59a94.385 94.385 0 0 0-2.738-3.062 84.443 84.443 0 0 0-2.188-2.258 79.778 79.778 0 0 0-3.414-3.254c-4.828-4.312-10.39-8.265-16.777-11.507-.754.55-1.508 1.093-2.262 1.628"/><path fill="#ead5c6" d="M233.477 366.543c-2.555-7.016-12.48-38.059-43.915-54.64.333-.227.665-.45 1-.68.165-.114.329-.227.489-.344.617-.426 1.238-.856 1.855-1.29.153-.109.305-.214.453-.323.207-.145.41-.29.61-.434.203-.144.41-.289.613-.434.754-.535 1.508-1.078 2.262-1.628 6.386 3.242 11.949 7.195 16.777 11.507a79.778 79.778 0 0 1 3.414 3.254c.754.746 1.477 1.5 2.188 2.258a94.385 94.385 0 0 1 2.738 3.063c.726.859 1.437 1.722 2.125 2.59a98.946 98.946 0 0 1 3.43 4.609 104.562 104.562 0 0 1 4.406 6.847c.68 1.157 1.32 2.29 1.933 3.418a101.36 101.36 0 0 1 1.641 3.114c1.066 2.097 2 4.101 2.824 5.968.551 1.247 1.051 2.43 1.496 3.543.227.559.438 1.098.645 1.614.402 1.043.766 2 1.086 2.867.633 1.738 1.101 3.105 1.433 4.015 0 0-3.605.747-9.503 1.106"/><path fill="#d6ab8c" d="M232.523 388.297c3.864-1.613 8.153-3.582 8.668-4.414.094.148.196.324.313.512 4.351-9.086 1.476-18.957 1.476-18.957s-3.605.746-9.503 1.105c.011.039 2 11.117-1.075 21.777l.121-.023"/><path fill="#ead5c6" d="M232.402 388.32c1.34-4.644 1.72-9.367 1.72-13.222 0-4.993-.642-8.528-.645-8.555 5.898-.36 9.503-1.106 9.503-1.106s.934 3.196.934 7.633c0 3.356-.535 7.407-2.41 11.325-.117-.188-.219-.364-.313-.512-.515.832-4.804 2.8-8.668 4.414l-.12.023"/><path fill="#ddbaa1" d="M241.191 383.883c-.515.832-4.804 2.8-8.66 4.426.5.796 1.227 2.078 2.024 3.496a382.265 382.265 0 0 1 4.75 7.898c2.52-1.7 5.156-3.375 7.96-5.164-.863-1.402-2.558-4.512-4.038-7.144-.801-1.434-1.707-2.38-1.72-2.399l.177-.3-.18-.301c-.117-.188-.219-.364-.313-.512"/><path fill="#ead5c6" d="M239.305 399.703a382.265 382.265 0 0 0-4.75-7.898c-.797-1.418-1.524-2.7-2.024-3.496 3.856-1.625 8.145-3.594 8.66-4.426.094.148.196.324.313.512l.18.3-.176.301c.012.02.918.965 1.719 2.399 1.48 2.632 3.175 5.742 4.039 7.144-2.805 1.79-5.442 3.465-7.961 5.164"/><path fill="#ddbaa1" d="m232.48 388.328-.003.008.003-.008"/><path fill="#ead5c6" d="m232.477 388.336.003-.008-.003.008"/><path fill="#ddbaa1" d="M260.137 539.043c-4.57-4.234-15.223-10.035-26.89-14.52-17.173-6.593-36.544-10.347-41.907-2.07 6.957 2.625 25.504 8.367 45.89 29.285.375-.133.743-.265 1.11-.398 1.8-.633 3.578-1.235 5.32-1.797.875-.281 1.735-.559 2.598-.82 1.457-.457 2.898-.883 4.312-1.293.418-.121.84-.242 1.254-.364a208.022 208.022 0 0 1 12.73-3.172c-1.437-1.82-2.913-3.453-4.417-4.851"/><path fill="#c69575" d="M157.672 599.684a373.28 373.28 0 0 1 3.344-2.97c.183-.155.363-.32.543-.476a244.052 244.052 0 0 1 25.25-19.207c-16.184-57.543-47.875-78.21-86.125-111.707-28.446-24.91-41.098-49.012-46.352-62.195a73.27 73.27 0 0 0 4.031-.465c36.016-5.281 58.82-32.723 69.317-48.824l-2.692-1.918c-.422.43-.832.84-1.265 1.265l-.078.079c-11.91 11.683-38.13 21.242-63.868 10.773-11.968-3.375-23-10.2-30.57-21.887l-.137-.199a52.152 52.152 0 0 1-1.988-3.39c-.105-.188-.21-.352-.309-.54a57.322 57.322 0 0 1-1.972-4.117l-.047-.105s-3.266-5.606-4.04-15.27l-.023.211c-.058.543-.12 1.082-.168 1.613-.035.364-.054.711-.085 1.067-.028.41-.07.832-.094 1.242a101.76 101.76 0 0 0-.086 1.844l-.016.414c-.055 1.64-.074 3.265-.074 4.887 0 .464.008.925.012 1.39.011 1.223.035 2.442.078 3.656.02.434.031.868.05 1.301.137 3.254.372 6.465.712 9.64.035.31.07.614.101.923.156 1.386.332 2.765.516 4.136.039.223.062.454.097.676.477 3.313 1.051 6.586 1.723 9.801 2.387 11.453 5.95 22.305 10.27 32.496l.035.078a192.555 192.555 0 0 0 4.027 8.867c5.473 11.313 11.8 21.7 18.356 31.082.18.274.355.547.542.817 13.493 20.094 34 41.008 40.524 49.832 40.484 54.773 52.797 92.191 58.684 116.793.277-.25.55-.5.828-.746l.949-.867"/><path fill="#2d241f" d="M69.926 110.512c10.351.875 31.215 7.222 44.25 18.133 4.05.542 10.972 1.476 19.586 2.675-1.153-5.601-3.395-16.953-5.84-31.441 25.031-2.512 40.875 5.953 46.14 9.375l1.583 1.113.37.274s6.438-4.121 6.825-18.672c.18-6.867-3.75-17.88-15.254-21.621 0 0-1.035 2.054-4.043 4.476l-47.711-4.058s-57.379-5.43-74.844 37.765c14.168.965 24.563.645 28.938 1.98M78.563 202.574c-.586-9.015-1.497-15.37-1.344-20.347l-1.696.21-1.18.145c-8.261 1.016-16.624.383-24.66-1.82-.437-.121-.902-.246-1.367-.375-.296-.07-.59-.157-.89-.235-.367-.093-.754-.199-1.133-.293-.32-.086-.633-.172-.961-.254-.379-.097-.777-.199-1.172-.296-.34-.082-.676-.172-1.031-.258-.41-.102-.832-.203-1.262-.313-.148-.035-.304-.074-.46-.11 5.011 17.114 12.808 30.876 20.738 39.446.175.196.351.395.53.582l15.888-16.082M120.07 178.973c-3.41-1.852-6.414-3.5-8.941-4.899l1.379 5.387 7.562-.488"/><path fill="#303231" d="M306.922 740.328"/><g clip-path="url(#a)"><path fill="#303231" d="M263.523 744.254"/></g><path fill="#303231" d="m170.094 678.824-.133-.246.133.246"/><g clip-path="url(#b)"><path fill="#303231" d="M268.457 744.664"/></g><path fill="#303231" d="M255.418 585.938s7.988-9.196 20.562-23.52c-21.125 4.152-52.898 13.91-85.964 36.832 3.754 18.934 10.328 34.852 18.144 48.063a119.628 119.628 0 0 0 20.488 25.71c-10.027-42.343 26.77-87.086 26.77-87.086M167.688 673.902c-4.645-9.957-8.532-21.168-11.16-33.754 2.628 12.586 6.515 23.797 11.16 33.754M309.953 739.387c1.106-.356 2.2-.703 3.297-1.098-1.098.395-2.191.742-3.297 1.098M292.762 540.02c-.325.011-.707.03-1.145.046-1.484.075-3.594.211-6.25.477-2.797.277-6.199.691-10.125 1.324 11.801-1.89 18.906-1.879 18.906-1.879l.47 1.235c.132-.145.257-.29.386-.434-.55-.516-.856-.8-.856-.8s-.484 0-1.386.03M256.133 545.898c3.152-.82 6.16-1.523 9-2.132-.188.043-.387.086-.578.129-2.672.578-5.48 1.238-8.422 2.003"/><path fill="#d6ab8c" d="M408.047 422.46c-.36.353-.723.712-1.082 1.075l.312-.3c.254-.262.512-.528.77-.774M417.914 414.035c-.45.324-.887.656-1.332.992l.172-.125c.387-.289.773-.586 1.16-.867M422.39 410.992c-.456.29-.921.578-1.378.88.414-.27.824-.532 1.234-.79l.145-.09M412.828 418.07c-.562.477-1.117.965-1.672 1.465.52-.473 1.04-.918 1.555-1.363l.117-.102M419.863 412.652l.34-.234c-.488.332-.976.668-1.473 1.023l.34-.238c.266-.187.532-.367.793-.55M455.938 532.855l-.032.055.031-.055M453.953 536.352l-.035.066.035-.066M457.89 529.473l-.035.05.036-.05M409.754 420.813c-.297.28-.59.566-.895.855.176-.172.352-.328.528-.496l.367-.36M432.23 405.836l-.199.082.2-.082M438.09 403.695c.406-.125.816-.254 1.226-.37-.503.144-1.003.3-1.511.456l.175-.054.11-.032M429.18 407.219c.238-.114.472-.235.699-.336-.473.222-.957.457-1.438.691l.211-.101c.172-.082.356-.168.528-.254M441.055 402.86l.523-.133c-.531.132-1.062.265-1.605.414.308-.082.617-.157.922-.239l.16-.043M431.883 405.98c-.406.172-.809.348-1.211.536.348-.164.691-.309 1.039-.457l.172-.079M410.387 420.238l-.168.157.07-.067.098-.09M473.113 403.57c10.528 1.621 21.278 5.578 30.664 12.336-9.422-6.793-20.226-10.77-30.797-12.386-4.628-1.329-10.039-2.336-16.007-2.47 6.023.134 11.48 1.165 16.14 2.52"/><path fill="#c69575" d="M468.316 481.313c-3.84 8.144-12.793 29.554-16.386 58.675.668-1.21 1.332-2.398 1.988-3.57.695-1.23 1.344-2.379 1.988-3.508a904.16 904.16 0 0 1 1.95-3.387c5.59-9.613 10.82-17.925 16.058-25.957a336.119 336.119 0 0 1-5.598-22.253"/><path fill="#ddbaa1" d="m361.195 474.168-7.507 8.336 7.507-8.336M425.754 408.992l.012-.008-.012.008M410.29 420.328l-.071.067c-.16.14-.309.277-.465.418l-.367.359c.3-.281.601-.57.902-.844M407.277 423.234l-.312.301c-.188.192-.375.38-.555.57.29-.293.57-.582.867-.87M416.754 414.902l-.172.125c-.152.121-.309.235-.465.356.211-.168.426-.32.637-.48M413.195 417.75l-.367.32-.117.102c.164-.137.32-.281.484-.422M432.086 405.895l-.203.085-.172.079.375-.164M422.762 410.758l-.371.234-.145.09c.176-.11.344-.223.516-.324M419.863 412.652c-.261.184-.527.364-.793.551.266-.187.532-.367.793-.55M438.09 403.695l-.11.032.11-.032M429.18 407.219c-.172.086-.356.172-.528.254.172-.082.356-.168.528-.254M441.055 402.86l-.16.042.16-.043M404.867 438.129l-44.949 49.906c3.602 3.219 8.043 7.207 13.07 11.762l.29.262c.847.765 1.718 1.562 2.597 2.355.203.188.41.375.621.566.832.762 1.676 1.532 2.531 2.317.278.25.547.5.825.75.843.773 1.699 1.562 2.566 2.355.289.266.574.528.863.79.88.808 1.77 1.632 2.676 2.464.29.274.582.535.879.813.898.828 1.8 1.672 2.719 2.515.316.293.632.59.949.891a318.45 318.45 0 0 1 2.45 2.27l42.843-56.356s20.582-22.851 32.008-26.351c6.695-2.047 8.965-11.833-.352-22.56-16.57-2.874-39.75-.108-62.586 25.25"/><path fill="#d6ab8c" d="M651.059 684.582a86 86 0 0 0 4.82-.148c-19.266-22.23-58.61-62.25-93.875-99.485-.219-.273-.453-.554-.664-.812-52.961-66.274-42.55-105.735-41.102-110.446.059-.191.133-.41.215-.636 2.512-6.688 9.828-9.153 15.766-6.895-7.375-11.18-12.903-19.566-15.89-23.879-11.481-16.574-28.95-25.176-45.849-27.785a65.166 65.166 0 0 0-7.027-1.617c9.317 10.726 7.047 20.512.352 22.558-11.426 3.5-32.008 26.352-32.008 26.352l-42.844 56.356.313.289c.324.308.656.617.98.921.942.875 1.887 1.758 2.84 2.653.309.289.613.578.922.867.984.922 1.965 1.844 2.96 2.781.29.274.579.543.868.82 1.016.958 2.035 1.922 3.059 2.891.25.235.5.477.753.719 1.075 1.016 2.153 2.043 3.239 3.078l.18.176a951.286 951.286 0 0 1 4.617 4.426c.324.312.648.632.976.945 1.313 1.266 2.613 2.531 3.922 3.8.379.372.758.739 1.133 1.106 1.367 1.324 2.73 2.66 4.09 4 .265.266.539.524.804.79a955.127 955.127 0 0 1 4.891 4.847c.145.144.285.289.43.43a718.18 718.18 0 0 1 4.218 4.234c.477.477.946.953 1.414 1.426l3.227 3.285c.262.27.535.547.8.82 4.38-8.707 8.462-16.437 12.34-23.46 3.594-29.122 12.548-50.532 16.387-58.677a336.119 336.119 0 0 0 5.598 22.254c6.629 23.036 18.344 54.442 36.934 75.754 10.984 12.598 56.03 44.399 93.82 74.035a864.513 864.513 0 0 1 19.262 19.79c.199.03.402.066.625.136 6.148 2.055 10.593 11.301 26.504 11.301"/><path fill="#ddbaa1" d="M632.27 596.719c.925 1.254 1.855 2.5 2.765 3.722-.91-1.222-1.84-2.468-2.765-3.722M667.395 641.98c.664.801 1.308 1.586 1.953 2.36-.645-.774-1.29-1.559-1.953-2.36M679.898 656.746c.477.543.95 1.07 1.41 1.602-.46-.532-.933-1.059-1.41-1.602M675.43 651.566c.492.579.988 1.149 1.465 1.715-.477-.566-.973-1.136-1.465-1.715M672.887 648.578c.582.692 1.168 1.371 1.734 2.047-.566-.676-1.152-1.355-1.734-2.047M652.535 623.402c.969 1.254 1.934 2.477 2.88 3.68-.946-1.203-1.911-2.426-2.88-3.68M659.363 632.059c.567.71 1.125 1.414 1.68 2.101-.555-.687-1.113-1.39-1.68-2.101M662.16 635.547c.54.676 1.078 1.336 1.61 1.992-.532-.656-1.07-1.316-1.61-1.992M649.527 619.535c.774.992 1.524 1.969 2.285 2.938-.761-.97-1.511-1.946-2.285-2.938M646.418 615.496c.633.828 1.254 1.633 1.875 2.442-.621-.81-1.242-1.614-1.875-2.442M639.879 606.902c.644.856 1.285 1.7 1.918 2.535-.633-.835-1.274-1.68-1.918-2.535M686.738 664.379c-.168-.18-.336-.363-.504-.547.168.184.336.367.504.547M658.273 630.691c-.628-.789-1.265-1.597-1.906-2.41.64.813 1.278 1.621 1.906 2.41M683.98 661.344c.668.738 1.325 1.468 1.97 2.172-.645-.703-1.302-1.434-1.97-2.172M679.105 655.832c-.46-.527-.918-1.055-1.386-1.598.226.266.457.532.68.79.242.277.472.535.706.808M672.29 647.867c-.79-.941-1.59-1.906-2.411-2.879.77.918 1.531 1.828 2.277 2.715l.133.164M683.64 660.96c-.546-.612-1.1-1.226-1.667-1.866.566.64 1.12 1.254 1.668 1.867M536.219 466.16c-5.938-2.258-13.254.207-15.766 6.895-.082.226-.156.445-.215.636-1.449 4.711-11.86 44.172 41.102 110.446.21.258.445.539.664.812 35.266 37.235 74.61 77.254 93.875 99.485 8.285-.512 15.926-2.301 17.8-5.079 3.274-4.855 6.165-8.308 8.438-10.71-12.234-13.899-28.273-33.696-49.168-61.918-36.48-49.286-74.789-107.297-96.73-140.567"/><path fill="#ead5c6" d="m413.195 417.75.215-.188-.215.188M664.605 638.566c-.02-.02-.03-.039-.046-.054-.145-.184-.297-.364-.442-.551.164.207.324.406.488.605M415.648 415.746l.47-.363-.075.058-.395.305M649.113 618.992a75.081 75.081 0 0 1-.761-.984l-.059-.07c.277.355.555.71.82 1.054M656.344 628.25a9.613 9.613 0 0 1-.235-.293c0-.008-.007-.008-.011-.012.082.102.16.203.246.305m-.246-.305a81.226 81.226 0 0 0-.684-.863c.238.297.465.586.684.863M652.504 623.367l-.024-.031c-.003-.008-.011-.012-.011-.02.011.02.023.032.035.051m-.3-.387c-.036-.043-.067-.085-.099-.12 0 0 0-.008-.003-.008-.008-.012-.012-.024-.024-.036l-.265-.343c.125.168.265.343.39.507M646.184 615.191c-.336-.433-.664-.867-.996-1.296-.028-.043-.06-.079-.09-.122l-.055-.07c.387.5.773 1.004 1.14 1.488M662.008 635.355c-.102-.128-.203-.25-.301-.37-.219-.27-.434-.54-.664-.825l.965 1.195M425.426 409.168l.25-.133a.445.445 0 0 0-.074.04l-.137.073a.182.182 0 0 0-.04.02M509.434 420.48l-.297-.261.297.261M506.68 418.113l-.051-.031.05.031M512.145 423.102l-.368-.383.368.383M439.316 403.324c.22-.062.442-.12.657-.183-.215.062-.438.12-.657.183M450.55 401.25l.259-.023-.258.023M456.973 401.05l-.059-.003.059.004M643.207 611.293l-.047-.066a4.273 4.273 0 0 1-.16-.211c-.004-.008-.012-.012-.012-.012a2.323 2.323 0 0 0-.066-.086c-.012-.012-.016-.023-.024-.027a.293.293 0 0 0-.058-.078c-.008-.016-.012-.02-.024-.032l-.043-.062c-.02-.024-.035-.047-.05-.067-.012-.015-.024-.027-.035-.047-.016-.023-.036-.043-.055-.066a.114.114 0 0 1-.028-.047.263.263 0 0 1-.043-.054c-.011-.012-.023-.032-.035-.043-.02-.024-.03-.043-.05-.06a.285.285 0 0 0-.036-.05l-.043-.058c-.02-.024-.043-.055-.066-.079v-.007c-.156-.211-.32-.422-.477-.633.454.605.907 1.199 1.352 1.785M503.93 416.016l-.153-.11.153.11M683.918 661.277l-.023-.03c-.02-.02-.043-.044-.06-.067l.083.097m-.082-.097-.195-.22c.074.083.132.153.195.22M636.398 602.262l-.14-.18c-.39-.531-.781-1.055-1.223-1.64.465.617.91 1.218 1.363 1.82M422.762 410.758c.16-.106.32-.207.476-.301a.045.045 0 0 1-.027.012.146.146 0 0 0-.027.023c-.13.078-.27.168-.422.266M679.805 656.625c-.078-.086-.157-.168-.23-.258a65.552 65.552 0 0 1-.47-.535c.235.262.47.535.7.793M639.879 606.902l-.059-.078c-.011-.02-.023-.031-.03-.05l-.017-.016-.027-.04a1.801 1.801 0 0 0-.082-.105l-.02-.031c-.003-.008-.011-.012-.019-.02a.055.055 0 0 0-.023-.027c-.004-.015-.012-.02-.016-.031-.012-.012-.02-.024-.031-.035l-.012-.012a.173.173 0 0 0-.031-.043c0-.008-.004-.008-.012-.012-.023-.039-.047-.066-.07-.105 0 0-.008-.004-.008-.012-.086-.105-.168-.215-.254-.324-.016-.031-.035-.055-.059-.086-.195-.258-.386-.516-.586-.773l1.356 1.8M446.285 401.773l.371-.058-.37.058M631.582 595.797c-.012-.016-.023-.035-.035-.055 0 0-.008 0-.008-.004.012.02.031.035.043.059m-1.113-1.504c-1.528-2.063-3.02-4.086-4.496-6.086-.512-.7-1.032-1.39-1.54-2.082-1.8-2.45-3.585-4.871-5.32-7.23l-.144-.192a4193.259 4193.259 0 0 1-6.364-8.664c-1.656-2.266-3.296-4.5-4.886-6.68l-.274-.37c-1.539-2.106-3.043-4.169-4.523-6.2-.375-.512-.746-1.027-1.121-1.539-1.524-2.09-3.024-4.152-4.489-6.164l-.25-.344c-1.41-1.945-2.789-3.844-4.144-5.71-.313-.434-.625-.868-.941-1.302-1.391-1.914-2.754-3.8-4.086-5.64-.102-.149-.203-.29-.313-.438-1.254-1.734-2.476-3.43-3.68-5.097-.218-.301-.43-.598-.644-.899a15.325 15.325 0 0 1-.227-.304c-1.246-1.735-2.48-3.442-3.668-5.098l-.265-.363c-1.114-1.551-2.207-3.067-3.274-4.551-.289-.399-.57-.797-.855-1.188l-3.3-4.605-.126-.172-2.851-3.977c-.418-.586-.833-1.164-1.243-1.734-.898-1.254-1.789-2.5-2.652-3.7-.113-.155-.227-.32-.344-.484a8846.044 8846.044 0 0 0-4.965-6.925l-.8-1.114-16.657-24.675a11.066 11.066 0 0 0-.898-1.145c-4.684-9.496-11.246-22.105-20.422-35.715 14.469 21.383 63.43 97.637 109.762 160.387M425.766 408.984l.246-.132-.121.066-.125.066M405.758 424.77l.652-.665c-.027.024-.05.051-.074.075-.211.215-.39.402-.578.59M514.453 425.59l-.254-.29.254.29M434.996 404.73l.332-.113-.332.113M669.871 644.973c-.148-.18-.305-.368-.45-.547l-.073-.086c.175.21.355.437.523.633M432.23 405.836c.207-.09.41-.184.614-.266-.203.082-.406.176-.614.266M429.879 406.883c.266-.125.527-.254.793-.367-.266.113-.527.242-.793.367M361.195 474.168l42.32-46.984-42.32 46.984M410.387 420.238c.254-.234.511-.476.77-.703-.259.227-.516.469-.77.703M420.203 412.418c.27-.18.535-.367.809-.547-.274.18-.54.367-.809.547M417.914 414.035c.27-.2.547-.398.816-.594-.27.196-.546.395-.816.594"/><path fill="#d6ab8c" d="M412.71 418.172c-.515.445-1.034.89-1.554 1.363-.258.227-.515.469-.77.703l-.097.09a91.638 91.638 0 0 1 2.422-2.156"/><path fill="#ead5c6" d="m410.29 420.328.097-.09c.254-.234.511-.476.77-.703.519-.473 1.038-.918 1.554-1.363a91.638 91.638 0 0 0-2.422 2.156"/><path fill="#d6ab8c" d="m419.07 413.203-.34.238c-.27.196-.546.395-.816.594-.387.281-.773.578-1.16.867a87.346 87.346 0 0 1 2.316-1.699"/><path fill="#ead5c6" d="M416.754 414.902c.387-.289.773-.586 1.16-.867.27-.2.547-.398.816-.594l.34-.238a87.346 87.346 0 0 0-2.316 1.7"/><path fill="#d6ab8c" d="M422.246 411.082c-.41.258-.82.52-1.234.79-.274.179-.54.366-.809.546l-.34.234a85.961 85.961 0 0 1 2.383-1.57"/><path fill="#ead5c6" d="m419.863 412.652.34-.234c.27-.18.535-.367.809-.547.414-.27.824-.531 1.234-.789a85.961 85.961 0 0 0-2.383 1.57"/><path fill="#d6ab8c" d="m416.043 415.441-.395.305a80.262 80.262 0 0 0-2.238 1.817l-.191.164a94.186 94.186 0 0 1 2.824-2.286"/><path fill="#ead5c6" d="m413.219 417.727.191-.164a80.262 80.262 0 0 1 2.238-1.817l.395-.305a94.186 94.186 0 0 0-2.824 2.286"/><path fill="#d6ab8c" d="M431.71 406.059c-.347.148-.69.293-1.038.457-.266.113-.527.242-.793.367-.227.101-.461.222-.7.336.852-.406 1.696-.801 2.532-1.16"/><path fill="#ead5c6" d="M429.18 407.219c.238-.114.472-.235.699-.336.266-.125.527-.254.793-.367.328-.153.656-.29.98-.434-.82.356-1.644.742-2.472 1.137m2.472-1.137c.02-.008.036-.012.059-.023-.024.011-.04.015-.059.023"/><path fill="#d6ab8c" d="m437.98 403.727-.175.054c-.223.067-.442.137-.664.211-.602.192-1.204.403-1.813.625l-.332.113c-.715.262-1.433.543-2.152.84-.203.082-.406.176-.614.266l-.144.059a62.305 62.305 0 0 1 5.894-2.168"/><path fill="#ead5c6" d="m432.086 405.895.144-.06c.207-.089.41-.183.614-.265a56.796 56.796 0 0 1 2.152-.84l.332-.113c.61-.222 1.211-.433 1.813-.625.222-.074.441-.144.664-.21l.175-.055a62.305 62.305 0 0 0-5.894 2.168"/><path fill="#d6ab8c" d="M440.895 402.902c-.305.082-.614.157-.922.239-.215.062-.438.12-.657.183-.41.117-.82.246-1.226.371.937-.289 1.87-.554 2.805-.793"/><path fill="#ead5c6" d="M438.09 403.695c.406-.125.816-.254 1.226-.37.22-.063.442-.122.657-.184.261-.07.52-.137.777-.204-.879.235-1.77.481-2.66.758m2.66-.757.145-.036-.145.036"/><path fill="#d6ab8c" d="M452.352 401.129c6.804 3.828 11.714 7.844 15.101 11.75 2.496.433 4.852.984 7.027 1.617 16.899 2.61 34.368 11.211 45.848 27.785 2.988 4.313 8.516 12.7 15.89 23.88 1.833.698 3.524 1.843 4.91 3.46-4.972-10.086-12.07-23.687-22.167-38.27a65.65 65.65 0 0 0-1.984-2.69c-.153-.2-.301-.391-.454-.583a53.74 53.74 0 0 0-2.07-2.488l-.254-.29a64.998 64.998 0 0 0-2.054-2.198l-.368-.383a73.888 73.888 0 0 0-2.343-2.239l-.297-.261a76.99 76.99 0 0 0-2.457-2.106 70.594 70.594 0 0 0-2.75-2.097l-.153-.11c-9.386-6.758-20.136-10.715-30.664-12.336-4.66-1.355-10.117-2.386-16.14-2.52a59.46 59.46 0 0 0-6.164.177l-.258.023c-.586.047-1.164.11-1.754.18a68.933 68.933 0 0 0-2.14.285l-.372.058a55.923 55.923 0 0 0-4.207.832c-.168.036-.332.079-.5.122-.168.043-.351.09-.523.132a59.282 59.282 0 0 1 11.297-1.73"/><path fill="#ead5c6" d="M541.129 469.621a12.131 12.131 0 0 0-4.91-3.46c-7.375-11.18-12.903-19.567-15.89-23.88-11.481-16.574-28.95-25.176-45.849-27.785a65.166 65.166 0 0 0-7.027-1.617c-3.387-3.906-8.297-7.922-15.101-11.75a59.282 59.282 0 0 0-10.774 1.598c.168-.043.332-.086.5-.122a55.923 55.923 0 0 1 4.207-.832l.371-.058a68.933 68.933 0 0 1 2.14-.285c.59-.07 1.169-.133 1.755-.18l.258-.023a58.53 58.53 0 0 1 6.164-.176c6.023.133 11.48 1.164 16.14 2.52 10.528 1.62 21.278 5.577 30.664 12.335l.153.11a70.594 70.594 0 0 1 2.75 2.097 76.99 76.99 0 0 1 2.457 2.106l.297.261c.793.723 1.57 1.47 2.343 2.239l.368.383c.699.71 1.378 1.445 2.054 2.199l.254.289c.711.8 1.399 1.633 2.07 2.488.153.192.301.383.454.582a65.65 65.65 0 0 1 1.984 2.692c10.098 14.582 17.195 28.183 22.168 38.27"/><path fill="#d6ab8c" d="m428.652 407.473-.21.101c-.266.133-.532.266-.797.406-.536.278-1.067.56-1.602.856l-.152.082a69.443 69.443 0 0 1 2.761-1.445"/><path fill="#ead5c6" d="M426.434 408.625c.402-.223.808-.434 1.21-.645.266-.14.532-.273.797-.406l.211-.101a63.4 63.4 0 0 0-2.218 1.152"/><path fill="#d6ab8c" d="m425.691 409.027-.265.141c-.723.414-1.45.836-2.188 1.289-.148.09-.3.184-.449.281a68.522 68.522 0 0 1 2.902-1.71"/><path fill="#ead5c6" d="M422.79 410.738c.147-.097.3-.191.448-.281a83.543 83.543 0 0 1 2.188-1.289l.176-.094a75.04 75.04 0 0 0-2.813 1.664"/><path fill="#d6ab8c" d="M409.387 421.172c-.176.168-.352.324-.528.496-.27.262-.539.523-.812.793-.258.246-.516.512-.77.773.7-.707 1.403-1.394 2.11-2.062"/><path fill="#ead5c6" d="M407.277 423.234c.254-.261.512-.527.77-.773.273-.27.543-.531.812-.793.176-.172.352-.328.528-.496a86.885 86.885 0 0 0-2.11 2.062"/><path fill="#d6ab8c" d="M406.367 424.148c-.207.204-.406.41-.61.622-.745.78-1.495 1.582-2.241 2.414a101.683 101.683 0 0 1 2.851-3.036"/><path fill="#ead5c6" d="M403.516 427.184c.086-.102.18-.204.273-.301-.094.097-.184.199-.273.3m.273-.3c.656-.723 1.313-1.426 1.969-2.113.144-.153.289-.297.433-.446-.441.457-.867.903-1.296 1.36-.372.394-.739.796-1.106 1.199"/><path fill="#ddbaa1" d="m359.918 488.035 44.95-49.906c22.835-25.36 46.015-28.125 62.585-25.25-3.387-3.906-8.297-7.922-15.101-11.75-3.61.2-7.395.742-11.297 1.73l-.16.043c-.934.239-1.868.504-2.805.793l-.11.032a62.305 62.305 0 0 0-5.894 2.168l-.375.164c-.836.359-1.68.753-2.531 1.16-.172.086-.356.172-.528.254-.918.457-1.84.933-2.761 1.445l-.125.066a71.194 71.194 0 0 0-2.977 1.754c-.2.121-.367.235-.543.344a85.961 85.961 0 0 0-2.383 1.57c-.261.184-.527.364-.793.551a87.346 87.346 0 0 0-2.316 1.7c-.211.16-.426.312-.637.48l-.074.058a94.186 94.186 0 0 0-2.824 2.286c-.188.164-.344.308-.508.445a91.638 91.638 0 0 0-2.422 2.156c-.3.274-.601.563-.902.844a86.885 86.885 0 0 0-2.11 2.062c-.297.29-.578.579-.867.871a104.15 104.15 0 0 0-2.914 3.098l-42.3 46.965-7.509 8.336c1.625 1.441 3.723 3.297 6.231 5.531"/><path fill="#ead5c6" d="M359.918 488.035c-2.508-2.234-4.606-4.09-6.23-5.531l7.507-8.336 42.301-46.965a104.15 104.15 0 0 1 2.914-3.098c.29-.293.57-.582.867-.87.7-.708 1.403-1.395 2.11-2.063.3-.281.601-.57.902-.844a91.638 91.638 0 0 1 2.422-2.156c.164-.137.32-.281.508-.445a94.186 94.186 0 0 1 2.824-2.286l.074-.058c.211-.168.426-.32.637-.48a87.346 87.346 0 0 1 2.316-1.7c.266-.187.532-.367.793-.55a85.961 85.961 0 0 1 2.383-1.571c.176-.11.344-.223.543-.344a71.194 71.194 0 0 1 2.977-1.754l.125-.066a69.443 69.443 0 0 1 2.761-1.445c.172-.082.356-.168.528-.254.851-.406 1.695-.801 2.53-1.16l.376-.164a62.305 62.305 0 0 1 5.894-2.168l.11-.032c.937-.289 1.87-.554 2.805-.793l.16-.043a59.282 59.282 0 0 1 11.297-1.73c6.804 3.828 11.714 7.844 15.101 11.75a61.155 61.155 0 0 0-10.48-.91h-.047c-15.078.011-33.488 5.726-51.703 25.765-.024.024-.043.047-.067.07l-.289.325-44.949 49.906"/><path fill="#d6ab8c" d="M674.621 650.625c.27.32.543.633.809.941-.266-.308-.54-.62-.809-.941"/><path fill="#ead5c6" d="M675.43 651.566c-.266-.308-.54-.62-.809-.941.27.32.543.633.809.941"/><path fill="#d6ab8c" d="M564.793 503.965c-2.156-3.012-4.191-5.856-6.11-8.524a8487.59 8487.59 0 0 1 6.11 8.524"/><path fill="#ead5c6" d="M564.793 503.965c-.106-.156-.223-.309-.336-.469 0 0-.008-.008-.008-.016.117.165.23.329.344.485M564.45 503.48a9.082 9.082 0 0 1-.173-.238c-1.672-2.34-3.27-4.562-4.793-6.687 1.578 2.199 3.23 4.504 4.965 6.925"/><path fill="#d6ab8c" d="M667.39 641.973"/><path fill="#ead5c6" d="M666.574 640.98"/><path fill="#d6ab8c" d="m686.195 663.793-.238-.266.238.266M618.969 578.703l.144.192-.144-.192"/><path fill="#ead5c6" d="m619.113 578.895-.144-.192.144.192"/><path fill="#d6ab8c" d="M624.434 586.125c.507.691 1.027 1.383 1.539 2.082-.512-.7-1.032-1.39-1.54-2.082"/><path fill="#ead5c6" d="M625.973 588.207c-.512-.7-1.032-1.39-1.54-2.082.508.691 1.028 1.383 1.54 2.082"/><path fill="#d6ab8c" d="M646.398 615.473c-.433-.559-.867-1.133-1.3-1.7.433.567.867 1.141 1.3 1.7"/><path fill="#ead5c6" d="M645.188 613.895c-.028-.043-.06-.079-.09-.122.03.043.062.079.09.122"/><path fill="#d6ab8c" d="M681.973 659.094c-.22-.239-.434-.489-.653-.735.22.246.434.496.653.735M656.344 628.25c-.309-.383-.61-.766-.918-1.156.308.39.61.773.918 1.156"/><path fill="#ead5c6" d="M656.344 628.25c-.254-.313-.496-.621-.746-.938-.02-.027-.04-.05-.055-.074-.043-.047-.078-.097-.117-.144.308.39.61.773.918 1.156"/><path fill="#d6ab8c" d="m683.973 661.336-.293-.332.293.332M631.863 596.176l-.281-.38a16.684 16.684 0 0 0-.309-.421c.106.14.2.277.309.422l.281.379"/><path fill="#ead5c6" d="m631.863 596.176-.281-.38c-.012-.015-.023-.034-.035-.054.012.02.023.04.035.055l.281.379m-.316-.434c-.09-.117-.184-.238-.274-.367.09.129.184.25.274.367"/><path fill="#d6ab8c" d="M591.977 541.73c.316.434.628.868.941 1.301-.313-.433-.633-.867-.941-1.3M636.258 602.082"/><path fill="#ead5c6" d="M636.258 602.082"/><path fill="#d6ab8c" d="M643.16 611.227"/><path fill="#ead5c6" d="M643 611.016c-.004-.008-.012-.012-.012-.012s.008.004.012.012m-.078-.098c-.012-.012-.016-.023-.024-.027.008.004.012.015.024.027m-.082-.106c-.008-.015-.012-.019-.024-.03a.094.094 0 0 1 .024.03m-.067-.093c-.02-.024-.035-.047-.05-.067.015.02.03.043.05.067m-.086-.114c-.015-.023-.035-.043-.054-.066.02.024.039.043.054.066M642.528 610.395c-.02-.024-.03-.043-.05-.06.02.017.03.036.05.06m-.086-.11-.043-.058c.012.02.032.043.043.058m-.109-.137v-.007.007M642.8159999999999 610.781l-.043-.062c.012.02.028.039.043.062m-.093-.129c-.012-.015-.024-.027-.035-.047.011.02.023.032.035.047M642.563 610.438c-.012-.012-.024-.032-.036-.043.012.011.024.03.035.043m-.164-.212c-.02-.023-.043-.054-.066-.078.023.024.047.055.066.079m-.066-.086c-.156-.211-.32-.422-.477-.633.157.21.32.422.477.633"/><path fill="#d6ab8c" d="M639.82 606.824c-.445-.594-.886-1.183-1.34-1.777.454.594.895 1.183 1.34 1.777"/><path fill="#ead5c6" d="M639.79 606.773c-.005-.003-.013-.011-.017-.015l.016.015m-.043-.054c-.004-.004-.012-.012-.012-.016 0 .004.008.012.012.016m-.082-.106-.02-.031.02.031m-.079-.11-.03-.034c.011.011.02.023.03.035M639.5 606.402c-.023-.039-.047-.066-.07-.105.023.039.047.066.07.105m-.078-.117c-.086-.105-.168-.215-.254-.324.086.11.168.219.254.324m-.254-.324c-.016-.031-.035-.055-.059-.086.024.031.043.055.059.086m-.645-.86c-.011-.019-.023-.038-.043-.054.02.015.032.035.043.055"/><path fill="#ead5c6" d="M639.82 606.824c-.011-.02-.023-.031-.03-.05.007.019.019.03.03.05m-.047-.066-.027-.04.027.04m-.129-.176c-.003-.008-.011-.012-.019-.02.008.008.016.012.02.02m-.043-.047c-.004-.015-.012-.02-.016-.031.004.012.012.016.016.031m-.047-.066-.012-.012.012.012m-.043-.055c0-.008-.004-.008-.012-.012.008.004.012.004.012.012m-.082-.117s-.008-.004-.008-.012c0 .008.008.012.008.012m-.32-.422c-.196-.258-.387-.516-.587-.773.2.257.391.515.586.773"/><path fill="#d6ab8c" d="m607.445 562.988.274.371-.274-.37"/><path fill="#ead5c6" d="m607.719 563.36-.274-.372.274.371"/><path fill="#d6ab8c" d="M587.578 535.652"/><path fill="#ead5c6" d="M587.89 536.09"/><path fill="#d6ab8c" d="m597.063 548.742.25.344-.25-.344"/><path fill="#ead5c6" d="m597.313 549.086-.25-.344.25.344"/><path fill="#d6ab8c" d="M601.8 555.25c.376.512.747 1.027 1.122 1.54-.375-.513-.746-1.028-1.121-1.54M583.027 529.352"/><path fill="#ead5c6" d="M583.898 530.555c-.218-.301-.43-.598-.644-.899.215.301.426.598.644.899m-.644-.899"/><path fill="#d6ab8c" d="M652.504 623.367"/><path fill="#ead5c6" d="M652.504 623.367c-.012-.02-.024-.031-.035-.05.011.019.023.03.035.05M652.105 622.86s0-.008-.003-.008c.003 0 .003.007.003.007"/><path fill="#d6ab8c" d="M669.871 644.973c-.148-.18-.305-.368-.45-.547.145.18.302.367.45.547"/><path fill="#ead5c6" d="M669.871 644.973c-.148-.18-.305-.368-.45-.547.145.18.302.367.45.547"/><path fill="#d6ab8c" d="M574.965 518.152c.285.391.566.79.855 1.188-.289-.399-.57-.797-.855-1.188M571.54 513.375l.124.172-.125-.172"/><path fill="#ead5c6" d="m571.664 513.547-.125-.172.125.172"/><path fill="#d6ab8c" d="M672.29 647.867"/><path fill="#ead5c6" d="M672.887 648.578"/><path fill="#d6ab8c" d="M664.809 638.824c-.329-.418-.672-.832-1.012-1.254.34.422.683.836 1.012 1.254"/><path fill="#ead5c6" d="M664.559 638.512c-.223-.278-.45-.555-.672-.832.222.277.449.554.672.832"/><path fill="#d6ab8c" d="M567.445 507.664c.41.57.82 1.149 1.242 1.734-.417-.586-.832-1.164-1.242-1.734"/><path fill="#ead5c6" d="M568.688 509.398c-.422-.586-.833-1.164-1.243-1.734.41.57.825 1.149 1.242 1.734"/><path fill="#d6ab8c" d="m579.094 523.89.265.364-.265-.363"/><path fill="#ead5c6" d="m579.36 524.254-.266-.363.265.363"/><path fill="#d6ab8c" d="M662.129 635.512"/><path fill="#ead5c6" d="M661.285 634.46s0-.003-.008-.003c.008 0 .008.004.008.004m-.09-.113"/><path fill="#d6ab8c" d="M679.895 656.734c-.262-.297-.524-.597-.786-.898.262.3.524.601.786.898M659.352 632.047"/><path fill="#ddbaa1" d="M631.582 595.797c-.11-.145-.203-.281-.309-.422-1.8-2.434-3.558-4.816-5.3-7.168-.512-.7-1.032-1.39-1.54-2.082-1.8-2.45-3.585-4.871-5.32-7.23l-.144-.192a4193.259 4193.259 0 0 1-6.364-8.664c-1.656-2.266-3.296-4.5-4.886-6.68l-.274-.37c-1.539-2.106-3.043-4.169-4.523-6.2-.375-.512-.746-1.027-1.121-1.539-1.524-2.09-3.024-4.152-4.489-6.164l-.25-.344c-1.41-1.945-2.789-3.844-4.144-5.71-.313-.434-.625-.868-.941-1.302-1.391-1.914-2.754-3.8-4.086-5.64-.102-.149-.203-.29-.313-.438-1.254-1.734-2.476-3.43-3.68-5.097-.289-.403-.578-.801-.87-1.203-1.247-1.735-2.481-3.442-3.669-5.098l-.265-.363c-1.114-1.551-2.207-3.067-3.274-4.551-.289-.399-.57-.797-.855-1.188l-3.3-4.605-.126-.172-2.851-3.977c-.422-.586-.833-1.164-1.243-1.734-.898-1.254-1.789-2.5-2.652-3.7a8487.59 8487.59 0 0 0-6.11-8.523l-16.656-24.675a11.066 11.066 0 0 0-.898-1.145 12.131 12.131 0 0 0-4.91-3.46c21.941 33.269 60.25 91.28 96.73 140.566 20.895 28.222 36.934 48.02 49.168 61.918 2.188-2.31 3.801-3.645 4.621-4.266-.168-.18-.336-.363-.504-.547l-.277-.305c-.652-.715-1.309-1.445-1.977-2.183l-.3-.34c-.586-.656-1.14-1.27-1.707-1.91-.22-.239-.434-.489-.653-.735-.472-.543-.945-1.07-1.422-1.613-.265-.308-.527-.61-.789-.91-.238-.277-.468-.535-.71-.813-.223-.257-.454-.523-.68-.789-.274-.312-.551-.632-.824-.953-.477-.566-.973-1.136-1.465-1.715-.266-.308-.54-.62-.809-.941-.566-.676-1.152-1.355-1.734-2.047-.2-.242-.395-.473-.598-.71l-.133-.165c-.746-.887-1.508-1.797-2.277-2.715-.156-.195-.313-.383-.457-.562l-.074-.086c-.645-.774-1.29-1.559-1.953-2.36-.305-.375-.61-.746-.915-1.113a762.997 762.997 0 0 1-1.664-2.039c-.336-.422-.68-.836-1.02-1.258-.558-.687-1.097-1.347-1.636-2.023l-1.097-1.363c-.575-.711-1.133-1.414-1.7-2.125-.367-.465-.722-.91-1.09-1.368-.628-.789-1.265-1.597-1.906-2.41-.332-.414-.633-.797-.941-1.187-.957-1.215-1.922-2.438-2.89-3.692-.169-.21-.313-.398-.458-.586l-.265-.343c-.762-.97-1.512-1.946-2.286-2.938-.402-.527-.789-1.027-1.175-1.527l-.059-.07c-.621-.81-1.242-1.614-1.875-2.442-.453-.582-.887-1.156-1.32-1.723l-.055-.07c-.606-.797-1.215-1.598-1.836-2.41l-.047-.066c-.441-.575-.883-1.157-1.32-1.743a419.707 419.707 0 0 1-1.961-2.582l-.059-.078c-.445-.594-.886-1.183-1.34-1.777a1012.39 1012.39 0 0 1-2.082-2.785l-.14-.18c-.39-.531-.781-1.055-1.188-1.586-.945-1.277-1.875-2.523-2.8-3.777-.133-.188-.266-.36-.407-.543l-.281-.38"/><path fill="#ead5c6" d="M682.117 668.645c-12.234-13.899-28.273-33.696-49.168-61.918-36.48-49.286-74.789-107.297-96.73-140.567 1.832.7 3.523 1.844 4.91 3.461.312.36.621.727.898 1.145l16.657 24.675a8487.59 8487.59 0 0 1 6.109 8.524c.863 1.2 1.754 2.445 2.652 3.7.41.57.82 1.147 1.242 1.733l2.852 3.977.125.172c1.074 1.496 2.18 3.039 3.3 4.605.286.391.567.79.856 1.188 1.067 1.484 2.16 3 3.274 4.55l.265.364c1.188 1.656 2.422 3.363 3.668 5.098.293.402.582.8.871 1.203 1.204 1.668 2.426 3.363 3.68 5.097.11.149.211.29.313.438 1.332 1.84 2.695 3.726 4.086 5.64.316.434.628.868.941 1.301 1.355 1.867 2.734 3.766 4.144 5.711l.25.344c1.465 2.012 2.965 4.074 4.489 6.164.375.512.746 1.027 1.12 1.54 1.481 2.03 2.985 4.093 4.524 6.198l.274.371c1.59 2.18 3.23 4.414 4.886 6.68a4193.259 4193.259 0 0 0 6.363 8.664l.145.192c1.735 2.359 3.52 4.78 5.32 7.23.508.691 1.028 1.383 1.54 2.082 1.742 2.352 3.5 4.734 5.3 7.168.106.14.2.277.309.422l.281.379c.14.183.274.355.407.543.925 1.254 1.855 2.5 2.8 3.777.407.531.797 1.055 1.188 1.586l.14.18c.684.918 1.368 1.832 2.082 2.785.454.594.895 1.183 1.34 1.777l.059.078c.644.856 1.285 1.7 1.96 2.582.438.586.88 1.168 1.321 1.743l.047.066c.621.812 1.23 1.613 1.836 2.41l.055.07c.433.567.867 1.141 1.32 1.723.633.828 1.254 1.633 1.875 2.442l.059.07c.386.5.773 1 1.175 1.527.774.992 1.524 1.969 2.285 2.938l.266.343c.145.188.29.375.457.586.969 1.254 1.934 2.477 2.89 3.692.31.39.61.773.942 1.187.64.813 1.278 1.621 1.906 2.41.368.457.723.903 1.09 1.368.567.71 1.125 1.414 1.7 2.125l1.097 1.363c.54.676 1.078 1.336 1.637 2.023.34.422.683.836 1.02 1.258a762.997 762.997 0 0 0 2.578 3.152c.664.801 1.308 1.586 1.953 2.36l.074.086c.144.18.3.367.457.562.77.918 1.531 1.828 2.277 2.715l.133.164c.203.238.399.469.598.711.582.692 1.168 1.371 1.734 2.047.27.32.543.633.809.941.492.579.988 1.149 1.465 1.715.273.32.55.64.824.953.226.266.457.532.68.79.242.277.472.535.71.812.262.3.524.601.79.91.476.543.949 1.07 1.421 1.613.22.246.434.496.653.735.566.64 1.12 1.254 1.707 1.91l.3.34c.668.738 1.325 1.468 1.977 2.183l.277.305c.168.184.336.367.504.547-.82.621-2.433 1.957-4.62 4.266"/><path fill="#3a3c3b" d="M445.898 578.496c-.5.742-1.054 1.547-1.632 2.402.578-.855 1.132-1.66 1.632-2.402M443.582 581.895c-.39.57-.793 1.175-1.215 1.789.422-.614.824-1.22 1.215-1.79M417.508 620.191c-1.059 1.555-2.125 3.125-3.203 4.7 1.078-1.575 2.144-3.145 3.203-4.7M440.926 585.797c-.446.664-.91 1.344-1.39 2.05.48-.706.944-1.386 1.39-2.05M449.266 573.54c-.727 1.07-1.875 2.757-3.368 4.956 1.493-2.2 2.641-3.887 3.368-4.957M431.156 600.152c-.594.868-1.191 1.75-1.8 2.641.609-.89 1.207-1.773 1.8-2.64M435.836 593.281c-.832 1.215-1.684 2.469-2.563 3.758.88-1.289 1.73-2.543 2.563-3.758M414.66 538.71c1.305 1.267 2.613 2.532 3.922 3.802-1.309-1.27-2.61-2.535-3.922-3.801M435.563 559.344l3.226 3.285-3.226-3.285M386.836 512.469c.89.828 1.8 1.672 2.719 2.515-.918-.843-1.82-1.687-2.72-2.515M379.852 506.047c.843.773 1.707 1.562 2.566 2.355-.867-.793-1.723-1.582-2.566-2.355M393.266 518.434l-.313-.29a318.45 318.45 0 0 0-2.45-2.269c.919.844 1.833 1.7 2.763 2.559M376.496 502.98c.832.762 1.68 1.532 2.531 2.317-.851-.785-1.699-1.555-2.53-2.317M373.277 500.059c.848.765 1.72 1.562 2.598 2.355-.879-.793-1.75-1.59-2.598-2.355M383.281 509.191c.88.809 1.77 1.633 2.676 2.465-.906-.832-1.797-1.656-2.676-2.465"/><g clip-path="url(#c)"><path fill="#242424" d="M435.563 559.344c-.47-.473-.938-.95-1.415-1.426a718.18 718.18 0 0 0-4.218-4.234c-.145-.141-.285-.286-.43-.43a955.127 955.127 0 0 0-4.89-4.848c-.266-.265-.54-.523-.805-.789a655.872 655.872 0 0 0-4.09-4l-1.133-1.105-3.922-3.801c-.328-.313-.652-.633-.976-.945a951.286 951.286 0 0 0-4.618-4.426l-.14-.133L266.148 697.18a118.672 118.672 0 0 1-36.523-23.23c-.332-.305-.652-.618-.977-.927a119.628 119.628 0 0 1-20.488-25.71c-7.816-13.211-14.39-29.13-18.144-48.063a246.53 246.53 0 0 0-29.746 24.273c.09 16.516 2.199 30.645 5.664 42.73-6.133-12.358-10.676-27.671-12.375-46.581.27 3.129.593 6.207 1.011 9.195a168.457 168.457 0 0 0 1.957 11.281c2.63 12.586 6.516 23.797 11.16 33.754a148.56 148.56 0 0 0 2.274 4.676l.133.246c1.375 2.68 2.8 5.274 4.277 7.762a119.416 119.416 0 0 0 18.852 24.16 118.996 118.996 0 0 0 7.433 6.762 135.252 135.252 0 0 0 3.906 3.12 120.249 120.249 0 0 0 8.153 5.716 118.259 118.259 0 0 0 17.488 9.246 116.547 116.547 0 0 0 23.543 7.207c3.23.625 6.492 1.11 9.777 1.457a112.89 112.89 0 0 0 24.875-.137 111.13 111.13 0 0 0 11.149-1.898 114.09 114.09 0 0 0 7.375-1.89c1.012-.302 2.027-.618 3.031-.942 1.106-.356 2.2-.703 3.297-1.098a107.58 107.58 0 0 0 16.11-7.27c11.87-6.601 23.1-15.94 32.43-29.039.183-.257 28.1-41.246 52.515-77.09 1.078-1.574 2.144-3.144 3.203-4.699 1.46-2.14 2.898-4.254 4.316-6.332.832-1.222 1.653-2.43 2.465-3.629 1.742-2.546 3.434-5.035 5.066-7.437.61-.89 1.207-1.773 1.801-2.64.719-1.055 1.43-2.094 2.117-3.114.88-1.289 1.73-2.543 2.563-3.758 1.3-1.91 2.535-3.73 3.7-5.433.48-.707.944-1.387 1.39-2.051.5-.727.976-1.434 1.441-2.113.422-.614.824-1.22 1.215-1.79.238-.343.461-.675.684-.996.578-.855 1.132-1.66 1.632-2.402 1.493-2.2 2.641-3.887 3.368-4.957a1023.84 1023.84 0 0 0-4.356-4.586c-.476-.492-.953-.988-1.43-1.48a593.5 593.5 0 0 0-3.12-3.23c-.258-.266-.505-.532-.766-.794-.27-.273-.543-.55-.805-.82l-3.226-3.285"/></g><path fill="#28b0b8" d="M390.504 515.875a99.13 99.13 0 0 0-.95-.89 643.848 643.848 0 0 1-2.718-2.516c-.297-.278-.59-.54-.879-.813-.906-.832-1.797-1.656-2.676-2.465-.289-.261-.574-.523-.863-.789-.86-.793-1.723-1.582-2.566-2.355-.278-.25-.547-.5-.825-.75-.851-.785-1.699-1.555-2.53-2.317-.212-.19-.419-.378-.622-.566-.879-.793-1.75-1.59-2.598-2.355l-.289-.262a1942.16 1942.16 0 0 0-15.047-13.52c-24.703 26.68-77.125 105.817-128.316 187.672a118.672 118.672 0 0 0 36.523 23.23l142.778-163.972a666.646 666.646 0 0 0-3.278-3.121c-.253-.242-.503-.484-.753-.719a1874.19 1874.19 0 0 0-3.06-2.89c-.288-.278-.577-.547-.866-.82-.996-.938-1.977-1.86-2.961-2.782-.309-.29-.613-.578-.922-.867a802.225 802.225 0 0 0-2.84-2.653c-.324-.304-.656-.613-.98-.921-.93-.86-1.844-1.715-2.762-2.559"/><path fill="#d9d8ec" d="M639.441 737.563c2.692-.04 5.688-.29 9.02-.801-3.332.511-6.328.761-9.02.8M660.797 715.465s10.93 1.558 16.664 4.164c5.637 2.566 41.164 17.246 97.543.703 6.226-5.39 10.758-11.27 12.988-13.363-.933-2.36-2.16-4.305-3.57-5.258-8.797-2.977-26.543-4.48-40.633-9.191-14.89-4.985-32.555-12.22-44.992-23.887-5.465-5.133-7.844-6.84-11.45-4.688 0 0-.214.133-.609.434-.82.621-2.433 1.957-4.62 4.266-2.274 2.402-5.165 5.855-8.438 10.71-1.875 2.778-9.516 4.567-17.801 5.079a86 86 0 0 1-4.82.148c-15.91 0-20.356-9.246-26.504-11.3a4.116 4.116 0 0 0-.625-.137c-2.672-.325-3.563 3.445-3.61 3.886-1.062 10-2.375 22.078-3.297 30.543 4.176 3.645 17.399 12.492 43.774 7.89"/><path fill="#c6c5e3" d="M749 740.008c-.234.043-.46.078-.7.12.24-.042.466-.077.7-.12M662.36 720.668c11.452-1.04 18.738 5.207 36.437 9.371 17.7 4.16 51.535 2.602 71.84-6.25a59.614 59.614 0 0 0 4.367-3.457c-56.379 16.543-91.906 1.863-97.543-.703-5.734-2.606-16.664-4.164-16.664-4.164-26.375 4.601-39.598-4.246-43.774-7.89-.152 1.366-.289 2.636-.418 3.8 8.383 12.402 34.329 10.332 45.754 9.293M628.504 736.195c1.144.356 2.387.649 3.742.871 2.113.352 4.508.532 7.195.496 2.692-.039 5.688-.289 9.02-.8-8.684.968-15.137.558-19.957-.567"/><path fill="#3c3c40" d="M732.04 742.145a204.34 204.34 0 0 0 11.429-1.266c1.633-.227 3.242-.484 4.832-.75.238-.043.465-.078.699-.121 2.484-.43 4.918-.903 7.281-1.446 1.024-.23 2.035-.476 3.04-.73 2.003-.512 3.956-1.07 5.863-1.68 8.562-2.746 16.101-6.53 22.367-11.8 3.394-2.856 4.488-12.254 1.93-18.008-.184-.403-.7-.114-1.489.625-2.23 2.093-6.762 7.972-12.988 13.363a59.614 59.614 0 0 1-4.367 3.457c-20.305 8.852-54.14 10.41-71.84 6.25-17.7-4.164-24.985-10.41-36.438-9.371-11.425 1.039-37.37 3.11-45.754-9.293-.449 4.137-2.136 12.934-2.136 12.934s.578 8.746 14.035 11.886c4.82 1.125 11.273 1.535 19.957.567 35.758-3.996 33.836 3.914 55.223 5.648.609.055 1.25.098 1.898.14.656.04 1.328.083 2.016.114 1.027.047 2.113.086 3.215.113a157.838 157.838 0 0 0 5.792.063c2.457-.02 5.043-.086 7.707-.207 2.508-.106 5.094-.278 7.727-.488"/><path fill="#e2c4af" d="M63.672 128.09c6.844.578 22.308 4.996 34 13.996-.211.71-.383 1.426-.5 2.144l142.488 45.657c2.656.855 4.445 3.12 4.863 5.71a87.937 87.937 0 0 0-13.07-.937c-4.375.957-33.59 9.778-66.508 37.832-6.308 19.453-4.347 41.38 2.54 55.774 11.07 6.879 22.722 6.832 33.788 3.757 34.114-27.445 67.602-62.234 76.114-71.242 9.633-9.324 14.586-23.785 9.304-35.93-8.84-6.324-29.261-20.48-44.785-28.265-14.824-7.426-133.613-22.953-133.613-22.953-5.598 3.008-9.063 6.562-11.066 10.312 1.066-5.726 4.714-11.37 13.003-15.824l3.946.524c-13.035-10.91-33.899-17.258-44.25-18.133-4.375-1.336-14.77-1.016-28.938-1.98a236.122 236.122 0 0 1-4.73-.364l-1.52 17.934c14.164.964 24.559.644 28.934 1.988M38.39 177.914c-.48-.11-.98-.226-1.476-.332.496.106.996.223 1.477.332M33.227 176.773"/><path fill="#e2c4af" d="M34.445 108.852c.735-.29 1.36-.528 1.813-.684-.703.164-1.223.344-1.813.684M47.426 180.152c-.367-.093-.754-.199-1.133-.293.379.094.766.2 1.133.293M45.332 179.605c-.383-.097-.777-.199-1.172-.296.395.097.793.199 1.172.296M43.129 179.05c-.41-.1-.832-.202-1.262-.312.43.11.852.211 1.262.313M49.004 180.574c-.219-.058-.457-.12-.688-.187.465.129.93.254 1.368.375 8.035 2.203 16.398 2.836 24.66 1.82l1.18-.144c-8.876 1.09-17.883.488-26.52-1.864"/><path fill="#ddbaa1" d="m24.941 172.195 5.555 4.02-5.555-4.02M43.129 179.05c.355.087.691.177 1.031.259.395.097.79.199 1.172.296.328.083.64.168.961.254.379.094.766.2 1.133.293.3.078.594.164.89.235.23.066.47.129.688.187 8.637 2.352 17.644 2.953 26.52 1.863l1.695-.21 6.789-.829 7.918-.972 12.625-10.055c-1.645-.934-2.524-1.445-2.524-1.445s-6.566-10.442-5.062-23.11c.05-.53.113-1.062.207-1.586.117-.718.289-1.433.5-2.144-11.692-9-27.156-13.418-34-13.996-4.375-1.344-14.77-1.024-28.934-1.988l-4.242 50.113c.922.183 1.832.37 2.73.558.31.067.602.133.91.2.575.12 1.157.246 1.72.367.359.086.703.164 1.058.242.496.106.996.223 1.477.332.355.082.707.168 1.054.246.465.106.93.215 1.375.324.2.047.387.098.586.145.157.035.313.074.461.11.43.109.852.21 1.262.312"/><path fill="#d6ab8c" d="M36.258 108.168c-.453.156-1.078.394-1.813.684-1.953.78-4.683 2.046-7.008 3.757-1.87 1.375-2.898 3.149-4.082 6.989-.855 2.777-4.328 37.957-3.746 44.246.246 2.699 1.059 5.351 3.493 7.02l1.84 1.331 5.554 4.02 4.242-50.113 1.52-17.934"/><path fill="#e2c4af" d="M253.875 156.543c-3.46-2.004-6.848-3.871-10.027-5.465-.7-.355-1.621-.715-2.75-1.094 1.129.38 2.05.739 2.75 1.094 3.144 1.574 6.539 3.442 10.027 5.465M160.867 199.84a1005.299 1005.299 0 0 1-40.797-20.867l-7.562.488-1.38-5.387a619.126 619.126 0 0 1-6.577-3.703l-12.625 10.055-7.918.972c6.328 8.942 17.129 15.766 23.297 14.594.86-.164 1.672-.61 2.449-1.254l2.7 8.29c.019.023 10.737 13.91 41.405 23.788 8.399-7.132 16.36-13.464 24.766-18.488a2750.349 2750.349 0 0 1-17.758-8.488M96.965 145.816c.062-.53.113-1.054.207-1.586a19.557 19.557 0 0 0-.207 1.586"/><path fill="#d6ab8c" d="M239.66 189.887 97.172 144.23c-.094.532-.145 1.055-.207 1.586-1.504 12.668 5.062 23.11 5.062 23.11s.88.512 2.524 1.445c1.543.883 3.773 2.145 6.578 3.703 2.527 1.399 5.531 3.047 8.941 4.899a1005.299 1005.299 0 0 0 40.797 20.867 2750.349 2750.349 0 0 0 17.758 8.488 92.804 92.804 0 0 1 8.805-4.68c1-.511 1.867-.902 2.597-1.156 15.211-6.41 29.04-7.754 40.66-7.82.25-.008.504-.008.758-.012 4.672-.008 9.02.336 13.078.938-.418-2.59-2.207-4.856-4.863-5.711"/><path fill="#e2c4af" d="M231.39 278.734c-1.175 1.036-2.355 2.075-3.535 3.102 1.18-1.027 2.36-2.066 3.536-3.102M243.438 267.871c-1.122 1.031-2.247 2.067-3.387 3.106 1.14-1.04 2.265-2.075 3.387-3.106M251.363 260.488l-3.16 2.969 3.16-2.969M205.27 300.441c-1.137.872-2.262 1.735-3.387 2.59 1.125-.855 2.25-1.719 3.387-2.59M255.117 256.922c-1.02.969-2.054 1.957-3.105 2.945 1.05-.988 2.086-1.976 3.105-2.945M258.46 253.703c-.968.934-1.952 1.879-2.944 2.836.992-.957 1.976-1.902 2.945-2.836M268.523 243.86c-.847.835-1.714 1.699-2.601 2.574.887-.875 1.754-1.739 2.601-2.575M265.277 247.07c-.882.864-1.773 1.743-2.687 2.63.914-.887 1.805-1.766 2.687-2.63M287.898 224.05c-.351.376-.742.786-1.168 1.243.426-.457.825-.867 1.168-1.242M209.234 297.336c.258-.203.512-.406.766-.613l-.297.234c-.156.129-.312.254-.469.379M213.21 294.145c.423-.336.837-.68 1.259-1.024-.246.203-.492.399-.742.602-.172.14-.34.285-.516.422M219.031 289.355l1.153-.968c-.141.117-.286.234-.422.355-.25.203-.489.41-.73.613M210.684 296.176c.683-.543 1.363-1.086 2.039-1.64-.38.308-.766.616-1.145.921-.297.234-.59.484-.894.719M215.7 292.11c-.259.214-.52.425-.778.644 1.223-1.008 2.453-2.02 3.676-3.04-.29.243-.575.474-.864.708-.672.566-1.355 1.125-2.035 1.687M220.563 288.066a325.08 325.08 0 0 0 2.199-1.855c-.344.289-.692.582-1.035.875-.387.324-.774.656-1.165.98M232.11 278.102c.921-.813 1.835-1.633 2.753-2.446-.41.36-.828.735-1.242 1.102-.508.445-1.008.89-1.512 1.344M223.773 285.348l-.289.25a925.99 925.99 0 0 0 3.586-3.086l-1.418 1.218c-.625.536-1.25 1.079-1.879 1.618M276.781 235.566c-.71.723-1.449 1.461-2.207 2.235.758-.774 1.496-1.512 2.207-2.235M281.523 230.707c-.601.621-1.25 1.285-1.906 1.961.656-.676 1.305-1.34 1.906-1.961M283.422 228.746c-.55.566-1.129 1.16-1.73 1.79.601-.63 1.18-1.224 1.73-1.79M206.293 299.645c.953-.743 1.898-1.48 2.848-2.243-.614.496-1.235.973-1.856 1.461-.332.258-.66.524-.992.782M286.688 225.336c-.418.434-.868.91-1.356 1.414.488-.512.938-.98 1.356-1.414M198.41 305.621c.942-.691 1.88-1.398 2.824-2.11-.191.153-.382.29-.578.434-.75.563-1.5 1.121-2.246 1.676M197.367 306.39c.164-.12.324-.245.496-.367l-.172.13-.324.238M196.18 307.242c-.532.383-1.067.778-1.598 1.156.754-.535 1.508-1.078 2.262-1.628l.32-.235c-.328.242-.652.465-.984.707M193.668 309.043l-.309.223c.207-.145.41-.29.61-.434l-.301.211M192.906 309.59c-.289.2-.566.387-.847.586-.332.226-.668.469-1.008.703.617-.426 1.238-.856 1.855-1.29M230.688 194.672c.25-.008.503-.008.757-.012-.254.004-.507.004-.757.012M190.027 202.492c-.73.254-1.597.645-2.597 1.156.863-.398 1.722-.796 2.597-1.156M123.645 353.266l.078-.079-.078.079M119.457 344.832c-.14.066-.293.133-.43.2 23.75-41.677 15.649-69.032 16.68-89.188a56.161 56.161 0 0 1-.016-1.985c-32.207 4.485-73.859 7.864-90.492 30.262C18.125 320.598 33.25 346.5 33.25 346.5c.344.809.73 1.555 1.105 2.32a50.39 50.39 0 0 1-5.148-6.668c7.57 11.688 18.602 18.512 30.57 21.887a44.664 44.664 0 0 1-1.414-.578c20.844 4 46.399-1.7 61.094-18.629M131.656 345.066c-.605.653-1.226 1.309-1.86 1.973.634-.672 1.255-1.32 1.86-1.973M128.352 348.531l-1.465 1.5c.5-.504.976-1 1.465-1.5"/><path fill="#ead5c6" d="m24.754 333.8.047.106a57.322 57.322 0 0 0 1.972 4.117c.098.188.204.352.309.54a52.152 52.152 0 0 0 1.988 3.39l.137.2a50.39 50.39 0 0 0 5.148 6.667c-.375-.765-.761-1.511-1.105-2.32 0 0-15.125-25.902 11.95-62.379 16.632-22.398 58.284-25.777 90.491-30.262-.007.657 0 1.32.016 1.985.055 1.957.207 3.926.496 5.804 9.55-11.488 19.3-21.109 28.742-29.156 32.918-28.054 62.133-36.875 66.508-37.832-.262.004-.516.004-.766.012-11.62.066-25.449 1.41-40.66 7.812-.875.368-1.734.766-2.597 1.164a92.804 92.804 0 0 0-8.805 4.68c-8.406 5.024-16.367 11.356-24.766 18.488-3.863 3.278-7.816 6.72-11.957 10.278-.843.73-1.691 1.457-2.547 2.195-6.78 1.191-14.312 2.184-22.183 3.227-22.527 2.972-47.703 6.375-65.3 16.164-6.11 3.398-11.31 7.554-15.161 12.742-14.48 19.504-16.887 35.992-15.996 47.11.773 9.663 4.039 15.269 4.039 15.269"/><path fill="#ddbaa1" d="M184.129 315.496c-.867.559-1.73 1.094-2.594 1.633.863-.54 1.727-1.074 2.594-1.633M194.582 308.398c.531-.378 1.066-.773 1.598-1.156-.836.61-1.676 1.211-2.512 1.801l.3-.211.614-.434M191.05 310.879c.34-.234.677-.477 1.009-.703-.801.554-1.602 1.11-2.399 1.656.3-.21.598-.402.903-.61.164-.113.328-.226.488-.343M197.691 306.152l.172-.129c.184-.132.367-.27.547-.402a666.835 666.835 0 0 0-.719.531M201.734 303.145l.149-.114c1.125-.855 2.25-1.719 3.387-2.59l.394-.308a389.476 389.476 0 0 1-3.93 3.012M233.621 276.758c.414-.367.832-.742 1.242-1.102l.067-.058c-.442.39-.875.773-1.309 1.16M215.7 292.11c.679-.563 1.363-1.122 2.034-1.688-.672.566-1.355 1.125-2.035 1.687M219.762 288.742c.136-.12.281-.238.422-.355l.379-.32c.39-.325.777-.657 1.164-.981-.66.55-1.309 1.105-1.965 1.656M223.773 285.348c.63-.54 1.254-1.082 1.88-1.618-.626.536-1.25 1.082-1.88 1.618M211.578 295.457c.379-.305.766-.613 1.145-.922.16-.133.324-.258.488-.39.176-.137.344-.282.516-.422a209 209 0 0 1-2.149 1.734M207.285 298.863c.621-.488 1.242-.965 1.856-1.46l.093-.067c.157-.125.313-.25.47-.379a343.38 343.38 0 0 1-2.419 1.906M119.027 345.031c.137-.066.29-.133.43-.199a47.638 47.638 0 0 0 4.492-6.07c12.235-5.809 27.094-13.285 42.004-21.852 11.137-6.398 23.266-15.191 35.32-24.887-11.066 3.075-22.718 3.122-33.789-3.757-6.886-14.395-8.847-36.32-2.539-55.774-9.441 8.047-19.191 17.668-28.742 29.156-.289-1.878-.441-3.847-.496-5.804-1.031 20.156 7.07 47.511-16.68 89.187"/><path fill="#d6ab8c" d="m299.04 203.102-.005.046.004-.046M129.797 347.04c.633-.665 1.254-1.321 1.86-1.974-.606.653-1.227 1.301-1.86 1.973zm-2.91 2.991 1.465-1.5c-.489.5-.965.996-1.465 1.5zm169.008-137.418c2.09-8.164.945-17.015-4.797-24.543-.032-.039-1.668-1.254-4.407-3.218 5.282 12.144.329 26.605-9.304 35.93-8.512 9.007-42 43.796-76.114 71.241-12.054 9.696-24.183 18.489-35.32 24.887-14.91 8.567-29.77 16.043-42.004 21.852a47.638 47.638 0 0 1-4.492 6.07c-14.695 16.93-40.25 22.629-61.094 18.629.469.203.938.39 1.414.578 25.739 10.469 51.957.91 63.868-10.773l.078-.079c.433-.425.843-.835 1.265-1.265l2.692 1.918c-10.496 16.101-33.301 43.543-69.317 48.824-1.355.2-2.699.344-4.031.465 5.254 13.183 17.906 37.285 46.352 62.195 38.25 33.496 69.941 54.164 86.125 111.707.328-.215.652-.437.976-.656 2.106-1.371 4.2-2.7 6.285-3.977a241.804 241.804 0 0 1 12.383-7.066 218.253 218.253 0 0 1 6.07-3.105c2-.997 3.989-1.942 5.961-2.844 1.97-.91 3.914-1.774 5.844-2.598 1.93-.82 3.84-1.601 5.719-2.351 2.441-.961 4.832-1.856 7.183-2.696-20.386-20.918-38.933-26.66-45.89-29.285 5.363-8.277 24.734-4.523 41.906 2.07 27.645 4.832 41.938.887 48.047-1.949-.082-.367-.156-.765-.242-1.117-1.094-4.668-3.457-8.89-8.965-18.746-11.68 6.277-19.223 7.23-25.938 5.336-1.253-.348-2.441-1.016-3.554-1.89-6.82-5.337-5.031-15.466 3.086-20.165a145.614 145.614 0 0 0 14.738-9.738l-.078-.098-.305-.355-.21-.242c-.497-.555-.81-.872-.817-.872 0 0 .129-1.683.097-4.632-5.054 3.605-10.546 8.703-14.789 10.625-6.14 2.785-12.757 4.484-16.593.222-1.973-2.187-1.727-10.992.535-15.656 5.097-10.543 15.504-19.629 22.785-25.074-.465-.637-.762-.992-.762-.992-.336-3.075-.55-5.59-.781-7.934-5.883 4.836-12.516 10.402-19.71 20.875-5.454 7.934-18.966-11.484-8.65-24.894.098-.125 5.165-10.754 20.774-22.934a217.339 217.339 0 0 0-2.61-4.59c-12.167 8.172-21.519 16.844-32.12 41.508-4.989 11.605-61.454-80.16-61.454-80.16 13.68 8.832 31.77 21.265 40.868 24.797 13.62 5.293 25.07 9.492 39.742 4.91.605-.195 3.242-1.207 6.137-2.422 3-10.676 1.011-21.754 1.011-21.754-5.761.313-13.687.3-22.629-1.14-21.187-3.41-44.605-15.29-65.68-28.622a643.807 643.807 0 0 1-10.702 5.192c12.234-5.801 27.093-13.282 42.003-21.848a188.431 188.431 0 0 0 3.79-2.254c.417-.254.843-.523 1.265-.781.863-.54 1.727-1.074 2.594-1.633.504-.328 1.012-.656 1.512-.984.8-.524 1.609-1.055 2.418-1.594.527-.356 1.066-.727 1.601-1.086a672.82 672.82 0 0 0 2.399-1.656c.28-.2.558-.387.847-.586.153-.11.305-.215.453-.324l.309-.223c.836-.59 1.676-1.191 2.512-1.8.332-.243.656-.466.984-.708l.203-.144.324-.239c.985-.722 1.977-1.464 2.965-2.207.196-.144.387-.28.578-.433.172-.121.332-.246.5-.367 1.309-.989 2.625-2 3.93-3.012.211-.164.422-.324.629-.488.332-.258.66-.524.992-.782a343.38 343.38 0 0 0 2.418-1.906l.297-.234c.227-.18.457-.36.684-.547.304-.235.597-.485.894-.719a209 209 0 0 0 2.149-1.734c.25-.203.496-.399.742-.602.152-.121.3-.246.453-.367.258-.219.52-.43.777-.645.68-.562 1.363-1.12 2.035-1.687.29-.235.575-.465.864-.707.144-.117.289-.238.433-.36.242-.203.48-.41.73-.613.657-.55 1.305-1.105 1.966-1.656.343-.293.691-.586 1.035-.875.242-.207.48-.41.722-.613l.29-.25c.628-.536 1.253-1.082 1.878-1.618l1.418-1.218c.258-.223.52-.453.785-.676 1.18-1.027 2.36-2.066 3.536-3.102.242-.21.476-.421.718-.632.504-.454 1.004-.899 1.512-1.344l1.3-1.156c.255-.23.513-.457.767-.68a532.14 532.14 0 0 0 3.79-3.43c.194-.172.385-.344.573-.515 1.14-1.04 2.265-2.075 3.387-3.106.253-.226.507-.46.753-.691 1.09-1.008 2.168-2.008 3.235-3 .262-.243.52-.48.777-.723l3.16-2.969c.215-.21.434-.418.649-.62 1.05-.99 2.086-1.977 3.105-2.946l.399-.383c.992-.957 1.976-1.902 2.945-2.836.191-.18.379-.367.57-.547.973-.933 1.926-1.863 2.86-2.777.234-.223.468-.453.699-.68.914-.887 1.805-1.765 2.687-2.629.215-.215.426-.425.645-.636.887-.875 1.754-1.739 2.601-2.575l.508-.504c.824-.82 1.633-1.628 2.41-2.41l.293-.289c.832-.84 1.641-1.652 2.43-2.441l.41-.414c.758-.774 1.496-1.512 2.207-2.235.149-.16.301-.308.446-.46a443.9 443.9 0 0 0 2.023-2.067l.367-.371c.656-.676 1.305-1.34 1.906-1.961l.168-.172c.602-.629 1.18-1.222 1.73-1.789l.138-.152c.543-.559 1.05-1.082 1.53-1.582l.243-.262c.488-.504.938-.98 1.356-1.414.468-.5.859-.91 1.21-1.285 5.707-5.524 9.75-12.824 11.036-20.38-.641 3.02-1.707 6.02-3.04 8.942"/><path fill="#ead5c6" d="m114.176 128.645-3.946-.524c-8.289 4.453-11.937 10.098-13.003 15.824 2.003-3.75 5.468-7.304 11.066-10.312 0 0 118.789 15.527 133.613 22.953 15.524 7.785 35.946 21.941 44.785 28.266 2.739 1.964 4.375 3.18 4.407 3.218 5.742 7.528 6.886 16.38 4.797 24.543 1.332-2.922 2.398-5.922 3.039-8.941.035-.176.066-.348.101-.524 1.29-6.668.453-13.367-4.305-19.617-.105-.133-21.855-15.945-40.855-26.988-3.488-2.023-6.883-3.89-10.027-5.465-.7-.355-1.621-.715-2.75-1.094-.75-.261-1.594-.52-2.524-.785-1.855-.535-4.054-1.094-6.531-1.672a274.89 274.89 0 0 0-8.234-1.777c-.746-.156-1.512-.309-2.282-.465-10.605-2.101-23.726-4.332-37.195-6.469-17.945-2.851-36.504-5.53-50.57-7.496-8.614-1.199-15.535-2.132-19.586-2.675"/><path fill="#242424" d="M153.238 615.46c.032.47.043.954.078 1.419.02.336.059.656.086.984a95.286 95.286 0 0 1-.164-2.402M157.672 599.684l-.95.867.95-.867M161.016 596.715c.183-.156.363-.32.543-.477-.18.157-.36.32-.543.477M152.953 609.957c.027.613.055 1.223.078 1.828-.023-.605-.05-1.215-.078-1.828"/><path fill="#3a3c3b" d="M160.27 623.523a246.53 246.53 0 0 1 29.746-24.273c33.066-22.922 64.84-32.68 85.964-36.832-12.574 14.324-20.562 23.52-20.562 23.52s-36.797 44.742-26.77 87.085c.325.309.645.622.977.926 51.191-81.855 103.613-160.992 128.316-187.672a1942.16 1942.16 0 0 1 15.047 13.52 2602.401 2602.401 0 0 0-13.07-11.762c-2.508-2.234-4.606-4.09-6.23-5.531-2.442-2.149-3.817-3.348-3.817-3.348-18.863 20.946-38.164 42.7-54.367 61.067-.168.195-.332.375-.5.566-.129.145-.254.29-.387.434l-.469-1.235s-7.105-.011-18.906 1.88c-.191.03-.39.066-.582.097-2.308.379-4.785.824-7.43 1.363-.687.137-1.386.29-2.097.438a213.948 213.948 0 0 0-13.309 3.3l-1.254.364c-1.414.41-2.855.836-4.312 1.293-.863.261-1.723.539-2.598.82-1.742.562-3.52 1.164-5.32 1.797-.367.133-.735.265-1.11.398-2.351.84-4.742 1.735-7.183 2.696-1.879.75-3.79 1.53-5.719 2.351-1.93.824-3.875 1.688-5.844 2.598-1.972.902-3.96 1.847-5.96 2.844a218.253 218.253 0 0 0-6.07 3.105 241.804 241.804 0 0 0-12.384 7.066 268.074 268.074 0 0 0-6.285 3.977c-.324.219-.648.441-.976.656a244.052 244.052 0 0 0-25.25 19.207c-.18.157-.36.32-.543.477a373.28 373.28 0 0 0-3.344 2.969l-.95.867c-.277.246-.55.496-.827.746a230.55 230.55 0 0 0-3.047 2.863c-.008 1.992.039 3.903.105 5.797.027.613.055 1.223.078 1.828.055 1.238.121 2.465.207 3.676.047.8.098 1.613.164 2.402.047.61.106 1.207.157 1.809 1.699 18.91 6.242 34.223 12.375 46.582-3.465-12.086-5.575-26.215-5.664-42.73"/></svg>