<svg xmlns="http://www.w3.org/2000/svg" width="125" viewBox="0 0 93.75 93.75" height="125" version="1.0"><defs><clipPath id="a"><path d="M55.625 18.324H93.5v56.989H55.625zm0 0"/></clipPath></defs><path fill="#fff" d="m75.137 67.66-.028-.129a23.362 23.362 0 0 0-.175-.789c-.051-.203-.102-.406-.168-.652-.07-.262-.141-.524-.215-.781-.059-.2-.121-.395-.2-.641-.081-.254-.163-.512-.25-.766-.074-.21-.148-.414-.226-.62a43.01 43.01 0 0 0-.285-.755 41.614 41.614 0 0 0-.574-1.34c-.09-.199-.184-.39-.278-.59-.117-.238-.234-.48-.36-.714-.097-.196-.198-.383-.3-.574a24.181 24.181 0 0 0-.387-.696c-.109-.187-.218-.37-.328-.554-.136-.23-.277-.454-.422-.676a24.179 24.179 0 0 0-.8-1.191 24.337 24.337 0 0 0-.855-1.148 24.643 24.643 0 0 0-.903-1.106c-.137-.16-.278-.32-.418-.477-.176-.195-.356-.39-.531-.582-.149-.152-.293-.305-.442-.457a18.701 18.701 0 0 0-.562-.55c-.149-.15-.301-.298-.457-.438-.164-.153-.328-.297-.493-.446l-.707-.625 9.907-12.832.812.707c9.922 8.64 15.817 21.25 16.172 34.594l.027 1.04H76.805l-.98-.056-.044-1.086c-.008-.175-.02-.351-.031-.527l-.023-.305a14.173 14.173 0 0 0-.051-.703c-.016-.175-.04-.351-.059-.53l-.027-.22a23.624 23.624 0 0 0-.09-.757l-.082-.512-.035-.2c-.04-.257-.082-.519-.133-.777-.035-.18-.074-.36-.113-.539"/><path fill="#25265a" d="m76.633 73.023.219.012h13.98l-.004-.18c-.348-13.109-6.14-25.5-15.887-33.988l-.14-.12-8.887 11.507.121.11c.172.152.34.3.508.456.16.145.312.297.473.45.191.187.382.375.574.566.152.156.3.312.45.469a26.238 26.238 0 0 1 .98 1.09c.175.203.351.41.523.62.137.172.273.34.406.512a25.734 25.734 0 0 1 .875 1.18c.16.223.313.445.465.676.121.18.242.363.36.55.148.227.288.458.433.692.113.191.227.379.336.57.137.239.266.477.398.72a32.487 32.487 0 0 1 .96 1.93c.115.245.224.499.333.753a22.637 22.637 0 0 1 .55 1.395c.08.21.161.421.236.636.09.262.171.523.257.789.078.25.141.45.2.652.074.243.136.485.203.727l.039.148c.058.223.11.41.152.602.063.246.117.5.172.758l.039.175v.008l.023.106.094.449c.051.266.094.535.137.8l.031.196c.035.191.063.36.086.531.035.243.063.485.09.73l.031.27c.024.18.043.364.063.551.02.238.039.484.05.727l.024.297c.012.18.023.363.031.546zm15.058 1.684H76.805l-1.024-.055a.839.839 0 0 1-.793-.8l-.043-1.09c-.007-.164-.02-.332-.03-.5l-.02-.305c-.016-.23-.032-.457-.055-.684-.016-.171-.035-.34-.055-.511l-.023-.219c-.035-.281-.063-.512-.094-.738-.023-.157-.047-.313-.074-.473l-.035-.219c-.043-.254-.082-.508-.133-.754a7.193 7.193 0 0 0-.086-.418l-.05-.234-.009-.055c-.054-.238-.105-.476-.164-.715-.043-.18-.09-.355-.144-.566l-.04-.144a19.552 19.552 0 0 0-.378-1.305c-.082-.25-.16-.5-.246-.746-.07-.203-.145-.406-.22-.606a28.015 28.015 0 0 0-.523-1.32 30.24 30.24 0 0 0-.312-.715c-.09-.195-.18-.383-.27-.574l-.347-.7-.297-.554a29.367 29.367 0 0 0-.375-.68 24.2 24.2 0 0 0-.32-.535c-.133-.226-.27-.445-.407-.66-.113-.176-.226-.352-.343-.523-.141-.215-.29-.426-.438-.637-.121-.168-.238-.336-.363-.504-.153-.207-.309-.41-.469-.613-.125-.164-.254-.325-.383-.485a38.852 38.852 0 0 0-.902-1.054 44.818 44.818 0 0 0-.945-1.008 35.074 35.074 0 0 0-.993-.961c-.16-.149-.316-.293-.48-.434l-.707-.625a.836.836 0 0 1-.106-1.136l9.907-12.832a.85.85 0 0 1 .582-.32c.23-.02.46.05.632.202l.813.707C86.145 46.402 92.141 59.234 92.5 72.812l.027 1.04a.84.84 0 0 1-.234.605.848.848 0 0 1-.602.25"/><path fill="#fff" d="M1.129 72.832C1.477 59.719 7.21 47.25 16.855 38.629l.81-.723 9.944 12.778-.683.629a30.706 30.706 0 0 0-3.809 4.207.254.254 0 0 0-.05.195.26.26 0 0 0 .105.176.272.272 0 0 0 .2.054.269.269 0 0 0 .175-.11 30.004 30.004 0 0 1 4.555-4.855l.093-.074a28.417 28.417 0 0 1 14.278-6.402l.27-.04c.234-.03.476-.054.71-.081l.086-.008c.27-.027.535-.05.844-.074.18-.012.363-.028.547-.035.484-.028.976-.043 1.465-.043 15.503 0 28.175 12.558 28.851 28.593l.043 1.055H57.785l-.09-.914c-.582-6.023-5.441-10.57-11.297-10.57-3.718 0-7.21 1.898-9.34 5.078l-.523.781-22.61-12.8a.244.244 0 0 0-.202-.024.25.25 0 0 0-.164.125.267.267 0 0 0 .101.363l22.625 12.813-.34.824a11.84 11.84 0 0 0-.847 3.41l-.09.914H17.5l.043-1.055c.129-3.129.73-6.199 1.781-9.12a.257.257 0 0 0-.012-.208.244.244 0 0 0-.152-.136.271.271 0 0 0-.344.16 31.332 31.332 0 0 0-1.812 9.386l-.04.973H1.103l.027-1.039"/><path fill="#84d393" d="M23.383 55.313a.258.258 0 0 0-.047.199c0 .023.012.05.023.078a19.28 19.28 0 0 0-2.57 3.387l-6.598-3.735a.264.264 0 0 0-.363.098.27.27 0 0 0 .102.367l6.59 3.73c-2.415 4.235-3.54 9.426-3.493 14.231H1.367l.028-1.04c.351-13.116 6.082-25.581 15.726-34.202l.813-.723 9.945 12.774-.688.628a30.706 30.706 0 0 0-3.808 4.208"/><path fill="#fff" d="M46.398 62.926c5.438 0 10.051 4.219 10.727 9.812l.137 1.133h-21.73l.136-1.133c.676-5.593 5.289-9.812 10.73-9.812"/><path fill="#25265a" d="M36.477 73.035h19.84l-.024-.195c-.625-5.176-4.879-9.078-9.895-9.078-5.015 0-9.273 3.902-9.898 9.078zm20.785 1.672h-21.73a.84.84 0 0 1-.832-.938l.136-1.128c.73-6.016 5.7-10.551 11.562-10.551 5.86 0 10.832 4.535 11.559 10.55l.137 1.13a.838.838 0 0 1-.832.937"/><path fill="#f9e04f" d="M18.86 36.941c7.976-6.351 17.5-9.707 27.535-9.707 9.832 0 19.195 3.23 27.074 9.336l.797.617-9.907 12.833-.8-.598c-.07-.055-.145-.106-.215-.156l-.23-.164c-.153-.11-.301-.22-.458-.325a23.594 23.594 0 0 0-.652-.433l-.113-.074c-.141-.09-.278-.184-.422-.27-.219-.137-.446-.27-.672-.398l-.125-.075c-.14-.082-.281-.164-.426-.246-.207-.117-.422-.226-.691-.367l-.14-.074c-.142-.074-.282-.145-.427-.215-.191-.098-.383-.184-.578-.273l-.289-.133a13.836 13.836 0 0 0-1.023-.438l-.285-.117c-.145-.059-.29-.117-.434-.172a37.769 37.769 0 0 0-.61-.215l-.331-.113c-.137-.047-.274-.094-.41-.137-.2-.066-.4-.12-.602-.18l-.375-.109c-.137-.039-.266-.078-.403-.113-.207-.055-.414-.102-.625-.152l-.398-.094a6.053 6.053 0 0 0-.383-.086c-.21-.047-.426-.082-.64-.121l-.426-.078a6.311 6.311 0 0 0-.36-.063c-.238-.039-.48-.066-.718-.097l-.407-.051c-.109-.016-.218-.031-.328-.043-.293-.031-.59-.05-.886-.07l-.32-.024a6.552 6.552 0 0 0-.266-.02c-.989-.05-1.993-.05-2.989.004-.16.008-.316.02-.476.032l-.125.008c-.27.02-.543.042-.813.074-.273.027-.547.054-.816.09l-.258.039a28.69 28.69 0 0 0-13.598 5.738l-.796.621-9.942-12.77.781-.62"/><path fill="#25265a" d="M76 74.98H17.7a.838.838 0 0 1-.84-.835c0-.461.374-.836.84-.836H76a.837.837 0 0 1 0 1.671"/><path fill="#25265a" d="M91.945 74.98H75.543a.838.838 0 0 1-.84-.835c0-16.184-12.7-29.348-28.312-29.348-6.496 0-12.84 2.336-17.868 6.578a.837.837 0 1 1-1.082-1.277c5.329-4.496 12.059-6.977 18.95-6.977 16.265 0 29.547 13.469 29.976 30.188h14.735c-.434-25.164-20.325-45.5-44.711-45.5-24.387 0-44.278 20.336-44.707 45.5h15.558a.837.837 0 0 1 0 1.671H.836A.837.837 0 0 1 0 74.145c0-26.473 20.813-48.008 46.39-48.008 25.583 0 46.391 21.535 46.391 48.008 0 .46-.375.835-.836.835"/><path fill="#fff" d="M27.879 50.602 17.687 37.516 27.88 50.602"/><path fill="#25265a" d="M27.879 51.438a.85.85 0 0 1-.664-.325L17.027 38.027A.839.839 0 0 1 18.351 37L28.54 50.09a.837.837 0 0 1-.66 1.348"/><path fill="#fff" d="M74.695 37.07 64.45 50.34l10.246-13.27"/><path fill="#25265a" d="M64.45 51.176a.833.833 0 0 1-.513-.172.839.839 0 0 1-.152-1.176l10.246-13.266a.839.839 0 0 1 1.176-.152.835.835 0 0 1 .152 1.172l-10.246 13.27a.843.843 0 0 1-.664.324"/><path fill="#fff" d="M19.066 63.61a31.078 31.078 0 0 0-1.824 10.535l1.824-10.536"/><path fill="#25265a" d="M17.242 74.98a.838.838 0 0 1-.84-.835c0-3.72.633-7.36 1.875-10.817a.838.838 0 0 1 1.578.563 30.183 30.183 0 0 0-1.777 10.254c0 .46-.375.835-.836.835M75.543 74.98a.838.838 0 0 1-.84-.835c0-16.184-12.7-29.348-28.312-29.348-8.82 0-16.98 4.148-22.391 11.387a.836.836 0 0 1-1.172.168.831.831 0 0 1-.172-1.168c5.727-7.664 14.38-12.063 23.735-12.063 16.535 0 29.988 13.918 29.988 31.024 0 .46-.375.835-.836.835"/><path fill="#f89e7c" d="M46.39 62.66c-6.124 0-11.09 5.145-11.09 11.485h22.18c0-6.34-4.964-11.485-11.09-11.485"/><path fill="#25265a" d="M36.172 73.309h20.441c-.414-5.48-4.84-9.813-10.222-9.813-5.383 0-9.809 4.332-10.22 9.813zM57.48 74.98H35.3a.837.837 0 0 1-.835-.835c0-6.793 5.347-12.32 11.926-12.32 6.578 0 11.93 5.527 11.93 12.32a.84.84 0 0 1-.84.835"/><path fill="#f89e7c" d="M36.656 71.41c.969 0 1.91-.508 2.422-1.406a2.77 2.77 0 0 0-1.047-3.781L15.161 53.27a2.786 2.786 0 0 0-3.79 1.046 2.77 2.77 0 0 0 1.047 3.782l22.871 12.949c.434.246.902.363 1.367.363"/><path fill="#25265a" d="M13.793 53.746c-.676 0-1.336.356-1.695.98-.528.93-.2 2.118.73 2.645l22.875 12.95c.29.163.621.253.953.253.7 0 1.348-.379 1.692-.984a1.933 1.933 0 0 0-.73-2.64L14.745 54a1.916 1.916 0 0 0-.953-.254zm22.863 18.5a3.616 3.616 0 0 1-1.781-.473L12.004 58.824a3.613 3.613 0 0 1-1.363-4.922 3.63 3.63 0 0 1 4.933-1.359l22.871 12.953a3.606 3.606 0 0 1 1.36 4.922 3.627 3.627 0 0 1-3.149 1.828"/><path fill="#fff" d="M81.086 74.477h-19.79c-2.651 0-4.82-2.215-4.82-4.926V24.078c0-2.71 2.169-4.926 4.82-4.926h26.798c2.652 0 4.816 2.215 4.816 4.926v44.57a5.833 5.833 0 0 1-5.84 5.829h-5.984"/><g clip-path="url(#a)"><path fill="#25265a" d="M61.297 19.988c-2.195 0-3.98 1.836-3.98 4.09v45.473c0 2.258 1.785 4.09 3.98 4.09H87.07c2.758 0 5.004-2.239 5.004-4.993v-44.57c0-2.254-1.785-4.09-3.98-4.09zM87.07 75.313H61.297c-3.121 0-5.656-2.583-5.656-5.762V24.078c0-3.176 2.535-5.762 5.656-5.762h26.797c3.117 0 5.656 2.586 5.656 5.762v44.57c0 3.676-2.996 6.665-6.68 6.665"/></g><path fill="#f9e04f" d="M81.203 45.133v-.043a1.69 1.69 0 0 1 1.688-1.684h5.136c.926 0 1.688.758 1.688 1.684v.043c0 .926-.762 1.68-1.688 1.68h-5.136c-.93 0-1.688-.754-1.688-1.68"/><path fill="#25265a" d="M82.89 44.242a.85.85 0 0 0-.85.848v.043c0 .465.382.847.85.847h5.137a.852.852 0 0 0 .848-.847c0-.512-.383-.89-.848-.89zm5.137 3.41h-5.136a2.527 2.527 0 0 1-2.528-2.52v-.042c0-1.39 1.133-2.52 2.528-2.52h5.136a2.524 2.524 0 0 1 2.524 2.52c0 1.43-1.133 2.562-2.524 2.562"/><path fill="#fff" d="M59.977 36.695c0 1.078.875 1.953 1.957 1.953h25.933c.852 0 1.543-.707 1.543-1.578V25.7c0-.876-.691-1.583-1.543-1.583H61.523c-.855 0-1.546.707-1.546 1.582v10.996"/><path fill="#25265a" d="M61.523 24.953c-.39 0-.71.336-.71.746v10.996a1.12 1.12 0 0 0 1.12 1.117h25.934c.387 0 .707-.332.707-.742V25.7c0-.41-.32-.747-.707-.747zm26.344 14.531H61.934a2.797 2.797 0 0 1-2.797-2.789V25.7c0-1.336 1.07-2.418 2.386-2.418h26.344c1.313 0 2.383 1.082 2.383 2.418V37.07c0 1.332-1.07 2.414-2.383 2.414"/><path fill="#25265a" d="M63.688 35.992a.838.838 0 0 1-.84-.836V27.68a.838.838 0 0 1 1.675 0v7.476c0 .461-.375.836-.835.836"/><path fill="#25265a" d="m67.668 27.79-3.98 4.148 3.98-4.149"/><path fill="#25265a" d="M63.684 32.773a.836.836 0 0 1-.602-1.414l3.98-4.148a.835.835 0 0 1 1.184-.027c.336.32.348.847.027 1.183l-3.984 4.149a.846.846 0 0 1-.605.257"/><path fill="#25265a" d="m68.285 34.95-3.336-4.247 3.336 4.246"/><path fill="#25265a" d="M68.285 35.79a.844.844 0 0 1-.66-.321l-3.336-4.25a.833.833 0 0 1 .14-1.172.842.842 0 0 1 1.18.14l3.336 4.247a.839.839 0 0 1-.66 1.355M72.453 35.922h-.191c-1.758 0-3.184-1.45-3.184-3.234v-2.676c0-1.785 1.426-3.239 3.184-3.239h.191a3.18 3.18 0 0 1 2.594 1.364.835.835 0 0 1-.203 1.164.84.84 0 0 1-1.168-.207 1.508 1.508 0 0 0-1.223-.645h-.191c-.832 0-1.508.7-1.508 1.563v2.675c0 .864.676 1.563 1.508 1.563h.191c.496 0 .965-.254 1.246-.684a.839.839 0 0 1 1.16-.238.834.834 0 0 1 .239 1.16 3.167 3.167 0 0 1-2.645 1.434M78.543 27.75l-2.395 7.406 2.395-7.406M76.148 35.992a.87.87 0 0 1-.257-.043.836.836 0 0 1-.54-1.05l2.395-7.407a.838.838 0 0 1 1.055-.539.83.83 0 0 1 .539 1.05l-2.39 7.411a.845.845 0 0 1-.802.578M78.695 27.75l2.39 7.406-2.39-7.406"/><path fill="#25265a" d="M81.09 35.992a.845.845 0 0 1-.8-.578l-2.395-7.41a.838.838 0 0 1 1.598-.512l2.394 7.406a.836.836 0 0 1-.54 1.051.87.87 0 0 1-.257.043"/><path fill="#25265a" d="M80.008 32.96h-2.88a.837.837 0 0 1 0-1.67h2.88a.837.837 0 0 1 0 1.67M83.328 35.922a.838.838 0 0 1-.84-.836v-7.27a.838.838 0 0 1 1.676 0v7.27c0 .46-.375.836-.836.836"/><path fill="#25265a" d="M86.8 35.922h-3.472a.838.838 0 0 1-.84-.836c0-.461.375-.836.84-.836h3.473c.465 0 .84.375.84.836 0 .46-.375.836-.84.836"/><path fill="#f89e7c" d="M67.895 55.14c0 1.973-1.563 3.575-3.493 3.575s-3.492-1.602-3.492-3.574c0-1.97 1.563-3.57 3.492-3.57 1.93 0 3.493 1.6 3.493 3.57"/><path fill="#25265a" d="M64.402 52.406c-1.465 0-2.656 1.227-2.656 2.735 0 1.511 1.191 2.738 2.656 2.738s2.653-1.227 2.653-2.738c0-1.508-1.188-2.735-2.653-2.735zm0 7.145c-2.386 0-4.332-1.977-4.332-4.41 0-2.43 1.946-4.407 4.332-4.407 2.387 0 4.328 1.977 4.328 4.407 0 2.433-1.94 4.41-4.328 4.41"/><path fill="#f89e7c" d="M78.254 55.14c0 1.973-1.563 3.575-3.492 3.575-1.926 0-3.492-1.602-3.492-3.574 0-1.97 1.566-3.57 3.492-3.57 1.93 0 3.492 1.6 3.492 3.57"/><path fill="#25265a" d="M74.762 52.406c-1.461 0-2.653 1.227-2.653 2.735 0 1.511 1.192 2.738 2.653 2.738 1.465 0 2.656-1.227 2.656-2.738 0-1.508-1.191-2.735-2.656-2.735zm0 7.145c-2.387 0-4.328-1.977-4.328-4.41 0-2.43 1.941-4.407 4.328-4.407 2.39 0 4.332 1.977 4.332 4.407 0 2.433-1.942 4.41-4.332 4.41"/><path fill="#f89e7c" d="M67.895 65.406c0 1.973-1.563 3.574-3.493 3.574s-3.492-1.601-3.492-3.574c0-1.972 1.563-3.57 3.492-3.57 1.93 0 3.493 1.598 3.493 3.57"/><path fill="#25265a" d="M64.402 62.672c-1.465 0-2.656 1.226-2.656 2.734s1.191 2.739 2.656 2.739 2.653-1.23 2.653-2.739c0-1.508-1.188-2.734-2.653-2.734zm0 7.144c-2.386 0-4.332-1.976-4.332-4.41 0-2.43 1.946-4.406 4.332-4.406 2.387 0 4.328 1.977 4.328 4.406 0 2.434-1.94 4.41-4.328 4.41"/><path fill="#f89e7c" d="M78.254 65.406c0 1.973-1.563 3.574-3.492 3.574-1.926 0-3.492-1.601-3.492-3.574 0-1.972 1.566-3.57 3.492-3.57 1.93 0 3.492 1.598 3.492 3.57"/><path fill="#25265a" d="M74.762 62.672c-1.461 0-2.653 1.226-2.653 2.734s1.192 2.739 2.653 2.739c1.465 0 2.656-1.23 2.656-2.739 0-1.508-1.191-2.734-2.656-2.734zm0 7.144c-2.387 0-4.328-1.976-4.328-4.41 0-2.43 1.941-4.406 4.328-4.406 2.39 0 4.332 1.977 4.332 4.406 0 2.434-1.942 4.41-4.332 4.41"/><path fill="#f9e04f" d="M60.074 45.133v-.043a1.69 1.69 0 0 1 1.688-1.684h5.133c.93 0 1.687.758 1.687 1.684v.043c0 .926-.758 1.68-1.687 1.68h-5.133c-.93 0-1.688-.754-1.688-1.68"/><path fill="#25265a" d="M61.762 44.242a.85.85 0 0 0-.852.848v.043c0 .465.383.847.852.847h5.133a.853.853 0 0 0 .851-.847c0-.512-.383-.89-.851-.89zm5.133 3.41h-5.133a2.527 2.527 0 0 1-2.528-2.52v-.042c0-1.39 1.133-2.52 2.528-2.52h5.133a2.525 2.525 0 0 1 2.527 2.52c0 1.43-1.133 2.562-2.527 2.562"/><path fill="#f9e04f" d="M70.648 45.133v-.043a1.69 1.69 0 0 1 1.688-1.684h5.137c.925 0 1.687.758 1.687 1.684v.043c0 .926-.762 1.683-1.687 1.683h-5.137a1.69 1.69 0 0 1-1.688-1.683"/><path fill="#25265a" d="M72.336 44.242a.85.85 0 0 0-.852.848v.043c0 .465.383.847.852.847h5.137a.85.85 0 0 0 .847-.847c0-.512-.379-.89-.847-.89zm5.137 3.41h-5.137a2.53 2.53 0 0 1-2.527-2.52v-.042c0-1.39 1.136-2.52 2.527-2.52h5.137a2.524 2.524 0 0 1 2.523 2.52c0 1.43-1.133 2.562-2.523 2.562"/><path fill="#f89e7c" d="M85.363 68.98a3.573 3.573 0 0 1-3.562-3.558V55.125c0-1.953 1.605-3.555 3.562-3.555a3.57 3.57 0 0 1 3.563 3.555v10.297a3.57 3.57 0 0 1-3.563 3.558"/><path fill="#25265a" d="M85.363 52.406a2.727 2.727 0 0 0-2.722 2.719v10.297c0 1.5 1.222 2.723 2.722 2.723a2.728 2.728 0 0 0 2.727-2.723V55.125a2.727 2.727 0 0 0-2.727-2.719zm0 17.41a4.402 4.402 0 0 1-4.398-4.394V55.125a4.401 4.401 0 0 1 8.8 0v10.297a4.405 4.405 0 0 1-4.402 4.394"/></svg>