<svg xmlns="http://www.w3.org/2000/svg" width="125" viewBox="0 0 93.75 93.75" height="125" version="1.0"><defs><clipPath id="a"><path d="M1.457 1.418h91.5v91.5h-91.5zm0 0"/></clipPath><clipPath id="b"><path d="M60.785 27.027H90V48H60.785zm0 0"/></clipPath><clipPath id="c"><path d="M60.785 27.027H90v21H60.785zm0 0"/></clipPath></defs><g clip-path="url(#a)"><path fill="#f5bc1a" d="M92.996 47.195c0 1.496-.074 2.992-.223 4.485a44.752 44.752 0 0 1-.66 4.441 45.202 45.202 0 0 1-1.09 4.356 45.895 45.895 0 0 1-5.742 12.14 45.292 45.292 0 0 1-2.676 3.606 44.22 44.22 0 0 1-3.015 3.328 46.745 46.745 0 0 1-3.324 3.015A45.633 45.633 0 0 1 60.52 90.98a45.221 45.221 0 0 1-8.801 1.75 45.177 45.177 0 0 1-8.969 0 45.221 45.221 0 0 1-8.797-1.75 45.789 45.789 0 0 1-12.14-5.738 45.968 45.968 0 0 1-6.934-5.691 45.077 45.077 0 0 1-3.016-3.328 45.292 45.292 0 0 1-2.675-3.606 46.263 46.263 0 0 1-2.31-3.851 44.784 44.784 0 0 1-1.917-4.063 46.109 46.109 0 0 1-1.516-4.226 45.931 45.931 0 0 1-1.75-8.797 46.51 46.51 0 0 1-.218-4.485c0-1.5.074-2.996.218-4.488a46.112 46.112 0 0 1 1.75-8.797 46.109 46.109 0 0 1 1.516-4.226 44.784 44.784 0 0 1 1.918-4.063 46.263 46.263 0 0 1 2.309-3.851 45.883 45.883 0 0 1 9.02-9.95c1.155-.949 2.358-1.84 3.605-2.675a46.263 46.263 0 0 1 3.851-2.31 46.916 46.916 0 0 1 4.059-1.917 45.422 45.422 0 0 1 4.23-1.512 45.221 45.221 0 0 1 8.797-1.75 45.294 45.294 0 0 1 8.969 0 44.988 44.988 0 0 1 8.8 1.75 44.95 44.95 0 0 1 4.227 1.512 45.633 45.633 0 0 1 11.52 6.902 46.745 46.745 0 0 1 3.324 3.016 44.996 44.996 0 0 1 3.015 3.328 45.292 45.292 0 0 1 2.676 3.606 45.895 45.895 0 0 1 5.742 12.14c.434 1.434.801 2.887 1.09 4.356.293 1.468.516 2.953.66 4.441.149 1.492.223 2.988.223 4.488zm0 0"/></g><path fill="#b39ddb" d="M47.563 28.688v-.004.003zm-16.04 2.8h14.88a2.453 2.453 0 0 0 2.449-2.449v-5.152a2.45 2.45 0 0 0-2.45-2.45h-3.164a4.249 4.249 0 0 0-1.18-2.476 4.268 4.268 0 0 0-3.097-1.316 4.28 4.28 0 0 0-3.098 1.316 4.278 4.278 0 0 0-1.175 2.477h-3.165a2.45 2.45 0 0 0-2.449 2.449v5.152a2.457 2.457 0 0 0 2.45 2.45zm14.223-4.383H32.18a.645.645 0 1 1-.004-1.29l13.57.001a.645.645 0 0 1 0 1.29zm0 0" fill-rule="evenodd"/><path d="M59.23 56.39a.645.645 0 0 1-.644-.644V26.762c0-.856-.695-1.551-1.555-1.551h-8.824a.645.645 0 0 1 0-1.29h8.824a2.843 2.843 0 0 1 2.844 2.84v28.985c0 .356-.29.645-.645.645zm-2.199 20.352h-36.14a2.85 2.85 0 0 1-2.844-2.844V26.762a2.846 2.846 0 0 1 2.844-2.84h8.828a.645.645 0 0 1 0 1.289H20.89c-.856 0-1.551.695-1.551 1.55v47.137c0 .856.695 1.551 1.55 1.551h36.141a1.56 1.56 0 0 0 1.453-1.008c.13-.336.5-.5.832-.375a.642.642 0 0 1 .38.829 2.865 2.865 0 0 1-2.665 1.847zm0 0" fill-rule="evenodd"/><path d="M55.11 59.238a.643.643 0 0 1-.645-.644V29.332h-6.258a.646.646 0 0 1-.648-.645.649.649 0 0 1 .648-.644h6.902c.356 0 .645.289.645.645v29.906c0 .355-.29.644-.645.644zm0 13.38H22.815a.645.645 0 0 1-.644-.645V28.688c0-.356.289-.645.644-.645h6.903a.645.645 0 0 1 0 1.289H23.46v41.996h31.004v-2.582a.645.645 0 0 1 1.29 0l-.001 3.227c0 .355-.29.644-.645.644zm0 0" fill-rule="evenodd"/><path d="M31.523 22.727c-.64 0-1.16.52-1.16 1.16v5.152c0 .637.52 1.156 1.16 1.156h14.88c.636 0 1.16-.52 1.16-1.156v-5.152c0-.64-.524-1.16-1.16-1.16H42.62a.635.635 0 0 1-.465-.2.632.632 0 0 1-.18-.468 3.016 3.016 0 0 0-.843-2.204 2.99 2.99 0 0 0-2.172-.918c-.824 0-1.594.325-2.168.918a2.985 2.985 0 0 0-.844 2.204.651.651 0 0 1-.644.668zm14.88 8.761h-14.88a2.453 2.453 0 0 1-2.449-2.449v-5.152a2.45 2.45 0 0 1 2.45-2.45h3.163c.11-.93.516-1.789 1.176-2.476a4.28 4.28 0 0 1 3.098-1.316c1.18 0 2.281.468 3.098 1.316a4.249 4.249 0 0 1 1.18 2.477h3.163a2.45 2.45 0 0 1 2.45 2.449v5.152a2.453 2.453 0 0 1-2.45 2.45zm0 0" fill-rule="evenodd"/><path d="M45.746 27.105H32.18a.645.645 0 1 1-.004-1.29l13.57.001a.645.645 0 0 1 0 1.29zM30.063 37.82zm-3.348 3.223h3.226V37.82h-3.226zm3.348 1.293h-3.47a1.17 1.17 0 0 1-1.167-1.172V37.7c0-.644.523-1.172 1.168-1.172h3.468c.641 0 1.168.528 1.168 1.172v3.465c0 .648-.527 1.172-1.168 1.172zM30.063 45.8zm-3.348 3.227h3.226v-3.226h-3.226zm3.348 1.29h-3.47a1.169 1.169 0 0 1-1.167-1.169V45.68c0-.645.523-1.168 1.168-1.168h3.468c.641 0 1.168.523 1.168 1.168v3.468c0 .645-.527 1.168-1.168 1.168zM30.063 53.785zm-3.348 3.227h3.226v-3.227h-3.226zm3.348 1.289h-3.47a1.169 1.169 0 0 1-1.167-1.168v-3.469c0-.644.523-1.168 1.168-1.168h3.468c.641 0 1.168.524 1.168 1.168v3.469c0 .644-.527 1.168-1.168 1.168zM30.063 61.77zm-3.348 3.226h3.226V61.77h-3.226zm3.348 1.29h-3.47a1.169 1.169 0 0 1-1.167-1.169v-3.469c0-.644.523-1.171 1.168-1.171h3.468c.641 0 1.168.527 1.168 1.171v3.47c0 .644-.527 1.167-1.168 1.167zM52.098 40.078H33.594a.646.646 0 0 1 0-1.293h18.504a.647.647 0 1 1 0 1.293zM52.098 48.059H33.594a.645.645 0 0 1 0-1.29h18.504a.646.646 0 1 1 0 1.29zM52.098 56.043H33.594a.645.645 0 0 1 0-1.29h18.504a.646.646 0 1 1 0 1.29zM52.098 64.027H33.594a.645.645 0 0 1 0-1.289h18.504a.646.646 0 1 1 0 1.29zM60.57 56.25c-.203 0-.414.012-.633.035-1.562.172-3.042.945-3.859 2.02-2.832 3.715-1.18 10.523 2.14 14.55 1.794 2.168 3.7 3.051 5.102 2.356 1.075-.531 2.035-.531 3.11 0 1.402.695 3.312-.188 5.101-2.356 3.32-4.027 4.973-10.835 2.145-14.55-.82-1.075-2.301-1.848-3.864-2.02-1.257-.137-2.359.13-3.097.754-1.36 1.145-2.32 1.145-3.68 0-.613-.516-1.472-.789-2.465-.789zm1.742 20.484c-1.632 0-3.445-1.066-5.09-3.058-3.617-4.39-5.476-11.813-2.171-16.153 1.027-1.343 2.844-2.308 4.746-2.52 1.61-.179 3.058.196 4.07 1.052.867.73 1.149.73 2.016 0 1.015-.856 2.457-1.23 4.07-1.051 1.902.21 3.723 1.176 4.746 2.52 3.309 4.34 1.45 11.761-2.172 16.152-2.199 2.664-4.691 3.672-6.668 2.691-.718-.351-1.25-.351-1.964 0-.5.246-1.032.367-1.583.367zm0 0" fill-rule="evenodd"/><path d="M64.875 57.89a.644.644 0 0 1-.64-.581 7.703 7.703 0 0 0-3.133-5.504.652.652 0 0 1-.141-.903.644.644 0 0 1 .902-.14 8.996 8.996 0 0 1 3.657 6.425.65.65 0 0 1-.582.704h-.063zm0 0" fill-rule="evenodd"/><path d="M64.64 53.676a5.631 5.631 0 0 0 6.274-4.332 4.83 4.83 0 0 0-4.187.648 4.814 4.814 0 0 0-2.086 3.684zm.778 1.344a6.986 6.986 0 0 1-1.578-.18.645.645 0 0 1-.496-.602 6.119 6.119 0 0 1 2.648-5.308 6.12 6.12 0 0 1 5.903-.598c.27.117.425.39.386.68a6.926 6.926 0 0 1-2.93 4.785 6.907 6.907 0 0 1-3.933 1.223zm0 0" fill-rule="evenodd"/><path fill="#ffcc80" d="M22.816 28.043h6.258v-2.832h-8.183c-.856 0-1.551.695-1.551 1.55v47.137c0 .856.695 1.551 1.55 1.551h36.141c.5 0 .965-.242 1.254-.636-.36-.336-.715-.72-1.062-1.141a16.305 16.305 0 0 1-1.47-2.11v.41c0 .356-.288.645-.644.645H22.816a.645.645 0 0 1-.644-.644V28.688c0-.356.289-.645.644-.645zM48.852 25.21v2.833h6.257c.356 0 .645.289.645.645v28.078c.77-.688 1.758-1.223 2.832-1.524v-28.48c0-.856-.695-1.551-1.555-1.551zm0 0" fill-rule="evenodd"/><path fill="#e57373" d="M26.715 61.77h3.226v3.226h-3.226zM26.715 53.785h3.226v3.227h-3.226zM26.715 45.8h3.226v3.227h-3.226zM26.715 37.82h3.226v3.223h-3.226zm0 0" fill-rule="evenodd"/><path fill="#eceff1" d="M31.23 41.164c0 .648-.527 1.172-1.168 1.172h-3.468a1.17 1.17 0 0 1-1.168-1.172V37.7c0-.644.523-1.172 1.168-1.172h3.468c.641 0 1.168.528 1.168 1.172zm20.868-1.086H33.594a.646.646 0 0 1 0-1.293h18.504a.647.647 0 1 1 0 1.293zM29.09 29.332h-5.63v41.996h31.005v-2.437c-1.371-3.543-1.649-7.528 0-10.473V29.332h-5.633a2.453 2.453 0 0 1-2.43 2.156H31.523a2.457 2.457 0 0 1-2.433-2.156zm4.504 17.438h18.504c.359 0 .648.289.648.644 0 .356-.289.645-.648.645H33.594a.645.645 0 0 1 0-1.29zm0 7.984h18.504c.359 0 .648.289.648.644 0 .356-.289.645-.648.645H33.594a.645.645 0 0 1 0-1.29zm0 7.984h18.504a.644.644 0 1 1 0 1.29H33.594a.645.645 0 0 1 0-1.29zM31.23 45.68v3.468c0 .645-.527 1.168-1.168 1.168h-3.468a1.169 1.169 0 0 1-1.168-1.168V45.68c0-.645.523-1.168 1.168-1.168h3.468c.641 0 1.168.523 1.168 1.168zm-1.168 6.816c.641 0 1.168.524 1.168 1.168v3.469c0 .644-.527 1.168-1.168 1.168h-3.468a1.169 1.169 0 0 1-1.168-1.168v-3.469c0-.644.523-1.168 1.168-1.168zm-3.468 7.98h3.468c.641 0 1.168.528 1.168 1.172v3.47c0 .644-.527 1.167-1.168 1.167h-3.468a1.169 1.169 0 0 1-1.168-1.168v-3.469c0-.644.523-1.171 1.168-1.171zm0 0" fill-rule="evenodd"/><path fill="#e57373" d="M66.43 75.21zm-7.09-18.827c-1.336.277-2.55.988-3.262 1.922-1.95 2.558-1.773 6.582-.39 10.152.015.035.03.07.039.11.625 1.574 1.48 3.062 2.492 4.288a10.602 10.602 0 0 0 1.332 1.36c1.367 1.148 2.71 1.52 3.77.996 1.074-.531 2.034-.531 3.109 0 1.402.695 3.312-.188 5.101-2.356 3.32-4.027 4.973-10.835 2.145-14.55-.82-1.075-2.301-1.848-3.864-2.02-1.257-.137-2.359.13-3.097.754-1.36 1.145-2.32 1.145-3.68 0-.613-.516-1.472-.789-2.465-.789a5.944 5.944 0 0 0-1.183.121l-.047.012zm0 0" fill-rule="evenodd"/><path fill="#a5d6a7" d="M64.64 53.676a5.631 5.631 0 0 0 6.274-4.332 4.83 4.83 0 0 0-4.187.648 4.814 4.814 0 0 0-2.086 3.684zm0 0" fill-rule="evenodd"/><g clip-path="url(#b)"><path fill="#ffcd00" d="M87.59 38.676c.062-.14.105-.285.133-.434a1.736 1.736 0 0 0-.07-.89 1.814 1.814 0 0 0-.871-1.016 1.658 1.658 0 0 0-.427-.164 1.834 1.834 0 0 0-.457-.059h-6.632l-.004-.105c-.102-1.692-.7-3.2-1.79-4.516l-.058-.074 1.8-1.945 4.126 2.77c.11.073.207.062.297-.032l3.93-4.277v1.378c0 .149.078.22.226.22.152 0 .227-.071.23-.22V27.36c0-.148-.078-.222-.226-.222h-1.992c-.153 0-.23.074-.23.222 0 .149.077.223.23.223h1.468l-3.84 4.184-4.124-2.774c-.11-.074-.211-.062-.297.035l-1.903 2.051-.082-.086a8.028 8.028 0 0 0-2.675-1.824 8.147 8.147 0 0 0-3.196-.64c-4.476 0-8.117 3.57-8.117 7.956 0 .305.02.61.055.91l.004.047-2.106 2.532a.2.2 0 0 0-.027.238c.039.086.11.129.203.129h1.875v5.86c0 .148.074.226.227.226h2.652c.152 0 .226-.078.226-.227v-3.445l.184.133a7.982 7.982 0 0 0 1.895 1.02 8.079 8.079 0 0 0 2.101.495c.723.075 1.442.051 2.16-.066a8.249 8.249 0 0 0 2.067-.621l.218-.102-.062.23c-.07.274-.078.548-.023.825.058.273.171.523.347.75.176.223.395.395.653.52.257.124.53.187.816.187h8.168v1.566c0 .149.074.223.226.223h2.653c.152 0 .226-.074.226-.223v-5.863h1.875c.098 0 .164-.039.207-.125.04-.086.032-.168-.03-.238l-2.27-2.727zm0 0" fill-rule="evenodd"/></g><g clip-path="url(#c)"><path fill="#00bf63" d="M87.55 41.27a.346.346 0 0 0-.241.097.321.321 0 0 0-.098.238v5.75h-1.969v-5.75a.325.325 0 0 0-.101-.238.346.346 0 0 0-.243-.097h-1.382l2.707-3.254 2.71 3.254zm-11.046 4.296h8.05v-2.515h-8.05c-.168 0-.332.031-.488.097a1.215 1.215 0 0 0-.414.274c-.118.117-.211.254-.278.406a1.283 1.283 0 0 0 0 .96c.067.153.16.29.278.407.12.117.257.207.414.274.156.062.32.097.488.097zm-10.242-3.445V40.45h1.761a.316.316 0 0 0 .309-.191.307.307 0 0 0-.043-.356l-3.43-4.12a.322.322 0 0 0-.261-.122c-.11 0-.2.04-.266.121l-.719.867c-.004-.054-.004-.109-.004-.164 0-4.078 3.387-7.398 7.547-7.398 1.043 0 2.04.2 2.992.605.954.407 1.79.977 2.5 1.723l-2 2.16a.323.323 0 0 0-.09.242c.004.094.04.172.114.235.07.062.152.09.246.086a.33.33 0 0 0 .238-.114l1.942-2.097c1.074 1.336 1.609 2.855 1.609 4.558 0 4.082-3.387 7.403-7.55 7.403a7.593 7.593 0 0 1-2.606-.457 7.451 7.451 0 0 1-2.29-1.309zm-.684 3.746v-5.754c0-.09.035-.172.102-.234a.33.33 0 0 1 .242-.098h1.383l-2.707-3.258-2.707 3.258h1.379a.33.33 0 0 1 .242.098.316.316 0 0 1 .101.234v5.754zm16.91-4.117a.307.307 0 0 1 .043-.355l1.278-1.536h-5.176a8.002 8.002 0 0 1-1.856 2.52h7.782v-.438h-1.762a.316.316 0 0 1-.309-.191zm4.696-3.816c0-.168-.036-.329-.102-.485a1.275 1.275 0 0 0-.691-.68 1.348 1.348 0 0 0-.493-.097h-6.511a7.822 7.822 0 0 1-.473 2.52h5.45l1.597-1.919a.326.326 0 0 1 .262-.125c.109 0 .199.043.265.125l.684.82c.004-.054.012-.109.012-.16zm.507.785c.07-.145.118-.297.145-.457a1.919 1.919 0 0 0-.074-.95 2.009 2.009 0 0 0-.528-.796 1.868 1.868 0 0 0-.398-.278 1.88 1.88 0 0 0-.453-.175 2.03 2.03 0 0 0-.485-.06h-6.523a7.76 7.76 0 0 0-1.813-4.581l1.668-1.805 4.043 2.719c.165.11.317.094.45-.05l3.726-4.063v1.09a.314.314 0 0 0 .106.234.321.321 0 0 0 .238.098.33.33 0 0 0 .242-.098.31.31 0 0 0 .102-.235V27.36a.316.316 0 0 0-.102-.234.325.325 0 0 0-.238-.102h-1.992a.327.327 0 0 0-.243.102.325.325 0 0 0 0 .473.324.324 0 0 0 .243.097h1.215l-3.606 3.922-4.043-2.719c-.164-.109-.312-.09-.445.055l-1.817 1.961a8.155 8.155 0 0 0-2.714-1.848 8.283 8.283 0 0 0-3.239-.652c-4.539 0-8.23 3.621-8.23 8.07 0 .309.02.618.054.922l-2.078 2.496a.307.307 0 0 0-.043.356.316.316 0 0 0 .309.191h1.762v5.75c0 .094.03.172.097.239a.33.33 0 0 0 .243.097h2.652a.33.33 0 0 0 .242-.097.321.321 0 0 0 .098-.239v-3.222c.593.43 1.234.773 1.922 1.035a8.4 8.4 0 0 0 4.324.438 8.475 8.475 0 0 0 2.094-.634c-.04.141-.059.286-.063.434-.004.148.008.293.035.438.031.144.078.285.14.421a1.995 1.995 0 0 0 .543.691 1.997 1.997 0 0 0 1.247.438h8.055v1.453c0 .094.03.172.097.239a.33.33 0 0 0 .242.097h2.653a.33.33 0 0 0 .242-.097.321.321 0 0 0 .098-.239v-5.75h1.761a.316.316 0 0 0 .309-.191.302.302 0 0 0-.047-.355zm-14.453-.04c0-.921-.754-1.687-1.738-1.831v3.664c.984-.145 1.738-.91 1.738-1.832zm-4.16-4.386c0 .922.754 1.687 1.738 1.832v-3.664c-.984.144-1.738.91-1.738 1.832zm4.16 0c0 .09.035.172.102.234a.327.327 0 0 0 .242.102.325.325 0 0 0 .238-.102.303.303 0 0 0 .102-.234c0-1.29-1.059-2.355-2.422-2.512v-1.027a.316.316 0 0 0-.102-.234.34.34 0 0 0-.484 0 .313.313 0 0 0-.098.234v1.027c-1.363.157-2.421 1.223-2.421 2.512s1.058 2.352 2.421 2.508v3.71c-.984-.144-1.738-.91-1.738-1.831a.325.325 0 0 0-.101-.239.33.33 0 0 0-.243-.097.33.33 0 0 0-.242.097.321.321 0 0 0-.097.239c0 1.289 1.058 2.355 2.421 2.508v1.027a.336.336 0 0 0 .34.336.33.33 0 0 0 .242-.098.325.325 0 0 0 .102-.238v-1.028c1.363-.152 2.422-1.218 2.422-2.507 0-1.29-1.059-2.356-2.422-2.508V32.46c.984.144 1.738.91 1.738 1.832zm0 0" fill-rule="evenodd"/></g></svg>