<svg xmlns="http://www.w3.org/2000/svg" width="1080" viewBox="0 0 810 810" height="1080" version="1.0"><defs><clipPath id="d"><path d="M0 .121h710V710H0zm0 0"/></clipPath><clipPath id="c"><path d="M0 0h711v711H0z"/></clipPath><clipPath id="e"><path d="M141 6.074h153V91H141zm0 0"/></clipPath><filter x="0%" y="0%" width="100%" height="100%" id="a"><feColorMatrix values="0 0 0 0 1 0 0 0 0 1 0 0 0 0 1 0 0 0 1 0" color-interpolation-filters="sRGB"/></filter><mask id="b"><g filter="url(#a)"><path fill-opacity=".2" d="M-81-81h972v972H-81z"/></g></mask></defs><g mask="url(#b)"><g clip-path="url(#c)" transform="translate(0 93)"><g clip-path="url(#d)"><path fill="#5ce1e6" d="M354.684.324c5.796 0 11.593.145 17.386.43 5.793.281 11.575.71 17.344 1.277 5.774.57 11.527 1.278 17.266 2.13a354.565 354.565 0 0 1 17.136 2.976 354.661 354.661 0 0 1 16.97 3.808 354.628 354.628 0 0 1 49.503 16.36A354.16 354.16 0 0 1 592.656 92.14a354.454 354.454 0 0 1 82.367 111.078 356.175 356.175 0 0 1 13.309 32.133 355.118 355.118 0 0 1 5.453 16.52 354.78 354.78 0 0 1 4.64 16.765 350.123 350.123 0 0 1 3.81 16.972 353.063 353.063 0 0 1 6.382 51.754c.285 5.793.43 11.59.43 17.39 0 5.802-.145 11.599-.43 17.395a357.8 357.8 0 0 1-1.277 17.348 360.897 360.897 0 0 1-2.13 17.266 353.89 353.89 0 0 1-2.976 17.14 350.123 350.123 0 0 1-3.808 16.973 356.085 356.085 0 0 1-10.094 33.285 356.175 356.175 0 0 1-13.309 32.133 352.131 352.131 0 0 1-7.82 15.539 355.966 355.966 0 0 1-17.879 29.836 355.414 355.414 0 0 1-20.715 27.937 354.345 354.345 0 0 1-35.953 37.766 356.882 356.882 0 0 1-13.168 11.363 358.598 358.598 0 0 1-13.71 10.703 356.6 356.6 0 0 1-28.919 19.325 353.428 353.428 0 0 1-30.668 16.394 351.802 351.802 0 0 1-15.902 7.051 357.452 357.452 0 0 1-16.226 6.262 355.015 355.015 0 0 1-16.516 5.457 349.954 349.954 0 0 1-16.762 4.636 354.696 354.696 0 0 1-34.105 6.79 360.896 360.896 0 0 1-17.266 2.128 357.275 357.275 0 0 1-34.73 1.707c-5.801 0-11.598-.144-17.391-.43-5.79-.284-11.574-.71-17.344-1.277a352.907 352.907 0 0 1-34.398-5.105 354.851 354.851 0 0 1-50.25-13.906 357.453 357.453 0 0 1-16.227-6.262 354.161 354.161 0 0 1-102.367-64.836 354.457 354.457 0 0 1-65.973-80.402 351.672 351.672 0 0 1-8.57-15.137 347.896 347.896 0 0 1-7.82-15.539 351.803 351.803 0 0 1-13.309-32.133 355.167 355.167 0 0 1-10.098-33.285 359.638 359.638 0 0 1-3.808-16.973 353.863 353.863 0 0 1-2.973-17.14 351.16 351.16 0 0 1-2.129-17.266A352.935 352.935 0 0 1 .32 354.754a353.665 353.665 0 0 1 3.836-52.004 353.036 353.036 0 0 1 2.973-17.14 359.638 359.638 0 0 1 3.809-16.973 354.78 354.78 0 0 1 39.796-96.094 356.756 356.756 0 0 1 9.305-14.7 359.456 359.456 0 0 1 10.016-14.222 355.686 355.686 0 0 1 22.062-26.887 354.344 354.344 0 0 1 24.59-24.593 356.882 356.882 0 0 1 13.168-11.364 355.685 355.685 0 0 1 27.934-20.718 356.706 356.706 0 0 1 14.695-9.309 354.16 354.16 0 0 1 46.57-23.445 352.896 352.896 0 0 1 32.742-11.72 355.933 355.933 0 0 1 16.762-4.64 354.817 354.817 0 0 1 16.973-3.808A352.907 352.907 0 0 1 337.293.754c5.793-.285 11.59-.43 17.39-.43zm0 0"/></g></g></g><path fill="#080717" d="M791.273 746.977H472.43c-.805 0-1.551-.204-2.243-.61a4.319 4.319 0 0 1-1.625-1.664 4.34 4.34 0 0 1-.562-2.258c.02-.8.238-1.543.66-2.226l55.695-90.121-53.543-300.817-70.136-.043c-.29 0-.578-.027-.863-.086a4.435 4.435 0 0 1-.833-.25 4.81 4.81 0 0 1-.765-.41 4.802 4.802 0 0 1-.672-.55 4.352 4.352 0 0 1-.957-1.438 4.446 4.446 0 0 1-.34-1.695 4.408 4.408 0 0 1 .34-1.695 4.352 4.352 0 0 1 .957-1.438c.207-.207.43-.39.672-.551a4.446 4.446 0 0 1 1.598-.664c.285-.055.574-.082.863-.082l73.847.043a4.432 4.432 0 0 1 2.844 1.035c.399.332.727.727.988 1.176.258.449.434.93.528 1.441l54.484 306.137c.2 1.11 0 2.144-.59 3.105l-52.402 84.801h310.898c.293 0 .582.028.868.082.285.059.558.14.828.254.27.11.523.246.765.41.243.16.47.344.672.551.207.203.39.43.551.672.164.242.297.496.41.766.11.265.196.543.254.828a4.624 4.624 0 0 1 0 1.73 4.758 4.758 0 0 1-.254.832 4.37 4.37 0 0 1-.41.766c-.16.242-.344.465-.55.672-.204.203-.43.386-.673.55a4.311 4.311 0 0 1-1.594.66 4.296 4.296 0 0 1-.867.087zm0 0"/><path fill="#080717" d="M528.031 653.285c-.527 0-1.039-.09-1.535-.273a4.443 4.443 0 0 1-1.344-.79 4.377 4.377 0 0 1-.984-1.202 4.408 4.408 0 0 1-.512-1.473c-4.367-27.676-9.515-55.844-14.488-83.082-4.98-27.274-10.129-55.48-14.516-83.242a4.335 4.335 0 0 1-.047-.953c.02-.32.07-.637.16-.942a4.4 4.4 0 0 1 .895-1.676 4.333 4.333 0 0 1 1.516-1.145c.289-.136.59-.237.902-.304.313-.07.629-.101.95-.101h293.257a4.406 4.406 0 0 1 3.574 1.813 4.403 4.403 0 0 1 .797 1.898c.059.343.074.69.047 1.035-.023.347-.09.687-.195 1.02l-52.621 166.316a4.457 4.457 0 0 1-1.605 2.238 4.452 4.452 0 0 1-2.618.855zm-23.808-166.324c4.183 26.008 8.996 52.367 13.66 77.91 4.762 26.067 9.676 52.988 13.93 79.555h204.601l49.824-157.457zm0 0"/><path fill="#fff" d="M534.973 762.656c0 1.293-.063 2.586-.192 3.875a39.31 39.31 0 0 1-1.512 7.602 39.449 39.449 0 0 1-1.304 3.652 38.775 38.775 0 0 1-1.66 3.504 38.614 38.614 0 0 1-1.992 3.328 39.173 39.173 0 0 1-4.915 5.992 41.27 41.27 0 0 1-2.875 2.606 39.832 39.832 0 0 1-6.441 4.305 39.9 39.9 0 0 1-7.16 2.964 39.65 39.65 0 0 1-11.473 1.703 39.65 39.65 0 0 1-18.629-4.668 39.832 39.832 0 0 1-6.441-4.305 41.27 41.27 0 0 1-2.875-2.605 39.173 39.173 0 0 1-4.914-5.992 39.674 39.674 0 0 1-1.996-3.328 39.828 39.828 0 0 1-2.965-7.156 39.638 39.638 0 0 1-1.508-7.602 38.936 38.936 0 0 1-.191-3.875 39.638 39.638 0 0 1 1.7-11.477 39.828 39.828 0 0 1 2.965-7.156 39.674 39.674 0 0 1 6.909-9.32 41.27 41.27 0 0 1 2.875-2.605 39.832 39.832 0 0 1 6.441-4.305c1.14-.61 2.309-1.16 3.508-1.656a38.998 38.998 0 0 1 7.414-2.25 39.65 39.65 0 0 1 7.707-.762 39.65 39.65 0 0 1 15.125 3.012 39.9 39.9 0 0 1 3.508 1.656 39.832 39.832 0 0 1 6.441 4.305 41.27 41.27 0 0 1 2.875 2.605 39.173 39.173 0 0 1 4.914 5.992 38.614 38.614 0 0 1 1.993 3.328 38.775 38.775 0 0 1 1.66 3.504c.496 1.2.93 2.414 1.305 3.653a39.31 39.31 0 0 1 1.703 11.476zm0 0"/><path fill="#090817" d="M495.45 803.957c-1.352 0-2.7-.066-4.048-.195a42.178 42.178 0 0 1-4.007-.594 41.064 41.064 0 0 1-7.746-2.352 41.085 41.085 0 0 1-10.398-6.227 41.313 41.313 0 0 1-14.309-23.867 40.863 40.863 0 0 1-.594-4.011 42.405 42.405 0 0 1-.203-4.047 41.298 41.298 0 0 1 3.144-15.809 41.224 41.224 0 0 1 11.95-16.12 41.827 41.827 0 0 1 3.257-2.419 41.644 41.644 0 0 1 3.473-2.082 41.473 41.473 0 0 1 7.48-3.102 42.481 42.481 0 0 1 3.93-.984 42.073 42.073 0 0 1 4.012-.593 41.159 41.159 0 0 1 8.093 0c1.348.133 2.684.328 4.008.593a41.445 41.445 0 0 1 7.75 2.348 42.31 42.31 0 0 1 3.66 1.734 41.085 41.085 0 0 1 6.735 4.497 41.255 41.255 0 0 1 3 2.722 40.433 40.433 0 0 1 2.722 3.004 40.804 40.804 0 0 1 2.414 3.258 40.713 40.713 0 0 1 3.816 7.14 41.064 41.064 0 0 1 2.946 11.758c.133 1.344.2 2.696.2 4.047a41.223 41.223 0 0 1-1.79 11.98 39.964 39.964 0 0 1-1.367 3.817 41.152 41.152 0 0 1-3.816 7.137 42.417 42.417 0 0 1-2.41 3.254 42.086 42.086 0 0 1-5.723 5.722 41.017 41.017 0 0 1-6.727 4.496 39.637 39.637 0 0 1-3.66 1.735 41.015 41.015 0 0 1-11.746 2.957 41.102 41.102 0 0 1-4.047.203zm0-79.059a37.765 37.765 0 0 0-7.364.723 37.76 37.76 0 0 0-3.594.902 36.667 36.667 0 0 0-3.488 1.247 37.475 37.475 0 0 0-9.504 5.695 36.775 36.775 0 0 0-2.746 2.488 37.59 37.59 0 0 0-6.602 8.899 37.954 37.954 0 0 0-1.586 3.347 38.22 38.22 0 0 0-1.25 3.489 38.038 38.038 0 0 0-1.445 7.261 37.765 37.765 0 0 0-.18 3.7 37.786 37.786 0 0 0 .723 7.367c.242 1.214.54 2.41.899 3.593.359 1.184.777 2.348 1.25 3.489a37.474 37.474 0 0 0 3.488 6.53 37.649 37.649 0 0 0 10.414 10.418 37.326 37.326 0 0 0 3.176 1.907c1.09.582 2.207 1.11 3.347 1.586a38.193 38.193 0 0 0 7.082 2.149c1.215.242 2.438.421 3.668.542 1.23.122 2.461.184 3.7.184a37.77 37.77 0 0 0 7.363-.726c1.215-.239 2.41-.54 3.594-.899a36.693 36.693 0 0 0 3.488-1.25 37.474 37.474 0 0 0 9.504-5.695 37.649 37.649 0 0 0 7.441-8.211 37.474 37.474 0 0 0 3.488-6.527c.473-1.141.891-2.305 1.25-3.489a38.039 38.039 0 0 0 1.442-7.262c.12-1.23.183-2.46.183-3.699a37.775 37.775 0 0 0-.734-7.363 38.194 38.194 0 0 0-2.148-7.078 39.097 39.097 0 0 0-1.586-3.348 37.326 37.326 0 0 0-1.907-3.176 37.649 37.649 0 0 0-4.691-5.719 39.373 39.373 0 0 0-2.742-2.488 37.285 37.285 0 0 0-6.148-4.11 36.876 36.876 0 0 0-3.348-1.585c-1.14-.476-2.301-.89-3.485-1.254a37.981 37.981 0 0 0-7.254-1.45 37.713 37.713 0 0 0-3.699-.187zm0 0"/><path fill="#fff" d="M807.73 762.656c0 1.293-.062 2.586-.187 3.875a40.898 40.898 0 0 1-.57 3.836 40.488 40.488 0 0 1-.942 3.766 39.828 39.828 0 0 1-2.965 7.156 39.674 39.674 0 0 1-9.785 11.926 39.832 39.832 0 0 1-6.441 4.305c-1.14.609-2.309 1.16-3.508 1.656a38.998 38.998 0 0 1-7.414 2.25 39.65 39.65 0 0 1-7.707.761c-1.297 0-2.586-.066-3.875-.19a39.65 39.65 0 0 1-11.25-2.821 39.9 39.9 0 0 1-3.508-1.656 40.243 40.243 0 0 1-6.441-4.305 41.27 41.27 0 0 1-2.875-2.606 40.257 40.257 0 0 1-2.602-2.875c-.824-1-1.594-2.039-2.312-3.117a38.614 38.614 0 0 1-1.993-3.328 38.775 38.775 0 0 1-1.66-3.504c-.496-1.2-.93-2.414-1.304-3.652a39.31 39.31 0 0 1-1.703-11.477 39.638 39.638 0 0 1 .758-7.71 39.31 39.31 0 0 1 .945-3.766 39.449 39.449 0 0 1 1.304-3.653 38.775 38.775 0 0 1 1.66-3.504 38.614 38.614 0 0 1 1.993-3.328 38.283 38.283 0 0 1 2.312-3.117c.82-1 1.688-1.957 2.602-2.875a39.173 39.173 0 0 1 5.992-4.914 40.243 40.243 0 0 1 3.324-1.996 39.9 39.9 0 0 1 7.16-2.965 39.65 39.65 0 0 1 11.473-1.703 39.65 39.65 0 0 1 18.629 4.668 39.832 39.832 0 0 1 6.441 4.305 40.4 40.4 0 0 1 2.875 2.605 39.173 39.173 0 0 1 4.914 5.992 39.674 39.674 0 0 1 1.996 3.328 39.828 39.828 0 0 1 2.965 7.157c.375 1.242.688 2.496.942 3.765.25 1.27.441 2.547.57 3.836.125 1.29.187 2.582.187 3.875zm0 0"/><path fill="#090817" d="M768.21 803.957a41.238 41.238 0 0 1-8.058-.793 41.27 41.27 0 0 1-21.14-11.305 40.805 40.805 0 0 1-5.137-6.258 41.085 41.085 0 0 1-2.082-3.476 41.038 41.038 0 0 1-3.098-7.48 41.289 41.289 0 0 1-.988-3.93 42.073 42.073 0 0 1-.594-4.012 41.159 41.159 0 0 1 0-8.094c.133-1.347.332-2.683.594-4.011.266-1.325.594-2.637.988-3.93a41.038 41.038 0 0 1 3.098-7.48 41.085 41.085 0 0 1 4.496-6.735 41.255 41.255 0 0 1 2.723-3 40.376 40.376 0 0 1 3-2.723 41.459 41.459 0 0 1 6.73-4.5 41.473 41.473 0 0 1 7.48-3.098 41.27 41.27 0 0 1 20.044-.984 41.27 41.27 0 0 1 18.14 8.582 41.201 41.201 0 0 1 8.137 8.98 41.125 41.125 0 0 1 5.184 10.958c.39 1.293.718 2.605.984 3.93.262 1.328.46 2.664.594 4.011.133 1.344.199 2.696.199 4.047a42.404 42.404 0 0 1-.203 4.047 40.973 40.973 0 0 1-1.586 7.938 40.989 40.989 0 0 1-1.367 3.812 41.843 41.843 0 0 1-1.735 3.664 41.017 41.017 0 0 1-4.496 6.727 41.314 41.314 0 0 1-2.722 3.004 42.086 42.086 0 0 1-3 2.722 42.734 42.734 0 0 1-3.254 2.414 41.643 41.643 0 0 1-3.473 2.082 40.192 40.192 0 0 1-3.664 1.735c-1.246.52-2.52.976-3.813 1.367a40.995 40.995 0 0 1-7.937 1.586 39.914 39.914 0 0 1-4.043.203zm0-79.059a37.79 37.79 0 0 0-7.366.727c-1.211.242-2.41.54-3.594.898a38.22 38.22 0 0 0-6.836 2.832 38.373 38.373 0 0 0-3.176 1.907 37.649 37.649 0 0 0-12.32 13.598 36.876 36.876 0 0 0-1.586 3.347 38.058 38.058 0 0 0-2.148 7.082 37.564 37.564 0 0 0-.723 7.367 37.706 37.706 0 0 0 .723 7.367 38.058 38.058 0 0 0 2.148 7.082c.473 1.141 1 2.258 1.586 3.348a36.752 36.752 0 0 0 1.902 3.18 37.649 37.649 0 0 0 10.418 10.418 38.373 38.373 0 0 0 3.176 1.906 37.92 37.92 0 0 0 6.836 2.832 38.038 38.038 0 0 0 7.258 1.441 37.79 37.79 0 0 0 3.703.184 37.77 37.77 0 0 0 7.363-.726c1.211-.243 2.41-.54 3.594-.899a38.22 38.22 0 0 0 6.836-2.832 39.1 39.1 0 0 0 3.18-1.906 37.277 37.277 0 0 0 2.972-2.207 37.649 37.649 0 0 0 7.442-8.211 37.806 37.806 0 0 0 4.738-10.016c.355-1.183.656-2.383.898-3.594.243-1.214.422-2.437.543-3.668.121-1.23.184-2.46.184-3.699a39.03 39.03 0 0 0-.188-3.699 38.058 38.058 0 0 0-1.45-7.258 38.145 38.145 0 0 0-1.249-3.484c-.472-1.145-1-2.258-1.586-3.348a39.058 39.058 0 0 0-1.902-3.18 39.013 39.013 0 0 0-2.207-2.972 37.649 37.649 0 0 0-5.234-5.235 38.254 38.254 0 0 0-2.973-2.207 38.332 38.332 0 0 0-6.524-3.488 37.011 37.011 0 0 0-3.484-1.25 38.059 38.059 0 0 0-7.258-1.45 36.463 36.463 0 0 0-3.695-.187zm0 0"/><path fill="#080717" d="M558.227 650.617a1.77 1.77 0 0 1-1.254-.515 1.8 1.8 0 0 1-.52-1.254V482.53a1.775 1.775 0 0 1 3.41-.68c.09.22.137.446.137.68v166.317a1.8 1.8 0 0 1-.52 1.254 1.77 1.77 0 0 1-1.254.516zM602.715 650.617a1.77 1.77 0 0 1-1.254-.515 1.8 1.8 0 0 1-.52-1.254V482.53a1.775 1.775 0 0 1 3.41-.68c.09.22.137.446.137.68v166.317a1.8 1.8 0 0 1-.52 1.254 1.77 1.77 0 0 1-1.254.516zM649.445 650.617a1.77 1.77 0 0 1-1.254-.515 1.8 1.8 0 0 1-.52-1.254V482.53a1.775 1.775 0 0 1 3.411-.68c.09.22.133.446.133.68v166.317c0 .234-.043.46-.133.675a1.8 1.8 0 0 1-.383.579 1.8 1.8 0 0 1-.578.382c-.215.09-.441.133-.676.133zM696.172 650.617c-.235 0-.461-.043-.676-.133a1.8 1.8 0 0 1-.578-.382 1.8 1.8 0 0 1-.383-.579 1.737 1.737 0 0 1-.133-.675V482.53a1.77 1.77 0 0 1 .516-1.254c.168-.168.36-.293.578-.382a1.74 1.74 0 0 1 1.356 0 1.762 1.762 0 0 1 .957.957c.09.218.136.445.136.68v166.316a1.8 1.8 0 0 1-.52 1.254 1.77 1.77 0 0 1-1.254.516zM742.902 646.926a1.775 1.775 0 0 1-1.773-1.774v-162.62a1.775 1.775 0 0 1 3.41-.68c.09.218.137.445.137.68v162.62a1.775 1.775 0 0 1-1.774 1.774zm0 0"/><path fill="#080717" d="M773.59 543.379H513.523a1.77 1.77 0 0 1-1.253-.516 1.8 1.8 0 0 1-.52-1.254 1.775 1.775 0 0 1 1.773-1.773H773.59a1.775 1.775 0 0 1 .68 3.41 1.77 1.77 0 0 1-.68.133zM755.102 601.816h-228.91a1.8 1.8 0 0 1-1.254-.52 1.77 1.77 0 0 1-.516-1.254c0-.233.043-.46.133-.675a1.8 1.8 0 0 1 .383-.578 1.8 1.8 0 0 1 1.253-.52H755.11a1.775 1.775 0 0 1 .68 3.41c-.219.09-.445.137-.68.137zm0 0"/><path fill="#fff" d="M275.203 230.313c-.851-11.977-1.973-29.438-13.879-43.387a59.425 59.425 0 0 0-12.3-10.5 59.418 59.418 0 0 0-14.665-6.809 9.509 9.509 0 0 1-2.62-1.36 9.352 9.352 0 0 1-2.071-2.1 9.487 9.487 0 0 1-1.781-5.55v-28.548h-37.032v28.238a8.836 8.836 0 0 1-.44 2.797 8.753 8.753 0 0 1-1.31 2.511 8.757 8.757 0 0 1-2.03 1.97 8.803 8.803 0 0 1-2.552 1.23 63.907 63.907 0 0 0-15.554 6.496 63.956 63.956 0 0 0-13.324 10.32c-13.137 13.8-15.114 30.887-18.063 61.117a4509.59 4509.59 0 0 0-12.047 149.57h167.7c-10.223-73.55-15.278-127.136-18.032-165.995zm0 0"/><path fill="#090817" d="M293.219 398.09h-167.7a1.762 1.762 0 0 1-1.296-.559 1.776 1.776 0 0 1-.477-1.328c3.2-49.996 7.266-100.34 12.063-149.633 3.046-31.25 5.257-48.199 18.539-62.164a65.84 65.84 0 0 1 13.691-10.613 65.73 65.73 0 0 1 15.98-6.688 6.972 6.972 0 0 0 2.036-.988 6.986 6.986 0 0 0 1.62-1.578 6.973 6.973 0 0 0 1.044-2.008c.238-.726.36-1.469.355-2.234v-28.238c0-.235.047-.461.137-.68.09-.219.215-.41.383-.574.164-.168.355-.293.574-.383a1.76 1.76 0 0 1 .68-.137h37.03c.235 0 .462.047.677.137.218.09.41.215.574.383.168.164.297.355.387.574.09.219.132.445.132.68v28.546a7.682 7.682 0 0 0 3.125 6.219 7.61 7.61 0 0 0 2.13 1.102 61.276 61.276 0 0 1 15.105 7.027 61.512 61.512 0 0 1 12.664 10.817c12.16 14.25 13.43 32.175 14.27 44.035l.027.382c3.531 49.75 9.418 104.012 18.004 165.887.035.25.015.5-.059.746-.07.246-.191.465-.36.66-.167.192-.37.34-.6.45-.235.105-.481.156-.735.156zm-165.813-3.547h163.778c-8.446-61.113-14.254-114.813-17.747-164.098l-.03-.382c-.852-12.083-2.024-28.625-13.43-41.985a57.847 57.847 0 0 0-11.942-10.172 57.571 57.571 0 0 0-14.23-6.601 11.577 11.577 0 0 1-1.621-.684c-.524-.27-1.02-.578-1.493-.926-.476-.347-.918-.73-1.332-1.148a11.349 11.349 0 0 1-2.047-2.848 11.576 11.576 0 0 1-.664-1.629 11.11 11.11 0 0 1-.53-3.465v-26.777h-33.49v26.469c0 .57-.046 1.137-.136 1.7a10.692 10.692 0 0 1-1.977 4.672c-.343.456-.718.882-1.124 1.28-.41.399-.852.758-1.317 1.086-.469.324-.96.613-1.472.86-.516.246-1.047.453-1.59.613a62.271 62.271 0 0 0-15.125 6.316 62.244 62.244 0 0 0-12.969 10.028c-12.504 13.14-14.527 28.765-17.578 60.062a4531.45 4531.45 0 0 0-11.934 147.629zm0 0"/><path fill="#080717" d="M125.52 803.7c-.239 0-.465-.044-.684-.13a1.832 1.832 0 0 1-.586-.367 1.926 1.926 0 0 1-.414-.555 1.93 1.93 0 0 1-.18-.668 2600.637 2600.637 0 0 1-6.937-293.418 2591.917 2591.917 0 0 1 8.265-138.05c.02-.23.079-.453.184-.664.102-.207.238-.395.414-.551.172-.156.367-.281.582-.363.219-.086.445-.13.68-.13l104.023 2.747a1.86 1.86 0 0 1 1.422.719c.172.222.29.468.352.738.058.273.058.547 0 .82a1615.125 1615.125 0 0 0-19.93 105.813 1616.177 1616.177 0 0 0-18.54 214.433 1616.981 1616.981 0 0 0 1.474 107.668c.011.254-.028.5-.118.738a1.849 1.849 0 0 1-1.015 1.06 1.819 1.819 0 0 1-.735.151zm0 0"/><path fill="#080717" d="M242.035 803.742a1.86 1.86 0 0 1-1.25-.484 1.875 1.875 0 0 1-.414-.543 1.874 1.874 0 0 1-.187-.653 7783.349 7783.349 0 0 0-27.239-235.074 7803.15 7803.15 0 0 0-27.875-193.277 1.924 1.924 0 0 1 .047-.79 1.844 1.844 0 0 1 .985-1.183c.242-.117.5-.18.765-.187l104.028-2.746c.234 0 .46.043.68.129.214.082.41.207.581.363a1.841 1.841 0 0 1 .598 1.215c1.7 19.59 3.191 39.425 4.441 58.96.024.368 2.371 37.426 3.825 79.087 1.554 44.457 3.593 147.988 4.23 293.468a1.851 1.851 0 0 1-.543 1.32 1.856 1.856 0 0 1-.605.407c-.23.098-.47.144-.715.144zm0 0"/><path fill="#fff" d="M101.3 801.828s3.032-20.379 22.302-25.426v-16.261l68.699-3.301 1.48 44.988zm0 0"/><path fill="#090817" d="M193.781 803.602h-92.488a1.781 1.781 0 0 1-1.344-.614 1.747 1.747 0 0 1-.36-.664c-.07-.25-.089-.5-.05-.754.031-.215 3.285-20.656 22.281-26.508v-14.917c0-.23.043-.45.125-.66.086-.212.207-.403.364-.567.156-.164.34-.293.546-.39.207-.094.426-.145.653-.157l68.699-3.305c.238-.011.469.024.691.106.223.082.422.203.594.363.176.16.313.348.41.567.098.214.153.441.16.68l1.481 44.988a1.762 1.762 0 0 1-.496 1.289 1.75 1.75 0 0 1-1.277.543zm-90.293-3.543h88.465l-1.363-41.364-65.219 3.137v14.57c0 .403-.121.762-.367 1.082-.246.32-.567.532-.957.633-14.582 3.82-19.266 16.848-20.559 21.942zm0 0"/><path fill="#fff" d="M327.355 801.828a40.87 40.87 0 0 0-8.918-18.7 40.807 40.807 0 0 0-4.937-4.921 33.734 33.734 0 0 0-10.234-5.629l-.133-15.738h-65.75l5.23 41.191c.094 1.395.27 2.782.532 4.157zm0 0"/><path fill="#090817" d="M243.129 803.957c-.203 0-.402-.035-.598-.105a1.61 1.61 0 0 1-.527-.301 1.731 1.731 0 0 1-.613-1.031 36.526 36.526 0 0 1-.555-4.372l-5.207-41.086a1.747 1.747 0 0 1 .426-1.395 1.74 1.74 0 0 1 .601-.444c.23-.106.473-.157.727-.157h65.75c.23 0 .457.043.672.133.218.09.41.215.574.383.168.164.293.352.387.566.09.22.136.442.136.676l.125 14.512a35.09 35.09 0 0 1 9.578 5.492 42.412 42.412 0 0 1 9.367 11.078 42.548 42.548 0 0 1 3.141 6.567 42.862 42.862 0 0 1 1.98 7.007 1.8 1.8 0 0 1-.015.778c-.066.258-.18.488-.348.695a1.762 1.762 0 0 1-1.367.652l-84.226.356zm-3.734-45.348 4.96 39.2c.07 1 .168 1.875.27 2.597l80.5-.34a38.216 38.216 0 0 0-4.727-11.261 38.194 38.194 0 0 0-8.011-9.215 31.818 31.818 0 0 0-9.707-5.336 1.739 1.739 0 0 1-.86-.64 1.738 1.738 0 0 1-.332-1.02l-.12-13.985zm0 0"/><path fill="#5ce1e6" d="M185.723 166.055s28.605 8.757 46.82 0c0 0 39.547 6.507 41.105 35.382 1.563 28.875 24.754 199.016 24.754 199.016s-102.75 18.684-176.078 0c0 0 11.676-165.836 18.215-192.933 6.543-27.094 13.774-38.079 45.184-41.465zm0 0"/><path fill="#080717" d="M400.879 335.574h57.754c.347 0 .687.035 1.027.102.34.066.668.168.985.3.32.13.62.294.91.485.285.191.55.41.797.652.242.246.46.512.652.797.191.29.355.59.484.91.133.317.235.649.301.985.066.34.102.68.102 1.027v7.95c0 .347-.036.687-.102 1.027-.066.34-.168.668-.3.984-.13.32-.294.621-.485.91-.192.285-.41.55-.652.797-.247.242-.512.46-.797.652-.29.192-.59.356-.91.485a5.033 5.033 0 0 1-.985.3c-.34.067-.68.102-1.027.102h-57.754c-.344 0-.684-.035-1.024-.101a5.033 5.033 0 0 1-.984-.301 4.956 4.956 0 0 1-.91-.485 5.532 5.532 0 0 1-.797-.652 5.367 5.367 0 0 1-1.14-1.707 5.326 5.326 0 0 1-.398-2.012l-.001-7.949a5.326 5.326 0 0 1 .398-2.012 5.367 5.367 0 0 1 1.141-1.707c.246-.242.512-.46.797-.652.285-.191.59-.356.91-.484.317-.133.645-.235.984-.301.34-.067.68-.102 1.024-.102zm0 0"/><path fill="#fff" d="M608.207 259.594a79.666 79.666 0 0 0-6.008 3.199 78.41 78.41 0 0 0-5.71 3.707 79.488 79.488 0 0 0-5.372 4.188 79.906 79.906 0 0 0-4.988 4.632 77.687 77.687 0 0 0-4.57 5.051 78.194 78.194 0 0 0-4.118 5.422 77.935 77.935 0 0 0-3.632 5.758 78.348 78.348 0 0 0-3.125 6.05 78.105 78.105 0 0 0-4.63 12.797 78.593 78.593 0 0 0-2.668 20.203 77.5 77.5 0 0 0 .286 6.801 78.699 78.699 0 0 0 6.902 26.22 78.34 78.34 0 0 0 6.719 11.831 79.153 79.153 0 0 0 4.098 5.438 78.862 78.862 0 0 0 14.883 13.918 79.285 79.285 0 0 0 11.695 6.949 78.742 78.742 0 0 0 12.719 4.832 78.493 78.493 0 0 0 13.359 2.578c2.258.234 4.523.371 6.797.414a79.1 79.1 0 0 0 6.804-.176l28.754 34.785a1.707 1.707 0 0 0 2.77-.215c.195-.32.273-.663.242-1.038l-3.883-40.739c.242-.113.492-.215.735-.328a77.319 77.319 0 0 0 3.449-1.758 81.801 81.801 0 0 0 3.36-1.922 80.914 80.914 0 0 0 6.414-4.328 80.956 80.956 0 0 0 3.038-2.394 81.872 81.872 0 0 0 5.711-5.223 82.262 82.262 0 0 0 2.657-2.816c.859-.961 1.699-1.942 2.511-2.942a77.12 77.12 0 0 0 2.367-3.062 74.372 74.372 0 0 0 2.215-3.176 76.733 76.733 0 0 0 2.055-3.277 81.914 81.914 0 0 0 1.894-3.38 81.64 81.64 0 0 0 1.723-3.464 77.348 77.348 0 0 0 2.93-7.164c.43-1.215.828-2.442 1.2-3.68.366-1.238.706-2.48 1.015-3.734.308-1.254.582-2.516.828-3.781a78.552 78.552 0 0 0 1.101-7.66c.121-1.286.211-2.575.27-3.864a85.14 85.14 0 0 0 .078-3.867 79.89 79.89 0 0 0-.113-3.871 79.8 79.8 0 0 0-.305-3.86 74.708 74.708 0 0 0-.488-3.84 78.474 78.474 0 0 0-.68-3.808 82.428 82.428 0 0 0-.863-3.773 82.423 82.423 0 0 0-1.051-3.727 76.369 76.369 0 0 0-1.23-3.672 81.006 81.006 0 0 0-2.993-7.137 81.719 81.719 0 0 0-1.757-3.449 79.44 79.44 0 0 0-6.25-9.773 78.025 78.025 0 0 0-4.934-5.961 78.676 78.676 0 0 0-2.684-2.793 78.667 78.667 0 0 0-5.754-5.172 85.255 85.255 0 0 0-3.062-2.367 82.208 82.208 0 0 0-3.176-2.215 80.848 80.848 0 0 0-3.277-2.055 75.148 75.148 0 0 0-3.375-1.89 77.295 77.295 0 0 0-3.465-1.727 84.036 84.036 0 0 0-3.547-1.555 79.298 79.298 0 0 0-7.297-2.574 80.97 80.97 0 0 0-3.734-1.015 82.458 82.458 0 0 0-3.781-.829 78.395 78.395 0 0 0-7.657-1.101 79.845 79.845 0 0 0-3.863-.27 85.14 85.14 0 0 0-3.867-.078 79.889 79.889 0 0 0-3.871.113 79.64 79.64 0 0 0-3.856.305 77.635 77.635 0 0 0-7.648 1.168 82.43 82.43 0 0 0-3.774.863c-1.25.32-2.492.672-3.726 1.051a79.18 79.18 0 0 0-10.805 4.227zm0 0"/><path fill="#090817" d="M677.71 446.586c-.515 0-1.01-.11-1.48-.332a3.475 3.475 0 0 1-1.195-.934l-28.172-34.09a80.162 80.162 0 0 1-14.804-.515 79.301 79.301 0 0 1-4.883-.774 81.23 81.23 0 0 1-9.578-2.441 80.196 80.196 0 0 1-13.629-5.809 80.908 80.908 0 0 1-16.09-11.426 84.297 84.297 0 0 1-3.547-3.445 84.382 84.382 0 0 1-3.328-3.66 79.47 79.47 0 0 1-5.953-7.89 80.05 80.05 0 0 1-7.016-13.051 78.557 78.557 0 0 1-1.789-4.61 81.17 81.17 0 0 1-2.719-9.504 82.007 82.007 0 0 1-.918-4.863 82.48 82.48 0 0 1-.617-4.906 83.179 83.179 0 0 1-.312-4.934 80.286 80.286 0 0 1-.012-4.945c.043-1.648.14-3.297.289-4.937.148-1.645.344-3.282.594-4.91a79.348 79.348 0 0 1 2.082-9.665 79.534 79.534 0 0 1 3.25-9.336 79.128 79.128 0 0 1 2.047-4.504c.726-1.48 1.5-2.933 2.32-4.367a78.98 78.98 0 0 1 2.582-4.215 76.735 76.735 0 0 1 2.836-4.05 79.581 79.581 0 0 1 6.39-7.543 79.544 79.544 0 0 1 7.266-6.703 79.076 79.076 0 0 1 8.031-5.766 78.878 78.878 0 0 1 4.262-2.5 77.916 77.916 0 0 1 4.414-2.238 81.354 81.354 0 0 1 9.188-3.64 81.144 81.144 0 0 1 9.566-2.488 79.3 79.3 0 0 1 4.88-.798 80.134 80.134 0 0 1 9.858-.695 80.275 80.275 0 0 1 19.606 2.238 81.42 81.42 0 0 1 9.45 2.898 83.238 83.238 0 0 1 4.573 1.88 83.353 83.353 0 0 1 4.45 2.155 83.39 83.39 0 0 1 4.312 2.426 80.875 80.875 0 0 1 11.926 8.79 79.78 79.78 0 0 1 3.59 3.402 79.72 79.72 0 0 1 3.379 3.609 84.114 84.114 0 0 1 3.148 3.816 78.954 78.954 0 0 1 2.906 3.997 80.13 80.13 0 0 1 2.66 4.171 80.552 80.552 0 0 1 4.527 8.79 80.253 80.253 0 0 1 1.848 4.585 78.605 78.605 0 0 1 1.567 4.692 80.406 80.406 0 0 1 2.258 9.625c.277 1.625.504 3.258.68 4.898.179 1.64.304 3.281.378 4.93.078 1.648.106 3.297.078 4.945a80.27 80.27 0 0 1-.226 4.942 80.113 80.113 0 0 1-2.485 14.605 79.559 79.559 0 0 1-3.125 9.379 83.33 83.33 0 0 1-1.988 4.531 83.222 83.222 0 0 1-2.262 4.395 80.066 80.066 0 0 1-5.312 8.34 80.94 80.94 0 0 1-3.027 3.91 79.76 79.76 0 0 1-6.746 7.223 81.576 81.576 0 0 1-3.692 3.288 81.622 81.622 0 0 1-3.89 3.06 79.963 79.963 0 0 1-8.297 5.367 80.558 80.558 0 0 1-4.383 2.296l3.765 39.488c.024.243.02.48-.007.723a3.466 3.466 0 0 1-.457 1.367 3.511 3.511 0 0 1-1.598 1.426 3.465 3.465 0 0 1-1.41.297zm-30.062-38.953c.559 0 1.012.215 1.368.644l28.754 34.786-3.993-40.696c-.035-.375.04-.722.227-1.047.187-.324.45-.566.789-.726l.719-.317a76.595 76.595 0 0 0 4.21-2.18 76.1 76.1 0 0 0 7.984-5.11 74.899 74.899 0 0 0 3.743-2.909 77.523 77.523 0 0 0 3.555-3.137 77.325 77.325 0 0 0 12.105-14.547 76.62 76.62 0 0 0 4.621-8.277 73.864 73.864 0 0 0 1.922-4.336 74.896 74.896 0 0 0 1.653-4.445c.504-1.5.96-3.012 1.375-4.54.41-1.526.777-3.066 1.093-4.612.317-1.551.586-3.11.809-4.676.219-1.563.39-3.137.516-4.711a76.775 76.775 0 0 0-.832-18.906 79.028 79.028 0 0 0-.934-4.653 80.69 80.69 0 0 0-1.215-4.582 78.83 78.83 0 0 0-1.496-4.5 79.465 79.465 0 0 0-1.77-4.398 76.585 76.585 0 0 0-4.336-8.434 75.15 75.15 0 0 0-2.546-4 74.325 74.325 0 0 0-2.785-3.836 77.269 77.269 0 0 0-21.141-18.804 79.453 79.453 0 0 0-4.137-2.325 78.025 78.025 0 0 0-8.656-3.859 75.798 75.798 0 0 0-4.488-1.523 79.957 79.957 0 0 0-4.578-1.247 78.193 78.193 0 0 0-4.641-.96 79.404 79.404 0 0 0-4.695-.672 76.284 76.284 0 0 0-4.727-.383 76.636 76.636 0 0 0-14.191.597 76.362 76.362 0 0 0-13.844 3.192 74.947 74.947 0 0 0-4.457 1.625 77.666 77.666 0 0 0-8.567 4.05 79.443 79.443 0 0 0-4.082 2.419 73.54 73.54 0 0 0-3.921 2.66 74.895 74.895 0 0 0-3.754 2.894 77.563 77.563 0 0 0-6.941 6.46 75.191 75.191 0 0 0-3.157 3.536 75.038 75.038 0 0 0-2.937 3.727 78.502 78.502 0 0 0-2.7 3.895 77.793 77.793 0 0 0-4.66 8.257 77.717 77.717 0 0 0-3.61 8.766 75.975 75.975 0 0 0-2.503 9.144 75.782 75.782 0 0 0-.828 4.668 73.644 73.644 0 0 0-.54 4.711 76.81 76.81 0 0 0 .755 18.91 77.494 77.494 0 0 0 3.586 13.75 76.537 76.537 0 0 0 6.05 12.856 76.055 76.055 0 0 0 5.301 7.86 79.282 79.282 0 0 0 3 3.671 77.472 77.472 0 0 0 3.223 3.477 75.381 75.381 0 0 0 3.433 3.273 75.344 75.344 0 0 0 3.625 3.059 75.992 75.992 0 0 0 7.777 5.414 76.613 76.613 0 0 0 8.387 4.422 80.7 80.7 0 0 0 4.38 1.816A76.757 76.757 0 0 0 624 405.63a75.2 75.2 0 0 0 4.636.98 76.276 76.276 0 0 0 9.418 1.098 76.644 76.644 0 0 0 9.476-.066zm0 0"/><path fill="#080717" d="M614.754 373.89c-.5 0-.926-.175-1.281-.53l-14.95-14.958a1.752 1.752 0 0 1-.39-.586 1.76 1.76 0 0 1-.137-.691c0-.242.043-.473.137-.695.09-.223.222-.418.39-.586l71.602-71.617a1.812 1.812 0 0 1 2.559 0l14.953 14.957c.168.168.3.363.39.586.094.222.137.453.137.695 0 .238-.043.469-.137.691-.09.223-.222.418-.39.59l-71.602 71.613a1.737 1.737 0 0 1-1.281.532zm0 0"/><path fill="#080717" d="M671.402 373.89c-.5 0-.925-.175-1.277-.53l-71.602-71.614a1.748 1.748 0 0 1-.39-.59 1.765 1.765 0 0 1 0-1.386c.09-.223.219-.418.39-.586l14.95-14.957a1.833 1.833 0 0 1 1.977-.39c.218.093.417.222.585.39l71.602 71.617c.168.168.3.363.39.586a1.838 1.838 0 0 1 0 1.386c-.09.223-.222.418-.39.586l-14.953 14.957a1.737 1.737 0 0 1-1.282.532zm0 0"/><path fill="#fff" d="M454.418 335.574a27.807 27.807 0 0 0-4.031-7.469 27.752 27.752 0 0 0-6.09-5.91s-3.879-2.625-21.738-6.496l-80.145-44.543a428.73 428.73 0 0 1-52.93-63.176c-4.82-7.09-10.125-16.324-21.175-24.027-16.645-11.594-30.485-5.586-44.016-4.871 2.332 12.05 1.394 21.606 10.324 40.273 17.953 37.524 43.164 59.22 55.32 69.551a232.108 232.108 0 0 0 48.137 31.434 232.72 232.72 0 0 0 26.61 11.012 232.31 232.31 0 0 0 27.77 7.632s22.273 5.551 28.655 13.024c6.383 7.476 6.696 8.722 12.805 7.164 6.11-1.559 8.367-3.582 5.41-5.137-3.648-1.922-5.316-10.281-2.18-15.262 3-4.75 10.598-6.718 17.274-3.199zm0 0"/><path fill="#090817" d="M430.262 361.531c-3.442 0-5.14-2.011-8.918-6.492l-1.594-1.871c-5.95-6.965-27.52-12.406-27.738-12.461l-.086-.02a235.704 235.704 0 0 1-27.926-7.73 235.91 235.91 0 0 1-26.766-11.102 235.134 235.134 0 0 1-25.199-14.304 234.974 234.974 0 0 1-23.25-17.293c-11.203-9.52-37.437-31.817-55.773-70.137a91.572 91.572 0 0 1-9.125-31.941c-.395-2.961-.762-5.758-1.34-8.762-.05-.25-.043-.5.016-.75.058-.25.167-.473.328-.676a1.773 1.773 0 0 1 1.3-.68c2.98-.156 5.946-.574 9.09-1.015 10.582-1.484 22.578-3.172 36.035 6.203 9.989 6.96 15.457 15.207 19.856 21.836.605.906 1.191 1.793 1.77 2.648a431.923 431.923 0 0 0 52.542 62.735l79.7 44.304c17.468 3.805 21.68 6.418 22.105 6.704a29.932 29.932 0 0 1 6.457 6.28 29.971 29.971 0 0 1 4.313 7.907 1.767 1.767 0 0 1-.457 1.977c-.278.25-.598.398-.97.441a1.726 1.726 0 0 1-1.042-.187c-5.973-3.153-12.559-1.211-14.957 2.582a11.482 11.482 0 0 0-1.34 4.289 11.474 11.474 0 0 0 .39 4.476c.145.797.43 1.535.856 2.223a6.357 6.357 0 0 0 1.598 1.758c2.144 1.125 2.304 2.593 2.222 3.367-.254 2.125-2.796 3.723-8.02 5.058a17.13 17.13 0 0 1-4.077.633zm-37.223-24.222c2.207.562 22.965 6 29.414 13.554l1.594 1.89c4.844 5.74 4.93 5.849 9.418 4.708a16.557 16.557 0 0 0 4.984-1.875 9.448 9.448 0 0 1-2.722-2.66 9.485 9.485 0 0 1-1.465-3.516 15.034 15.034 0 0 1-.469-5.926c.238-2.007.855-3.89 1.844-5.652 2.988-4.727 9.297-6.758 15.355-5.39a24.116 24.116 0 0 0-7.687-8.778c-.02-.012-4.157-2.555-21.125-6.234a1.754 1.754 0 0 1-.485-.176l-80.144-44.543a1.81 1.81 0 0 1-.39-.297 435.74 435.74 0 0 1-53.157-63.434c-.59-.863-1.188-1.757-1.79-2.68-4.444-6.706-9.484-14.316-18.921-20.882-12.313-8.582-23.09-7.066-33.512-5.606-2.426.344-4.914.692-7.394.907.41 2.406.71 4.734 1.015 7.004a88.658 88.658 0 0 0 8.813 30.875c18.008 37.64 43.84 59.59 54.867 68.964a231.286 231.286 0 0 0 22.934 17.051 231.141 231.141 0 0 0 24.855 14.102 230.875 230.875 0 0 0 26.402 10.937 231.672 231.672 0 0 0 27.547 7.606c.075.012.149.031.22.05zm0 0"/><path fill="#5ce1e6" d="M229.047 169.45s23.5-4.637 47.66 16.109c17.383 14.918 53.477 70.148 53.477 70.148s-9.567 30.441-30.747 43.832l-39.386-33.789c-41.672-26.18-62.113-60.852-53.488-82.996 1.757-4.496 12.769-7.473 22.484-13.305zm0 0"/><path fill="#fff" d="M206.824 523.258a1.763 1.763 0 0 1-1.23-.496 1.714 1.714 0 0 1-.387-.551 1.719 1.719 0 0 1-.156-.652l-2.227-53.957-8.758-23.403a1.683 1.683 0 0 1-.125-.691c.004-.238.055-.465.149-.684a1.79 1.79 0 0 1 1-.941c.222-.082.457-.121.691-.11.239.008.469.063.684.164.215.102.402.243.562.418.16.176.278.38.356.602l8.87 23.668c.071.176.106.36.114.55l2.227 54.243c.011.234-.024.46-.106.684a1.87 1.87 0 0 1-.36.59 1.786 1.786 0 0 1-1.23.57zM283.055 274.219c-.23 0-.453-.043-.668-.133a1.706 1.706 0 0 1-.567-.367 1.74 1.74 0 0 1-.39-.559c-.09-.21-.14-.43-.149-.66l-1.87-61.672c-.005-.234.034-.46.116-.683.082-.22.203-.415.368-.586.16-.168.347-.305.562-.399a1.772 1.772 0 0 1 2.5 1.559l1.867 61.672a1.753 1.753 0 0 1-.48 1.265 1.762 1.762 0 0 1-1.238.559zM131.973 177.727c-30.258 16.644-89.422 40.875-88.43 77.855.266 9.953 4.75 16.945 13.703 30.52a184.144 184.144 0 0 0 23.606 28.836 184.082 184.082 0 0 0 28.918 23.507 35.447 35.447 0 0 1 3.043 7.34c3.773 13.156-1.782 23.324 3.734 28.262 1.273 1.14 3.656 2.469 8.41 2.105 1.23-4.402 6.29-22.359 11.441-35.738 1.098-2.844 2.32-5.8 5.137-7.008 4.254-1.812 8.188 2.02 14.012-.234 1.508-.582 3.418-1.32 3.738-2.8.8-3.724-8.992-9.556-17.515-12.145a34.371 34.371 0 0 0-6.54-1.446 598205.49 598205.49 0 0 0-40.468-65.824c14.851-3.797 61.324-17.723 83.605-60.254a101.443 101.443 0 0 0 8.551-22.547s-30.035-4.133-54.945 9.57zm0 0"/><path fill="#090817" d="M123.418 377.984a11.538 11.538 0 0 1-4.27-.554 11.577 11.577 0 0 1-3.78-2.059c-3.571-3.191-3.337-7.937-3.063-13.426a45.423 45.423 0 0 0-1.196-15.668 33.604 33.604 0 0 0-2.687-6.597 185.273 185.273 0 0 1-28.992-23.637 185.34 185.34 0 0 1-23.668-28.965c-8.836-13.402-13.703-20.785-13.996-31.445-.887-32.801 42.902-55.371 74.87-71.848 5.227-2.695 10.165-5.238 14.477-7.62 25.133-13.825 54.793-9.954 56.04-9.782a1.751 1.751 0 0 1 1.226.765c.144.207.234.438.277.684.047.25.035.496-.023.738a103.397 103.397 0 0 1-8.703 22.938c-20.086 38.351-59.293 54.277-82.41 60.547l38.765 63.054a39.3 39.3 0 0 1 5.992 1.418c6.41 1.95 20.024 8.23 18.735 14.215-.532 2.422-3.117 3.422-4.832 4.074a14.86 14.86 0 0 1-9.008.282 7.972 7.972 0 0 0-4.942-.07c-2.07.886-3.078 3.148-4.183 6.023-4.785 12.426-9.559 29.02-11.39 35.574-.098.36-.294.656-.583.895a1.758 1.758 0 0 1-.988.398c-.57.043-1.129.066-1.668.066zm52.766-208.625c-10.809 0-28.153 1.555-43.356 9.926-4.355 2.39-9.312 4.95-14.562 7.653-31.133 16.046-73.774 38.027-72.95 68.601.25 9.258 4.29 15.762 13.407 29.594a181.661 181.661 0 0 0 23.375 28.57 181.78 181.78 0 0 0 28.648 23.27c.242.16.434.367.574.62a37.23 37.23 0 0 1 3.188 7.712 48.903 48.903 0 0 1 1.328 16.82c-.246 4.965-.426 8.54 1.887 10.61a8.274 8.274 0 0 0 2.773 1.406 8.28 8.28 0 0 0 3.094.304c2.047-7.277 6.586-22.812 11.148-34.66 1.051-2.73 2.489-6.46 6.098-8.004a11.07 11.07 0 0 1 3.508-.64 11.06 11.06 0 0 1 3.535.5c2.351.714 4.695.675 7.023-.114.754-.293 2.528-.976 2.645-1.527.344-1.594-6.457-7.086-16.3-10.074a33.031 33.031 0 0 0-6.204-1.38 1.676 1.676 0 0 1-1.336-.835L93.25 251.887a1.814 1.814 0 0 1-.176-.375 1.829 1.829 0 0 1-.082-.407 1.642 1.642 0 0 1 .016-.414c.02-.136.055-.27.105-.398.055-.125.117-.246.2-.36a1.748 1.748 0 0 1 1-.691c22.148-5.672 62.335-20.914 82.472-59.367a99.573 99.573 0 0 0 7.887-20.176c-1.797-.152-4.75-.34-8.488-.34zm-44.211 8.368zm0 0"/><path fill="#5ce1e6" d="M186.152 166.055s-26.234-2.805-42.464 2.8c-16.231 5.606-62.235 34.336-62.235 34.336s12.227 30.637 30.281 45.274c0 0 41.106-7.164 62.586-28.961 21.477-21.8 22.582-52.809 11.832-53.45zm0 0"/><path fill="#fff" d="M135.7 243.672a1.762 1.762 0 0 1-.887-.234 1.782 1.782 0 0 1-.875-1.766l5.378-41.395c.02-.242.09-.464.204-.675.113-.215.265-.395.453-.543a1.755 1.755 0 0 1 1.336-.375c.238.03.46.109.668.23a1.742 1.742 0 0 1 .824 1.113c.058.235.066.47.027.707l-5.375 41.391a1.828 1.828 0 0 1-.191.605 1.745 1.745 0 0 1-.938.824c-.203.079-.41.118-.625.118zM275.215 84.965a63.38 63.38 0 0 0-2.91-16.96 64.692 64.692 0 0 0-1.985-5.4 62.555 62.555 0 0 0-2.465-5.199 62.332 62.332 0 0 0-2.925-4.949 63.19 63.19 0 0 0-11.293-12.988 65.037 65.037 0 0 0-4.496-3.586 64.024 64.024 0 0 0-4.805-3.16 62.55 62.55 0 0 0-5.074-2.711 63.088 63.088 0 0 0-22.094-5.965 62.75 62.75 0 0 0-5.75-.207 62.686 62.686 0 0 0-11.43 1.148 63.708 63.708 0 0 0-11.039 3.203c-1.785.7-3.539 1.48-5.254 2.34a63.04 63.04 0 0 0-14.195 9.727 63.195 63.195 0 0 0-13.879 18.2 61.277 61.277 0 0 0-2.367 5.241 62.93 62.93 0 0 0-3.262 11.02c-.476-.211-.96-.39-1.457-.543a12.52 12.52 0 0 0-6.152-.305c-.508.102-1.008.234-1.5.399-.492.16-.973.355-1.442.578-.468.222-.925.472-1.363.754-.437.277-.855.582-1.258.91a12.618 12.618 0 0 0-2.129 2.258 12.39 12.39 0 0 0-1.52 2.707c-.194.48-.358.972-.495 1.472s-.238 1.008-.313 1.524a12.834 12.834 0 0 0-.125 1.547 12.906 12.906 0 0 0 .328 3.085 12.451 12.451 0 0 0 1.07 2.914c.239.461.505.907.794 1.336.293.43.613.84.953 1.23.344.388.71.755 1.097 1.103.391.343.797.66 1.227.957a12.476 12.476 0 0 0 2.754 1.43c.484.179.98.331 1.484.448.508.122 1.016.211 1.532.266.52.059 1.035.082 1.554.074.52-.008 1.035-.047 1.551-.117.512-.07 1.02-.172 1.523-.308.5-.133.993-.297 1.473-.493.281 2.676 4.067 33.356 32.379 48.672a61.89 61.89 0 0 0 7.262 3.336 62.493 62.493 0 0 0 23.477 4.125c2.667-.05 5.32-.27 7.96-.656 2.64-.39 5.242-.95 7.813-1.672a62.255 62.255 0 0 0 7.535-2.656 61.854 61.854 0 0 0 7.133-3.594 63.756 63.756 0 0 0 8.746-6.43c2.734-2.394 5.242-5 7.527-7.824a63.065 63.065 0 0 0 6.094-8.984 63.607 63.607 0 0 0 4.484-9.887c.43-.984.832-1.98 1.211-2.988a12.447 12.447 0 0 0 2.696.687c.46.063.921.102 1.386.114.465.015.93.003 1.395-.036a12.717 12.717 0 0 0 2.73-.535 12.832 12.832 0 0 0 2.547-1.117c.402-.234.79-.488 1.164-.762.375-.277.73-.57 1.074-.886.34-.317.664-.649.97-1a12.696 12.696 0 0 0 2.625-4.867 12.612 12.612 0 0 0 .288-5.524 12.78 12.78 0 0 0-1.363-3.93 12.96 12.96 0 0 0-1.594-2.281 13.004 13.004 0 0 0-2.054-1.875 12.247 12.247 0 0 0-1.172-.758 12.71 12.71 0 0 0-5.285-1.621c-.461-.035-.926-.047-1.391-.031zm0 0"/><path fill="#090817" d="M211.605 155.867a63.947 63.947 0 0 1-15.726-1.945 63.664 63.664 0 0 1-14.766-5.746c-25.652-13.88-31.718-39.848-33.008-47.91-.902.207-1.812.324-2.738.355-.937.02-1.867-.05-2.793-.21a14.151 14.151 0 0 1-2.703-.747 14.285 14.285 0 0 1-4.719-2.973 14.394 14.394 0 0 1-3.602-15.484c.329-.879.74-1.719 1.227-2.52a14.469 14.469 0 0 1 3.79-4.093 14.565 14.565 0 0 1 2.417-1.418 14.16 14.16 0 0 1 2.645-.926c.91-.223 1.836-.355 2.773-.395 1.453-.05 2.88.118 4.282.508a63.873 63.873 0 0 1 1.562-5.582 64.668 64.668 0 0 1 7.563-15.61 65.304 65.304 0 0 1 7.23-9.05 65.4 65.4 0 0 1 8.723-7.621 65.508 65.508 0 0 1 4.836-3.2 66.016 66.016 0 0 1 5.097-2.753 64.612 64.612 0 0 1 10.836-4.094 63.21 63.21 0 0 1 5.645-1.308 64.626 64.626 0 0 1 11.531-1.086 65.211 65.211 0 0 1 5.793.23 65.019 65.019 0 0 1 16.93 3.758 64.68 64.68 0 0 1 5.347 2.242 64.15 64.15 0 0 1 5.125 2.707 65.132 65.132 0 0 1 9.426 6.727 65.432 65.432 0 0 1 4.23 3.964 66.421 66.421 0 0 1 3.856 4.329 64.596 64.596 0 0 1 6.484 9.597 64.14 64.14 0 0 1 2.579 5.192 65.758 65.758 0 0 1 3.719 10.973 65.546 65.546 0 0 1 1.71 11.456 13.98 13.98 0 0 1 2.664.493c.875.25 1.715.578 2.528.984.808.41 1.574.89 2.293 1.441a14.442 14.442 0 0 1 4.754 6.48 14.493 14.493 0 0 1 .867 5.329 14.528 14.528 0 0 1-1.16 5.273 14.33 14.33 0 0 1-1.297 2.38 14.004 14.004 0 0 1-1.72 2.093 14.537 14.537 0 0 1-2.081 1.738c-.75.512-1.54.95-2.371 1.313-.832.363-1.692.644-2.574.844-.887.203-1.782.316-2.688.347a14.18 14.18 0 0 1-3.871-.394 73.605 73.605 0 0 1-.64 1.52 65.094 65.094 0 0 1-4.594 10.144 64.89 64.89 0 0 1-6.258 9.21 64.835 64.835 0 0 1-7.73 8.008 65.503 65.503 0 0 1-8.985 6.579 63.27 63.27 0 0 1-15.621 6.613 63.34 63.34 0 0 1-16.817 2.238zm-62.027-59.691a1.769 1.769 0 0 1 1.762 1.594c.355 3.285 4.176 32.539 31.46 47.3a60.74 60.74 0 0 0 14.46 5.555 60.481 60.481 0 0 0 15.398 1.7 60.379 60.379 0 0 0 22.647-4.845 60.563 60.563 0 0 0 6.93-3.496 61.722 61.722 0 0 0 15.828-13.84 61.393 61.393 0 0 0 5.914-8.738 61.645 61.645 0 0 0 4.343-9.617c.461-1.066.852-2.039 1.223-3.016.082-.218.203-.414.367-.585.16-.172.348-.305.559-.403.215-.094.441-.148.676-.156.234-.008.46.031.68.113a10.896 10.896 0 0 0 2.316.59 11.103 11.103 0 0 0 2.39.066c.399-.03.793-.086 1.188-.164.39-.078.777-.175 1.16-.293a10.527 10.527 0 0 0 2.188-.965c.343-.199.68-.417 1-.652a10.815 10.815 0 0 0 1.757-1.625 10.733 10.733 0 0 0 1.867-3.05c.149-.368.278-.747.387-1.133.11-.383.195-.774.258-1.168.066-.395.11-.79.129-1.192a11.092 11.092 0 0 0-.137-2.386c-.07-.395-.156-.782-.265-1.168a10.976 10.976 0 0 0-1.54-3.227 10.848 10.848 0 0 0-9.25-4.625c-.234 0-.457-.043-.675-.129a1.83 1.83 0 0 1-.578-.363 1.82 1.82 0 0 1-.403-.555 1.797 1.797 0 0 1-.172-.664 61.82 61.82 0 0 0-.441-5.574 61.122 61.122 0 0 0-4.309-16.168 61.607 61.607 0 0 0-2.398-5.055 60.834 60.834 0 0 0-2.844-4.816 61.863 61.863 0 0 0-6.938-8.758 60.868 60.868 0 0 0-4.038-3.867 59.574 59.574 0 0 0-4.372-3.489 60.552 60.552 0 0 0-4.671-3.074 60.284 60.284 0 0 0-4.93-2.64 63.274 63.274 0 0 0-5.149-2.176 62.109 62.109 0 0 0-5.328-1.703 61.88 61.88 0 0 0-5.46-1.211 62.024 62.024 0 0 0-11.133-.91c-1.868.02-3.727.12-5.586.308-1.856.184-3.7.457-5.532.813a61.875 61.875 0 0 0-5.437 1.312 61.443 61.443 0 0 0-10.402 4.074 61.47 61.47 0 0 0-4.88 2.73 62.905 62.905 0 0 0-4.613 3.161 61.707 61.707 0 0 0-11.859 11.805 62.084 62.084 0 0 0-3.184 4.597 60.812 60.812 0 0 0-2.754 4.868 62.175 62.175 0 0 0-2.3 5.097 63.005 63.005 0 0 0-1.828 5.285 61.831 61.831 0 0 0-1.336 5.43c-.055.266-.16.504-.325.719a1.754 1.754 0 0 1-2.133.555 10.63 10.63 0 0 0-4.75-.934 10.924 10.924 0 0 0-3.468.684c-.371.14-.73.296-1.086.476a11.039 11.039 0 0 0-1.98 1.29c-.305.25-.598.515-.876.8-.277.281-.535.578-.78.887-.243.312-.47.632-.68.968a10.733 10.733 0 0 0-1.355 3.27 10.678 10.678 0 0 0-.231 3.531 10.817 10.817 0 0 0 .914 3.414c.164.364.347.711.547 1.051a11.09 11.09 0 0 0 1.421 1.89 10.606 10.606 0 0 0 1.793 1.54 11.124 11.124 0 0 0 2.09 1.113c.363.145.738.27 1.121.379a10.708 10.708 0 0 0 2.332.379c.395.02.79.02 1.184 0 .394-.024.785-.067 1.176-.133.39-.066.777-.152 1.156-.258.379-.11.754-.234 1.121-.383.211-.09.434-.136.664-.14zm0 0"/><path fill="#080717" d="M167.922 79.531c-.371 0-.707-.105-1.016-.32a1.727 1.727 0 0 1-.648-.84 1.733 1.733 0 0 1-.051-1.062c.094-.36.285-.66.566-.903a27.674 27.674 0 0 1 2.993-2.316 27.598 27.598 0 0 1 14.219-4.672 27.844 27.844 0 0 1 7.519.7c1.234.288 2.437.66 3.621 1.112.215.094.402.227.563.399.164.168.285.363.37.582.087.219.126.445.118.68a1.753 1.753 0 0 1-.547 1.242c-.168.16-.363.285-.582.37a1.686 1.686 0 0 1-.68.118 1.753 1.753 0 0 1-.676-.148 24.02 24.02 0 0 0-6.402-1.45 24.18 24.18 0 0 0-18.227 6.082 1.72 1.72 0 0 1-1.14.426zM193.129 91.813a6.785 6.785 0 0 1-1.14 3.765 6.454 6.454 0 0 1-.844 1.027 6.75 6.75 0 0 1-2.2 1.469 6.788 6.788 0 0 1-2.594.52 6.858 6.858 0 0 1-2.593-.52 6.479 6.479 0 0 1-1.172-.625 6.454 6.454 0 0 1-1.027-.844 6.75 6.75 0 0 1-1.469-2.2 6.788 6.788 0 0 1-.52-2.594 6.858 6.858 0 0 1 .52-2.592 6.646 6.646 0 0 1 1.469-2.203 6.649 6.649 0 0 1 1.027-.84c.367-.25.758-.457 1.172-.63.41-.167.836-.296 1.27-.386a6.854 6.854 0 0 1 2.644 0 6.77 6.77 0 0 1 2.445 1.016c.371.246.711.527 1.028.84a6.646 6.646 0 0 1 1.469 2.203c.171.41.3.832.386 1.27.086.437.129.878.129 1.323zM252.96 80.832a1.71 1.71 0 0 1-1.296-.562 19.625 19.625 0 0 0-2.11-1.961 19.701 19.701 0 0 0-4.968-2.895 19.881 19.881 0 0 0-2.75-.867 19.508 19.508 0 0 0-8.582-.098c-.945.2-1.867.469-2.77.805a1.688 1.688 0 0 1-.683.11 1.742 1.742 0 0 1-1.23-.563 1.735 1.735 0 0 1-.364-.59 1.753 1.753 0 0 1 .047-1.356 1.774 1.774 0 0 1 .992-.921 23.214 23.214 0 0 1 6.75-1.407c2.32-.132 4.613.075 6.871.621a23.177 23.177 0 0 1 6.184 2.524 22.97 22.97 0 0 1 5.203 4.183c.238.258.39.56.45.907.058.347.019.683-.122 1.008-.14.32-.36.582-.652.773a1.73 1.73 0 0 1-.973.289zM246.172 92.133a6.886 6.886 0 0 1-.516 2.594c-.172.41-.379.8-.629 1.171a6.454 6.454 0 0 1-.843 1.028 6.603 6.603 0 0 1-1.024.844 6.93 6.93 0 0 1-1.176.628c-.41.168-.832.297-1.27.383-.437.09-.878.133-1.323.133a6.925 6.925 0 0 1-2.594-.516c-.41-.171-.8-.382-1.172-.628a6.633 6.633 0 0 1-1.027-.844 6.907 6.907 0 0 1-.844-1.028 6.898 6.898 0 0 1-1.012-2.441 6.854 6.854 0 0 1 0-2.648 6.898 6.898 0 0 1 1.012-2.442c.25-.37.531-.715.844-1.027a6.77 6.77 0 0 1 2.2-1.473 6.925 6.925 0 0 1 2.593-.515c.445 0 .886.043 1.324.132a6.664 6.664 0 0 1 3.469 1.855c.316.313.597.657.843 1.028.25.367.457.758.63 1.172a6.886 6.886 0 0 1 .515 2.594zM212.402 109.832a33.649 33.649 0 0 1-3.765-.223 1.73 1.73 0 0 1-.649-.222 1.728 1.728 0 0 1-.515-.45 1.73 1.73 0 0 1-.36-1.292c.024-.23.094-.45.207-.653a1.782 1.782 0 0 1 1.047-.84c.223-.066.453-.086.684-.062 3.656.426 7.648.097 8.203-.688.46-1.453-1.895-9.777-4.43-16.566a1.78 1.78 0 0 1 .453-1.918c.172-.16.368-.281.59-.363a1.747 1.747 0 0 1 1.355.047 1.747 1.747 0 0 1 .926.992c2.836 7.597 5.825 17.203 4.016 19.82-1.351 1.977-4.863 2.418-7.762 2.418zm0 0"/><path fill="#5ce1e6" d="M176.168 102.574c.613.031 1.219.102 1.816.207.602.11 1.18.254 1.739.434.562.183 1.09.398 1.59.644.5.25.96.528 1.378.832.422.305.793.633 1.121.98.325.352.594.72.813 1.099.215.382.375.773.473 1.171a4.068 4.068 0 0 1-.118 2.383c-.136.39-.335.762-.59 1.121-.25.36-.558.696-.913 1.012-.36.316-.762.606-1.211.867-.45.262-.934.492-1.453.692-.524.195-1.07.359-1.645.484a13.85 13.85 0 0 1-1.773.262 14.052 14.052 0 0 1-3.648-.184c-.602-.105-1.18-.25-1.74-.433-.562-.18-1.089-.395-1.589-.645a9.34 9.34 0 0 1-1.379-.828 7.658 7.658 0 0 1-1.121-.984 5.707 5.707 0 0 1-.809-1.098 4.54 4.54 0 0 1-.476-1.172 4.029 4.029 0 0 1 .117-2.383 4.73 4.73 0 0 1 .59-1.117c.254-.36.558-.7.914-1.016.36-.316.762-.605 1.21-.867.45-.262.934-.492 1.454-.687.523-.2 1.07-.36 1.644-.485a13.194 13.194 0 0 1 1.774-.261 14.319 14.319 0 0 1 1.832-.028zM244.777 104.258c.618.031 1.223.101 1.82.21a12.564 12.564 0 0 1 3.329 1.079c.5.246.957.523 1.379.828.422.305.793.633 1.117.984.324.348.598.715.812 1.098.22.383.375.773.477 1.172a4.029 4.029 0 0 1-.117 2.383 4.73 4.73 0 0 1-.59 1.117c-.254.36-.559.7-.918 1.016a7.444 7.444 0 0 1-1.207.867c-.45.261-.934.492-1.457.687-.52.2-1.07.36-1.645.485-.574.125-1.164.214-1.77.261a14.329 14.329 0 0 1-3.652-.18 13.957 13.957 0 0 1-1.738-.433 12.009 12.009 0 0 1-1.586-.644c-.5-.25-.96-.524-1.383-.833a7.602 7.602 0 0 1-1.117-.98 6.169 6.169 0 0 1-.812-1.098 4.833 4.833 0 0 1-.477-1.172c-.097-.402-.14-.8-.12-1.203.023-.398.1-.793.241-1.18.137-.386.332-.761.586-1.12.254-.36.559-.696.918-1.012a7.619 7.619 0 0 1 1.207-.867c.45-.262.934-.493 1.457-.692.52-.195 1.07-.36 1.645-.484a13.75 13.75 0 0 1 3.601-.29zm0 0"/><g clip-path="url(#e)"><path fill="#080717" d="M142.438 73.883a8.218 8.218 0 0 1 2.164.496 8.347 8.347 0 0 1 4.707 4.492c2.504 4.961 10.246 5.942 13.316-6.937 3.074-12.875 19.902-40.184 40.598-43.582 0 0 2.355 24.925 30.035 26.335 27.676 1.41 30.793 31.739 34.16 34.403 3.367 2.664 6.629-3.48 9.836-4.02 3.21-.535 8.535 5.012 8.535 5.012 6.035-11.973 11.371-27.465 4.82-38.723-3.464-5.945-7.265-5.586-19.136-13.379-24.203-15.89-26.614-29.335-41.551-31.324-4.637-.617-11.914-.324-21.625 5.399-31.469 1.98-54.836 9.836-61.379 18.578a26.62 26.62 0 0 0-5.215 11.703c-.621 5.191 1.14 7.957 2.02 13.644.867 6.063.441 12.028-1.286 17.903zm0 0"/></g><path fill="#080717" d="M146.207 93.043c-.355 0-.68-.098-.973-.293a6.744 6.744 0 0 1-2.3-2.152 6.769 6.769 0 0 1-1.098-2.953 7.746 7.746 0 0 1 .937-4.332h-4.343a1.74 1.74 0 0 1-.676-.137 1.741 1.741 0 0 1-.574-.383 1.748 1.748 0 0 1-.52-1.254c0-.234.043-.46.133-.68a1.773 1.773 0 0 1 .96-.957 1.74 1.74 0 0 1 .677-.136h7.785c.36 0 .687.101.984.304.297.2.516.465.653.797.132.332.168.676.093 1.028-.07.351-.234.652-.492.906a6.765 6.765 0 0 0-1.465 2.054 6.825 6.825 0 0 0-.62 2.45c.093.53.3 1.015.62 1.449.32.437.719.781 1.196 1.031.328.215.558.508.691.875.133.367.145.738.031 1.113-.113.375-.324.68-.64.915a1.713 1.713 0 0 1-1.059.347zM273.832 106.016c-.383 0-.73-.114-1.039-.34a1.685 1.685 0 0 1-.645-.883 1.718 1.718 0 0 1-.003-1.094c.117-.363.328-.66.636-.886.477-.297.867-.68 1.176-1.153.305-.469.496-.984.574-1.539a7.247 7.247 0 0 0-.566-2.582 7.289 7.289 0 0 0-1.434-2.219 1.732 1.732 0 0 1-.449-.91 1.751 1.751 0 0 1 .125-1.008 1.769 1.769 0 0 1 1.625-1.062h8.754a1.775 1.775 0 0 1 .68 3.41c-.22.09-.446.137-.68.137h-5.457a8.516 8.516 0 0 1 .933 4.55 7.235 7.235 0 0 1-1.019 2.965 7.233 7.233 0 0 1-2.164 2.27c-.313.226-.66.344-1.047.344zM212.688 130.656a1.7 1.7 0 0 1-1.313-.578 16.46 16.46 0 0 0-3.371-2.937 16.599 16.599 0 0 0-8.434-2.727 16.57 16.57 0 0 0-4.453.414 1.862 1.862 0 0 1-.687.059 1.792 1.792 0 0 1-1.188-.657 1.67 1.67 0 0 1-.316-.613 1.772 1.772 0 0 1-.063-.687c.028-.235.098-.453.207-.66a1.8 1.8 0 0 1 1.059-.848 19.917 19.917 0 0 1 5.426-.55c.914.03 1.82.12 2.722.276.899.153 1.786.368 2.657.645a20 20 0 0 1 7.117 3.977c.691.597 1.34 1.238 1.945 1.921.234.262.383.563.438.91.054.344.011.68-.13 1-.14.32-.359.579-.652.77a1.732 1.732 0 0 1-.964.285zm0 0"/><path fill="#fff" d="M159.988 50.023c-.105 0-.21-.007-.316-.027a1.839 1.839 0 0 1-.645-.254 1.816 1.816 0 0 1-.496-.48 1.704 1.704 0 0 1-.277-.633c-.05-.23-.055-.461-.012-.691.035-.204 3.942-20.356 27.711-25.836a1.752 1.752 0 0 1 1.336.223c.2.124.367.284.504.476.137.191.23.398.285.629a1.752 1.752 0 0 1-.227 1.336 1.762 1.762 0 0 1-1.105.789c-21.516 4.96-24.98 22.832-25.016 23.011-.039.204-.109.395-.21.575-.106.18-.239.336-.395.468a1.69 1.69 0 0 1-.531.309 1.78 1.78 0 0 1-.606.105zM252.96 50.023h-.089c-27.57-1.398-36.52-19.89-36.89-20.68a1.788 1.788 0 0 1-.165-.667 1.763 1.763 0 0 1 .465-1.273 1.738 1.738 0 0 1 1.227-.575 1.77 1.77 0 0 1 1.684 1.012 30.121 30.121 0 0 0 7.32 8.863c6.96 5.957 15.89 9.25 26.539 9.793.234.004.46.055.676.152.214.094.402.227.562.399.164.168.285.363.371.582.082.219.121.445.117.684a1.812 1.812 0 0 1-.152.671 1.784 1.784 0 0 1-.98.938c-.22.082-.45.121-.684.117zM246.926 36.398a28.961 28.961 0 0 1-12.48-2.964 1.757 1.757 0 0 1-.52-.442 1.744 1.744 0 0 1-.317-.601 1.818 1.818 0 0 1-.066-.68c.023-.23.09-.45.195-.652.11-.204.254-.383.43-.532.176-.148.375-.257.598-.328.218-.074.445-.097.675-.082.23.02.45.078.657.18.082.043 8.289 4.265 16.332 1.746a1.785 1.785 0 0 1 1.351.121c.211.11.39.254.54.434.152.18.261.382.331.605.07.227.098.453.075.688-.02.234-.082.457-.192.664-.11.21-.254.39-.433.539-.18.152-.383.261-.61.332-2.137.66-4.328.984-6.566.972zm0 0"/><path fill="#080717" d="M265.305 784.102c-.344 0-.66-.094-.953-.282a1.727 1.727 0 0 1-.653-.746 1.745 1.745 0 0 1-.148-.984c.047-.34.183-.645.406-.906.547-.641 13.606-15.57 39.656-10.34a1.786 1.786 0 0 1 1.11.758c.129.195.214.406.257.636.043.227.043.457 0 .684a1.874 1.874 0 0 1-.261.633 1.758 1.758 0 0 1-1.113.754 1.77 1.77 0 0 1-.688.007c-23.934-4.796-36.145 9.028-36.266 9.168-.351.414-.8.618-1.347.618zM94.762 252.727c-.328 0-.63-.082-.907-.247-11.28-6.734-26.199-8.804-26.351-8.824a1.768 1.768 0 0 1-1.16-.687 1.738 1.738 0 0 1-.297-.617 1.704 1.704 0 0 1-.043-.688c.031-.23.105-.45.223-.648.117-.203.265-.375.449-.52.187-.14.39-.242.617-.305.227-.062.453-.078.684-.046.64.082 15.77 2.18 27.695 9.292.34.204.586.493.734.86.149.371.168.746.063 1.133a1.73 1.73 0 0 1-.633.937c-.32.242-.676.363-1.074.36zM325.512 283.25a1.768 1.768 0 0 1-1.59-.992 1.762 1.762 0 0 1-.172-.957c.035-.336.152-.637.36-.906.304-.395 7.597-9.723 18.09-11 .23-.028.46-.012.687.05a1.807 1.807 0 0 1 1.07.836 1.798 1.798 0 0 1 .164 1.348 1.74 1.74 0 0 1-.312.617 1.763 1.763 0 0 1-1.18.668c-9 1.094-15.649 9.559-15.715 9.645-.355.46-.82.691-1.402.691zm0 0"/></svg>