<svg xmlns="http://www.w3.org/2000/svg" width="1080" viewBox="0 0 810 810" height="1080" version="1.0"><defs><clipPath id="a"><path d="M132 4.348h27V21h-27zm0 0"/></clipPath><clipPath id="b"><path d="M590 756h109v49.348H590zm0 0"/></clipPath><clipPath id="c"><path d="M590 756h93v49.348h-93zm0 0"/></clipPath><clipPath id="d"><path d="M249 756h109v49.348H249zm0 0"/></clipPath><clipPath id="e"><path d="M265 756h93v49.348h-93zm0 0"/></clipPath></defs><path fill="#e68564" d="M392.203 622.578c10.848-4.8 20.215-15.207 24.563-28.976l33.242-105.559c7.148-22.734-2.125-45.906-20.73-51.762-18.618-5.855-19.239 6.996-26.4 29.73l-53.503 106.407c-4.008 12.68-2.879 25.5 2.137 35.36-4.133 1.023-9.918 23.843-5.422 26.324-1.11 2.246-2.067 4.511-2.774 6.757 0 0-4.421 32.899-10.695 70.68-3.902 23.488-10.035 50.172-14.074 57.11l28.324 8.91c9.106-17.84 17.723-57.645 38.078-87.168 11.723-16.993 17.414-47.305 7.254-67.813M299.227 632.504l8.117 6.723c.285.402.62.757 1.054 1.011 0 0 10.461 4.457 11.29 2.692.816-1.77.226-3.977-1.329-4.907l-6.105-3.675-.3-.301L303 626.64"/><path fill="#e68564" d="m293.96 639.555 11.88 9.82a4.953 4.953 0 0 0 1.523 1.504s15.305 6.516 16.52 3.918c1.21-2.582.34-5.805-1.938-7.168l-8.937-5.367-.442-.461-13.093-10.809"/><path fill="#e68564" d="m294.363 648.164 11.883 9.82a4.844 4.844 0 0 0 1.524 1.496s15.312 6.524 16.515 3.926c1.215-2.593.348-5.804-1.937-7.18l-8.934-5.355-.445-.453-13.094-10.828"/><path fill="#e68564" d="M307.484 604.563c-.168 4.085-2.16 10.226 1.461 12.695-2.87 20.219-16.828 20.453 1.157 47.05.074 9.618-19.446-7.308-23.262-18.062-1.008-2.828-4.442-12.48-4.754-14.879-1.86-14.363 1.797-20.547 4.101-33.148"/><path fill="#e68564" d="M301.559 621.105c.359 6.184 4.14 15.141 6.578 15.243 6.207.254 2.574-9.7 2.226-15.883-.347-6.184.239-18.817-5.039-18.442M293.555 655.879l9.238 12.96a5.268 5.268 0 0 0 1.129 1.9s13.3 10.792 15.058 8.64c1.762-2.145 1.657-5.5-.234-7.504l-7.402-7.8-.32-.563-10.188-14.305"/><path fill="#e68564" d="M309.621 608.36c3-16.524-11.926-110.364-11.926-110.364-2.37-11.055-9.09-19.41-17.086-22.687 8.743-11.817 11.977-33.555 8.59-49.309l-10.367-48.34c-4.516-21.023-31.21-60.715-35.66-42.238-5.758 23.95-26.227 37.05-21.711 58.078l8.336 48.902c2.734 12.746 10.91 26.711 20.59 34.727-4.457 1.648-7.13 6.902-6 12.156.816 3.832 3.46 6.606 6.62 7.5a38.389 38.389 0 0 0 .423 13.977s12.89 25.187 24.582 57.398c7.261 20.028 11.672 29.125 11.672 36.45"/><path fill="#30536e" d="M515.922 391.3c1.625 23.75-110.719 60.962-110.719 60.962s-22.379-31.242-52.82-41.723c-34.192-11.797-31.867 10.649-118.41-56.703-3.602-2.8 6.566-17.004 6.566-17.004l66.25-96.8 23.742-19.708s165.457 79.203 185.39 170.977"/><g clip-path="url(#a)"><path fill="#e68564" d="m154.277 20.82-10.129-8.195c-3.574.34-10.96.836-11.441-.781-.648-2.153.406-4.313 2.352-4.828l8.664-2.352c1.168-.309 2.37.04 3.293.82.265.13.52.282.754.47l10.648 8.628"/></g><path fill="#e68564" d="m154.27 23.914-12.739-6.531c-3.77 1.297-11.617 3.758-12.5 2.074-1.168-2.227-.52-4.906 1.465-5.996l8.816-4.848c1.176-.648 2.56-.566 3.735.055.3.086.61.18.91.34l13.387 6.87"/><path fill="#e68564" d="m152.207 30.758-14.59-7.492c-4.316 1.496-13.32 4.304-14.336 2.379-1.336-2.547-.582-5.633 1.684-6.872l10.105-5.566c1.364-.742 2.934-.648 4.278.066a5.14 5.14 0 0 1 1.047.387l17.468 8.395"/><path fill="#e68564" d="M154.418 11.621c11.402 8.055 12.871 9.879 22.773 22.18 7.594 9.418 13.782 17.699 13.641 23.48 20.754 10.367 75.707 72.887 75.707 72.887 3.36 4.176 5.672 8.844 6.941 13.562 2.551.16 5.11 1.403 6.98 3.735 2.145 2.656 2.88 6.05 2.247 9.066 9.266 1.016 18.871 6.262 26.145 15.293l35.753 44.403c13.235 16.43 13.754 39.078 1.149 50.585-12.598 11.512-33.547 7.516-46.77-8.91l-35.765-44.41c-9.52-11.816-12.418-26.844-8.625-38.633-8.149.153-17.047-4.117-23.586-12.234 0 0-13.235-28.133-30.824-57.438-10.301-17.164-20.262-32.464-25.973-37.824-3.988-.664-7.75-3.062-11.402-6.472-2.106 1.398-5.352-.641-9.329-2.438-5.277-2.394-12.878-4.687-10.246-10.648 1.028-2.34 7.875-.63 13.141 1.75.555.261 1.094.527 1.61.808 1.449-1.523 2.37-3.73-1.844-7.453-3.754-3.328-6.293-6.785-7.903-10.14"/><path fill="#e68564" d="m152.633 39.215-14.871-6.305c-4.32 1.485-13.32 4.305-14.328 2.375-1.336-2.555-.594-5.629 1.675-6.879l10.11-5.554c1.347-.743 2.926-.657 4.273.066.356.086.703.207 1.051.387l15.344 7.883M564.281 624.395c-10.828-4.84-20.168-15.286-24.449-29.063l-32.855-105.684c-7.075-22.761 2.293-45.902 20.918-51.683 18.636-5.781 39.48 7.98 46.554 30.746l32.848 105.68c3.953 12.699 2.777 25.507-2.266 35.359 4.121 1.035 9.82 23.871 5.317 26.336 1.097 2.254 2.05 4.531 2.746 6.777 0 0 4.297 32.914 10.43 70.707 3.82 23.516 9.859 50.22 13.867 57.172l-28.36 8.801c-9.031-17.867-17.5-57.703-37.75-87.309-11.656-17.03-17.234-47.359-7-67.84"/><path fill="#a8ddf7" d="m623.094 770.367 22.855 4.176c.64-1.695 33.02 9.906 31.23 8.879-19.96-11.524-37.964-20.723-45.12-28.852-3.258-3.703-7.696 1.578-9.032 10.242-.265 1.731-.218 3.622.067 5.555"/><path fill="#a8ddf7" d="M645.941 783.121c1.008-6.531 5.278-11.71 10.676-13.871-3.008-1.75-5.86-3.188-8.457-3.977-1.137 4.918-3.262 9.625-5.945 13.207-5.285 7.06-13.016 11.25-21.164 12.707-3.742.676-7.985.602-12.004-.046.633.347 1.355.601 2.21.761.821.141 8.438 5.555 18.177 3.317 10.937-2.528 11.785 1.504 22.714 5.039-4.625-3.95-7.23-10.492-6.207-17.137M678.348 789.043a19.21 19.21 0 0 0-.215-6.926 37.486 37.486 0 0 0 5.105 2.012c3.567 5.168 8.946 8.683 15.024 9.84-1.946 5.273-8.946 10.808-19.172 10.34-4.785-.227-8.887-.575-12.445-1.024 5.878-1.89 10.64-7.297 11.703-14.242"/><g clip-path="url(#b)"><path fill="#30536e" d="M591.11 777.54c.14-1.653.988-7 .867-8.806-1.055-14.382 8.578-13.027 9.78-10.922 1.852 3.25-2.03 11.606 6.84 12.028 2.419.125 9.18 1.168 14.024-.055 2.606-.668 10.79-3.41 10.79-3.41 3.019-2.5 9.116-4.605 14.75-1.102 11.769 3.61 29.527 15.696 41.456 19.786 16.067 5.5 9.012 20.14-10.527 19.25-1.899-.086-3.688-.2-5.38-.329-.565.215-1.155.403-1.769.582l-.48.13a17.4 17.4 0 0 1-.75.18 7.798 7.798 0 0 1-.707.14l-.64.125c-.43.062-.891.12-1.344.168l-.508.035c-.36.039-.727.058-1.09.066l-.492.02c-.528.011-1.051.011-1.598-.028-.875-.027-1.71-.086-2.539-.12l-.547-.04c-.8-.054-1.59-.101-2.351-.16l-.31-.02c-.687-.066-1.366-.113-2.023-.175l-.433-.04c-.707-.066-1.39-.14-2.059-.206l-.425-.047c-.61-.067-1.204-.14-1.778-.215l-.262-.02a81.346 81.346 0 0 1-1.824-.265l-.433-.055c-.586-.086-1.157-.18-1.723-.262l-.113-.03a43.482 43.482 0 0 1-1.524-.27l-.394-.078c-.5-.094-.989-.188-1.457-.29l-.313-.058c-.402-.082-.797-.176-1.176-.262l-.336-.074a84.175 84.175 0 0 1-1.253-.313l-.368-.093c-.336-.094-.668-.168-.996-.262l-.246-.074c-.375-.106-.73-.207-1.078-.313l-.367-.113c-.32-.094-.633-.195-.934-.3l-.32-.114a11.786 11.786 0 0 1-.715-.242l-.375-.133c-.273-.094-.535-.195-.8-.29l-.376-.14-.488-.199-.379-.16-.637-.254-.46-.207-.227-.094c-3.941-1.73-6.305-3.262-9.559-3.738h-.02c-.269-.031-.534-.059-.796-.098a18.365 18.365 0 0 0-.688-.035h-.085c-.47-.02-.97-.02-1.485.008l-.133.012a7.59 7.59 0 0 0-.808.066 12.95 12.95 0 0 0-.82.082l-.188.027c-.29.04-.574.094-.883.133l-.02.008c-.292.059-.601.113-.902.18l-.246.047c-.32.058-.648.132-.988.207-9.727 2.246-17.356-3.157-18.164-3.317a7.36 7.36 0 0 1-1.156-.293l-.215-.094a5.045 5.045 0 0 1-.782-.347l-.066-.02h.027c-3.902-2.113-3.808-7.629-3.207-14.699"/></g><g clip-path="url(#c)"><path fill="#a8ddf7" d="M591.11 777.54c.14-1.653.988-7 .867-8.806-1.055-14.382 8.578-13.027 9.78-10.922 1.852 3.25-2.03 11.606 6.84 12.028 2.419.125 9.18 1.168 14.024-.055 2.606-.668 76.008 35.414 56.469 34.524-1.899-.086-3.688-.2-5.38-.329-.565.215-1.155.403-1.769.582l-.48.13a17.4 17.4 0 0 1-.75.18 7.798 7.798 0 0 1-.707.14l-.64.125c-.43.062-.891.12-1.344.168l-.508.035c-.36.039-.727.058-1.09.066l-.492.02c-.528.011-1.051.011-1.598-.028-.875-.027-1.71-.086-2.539-.12l-.547-.04c-.8-.054-1.59-.101-2.351-.16l-.31-.02c-.687-.066-1.366-.113-2.023-.175l-.433-.04c-.707-.066-1.39-.14-2.059-.206l-.425-.047c-.61-.067-1.204-.14-1.778-.215l-.262-.02a81.346 81.346 0 0 1-1.824-.265l-.433-.055c-.586-.086-1.157-.18-1.723-.262l-.113-.03a43.482 43.482 0 0 1-1.524-.27l-.394-.078c-.5-.094-.989-.188-1.457-.29l-.313-.058c-.402-.082-.797-.176-1.176-.262l-.336-.074a84.175 84.175 0 0 1-1.253-.313l-.368-.093c-.336-.094-.668-.168-.996-.262l-.246-.074c-.375-.106-.73-.207-1.078-.313l-.367-.113c-.32-.094-.633-.195-.934-.3l-.32-.114a11.786 11.786 0 0 1-.715-.242l-.375-.133c-.273-.094-.535-.195-.8-.29l-.376-.14-.488-.199-.379-.16-.637-.254-.46-.207-.227-.094c-3.941-1.73-6.305-3.262-9.559-3.738h-.02c-.269-.031-.534-.059-.796-.098a18.365 18.365 0 0 0-.688-.035h-.085c-.47-.02-.97-.02-1.485.008l-.133.012a7.59 7.59 0 0 0-.808.066 12.95 12.95 0 0 0-.82.082l-.188.027c-.29.04-.574.094-.883.133l-.02.008c-.292.059-.601.113-.902.18l-.246.047c-.32.058-.648.132-.988.207-9.727 2.246-17.356-3.157-18.164-3.317a7.36 7.36 0 0 1-1.156-.293l-.215-.094a5.045 5.045 0 0 1-.782-.347l-.066-.02h.027c-3.902-2.113-3.808-7.629-3.207-14.699"/></g><path fill="#30536e" d="M631.184 784.21c1.004-6.53-1.047-8.21-3.727-4.632-5.285 7.059-13.008 11.25-21.164 12.707-3.746.668-7.988.602-12.004-.047.629.34 1.363.602 2.219.754.808.16 8.437 5.563 18.164 3.317 10.941-2.528 11.797 1.504 22.719 5.046-4.618-3.945-7.235-10.488-6.207-17.144"/><path fill="#fff" d="M663.11 790.707c.394 0 .78-.254.949-.676 4.421-11.09 13.593-7.625 13.98-7.472.535.207 1.129-.094 1.324-.676.188-.582-.086-1.242-.629-1.45-.113-.035-11.382-4.304-16.574 8.696-.226.562.008 1.23.535 1.476l.414.102"/><path fill="#fff" d="M657.031 786.996c.395 0 .782-.254.95-.68 4.421-11.07 13.585-7.613 13.98-7.46.535.214 1.129-.094 1.316-.676.2-.582-.086-1.242-.62-1.45-.114-.046-11.391-4.312-16.575 8.696-.227.562.02 1.23.535 1.476l.414.094"/><path fill="#fff" d="M650.957 783.293c.395 0 .77-.254.95-.68 4.421-11.078 13.581-7.62 13.968-7.468.547.214 1.137-.086 1.336-.668.187-.594-.086-1.243-.633-1.457-.11-.04-11.379-4.305-16.574 8.69-.223.575.012 1.235.539 1.49l.414.093M643.805 779.59c.406 0 .78-.266.953-.68 4.43-11.078 13.59-7.62 13.976-7.46.536.195 1.13-.106 1.328-.688.188-.582-.085-1.23-.62-1.446-.114-.039-11.395-4.304-16.575 8.692-.238.566.008 1.234.524 1.488l.414.094"/><path fill="#fff" d="M637.664 776.422c.395 0 .781-.254.95-.668 4.421-11.082 13.581-7.621 13.98-7.473.535.215 1.129-.093 1.316-.676.195-.593-.086-1.23-.62-1.449-.114-.047-11.392-4.304-16.575 8.688-.227.57.008 1.238.535 1.484l.414.094"/><path fill="#a8ddf7" d="m324.785 770.367-22.86 4.176c-.64-1.695-33.007 9.906-31.218 8.879 19.961-11.524 37.965-20.723 45.113-28.852 3.254-3.703 7.696 1.578 9.032 10.242.261 1.731.214 3.622-.067 5.555"/><path fill="#a8ddf7" d="M301.938 783.121c-1-6.531-5.27-11.71-10.68-13.871 3.02-1.75 5.87-3.188 8.457-3.977 1.14 4.918 3.273 9.625 5.945 13.207 5.297 7.06 13.02 11.25 21.176 12.707 3.734.676 7.984.602 12.004-.046-.633.347-1.363.601-2.223.761-.808.141-8.437 5.555-18.164 3.317-10.937-2.528-11.793 1.504-22.726 5.039 4.628-3.95 7.234-10.492 6.21-17.137M269.531 789.043c-.36-2.36-.265-4.707.215-6.926-1.738.828-3.441 1.504-5.11 2.012-3.554 5.168-8.945 8.683-15.019 9.84 1.957 5.273 8.953 10.808 19.18 10.34 4.777-.227 8.879-.575 12.445-1.024-5.879-1.89-10.64-7.297-11.71-14.242"/><g clip-path="url(#d)"><path fill="#30536e" d="M356.777 777.54c-.14-1.653-.996-7-.863-8.806 1.043-14.382-8.582-13.027-9.785-10.922-1.852 3.25 2.031 11.606-6.848 12.028-2.418.125-9.172 1.168-14.027-.055-2.606-.668-10.777-3.41-10.777-3.41-3.032-2.5-9.118-4.605-14.762-1.102-11.766 3.61-29.516 15.696-41.445 19.786-16.067 5.5-9.02 20.14 10.527 19.25 1.89-.086 3.676-.2 5.371-.329.574.215 1.156.403 1.77.582l.488.13c.242.066.496.124.742.18.234.058.469.105.707.14l.637.125c.445.062.894.12 1.347.168l.508.035c.367.039.723.058 1.09.066l.5.02c.516.011 1.05.011 1.59-.028.875-.027 1.71-.086 2.539-.12l.555-.04c.8-.054 1.582-.101 2.343-.16l.309-.02c.695-.066 1.375-.113 2.023-.175l.434-.04c.703-.066 1.398-.14 2.059-.206l.433-.047c.602-.067 1.195-.14 1.77-.215l.27-.02a97.528 97.528 0 0 0 1.827-.265l.422-.055c.582-.086 1.168-.18 1.723-.262l.121-.03a55.946 55.946 0 0 0 1.523-.27l.395-.078c.5-.094.988-.188 1.457-.29l.313-.058c.394-.082.789-.176 1.175-.262l.328-.074c.434-.106.848-.207 1.262-.313l.356-.093c.34-.094.68-.168 1-.262l.253-.074c.375-.106.723-.207 1.07-.313l.368-.113c.32-.094.629-.195.941-.3l.309-.114c.246-.074.492-.156.727-.242l.375-.133c.265-.094.535-.195.8-.29l.368-.14.488-.199.387-.16c.214-.086.421-.18.628-.254l.47-.207.218-.094c3.941-1.73 6.3-3.262 9.559-3.738h.027c.262-.031.527-.059.789-.098.226-.015.453-.027.687-.035h.094c.469-.02.961-.02 1.477.008l.133.012c.261.007.535.027.808.066.262.016.543.047.828.082l.176.027c.285.04.586.094.887.133l.02.008c.3.059.6.113.91.18l.234.047c.32.058.652.132 1 .207 9.726 2.246 17.344-3.157 18.152-3.317.414-.066.801-.172 1.149-.293l.226-.094c.274-.093.535-.214.781-.347l.067-.02h-.02c3.895-2.113 3.801-7.629 3.207-14.699"/></g><g clip-path="url(#e)"><path fill="#a8ddf7" d="M356.777 777.54c-.14-1.653-.996-7-.863-8.806 1.043-14.382-8.582-13.027-9.785-10.922-1.852 3.25 2.031 11.606-6.848 12.028-2.418.125-9.172 1.168-14.027-.055-2.606-.668-76.004 35.414-56.457 34.524 1.89-.086 3.676-.2 5.371-.329.574.215 1.156.403 1.77.582l.488.13c.242.066.496.124.742.18.234.058.469.105.707.14l.637.125c.445.062.894.12 1.347.168l.508.035c.367.039.723.058 1.09.066l.5.02c.516.011 1.05.011 1.59-.028.875-.027 1.71-.086 2.539-.12l.555-.04c.8-.054 1.582-.101 2.343-.16l.309-.02c.695-.066 1.375-.113 2.023-.175l.434-.04c.703-.066 1.398-.14 2.059-.206l.433-.047c.602-.067 1.195-.14 1.77-.215l.27-.02a97.528 97.528 0 0 0 1.827-.265l.422-.055c.582-.086 1.168-.18 1.723-.262l.121-.03a55.946 55.946 0 0 0 1.523-.27l.395-.078c.5-.094.988-.188 1.457-.29l.313-.058c.394-.082.789-.176 1.175-.262l.328-.074c.434-.106.848-.207 1.262-.313l.356-.093c.34-.094.68-.168 1-.262l.253-.074c.375-.106.723-.207 1.07-.313l.368-.113c.32-.094.629-.195.941-.3l.309-.114c.246-.074.492-.156.727-.242l.375-.133c.265-.094.535-.195.8-.29l.368-.14.488-.199.387-.16c.214-.086.421-.18.628-.254l.47-.207.218-.094c3.941-1.73 6.3-3.262 9.559-3.738h.027c.262-.031.527-.059.789-.098.226-.015.453-.027.687-.035h.094c.469-.02.961-.02 1.477.008l.133.012c.261.007.535.027.808.066.262.016.543.047.828.082l.176.027c.285.04.586.094.887.133l.02.008c.3.059.6.113.91.18l.234.047c.32.058.652.132 1 .207 9.726 2.246 17.344-3.157 18.152-3.317.414-.066.801-.172 1.149-.293l.226-.094c.274-.093.535-.214.781-.347l.067-.02h-.02c3.895-2.113 3.801-7.629 3.207-14.699"/></g><path fill="#30536e" d="M316.695 784.21c-1.007-6.53 1.043-8.21 3.727-4.632 5.285 7.059 13.015 11.25 21.164 12.707 3.742.668 7.984.602 12.004-.047a7.364 7.364 0 0 1-2.223.754c-.808.16-8.426 5.563-18.152 3.317-10.95-2.528-11.797 1.504-22.727 5.046 4.617-3.945 7.235-10.488 6.207-17.144"/><path fill="#fff" d="M284.77 790.707c-.395 0-.782-.254-.942-.676-4.43-11.09-13.594-7.625-13.976-7.472-.547.207-1.141-.094-1.329-.676-.199-.582.086-1.242.622-1.45.113-.035 11.39-4.304 16.574 8.696.234.562-.008 1.23-.535 1.476l-.414.102"/><path fill="#fff" d="M290.855 786.996c-.406 0-.78-.254-.96-.68-4.422-11.07-13.582-7.613-13.97-7.46-.534.214-1.136-.094-1.323-.676-.2-.582.082-1.242.62-1.45.11-.046 11.391-4.312 16.575 8.696.223.562-.012 1.23-.527 1.476l-.415.094"/><path fill="#fff" d="M296.922 783.293a1.02 1.02 0 0 1-.942-.68c-4.421-11.078-13.59-7.62-13.976-7.468-.547.214-1.129-.086-1.328-.668-.196-.594.086-1.243.62-1.457.126-.04 11.392-4.305 16.587 8.69.226.575-.02 1.235-.547 1.49l-.414.093M304.07 779.59c-.394 0-.78-.266-.949-.68-4.422-11.078-13.582-7.62-13.976-7.46-.54.195-1.13-.106-1.329-.688-.187-.582.086-1.23.63-1.446.113-.039 11.382-4.304 16.577 8.692.223.566-.011 1.234-.539 1.488l-.414.094"/><path fill="#fff" d="M310.223 776.422c-.403 0-.782-.254-.957-.668-4.422-11.082-13.586-7.621-13.97-7.473-.538.215-1.128-.093-1.327-.676-.2-.593.086-1.23.62-1.449.114-.047 11.391-4.304 16.575 8.688.234.57-.008 1.238-.535 1.484l-.406.094"/><path fill="#cce310" d="M437.215 573.781c18.777-11.918 43.629-83.426 43.629-83.426s19.058 68.508 37.832 80.426c6.699 4.25 6.867 18.938 18.215 15.078 41.66-14.195 71.828-10.714 81.675-25.746-13.328-40.894-49.976-103.52-49.976-103.52-7.207-17.35-27.711-60.097-52.668-65.292-8.043 13.215-30.168 20.066-37.344 25.828-7.695 6.183-54.41 19.512-76.422 31.531 0 0-56.148 88.559-62.82 122.121-2.492 12.492 6.012 8.094 58.652 14.477 22.465 2.734 28.11-4.43 39.227-11.477"/><path fill="#ce6f52" d="M286.152 275.297s14.196 21.937-12.644 53.293c-3.281 3.824-19.707-14.266-19.707-14.266l-34.86-28.855 32.348-39.016 34.863 28.844"/><path fill="#e68564" d="M246.453 216.402c17.64 11.27.313 43.868.05 63.926-.144 10.57-17.3 31.098-24.722 26.203-20.761-13.668-54.297-10.379-57.543-34.25 0 0-11.504-3.976-16.582-8.508-29.3-26.062-22.07-49.605.555-76.89 22.625-27.297 59.055-26.918 83.973 2.875 10.855 12.988 14.27 26.644 14.27 26.644"/><path fill="#0f161e" d="M205.14 165.727c-20.968-9.258-59.273-4.72-73.636 16.632-21.305 17.852-5.992-20.02-21.258 27.297-5.637 17.446 1.043 39.637 28.82 45.293-9.312-10.3-2.687-24.539 1.825-30.734 9.363-12.82 30.074-40.613 42.117-14.598 15.34 6.156 20.043 8.496 25.707 15.406 3.379-1.937 4.347-3.113 5.351-4.324-4.89-10.8-5.039-15.441-2.539-16.672 17.45 13.356 27.016 13.563 34.926 12.375-.203-11.07-5.633-13.75-7.308-16.746-9.395-21.3-34.004-33.93-34.004-33.93"/><path fill="#0f161e" d="M181.004 219.328s-11.027 9.012-13.875 16.738c-.332.903-2.777-1.511-2.965-2.453-1.07-5.32 8.457-16.222 13.867-16.73.957-.094 2.973 2.445 2.973 2.445M157.035 248.258c-6.586 3.515-10.922 13.156-10.922 13.156s-2.691-1.605-2.953-2.453c-1.555-4.762 6.02-13.29 10.903-13.168.863.031 3.82 2.004 2.972 2.465"/><path fill="#e68564" d="M210.332 199.074c2.832 6.906 11.637 11.184 9.137 14.98-4.14 6.27-8.176 2.923-17.555-3.476-4.863-3.32-5.57-8.629-2.664-12.137 2.898-3.496 8.844-4.812 11.082.633"/><path fill="#fff" d="M193.09 288.918a13.431 13.431 0 0 0 2.21 2.125c5.618 4.172 13.567 3.016 17.743-2.598 4.176-5.61 3.789-10.355.695-14.086-.668-.8-5.633-8.574-5.87-7.597-2.087 8.593-14.778 22.156-14.778 22.156"/><path fill="#0f161e" d="M160.902 253.54a5.603 5.603 0 0 1 .176 7.92 5.605 5.605 0 1 1-8.11-7.741 5.61 5.61 0 0 1 7.934-.18M181.766 230.852a5.635 5.635 0 0 1 .187 7.968c-2.156 2.246-5.73 2.332-7.976.18a5.63 5.63 0 0 1-.188-7.973 5.648 5.648 0 0 1 7.977-.175"/><path fill="#ce6f52" d="M184.746 266.012A59.979 59.979 0 0 0 180.91 262c-6.097-5.828-12.191-9.344-13.605-7.867-1.418 1.472 7.02 4.922 8.488 13.222 4.617 26.196 12.191 9.352 13.61 7.868l.152-.254a5.256 5.256 0 0 0 2.652-1.485c2.012-2.117 1.938-5.46-.172-7.472-2.05-1.953-5.246-1.926-7.289 0"/><path fill="#fff" d="M155.988 255.71a2.048 2.048 0 1 1-2.828 2.958 2.048 2.048 0 0 1 2.828-2.957M176.777 233.973c.82.777.848 2.074.067 2.894a2.048 2.048 0 0 1-2.895.063 2.044 2.044 0 0 1-.066-2.895 2.048 2.048 0 0 1 2.894-.062"/></svg>