<svg xmlns="http://www.w3.org/2000/svg" width="1080" viewBox="0 0 810 810" height="1080" version="1.0"><defs><clipPath id="a"><path d="M108 73h626.89v628H108zm0 0"/></clipPath><clipPath id="b"><path d="M74.89 362H184v232H74.89zm0 0"/></clipPath><clipPath id="c"><path d="M278 67.293h274V429H278zm0 0"/></clipPath></defs><g clip-path="url(#a)"><path fill="#4dadda" d="M453.82 700.41a1420.75 1420.75 0 0 0-39.988-.55c-9.547 0-18.918.09-28.05.269-80.446-9.012-151.692-48.445-202.005-106.54a143.6 143.6 0 0 0 34.563 4.204c2.351 0 4.691-.063 7.023-.172 11.375 30.758 41.828 53.613 79.535 53.695h.192c27.898 0 50.793-10.246 65.242-28.175 19.48 15.277 44.922 23.922 74.39 23.922 17.633 0 33.79-3.118 48.067-8.903-.266 6.903.578 11.594 2.809 13.117.73.504 1.722.743 2.945.743 19.695 0 99.394-62.614 124.316-99.07 26.47-38.708 25.73-75.118 1.325-91.833-7.297-5-15.313-7.488-23.68-7.488-15.856 0-32.953 8.965-48.727 26.773-6.683-17.914-17.543-33.691-33.324-44.101-15.707-10.356-24.93-13.43-32.191-13.43-10.614 0-17.047 6.578-33.426 6.578-14.356 0-17.313-9.304-31.57-9.304-8.239 0-20.239 3.105-40.371 12.898-6.997 3.398-13.168 7.25-18.61 11.562a70.89 70.89 0 0 0-1.058-2.34c-6.106-73.628-67.743-131.48-142.887-131.48-44.274 0-83.852 20.078-110.156 51.63 12.96-161.603 148.105-288.688 312.91-288.688 37.855 0 74.164 6.71 107.773 19-36.625 22.597-61.035 63.113-61.035 109.332 0 70.87 57.402 128.328 128.227 128.328 48.894 0 91.406-27.403 113.035-67.696 16.676 38.368 25.922 80.707 25.922 125.22 0 162.46-123.2 296.12-281.196 312.5"/></g><path fill="#4dadda" d="M709.094 262.691c-34.145-78.539-99.418-140.398-180.227-169.964 19.535-12.051 42.547-19 67.192-19 70.812 0 128.222 57.457 128.222 128.332 0 21.925-5.5 42.574-15.187 60.632"/><path fill="#479ec8" d="M596.059 330.387c-70.825 0-128.227-57.457-128.227-128.328 0-46.22 24.41-86.735 61.035-109.332 80.809 29.566 146.082 91.425 180.227 169.964-21.63 40.293-64.14 67.696-113.035 67.696"/><g clip-path="url(#b)"><path fill="#4dadda" d="M183.777 593.59c-62.492-15.473-108.824-71.977-108.824-139.3 0-34.954 12.48-66.985 33.23-91.876a318.303 318.303 0 0 0-1.015 25.496c0 78.652 28.883 150.57 76.61 205.68"/></g><path fill="#479ec8" d="M218.34 597.793a143.6 143.6 0 0 1-34.563-4.203c-47.726-55.11-76.609-127.028-76.609-205.68 0-8.578.34-17.09 1.016-25.496 26.304-31.55 65.882-51.629 110.156-51.629 75.144 0 136.781 57.852 142.887 131.48-10.11-20.98-30.383-31.085-58.372-31.085-36.203 0-61.421 22.07-63.793 55.175-.664 9.434 5.497 31.961 3.72 40.665-4.731 23.12-21.743 30.648-22.223 62.585a77.229 77.229 0 0 0 4.804 28.016c-2.332.11-4.672.172-7.023.172"/><path fill="#469cc5" d="M413.832 742.871c-98.289 0-177.957-9.629-177.957-21.504 0-10.726 64.945-19.617 149.906-21.238a318.341 318.341 0 0 0 35.313 1.96c11.047 0 21.969-.57 32.726-1.679 79.024 2.184 137.965 10.742 137.965 20.957 0 11.875-79.676 21.504-177.953 21.504"/><path fill="#408eb5" d="M421.094 702.09c-11.938 0-23.73-.668-35.313-1.961a1428.1 1428.1 0 0 1 28.051-.27c13.746 0 27.129.188 39.988.551a319.021 319.021 0 0 1-32.726 1.68"/><g clip-path="url(#c)"><path fill="#fff" d="M551.645 417.945c0 6.09-4.93 11.032-11.016 11.032H289.605c-6.093 0-11.023-4.942-11.023-11.032V78.477c0-6.09 4.93-11.032 11.023-11.032H540.63c6.086 0 11.016 4.942 11.016 11.032v339.468"/></g><path fill="#231f20" d="M320.367 108.906h-4.351l-10.207-15.644v15.644h-4.54V85.055h4.34l10.23 15.695V85.055h4.528v23.851m20.414-10.172c0 3.082-.242 5.196-.722 6.329-1.239 2.867-3.575 4.296-7.032 4.296-3.77 0-6.175-1.636-7.21-4.91-.348-1.09-.52-3.039-.52-5.84v-7.34h4.488v8.481c0 1.27.043 2.164.149 2.691.191 1.036.62 1.786 1.285 2.25.496.356 1.105.536 1.836.536 1.496 0 2.496-.692 3-2.075.183-.504.273-1.593.273-3.254V91.27h4.453v7.464m12.009-3.644h-2.606v13.816h-4.426V95.09h-2.266v-3.82h2.266v-6.504h4.426v6.504h2.605v3.82m10.809-3.82-1.38 3.82c-.519-.258-.94-.383-1.273-.383-.68 0-1.25.422-1.71 1.258-.516.918-.755 2.57-.708 4.957l.012.86v7.124h-4.402V91.27h3.804v2.222c.829-1.785 2.118-2.683 3.864-2.683.57 0 1.168.156 1.793.46m6.156 17.637h-4.457V91.27h4.457zm.578-22.008c0 .786-.266 1.461-.812 2.008-.543.555-1.2.836-1.977.836-.8 0-1.473-.281-2.023-.851-.547-.563-.82-1.25-.82-2.059a2.7 2.7 0 0 1 .82-1.984 2.686 2.686 0 0 1 1.984-.832c.793 0 1.457.28 2.008.843a2.82 2.82 0 0 1 .82 2.04M381.3 95.09h-2.605v13.816h-4.425V95.09h-2.266v-3.82h2.266v-6.504h4.425v6.504h2.606v3.82m6.351 13.816h-4.457V91.27h4.457zm.586-22.008c0 .786-.273 1.461-.816 2.008a2.683 2.683 0 0 1-1.98.836c-.794 0-1.47-.281-2.016-.851-.555-.563-.828-1.25-.828-2.059 0-.777.273-1.437.828-1.984a2.667 2.667 0 0 1 1.984-.832c.785 0 1.45.28 2.004.843.55.567.824 1.239.824 2.04m16.543 13.195c0-1.469-.437-2.684-1.308-3.653-.875-.964-2.04-1.445-3.489-1.445-1.421 0-2.582.496-3.484 1.488-.867.957-1.297 2.157-1.297 3.61 0 1.457.422 2.672 1.274 3.629.886 1 2.05 1.504 3.484 1.504 1.445 0 2.613-.504 3.512-1.504.87-.973 1.308-2.18 1.308-3.63zm4.485-.024a9.375 9.375 0 0 1-1.227 4.668 8.866 8.866 0 0 1-3.383 3.399c-1.43.816-3.008 1.222-4.722 1.222-2.563 0-4.723-.894-6.493-2.695-1.777-1.8-2.656-3.988-2.656-6.559 0-2.77 1.004-5.066 3.027-6.886 1.762-1.61 3.797-2.41 6.106-2.41a9.34 9.34 0 0 1 4.691 1.246 8.955 8.955 0 0 1 3.43 3.386 9.242 9.242 0 0 1 1.227 4.63m19.246 8.835h-4.39v-7.726c0-1.606-.028-2.63-.083-3.059-.16-1.316-.555-2.223-1.176-2.719-.472-.355-1.05-.539-1.738-.539-1.895 0-3.102 1.133-3.629 3.383-.133.559-.191 1.75-.191 3.586v7.074h-4.426V91.27h4.426v1.8c1.785-1.504 3.53-2.261 5.218-2.261 1.762 0 3.243.617 4.45 1.84 1.027 1.019 1.539 2.562 1.539 4.597v11.66m27.718-10.734h-7.32v10.734h-4.508V85.055h11.828v4.414h-7.32v4.355h7.32v4.348m16.766 1.883c0-1.473-.433-2.703-1.324-3.676-.879-.977-2.05-1.465-3.516-1.465-1.43 0-2.597.504-3.484 1.52-.852.968-1.281 2.183-1.281 3.636 0 1.446.43 2.668 1.293 3.653.906 1.043 2.066 1.57 3.488 1.57 1.465 0 2.648-.512 3.555-1.535.847-.985 1.27-2.215 1.27-3.703zm4.215 8.851h-4.422v-1.867c-1.625 1.55-3.434 2.32-5.426 2.32-2.433 0-4.46-.941-6.074-2.824-1.547-1.797-2.316-3.937-2.316-6.414 0-2.539.73-4.695 2.195-6.473 1.562-1.89 3.59-2.84 6.07-2.84 2.125 0 3.977.801 5.551 2.41V91.27h4.422v17.636m21.723-14.074-3.672 2.031c-1.227-1.277-2.7-1.922-4.418-1.922-1.606 0-2.922.477-3.946 1.426-1.058.969-1.582 2.258-1.582 3.852 0 1.539.5 2.777 1.516 3.719.984.91 2.258 1.37 3.82 1.37 1.97 0 3.508-.667 4.61-2.007l3.48 2.375c-1.887 2.46-4.558 3.683-8 3.683-2.812 0-5.144-.828-7.004-2.48-1.937-1.719-2.918-3.957-2.918-6.727 0-1.734.43-3.312 1.29-4.734.859-1.43 2.05-2.55 3.574-3.371 1.527-.824 3.23-1.238 5.125-1.238 3.574 0 6.28 1.343 8.125 4.023m11.554.258h-2.613v13.816h-4.418V95.09h-2.266v-3.82h2.266v-6.504h4.418v6.504h2.613v3.82m13.496 8.765c0 1.727-.644 3.09-1.925 4.114-1.176.93-2.657 1.39-4.426 1.39-2.57 0-4.621-1-6.153-3.015l2.711-2.961c1.153 1.355 2.375 2.035 3.672 2.035a2.53 2.53 0 0 0 1.278-.316c.445-.278.66-.633.66-1.075 0-.691-.637-1.355-1.918-2l-1.488-.742c-2.848-1.43-4.27-3.23-4.27-5.41 0-1.516.586-2.754 1.762-3.719 1.093-.894 2.422-1.347 3.976-1.347 2.418 0 4.352.98 5.793 2.918l-2.738 2.742c-1.102-1.11-2.11-1.668-3.012-1.668-1.058 0-1.586.363-1.586 1.105 0 .453.528.95 1.586 1.473l1.614.816c1.457.727 2.507 1.446 3.152 2.157.875.96 1.312 2.132 1.312 3.503"/><path d="m289.488 123.688.93-.083c.074.81.348 1.422.816 1.836.473.418 1.086.625 1.86.625.566 0 1.043-.09 1.433-.261a1.93 1.93 0 0 0 .91-.754c.215-.336.32-.692.32-1.067 0-.992-.866-1.652-2.593-1.972-1.168-.215-2.012-.532-2.516-.969-.511-.438-.761-1.04-.761-1.809 0-.816.297-1.46.886-1.933.594-.473 1.348-.711 2.258-.711 1.031 0 1.82.23 2.39.687.571.461.884 1.157.934 2.098l-.918.04c-.101-1.364-.878-2.056-2.324-2.056-.664 0-1.218.164-1.656.485-.437.316-.66.754-.66 1.308 0 .95.793 1.578 2.375 1.891 1.164.234 2.035.57 2.613 1 .578.437.867 1.059.867 1.883 0 .433-.074.828-.23 1.176-.156.347-.39.66-.711.918a3.32 3.32 0 0 1-1.117.609c-.43.14-.91.207-1.434.207-2.25 0-3.473-1.047-3.672-3.148m13.938-1.2c-.125-1.652-.883-2.484-2.25-2.484a2.13 2.13 0 0 0-1.57.644c-.422.43-.672 1.047-.762 1.84zm.91.696h-5.516c.008.933.23 1.66.653 2.175.43.52 1.015.782 1.761.782 1.043 0 1.778-.579 2.192-1.743l.82.141c-.281.816-.672 1.398-1.176 1.754-.511.355-1.14.535-1.886.535-1.016 0-1.809-.332-2.387-1.008-.567-.668-.856-1.586-.856-2.742 0-1.16.29-2.074.864-2.746.578-.668 1.379-1 2.39-1 2.082 0 3.125 1.281 3.14 3.852m5.45-3.422-.328.726c-.43-.187-.746-.277-.96-.277l-.462.082-.39.254-.32.414c-.087.156-.16.324-.208.512a7.83 7.83 0 0 0-.117.828 10.59 10.59 0 0 0-.059.992v3.371h-.843v-7.176h.746v1.45c.355-1.075.91-1.606 1.676-1.606.39 0 .812.14 1.265.43m6.543-.274-2.875 7.176h-.781l-2.875-7.176h.906l2.36 6.149 2.375-6.149h.89m2.129 7.176h-.844v-7.176h.844zm0-8.644h-.844v-1.258h.844v1.258m7.797 8.644h-.852v-4.453c0-.777-.156-1.324-.453-1.648-.297-.336-.703-.5-1.215-.5a2.13 2.13 0 0 0-.777.14 2.01 2.01 0 0 0-.656.418c-.2.184-.363.39-.48.637-.122.234-.2.504-.255.785-.043.289-.066.793-.066 1.52v3.101h-.844v-7.176h.844v1.059c.645-.817 1.414-1.215 2.309-1.215 1.628 0 2.445.879 2.445 2.652v4.68m7.586-3.504c0-.941-.223-1.695-.668-2.265-.442-.57-1.063-.852-1.848-.852-.406 0-.758.066-1.05.215a2.318 2.318 0 0 0-.77.613 2.767 2.767 0 0 0-.488.95 4.27 4.27 0 0 0-.164 1.25c0 .906.222 1.644.66 2.214.425.578 1.035.867 1.797.867.457 0 .875-.101 1.234-.293.363-.21.668-.527.918-.98.254-.453.379-1.024.379-1.719zm-5.574 4.305.82.156c.18.844.848 1.266 1.992 1.266 1.836 0 2.762-.867 2.762-2.614v-.699c-.414.504-.836.84-1.258 1.008a3.934 3.934 0 0 1-1.43.246c-.48 0-.918-.082-1.3-.254a2.816 2.816 0 0 1-1.008-.761 3.529 3.529 0 0 1-.653-1.192 4.888 4.888 0 0 1-.222-1.52c0-.753.14-1.43.422-2.015.28-.586.652-1.023 1.12-1.316.458-.297 1.005-.438 1.65-.438.546 0 1.042.094 1.48.297.43.2.828.555 1.199 1.074v-1.215h.828v6.606c0 .8-.125 1.453-.363 1.972a2.339 2.339 0 0 1-1.137 1.149c-.512.242-1.164.367-1.965.367-1.863 0-2.84-.703-2.937-2.117m11.949-3.777.93-.083c.074.81.347 1.422.824 1.836.465.418 1.086.625 1.847.625.57 0 1.051-.09 1.438-.261.39-.16.695-.422.91-.754.215-.336.32-.692.32-1.067 0-.992-.867-1.652-2.593-1.972-1.168-.215-2.012-.532-2.516-.969-.512-.438-.762-1.04-.762-1.809 0-.816.297-1.46.887-1.933.594-.473 1.348-.711 2.266-.711 1.023 0 1.82.23 2.382.687.57.461.883 1.157.942 2.098l-.918.04c-.11-1.364-.887-2.056-2.332-2.056-.664 0-1.223.164-1.656.485-.438.316-.66.754-.66 1.308 0 .95.792 1.578 2.374 1.891 1.172.234 2.036.57 2.614 1 .586.437.867 1.059.867 1.883 0 .433-.074.828-.23 1.176-.157.347-.391.66-.712.918a3.32 3.32 0 0 1-1.117.609c-.43.14-.91.207-1.437.207-2.25 0-3.469-1.047-3.668-3.148m9.754 2.976h-.844v-7.176h.844zm0-8.644h-.844v-1.258h.844v1.258m7.726 8.644h-6.304v-.734l4.914-5.73h-4.633v-.712h5.8v.57l-4.972 5.872h5.195v.734m6.45-4.176c-.133-1.652-.883-2.484-2.25-2.484a2.13 2.13 0 0 0-1.57.644c-.423.43-.68 1.047-.762 1.84zm.91.696h-5.524c.016.933.239 1.66.66 2.175.43.52 1.016.782 1.762.782 1.043 0 1.777-.579 2.192-1.743l.82.141c-.281.816-.672 1.398-1.184 1.754-.504.355-1.133.535-1.879.535-1.015 0-1.808-.332-2.386-1.008-.567-.668-.856-1.586-.856-2.742 0-1.16.29-2.074.863-2.746.579-.668 1.38-1 2.391-1 2.082 0 3.125 1.281 3.14 3.852m10.646-.09c0-.645-.098-1.192-.282-1.66-.191-.457-.453-.813-.793-1.051-.332-.238-.746-.356-1.23-.356-.747 0-1.325.266-1.73.817-.407.554-.606 1.289-.606 2.215 0 .91.207 1.656.62 2.226.407.574.985.86 1.723.86.348 0 .653-.067.926-.184.266-.125.512-.316.719-.586a2.74 2.74 0 0 0 .48-.969c.114-.386.172-.824.172-1.312zm.87 0c0 1.187-.28 2.097-.836 2.75-.562.656-1.355.984-2.367.984-.496 0-.933-.09-1.324-.258a2.72 2.72 0 0 1-1.008-.773 3.482 3.482 0 0 1-.652-1.176 4.978 4.978 0 0 1-.215-1.496c0-.57.059-1.082.187-1.527.125-.453.317-.844.57-1.172.25-.324.567-.59.954-.793.387-.207.883-.301 1.488-.301.977 0 1.754.309 2.332.945.582.641.871 1.575.871 2.817m7.285 3.57h-6.312v-.734l4.922-5.73h-4.633v-.712h5.8v.57l-4.98 5.872h5.203v.734m2.852 0h-1.18v-1.309h1.18v1.31"/><path fill="#231f20" d="M467.363 213.465v8.246h2.332c.57 0 1.059-.043 1.47-.133.397-.098.78-.312 1.151-.652.372-.34.653-.801.836-1.371.196-.578.29-1.274.29-2.09 0-2.664-1.25-4-3.747-4zm-.93 9.074v-9.902h3.805c.946 0 1.739.222 2.375.672a3.746 3.746 0 0 1 1.375 1.793c.29.757.43 1.566.43 2.43 0 1.585-.363 2.816-1.102 3.698-.734.875-1.761 1.31-3.078 1.31h-3.804m14.526-3.392v-.468c-.472.187-1.226.37-2.26.55-.552.094-.95.192-1.2.297a1.125 1.125 0 0 0-.57.434 1.19 1.19 0 0 0-.196.684c0 .39.141.71.438.949.289.234.66.355 1.117.355a3.179 3.179 0 0 0 1.563-.422 2.13 2.13 0 0 0 .628-.504c.172-.195.29-.453.372-.757.074-.309.109-.68.109-1.118zm1.267 3.391h-.918a3.982 3.982 0 0 1-.258-1.086c-.778.836-1.754 1.25-2.938 1.25a2.79 2.79 0 0 1-1.148-.223 1.908 1.908 0 0 1-.813-.671c-.199-.305-.304-.668-.304-1.098 0-.305.043-.57.14-.809.098-.242.239-.449.43-.629a2.32 2.32 0 0 1 .777-.464c.332-.137.918-.254 1.77-.371.937-.125 1.605-.266 1.996-.415 0-.41-.004-.726-.027-.949a1.312 1.312 0 0 0-.23-.617 1.236 1.236 0 0 0-.606-.441c-.27-.106-.602-.157-1-.157-1.243 0-1.993.532-2.243 1.594l-.851-.129c.266-1.414 1.293-2.125 3.086-2.125.562 0 1.035.067 1.422.2.375.124.664.312.851.542.192.235.309.524.367.871.063.352.082.833.082 1.438l-.019 2.023c-.008.543.012.957.074 1.247.059.289.176.628.36 1.02m2.621 0h-.844v-7.177h.844zm0-8.645h-.844v-1.258h.844v1.258m3.074 8.645h-.844v-9.903h.844v9.902m7.941-7.176-2.836 7.176-.554 1.43c-.391.996-.95 1.492-1.664 1.492-.18 0-.446-.047-.809-.133l-.098-.848c.344.075.594.114.766.114.273 0 .465-.055.59-.156.12-.106.246-.32.363-.63l.504-1.269-2.828-7.176h.918l2.363 6.207 2.45-6.207h.835m10.68 0-2.871 7.176h-.785l-2.871-7.176h.894l2.363 6.149 2.375-6.149h.895m5.937 3.785v-.468c-.472.187-1.23.37-2.265.55-.547.094-.945.192-1.2.297-.25.094-.445.243-.57.434a1.249 1.249 0 0 0-.191.684c0 .39.148.71.437.949.29.234.657.355 1.118.355.265 0 .53-.039.793-.105.265-.074.515-.176.77-.317.25-.136.456-.304.628-.504.168-.195.29-.453.371-.757.074-.309.11-.68.11-1.118zm1.266 3.391h-.918a3.844 3.844 0 0 1-.258-1.086c-.777.836-1.754 1.25-2.941 1.25-.426 0-.813-.074-1.145-.223a1.92 1.92 0 0 1-.816-.671c-.2-.305-.3-.668-.3-1.098 0-.305.042-.57.14-.809.094-.242.234-.449.43-.629.19-.183.449-.34.78-.464.329-.137.91-.254 1.762-.371.942-.125 1.614-.266 2-.415 0-.41-.007-.726-.03-.949a1.266 1.266 0 0 0-.227-.617 1.253 1.253 0 0 0-.602-.441c-.273-.106-.605-.157-1.008-.157-1.242 0-1.98.532-2.234 1.594l-.86-.129c.27-1.414 1.297-2.125 3.09-2.125.563 0 1.036.067 1.418.2.387.124.668.312.852.542.195.235.312.524.371.871.059.352.082.833.082 1.438l-.023 2.023c-.008.543.015.957.074 1.247.058.289.18.628.363 1.02m2.629 0h-.852v-9.903h.852v9.902m7.703.001h-.851v-1.06c-.63.817-1.391 1.223-2.309 1.223-1.621 0-2.426-.887-2.426-2.66v-4.68h.852v4.457c0 .782.144 1.336.449 1.66.305.336.703.497 1.215.497.332 0 .644-.075.941-.215a2.21 2.21 0 0 0 .77-.645 2.1 2.1 0 0 0 .422-1.015c.058-.383.086-.926.086-1.622v-3.117h.851v7.176m7.246-4.176c-.133-1.652-.879-2.484-2.25-2.484-.62 0-1.144.215-1.566.644-.422.43-.684 1.047-.766 1.84zm.914.696h-5.523c.015.933.238 1.652.66 2.18.422.515 1.012.777 1.762.777 1.043 0 1.773-.578 2.187-1.743l.824.141c-.28.816-.675 1.402-1.183 1.758-.504.355-1.133.531-1.883.531-1.012 0-1.805-.332-2.383-1.008-.578-.664-.86-1.586-.86-2.738 0-1.164.29-2.074.868-2.75.578-.668 1.371-1.008 2.39-1.008 2.075 0 3.118 1.29 3.141 3.86"/><path d="m533.926 214.8.308-.956c.72.25 1.239.472 1.563.66-.082-.824-.133-1.379-.133-1.691h.977a17.342 17.342 0 0 1-.157 1.675c.461-.23.993-.445 1.602-.644l.3.957a8.375 8.375 0 0 1-1.679.383c.281.238.668.66 1.164 1.273l-.808.578c-.266-.355-.57-.844-.934-1.457-.332.637-.621 1.125-.871 1.457l-.801-.578c.527-.644.895-1.066 1.125-1.273a21.631 21.631 0 0 1-1.656-.383m-73.793 3.355c-.711 0-1.067.614-1.067 1.836 0 1.149.356 1.727 1.051 1.727.719 0 1.074-.61 1.074-1.832 0-1.153-.355-1.73-1.058-1.73zm-2.125 1.711c0-.77.187-1.387.562-1.851.38-.47.89-.7 1.528-.7.73 0 1.273.254 1.629.766.347.512.523 1.133.523 1.86 0 .687-.172 1.296-.523 1.82-.352.535-.891.793-1.622.793-.71 0-1.246-.258-1.585-.778-.34-.52-.512-1.156-.512-1.91zm-4.285 2.688 5.418-10.446h.992l-5.395 10.446zm0-9.602c-.703 0-1.051.61-1.051 1.832 0 1.156.348 1.727 1.05 1.727.704 0 1.06-.61 1.06-1.825 0-1.156-.356-1.734-1.06-1.734zm-2.118 1.707c0-.683.172-1.285.52-1.785.34-.512.867-.766 1.57-.766.723 0 1.266.262 1.621.77.352.512.524 1.129.524 1.86 0 .78-.192 1.417-.578 1.898-.383.472-.91.718-1.563.718-.707 0-1.234-.257-1.582-.777-.34-.52-.512-1.156-.512-1.918m-162.117-73.633.93-.078c.074.813.348 1.422.816 1.836.473.414 1.086.621 1.86.621.566 0 1.043-.082 1.433-.258a1.89 1.89 0 0 0 .91-.757c.215-.332.32-.688.32-1.067 0-.992-.866-1.652-2.593-1.969-1.168-.207-2.012-.535-2.516-.972-.511-.434-.761-1.035-.761-1.805 0-.816.297-1.46.886-1.933.594-.477 1.348-.711 2.258-.711 1.031 0 1.82.226 2.39.687.571.461.884 1.156.934 2.098l-.918.043c-.101-1.371-.878-2.059-2.324-2.059-.664 0-1.218.164-1.656.48-.437.32-.66.758-.66 1.313 0 .95.793 1.578 2.375 1.895 1.164.238 2.035.562 2.613 1 .578.43.867 1.054.867 1.875 0 .437-.074.832-.23 1.18-.156.347-.39.66-.711.925a3.168 3.168 0 0 1-1.117.598c-.43.14-.91.215-1.434.215-2.25 0-3.473-1.051-3.672-3.157m13.938-1.199c-.125-1.652-.883-2.48-2.25-2.48a2.13 2.13 0 0 0-1.57.644c-.422.43-.672 1.043-.762 1.836zm.91.703h-5.516c.008.926.23 1.653.653 2.172.43.52 1.015.785 1.761.785 1.043 0 1.778-.586 2.192-1.746l.82.14c-.281.821-.672 1.407-1.176 1.763-.511.347-1.14.527-1.886.527-1.016 0-1.809-.336-2.387-1.008-.567-.668-.856-1.586-.856-2.742 0-1.164.29-2.074.864-2.75.578-.664 1.379-1 2.39-1 2.082 0 3.125 1.281 3.14 3.86m5.45-3.43-.328.726c-.43-.176-.746-.266-.96-.266l-.462.075-.39.258-.32.41a2.1 2.1 0 0 0-.208.507 8.098 8.098 0 0 0-.117.833 10.69 10.69 0 0 0-.059.992v3.379h-.843v-7.18h.746v1.453c.355-1.082.91-1.617 1.676-1.617.39 0 .812.14 1.265.43m6.543-.266-2.875 7.18h-.781l-2.875-7.18h.906l2.36 6.14 2.375-6.14h.89m2.129 7.18h-.844v-7.18h.844zm0-8.645h-.844v-1.27h.844v1.27m7.797 8.645h-.852v-4.461c0-.778-.156-1.325-.453-1.653-.297-.324-.703-.496-1.215-.496a2.05 2.05 0 0 0-.777.14 2.381 2.381 0 0 0-.656.415 2.28 2.28 0 0 0-.48.637 3.04 3.04 0 0 0-.255.793c-.043.28-.066.785-.066 1.511v3.114h-.844v-7.18h.844v1.059c.645-.813 1.414-1.223 2.309-1.223 1.628 0 2.445.883 2.445 2.652v4.692m7.586-3.512c0-.941-.223-1.691-.668-2.266-.442-.574-1.063-.855-1.848-.855-.406 0-.758.066-1.05.215a2.33 2.33 0 0 0-.77.617 2.767 2.767 0 0 0-.488.95 4.251 4.251 0 0 0-.164 1.25c0 .901.222 1.644.66 2.222.425.57 1.035.86 1.797.86a2.52 2.52 0 0 0 1.234-.298c.363-.199.668-.523.918-.976.254-.453.379-1.024.379-1.72zm-5.574 4.305.82.156c.18.851.848 1.273 1.992 1.273 1.836 0 2.762-.875 2.762-2.625v-.695c-.414.504-.836.836-1.258 1.008a3.934 3.934 0 0 1-1.43.246c-.48 0-.918-.082-1.3-.254a2.861 2.861 0 0 1-1.008-.762 3.51 3.51 0 0 1-.653-1.195 4.81 4.81 0 0 1-.222-1.516c0-.757.14-1.422.422-2.007.28-.594.652-1.032 1.12-1.329.458-.289 1.005-.437 1.65-.437.546 0 1.042.098 1.48.297.43.199.828.554 1.199 1.074v-1.207h.828v6.601c0 .801-.125 1.458-.363 1.977-.243.52-.621.899-1.137 1.14-.512.255-1.164.372-1.965.372-1.863 0-2.84-.703-2.937-2.117m13.507-9.849v4.048h2.23c1.65 0 2.481-.684 2.481-2.04 0-1.34-.832-2.007-2.48-2.007zm0 4.86v4.196h-.945v-9.914h3.442c1.007 0 1.793.246 2.347.742.563.496.844 1.191.844 2.097 0 .399-.074.778-.215 1.133-.14.356-.34.664-.594.934-.257.265-.597.465-1.011.605-.418.14-.875.207-1.371.207h-2.497m12.379.008c-.129-1.652-.875-2.48-2.242-2.48-.625 0-1.148.214-1.57.644-.43.43-.684 1.043-.77 1.836zm.918.703h-5.523c.015.926.23 1.653.66 2.172.422.52 1.004.785 1.754.785 1.05 0 1.777-.586 2.191-1.746l.828.14c-.28.821-.675 1.407-1.183 1.763-.512.347-1.133.527-1.883.527-1.012 0-1.812-.336-2.383-1.008-.578-.668-.86-1.586-.86-2.742 0-1.164.282-2.074.868-2.75.578-.664 1.371-1 2.39-1 2.075 0 3.118 1.281 3.141 3.86m5.446-3.43-.325.726c-.437-.176-.753-.266-.96-.266l-.47.075-.39.258-.32.41a2.084 2.084 0 0 0-.2.507c-.042.188-.09.47-.124.833-.04.37-.059.695-.059.992v3.379h-.836v-7.18h.738v1.453c.356-1.082.91-1.617 1.672-1.617.395 0 .817.14 1.274.43m13.043 3.793c-.657 2.195-2.028 3.289-4.11 3.289-.703 0-1.324-.11-1.863-.332-.54-.215-1-.547-1.383-.985-.387-.445-.691-1-.918-1.676a6.486 6.486 0 0 1-.348-2.117c0-1.512.415-2.742 1.235-3.703.828-.957 1.933-1.437 3.316-1.437.934 0 1.73.226 2.39.695.669.465 1.185 1.2 1.548 2.207l-.895.246c-.547-1.578-1.547-2.371-2.984-2.371-1.11 0-2 .414-2.649 1.238-.66.82-.984 1.863-.984 3.14 0 1.423.332 2.497.992 3.227.656.727 1.492 1.09 2.5 1.09 1.66 0 2.754-.91 3.293-2.738l.86.227m6.75-.457c0-.645-.094-1.196-.29-1.66-.183-.462-.449-.817-.78-1.051-.344-.239-.75-.356-1.239-.356-.738 0-1.316.274-1.723.82-.41.547-.617 1.282-.617 2.207 0 .918.207 1.66.621 2.23.418.579.992.86 1.735.86.34 0 .652-.058.918-.183.273-.13.511-.32.718-.586.215-.258.368-.578.489-.973.109-.383.168-.82.168-1.309zm.867 0c0 1.183-.274 2.101-.836 2.753-.555.653-1.348.98-2.367.98-.493 0-.934-.081-1.32-.26a2.671 2.671 0 0 1-1.012-.77 3.297 3.297 0 0 1-.645-1.18 4.703 4.703 0 0 1-.223-1.496c0-.57.067-1.082.192-1.524a3.44 3.44 0 0 1 .562-1.171c.254-.325.578-.594.965-.793.383-.207.88-.305 1.485-.305.98 0 1.757.312 2.332.95.578.636.867 1.57.867 2.815m7.344 3.579h-.852v-4.461c0-.778-.148-1.325-.453-1.653-.297-.324-.703-.496-1.211-.496-.277 0-.535.043-.774.14a2.542 2.542 0 0 0-.664.415 2.28 2.28 0 0 0-.48.637c-.121.246-.2.504-.246.793-.043.28-.074.785-.074 1.511v3.114h-.844v-7.18h.844v1.059c.644-.813 1.414-1.223 2.308-1.223 1.63 0 2.446.883 2.446 2.652v4.692m4.765 0a4.72 4.72 0 0 1-.894.109c-.329 0-.602-.05-.836-.164a1.038 1.038 0 0 1-.528-.488c-.109-.223-.168-.621-.168-1.184v-4.816h-1v-.637h1v-1.844l.848-.543v2.387h1.348v.637h-1.348v4.703c0 .336.023.586.07.75l.243.37a.88.88 0 0 0 .496.126c.148 0 .37-.035.66-.09l.11.684m5.862-3.403v-.457c-.472.176-1.23.364-2.265.54-.547.097-.95.19-1.2.296a1.14 1.14 0 0 0-.57.446c-.133.183-.191.414-.191.671 0 .395.14.711.437.95.29.238.657.363 1.118.363.265 0 .53-.035.793-.11.257-.066.515-.171.77-.312.25-.14.456-.313.628-.512.168-.191.289-.453.367-.754.074-.312.113-.683.113-1.12zm1.266 3.403h-.918a3.958 3.958 0 0 1-.258-1.098c-.777.836-1.754 1.254-2.941 1.254-.43 0-.813-.074-1.145-.223a1.852 1.852 0 0 1-.816-.676c-.2-.296-.3-.66-.3-1.097 0-.293.042-.57.14-.805a1.68 1.68 0 0 1 .426-.629c.195-.187.453-.336.777-.469.328-.125.918-.25 1.77-.37.94-.126 1.605-.266 2-.415 0-.406-.008-.726-.032-.949a1.35 1.35 0 0 0-.226-.613 1.29 1.29 0 0 0-.61-.446c-.265-.101-.605-.156-1-.156-1.242 0-1.988.535-2.234 1.594l-.86-.125c.27-1.414 1.297-2.121 3.086-2.121.563 0 1.04.062 1.422.195.38.125.668.309.852.547.191.238.312.527.371.875.05.348.082.82.082 1.43l-.023 2.023c-.008.54.015.953.074 1.242.058.29.18.63.363 1.032m2.621 0h-.844v-7.18h.844zm0-8.645h-.844v-1.27h.844v1.27m7.793 8.645h-.851v-4.461c0-.778-.157-1.325-.45-1.653-.297-.324-.703-.496-1.214-.496-.274 0-.536.043-.77.14-.246.099-.461.24-.668.415a2.28 2.28 0 0 0-.48.637 2.89 2.89 0 0 0-.247.793c-.05.28-.07.785-.07 1.511v3.114h-.844v-7.18h.844v1.059c.64-.813 1.41-1.223 2.309-1.223 1.629 0 2.441.883 2.441 2.652v4.692m7.164-4.188c-.133-1.652-.879-2.48-2.25-2.48-.62 0-1.144.214-1.566.644-.422.43-.684 1.043-.766 1.836zm.91.703h-5.52c.016.926.231 1.653.657 2.172.422.52 1.008.785 1.762.785 1.047 0 1.77-.586 2.191-1.746l.824.14c-.28.821-.675 1.407-1.183 1.763-.504.347-1.133.527-1.883.527-1.012 0-1.813-.336-2.383-1.008-.578-.668-.86-1.586-.86-2.742 0-1.164.29-2.074.868-2.75.578-.664 1.367-1 2.39-1 2.075 0 3.118 1.281 3.137 3.86m5.45-3.43-.325.726c-.437-.176-.757-.266-.964-.266l-.465.075-.391.258-.32.41c-.09.152-.157.324-.2.507-.042.188-.09.47-.125.833-.039.37-.058.695-.058.992v3.379h-.84v-7.18h.742v1.453c.356-1.082.91-1.617 1.672-1.617.395 0 .817.14 1.274.43m-130.196 30.086-1.656-4.04-1.586 4.04zm2.164 3.18h-.86l-1.042-2.552h-3.738l-1 2.551h-.82l3.253-8.015h.793l3.414 8.015m8.438 0h-.68v-3.594c0-.535-.047-.906-.137-1.12a.935.935 0 0 0-.398-.481 1.354 1.354 0 0 0-.66-.164 1.38 1.38 0 0 0-.895.304c-.234.192-.406.47-.504.817-.101.348-.152.805-.152 1.375v2.863h-.676V166.7c0-.402-.035-.719-.101-.949a.937.937 0 0 0-.371-.527 1.181 1.181 0 0 0-.68-.192c-.492 0-.883.2-1.172.61-.297.398-.437.937-.437 1.629v3.097h-.68v-5.808h.68v.836c.48-.645 1.074-.965 1.777-.965.742 0 1.25.32 1.539.965.52-.645 1.125-.965 1.82-.965 1.149 0 1.727.66 1.727 1.988v3.95m5.855-2.892c0-.52-.082-.973-.23-1.34-.156-.38-.371-.66-.637-.852-.273-.195-.605-.289-1-.289-.605 0-1.074.219-1.398.656-.332.446-.496 1.047-.496 1.793 0 .743.171 1.344.503 1.809.332.46.801.695 1.399.695.281 0 .527-.05.75-.152.21-.106.414-.262.582-.469a2.32 2.32 0 0 0 .387-.793c.09-.312.14-.668.14-1.058zm.703 0c0 .957-.23 1.695-.683 2.23-.45.523-1.086.793-1.906.793a2.61 2.61 0 0 1-1.075-.207 2.298 2.298 0 0 1-.816-.625 2.727 2.727 0 0 1-.524-.953 3.966 3.966 0 0 1-.18-1.215c0-.46.055-.875.157-1.238.098-.364.254-.676.461-.942.2-.265.457-.48.77-.644.308-.164.71-.246 1.207-.246.789 0 1.418.254 1.886.765.465.52.703 1.274.703 2.282m5.875 2.89h-.687v-.86c-.512.657-1.133.993-1.863.993-1.32 0-1.97-.719-1.97-2.148v-3.793h.68v3.605c0 .629.126 1.082.372 1.348.242.261.57.394.976.394.274 0 .524-.05.762-.172.238-.109.445-.289.629-.515.176-.239.297-.512.34-.824.05-.313.074-.754.074-1.317v-2.52h.687v5.81m6.293-.001h-.687v-3.61c0-.62-.125-1.066-.363-1.331-.247-.27-.579-.403-.985-.403-.23 0-.437.04-.629.114a1.823 1.823 0 0 0-.925.851 2.14 2.14 0 0 0-.2.645c-.039.23-.05.637-.05 1.222v2.512h-.692v-5.808h.692v.859c.515-.66 1.136-.988 1.863-.988 1.316 0 1.976.715 1.976 2.148v3.79m3.856-.001a3.38 3.38 0 0 1-.723.094c-.262 0-.488-.043-.676-.133a.854.854 0 0 1-.43-.398c-.085-.18-.14-.496-.14-.957v-3.899h-.805v-.515h.805v-1.485l.688-.441v1.926h1.097v.515h-1.097v3.809c0 .27.023.469.054.61l.207.296.39.102c.126 0 .306-.024.544-.075l.086.551m4.984-7.327v3.273h1.805c1.332 0 2-.547 2-1.645 0-1.082-.668-1.629-2-1.629zm0 3.94v3.387h-.765v-8.015h2.777c.812 0 1.45.199 1.902.597.457.403.68.965.68 1.696 0 .328-.059.632-.168.921-.113.29-.273.532-.48.754a1.956 1.956 0 0 1-.825.489 3.425 3.425 0 0 1-1.11.171h-2.01m10.011.008c-.102-1.343-.711-2.015-1.82-2.015a1.69 1.69 0 0 0-1.266.527c-.348.348-.555.844-.621 1.488zm.742.563h-4.473c.016.754.196 1.34.536 1.762.34.421.82.628 1.43.628.843 0 1.433-.464 1.765-1.406l.668.113c-.23.657-.547 1.133-.957 1.422-.406.29-.914.43-1.524.43-.82 0-1.464-.273-1.925-.816-.465-.54-.703-1.282-.703-2.223 0-.934.238-1.672.703-2.223.468-.539 1.113-.808 1.941-.808 1.68 0 2.524 1.039 2.54 3.12m4.401-2.769-.257.582c-.348-.148-.614-.215-.786-.215l-.37.063-.317.207-.258.324-.164.422c-.039.149-.066.371-.105.668a8.864 8.864 0 0 0-.043.809v2.726h-.672v-5.808h.597v1.175c.282-.875.735-1.304 1.356-1.304.316 0 .66.113 1.02.351m3.479 3.176.755-.066c.058.652.281 1.148.66 1.48.383.344.879.512 1.504.512.457 0 .844-.074 1.16-.215.32-.133.563-.34.742-.606.168-.273.258-.562.258-.867 0-.808-.703-1.332-2.101-1.593-.95-.168-1.63-.438-2.036-.786-.414-.355-.617-.843-.617-1.464 0-.66.238-1.18.719-1.567.48-.383 1.09-.574 1.828-.574.828 0 1.473.184 1.934.562.457.368.71.934.754 1.696l-.739.031c-.09-1.105-.719-1.66-1.89-1.66-.532 0-.985.125-1.34.383a1.25 1.25 0 0 0-.531 1.062c0 .77.644 1.281 1.925 1.531.938.192 1.649.461 2.118.817.464.347.695.851.695 1.515 0 .352-.059.668-.188.95a2.013 2.013 0 0 1-.57.75 2.65 2.65 0 0 1-.91.488 3.83 3.83 0 0 1-1.16.172c-1.82 0-2.805-.856-2.97-2.551m11.282-.969c-.105-1.343-.71-2.015-1.82-2.015a1.69 1.69 0 0 0-1.266.527c-.347.348-.554.844-.625 1.488zm.738.563h-4.468c.015.754.191 1.34.531 1.762.34.421.816.628 1.422.628.851 0 1.437-.464 1.777-1.406l.664.113c-.226.657-.547 1.133-.953 1.422-.414.29-.918.43-1.523.43-.825 0-1.47-.273-1.934-.816-.457-.54-.695-1.282-.695-2.223 0-.934.238-1.672.703-2.223.465-.539 1.11-.808 1.937-.808 1.676 0 2.528 1.039 2.54 3.12m4.406-2.769-.262.582c-.352-.148-.613-.215-.781-.215l-.371.063-.32.207-.258.324-.165.422a6.643 6.643 0 0 0-.101.668 7.725 7.725 0 0 0-.047.809v2.726h-.68v-5.808h.61v1.175c.281-.875.73-1.304 1.351-1.304.313 0 .66.113 1.024.351m5.293-.222-2.325 5.808h-.628l-2.325-5.808h.723l1.91 4.976 1.926-4.976h.719m1.73 5.808h-.687v-5.808h.687zm0-6.996h-.687v-1.02h.687v1.02m6.3 6.996h-.69v-3.61c0-.62-.118-1.066-.36-1.331-.246-.27-.57-.403-.984-.403-.223 0-.43.04-.625.114a1.841 1.841 0 0 0-.54.34 1.63 1.63 0 0 0-.382.511c-.098.2-.164.407-.203.645-.043.23-.059.637-.059 1.222v2.512h-.68v-5.808h.68v.859c.52-.66 1.14-.988 1.867-.988 1.317 0 1.977.715 1.977 2.148v3.79m6.137-2.841c0-.754-.18-1.37-.536-1.828-.363-.46-.859-.699-1.503-.699-.325 0-.606.063-.844.18a1.853 1.853 0 0 0-.621.504 2.11 2.11 0 0 0-.399.761c-.09.297-.132.633-.132 1.016 0 .726.175 1.328.53 1.793.356.469.837.695 1.462.695.367 0 .703-.082.996-.234.297-.164.543-.43.742-.793.207-.363.305-.832.305-1.395zm-4.508 3.489.664.129c.148.68.68 1.02 1.613 1.02 1.488 0 2.23-.704 2.23-2.118v-.563c-.335.407-.667.68-1.015.813-.34.137-.727.203-1.156.203-.39 0-.738-.066-1.051-.207a2.251 2.251 0 0 1-.813-.617 2.92 2.92 0 0 1-.535-.961 4.072 4.072 0 0 1-.175-1.23c0-.618.117-1.157.34-1.63.23-.476.53-.832.902-1.07.37-.234.824-.355 1.34-.355.445 0 .843.082 1.191.238.355.164.676.453.973.875v-.984h.672v5.347c0 .645-.098 1.176-.297 1.594a1.873 1.873 0 0 1-.918.934c-.414.191-.938.296-1.582.296-1.512 0-2.305-.574-2.383-1.714m-89.899 179.269v-8.734h-3.265v-1.168h7.855v1.168h-3.281v8.734h-1.309m6.571-3.585c0 .84.187 1.51.55 2.007.368.496.887.75 1.56.75.71 0 1.237-.266 1.585-.793.348-.535.527-1.2.527-2.008 0-.719-.171-1.347-.511-1.89-.332-.54-.868-.813-1.602-.813-.707 0-1.234.258-1.582.777-.348.52-.527 1.176-.527 1.97zm-1.25 0c0-1.348.34-2.31 1.031-2.88a3.51 3.51 0 0 1 2.328-.867c1.031 0 1.844.324 2.453.992.606.668.91 1.547.91 2.653 0 1.316-.328 2.289-.968 2.918-.645.62-1.446.933-2.395.933-1.16 0-2.012-.37-2.55-1.097-.544-.73-.81-1.622-.81-2.653m10.802 2.501.175 1.07c-.34.074-.648.113-.918.113-.375 0-.695-.059-.945-.172a1.151 1.151 0 0 1-.563-.516c-.117-.23-.18-.734-.18-1.511v-4.13h-.894v-.945h.895v-1.78l1.207-.724v2.504h1.223v.946h-1.223v4.203c0 .367.047.62.12.77.08.148.274.222.567.222.141 0 .32-.016.536-.05m5.773-2.512c-.453.183-1.11.34-1.984.457-.786.113-1.266.273-1.442.503-.18.23-.27.47-.27.72 0 .757.485 1.132 1.446 1.132 1.496 0 2.25-.793 2.25-2.371zm.098 2.718c-.817.696-1.696 1.043-2.637 1.043-.672 0-1.242-.164-1.73-.496-.485-.332-.72-.851-.72-1.555 0-.484.118-.875.368-1.203.246-.316.55-.554.918-.703.363-.148.875-.265 1.535-.34.984-.117 1.703-.257 2.168-.422 0-.468-.04-.8-.098-.992-.058-.199-.215-.379-.48-.543-.258-.16-.645-.242-1.149-.242-.496 0-.894.09-1.191.258-.3.172-.531.543-.68 1.113l-1.183-.164c.297-1.473 1.375-2.207 3.234-2.207.777 0 1.367.102 1.777.317.407.222.672.496.805.847.125.34.192.852.192 1.54l.007 3.163c0 .52.13 1.008.38 1.465h-1.274a2.474 2.474 0 0 1-.242-.879m2.988.879v-9.902h1.223v9.902h-1.223m15.055-3.472 1.312.332c-.57 2.207-1.934 3.312-4.11 3.312-1.597 0-2.769-.496-3.523-1.504-.746-1.008-1.125-2.238-1.125-3.695 0-1.676.453-2.934 1.364-3.781.91-.844 2.011-1.266 3.308-1.266 2.05 0 3.352.965 3.914 2.89l-1.289.301c-.441-1.375-1.324-2.074-2.648-2.074-1.176 0-2.012.379-2.532 1.129-.511.738-.761 1.672-.761 2.8 0 1.43.304 2.466.91 3.11.605.645 1.367.973 2.281.973 1.567 0 2.54-.848 2.899-2.527m7.343-.125c-.445.183-1.11.34-1.984.457-.777.113-1.258.273-1.434.503-.18.23-.273.47-.273.72 0 .757.48 1.132 1.441 1.132 1.504 0 2.25-.793 2.25-2.371zm.106 2.718c-.824.696-1.703 1.043-2.645 1.043-.664 0-1.242-.164-1.722-.496-.489-.332-.727-.851-.727-1.555 0-.484.125-.875.371-1.203a2.2 2.2 0 0 1 .918-.703c.367-.148.879-.265 1.531-.34.985-.117 1.711-.257 2.168-.422 0-.468-.027-.8-.09-.992-.058-.199-.218-.379-.48-.543-.266-.16-.645-.242-1.152-.242-.496 0-.891.09-1.192.258-.304.172-.527.543-.676 1.113l-1.19-.164c.304-1.473 1.374-2.207 3.233-2.207.786 0 1.38.102 1.786.317.406.222.671.496.796.847.137.34.196.852.196 1.54l.008 3.163c0 .52.125 1.008.382 1.465h-1.273a2.188 2.188 0 0 1-.242-.879m2.996.879v-7.176h1.101v1.086c.454-.828.973-1.242 1.547-1.242.41 0 .832.125 1.254.383l-.422 1.137a1.708 1.708 0 0 0-.89-.27c-.918 0-1.375.777-1.375 2.328v3.754h-1.215m5.73-3.637c0 .711.082 1.262.235 1.63.156.37.386.66.683.867.297.207.63.312.985.312.636 0 1.125-.266 1.457-.8.332-.532.504-1.192.504-1.966 0-.738-.149-1.382-.454-1.925-.3-.547-.785-.813-1.449-.813-.605 0-1.09.25-1.437.77-.348.511-.524 1.156-.524 1.925zm.016 3.637h-1.125v-9.902h1.21v3.531c.513-.644 1.173-.96 1.97-.96.925 0 1.668.331 2.214 1 .547.671.82 1.546.82 2.636 0 1.117-.28 2.043-.835 2.77-.555.726-1.309 1.09-2.266 1.09-.844 0-1.508-.356-1.988-1.06v.895m7.372-3.585c0 .84.183 1.51.554 2.007.363.496.879.75 1.562.75.711 0 1.235-.266 1.582-.793.344-.535.52-1.2.52-2.008 0-.719-.172-1.347-.504-1.89-.34-.54-.871-.813-1.598-.813-.71 0-1.246.258-1.594.777-.347.52-.523 1.176-.523 1.97zm-1.25 0c0-1.348.339-2.31 1.026-2.88.688-.578 1.465-.867 2.34-.867 1.02 0 1.836.324 2.442.992.609.668.91 1.547.91 2.653 0 1.316-.324 2.289-.969 2.918-.644.62-1.437.933-2.383.933-1.172 0-2.02-.37-2.562-1.097-.54-.73-.805-1.622-.805-2.653m8.149 3.586v-9.902h1.214v3.547c.57-.653 1.286-.977 2.145-.977.77 0 1.371.184 1.816.57.442.383.664 1.125.664 2.215v4.547h-1.214v-4.547c0-1.164-.504-1.742-1.508-1.742-1.266 0-1.903.785-1.903 2.363v3.926h-1.214m7.64 2.774-.137-1.149c.27.074.497.11.7.11.382 0 .671-.09.843-.274.176-.18.399-.644.657-1.387l.023-.058-2.723-7.192h1.309l1.496 4.157a18.9 18.9 0 0 1 .516 1.664c.14-.547.304-1.094.504-1.63l1.53-4.19h1.216l-2.723 7.304c-.406 1.078-.77 1.82-1.09 2.207-.324.39-.77.586-1.34.586-.234 0-.496-.055-.78-.148m7.784-6.352c0 .809.172 1.469.512 1.98.348.512.82.77 1.434.77.628 0 1.113-.254 1.43-.758.324-.504.488-1.133.488-1.894 0-.86-.168-1.555-.512-2.075-.332-.52-.82-.777-1.457-.777-1.266 0-1.895.918-1.895 2.754zm3.84 3.578v-.902c-.457.71-1.125 1.066-2.004 1.066-.96 0-1.719-.355-2.265-1.074-.547-.71-.82-1.602-.82-2.668 0-1.242.288-2.176.87-2.812.579-.633 1.297-.942 2.157-.942.851 0 1.507.324 1.984.977v-3.547h1.203v9.902h-1.125m3.027 0v-7.176h1.098v1.086c.457-.828.977-1.242 1.555-1.242.406 0 .82.125 1.242.383l-.414 1.137a1.71 1.71 0 0 0-.895-.27c-.91 0-1.37.777-1.37 2.328v3.754h-1.216m9.204-3.597c-.454.183-1.11.34-1.993.457-.777.113-1.257.273-1.437.503-.176.23-.266.47-.266.72 0 .757.48 1.132 1.446 1.132 1.496 0 2.25-.793 2.25-2.371zm.101 2.718c-.82.696-1.7 1.043-2.64 1.043-.668 0-1.243-.164-1.735-.496-.48-.332-.723-.851-.723-1.555 0-.484.125-.875.375-1.203.247-.316.56-.554.918-.703.364-.148.875-.265 1.536-.34.984-.117 1.699-.257 2.168-.422 0-.468-.032-.8-.098-.992-.059-.199-.215-.379-.48-.543-.258-.16-.645-.242-1.149-.242-.496 0-.894.09-1.2.258-.292.172-.523.543-.671 1.113l-1.184-.164c.297-1.473 1.375-2.207 3.235-2.207.777 0 1.367.102 1.777.317.406.222.68.496.805.847.125.34.191.852.191 1.54l.008 3.163c0 .52.125 1.008.379 1.465h-1.274a2.396 2.396 0 0 1-.238-.879m5.665-.206.175 1.07c-.34.074-.648.113-.918.113-.375 0-.695-.059-.945-.172a1.102 1.102 0 0 1-.555-.516c-.125-.23-.187-.734-.187-1.511v-4.13h-.895v-.945h.895v-1.78l1.214-.724v2.504h1.215v.946h-1.215v4.203c0 .367.04.62.114.77.078.148.273.222.57.222.14 0 .316-.016.531-.05m2.11-3.188h4.003c-.05-.688-.257-1.2-.628-1.547-.364-.344-.805-.512-1.332-.512-.57 0-1.043.184-1.422.57-.375.38-.586.875-.621 1.489zm3.996 1.965 1.254.152c-.418 1.55-1.47 2.32-3.157 2.32-.644 0-1.21-.125-1.707-.379-.496-.242-.914-.644-1.23-1.199-.317-.547-.48-1.25-.48-2.11 0-.734.124-1.378.374-1.949a3.04 3.04 0 0 1 1.125-1.355c.504-.344 1.121-.504 1.852-.504.77 0 1.398.184 1.902.563.496.379.844.836 1.051 1.379.2.546.305 1.25.305 2.109h-5.352c.043.762.258 1.355.645 1.793.383.437.894.66 1.523.66.91 0 1.54-.496 1.895-1.48M291.234 405.84h2.563c1.55 0 2.328-.61 2.328-1.809 0-.43-.086-.777-.266-1.05a1.274 1.274 0 0 0-.703-.543c-.297-.094-.754-.141-1.39-.141h-2.532zm-1.312 5.2v-9.911h3.738c.817 0 1.48.066 1.992.207.52.14.95.453 1.305.934.348.472.523 1.05.523 1.726 0 2.008-1.234 3.016-3.707 3.016h-2.539v4.027h-1.312m9.055.001v-7.185h1.101v1.09c.453-.832.973-1.246 1.547-1.246.41 0 .832.125 1.254.39l-.422 1.13a1.77 1.77 0 0 0-.89-.262c-.919 0-1.368.773-1.368 2.32v3.762h-1.222m5.425-3.589c0 .843.176 1.507.547 2.003.363.5.89.75 1.563.75.71 0 1.234-.265 1.586-.793.347-.527.515-1.191.515-2.008 0-.718-.164-1.347-.504-1.886-.332-.543-.863-.817-1.597-.817-.711 0-1.235.266-1.586.785-.352.52-.524 1.172-.524 1.965zm-1.25 0c0-1.352.34-2.305 1.02-2.884.687-.578 1.465-.867 2.34-.867 1.027 0 1.843.332 2.449.992.61.668.91 1.555.91 2.66 0 1.317-.324 2.29-.969 2.91-.644.622-1.441.934-2.39.934-1.164 0-2.02-.363-2.555-1.097-.539-.73-.805-1.614-.805-2.649m10.798 2.504.179 1.067a4.44 4.44 0 0 1-.918.109c-.387 0-.695-.059-.95-.172a1.148 1.148 0 0 1-.562-.516c-.117-.23-.183-.734-.183-1.503v-4.13h-.887v-.953h.887v-1.773l1.214-.73v2.503h1.22v.954h-1.22v4.195c0 .371.036.629.118.77.082.148.265.222.57.222.133 0 .312-.016.531-.043m2.11-3.195h4.007c-.054-.68-.27-1.2-.628-1.54-.364-.347-.81-.519-1.336-.519-.575 0-1.051.192-1.426.57-.371.38-.578.876-.617 1.489zm4 1.972 1.25.149c-.414 1.547-1.465 2.316-3.153 2.316-.644 0-1.215-.125-1.719-.37-.496-.25-.902-.653-1.222-1.2-.317-.555-.48-1.258-.48-2.117 0-.727.124-1.38.37-1.95a3.04 3.04 0 0 1 1.125-1.355c.504-.332 1.125-.504 1.86-.504.77 0 1.398.184 1.894.563.496.379.852.836 1.051 1.386.207.54.309 1.243.309 2.11h-5.352c.047.758.262 1.347.645 1.785.386.437.898.66 1.527.66.91 0 1.54-.496 1.895-1.473m2.781 2.31v-7.185h1.223v7.184zm0-8.513v-1.398h1.223v1.398h-1.223m3.074 8.513v-7.185H327v1.02c.527-.785 1.29-1.176 2.29-1.176.644 0 1.151.125 1.515.38.37.25.613.562.742.937.133.379.191.914.191 1.609v4.414h-1.215v-4.371c0-1.281-.503-1.918-1.496-1.918-1.265 0-1.902.785-1.902 2.363v3.926h-1.21m-15.317-134.945h-3.036v9.047h-.945v-9.047h-3.023v-.867h7.004v.867m5.168 2.14-.329.727c-.43-.184-.753-.274-.96-.274l-.461.083-.391.25-.324.406a2.02 2.02 0 0 0-.203.512 8.439 8.439 0 0 0-.118.832 8.654 8.654 0 0 0-.058 1v3.37h-.844v-7.18h.746v1.454c.348-1.074.91-1.617 1.676-1.617.39 0 .813.148 1.266.437m5.566 3.512v-.465c-.477.184-1.23.364-2.266.54-.546.097-.949.199-1.199.296-.254.102-.445.25-.57.445a1.15 1.15 0 0 0-.192.68c0 .395.141.703.43.942.293.246.664.363 1.125.363.266 0 .531-.04.79-.106.26-.074.519-.175.769-.316a2.2 2.2 0 0 0 .629-.504c.172-.2.289-.453.37-.762a4.86 4.86 0 0 0 .114-1.113zm1.266 3.395h-.918a4.472 4.472 0 0 1-.27-1.098c-.77.836-1.754 1.258-2.93 1.258-.43 0-.812-.078-1.148-.227a1.812 1.812 0 0 1-.812-.676c-.2-.296-.305-.66-.305-1.09a2.2 2.2 0 0 1 .14-.812c.098-.238.239-.453.43-.633.192-.175.453-.332.777-.465.325-.125.918-.246 1.762-.363.95-.133 1.613-.273 2.008-.422 0-.406-.008-.718-.031-.941a1.353 1.353 0 0 0-.23-.621c-.134-.196-.333-.34-.606-.446-.266-.105-.606-.148-1-.148-1.242 0-1.992.527-2.242 1.594l-.852-.133c.266-1.418 1.297-2.121 3.086-2.121.563 0 1.035.066 1.422.195.379.133.668.309.851.547.192.238.313.527.372.875.05.348.082.82.082 1.438l-.024 2.02c-.008.534.016.948.074 1.237.059.29.176.637.364 1.032m7.336-.001h-.848v-4.46c0-.77-.152-1.325-.45-1.653-.296-.324-.702-.488-1.214-.488a2.097 2.097 0 0 0-1.434.555 2.09 2.09 0 0 0-.484.636 2.89 2.89 0 0 0-.25.786c-.043.289-.067.793-.067 1.511v3.114h-.843v-7.18h.844v1.059c.644-.813 1.414-1.223 2.308-1.223 1.629 0 2.438.89 2.438 2.66v4.684m1.558-1.941.852-.141c.133.546.379.941.75 1.183.36.254.82.38 1.36.38.37 0 .694-.067.983-.185.297-.128.52-.289.668-.492.149-.199.23-.441.23-.718a.924.924 0 0 0-.26-.657 1.699 1.699 0 0 0-.688-.43 9.24 9.24 0 0 0-1.223-.32c-1.633-.34-2.45-1.015-2.45-2.007 0-.622.24-1.118.72-1.473.488-.363 1.093-.543 1.82-.543 1.453 0 2.34.629 2.656 1.898l-.82.125c-.156-.504-.363-.851-.63-1.043-.257-.195-.66-.289-1.19-.289-.332 0-.637.051-.903.153-.273.105-.476.238-.61.41a.922.922 0 0 0-.19.597c0 .239.058.43.18.594.116.172.355.313.694.445.348.133.79.258 1.325.383 1.011.23 1.68.52 1.992.856.308.332.457.722.457 1.183 0 .454-.11.844-.332 1.164-.215.325-.54.579-.965.762-.426.18-.922.274-1.5.274a4.76 4.76 0 0 1-1.008-.102 2.728 2.728 0 0 1-.82-.336 2.22 2.22 0 0 1-.652-.59c-.184-.254-.333-.617-.446-1.082m17.301-7.14h-4.914v3.59h4.187v.808h-4.187v4.684h-.942v-9.914h5.856v.832m6.387 5.687v-.465c-.473.184-1.235.364-2.266.54-.547.097-.945.199-1.2.296-.25.102-.44.25-.57.445a1.15 1.15 0 0 0-.19.68c0 .395.14.703.429.942.297.246.668.363 1.125.363.265 0 .531-.04.793-.106.258-.074.515-.175.77-.316.25-.14.456-.305.628-.504.164-.2.29-.453.371-.762.075-.312.11-.683.11-1.113zm1.265 3.395h-.918a4.3 4.3 0 0 1-.265-1.098c-.778.836-1.754 1.258-2.93 1.258-.43 0-.816-.078-1.156-.227a1.865 1.865 0 0 1-.809-.676c-.207-.296-.3-.66-.3-1.09 0-.304.042-.578.14-.812a1.69 1.69 0 0 1 .43-.633c.191-.175.449-.332.777-.465.324-.125.918-.246 1.762-.363.945-.133 1.613-.273 2.004-.422 0-.406-.008-.718-.032-.941a1.348 1.348 0 0 0-.226-.621c-.133-.196-.336-.34-.61-.446-.265-.105-.605-.148-1.003-.148-1.239 0-1.985.527-2.239 1.594l-.851-.133c.261-1.418 1.289-2.121 3.09-2.121.562 0 1.035.066 1.414.195.382.133.672.309.855.547.195.238.313.527.371.875.051.348.082.82.082 1.438l-.023 2.02c-.008.534.015.948.074 1.237.055.29.18.637.363 1.032m4.41-.001a4.63 4.63 0 0 1-.894.11c-.324 0-.606-.05-.836-.156a1.078 1.078 0 0 1-.523-.496c-.114-.223-.172-.614-.172-1.184v-4.816h-1v-.637h1v-1.836l.851-.543v2.379h1.348v.637h-1.348v4.703c0 .336.024.586.067.75l.242.37a.884.884 0 0 0 .492.126c.152 0 .375-.031.664-.09l.11.684m-55.434 76.496v8.242h2.324c.578 0 1.059-.043 1.469-.133.398-.094.789-.308 1.16-.652.363-.34.645-.797.836-1.367.187-.57.281-1.278.281-2.09 0-2.668-1.242-4-3.746-4zm-.938 9.074v-9.906h3.805c.945 0 1.746.222 2.375.675a3.79 3.79 0 0 1 1.383 1.793 6.89 6.89 0 0 1 .422 2.43c0 1.586-.36 2.817-1.094 3.695-.734.875-1.762 1.313-3.086 1.313h-3.805m10.726-.001h-.847v-7.179h.848zm0-8.644h-.847v-1.261h.848v1.261m7.258 4.465c-.133-1.652-.88-2.48-2.25-2.48-.621 0-1.145.215-1.567.644-.43.43-.683 1.043-.765 1.836zm.914.7h-5.524c.016.93.23 1.656.66 2.175.422.52 1.004.785 1.754.785 1.051 0 1.774-.586 2.196-1.746l.824.14c-.281.813-.676 1.4-1.184 1.755-.504.355-1.132.535-1.882.535-1.012 0-1.813-.336-2.383-1.008-.578-.668-.86-1.586-.86-2.742 0-1.164.29-2.074.868-2.75.578-.664 1.37-1 2.39-1 2.074 0 3.117 1.281 3.14 3.855m4.38 3.48a4.185 4.185 0 0 1-.887.118c-.324 0-.605-.05-.844-.164a1.037 1.037 0 0 1-.52-.488c-.116-.223-.175-.621-.175-1.192v-4.808h-1v-.645h1v-1.836l.851-.543v2.38h1.352v.644h-1.351v4.703c0 .336.019.578.066.75l.25.371c.117.082.289.117.488.117.156 0 .38-.027.668-.082l.102.676m5.871-3.395v-.457c-.48.176-1.235.364-2.274.54-.539.097-.937.19-1.199.296-.25.098-.437.246-.57.438a1.226 1.226 0 0 0-.192.68c0 .394.149.71.438.949.289.238.664.355 1.117.355.274 0 .531-.027.8-.101.259-.067.517-.18.763-.313.25-.14.464-.312.629-.512.168-.191.296-.453.37-.753a4.62 4.62 0 0 0 .118-1.122zm1.258 3.395h-.91a3.842 3.842 0 0 1-.266-1.09c-.777.836-1.754 1.254-2.934 1.254a2.86 2.86 0 0 1-1.152-.223 1.918 1.918 0 0 1-.817-.675c-.199-.305-.3-.668-.3-1.098 0-.3.05-.57.14-.805a1.64 1.64 0 0 1 .434-.629 2.3 2.3 0 0 1 .777-.468c.328-.125.914-.25 1.762-.372.95-.125 1.617-.265 2.008-.414a9.52 9.52 0 0 0-.04-.949 1.267 1.267 0 0 0-.226-.613c-.125-.192-.328-.34-.601-.445a2.882 2.882 0 0 0-1.004-.157c-1.246 0-1.985.536-2.239 1.594l-.859-.125c.27-1.414 1.297-2.121 3.09-2.121.57 0 1.035.063 1.418.195.387.125.676.309.86.547.187.23.304.528.363.875.058.34.09.82.09 1.43l-.032 2.023c-.008.54.024.953.074 1.243.059.289.18.628.364 1.023m5.476-6.906-.324.726c-.43-.176-.754-.273-.961-.273l-.469.082-.39.258-.32.41a2.084 2.084 0 0 0-.2.508c-.043.187-.09.468-.125.832-.039.37-.058.695-.058.992v3.37h-.836v-7.179h.738v1.461c.355-1.082.918-1.617 1.68-1.617.386 0 .816.14 1.265.43m6.625-.274-2.832 7.18-.562 1.43c-.395.992-.942 1.488-1.668 1.488-.168 0-.438-.043-.797-.133l-.098-.844c.34.075.59.118.762.118.265 0 .465-.051.586-.165.125-.101.25-.316.37-.628l.5-1.266-2.823-7.18h.914l2.363 6.207 2.45-6.207h.835m11.016-1.902h-4.914v3.598h4.187v.808h-4.187v4.676h-.942v-9.906h5.856v.824m2.574 9.081h-.844v-7.179h.844zm0-8.644h-.844v-1.261h.844v1.261m8.098 5.074c0-.898-.215-1.628-.64-2.199-.43-.578-1.017-.867-1.763-.867-.824 0-1.46.281-1.925.852-.461.562-.688 1.332-.688 2.308 0 .914.223 1.633.68 2.157.457.527 1.09.785 1.879.785.379 0 .71-.074 1.015-.215.297-.149.555-.363.778-.652.222-.29.382-.614.496-.977a4.1 4.1 0 0 0 .168-1.191zm-5.008 2.489v1.082h-.84v-9.906h.84v3.898c.715-.89 1.621-1.328 2.7-1.328 1.015 0 1.8.352 2.355 1.047.546.695.828 1.578.828 2.637 0 1.156-.29 2.074-.868 2.77-.57.694-1.367 1.046-2.39 1.046-1.059 0-1.93-.418-2.625-1.246m12.618-3.098c-.134-1.652-.88-2.48-2.25-2.48-.622 0-1.145.215-1.567.644-.422.43-.684 1.043-.766 1.836zm.91.7h-5.52c.015.93.23 1.656.656 2.175.426.52 1.008.785 1.762.785 1.047 0 1.77-.586 2.191-1.746l.824.14c-.281.813-.675 1.4-1.183 1.755-.504.355-1.133.535-1.883.535-1.012 0-1.813-.336-2.383-1.008-.57-.668-.86-1.586-.86-2.742 0-1.164.29-2.074.868-2.75.578-.664 1.371-1 2.39-1 2.075 0 3.125 1.281 3.137 3.855m5.449-3.425-.324.726c-.437-.176-.758-.273-.965-.273l-.457.082-.398.258-.32.41c-.09.152-.157.324-.2.508-.043.187-.09.468-.125.832-.039.37-.054.695-.054.992v3.37h-.844v-7.179h.742v1.461c.356-1.082.91-1.617 1.68-1.617.394 0 .816.14 1.265.43m-78.734 24.004.934-.082c.074.808.347 1.421.82 1.836.465.417 1.09.625 1.852.625.57 0 1.05-.09 1.433-.262.395-.168.695-.422.91-.754.215-.332.32-.688.32-1.067 0-.992-.867-1.652-2.59-1.972-1.171-.215-2.015-.531-2.519-.977-.508-.43-.762-1.035-.762-1.8 0-.813.297-1.458.891-1.934.59-.473 1.344-.711 2.262-.711 1.023 0 1.816.23 2.387.684.57.457.878 1.16.937 2.101l-.918.04c-.11-1.372-.887-2.056-2.332-2.056-.664 0-1.219.165-1.656.485-.438.316-.66.754-.66 1.308 0 .942.793 1.57 2.379 1.891 1.16.238 2.035.57 2.609 1 .578.43.867 1.059.867 1.883 0 .437-.074.828-.23 1.176-.153.347-.391.66-.711.918-.317.27-.688.468-1.117.609-.43.14-.91.207-1.434.207-2.25 0-3.473-1.05-3.672-3.148m14.391 2.976h-.844v-1.058c-.629.816-1.402 1.222-2.313 1.222-1.62 0-2.433-.89-2.433-2.66v-4.68h.851v4.457c0 .778.149 1.336.45 1.66.304.329.71.497 1.214.497.332 0 .653-.075.942-.215.289-.14.547-.356.77-.645.23-.289.37-.629.43-1.015.058-.383.089-.926.089-1.621v-3.118h.844v7.176m7.668-3.504c0-.941-.223-1.695-.668-2.265-.446-.57-1.059-.86-1.852-.86-.406 0-.754.074-1.05.223-.29.14-.548.348-.762.613a2.75 2.75 0 0 0-.496.95 4.725 4.725 0 0 0-.157 1.253c0 .903.215 1.645.653 2.215.437.578 1.035.863 1.808.863.457 0 .863-.101 1.227-.3.363-.2.676-.528.918-.973.254-.45.379-1.02.379-1.719zm-5.575 4.305.829.156c.18.844.836 1.266 1.984 1.266 1.844 0 2.762-.875 2.762-2.613v-.696c-.414.504-.832.836-1.258 1-.422.168-.899.25-1.422.25a3.37 3.37 0 0 1-1.305-.25 2.792 2.792 0 0 1-1.004-.765 3.492 3.492 0 0 1-.652-1.192 4.888 4.888 0 0 1-.223-1.52c0-.753.141-1.429.422-2.015.281-.586.653-1.02 1.11-1.316.46-.297 1.015-.446 1.66-.446.547 0 1.035.102 1.472.305.438.2.836.555 1.2 1.074v-1.215h.828v6.606c0 .8-.117 1.453-.363 1.973a2.339 2.339 0 0 1-1.133 1.148c-.516.242-1.168.371-1.961.371-1.864 0-2.852-.715-2.946-2.121m13.219-4.191v-.47c-.472.188-1.226.364-2.265.544-.547.101-.946.199-1.2.297a1.22 1.22 0 0 0-.57.441 1.178 1.178 0 0 0-.191.684c0 .39.14.703.437.949.29.234.66.355 1.117.355.266 0 .535-.039.793-.105.258-.074.52-.176.77-.317.25-.136.457-.304.629-.503.172-.196.289-.454.37-.766a4.75 4.75 0 0 0 .11-1.11zm1.266 3.39h-.918a4.211 4.211 0 0 1-.266-1.086c-.777.828-1.746 1.25-2.93 1.25-.43 0-.816-.074-1.148-.222a1.972 1.972 0 0 1-.816-.672c-.207-.305-.301-.668-.301-1.098 0-.305.043-.57.14-.816.094-.235.235-.442.43-.63a2.43 2.43 0 0 1 .778-.456c.324-.137.918-.254 1.761-.371.946-.133 1.614-.27 2.004-.422 0-.41-.008-.719-.027-.942a1.401 1.401 0 0 0-.23-.617c-.133-.191-.333-.34-.61-.441-.266-.106-.605-.157-1.004-.157-1.238 0-1.984.524-2.234 1.59l-.852-.132c.266-1.407 1.293-2.118 3.086-2.118.563 0 1.035.067 1.422.2.375.125.664.312.852.543.19.234.308.523.367.87.054.348.082.833.082 1.438l-.024 2.024c-.004.539.016.957.075 1.246.054.289.18.629.363 1.02m5.472-6.903-.328.726c-.43-.187-.746-.277-.96-.277l-.462.082-.39.254-.324.406c-.09.156-.157.328-.204.52a7.53 7.53 0 0 0-.117.828c-.035.363-.058.7-.058.992v3.371h-.836v-7.176h.738v1.45c.356-1.075.91-1.614 1.676-1.614.39 0 .812.149 1.265.438m.34 4.961.852-.14c.125.55.375.94.746 1.194.363.243.812.372 1.355.372.375 0 .704-.063.993-.188.296-.125.507-.289.664-.488.148-.2.23-.438.23-.719 0-.25-.09-.473-.258-.652a1.8 1.8 0 0 0-.691-.43 9.693 9.693 0 0 0-1.219-.324c-1.637-.344-2.449-1.008-2.449-2.008 0-.625.234-1.113.715-1.477.488-.355 1.09-.539 1.824-.539 1.45 0 2.328.637 2.656 1.903l-.824.12c-.152-.503-.36-.85-.629-1.046-.258-.192-.656-.281-1.191-.281-.332 0-.637.05-.91.148-.266.106-.465.238-.598.406a.953.953 0 0 0-.2.602c0 .238.067.437.184.601.118.16.356.309.696.438.347.133.785.258 1.324.383 1.015.23 1.68.52 1.992.851.305.336.457.735.457 1.188 0 .457-.11.844-.332 1.168-.223.32-.539.57-.96.758-.43.183-.927.273-1.505.273-.37 0-.703-.039-1.004-.105a2.904 2.904 0 0 1-.824-.325 2.21 2.21 0 0 1-.652-.601c-.184-.25-.332-.613-.442-1.082m-48.254-144.641v-8.742h-3.265v-1.172h7.855v1.172h-3.281v8.742h-1.309m6.571-3.593c0 .843.187 1.511.55 2.007.368.496.887.746 1.56.746.71 0 1.237-.265 1.585-.789.348-.527.527-1.195.527-2.008 0-.718-.171-1.351-.511-1.89-.332-.54-.868-.809-1.602-.809-.707 0-1.234.262-1.582.778-.348.52-.527 1.171-.527 1.964zm-1.25 0c0-1.34.34-2.305 1.031-2.883a3.51 3.51 0 0 1 2.328-.868c1.031 0 1.844.336 2.453 1 .606.66.91 1.551.91 2.653 0 1.32-.328 2.289-.968 2.914-.645.62-1.446.933-2.395.933-1.16 0-2.012-.363-2.55-1.097-.544-.735-.81-1.617-.81-2.653m10.802 2.504.175 1.075c-.34.066-.648.101-.918.101-.375 0-.695-.05-.945-.168a1.124 1.124 0 0 1-.563-.52c-.117-.23-.18-.734-.18-1.503v-4.125h-.894v-.957h.895v-1.77l1.207-.734v2.504h1.223v.957h-1.223v4.191c0 .371.047.629.12.77.08.148.274.222.567.222.141 0 .32-.011.536-.043m5.773-2.511c-.453.18-1.11.332-1.984.46-.786.102-1.266.274-1.442.504-.18.227-.27.465-.27.711 0 .754.485 1.133 1.446 1.133 1.496 0 2.25-.785 2.25-2.363zm.098 2.71c-.817.696-1.696 1.047-2.637 1.047-.672 0-1.242-.164-1.73-.5-.485-.332-.72-.851-.72-1.554 0-.473.118-.875.368-1.192a2.17 2.17 0 0 1 .918-.71c.363-.15.875-.262 1.535-.34.984-.122 1.703-.254 2.168-.418 0-.473-.04-.805-.098-1-.058-.192-.215-.368-.48-.532-.258-.164-.645-.246-1.149-.246-.496 0-.894.082-1.191.254-.3.176-.531.547-.68 1.11l-1.183-.165c.297-1.472 1.375-2.207 3.234-2.207.777 0 1.367.114 1.777.328.407.215.672.497.805.836.125.34.192.86.192 1.543l.007 3.16c0 .52.13 1.008.38 1.477h-1.274a2.614 2.614 0 0 1-.242-.89m2.988.89v-9.914h1.223v9.914h-1.223m8.055 0v-9.914h6.675v1.172h-5.367v3.074h4.649v1.164h-4.649v4.504h-1.308m12.804-3.601c-.453.18-1.11.332-1.984.46-.785.102-1.258.274-1.442.504-.18.227-.27.465-.27.711 0 .754.485 1.133 1.446 1.133 1.504 0 2.25-.785 2.25-2.363zm.106 2.71c-.825.696-1.703 1.047-2.645 1.047-.668 0-1.242-.164-1.73-.5-.485-.332-.719-.851-.719-1.554 0-.473.117-.875.371-1.192.242-.328.555-.554.918-.71.367-.15.879-.262 1.531-.34.985-.122 1.703-.254 2.168-.418 0-.473-.031-.805-.09-1-.066-.192-.222-.368-.48-.532-.266-.164-.652-.246-1.156-.246-.493 0-.887.082-1.192.254-.3.176-.531.547-.68 1.11l-1.183-.165c.305-1.472 1.375-2.207 3.234-2.207.778 0 1.371.114 1.778.328.406.215.68.497.804.836.133.34.196.86.196 1.543l.004 3.16c0 .52.129 1.008.379 1.477h-1.274a2.447 2.447 0 0 1-.234-.89m5.668-.2.172 1.075a4.94 4.94 0 0 1-.918.101c-.38 0-.696-.05-.95-.168a1.092 1.092 0 0 1-.554-.52c-.125-.23-.184-.734-.184-1.503v-4.125h-.898v-.957h.898v-1.77l1.211-.734v2.504h1.223v.957h-1.223v4.191c0 .371.04.629.121.77.074.148.266.222.563.222.14 0 .316-.011.539-.043m175.449-1.117c0-1.328-.422-1.996-1.274-1.996-.863 0-1.3.652-1.3 1.965 0 1.332.437 2 1.3 2 .852 0 1.274-.653 1.274-1.969zm.75-.016c0 1.727-.684 2.586-2.035 2.586-.645 0-1.14-.23-1.496-.699-.356-.465-.535-1.078-.535-1.851 0-.547.082-1.02.261-1.43.168-.399.406-.703.696-.91.296-.207.652-.313 1.074-.313.34 0 .64.067.91.203.258.133.473.325.64.57.165.25.282.524.364.829.074.312.12.644.12 1.015zm-2.035-7.859-5.774 10.445h-.707l5.79-10.445zm-5.192 2.637c0-1.328-.422-1.985-1.265-1.985-.871 0-1.301.649-1.301 1.954 0 1.34.43 2.007 1.3 2.007.844 0 1.266-.66 1.266-1.976zm.75-.024c0 1.727-.683 2.594-2.039 2.594-.316 0-.597-.058-.847-.18a1.632 1.632 0 0 1-.637-.511 2.483 2.483 0 0 1-.41-.805 3.934 3.934 0 0 1-.133-1.047c0-.785.18-1.43.535-1.926.356-.488.86-.738 1.492-.738.653 0 1.157.234 1.504.711.356.473.535 1.11.535 1.902"/><path fill="#231f20" d="m303.914 260.676.934-.078c.074.804.347 1.422.82 1.836.465.414 1.09.62 1.852.62.57 0 1.05-.085 1.433-.257.395-.172.695-.422.91-.758.215-.332.32-.687.32-1.066 0-.993-.867-1.653-2.59-1.97-1.171-.214-2.015-.534-2.519-.976-.508-.43-.762-1.039-.762-1.8 0-.817.297-1.461.891-1.934.59-.477 1.344-.711 2.262-.711 1.023 0 1.816.227 2.387.688.57.453.878 1.156.937 2.097l-.918.035c-.11-1.37-.887-2.05-2.332-2.05-.664 0-1.219.164-1.656.48-.438.32-.66.758-.66 1.313 0 .94.793 1.57 2.379 1.886 1.16.239 2.035.57 2.609 1 .578.43.867 1.063.867 1.883 0 .438-.074.832-.23 1.18-.153.347-.391.66-.711.918a3.313 3.313 0 0 1-1.117.605c-.43.14-.91.207-1.434.207-2.25 0-3.473-1.05-3.672-3.148m13.559-.414v-.465c-.473.183-1.227.363-2.262.547-.55.097-.95.191-1.2.289a1.211 1.211 0 0 0-.57.445 1.168 1.168 0 0 0-.195.68c0 .394.14.707.438.949.289.238.66.356 1.117.356.27 0 .535-.036.793-.102.258-.074.52-.18.77-.32a2.07 2.07 0 0 0 .628-.504c.172-.192.29-.453.371-.754a4.91 4.91 0 0 0 .11-1.121zm1.265 3.394h-.918a3.975 3.975 0 0 1-.257-1.09c-.778.832-1.754 1.254-2.938 1.254-.43 0-.816-.074-1.148-.222a1.917 1.917 0 0 1-.813-.676c-.2-.305-.305-.668-.305-1.098 0-.3.043-.57.141-.812.098-.239.238-.446.43-.63.191-.179.449-.335.777-.46.332-.133.918-.25 1.762-.371.945-.133 1.62-.274 2.004-.422 0-.406-.008-.719-.028-.942a1.283 1.283 0 0 0-.23-.613 1.272 1.272 0 0 0-.598-.445 2.921 2.921 0 0 0-1.008-.156c-1.246 0-1.992.535-2.234 1.593l-.86-.132c.266-1.407 1.294-2.122 3.087-2.122.562 0 1.035.07 1.421.196.383.133.664.316.852.547.191.238.309.527.367.875.063.347.082.828.082 1.437l-.02 2.024c-.007.539.012.953.075 1.242.058.289.176.629.36 1.023m4.413 0c-.37.074-.668.117-.89.117a2.11 2.11 0 0 1-.844-.16 1.142 1.142 0 0 1-.523-.492c-.114-.223-.172-.621-.172-1.191v-4.817h-1v-.636h1v-1.836l.851-.543v2.379h1.356v.636h-1.356v4.707c0 .332.024.582.067.754l.246.371c.125.082.289.118.496.118.152 0 .367-.028.656-.09l.113.683m6.7 0H329v-1.058c-.629.812-1.398 1.222-2.309 1.222-1.62 0-2.437-.89-2.437-2.66v-4.683h.851v4.46c0 .778.149 1.333.454 1.66.3.325.71.497 1.21.497.336 0 .653-.074.942-.215.289-.14.547-.356.777-.645a2.16 2.16 0 0 0 .422-1.015c.059-.387.09-.926.09-1.63v-3.112h.852v7.18m5.906-6.907-.328.727c-.434-.184-.754-.274-.961-.274l-.465.082-.395.25-.316.41a1.86 1.86 0 0 0-.2.516 6.39 6.39 0 0 0-.128.832 10.59 10.59 0 0 0-.059.992v3.371h-.836v-7.18h.743v1.454c.355-1.075.91-1.618 1.671-1.618.391 0 .813.149 1.274.438m5.566 3.512v-.465c-.48.183-1.238.363-2.273.547-.54.097-.942.191-1.2.289a1.23 1.23 0 0 0-.57.445 1.226 1.226 0 0 0-.191.68c0 .394.148.707.437.949.29.238.664.356 1.118.356.265 0 .53-.036.796-.102.262-.074.512-.18.766-.32.25-.133.457-.305.629-.504.168-.192.289-.453.367-.754.074-.313.121-.692.121-1.121zm1.258 3.394h-.918a3.839 3.839 0 0 1-.258-1.09c-.777.832-1.754 1.254-2.933 1.254a2.82 2.82 0 0 1-1.153-.222 1.951 1.951 0 0 1-.816-.676c-.2-.305-.3-.668-.3-1.098 0-.3.05-.57.14-.812.094-.239.242-.446.433-.63.188-.179.453-.335.778-.46.328-.133.91-.25 1.761-.371.942-.133 1.614-.274 2.008-.422 0-.406-.015-.719-.039-.942a1.239 1.239 0 0 0-.226-.613c-.13-.191-.336-.34-.602-.445a2.89 2.89 0 0 0-1.008-.156c-1.242 0-1.98.535-2.234 1.593l-.86-.132c.27-1.407 1.297-2.122 3.086-2.122.563 0 1.04.07 1.422.196.387.133.668.316.86.547.183.238.304.527.363.875.059.347.09.828.09 1.437l-.031 2.024c-.008.539.015.953.074 1.242.058.289.18.629.363 1.023m4.41 0a4.77 4.77 0 0 1-.887.117c-.324 0-.605-.058-.843-.16a1.097 1.097 0 0 1-.52-.492c-.117-.223-.176-.621-.176-1.191v-4.817h-1v-.636h1v-1.836l.852-.543v2.379h1.352v.636h-1.352v4.707c0 .332.02.582.066.754l.25.371c.118.082.282.118.489.118.156 0 .379-.028.668-.09l.101.683m6.25-4.179c-.133-1.653-.883-2.48-2.25-2.48-.625 0-1.148.214-1.57.644-.422.43-.684 1.043-.762 1.836zm.91.699h-5.523c.016.926.23 1.648.66 2.176.422.52 1.004.777 1.762.777 1.043 0 1.77-.578 2.191-1.738l.82.14c-.28.813-.671 1.399-1.183 1.754-.504.356-1.133.535-1.883.535-1.012 0-1.812-.336-2.383-1.007-.57-.676-.86-1.586-.86-2.743 0-1.164.29-2.074.868-2.75.578-.664 1.371-1.007 2.39-1.007 2.075 0 3.126 1.289 3.141 3.863m7.215-.129c0-.918-.234-1.652-.71-2.2-.473-.554-1.11-.827-1.91-.827-.747 0-1.333.289-1.763.867-.421.574-.636 1.308-.636 2.199 0 .867.222 1.586.668 2.168.445.578 1.043.867 1.793.867.812 0 1.441-.273 1.886-.812.45-.536.672-1.29.672-2.262zm.824 3.61h-.84v-1.09c-.753.835-1.648 1.253-2.69 1.253-.497 0-.934-.09-1.325-.27a2.672 2.672 0 0 1-1.008-.784 3.525 3.525 0 0 1-.644-1.215 5.306 5.306 0 0 1-.215-1.547c0-1.067.281-1.95.836-2.645.554-.695 1.347-1.046 2.367-1.046 1.121 0 2.008.445 2.68 1.335v-3.898h.84v9.906m11.968-9.082h-4.918v3.594h4.192v.812h-4.192v4.676h-.937v-9.906h5.855v.824m6.387 5.688v-.465c-.48.183-1.235.363-2.274.547-.539.097-.937.191-1.199.289-.25.105-.437.254-.57.445a1.226 1.226 0 0 0-.192.68c0 .394.149.707.438.949.29.238.664.356 1.117.356.274 0 .531-.036.801-.102.258-.074.508-.18.762-.32a2.07 2.07 0 0 0 .629-.504c.168-.192.296-.453.37-.754.079-.313.118-.692.118-1.121zm1.258 3.394h-.91a3.842 3.842 0 0 1-.266-1.09c-.777.832-1.754 1.254-2.934 1.254a2.86 2.86 0 0 1-1.152-.222 1.976 1.976 0 0 1-.816-.676c-.2-.305-.301-.668-.301-1.098 0-.3.05-.57.14-.812.094-.239.243-.446.434-.63.195-.179.453-.335.777-.46.328-.133.914-.25 1.762-.371.95-.133 1.617-.274 2.008-.422 0-.406-.016-.719-.04-.942a1.239 1.239 0 0 0-.226-.613c-.125-.191-.328-.34-.601-.445a2.882 2.882 0 0 0-1.004-.156c-1.246 0-1.985.535-2.238 1.593l-.86-.132c.27-1.407 1.297-2.122 3.09-2.122.57 0 1.035.07 1.418.196.387.133.668.316.86.547.187.238.304.527.363.875.058.347.09.828.09 1.437l-.032 2.024a6.95 6.95 0 0 0 .074 1.242c.059.289.18.629.364 1.023m4.41 0c-.36.074-.656.117-.887.117-.324 0-.605-.058-.844-.16a1.097 1.097 0 0 1-.52-.492c-.116-.223-.175-.621-.175-1.191v-4.817h-1v-.636h1v-1.836l.852-.543v2.379h1.355v.636h-1.355v4.707c0 .332.023.582.066.754l.25.371c.129.082.29.118.488.118.157 0 .38-.028.668-.09l.102.683"/><path d="M519.504 261.723c0-1.332-.422-2-1.274-2-.863 0-1.3.652-1.3 1.96 0 1.337.437 2.008 1.3 2.008.852 0 1.274-.656 1.274-1.968zm.75-.024c0 1.727-.684 2.586-2.035 2.586-.645 0-1.14-.23-1.496-.695-.356-.469-.535-1.082-.535-1.852 0-.55.082-1.023.261-1.43.168-.402.406-.703.696-.913.296-.207.652-.31 1.074-.31.34 0 .64.067.91.2.258.133.473.324.64.57.165.25.282.528.364.836.074.305.12.637.12 1.008zm-2.035-7.86-5.774 10.446h-.707l5.79-10.445zm-5.192 2.638c0-1.325-.422-1.985-1.265-1.985-.871 0-1.301.653-1.301 1.957 0 1.34.43 2.012 1.3 2.012.844 0 1.266-.664 1.266-1.984zm.75-.02c0 1.723-.683 2.59-2.039 2.59a2.09 2.09 0 0 1-.847-.168 1.766 1.766 0 0 1-.637-.52 2.504 2.504 0 0 1-.41-.808 3.904 3.904 0 0 1-.133-1.043c0-.785.18-1.43.535-1.918.356-.496.86-.75 1.492-.75.653 0 1.157.238 1.504.71.356.473.535 1.114.535 1.907m-216.793 44.75 1.313.332c-.563 2.211-1.934 3.313-4.102 3.313-1.597 0-2.77-.504-3.523-1.504-.75-1.008-1.125-2.239-1.125-3.696 0-1.675.45-2.933 1.363-3.777.902-.848 2.004-1.27 3.309-1.27 2.047 0 3.351.965 3.906 2.891l-1.29.305c-.433-1.387-1.323-2.074-2.647-2.074-1.168 0-2.012.375-2.524 1.125-.512.742-.77 1.675-.77 2.8 0 1.43.31 2.465.918 3.11.606.644 1.368.965 2.278.965 1.57 0 2.531-.836 2.894-2.52m2.77 3.477v-9.907h1.223v3.547c.562-.648 1.277-.984 2.136-.984.77 0 1.38.191 1.82.578.438.387.66 1.125.66 2.215v4.55h-1.214v-4.55c0-1.164-.504-1.742-1.508-1.742-1.266 0-1.894.785-1.894 2.363v3.93h-1.223m8.496-3.586c0 .836.188 1.511.55 2.007.36.497.887.739 1.56.739.71 0 1.238-.258 1.585-.793.348-.524.52-1.192.52-2 0-.719-.164-1.356-.504-1.887-.336-.543-.867-.816-1.602-.816-.71 0-1.234.257-1.582.777-.347.52-.527 1.18-.527 1.973zm-1.25 0c0-1.348.34-2.313 1.027-2.891.684-.578 1.461-.867 2.332-.867 1.032 0 1.844.336 2.454 1 .605.668.91 1.55.91 2.652 0 1.32-.328 2.29-.973 2.918-.64.625-1.441.934-2.39.934-1.16 0-2.02-.371-2.551-1.094-.543-.734-.809-1.625-.809-2.652m8.121 3.586v-9.907h1.215v9.907h-1.215m4.019-4.278h4.005c-.06-.687-.266-1.207-.63-1.547a1.907 1.907 0 0 0-1.34-.52c-.57 0-1.042.192-1.421.571-.371.387-.578.883-.613 1.496zm3.989 1.965 1.25.156c-.414 1.547-1.465 2.317-3.152 2.317-.637 0-1.215-.125-1.711-.375-.496-.246-.903-.645-1.227-1.203-.32-.547-.473-1.25-.473-2.11 0-.734.118-1.386.368-1.949a3.016 3.016 0 0 1 1.125-1.355c.503-.34 1.117-.512 1.851-.512.77 0 1.406.191 1.902.57a3.06 3.06 0 0 1 1.051 1.38c.2.546.305 1.25.305 2.108h-5.344c.035.766.258 1.356.645 1.793.383.438.886.653 1.523.653.903 0 1.531-.489 1.887-1.473m2.301.169 1.199-.192c.14 1 .758 1.496 1.86 1.496 1.093 0 1.652-.375 1.652-1.14a.698.698 0 0 0-.305-.606c-.191-.133-.629-.282-1.305-.461-.73-.184-1.277-.34-1.629-.473a2.075 2.075 0 0 1-.902-.652 1.723 1.723 0 0 1-.367-1.098c0-.605.234-1.101.707-1.488.476-.395 1.12-.586 1.926-.586 1.718 0 2.664.676 2.851 2.015l-1.191.165c-.113-.786-.637-1.18-1.57-1.18-1.032 0-1.547.312-1.547.926 0 .254.09.437.265.562.184.129.653.297 1.414.504.844.23 1.414.402 1.719.52.3.117.574.328.813.628.246.305.363.668.363 1.098 0 .688-.266 1.238-.809 1.652-.539.407-1.234.614-2.086.614-1.77 0-2.781-.77-3.058-2.305m10.054 1.055.176 1.074c-.34.074-.652.11-.918.11-.375 0-.695-.06-.945-.169a1.196 1.196 0 0 1-.563-.52c-.12-.237-.18-.734-.18-1.51v-4.126h-.894v-.95h.895v-1.776l1.207-.735v2.512h1.222v.95h-1.222v4.198c0 .371.043.621.117.77.082.148.273.223.57.223.14 0 .32-.024.535-.051m2.11-3.188h4.004c-.051-.687-.258-1.207-.63-1.547a1.888 1.888 0 0 0-1.331-.52c-.578 0-1.051.192-1.422.571-.38.387-.586.883-.621 1.496zm3.996 1.965 1.25.156c-.414 1.547-1.465 2.317-3.152 2.317-.645 0-1.215-.125-1.711-.375-.504-.246-.91-.645-1.227-1.203-.32-.547-.48-1.25-.48-2.11 0-.734.125-1.386.367-1.949.254-.57.62-1.023 1.133-1.355.503-.34 1.117-.512 1.851-.512.77 0 1.399.191 1.895.57.496.371.851.836 1.05 1.38.207.546.313 1.25.313 2.108h-5.352c.043.766.258 1.356.645 1.793.383.438.894.653 1.523.653.91 0 1.54-.489 1.895-1.473m2.77 2.313v-7.18h1.093v1.09c.461-.84.977-1.254 1.555-1.254.406 0 .82.133 1.242.394l-.414 1.133a1.684 1.684 0 0 0-.895-.265c-.91 0-1.37.777-1.37 2.324v3.758h-1.212m5.418-3.586c0 .836.184 1.511.555 2.007.363.497.879.739 1.563.739.703 0 1.234-.258 1.582-.793.347-.524.52-1.192.52-2 0-.719-.173-1.356-.505-1.887-.34-.543-.875-.816-1.597-.816-.711 0-1.247.257-1.594.777-.348.52-.524 1.18-.524 1.973zm-1.25 0c0-1.348.34-2.313 1.028-2.891.687-.578 1.465-.867 2.34-.867 1.02 0 1.835.336 2.44 1 .606.668.911 1.55.911 2.652 0 1.32-.316 2.29-.969 2.918-.644.625-1.445.934-2.382.934-1.172 0-2.024-.371-2.563-1.094-.539-.734-.805-1.625-.805-2.652m8.125 3.586v-9.907h1.215v9.907h-1.215m162.852-2.114c0-1.332-.422-2-1.274-2-.863 0-1.3.66-1.3 1.965 0 1.332.437 2.008 1.3 2.008.852 0 1.274-.66 1.274-1.973zm.75-.023c0 1.726-.684 2.594-2.035 2.594-.645 0-1.14-.239-1.496-.704-.356-.464-.535-1.082-.535-1.843 0-.555.082-1.031.261-1.43.168-.41.406-.71.696-.918.296-.21.652-.312 1.074-.312.34 0 .64.066.91.199.258.133.473.328.64.578.165.246.282.527.364.828.074.305.12.64.12 1.008zm-2.035-7.86-5.774 10.454h-.707l5.79-10.454zm-5.192 2.637c0-1.316-.422-1.984-1.265-1.984-.871 0-1.301.652-1.301 1.957 0 1.34.43 2.015 1.3 2.015.844 0 1.266-.66 1.266-1.988zm.75-.02c0 1.727-.683 2.59-2.039 2.59a2.09 2.09 0 0 1-.847-.167 1.766 1.766 0 0 1-.637-.52 2.504 2.504 0 0 1-.41-.809 3.845 3.845 0 0 1-.133-1.035c0-.793.18-1.43.535-1.925.356-.497.86-.75 1.492-.75.653 0 1.157.238 1.504.71.356.477.535 1.114.535 1.907m5.727 50.961c0-1.336-.422-2-1.274-2-.863 0-1.3.648-1.3 1.96 0 1.34.437 2.008 1.3 2.008.852 0 1.274-.66 1.274-1.968zm.75-.024c0 1.727-.684 2.594-2.035 2.594-.645 0-1.14-.238-1.496-.707-.356-.465-.535-1.078-.535-1.844 0-.555.082-1.027.261-1.43.168-.406.406-.71.696-.918.296-.207.652-.312 1.074-.312.34 0 .64.066.91.203.258.133.473.324.64.578.165.242.282.524.364.828.074.305.12.637.12 1.008zm-2.035-7.86-5.774 10.454h-.707l5.79-10.453zm-5.192 2.638c0-1.32-.422-1.985-1.265-1.985-.871 0-1.301.649-1.301 1.953 0 1.344.43 2.016 1.3 2.016.844 0 1.266-.66 1.266-1.984zm.75-.016c0 1.719-.683 2.586-2.039 2.586a2.03 2.03 0 0 1-.847-.172 1.755 1.755 0 0 1-.637-.516c-.18-.23-.313-.5-.41-.808a3.934 3.934 0 0 1-.133-1.047c0-.785.18-1.422.535-1.918.356-.496.86-.746 1.492-.746.653 0 1.157.234 1.504.71.356.473.535 1.11.535 1.91m5.727 23.743c0-1.324-.422-1.992-1.274-1.992-.863 0-1.3.652-1.3 1.965 0 1.332.437 2 1.3 2 .852 0 1.274-.653 1.274-1.973zm.75-.016c0 1.727-.684 2.586-2.035 2.586-.645 0-1.14-.226-1.496-.695-.356-.465-.535-1.082-.535-1.851 0-.547.082-1.024.261-1.43.168-.399.406-.703.696-.91.296-.207.652-.313 1.074-.313.34 0 .64.067.91.2.258.132.473.328.64.57.165.254.282.527.364.832a4.3 4.3 0 0 1 .12 1.011zm-2.035-7.859-5.774 10.445h-.707l5.79-10.445zm-5.192 2.637c0-1.324-.422-1.985-1.265-1.985-.871 0-1.301.653-1.301 1.957 0 1.34.43 2.008 1.3 2.008.844 0 1.266-.66 1.266-1.98zm.75-.02c0 1.727-.683 2.594-2.039 2.594a1.97 1.97 0 0 1-.847-.18 1.632 1.632 0 0 1-.637-.511 2.586 2.586 0 0 1-.41-.809 3.883 3.883 0 0 1-.133-1.043c0-.785.18-1.43.535-1.926.356-.488.86-.742 1.492-.742.653 0 1.157.238 1.504.711.356.477.535 1.106.535 1.906M289.48 324.395l1.227-.11c.106.785.422 1.363.95 1.73.53.364 1.198.56 1.984.56.82 0 1.441-.173 1.843-.505.407-.336.614-.726.614-1.187 0-.465-.192-.828-.57-1.082-.38-.258-1.2-.524-2.458-.82-1.265-.29-2.117-.668-2.554-1.133-.446-.461-.66-1-.66-1.618 0-.894.335-1.578 1.015-2.035.68-.468 1.504-.699 2.473-.699 1.222 0 2.14.277 2.754.84.613.562.933 1.266.96 2.117l-1.257.106c-.133-1.274-.934-1.907-2.406-1.907-1.516 0-2.278.496-2.278 1.493 0 .398.16.71.473.93.316.222.945.437 1.887.652.933.207 1.644.41 2.14.601a2.82 2.82 0 0 1 1.242.918c.332.422.504.934.504 1.535 0 .934-.363 1.66-1.082 2.176-.719.527-1.582.785-2.582.785-1.406 0-2.449-.316-3.144-.953-.692-.637-1.055-1.43-1.075-2.394m10.31-.407c0 .836.187 1.512.558 2.008.359.496.879.746 1.558.746.703 0 1.239-.265 1.586-.793.348-.531.52-1.199.52-2.008 0-.722-.172-1.355-.504-1.894-.344-.535-.875-.809-1.602-.809-.71 0-1.242.262-1.59.778-.347.52-.527 1.18-.527 1.972zm-1.25 0c0-1.347.339-2.312 1.03-2.89.688-.578 1.465-.868 2.336-.868 1.024 0 1.836.336 2.446 1 .605.668.91 1.551.91 2.653 0 1.32-.32 2.289-.969 2.918-.645.625-1.445.933-2.387.933-1.168 0-2.02-.367-2.558-1.101-.543-.727-.809-1.617-.809-2.645m8.957.008c0 .805.172 1.465.52 1.977.34.511.82.77 1.433.77.63 0 1.113-.25 1.43-.755.324-.504.488-1.133.488-1.898 0-.86-.172-1.555-.512-2.074-.332-.516-.82-.778-1.457-.778-1.265 0-1.902.918-1.902 2.758zm3.848 3.578v-.906c-.457.71-1.125 1.066-2.004 1.066-.961 0-1.719-.355-2.266-1.074-.547-.71-.82-1.598-.82-2.664 0-1.246.289-2.187.863-2.816.586-.63 1.305-.95 2.164-.95.844 0 1.508.336 1.985.989v-3.551h1.203v9.906h-1.125m3.043 0v-7.18h1.222v7.18zm0-8.512v-1.394h1.222v1.394h-1.222m7.773 8.512v-1.054c-.562.808-1.324 1.214-2.281 1.214-.637 0-1.149-.125-1.508-.382-.371-.262-.625-.57-.75-.95-.125-.379-.191-.894-.191-1.554v-4.453h1.215v3.984c0 .57.027 1 .074 1.289.05.289.191.535.43.727.234.19.562.289.976.289.59 0 1.059-.172 1.398-.528.332-.355.504-.992.504-1.918v-3.843h1.22v7.18h-1.087m2.988-.001v-7.18h1.09v1.008c.504-.777 1.223-1.172 2.176-1.172 1.05 0 1.73.422 2.027 1.262.563-.84 1.305-1.262 2.215-1.262 1.48 0 2.219.81 2.219 2.418v4.926h-1.21v-4.527c0-1.172-.43-1.762-1.282-1.762-1.172 0-1.754.711-1.754 2.125v4.164h-1.215v-4.66c0-1.082-.422-1.629-1.273-1.629-.555 0-.993.184-1.305.563-.309.37-.465 1.035-.465 2v3.726h-1.223m194.356-2.024c0-1.331-.422-2-1.274-2-.863 0-1.3.653-1.3 1.962 0 1.336.437 2.008 1.3 2.008.852 0 1.274-.657 1.274-1.97zm.75-.023c0 1.727-.684 2.586-2.035 2.586-.645 0-1.14-.23-1.496-.695-.356-.469-.535-1.082-.535-1.852 0-.55.082-1.023.261-1.43a2.1 2.1 0 0 1 .696-.913c.296-.207.652-.309 1.074-.309.34 0 .64.066.91.2.258.132.473.324.64.57.165.253.282.535.364.836.074.304.12.636.12 1.007zm-2.035-7.859-5.774 10.445h-.707l5.79-10.445zm-5.192 2.637c0-1.325-.422-1.985-1.265-1.985-.871 0-1.301.653-1.301 1.957 0 1.34.43 2.008 1.3 2.008.844 0 1.266-.66 1.266-1.98zm.75-.02c0 1.723-.683 2.59-2.039 2.59a2.09 2.09 0 0 1-.847-.168 1.766 1.766 0 0 1-.637-.52 2.504 2.504 0 0 1-.41-.808 3.904 3.904 0 0 1-.133-1.043c0-.785.18-1.43.535-1.926.356-.488.86-.742 1.492-.742.653 0 1.157.238 1.504.71.356.477.535 1.114.535 1.907m27.793-162.172H286.81v-9.156h254.76v9.156m0 50.715H286.81v-5.984h254.76v5.984m-253-27.656h251.24v-1.05H288.57zm0 47.191h251.24v-1.058H288.57zm0 20.782h251.24v-1.063H288.57zm0 20.065h251.24v-1.05H288.57zm0 20.08h251.24v-1.063H288.57zm0 45.78h251.24v-1.058H288.57zm0-20.78h251.24v-1.052H288.57zm0 41.562h251.24v-1.063H288.57zm0 20.066h251.24v-1.059H288.57zm0 20.078h251.24v-1.062H288.57zm0 0"/><path fill="#231f20" d="m296.984 194.855 1.313.336c-.563 2.207-1.934 3.309-4.102 3.309-1.597 0-2.77-.504-3.523-1.504-.75-1.008-1.125-2.234-1.125-3.695 0-1.676.45-2.934 1.363-3.778.902-.843 2.004-1.273 3.309-1.273 2.047 0 3.351.96 3.906 2.887l-1.29.312c-.433-1.387-1.323-2.074-2.647-2.074-1.168 0-2.012.379-2.524 1.117-.512.75-.77 1.684-.77 2.801 0 1.437.31 2.477.918 3.121.606.645 1.368.961 2.278.961 1.57 0 2.531-.836 2.894-2.52m7.352-.125c-.453.184-1.11.333-1.984.461-.786.102-1.266.274-1.442.504-.18.227-.27.465-.27.711 0 .754.481 1.14 1.446 1.14 1.5 0 2.25-.792 2.25-2.37zm.101 2.711c-.82.704-1.699 1.051-2.64 1.051-.668 0-1.242-.168-1.73-.496-.485-.332-.72-.851-.72-1.555 0-.48.118-.882.368-1.199.246-.32.558-.554.918-.703.37-.156.883-.27 1.535-.34.984-.12 1.703-.262 2.168-.426 0-.464-.031-.796-.09-.992-.066-.199-.223-.375-.48-.539-.266-.164-.653-.246-1.157-.246-.496 0-.886.09-1.191.262-.3.168-.531.539-.68 1.11l-1.183-.173c.3-1.465 1.375-2.207 3.234-2.207.777 0 1.367.114 1.777.328.407.215.68.496.805.836.133.348.192.86.192 1.547l.007 3.164c0 .512.13 1.008.38 1.469h-1.274a2.528 2.528 0 0 1-.238-.89m2.984.89v-9.914h1.223v9.914h-1.223m3.902-3.594c0 .844.184 1.52.547 2.016.363.496.887.738 1.563.738.71 0 1.234-.258 1.582-.789.347-.527.52-1.195.52-2.004 0-.722-.165-1.355-.505-1.894-.332-.54-.867-.809-1.597-.809-.711 0-1.239.262-1.586.777-.348.52-.524 1.18-.524 1.965zm-1.254 0c0-1.34.344-2.304 1.032-2.883a3.497 3.497 0 0 1 2.332-.867c1.027 0 1.843.336 2.449 1 .605.668.91 1.551.91 2.653 0 1.32-.324 2.289-.969 2.914-.644.629-1.445.937-2.39.937-1.164 0-2.024-.367-2.555-1.101-.54-.727-.809-1.618-.809-2.653m8.137 3.594v-7.18h1.094v1.09c.46-.836.972-1.254 1.547-1.254.418 0 .832.133 1.254.395l-.414 1.133a1.728 1.728 0 0 0-.899-.266c-.91 0-1.367.777-1.367 2.316v3.766h-1.215m4.625 0v-7.18h1.215v7.18zm0-8.512v-1.402h1.215v1.402h-1.215m3.984 4.235h4.004c-.05-.688-.265-1.207-.629-1.547a1.888 1.888 0 0 0-1.332-.52c-.578 0-1.05.196-1.421.57-.38.387-.586.883-.622 1.497zm3.997 1.965 1.25.156c-.415 1.539-1.465 2.316-3.153 2.316-.644 0-1.215-.125-1.71-.375-.505-.246-.91-.644-1.227-1.199-.32-.55-.48-1.262-.48-2.113 0-.735.124-1.387.366-1.95a3.15 3.15 0 0 1 1.125-1.363c.504-.332 1.125-.504 1.86-.504.77 0 1.398.196 1.894.563.496.379.852.847 1.051 1.387.207.546.313 1.253.313 2.113h-5.352c.043.754.258 1.355.645 1.793.382.433.894.648 1.523.648.91 0 1.539-.488 1.894-1.472m2.293.171 1.207-.195c.133 1 .758 1.496 1.852 1.496 1.102 0 1.652-.375 1.652-1.14 0-.274-.097-.473-.296-.606-.2-.133-.637-.289-1.305-.46-.738-.184-1.281-.34-1.633-.474a2.02 2.02 0 0 1-.898-.652 1.706 1.706 0 0 1-.375-1.105c0-.598.234-1.094.71-1.48.481-.391 1.118-.587 1.93-.587 1.711 0 2.656.676 2.844 2.016l-1.191.164c-.114-.785-.63-1.18-1.563-1.18-1.035 0-1.555.313-1.555.926 0 .254.09.438.274.566.176.125.652.29 1.414.497.836.234 1.406.406 1.71.523.31.121.575.328.821.629.238.305.363.668.363 1.09 0 .699-.273 1.246-.816 1.652-.54.414-1.227.621-2.078.621-1.77 0-2.79-.77-3.067-2.3m69.27-1.337 1.309.336c-.567 2.207-1.93 3.309-4.106 3.309-1.601 0-2.77-.504-3.523-1.504-.75-1.008-1.125-2.234-1.125-3.695 0-1.676.449-2.934 1.36-3.778.913-.843 2.015-1.273 3.308-1.273 2.05 0 3.355.96 3.918 2.887l-1.29.312c-.445-1.387-1.324-2.074-2.648-2.074-1.176 0-2.015.379-2.531 1.117-.512.75-.762 1.684-.762 2.801 0 1.437.3 2.477.91 3.121.606.645 1.368.961 2.278.961 1.57 0 2.53-.836 2.902-2.52m7.344-.125c-.446.184-1.11.333-1.985.461-.777.102-1.257.274-1.437.504a1.115 1.115 0 0 0-.274.711c0 .754.48 1.14 1.446 1.14 1.5 0 2.25-.792 2.25-2.37zm.101 2.711c-.82.704-1.699 1.051-2.64 1.051-.668 0-1.243-.168-1.727-.496-.48-.332-.723-.851-.723-1.555 0-.48.125-.882.368-1.199.246-.32.558-.554.918-.703.37-.156.882-.27 1.535-.34.984-.12 1.707-.262 2.168-.426 0-.464-.031-.796-.09-.992-.059-.199-.223-.375-.48-.539-.266-.164-.645-.246-1.157-.246-.488 0-.887.09-1.191.262-.301.168-.524.539-.672 1.11l-1.192-.173c.301-1.465 1.375-2.207 3.235-2.207.777 0 1.375.114 1.781.328.41.215.676.496.8.836.134.348.192.86.192 1.547l.008 3.164c0 .512.129 1.008.387 1.469h-1.274a2.705 2.705 0 0 1-.246-.89m2.993.89v-9.914h1.214v9.914h-1.214m3.894-3.594c0 .844.184 1.52.547 2.016.371.496.887.738 1.57.738.703 0 1.235-.258 1.574-.789.348-.527.528-1.195.528-2.004 0-.722-.172-1.355-.512-1.894-.332-.54-.867-.809-1.59-.809-.71 0-1.246.262-1.594.777-.347.52-.523 1.18-.523 1.965zm-1.254 0c0-1.34.344-2.304 1.031-2.883a3.517 3.517 0 0 1 2.34-.867c1.02 0 1.836.336 2.442 1 .605.668.91 1.551.91 2.653 0 1.32-.324 2.289-.969 2.914-.644.629-1.445.937-2.383.937-1.172 0-2.023-.367-2.562-1.101-.54-.727-.809-1.618-.809-2.653m8.137 3.594v-7.18h1.094v1.09c.46-.836.976-1.254 1.554-1.254.41 0 .825.133 1.246.395l-.414 1.133a1.707 1.707 0 0 0-.898-.266c-.91 0-1.367.777-1.367 2.316v3.766h-1.215m4.625 0v-7.18h1.215v7.18zm0-8.512v-1.402h1.215v1.402h-1.215m3.985 4.235h4.003c-.05-.688-.258-1.207-.629-1.547a1.888 1.888 0 0 0-1.332-.52c-.578 0-1.05.196-1.422.57-.379.387-.586.883-.62 1.497zm3.995 1.965 1.25.156c-.414 1.539-1.465 2.316-3.152 2.316-.645 0-1.215-.125-1.711-.375-.504-.246-.91-.644-1.227-1.199-.32-.55-.48-1.262-.48-2.113 0-.735.125-1.387.375-1.95a3.1 3.1 0 0 1 1.125-1.363c.504-.332 1.117-.504 1.852-.504.77 0 1.398.196 1.902.563.496.379.844.847 1.05 1.387.2.546.305 1.253.305 2.113h-5.351c.043.754.258 1.355.644 1.793.383.433.895.648 1.524.648.91 0 1.539-.488 1.894-1.472m2.293.171 1.207-.195c.133 1 .758 1.496 1.852 1.496 1.101 0 1.652-.375 1.652-1.14 0-.274-.097-.473-.297-.606-.195-.133-.629-.289-1.304-.46-.739-.184-1.282-.34-1.637-.474a2.03 2.03 0 0 1-.895-.652 1.703 1.703 0 0 1-.37-1.105c0-.598.238-1.094.71-1.48.477-.391 1.117-.587 1.926-.587 1.711 0 2.664.676 2.852 2.016l-1.196.164c-.11-.785-.633-1.18-1.566-1.18-1.04 0-1.547.313-1.547.926 0 .254.086.438.266.566.175.125.652.29 1.414.497.843.234 1.414.406 1.715.523.304.121.578.328.816.629a1.7 1.7 0 0 1 .363 1.09c0 .699-.273 1.246-.816 1.652-.531.414-1.227.621-2.078.621-1.77 0-2.793-.77-3.067-2.3m12.364 2.14v-9.914h6.675v1.172h-5.367v3.074h4.649v1.164h-4.649v4.504h-1.308m8.207 0v-7.18h1.097v1.09c.457-.836.977-1.254 1.555-1.254.406 0 .82.133 1.242.395l-.414 1.133a1.699 1.699 0 0 0-.887-.266c-.918 0-1.379.777-1.379 2.316v3.766h-1.214m5.418-3.594c0 .844.187 1.52.558 2.016.36.496.887.738 1.559.738.71 0 1.238-.258 1.586-.789.347-.527.52-1.195.52-2.004 0-.722-.173-1.355-.505-1.894-.34-.54-.875-.809-1.601-.809-.711 0-1.242.262-1.59.777-.348.52-.527 1.18-.527 1.965zm-1.25 0c0-1.34.347-2.304 1.03-2.883.688-.578 1.466-.867 2.337-.867 1.023 0 1.836.336 2.445 1 .606.668.91 1.551.91 2.653 0 1.32-.32 2.289-.969 2.914-.644.629-1.437.937-2.386.937-1.168 0-2.02-.367-2.559-1.101-.535-.727-.808-1.618-.808-2.653m8.152 3.594v-7.18h1.086v1.008c.496-.777 1.223-1.172 2.176-1.172 1.05 0 1.734.422 2.027 1.262.562-.84 1.305-1.262 2.215-1.262 1.48 0 2.215.809 2.215 2.418v4.926h-1.207v-4.527c0-1.172-.43-1.762-1.282-1.762-1.171 0-1.754.71-1.754 2.117v4.172h-1.214v-4.66c0-1.09-.422-1.629-1.274-1.629-.562 0-1 .184-1.308.555-.313.379-.47 1.043-.47 2.007v3.727h-1.21m16.476 0v-9.914h6.676v1.172h-5.367v3.074h4.649v1.164h-4.649v4.504h-1.309m12.797-3.602c-.445.184-1.101.333-1.984.461-.777.102-1.258.274-1.438.504a1.15 1.15 0 0 0-.265.711c0 .754.48 1.14 1.445 1.14 1.496 0 2.242-.792 2.242-2.37zm.102 2.711c-.82.704-1.7 1.051-2.633 1.051-.676 0-1.25-.168-1.734-.496-.48-.332-.723-.851-.723-1.555 0-.48.125-.882.367-1.199.254-.32.559-.554.926-.703.363-.156.875-.27 1.535-.34.985-.12 1.7-.262 2.16-.426 0-.464-.03-.796-.09-.992-.058-.199-.222-.375-.48-.539-.258-.164-.644-.246-1.148-.246-.497 0-.895.09-1.2.262-.3.168-.523.539-.671 1.11l-1.184-.173c.293-1.465 1.375-2.207 3.226-2.207.786 0 1.375.114 1.786.328.406.215.671.496.804.836.125.348.192.86.192 1.547v3.164c0 .512.133 1.008.386 1.469H501a2.705 2.705 0 0 1-.246-.89m5.672-.2.176 1.074a4.31 4.31 0 0 1-.918.11c-.383 0-.696-.059-.946-.168a1.196 1.196 0 0 1-.562-.52c-.117-.238-.18-.734-.18-1.511v-4.125h-.894v-.95h.894v-1.777l1.207-.734v2.511h1.223v.95h-1.223v4.199c0 .37.047.62.121.77.078.148.266.222.57.222.133 0 .317-.02.532-.05m-114.434-31.567a.882.882 0 1 1-1.764.002.882.882 0 0 1 1.764-.002m0 4.297a.88.88 0 0 1-.883.875.879.879 0 1 1 0-1.758c.489 0 .883.394.883.883"/><path fill="#e9e9e9" d="M556.324 716.098c-9.965 7.289-271.234 9.937-283.402 0-9.098-7.43-13.496-45.024-13.496-45.024h308.14s-1.886 38.172-11.242 45.024"/><path fill="#fff" d="M678.531 645.188c0 27.351-117.48 49.523-262.402 49.523-144.926 0-262.41-22.172-262.41-49.524 0-27.351 117.484-49.523 262.41-49.523 144.922 0 262.402 22.172 262.402 49.524"/><path fill="#c8c7c7" d="M581.91 606.809c-8.605 6.23-18.394 10.742-28.015 15.304-38.536 18.266-80.165 24.907-122.274 28.567-45.351 3.933-91.851-5.285-136.797 3.53-16.086 3.157-32.597 8.157-48.039 13.794-7.617 2.785-15.094 6.262-20.512 11.375 47.79 9.445 115.176 15.332 189.856 15.332 144.922 0 262.402-22.172 262.402-49.524 0-15.48-37.656-29.296-96.62-38.378"/><path fill="#b2b1b1" d="M596.176 609.172c-10.164 9.242-19.973 19.246-31.246 26.883-60.223 40.804-136.442 37.582-156.508 39.242-21.168 1.754-42.219 1.348-63.434 1-20.972-.344-42.82-1.024-63.496 3.133-6.222 1.25-11.71 3.25-16.84 6.199 42.793 5.719 95.043 9.082 151.477 9.082 144.922 0 262.402-22.172 262.402-49.524 0-14.19-31.66-26.988-82.355-36.015"/><path fill="#918f8f" d="M601 645.188h-2.117c0 .824-.207 1.652-.696 2.562-.91 1.719-2.902 3.684-5.972 5.617-5.36 3.414-13.895 6.75-24.914 9.719-33.09 8.957-88.5 14.883-151.172 14.875-50.942 0-97.07-3.895-130.344-10.176-16.625-3.137-30.05-6.883-39.148-10.945-4.543-2.02-8-4.14-10.2-6.168-1.105-1.016-1.886-2-2.375-2.922-.492-.91-.699-1.738-.703-2.563.004-.812.211-1.644.703-2.562.91-1.71 2.891-3.676 5.965-5.613 5.368-3.41 13.899-6.742 24.922-9.723 33.086-8.953 88.508-14.883 151.18-14.875 50.941 0 97.062 3.906 130.336 10.18 16.625 3.14 30.043 6.883 39.148 10.949 4.543 2.023 8 4.14 10.2 6.172 1.101 1.015 1.878 2 2.375 2.91.488.918.695 1.75.695 2.563h4.226c.008-1.586-.43-3.141-1.207-4.57-1.457-2.68-4.004-5-7.422-7.18-5.996-3.793-14.82-7.176-26.078-10.231-33.73-9.117-89.312-15.016-152.273-15.023-51.164 0-97.477 3.914-131.121 10.254-16.832 3.187-30.48 6.957-40.09 11.238-4.809 2.148-8.621 4.414-11.348 6.926-1.36 1.261-2.457 2.586-3.226 4.015-.778 1.43-1.211 2.985-1.207 4.57-.004 1.594.43 3.141 1.207 4.57 1.46 2.692 4 5.005 7.426 7.188 5.996 3.793 14.82 7.18 26.078 10.23 33.73 9.114 89.32 15.009 152.28 15.016 51.165 0 97.47-3.902 131.114-10.254 16.832-3.175 30.48-6.953 40.086-11.238 4.813-2.144 8.617-4.414 11.348-6.926 1.363-1.25 2.457-2.578 3.226-4.015.778-1.43 1.215-2.977 1.207-4.57H601"/><path fill="#bf1d23" d="M560.246 529.918c0 69.215-46.367 117.144-115.523 117.144-69.157 0-116.078-47.59-116.078-116.804 0-46.551 14.07-78.645 52.25-97.215 54.988-26.742 49.296-3.594 71.94-3.594 27.58 0 26.95-18.637 65.618 6.852 29.52 19.469 41.793 57.703 41.793 93.617"/><path fill="#c63530" d="M519.18 509.938c-11.258 0-21.746-3.665-28.157-13.668-11.32-17.645-1.207-39.313 11.348-54.88 3.758 1.63 8.207 4.098 13.676 7.7 14.152 9.332 23.207 24.223 28.062 40.816a145.505 145.505 0 0 0-3.226 4.543c-2.63 3.844-5.301 8.387-7.98 13.461-3.13.945-6.294 1.637-9.817 1.88a52.533 52.533 0 0 1-3.906.147"/><path fill="#ad1a1f" d="M480.246 623.422c-11.683.113-25.492 1.773-35.613-5.43-9.04-6.437-15.551-15.933-20.457-25.765-5.137-10.266-9.446-21.29-11.09-32.707-1.066-7.399-.8-15.184-3.277-22.329-2.184-6.3-5.77-12.007-9.313-17.62-6.656-10.575-13.355-21.825-13.05-34.79.347-14.808 6.566-28.797 12.152-42.285 3.023-7.289 6.507-14.371 10.816-20.906-7.328 1.754-16.797 5.265-29.52 11.453-38.18 18.57-52.25 50.664-52.25 97.215 0 69.215 46.922 116.804 116.079 116.804 26.277 0 49.254-6.925 67.652-19.296-10.3-2.907-21.516-4.438-32.129-4.344"/><path fill="#9b161b" d="M444.441 640.203c-11.523-3.496-22.183-10.422-31.023-18.543-8.52-7.824-15.36-17.215-19.77-27.937-2.574-6.266-4.59-12.809-5.515-19.535-.992-7.192-.11-14.473-.793-21.688-1.41-14.906-10.77-28.59-16.512-42.184-2.82-6.668-5.531-13.84-5.336-21.203.168-6.422 1.797-12.61 3.79-18.683 3.538-10.82 5.956-21.993 9.667-32.758a218.967 218.967 0 0 1 1.559-4.438c-37.883 18.594-51.863 50.63-51.863 97.024 0 69.215 46.921 116.804 116.078 116.804 11.636 0 22.62-1.363 32.855-3.949-11.11-.289-22.433.328-33.137-2.91"/><path fill="#891317" d="M381.797 626.934c-12.332-16.668-15.461-38.18-15.164-58.403.199-13.535-3.695-24.902-9.195-37.14-4.766-10.586-9.622-21.2-11.977-32.637-2.348-11.36-2.969-22.996-1.035-34.473-11.14 17.367-15.781 39.285-15.781 65.977 0 48.367 22.914 86.172 60.316 104.558-2.606-2.379-5.016-4.976-7.164-7.882"/><path fill="#2eb442" d="M410.016 416.07s-23.985-.68-29.641 21.61c0 0 15.07-13.38 30.32-7.38 0 0 8.485 6.95 5.145 20.063 0 0 19.527 1.028 22.613-19.543 0 0 20.035 13.883 14.899 38.575 0 0 15.418-15.434 11.824-39.606 0 0 13.879 3.602 17.984 16.453 0 0 5.137-8.222 1.031-23.14 0 0 18.497 5.14 19.016 34.972 0 0 16.957-32.914-8.742-48.855 0 0 .515-7.211 16.965-7.719 0 0-17.477-8.742-33.407 3.598 0 0-10.28-9.77.254-36.52 0 0-20.558 27.008-23.382 40.121 0 0-4.368-19.543-21.844-25.203 0 0 12.847 23.402-1.024 27.774 0 0-9-29.575-34.691-32.66 0 0 22.441 24.09 12.68 37.46"/><path fill="#f14624" d="M622.86 552.95c-26.462 38.714-114.704 106.929-127.262 98.327-12.563-8.601 18.82-118.113 45.285-156.828 26.469-38.707 58.89-50.043 83.3-33.332 24.407 16.715 25.145 53.125-1.324 91.832"/><path fill="#f15d35" d="M551.117 517.754a13.6 13.6 0 0 1-2.12-.164c-4.044-.613-8.032-2.074-11.63-4.117 2.39-4.422 4.766-8.403 7.113-11.832 15.727-23.008 33.56-36.344 50.563-39.871 1.57 14.515 3.062 30.714-13.086 36.406-3.953 1.39-7.84 2.347-11.394 4.672-3.618 2.363-6.149 6.359-8.934 9.578-2.871 3.32-6.313 5.328-10.512 5.328"/><path fill="#dc3f20" d="M636.746 474.707c-3.988 1.465-7.766 3.54-11.23 6.102-14.293 10.558-24.176 26.18-33.618 40.93-6.433 10.07-12.66 20.35-19.988 29.812-3.176 4.09-6.543 8.09-10.34 11.62-5.02 4.653-10.793 8.5-16.351 12.47-14.086 10.062-29.43 20.37-39.192 35.02-6.351 9.519-10.418 20.32-13.257 31.425.164 4.754 1.058 7.976 2.828 9.191 12.558 8.602 100.8-59.613 127.261-98.328 20.688-30.254 24.762-59.11 13.887-78.242"/><path fill="#d13c1e" d="M627.094 506.258c-11.059 10.148-17.508 23.988-25.871 36.21-9.785 14.29-23.649 24.512-37.891 34.009-14.684 9.796-29.328 19.27-41.082 32.671-11.027 12.555-19.672 26.957-25.195 42.723 16.773 3.606 100.199-61.465 125.804-98.922 13.59-19.875 20.008-39.144 19.735-55.449-5.606 1.965-10.91 4.55-15.5 8.758"/><path fill="#c7391d" d="M616.559 541.254c-6.918 6.348-11.836 14.191-17.407 21.668-5.48 7.363-11.843 14.113-18.515 20.394-6.559 6.18-13.32 12.114-20.852 17.09-12.129 8.024-26.105 14.551-35.5 25.996-3.765 4.586-7.289 9.57-9.793 14.973-.879 1.887-1.82 4.027-2.449 6.242 30.18-14.867 89.86-64.012 110.816-94.668 4.953-7.246 8.957-14.406 12.028-21.379-6.782 1.72-13.137 4.926-18.328 9.684"/><path fill="#5cc133" d="M615.828 475.008s52.473-8.156 45.973-64.68c0 0-59.653 13.469-45.973 64.68"/><path fill="#376a1c" d="M615.953 473.645c1.48-2.805 3.152-5.473 4.73-8.207l5.07-7.977c3.419-5.29 7.106-10.387 10.696-15.566 3.82-5.008 7.52-10.098 11.531-14.965 2.032-2.422 4.051-4.844 6.122-7.223 2.171-2.305 4.265-4.672 6.632-6.793l.008-.008.149.008v.133c-4.078 4.777-7.848 9.824-11.621 14.848a1150.18 1150.18 0 0 0-11.149 15.214 2442.011 2442.011 0 0 0-22.004 30.657l-.14.02-.032-.134.008-.007"/><path fill="#5cc133" d="M615.133 475.578s44.898 28.367 77.129-18.504c0 0-53.805-29.086-77.13 18.504"/><path fill="#376a1c" d="M616.117 474.633c2.953-1.14 5.973-2.055 8.957-3.074l9.059-2.676c6.054-1.735 12.183-3.156 18.281-4.695 6.168-1.262 12.305-2.668 18.52-3.692 3.117-.496 6.234-.984 9.359-1.414 3.144-.312 6.281-.719 9.457-.762h.016l.105.102-.09.105c-6.21.91-12.363 2.235-18.511 3.54a1357.592 1357.592 0 0 0-18.395 4.132 2513.78 2513.78 0 0 0-36.707 8.633l-.125-.074.066-.125h.008"/><path fill="#5cc133" d="M615.133 475.707s-42.38-32.012-9.957-78.75c0 0 46.203 40.102 9.957 78.75"/><path fill="#376a1c" d="M615.465 474.477c-.77-3.075-1.324-6.18-2.008-9.262l-1.664-9.297c-1.082-6.2-1.887-12.43-2.871-18.637-.711-6.246-1.613-12.46-2.281-18.715l-1.012-9.37c-.246-3.141-.629-6.259-.934-9.407v-.008l.09-.113.11.074c1.375 6.149 2.347 12.371 3.34 18.582.96 6.215 1.863 12.446 2.738 18.676a2566.117 2566.117 0 0 1 4.699 37.453l-.09.113-.11-.074-.007-.015"/><path fill="#b23219" d="M553.645 488.738c1.44 3.094 3.316 5.992 5.363 8.711a68.54 68.54 0 0 0 6.656 7.719c2.383 2.43 5.086 4.48 7.52 6.828 2.457 2.344 4.98 4.625 7.386 7.203l-.008.215-.152.035c-3.316-1.25-6.316-3.101-9.113-5.215-2.813-2.109-5.106-4.82-7.363-7.48-2.25-2.684-4.317-5.512-6.137-8.492-1.77-3-3.399-6.102-4.426-9.438l.094-.176.18.075v.015m61.218 68.11c-3.476.242-6.949-.149-10.39-.711a71.502 71.502 0 0 1-10.125-2.653c-3.301-1.14-6.657-2.297-9.637-4.156-2.977-1.844-5.79-3.98-8.16-6.617l.015-.215.157-.02c3.277 1.31 6.312 2.829 9.386 4.274 3.07 1.422 5.965 3.2 9.09 4.547a69.362 69.362 0 0 0 9.598 3.418c3.273.918 6.648 1.613 10.062 1.844h.004l.14.156-.14.133M582.34 464.04c1.289 2.679 2.926 5.183 4.722 7.526a60.38 60.38 0 0 0 5.813 6.653c2.078 2.086 4.453 3.828 6.55 5.886 2.11 2.047 4.263 4.063 6.29 6.387l-.008.215-.152.031c-2.942-.996-5.575-2.578-8.024-4.394-2.472-1.817-4.433-4.215-6.383-6.543a61.33 61.33 0 0 1-5.3-7.422c-1.516-2.629-2.907-5.332-3.782-8.238l.098-.184.176.074v.008m53.156 59.184c-3.027.234-6.055-.082-9.055-.551-2.984-.516-5.937-1.29-8.824-2.25-2.879-.98-5.816-1.942-8.398-3.586-2.586-1.621-5.012-3.512-7.012-5.899l.023-.214.149-.02c2.906 1.05 5.558 2.332 8.23 3.563 2.672 1.207 5.153 2.785 7.852 3.968a59.424 59.424 0 0 0 8.309 3.016c2.832.832 5.757 1.453 8.71 1.676h.016l.133.164-.133.133m-108.898.925c1.441 3.102 3.316 6 5.359 8.72a69.326 69.326 0 0 0 6.66 7.718c2.383 2.422 5.086 4.48 7.52 6.832 2.457 2.34 4.98 4.621 7.386 7.2l-.007.214-.153.031c-3.316-1.246-6.324-3.097-9.113-5.21-2.82-2.11-5.11-4.821-7.363-7.489a70.283 70.283 0 0 1-6.137-8.484c-1.77-3.004-3.398-6.102-4.43-9.438l.098-.183.172.082.008.007m63.558 61.938c-3.468-.266-6.851-1.168-10.176-2.223-3.3-1.117-6.515-2.504-9.632-4.101-3.094-1.61-6.246-3.239-8.926-5.52-2.68-2.262-5.152-4.773-7.106-7.734l.043-.207.164-.008c3.043 1.777 5.832 3.727 8.66 5.605 2.829 1.856 5.426 4.04 8.32 5.825a70.803 70.803 0 0 0 9 4.777c3.11 1.395 6.345 2.57 9.692 3.29l.008.007.11.172-.157.117m-75.633-23.254c1.028 2.016 2.301 3.898 3.707 5.645a46.475 46.475 0 0 0 4.489 4.98c1.605 1.563 3.457 2.813 5.011 4.406 1.567 1.586 3.153 3.172 4.586 5.106l-.027.215-.133.027c-2.347-.598-4.414-1.754-6.324-3.117-1.93-1.34-3.36-3.262-4.84-5.059-1.457-1.824-2.804-3.734-3.972-5.742-1.125-2.031-2.157-4.121-2.778-6.363l.106-.18.168.074.007.008m41.837 50.628c-2.325-.097-4.59-.644-6.817-1.28a46.645 46.645 0 0 1-6.477-2.61c-2.082-1.039-4.265-2.015-6.011-3.601-1.746-1.555-3.332-3.309-4.442-5.473l.067-.207h.14c2.2.969 4.102 2.16 5.996 3.34 1.887 1.164 3.524 2.687 5.403 3.902 1.867 1.223 3.812 2.336 5.847 3.278 2.024.984 4.133 1.804 6.325 2.363h.011l.106.176-.149.113m-54.605-14.418c.836 1.512 1.844 2.926 2.953 4.238a34.678 34.678 0 0 0 3.496 3.727c1.242 1.164 2.707 2.05 3.856 3.297 1.16 1.234 2.316 2.504 3.316 4.14l-.059.223-.105.02c-1.902-.301-3.543-1.141-5.047-2.153-1.52-1-2.57-2.55-3.687-3.95a36.499 36.499 0 0 1-2.98-4.487c-.833-1.594-1.595-3.22-2.017-4.957l.106-.18.168.074v.008m30.711 32.871c-1.79-.031-3.543-.414-5.278-.867a36.78 36.78 0 0 1-5.03-1.91c-1.622-.782-3.356-1.461-4.673-2.727-1.324-1.238-2.504-2.644-3.218-4.437l.086-.207.113-.008c1.82.605 3.308 1.449 4.773 2.308 1.465.848 2.657 2.075 4.07 3.032a33.973 33.973 0 0 0 4.407 2.586 25.316 25.316 0 0 0 4.781 1.933l.016.008.093.176-.14.113"/><path fill="#40b93c" d="M362.672 507.02c-.047-15.446 7.91-21.352 4.765-43.418-5.07-35.508-28.37-52.422-64.582-52.422-36.203 0-61.421 22.07-63.793 55.175-.664 9.434 5.497 31.961 3.72 40.665-4.731 23.12-21.743 30.648-22.223 62.585-.653 43.875 35.93 81.711 84.53 81.711 48.602 0 82.032-31.093 82.032-79.742 0-32.707-24.414-51.62-24.45-64.554"/><path fill="#37a033" d="M362.672 507.02c-.047-15.446 7.91-21.352 4.765-43.418-3.003-21.047-12.421-35.559-27.12-43.887-5.544 7.61-9.399 16.66-11.977 25.46-5.938 20.321-2.703 41.34-5.766 62.036-1.57 10.601-4.937 21.176-11.37 29.894-6.349 8.614-15.528 14.793-21.696 23.47-6.61 9.312-11.266 20.386-14.461 31.32-3.184 10.898-3.938 22.773-.348 33.69 3.254 9.907 9.586 17.56 17.57 24.114.356.281.704.57 1.067.852a91.4 91.4 0 0 0 11.754.765c48.601 0 82.031-31.093 82.031-79.742 0-32.707-24.414-51.62-24.45-64.554"/><path fill="#a5c61e" d="M352.102 510.59c-.032-13.844 6.492-19.133 3.906-38.906-4.153-31.82-23.27-46.97-52.977-46.97-29.703 0-50.39 19.774-52.324 49.434-.555 8.454 4.508 28.641 3.043 36.442-3.879 20.715-17.832 27.46-18.223 56.082-.543 39.312 29.465 73.21 69.34 73.21 39.867 0 67.293-27.859 67.293-71.448 0-29.309-20.023-46.258-20.058-57.844"/><path fill="#b0cc39" d="M264.453 489.543c-1.289 0-2.574-.074-3.855-.223-.66-6.347-2.305-14.453-2.028-18.562 1.258-19.32 14.004-32.598 32.621-34.137 3.028 7.703 3.313 17.172 2.79 24.586-.594 8.387-3.465 15.766-9.91 21.375-5.391 4.688-12.528 6.961-19.618 6.961"/><path fill="#90ac19" d="M352.102 510.59c-.032-13.844 6.492-19.133 3.906-38.906-2.211-16.95-8.676-29.168-18.719-36.887.363 8.824.895 17.664.32 26.476-.718 10.942-3.304 21.286-8.093 31.168-9.473 19.57-24.477 35.301-35.942 53.575-11.238 17.906-18.61 39.812-17.113 61.16.695 9.93 3.535 20.96 9.059 29.914 6.097 1.816 12.574 2.793 19.347 2.793 39.867 0 67.293-27.86 67.293-71.45 0-29.308-20.023-46.257-20.058-57.843"/><path fill="#88a318" d="M352.102 510.59c-.024-10.184 3.5-15.75 4.336-25.856a79.813 79.813 0 0 1-4.094 7.582c-5.047 8.235-11.39 15.614-16.875 23.563-5.418 7.855-10.031 15.996-13.946 24.691-8.214 18.239-15.824 37.442-16.714 57.672-.586 13.336-3.598 28.324-.391 41.633l.45.008c39.866 0 67.292-27.86 67.292-71.45 0-29.308-20.031-46.257-20.058-57.843"/><path fill="#819a16" d="M358.46 526.258c-6.507 10.617-14.843 20.46-21.487 30.765-7.817 12.13-12.828 25.61-14.223 40.043-.79 8.192-1.094 16.48.832 24.536 1.2 5 2.773 9.89 4.227 14.816 27.066-8.719 44.351-33.39 44.351-67.984 0-18.313-7.824-31.805-13.7-42.176"/><path fill="#3e1416" d="M352.473 572.895c0 26.335-21.336 47.675-47.649 47.675-26.312 0-47.64-21.34-47.64-47.675 0-26.336 21.328-47.688 47.64-47.688 26.313 0 47.649 21.352 47.649 47.688"/><path fill="#502424" d="M267.11 577.047c-.415 0-.837 0-1.25-.004a40.832 40.832 0 0 1-.407-5.727c0-15.722 8.985-29.324 22.086-35.976a42.169 42.169 0 0 1 3.555 4.195c4.605 6.258 5.668 13.192 3.465 20.57-1.688 5.653-3.762 10.493-9.23 13.313-5.74 2.965-11.95 3.629-18.22 3.629"/><path fill="#351012" d="M321.879 528.363c-.04 12.824-4.531 25.817-11.926 37.024-3.332 5.062-8.148 9.8-10.05 15.664-1.786 5.488-1.157 11.37.538 16.816 2.532 8.14 7.114 15.926 13.36 21.852 22.023-4.207 38.672-23.567 38.672-46.824 0-20.32-12.703-37.665-30.594-44.532"/><path fill="#2e0e0e" d="M329.082 531.86c.324 2.03.48 4.09.422 6.187-.238 8.363-2.746 16.312-5.754 24.05-3.582 9.223-11.05 13.817-11.836 28.196-.555 10.047 8.277 17.973 12.606 26.004 16.484-7.496 27.953-24.098 27.953-43.402 0-17.47-9.395-32.73-23.391-41.036"/><path fill="#270b0b" d="M330.64 532.828c1.114 4.344 2.09 8.715 2.52 13.172.91 9.32-.992 17.559-4.433 26.18-3.207 8.011-6.973 16.441-5.82 25.285.769 5.89 3.347 11.277 6.179 16.46 14-8.304 23.387-23.566 23.387-41.03 0-16.813-8.7-31.575-21.832-40.067"/></svg>