<svg xmlns="http://www.w3.org/2000/svg" xmlns:xlink="http://www.w3.org/1999/xlink" width="500" zoomAndPan="magnify" viewBox="0 0 375 374.999991" height="500" preserveAspectRatio="xMidYMid meet" version="1.0"><defs><g/><clipPath id="00bed00ed1"><path d="M 125.007812 108 L 199 108 L 199 199 L 125.007812 199 Z M 125.007812 108 " clip-rule="nonzero"/></clipPath></defs><g clip-path="url(#00bed00ed1)"><path fill="#7b6df1" d="M 191.785156 167.90625 L 181.640625 158.3125 C 181.640625 158.3125 188.710938 140.714844 191.785156 135.207031 C 193.097656 132.851562 194.671875 129.746094 195.578125 126.3125 C 195.65625 126.328125 195.738281 126.332031 195.824219 126.332031 C 197.148438 126.332031 198.222656 124.40625 198.222656 122.027344 C 198.222656 120.238281 197.617188 118.707031 196.75 118.054688 C 196.75 118.054688 195.550781 118.941406 195.472656 120.675781 C 195.472656 120.675781 195.140625 118.789062 196.652344 117.164062 C 196.394531 115.261719 195.933594 114.140625 194.796875 112.765625 C 192.78125 110.328125 189.695312 109.511719 185.007812 109.300781 C 180.613281 109.097656 177.445312 108.574219 173.726562 108.171875 C 172.445312 108.03125 172.992188 110.496094 173.335938 111.089844 C 174.03125 112.292969 175.011719 112.691406 178.511719 113.71875 C 178.511719 113.71875 175.710938 113.71875 172.847656 112.105469 C 172.199219 113.277344 171.839844 114.820312 171.714844 116.574219 C 174.011719 118.945312 173.519531 121.761719 173.519531 121.761719 C 173.402344 119.246094 171.667969 117.964844 171.667969 117.964844 C 170.734375 118.554688 170.066406 120.148438 170.066406 122.027344 C 170.066406 124.40625 171.136719 126.332031 172.460938 126.332031 C 172.589844 126.332031 172.714844 126.316406 172.835938 126.28125 C 173.871094 130.21875 175.492188 133.910156 177.304688 136.097656 C 176.34375 137.023438 175.429688 137.910156 174.578125 138.574219 C 179.957031 138.328125 184.144531 142.054688 184.144531 142.054688 C 184.144531 142.054688 176.695312 137.519531 170.929688 140.855469 C 162.941406 145.476562 154.273438 142.054688 154.273438 142.054688 C 154.273438 142.054688 162.101562 143.464844 170.398438 139.609375 C 170.574219 139.523438 170.753906 139.449219 170.929688 139.378906 C 166.585938 137.703125 162.554688 135.1875 152.058594 140.285156 C 152.058594 140.285156 149.339844 141.429688 147.78125 143.84375 C 147.78125 143.84375 148.207031 141.644531 150.582031 139.664062 C 148.5 138.925781 144.582031 138.03125 141.207031 140.085938 C 141.207031 140.085938 138.484375 141.230469 136.929688 143.648438 C 136.929688 143.648438 138.109375 140.710938 141.414062 138.574219 C 141.914062 135.585938 143.460938 128.863281 147.710938 124.734375 C 147.90625 124.542969 148.089844 124.375 148.261719 124.226562 C 146.894531 124.484375 145.789062 125.027344 145.789062 125.027344 C 148.003906 122.96875 149.988281 123.796875 151.433594 123.671875 C 153.144531 123.527344 155.195312 124.398438 156.242188 124.246094 C 157.644531 124.042969 159.851562 123.800781 160.394531 123.496094 C 161.902344 122.652344 160.871094 120.921875 159.683594 120.867188 C 158.136719 120.796875 162.53125 120.917969 162.410156 119.136719 C 162.222656 116.382812 162.53125 115.507812 161.71875 114.425781 C 161.355469 113.941406 157.648438 110.570312 156.515625 110.570312 C 153.4375 110.578125 148.75 113.457031 146.226562 114.59375 C 144.097656 115.554688 143.117188 117.492188 142.179688 119.027344 C 140.382812 121.960938 125.011719 141.128906 125.167969 146.9375 C 125.335938 153.253906 137.804688 159.757812 150.441406 155.539062 C 150.441406 155.539062 153.441406 154.144531 155.117188 152.898438 C 155.117188 152.898438 153.3125 154.992188 151.089844 156.378906 C 151.800781 157.285156 152.652344 158.464844 153.59375 159.828125 C 156.59375 163.601562 162.128906 169.492188 169.269531 172.417969 C 169.269531 172.417969 165.441406 171.9375 160.136719 169.820312 C 161.332031 171.695312 162.535156 173.597656 163.695312 175.433594 C 165.125 177.6875 166.96875 179.65625 169.148438 181.191406 C 171.015625 182.507812 173.0625 183.691406 175.261719 184.589844 C 175.261719 184.589844 172.503906 184.246094 168.429688 182.847656 C 169.667969 184.75 170.707031 186.292969 171.433594 187.257812 C 173.226562 189.648438 176.171875 191.878906 175.378906 198.902344 L 191.785156 167.90625 " fill-opacity="1" fill-rule="nonzero"/></g><path fill="#cb69d6" d="M 227.839844 119.027344 C 226.898438 117.492188 225.917969 115.554688 223.789062 114.59375 C 221.265625 113.457031 216.578125 110.578125 213.5 110.570312 C 212.367188 110.570312 208.660156 113.941406 208.296875 114.425781 C 207.484375 115.507812 207.796875 116.382812 207.605469 119.136719 C 207.484375 120.917969 211.878906 120.796875 210.332031 120.867188 C 209.144531 120.921875 208.113281 122.652344 209.621094 123.496094 C 210.167969 123.800781 212.371094 124.042969 213.773438 124.246094 C 214.820312 124.398438 216.871094 123.527344 218.582031 123.671875 C 220.027344 123.796875 222.011719 122.96875 224.226562 125.027344 C 224.226562 125.027344 223.121094 124.484375 221.757812 124.226562 C 221.925781 124.375 222.109375 124.542969 222.308594 124.734375 C 226.554688 128.863281 228.101562 135.585938 228.601562 138.574219 C 231.90625 140.710938 233.085938 143.648438 233.085938 143.648438 C 231.53125 141.230469 228.808594 140.085938 228.808594 140.085938 C 225.4375 138.03125 221.515625 138.925781 219.433594 139.664062 C 221.808594 141.644531 222.234375 143.84375 222.234375 143.84375 C 220.675781 141.429688 217.957031 140.285156 217.957031 140.285156 C 213.269531 138.007812 209.871094 137.25 207.15625 137.257812 L 205.066406 140.964844 C 211.925781 143.089844 217.667969 142.054688 217.667969 142.054688 C 217.667969 142.054688 211.207031 144.605469 204.296875 142.328125 L 195.917969 157.183594 L 204.746094 165.648438 L 181.234375 192.347656 C 181.234375 192.347656 198.71875 200.207031 210.703125 192.777344 C 202.660156 185.402344 201.863281 181.765625 203 177.6875 C 204.546875 172.152344 214.015625 157.519531 214.015625 157.519531 C 226.652344 161.738281 244.679688 153.253906 244.847656 146.9375 C 245.003906 141.128906 229.632812 121.960938 227.839844 119.027344 " fill-opacity="1" fill-rule="nonzero"/><g fill="#d9d9d9" fill-opacity="1"><g transform="translate(82.847532, 236.643179)"><g><path d="M 1.960938 -17.582031 L 1.960938 0 L 6.371094 0 L 6.371094 -7.046875 L 16.054688 -7.046875 L 16.054688 -10.65625 L 6.371094 -10.65625 L 6.371094 -13.972656 L 16.976562 -13.972656 L 16.976562 -17.582031 Z M 1.960938 -17.582031 "/></g></g></g><g fill="#d9d9d9" fill-opacity="1"><g transform="translate(101.63558, 236.643179)"><g><path d="M 6.441406 -17.582031 L 2.035156 -17.582031 L 2.035156 0 L 6.441406 0 Z M 6.441406 -17.582031 "/></g></g></g><g fill="#d9d9d9" fill-opacity="1"><g transform="translate(111.320334, 236.643179)"><g><path d="M -0.144531 -17.582031 L -0.144531 -13.972656 L 5.886719 -13.972656 L 5.886719 0 L 10.292969 0 L 10.292969 -13.972656 L 16.324219 -13.972656 L 16.324219 -17.582031 Z M -0.144531 -17.582031 "/></g></g></g><g fill="#d9d9d9" fill-opacity="1"><g transform="translate(128.704145, 236.643179)"><g><path d="M 1.960938 -17.582031 L 1.960938 0 L 6.199219 0 L 6.199219 -12.519531 L 15.0625 0 L 20.414062 0 L 20.414062 -17.582031 L 16.175781 -17.582031 L 16.175781 -5.183594 L 7.386719 -17.582031 Z M 1.960938 -17.582031 "/></g></g></g><g fill="#d9d9d9" fill-opacity="1"><g transform="translate(152.285939, 236.643179)"><g><path d="M 1.960938 -17.582031 L 1.960938 0 L 17.582031 0 L 17.582031 -3.609375 L 6.371094 -3.609375 L 6.371094 -7.433594 L 16.347656 -7.433594 L 16.347656 -11.042969 L 6.371094 -11.042969 L 6.371094 -13.972656 L 17.582031 -13.972656 L 17.582031 -17.582031 Z M 1.960938 -17.582031 "/></g></g></g><g fill="#d9d9d9" fill-opacity="1"><g transform="translate(172.381374, 236.643179)"><g><path d="M 18.890625 -12.179688 C 18.890625 -15.863281 15.742188 -18.042969 10.121094 -18.042969 C 4.820312 -18.042969 1.648438 -15.5 1.648438 -12.207031 C 1.648438 -9.226562 3.828125 -7.726562 8.304688 -7.265625 L 11.40625 -6.949219 C 13.78125 -6.707031 14.871094 -6.394531 14.871094 -5.039062 C 14.871094 -3.679688 13.464844 -2.882812 10.847656 -2.882812 C 7.460938 -2.882812 5.714844 -3.949219 5.738281 -6.078125 L 1.234375 -6.078125 C 1.234375 -1.695312 4.382812 0.460938 10.316406 0.460938 C 16.492188 0.460938 19.664062 -1.671875 19.664062 -5.523438 C 19.664062 -8.621094 17.535156 -10.195312 13.125 -10.679688 L 9.855469 -11.019531 C 7.339844 -11.285156 6.296875 -11.480469 6.296875 -12.785156 C 6.296875 -14.023438 7.652344 -14.796875 10.195312 -14.796875 C 12.882812 -14.796875 14.3125 -13.925781 14.507812 -12.179688 Z M 18.890625 -12.179688 "/></g></g></g><g fill="#d9d9d9" fill-opacity="1"><g transform="translate(194.486311, 236.643179)"><g><path d="M 18.890625 -12.179688 C 18.890625 -15.863281 15.742188 -18.042969 10.121094 -18.042969 C 4.820312 -18.042969 1.648438 -15.5 1.648438 -12.207031 C 1.648438 -9.226562 3.828125 -7.726562 8.304688 -7.265625 L 11.40625 -6.949219 C 13.78125 -6.707031 14.871094 -6.394531 14.871094 -5.039062 C 14.871094 -3.679688 13.464844 -2.882812 10.847656 -2.882812 C 7.460938 -2.882812 5.714844 -3.949219 5.738281 -6.078125 L 1.234375 -6.078125 C 1.234375 -1.695312 4.382812 0.460938 10.316406 0.460938 C 16.492188 0.460938 19.664062 -1.671875 19.664062 -5.523438 C 19.664062 -8.621094 17.535156 -10.195312 13.125 -10.679688 L 9.855469 -11.019531 C 7.339844 -11.285156 6.296875 -11.480469 6.296875 -12.785156 C 6.296875 -14.023438 7.652344 -14.796875 10.195312 -14.796875 C 12.882812 -14.796875 14.3125 -13.925781 14.507812 -12.179688 Z M 18.890625 -12.179688 "/></g></g></g><g fill="#d9d9d9" fill-opacity="1"><g transform="translate(216.591248, 236.643179)"><g/></g></g><g fill="#d9d9d9" fill-opacity="1"><g transform="translate(226.687591, 236.643179)"><g><path d="M 1.960938 0 L 9.90625 0 C 16.054688 0 20.777344 -1.984375 20.777344 -8.789062 C 20.777344 -15.160156 16.394531 -17.582031 10.945312 -17.582031 L 1.960938 -17.582031 Z M 6.371094 -13.972656 L 9.808594 -13.972656 C 13.875 -13.972656 15.960938 -12.253906 15.960938 -8.863281 C 15.960938 -5.472656 13.875 -3.609375 9.808594 -3.609375 L 6.371094 -3.609375 Z M 6.371094 -13.972656 "/></g></g></g><g fill="#d9d9d9" fill-opacity="1"><g transform="translate(249.688326, 236.643179)"><g><path d="M 1.960938 -17.582031 L 1.960938 0 L 17.582031 0 L 17.582031 -3.609375 L 6.371094 -3.609375 L 6.371094 -7.433594 L 16.347656 -7.433594 L 16.347656 -11.042969 L 6.371094 -11.042969 L 6.371094 -13.972656 L 17.582031 -13.972656 L 17.582031 -17.582031 Z M 1.960938 -17.582031 "/></g></g></g><g fill="#d9d9d9" fill-opacity="1"><g transform="translate(269.783761, 236.643179)"><g><path d="M 1.960938 -17.582031 L 1.960938 0 L 6.199219 0 L 6.199219 -12.519531 L 15.0625 0 L 20.414062 0 L 20.414062 -17.582031 L 16.175781 -17.582031 L 16.175781 -5.183594 L 7.386719 -17.582031 Z M 1.960938 -17.582031 "/></g></g></g></svg>