<svg xmlns="http://www.w3.org/2000/svg" width="500" viewBox="0 0 375 375" height="500" version="1.0"><defs><clipPath id="a"><path d="M35 23.34h187V254H35zm0 0"/></clipPath></defs><g clip-path="url(#a)"><path fill="#7b6df1" d="m204.84 175.324-25.805-24.34s17.985-44.636 25.805-58.609c3.34-5.973 7.34-13.855 9.64-22.566.208.039.418.058.63.058 3.367 0 6.097-4.89 6.097-10.926 0-4.535-1.539-8.421-3.738-10.074 0 0-3.051 2.242-3.25 6.649 0 0-.84-4.793 2.996-8.907-.649-4.832-1.824-7.672-4.719-11.16-5.129-6.183-12.98-8.254-24.898-8.797-11.176-.511-19.235-1.836-28.696-2.863-3.257-.355-1.863 5.898-.992 7.406 1.762 3.051 4.262 4.059 13.164 6.672 0 0-7.129-.004-14.41-4.094-1.652 2.977-2.566 6.891-2.875 11.332 5.832 6.016 4.582 13.16 4.582 13.16-.293-6.378-4.707-9.628-4.707-9.628-2.375 1.496-4.078 5.543-4.078 10.304 0 6.036 2.73 10.926 6.098 10.926.324 0 .64-.047.949-.133 2.633 9.989 6.762 19.352 11.367 24.899-2.441 2.355-4.77 4.601-6.938 6.285 13.688-.625 24.336 8.828 24.336 8.828s-18.941-11.504-33.609-3.043c-20.324 11.727-42.371 3.043-42.371 3.043s19.914 3.582 41.016-6.207c.453-.21.902-.402 1.351-.582-11.05-4.254-21.305-10.637-47.996 2.3 0 0-6.926 2.907-10.883 9.032 0 0 1.082-5.582 7.121-10.605-5.293-1.871-15.265-4.141-23.851 1.066 0 0-6.922 2.906-10.883 9.035 0 0 3.008-7.45 11.418-12.87 1.266-7.575 5.2-24.634 16.008-35.103.504-.488.965-.914 1.402-1.289-3.476.653-6.285 2.028-6.285 2.028 5.633-5.215 10.68-3.117 14.355-3.434 4.356-.37 9.575 1.844 12.235 1.457 3.57-.52 9.176-1.136 10.562-1.906 3.84-2.137 1.211-6.527-1.812-6.664-3.93-.18 7.246.121 6.937-4.395-.48-6.988.309-9.207-1.754-11.953-.925-1.23-10.351-9.781-13.238-9.777-7.824.023-19.758 7.32-26.168 10.207-5.422 2.437-7.914 7.352-10.305 11.25-4.562 7.434-43.668 56.066-43.27 70.8.434 16.016 32.145 32.52 64.29 21.817 0 0 7.637-3.543 11.898-6.7 0 0-4.593 5.317-10.242 8.833 1.809 2.297 3.965 5.285 6.36 8.75 7.636 9.566 21.714 24.512 39.879 31.934 0 0-9.739-1.211-23.231-6.59a5264.87 5264.87 0 0 1 9.055 14.242c3.633 5.719 8.324 10.707 13.87 14.605 4.75 3.34 9.958 6.336 15.552 8.625 0 0-7.012-.875-17.383-4.425 3.148 4.828 5.793 8.742 7.64 11.191 4.563 6.059 12.055 11.715 10.036 29.543l41.738-78.637"/></g><path fill="#cb69d6" d="M296.547 51.336c-2.39-3.898-4.883-8.813-10.3-11.25-6.415-2.887-18.349-10.184-26.169-10.207-2.887-.004-12.316 8.547-13.242 9.777-2.059 2.746-1.274 4.965-1.75 11.953-.309 4.516 10.863 4.215 6.934 4.395-3.02.137-5.653 4.527-1.81 6.664 1.384.77 6.993 1.387 10.56 1.906 2.66.387 7.878-1.828 12.234-1.457 3.68.317 8.726-1.781 14.355 3.434 0 0-2.808-1.375-6.285-2.028.438.375.899.801 1.403 1.29 10.808 10.468 14.742 27.527 16.007 35.101 8.41 5.422 11.418 12.871 11.418 12.871-3.957-6.129-10.882-9.035-10.882-9.035-8.582-5.207-18.555-2.938-23.852-1.066 6.039 5.023 7.121 10.605 7.121 10.605-3.957-6.125-10.883-9.031-10.883-9.031-11.922-5.778-20.566-7.703-27.465-7.684l-5.32 9.403c17.45 5.394 32.055 2.77 32.055 2.77s-16.438 6.468-34.012.69l-21.316 37.684 22.457 21.477L178 237.324s44.477 19.938 74.965 1.09c-20.465-18.707-22.492-27.926-19.598-38.281 3.93-14.04 28.016-51.156 28.016-51.156 32.148 10.703 78.004-10.825 78.437-26.84.395-14.735-38.71-63.367-43.273-70.801"/><path d="M65.585 281.466v21.496h5.391v-8.617H82.82v-4.41H70.976v-4.06h12.969v-4.41zm28.45 0h-5.387v21.496h5.387zm3.791 0v4.41h7.371v17.086h5.39v-17.086h7.372v-4.41zm23.83 0v21.496h5.184v-15.309l10.836 15.309h6.543v-21.496h-5.18v15.16l-10.75-15.16zm28.834 0v21.496h19.098v-4.414h-13.707v-4.676h12.2v-4.414h-12.2v-3.582h13.707v-4.41zm45.271 6.601c0-4.5-3.852-7.168-10.719-7.168-6.484 0-10.367 3.11-10.367 7.137 0 3.644 2.668 5.48 8.145 6.043l3.789.383c2.902.297 4.234.683 4.234 2.34 0 1.66-1.715 2.636-4.914 2.636-4.145 0-6.277-1.304-6.246-3.91h-5.508c0 5.36 3.848 7.996 11.102 7.996 7.55 0 11.43-2.605 11.43-7.312 0-3.793-2.606-5.715-7.993-6.309l-4-.414c-3.078-.328-4.351-.562-4.351-2.164 0-1.508 1.656-2.457 4.765-2.457 3.29 0 5.035 1.066 5.274 3.2zm27.029 0c0-4.5-3.852-7.168-10.72-7.168-6.484 0-10.366 3.11-10.366 7.137 0 3.644 2.668 5.48 8.144 6.043l3.79.383c2.901.297 4.234.683 4.234 2.34 0 1.66-1.715 2.636-4.915 2.636-4.144 0-6.277-1.304-6.246-3.91h-5.507c0 5.36 3.847 7.996 11.101 7.996 7.55 0 11.43-2.605 11.43-7.312 0-3.793-2.606-5.715-7.992-6.309l-4-.414c-3.079-.328-4.352-.562-4.352-2.164 0-1.508 1.656-2.457 4.766-2.457 3.289 0 5.035 1.066 5.273 3.2zm18.674 14.895h9.71c7.524 0 13.298-2.43 13.298-10.75 0-7.785-5.36-10.746-12.024-10.746h-10.984zm5.39-17.086h4.204c4.976 0 7.523 2.101 7.523 6.25 0 4.144-2.547 6.422-7.523 6.422h-4.203zm22.734-4.41v21.496h19.097v-4.414h-13.707v-4.676h12.2v-4.414h-12.2v-3.582h13.707v-4.41zm24.572 0v21.496h5.183v-15.309l10.836 15.309h6.543v-21.496h-5.18v15.16l-10.75-15.16zm0 0" fill="#d9d9d9"/></svg>