<svg xmlns="http://www.w3.org/2000/svg" xmlns:xlink="http://www.w3.org/1999/xlink" width="500" zoomAndPan="magnify" viewBox="0 0 375 374.999991" height="500" preserveAspectRatio="xMidYMid meet" version="1.0"><defs><g/><clipPath id="5da2c6526a"><path d="M 35 23.339844 L 222 23.339844 L 222 254 L 35 254 Z M 35 23.339844 " clip-rule="nonzero"/></clipPath></defs><g clip-path="url(#5da2c6526a)"><path fill="#7b6df1" d="M 204.839844 175.324219 L 179.035156 150.984375 C 179.035156 150.984375 197.019531 106.347656 204.839844 92.375 C 208.179688 86.402344 212.179688 78.519531 214.480469 69.808594 C 214.6875 69.847656 214.898438 69.867188 215.109375 69.867188 C 218.476562 69.867188 221.207031 64.976562 221.207031 58.941406 C 221.207031 54.40625 219.667969 50.519531 217.46875 48.867188 C 217.46875 48.867188 214.417969 51.109375 214.21875 55.515625 C 214.21875 55.515625 213.378906 50.722656 217.214844 46.609375 C 216.566406 41.777344 215.390625 38.9375 212.496094 35.449219 C 207.367188 29.265625 199.515625 27.195312 187.597656 26.652344 C 176.421875 26.140625 168.363281 24.816406 158.902344 23.789062 C 155.644531 23.433594 157.039062 29.6875 157.910156 31.195312 C 159.671875 34.246094 162.171875 35.253906 171.074219 37.867188 C 171.074219 37.867188 163.945312 37.863281 156.664062 33.773438 C 155.011719 36.75 154.097656 40.664062 153.789062 45.105469 C 159.621094 51.121094 158.371094 58.265625 158.371094 58.265625 C 158.078125 51.886719 153.664062 48.636719 153.664062 48.636719 C 151.289062 50.132812 149.585938 54.179688 149.585938 58.941406 C 149.585938 64.976562 152.316406 69.867188 155.683594 69.867188 C 156.007812 69.867188 156.324219 69.820312 156.632812 69.734375 C 159.265625 79.722656 163.394531 89.085938 168 94.632812 C 165.558594 96.988281 163.230469 99.234375 161.0625 100.917969 C 174.75 100.292969 185.398438 109.746094 185.398438 109.746094 C 185.398438 109.746094 166.457031 98.242188 151.789062 106.703125 C 131.464844 118.429688 109.417969 109.746094 109.417969 109.746094 C 109.417969 109.746094 129.332031 113.328125 150.433594 103.539062 C 150.886719 103.328125 151.335938 103.136719 151.785156 102.957031 C 140.734375 98.703125 130.480469 92.320312 103.789062 105.257812 C 103.789062 105.257812 96.863281 108.164062 92.90625 114.289062 C 92.90625 114.289062 93.988281 108.707031 100.027344 103.683594 C 94.734375 101.8125 84.761719 99.542969 76.175781 104.75 C 76.175781 104.75 69.253906 107.65625 65.292969 113.785156 C 65.292969 113.785156 68.300781 106.335938 76.710938 100.914062 C 77.976562 93.339844 81.910156 76.28125 92.71875 65.8125 C 93.222656 65.324219 93.683594 64.898438 94.121094 64.523438 C 90.644531 65.175781 87.835938 66.550781 87.835938 66.550781 C 93.46875 61.335938 98.515625 63.433594 102.191406 63.117188 C 106.546875 62.746094 111.765625 64.960938 114.425781 64.574219 C 117.996094 64.054688 123.601562 63.4375 124.988281 62.667969 C 128.828125 60.53125 126.199219 56.140625 123.175781 56.003906 C 119.246094 55.824219 130.421875 56.125 130.113281 51.609375 C 129.632812 44.621094 130.421875 42.402344 128.359375 39.65625 C 127.433594 38.425781 118.007812 29.875 115.121094 29.878906 C 107.296875 29.902344 95.363281 37.199219 88.953125 40.085938 C 83.53125 42.523438 81.039062 47.4375 78.648438 51.335938 C 74.085938 58.769531 34.980469 107.402344 35.378906 122.136719 C 35.8125 138.152344 67.523438 154.65625 99.667969 143.953125 C 99.667969 143.953125 107.304688 140.410156 111.566406 137.253906 C 111.566406 137.253906 106.972656 142.570312 101.324219 146.085938 C 103.132812 148.382812 105.289062 151.371094 107.683594 154.835938 C 115.320312 164.402344 129.398438 179.347656 147.5625 186.769531 C 147.5625 186.769531 137.824219 185.558594 124.332031 180.179688 C 127.371094 184.9375 130.433594 189.765625 133.386719 194.421875 C 137.019531 200.140625 141.710938 205.128906 147.257812 209.027344 C 152.007812 212.367188 157.214844 215.363281 162.808594 217.652344 C 162.808594 217.652344 155.796875 216.777344 145.425781 213.226562 C 148.574219 218.054688 151.21875 221.96875 153.066406 224.417969 C 157.628906 230.476562 165.121094 236.132812 163.101562 253.960938 L 204.839844 175.324219 " fill-opacity="1" fill-rule="nonzero"/></g><path fill="#cb69d6" d="M 296.546875 51.335938 C 294.15625 47.4375 291.664062 42.523438 286.246094 40.085938 C 279.832031 37.199219 267.898438 29.902344 260.078125 29.878906 C 257.191406 29.875 247.761719 38.425781 246.835938 39.65625 C 244.777344 42.402344 245.5625 44.621094 245.085938 51.609375 C 244.777344 56.125 255.949219 55.824219 252.019531 56.003906 C 249 56.140625 246.367188 60.53125 250.210938 62.667969 C 251.59375 63.4375 257.203125 64.054688 260.769531 64.574219 C 263.429688 64.960938 268.648438 62.746094 273.003906 63.117188 C 276.683594 63.433594 281.730469 61.335938 287.359375 66.550781 C 287.359375 66.550781 284.550781 65.175781 281.074219 64.523438 C 281.511719 64.898438 281.972656 65.324219 282.476562 65.8125 C 293.285156 76.28125 297.21875 93.339844 298.484375 100.914062 C 306.894531 106.335938 309.902344 113.785156 309.902344 113.785156 C 305.945312 107.65625 299.019531 104.75 299.019531 104.75 C 290.4375 99.542969 280.464844 101.8125 275.167969 103.683594 C 281.207031 108.707031 282.289062 114.289062 282.289062 114.289062 C 278.332031 108.164062 271.40625 105.257812 271.40625 105.257812 C 259.484375 99.480469 250.839844 97.554688 243.941406 97.574219 L 238.621094 106.976562 C 256.070312 112.371094 270.675781 109.746094 270.675781 109.746094 C 270.675781 109.746094 254.238281 116.214844 236.664062 110.4375 L 215.347656 148.121094 L 237.804688 169.597656 L 178 237.324219 C 178 237.324219 222.476562 257.261719 252.964844 238.414062 C 232.5 219.707031 230.472656 210.488281 233.367188 200.132812 C 237.296875 186.09375 261.382812 148.976562 261.382812 148.976562 C 293.53125 159.679688 339.386719 138.152344 339.820312 122.136719 C 340.214844 107.402344 301.109375 58.769531 296.546875 51.335938 " fill-opacity="1" fill-rule="nonzero"/><g fill="#d9d9d9" fill-opacity="1"><g transform="translate(63.18703, 302.961697)"><g><path d="M 2.398438 -21.496094 L 2.398438 0 L 7.789062 0 L 7.789062 -8.617188 L 19.632812 -8.617188 L 19.632812 -13.027344 L 7.789062 -13.027344 L 7.789062 -17.085938 L 20.757812 -17.085938 L 20.757812 -21.496094 Z M 2.398438 -21.496094 "/></g></g></g><g fill="#d9d9d9" fill-opacity="1"><g transform="translate(86.159862, 302.961697)"><g><path d="M 7.875 -21.496094 L 2.488281 -21.496094 L 2.488281 0 L 7.875 0 Z M 7.875 -21.496094 "/></g></g></g><g fill="#d9d9d9" fill-opacity="1"><g transform="translate(98.001764, 302.961697)"><g><path d="M -0.175781 -21.496094 L -0.175781 -17.085938 L 7.195312 -17.085938 L 7.195312 0 L 12.585938 0 L 12.585938 -17.085938 L 19.957031 -17.085938 L 19.957031 -21.496094 Z M -0.175781 -21.496094 "/></g></g></g><g fill="#d9d9d9" fill-opacity="1"><g transform="translate(119.257585, 302.961697)"><g><path d="M 2.398438 -21.496094 L 2.398438 0 L 7.582031 0 L 7.582031 -15.308594 L 18.417969 0 L 24.960938 0 L 24.960938 -21.496094 L 19.78125 -21.496094 L 19.78125 -6.335938 L 9.03125 -21.496094 Z M 2.398438 -21.496094 "/></g></g></g><g fill="#d9d9d9" fill-opacity="1"><g transform="translate(148.091906, 302.961697)"><g><path d="M 2.398438 -21.496094 L 2.398438 0 L 21.496094 0 L 21.496094 -4.414062 L 7.789062 -4.414062 L 7.789062 -9.089844 L 19.988281 -9.089844 L 19.988281 -13.503906 L 7.789062 -13.503906 L 7.789062 -17.085938 L 21.496094 -17.085938 L 21.496094 -21.496094 Z M 2.398438 -21.496094 "/></g></g></g><g fill="#d9d9d9" fill-opacity="1"><g transform="translate(172.663328, 302.961697)"><g><path d="M 23.097656 -14.894531 C 23.097656 -19.394531 19.246094 -22.0625 12.378906 -22.0625 C 5.894531 -22.0625 2.011719 -18.953125 2.011719 -14.925781 C 2.011719 -11.28125 4.679688 -9.445312 10.15625 -8.882812 L 13.945312 -8.5 C 16.847656 -8.203125 18.179688 -7.816406 18.179688 -6.160156 C 18.179688 -4.5 16.464844 -3.523438 13.265625 -3.523438 C 9.121094 -3.523438 6.988281 -4.828125 7.019531 -7.433594 L 1.511719 -7.433594 C 1.511719 -2.074219 5.359375 0.5625 12.613281 0.5625 C 20.164062 0.5625 24.042969 -2.042969 24.042969 -6.75 C 24.042969 -10.542969 21.4375 -12.464844 16.050781 -13.058594 L 12.050781 -13.472656 C 8.972656 -13.800781 7.699219 -14.035156 7.699219 -15.636719 C 7.699219 -17.144531 9.355469 -18.09375 12.464844 -18.09375 C 15.753906 -18.09375 17.5 -17.027344 17.738281 -14.894531 Z M 23.097656 -14.894531 "/></g></g></g><g fill="#d9d9d9" fill-opacity="1"><g transform="translate(199.691841, 302.961697)"><g><path d="M 23.097656 -14.894531 C 23.097656 -19.394531 19.246094 -22.0625 12.378906 -22.0625 C 5.894531 -22.0625 2.011719 -18.953125 2.011719 -14.925781 C 2.011719 -11.28125 4.679688 -9.445312 10.15625 -8.882812 L 13.945312 -8.5 C 16.847656 -8.203125 18.179688 -7.816406 18.179688 -6.160156 C 18.179688 -4.5 16.464844 -3.523438 13.265625 -3.523438 C 9.121094 -3.523438 6.988281 -4.828125 7.019531 -7.433594 L 1.511719 -7.433594 C 1.511719 -2.074219 5.359375 0.5625 12.613281 0.5625 C 20.164062 0.5625 24.042969 -2.042969 24.042969 -6.75 C 24.042969 -10.542969 21.4375 -12.464844 16.050781 -13.058594 L 12.050781 -13.472656 C 8.972656 -13.800781 7.699219 -14.035156 7.699219 -15.636719 C 7.699219 -17.144531 9.355469 -18.09375 12.464844 -18.09375 C 15.753906 -18.09375 17.5 -17.027344 17.738281 -14.894531 Z M 23.097656 -14.894531 "/></g></g></g><g fill="#d9d9d9" fill-opacity="1"><g transform="translate(226.720355, 302.961697)"><g/></g></g><g fill="#d9d9d9" fill-opacity="1"><g transform="translate(239.065522, 302.961697)"><g><path d="M 2.398438 0 L 12.109375 0 C 19.632812 0 25.40625 -2.429688 25.40625 -10.75 C 25.40625 -18.535156 20.046875 -21.496094 13.382812 -21.496094 L 2.398438 -21.496094 Z M 7.789062 -17.085938 L 11.992188 -17.085938 C 16.96875 -17.085938 19.515625 -14.984375 19.515625 -10.835938 C 19.515625 -6.691406 16.96875 -4.414062 11.992188 -4.414062 L 7.789062 -4.414062 Z M 7.789062 -17.085938 "/></g></g></g><g fill="#d9d9d9" fill-opacity="1"><g transform="translate(267.18936, 302.961697)"><g><path d="M 2.398438 -21.496094 L 2.398438 0 L 21.496094 0 L 21.496094 -4.414062 L 7.789062 -4.414062 L 7.789062 -9.089844 L 19.988281 -9.089844 L 19.988281 -13.503906 L 7.789062 -13.503906 L 7.789062 -17.085938 L 21.496094 -17.085938 L 21.496094 -21.496094 Z M 2.398438 -21.496094 "/></g></g></g><g fill="#d9d9d9" fill-opacity="1"><g transform="translate(291.760782, 302.961697)"><g><path d="M 2.398438 -21.496094 L 2.398438 0 L 7.582031 0 L 7.582031 -15.308594 L 18.417969 0 L 24.960938 0 L 24.960938 -21.496094 L 19.78125 -21.496094 L 19.78125 -6.335938 L 9.03125 -21.496094 Z M 2.398438 -21.496094 "/></g></g></g></svg>