<svg id="svg2985" style="enable-background:new 0 0 564.5 366.9" version="1.1" viewBox="0 0 564.5 366.9" xml:space="preserve" xmlns="http://www.w3.org/2000/svg"><style>.st0{fill:#f79f1a}</style><g id="g3125" transform="translate(-67.026 -37.712) scale(1.21528)"><g id="g3115"><g id="g3110"><path class="st0" d="M519.7 182.2c0 79.5-64.3 143.9-143.6 143.9s-143.6-64.4-143.6-143.9S296.7 38.3 376 38.3s143.7 64.4 143.7 143.9z" id="path2997"/><path d="M342.4 182.2c0 79.5-64.3 143.9-143.6 143.9S55.2 261.7 55.2 182.2 119.5 38.3 198.8 38.3s143.6 64.4 143.6 143.9z" id="path2995" style="fill:#ea001b"/><path d="M287.4 68.9c-33.5 26.3-55 67.3-55 113.3s21.5 87 55 113.3c33.5-26.3 55-67.3 55-113.3s-21.5-86.9-55-113.3z" id="path2999" style="fill:#ff5f01"/></g><g id="g3043" transform="matrix(1.27042 0 0 1.27042 507.53 240.703)"><g id="text3045"><path class="st0" d="M9.3 14.1v-4h-1l-1.2 2.8L5.9 10H4.8v4h.7v-3l1.1 2.6h.8L8.6 11v3.1h.7zm-6.7 0v-3.4H4V10H.6v.7H2v3.4h.6z" id="path3057"/></g></g></g></g></svg>