<svg xmlns="http://www.w3.org/2000/svg" width="1080" viewBox="0 0 810 810" height="1080" version="1.0"><defs><clipPath id="a"><path d="M10.52 23.012H798v786.75H10.52zm0 0"/></clipPath></defs><g clip-path="url(#a)"><path fill="#f2e6dc" d="M797.336 416.387c0 217.195-176.129 393.265-393.399 393.265-217.269 0-393.402-176.07-393.402-393.265 0-217.192 176.133-393.262 393.402-393.262 217.27 0 393.399 176.07 393.399 393.262"/></g><path fill="#f7f1eb" d="m462.117 534.617-328.316 4.856-6.965-471.368 328.312-4.851 6.97 471.363"/><path fill="#f2e6dc" d="m362.906 105.863-141.27 2.09-.308-20.836 141.27-2.09.308 20.836M291.129 153.902l-133.418 1.973-.238-15.996 133.418-1.973.238 15.996M254.926 183.527l-95.922 1.414-.234-15.988 95.917-1.422.239 15.996M292.43 212.504l-133.422 1.969-.235-15.996 133.418-1.97.239 15.997M269.816 241.926l-110.375 1.633-.238-15.996 110.375-1.63.238 15.993M293.3 271.547l-133.417 1.969-.238-15.993 133.421-1.972.235 15.996M249.96 301.281l-88.784 1.309-.238-15.992 88.785-1.309.238 15.992M294.602 330.152l-133.422 1.965-.239-15.992 133.422-1.969.239 15.996M283.746 359.402l-122.137 1.805-.234-15.992 122.133-1.805.238 15.992M264.063 389.219l-102.45 1.511-.234-15.992 102.45-1.515.233 15.996M280.344 418.07l-117.434 1.735-.238-15.993 117.437-1.738.235 15.996M296.332 447.363l-133.418 1.969-.238-15.992 133.422-1.969.234 15.992M267.188 476.887l-103.844 1.531-.239-15.988 103.848-1.535.235 15.992M297.195 505.54l-133.422 1.972-.238-15.996 133.422-1.973.238 15.996M338.484 153.484l-28.37.422-.231-15.992 28.367-.422.234 15.992M339.094 182.574l-28.367.418-.239-15.992 28.371-.418.235 15.992M339.441 212.094l-28.37.418-.235-15.992 28.375-.418.23 15.992M339.875 241.184l-28.375.418-.234-15.993 28.37-.418.239 15.993M340.316 271.14l-28.37.419-.235-15.993 28.371-.421.234 15.996M340.926 300.223l-28.367.422-.235-15.993 28.367-.422.235 15.993M341.273 329.75l-28.37.418-.235-15.992 28.367-.418.238 15.992M341.703 358.836l-28.371.418-.234-15.992 28.367-.422.238 15.996M342.05 388.352l-28.374.421-.23-15.992 28.366-.422.239 15.993M342.66 417.438l-28.367.421-.238-15.992 28.37-.422.235 15.993M343.008 446.96l-28.371.419-.239-15.992 28.375-.418.235 15.992M343.438 476.047l-28.372.422-.238-15.992 28.375-.422.235 15.992M343.867 505.137l-28.37.422-.235-15.993 28.37-.421.235 15.992M386.3 152.777l-32.597.48-.238-15.991 32.598-.48.238 15.991M386.941 181.867l-32.593.48-.239-15.992 32.598-.484.234 15.996M387.273 211.387l-32.597.484-.238-15.992 32.597-.484.238 15.992M387.703 240.473l-32.598.484-.23-15.992 32.59-.48.238 15.988M388.145 270.434l-32.594.48-.238-15.992 32.593-.48.239 15.992M388.785 299.516l-32.594.484-.238-15.992 32.598-.48.234 15.988M389.117 329.04l-32.597.483-.235-15.992 32.594-.484.238 15.992M389.547 358.129l-32.594.48-.238-15.992 32.594-.48.238 15.992M389.879 387.648l-32.594.48-.238-15.991 32.594-.48.238 15.991M390.52 416.734l-32.594.48-.238-15.991 32.593-.485.239 15.996M390.848 446.254l-32.594.48-.234-15.992 32.593-.48.235 15.992M391.277 475.344l-32.593.48-.235-15.992 32.594-.48.234 15.992M391.707 504.434l-32.594.48-.234-15.992 32.594-.48.234 15.992M432.309 152.102l-33.801.496-.235-15.989 33.801-.504.235 15.997M432.957 181.184l-33.805.504-.234-15.997 33.8-.496.239 15.989M433.29 210.71l-33.806.497-.238-15.992 33.805-.5.238 15.996M433.715 239.797l-33.8.496-.24-15.988 33.805-.5.235 15.992M434.156 269.754l-33.8.5-.235-15.992 33.8-.504.235 15.996M434.809 298.84l-33.805.496-.234-15.992 33.8-.496.239 15.992M435.133 328.363l-33.801.496-.238-15.992 33.804-.496.235 15.992M435.563 357.45l-33.801.5-.239-15.993 33.805-.5.235 15.992M435.89 386.965l-33.804.504-.234-15.992 33.8-.504.239 15.992M436.54 416.05l-33.802.5-.238-15.991 33.805-.504.234 15.996M436.867 445.574l-33.805.5-.234-15.992 33.8-.5.24 15.992M437.297 474.66l-33.805.504-.234-15.996 33.8-.5.239 15.992M437.727 503.75l-33.805.5-.235-15.992 33.801-.5.239 15.992"/><path fill="#84524d" d="m464.875 519.707 318.727 4.05 12.632-247.378c1.375-26.957-8.101-52.672-26.683-72.418-18.852-20.031-44.461-31.211-72.11-31.484l-149.195-1.485c-26.398-.262-50.926 10-69.137 28.883-17.949 18.61-27.168 43.027-25.968 68.734zm319.625 5.961h-.012l-320.527-4.082a.937.937 0 0 1-.934-.899l-11.78-251.984c-1.224-26.242 8.187-51.148 26.503-70.14 18.57-19.27 43.617-29.739 70.516-29.461l149.195 1.48c28.168.273 54.258 11.672 73.469 32.078 18.945 20.13 28.601 46.336 27.199 73.817l-12.684 248.289a.948.948 0 0 1-.945.902"/><path fill="#d3bba3" d="m444.047 521.285 320.531 4.086 12.707-250.715c2.895-57.215-42.422-105.34-99.726-105.906l-149.196-1.484c-54.683-.543-98.59 44.968-96.066 99.578l11.75 254.441"/><path fill="#f2e6dc" d="m547.84 282.426 130.992 1 6.305-57.574-143.969-1.426 6.672 58"/><path fill="#363e44" d="m617.11 283.11-7.024-22.247-6.102 22.117 13.125.13M611.621 244.176h-.016a.943.943 0 0 1-.933-.953l.172-17.203c.004-.524.426-.965.953-.938a.951.951 0 0 1 .941.961l-.172 17.195a.947.947 0 0 1-.945.938M600.813 238.637h-.012a.951.951 0 0 1-.942-.961l.121-11.762c0-.523.426-.941.946-.941h.008a.944.944 0 0 1 .937.957l-.117 11.77a.944.944 0 0 1-.942.937M590.797 243.969h-.012a.951.951 0 0 1-.941-.961l.172-17.196a.95.95 0 0 1 .945-.937h.012a.945.945 0 0 1 .941.957l-.176 17.2a.944.944 0 0 1-.941.937M580.887 238.438h-.008a.95.95 0 0 1-.942-.958l.118-11.765c.008-.524.406-.965.957-.938a.94.94 0 0 1 .937.957l-.113 11.77a.947.947 0 0 1-.95.934M570.883 242.867h-.012a.944.944 0 0 1-.937-.957l.16-16.293a.953.953 0 0 1 .957-.941.955.955 0 0 1 .937.96l-.164 16.294a.946.946 0 0 1-.941.937M560.953 239.148h-.008a.944.944 0 0 1-.937-.957l.125-12.671a.95.95 0 0 1 .949-.938h.008a.948.948 0 0 1 .941.957l-.125 12.672a.951.951 0 0 1-.953.937M662.383 239.242h-.016a.952.952 0 0 1-.937-.957l.117-11.762a.955.955 0 0 1 .953-.941h.008a.936.936 0 0 1 .933.957l-.109 11.766a.948.948 0 0 1-.95.937M672.297 243.871h-.012a.951.951 0 0 1-.941-.96l.176-17.196a.951.951 0 0 1 .949-.942h.011a.95.95 0 0 1 .934.961l-.172 17.2a.95.95 0 0 1-.945.937M550.055 242.66h-.008a.954.954 0 0 1-.942-.96l.176-17.2a.944.944 0 0 1 .95-.934h.007a.947.947 0 0 1 .938.957L551 241.72a.943.943 0 0 1-.945.941M652.363 244.578h-.011a.943.943 0 0 1-.934-.953l.168-17.2c.004-.523.406-.933.957-.937a.944.944 0 0 1 .937.957l-.171 17.196c0 .523-.43.937-.946.937M642.46 239.05h-.01a.944.944 0 0 1-.934-.956l.113-11.77c.004-.523.45-.965.957-.937a.944.944 0 0 1 .937.957l-.113 11.77a.953.953 0 0 1-.95.937M632.453 243.473h-.008a.939.939 0 0 1-.937-.953l.164-16.293a.942.942 0 0 1 .945-.938h.008a.95.95 0 0 1 .941.953l-.164 16.297a.947.947 0 0 1-.949.934M622.531 238.855h-.004a.944.944 0 0 1-.937-.957l.117-11.765a.945.945 0 0 1 .945-.942h.008a.95.95 0 0 1 .942.957l-.118 11.77a.951.951 0 0 1-.953.937"/><path fill="#e6d0be" d="m611.848 501.184 123.027 1.218L736.77 311.5l-123.024-1.223zm123.968 3.125h-.007l-124.93-1.247a.922.922 0 0 1-.664-.28.939.939 0 0 1-.274-.673l1.918-192.8c.004-.516.453-.961.957-.934l124.922 1.238c.25.008.492.102.668.285.176.18.274.422.27.672l-1.918 192.793a.943.943 0 0 1-.942.946M468.75 499.758l123.031 1.226 1.89-190.898-123.026-1.227zm123.965 3.129h-.004l-124.93-1.239a.945.945 0 0 1-.933-.96l1.914-192.793a.937.937 0 0 1 .281-.665c.184-.18.465-.265.668-.273l124.926 1.238c.527.008.949.434.941.957l-1.914 192.797a.915.915 0 0 1-.281.664.936.936 0 0 1-.668.274"/><path fill="#e0aa63" d="M238.063 634.555a.94.94 0 0 1-.668-.274c-3.711-3.683-7.422-7.363-11.133-11.039-40.418-40.05-82.211-81.465-115.774-125.922-37.687-49.918-60.754-98.453-70.52-148.37a.946.946 0 0 1 .747-1.114.945.945 0 0 1 1.113.746C63.48 459.266 146.91 541.942 227.594 621.895c3.715 3.68 7.43 7.359 11.136 11.043a.949.949 0 0 1 .004 1.34.953.953 0 0 1-.672.277"/><path fill="#e0aa63" d="M148.387 500.383c13.25 11.582 19.234 24.18.605 41.195-17.297-11.203-13.554-25.52-.605-41.195"/><path fill="#efbc73" d="M139.012 515.387c.48 5.972 4.02 11.496 11.613 16.418 5.016-4.582 8.234-8.84 10.02-12.848-.82-6.73-5.63-12.773-12.258-18.574-4.274 5.172-7.535 10.195-9.375 15.004"/><path fill="#e0aa63" d="M129.914 474.988c12.23 12.653 17.14 25.703-2.851 41.098-16.297-12.613-11.368-26.563 2.851-41.098"/><path fill="#efbc73" d="M119.313 489.152c-.02 5.993 3.042 11.79 10.199 17.332 5.383-4.144 8.945-8.117 11.062-11.957-.254-6.78-4.543-13.21-10.66-19.539-4.691 4.79-8.36 9.524-10.601 14.164"/><path fill="#e0aa63" d="M114.871 451.605c11.11 13.649 14.89 27.075-6.34 40.715-15.164-13.957-9.062-27.437 6.34-40.715"/><path fill="#efbc73" d="M103.102 464.824c-.528 5.965 2.027 12.004 8.687 18.137 5.715-3.676 9.602-7.328 12.04-10.977.323-6.777-3.4-13.55-8.958-20.379-5.082 4.38-9.14 8.782-11.77 13.22"/><path fill="#e0aa63" d="M100.91 428.262c10.078 14.43 12.86 28.093-9.312 40.14-14.098-15.03-7.024-28.027 9.312-40.14"/><path fill="#efbc73" d="M88.203 440.582c-.965 5.914 1.14 12.117 7.332 18.723 5.969-3.243 10.113-6.606 12.813-10.063.82-6.73-2.395-13.758-7.438-20.98-5.39 3.996-9.762 8.09-12.707 12.32"/><path fill="#e0aa63" d="M94.418 401.965c5.445 16.73 4.129 30.617-20.59 35.691-9.113-18.484 1.438-28.863 20.59-35.691"/><path fill="#efbc73" d="M78.68 410.047c-2.649 5.379-2.442 11.933 1.562 20.047 6.653-1.364 11.598-3.375 15.188-5.899 2.746-6.199 1.715-13.86-1.012-22.23-6.316 2.25-11.691 4.894-15.738 8.082"/><path fill="#e0aa63" d="M82.18 374.656c4.797 16.934 2.949 30.754-21.946 34.871-8.394-18.812 2.543-28.777 21.946-34.87"/><path fill="#efbc73" d="M66.145 382.133c-2.852 5.27-2.903 11.828.789 20.094 6.699-1.114 11.718-2.93 15.402-5.317 2.98-6.09 2.246-13.785-.156-22.254-6.399 2.008-11.871 4.442-16.035 7.477"/><path fill="#e0aa63" d="M74.395 344.785c2.898 17.356-.465 30.887-25.665 32.238-6.265-19.628 5.711-28.324 25.665-32.238"/><path fill="#efbc73" d="M57.629 350.445c-3.418 4.926-4.184 11.438-1.434 20.059 6.785-.367 11.973-1.621 15.895-3.586 3.637-5.727 3.754-13.45 2.305-22.133-6.582 1.29-12.29 3.106-16.766 5.66"/><path fill="#e0aa63" d="M11.875 362.531c5.863 16.594 13.46 26.153 36.168 15.145-4.016-20.207-18.39-21.617-36.168-15.145"/><path fill="#efbc73" d="M28.418 359.031c5.371 2.66 9.195 7.985 10.96 16.864-6.112 2.96-11.26 4.375-15.644 4.55-5.953-3.25-8.922-9.61-11.859-17.914 6.387-2.05 11.39-3.566 16.543-3.5"/><path fill="#e0aa63" d="M19.316 400.117c8.91 15.176 20.172 23.406 40.375 8.29-7.785-19.079-22.55-18.075-40.375-8.29"/><path fill="#efbc73" d="M35.813 393.71c5.78 1.595 10.546 6.099 13.964 14.474-5.437 4.07-10.222 6.433-14.496 7.437-6.46-2.058-11.508-7.91-15.965-15.504 5.88-3.23 11.426-5.492 16.497-6.406"/><path fill="#e0aa63" d="M32.98 429.793c8.907 15.184 20.168 23.41 40.372 8.293-7.782-19.082-22.551-18.078-40.372-8.293"/><path fill="#efbc73" d="M49.477 423.395c5.78 1.59 10.546 6.09 13.964 14.468-5.437 4.075-10.226 6.438-14.496 7.442-6.46-2.063-11.508-7.918-15.965-15.512 5.88-3.227 11.422-5.488 16.497-6.398"/><path fill="#e0aa63" d="M49.773 463.309c10.297 14.273 22.282 21.414 40.977 4.464-9.54-18.261-24.148-15.878-40.977-4.464"/><path fill="#efbc73" d="M65.598 455.387c5.906 1.043 11.07 5.078 15.261 13.101-5.03 4.559-9.574 7.364-13.73 8.762-6.629-1.441-12.203-6.797-17.356-13.941 5.551-3.766 10.86-6.536 15.825-7.922"/><path fill="#e0aa63" d="M66.59 486.867c10.297 14.274 22.281 21.41 40.972 4.469-9.535-18.266-24.144-15.883-40.972-4.469"/><path fill="#efbc73" d="M82.414 478.945c5.902 1.04 11.07 5.075 15.262 13.102-5.035 4.558-9.574 7.36-13.735 8.762-6.625-1.446-12.199-6.797-17.351-13.942 5.55-3.765 10.86-6.539 15.824-7.922"/><path fill="#e0aa63" d="M86.031 513.625c11.586 13.25 24.188 19.238 41.215.617-11.207-17.293-25.527-13.554-41.215-.617"/><path fill="#efbc73" d="M101.043 504.258c5.977.484 11.5 4.02 16.422 11.613-4.582 5.012-8.844 8.234-12.852 10.016-6.734-.82-12.785-5.63-18.582-12.262 5.176-4.27 10.2-7.523 15.012-9.367"/><path fill="#e0aa63" d="M107.633 540.375c11.59 13.25 24.187 19.238 41.215.621-11.207-17.297-25.528-13.558-41.215-.621"/><path fill="#efbc73" d="M122.648 531.012c5.977.484 11.5 4.015 16.418 11.613-4.582 5.016-8.843 8.23-12.851 10.012-6.73-.82-12.781-5.63-18.582-12.262 5.176-4.266 10.199-7.527 15.015-9.363"/><path fill="#e0aa63" d="M27.762 318.98c16.433 6.313 26.394 16.079 14.765 38.465-20.097-4.562-21.515-19.289-14.765-38.465"/><path fill="#efbc73" d="M24.133 336.297c2.512 5.441 7.734 9.406 16.562 11.41 3.13-6.027 4.684-11.133 4.977-15.508-3.086-6.039-9.688-10.058-17.91-13.219-2.227 6.325-3.555 12.165-3.63 17.317"/><path fill="#e0aa63" d="M221.234 681.027a.932.932 0 0 1-.543-.172c-3.312-2.335-6.629-4.664-9.945-6.996C138.453 623.055 63.7 570.523 32.574 488.223a.945.945 0 0 1 .555-1.22.942.942 0 0 1 1.219.552c30.918 81.754 105.43 134.117 177.488 184.754 3.316 2.332 6.637 4.66 9.945 6.992.43.304.531.894.23 1.328a.963.963 0 0 1-.777.398"/><path fill="#e0aa63" d="M103.39 556.914c10.27 8.996 14.903 18.77.442 31.953-13.406-8.703-10.496-19.8-.441-31.953"/><path fill="#efbc73" d="M96.11 568.55c.37 4.63 3.109 8.919 8.995 12.74 3.895-3.552 6.391-6.852 7.778-9.962-.63-5.215-4.356-9.914-9.492-14.414-3.317 4.012-5.848 7.906-7.282 11.637"/><path fill="#e0aa63" d="M89.68 540.879c9.582 9.723 13.484 19.808-1.903 31.898-12.73-9.66-9.011-20.52 1.903-31.898"/><path fill="#efbc73" d="M81.566 551.945c.032 4.649 2.446 9.125 8.04 13.367 4.14-3.253 6.874-6.359 8.484-9.363-.242-5.25-3.617-10.207-8.41-15.07-3.602 3.758-6.41 7.453-8.114 11.066"/><path fill="#e0aa63" d="M81.3 521.613c6.337 12.086 7.134 22.875-11.109 29.961-9.367-12.941-2.648-22.25 11.11-29.96"/><path fill="#efbc73" d="M70.316 529.84c-1.324 4.453-.316 9.441 3.801 15.125 4.906-1.906 8.43-4.086 10.844-6.485 1.293-5.097-.488-10.82-3.66-16.867-4.54 2.543-8.305 5.262-10.985 8.227"/><path fill="#e0aa63" d="M68.395 502.32c5.867 12.328 6.25 23.137-12.25 29.52-8.868-13.297-1.793-22.34 12.25-29.52"/><path fill="#efbc73" d="M57.102 510.121c-1.497 4.402-.68 9.422 3.214 15.266 4.98-1.723 8.582-3.762 11.086-6.067 1.489-5.047-.074-10.832-3.007-17-4.633 2.371-8.5 4.946-11.293 7.801"/><path fill="#e0aa63" d="M58.555 480.492c4.472 12.895 3.664 23.684-15.43 27.985-7.344-14.192.684-22.399 15.43-27.985"/><path fill="#efbc73" d="M46.473 487c-1.973 4.207-1.715 9.285 1.511 15.52 5.141-1.157 8.946-2.79 11.688-4.801 2.035-4.848 1.125-10.774-1.117-17.227-4.864 1.844-8.989 3.977-12.082 6.508"/><path fill="#e0aa63" d="M11.523 501.922c6.641 11.926 15.227 18.508 31.16 7.144-5.699-14.933-17.163-14.418-31.16-7.144"/><path fill="#efbc73" d="M24.426 497.25c4.457 1.336 8.07 4.914 10.574 11.469-4.29 3.062-8.043 4.808-11.371 5.511-4.973-1.707-8.781-6.34-12.106-12.308 4.618-2.399 8.957-4.055 12.903-4.672"/><path fill="#e0aa63" d="M23.637 529.953c8.785 10.45 18.465 15.281 31.945 1.098-8.43-13.578-19.59-10.89-31.945-1.098"/><path fill="#efbc73" d="M35.418 522.918c4.625.465 8.855 3.289 12.559 9.25-3.633 3.82-6.985 6.25-10.118 7.57-5.207-.738-9.828-4.558-14.222-9.785 4.074-3.23 8.02-5.68 11.781-7.035"/><path fill="#e0aa63" d="M37.938 550.871c8.785 10.45 18.464 15.277 31.949 1.102-8.43-13.582-19.59-10.899-31.95-1.102"/><path fill="#efbc73" d="M49.723 543.836c4.625.465 8.855 3.289 12.554 9.254-3.625 3.816-6.98 6.242-10.113 7.57-5.21-.738-9.828-4.558-14.227-9.785 4.075-3.23 8.02-5.688 11.786-7.04"/><path fill="#e0aa63" d="M55.137 574.316c9.726 9.579 19.816 13.477 31.91-1.902-9.668-12.726-20.527-9.012-31.91 1.902"/><path fill="#efbc73" d="M66.207 566.207c4.648.027 9.125 2.441 13.371 8.031-3.258 4.145-6.363 6.875-9.363 8.485-5.254-.243-10.211-3.614-15.078-8.407 3.754-3.597 7.453-6.41 11.07-8.109"/><path fill="#e0aa63" d="M71.055 590.148c9.726 9.575 19.82 13.477 31.91-1.906-9.668-12.726-20.528-9.008-31.91 1.906"/><path fill="#efbc73" d="M82.125 582.035c4.648.028 9.125 2.442 13.371 8.035-3.254 4.137-6.363 6.871-9.36 8.485-5.257-.246-10.214-3.617-15.081-8.407 3.757-3.605 7.453-6.41 11.07-8.113"/><path fill="#e0aa63" d="M19.547 466.82c13.387 2.696 22.27 8.868 16.289 27.493-15.961-.88-18.961-11.958-16.29-27.493"/><path fill="#efbc73" d="M19.023 480.531c2.625 3.832 7.137 6.188 14.145 6.574 1.61-5.015 2.137-9.117 1.793-12.503-3.145-4.215-8.715-6.438-15.414-7.782-.879 5.125-1.137 9.762-.524 13.711"/><path fill="#e0aa63" d="M263.012 661.668a.946.946 0 0 1-.844-.516c-2.32-4.496-4.648-8.988-6.977-13.48-25.351-48.942-51.562-99.55-69.289-150.52-19.898-57.226-26.73-108.84-20.882-157.773a.944.944 0 0 1 1.054-.828c.516.062.89.535.828 1.054-12.96 108.473 39.368 209.497 89.973 307.192 2.328 4.496 4.656 8.992 6.98 13.488a.95.95 0 0 1-.843 1.383"/><path fill="#e0aa63" d="M219.96 511.23c8.774 14.625 10.544 28.016-11.694 38.168-12.614-15.476-4.903-27.562 11.695-38.168"/><path fill="#efbc73" d="M206.855 522.281c-1.332 5.649.286 11.79 5.825 18.59 5.988-2.734 10.218-5.703 13.058-8.867 1.246-6.45-1.39-13.457-5.777-20.774-5.477 3.5-9.977 7.16-13.106 11.051"/><path fill="#e0aa63" d="M210.484 482.324c7.516 15.305 8.157 28.797-14.855 37.047-11.27-16.473-2.574-27.871 14.855-37.047"/><path fill="#efbc73" d="M196.5 492.234c-1.8 5.52-.707 11.778 4.246 19.016 6.191-2.223 10.66-4.828 13.754-7.742 1.785-6.324-.254-13.528-4.016-21.184-5.75 3.024-10.539 6.301-13.984 9.91"/><path fill="#e0aa63" d="M203.57 456.3c6.184 15.884 5.676 29.384-17.957 35.65-9.828-17.376-.191-27.993 17.957-35.65"/><path fill="#efbc73" d="M188.79 464.984c-2.263 5.344-1.704 11.668 2.612 19.305 6.364-1.687 11.036-3.906 14.364-6.543 2.316-6.144.898-13.5-2.196-21.445-5.988 2.523-11.039 5.375-14.78 8.683"/><path fill="#e0aa63" d="M197.64 430.625c5 16.3 3.505 29.727-20.523 34.238-8.527-18.047 1.863-27.925 20.524-34.238"/><path fill="#efbc73" d="M182.266 438.207c-2.653 5.164-2.559 11.512 1.187 19.441 6.465-1.214 11.29-3.082 14.805-5.472 2.758-5.961 1.887-13.395-.617-21.551-6.157 2.082-11.403 4.559-15.375 7.582"/><path fill="#e0aa63" d="M199.48 404.45c.04 17.042-5.3 29.456-29.601 26.784-2.902-19.75 9.91-26.18 29.601-26.785"/><path fill="#efbc73" d="M182.566 407.227c-4.043 4.168-5.8 10.27-4.527 18.945 6.543.723 11.7.34 15.758-.926 4.379-4.898 5.703-12.266 5.683-20.797-6.496.196-12.234 1.04-16.914 2.778"/><path fill="#e0aa63" d="M196.32 375.637c-.613 17.035-6.43 29.23-30.61 25.625-2.144-19.84 10.911-25.778 30.61-25.625"/><path fill="#efbc73" d="M179.309 377.758c-4.196 4.015-6.188 10.043-5.25 18.762 6.511.972 11.68.785 15.785-.325 4.558-4.726 6.168-12.035 6.476-20.558-6.5-.055-12.265.566-17.011 2.12"/><path fill="#e0aa63" d="M198.027 345.777c-2.488 16.864-9.617 28.344-33.25 22.098.059-19.957 13.688-24.418 33.25-22.098"/><path fill="#efbc73" d="M180.887 346.016c-4.617 3.523-7.262 9.296-7.29 18.066 6.364 1.68 11.52 2.066 15.723 1.418 5.055-4.195 7.461-11.285 8.707-19.723-6.453-.765-12.254-.789-17.14.239"/><path fill="#e0aa63" d="M133.555 342.383c.468 17.039 6.183 29.285 30.39 25.89 2.309-19.828-10.691-25.875-30.39-25.89"/><path fill="#efbc73" d="M150.547 344.652c4.164 4.047 6.105 10.094 5.09 18.801-6.516.918-11.684.692-15.778-.45-4.523-4.765-6.07-12.093-6.304-20.62 6.496.008 12.261.672 16.992 2.27"/><path fill="#e0aa63" d="M130.79 380.418c3.698 16.644 11.632 27.582 34.757 19.644-1.5-19.902-15.414-23.367-34.758-19.644"/><path fill="#efbc73" d="M147.902 379.422c4.856 3.183 7.91 8.75 8.57 17.492-6.222 2.137-11.34 2.895-15.577 2.55-5.344-3.82-8.254-10.714-10.106-19.046 6.379-1.23 12.164-1.668 17.113-.996"/><path fill="#e0aa63" d="M134.555 411.844c3.699 16.644 11.636 27.582 34.757 19.648-1.5-19.906-15.41-23.367-34.757-19.648"/><path fill="#efbc73" d="M151.668 410.848c4.86 3.183 7.914 8.75 8.574 17.492-6.226 2.137-11.344 2.894-15.578 2.55-5.344-3.82-8.258-10.714-10.11-19.046 6.383-1.227 12.169-1.664 17.114-.996"/><path fill="#e0aa63" d="M140.07 447.738c5.25 16.219 14.172 26.364 36.45 16.297-3.36-19.672-17.54-21.82-36.45-16.297"/><path fill="#efbc73" d="M157.02 445.137c5.132 2.718 8.695 7.972 10.171 16.617-5.996 2.707-11.02 3.941-15.27 3.996-5.675-3.3-9.222-9.898-11.85-18.012 6.238-1.824 11.956-2.8 16.949-2.601"/><path fill="#e0aa63" d="M148.57 474.453c5.243 16.227 14.172 26.367 36.446 16.305-3.36-19.68-17.54-21.82-36.446-16.305"/><path fill="#efbc73" d="M165.512 471.855c5.136 2.715 8.699 7.973 10.175 16.614-5.996 2.71-11.019 3.945-15.269 4-5.68-3.305-9.223-9.899-11.848-18.016 6.235-1.816 11.953-2.797 16.942-2.598"/><path fill="#e0aa63" d="M158.531 504.91c6.742 15.656 16.582 24.918 37.817 12.817-5.188-19.278-19.504-20.086-37.817-12.817"/><path fill="#efbc73" d="M175.16 500.734c5.367 2.223 9.406 7.125 11.688 15.59-5.72 3.258-10.602 4.957-14.828 5.41-5.965-2.757-10.114-8.988-13.489-16.824 6.043-2.398 11.645-3.914 16.63-4.176"/><path fill="#e0aa63" d="M170.492 535.992c6.742 15.66 16.578 24.922 37.813 12.82-5.188-19.277-19.504-20.09-37.813-12.82"/><path fill="#efbc73" d="M187.121 531.82c5.363 2.22 9.406 7.125 11.684 15.586-5.715 3.262-10.602 4.961-14.828 5.41-5.961-2.754-10.11-8.988-13.485-16.824 6.04-2.394 11.645-3.906 16.63-4.172"/><path fill="#e0aa63" d="M162.71 308.125c13.27 10.707 19.548 22.672 2.169 39.855-17.172-10.18-14.102-24.183-2.168-39.855"/><path fill="#efbc73" d="M154.21 323.012c.7 5.761 4.333 10.972 11.876 15.445 4.68-4.629 7.629-8.871 9.207-12.82-1.055-6.48-5.941-12.157-12.582-17.512-3.938 5.172-6.899 10.156-8.5 14.887"/><path fill="#b77250" d="M308.965 348.57h-56.547l-9.23-81.78h75.011l-9.234 81.78"/><path fill="#363e44" d="M194.45 662.137h176.14l18.312-157.989-60.996-55.046a.908.908 0 0 1-.312-.637l-9.172-136.227h-89.606l15.61 30.524c.078.152.113.32.101.492l-7.082 105.21a.957.957 0 0 1-.312.638l-60.996 55.046zm176.984 1.894H193.602a.947.947 0 0 1-.942-.836l-18.465-159.312a.943.943 0 0 1 .309-.813l61.074-55.117 7.043-104.566-16.2-31.668a.945.945 0 0 1 .036-.922.94.94 0 0 1 .809-.457h92.039c.5 0 .914.387.945.887l9.21 136.726 61.075 55.117a.95.95 0 0 1 .305.813l-18.465 159.312a.947.947 0 0 1-.941.836"/><path fill="#363e44" d="M327.86 439.727a.95.95 0 0 1-.407-1.805c21.98-10.465 38.606-21.965 49.41-34.176 11.258-12.71 16.2-26.055 15.125-40.793-.89-12.129-12.957-19.523-22.93-23.59-12.695-5.18-28.886-7.804-48.14-7.781a.95.95 0 0 1 0-1.898h.137c19.433 0 35.824 2.668 48.718 7.93 10.47 4.265 23.149 12.1 24.106 25.202 1.113 15.27-3.984 29.07-15.594 42.188-10.98 12.402-27.805 24.05-50.015 34.625a.905.905 0 0 1-.41.098"/><path fill="#363e44" d="M337.402 456.414a.951.951 0 0 1-.855-.531.951.951 0 0 1 .441-1.27c23.79-11.492 42.055-24.316 54.278-38.125 14.66-16.566 21.355-35.047 19.898-54.941-1.25-17.133-13.625-31.328-34.844-39.98-15.425-6.294-35.21-9.544-57.25-9.391h-.004a.944.944 0 1 1-.008-1.89c22.258-.157 42.32 3.14 57.981 9.526 21.918 8.938 34.711 23.708 36.016 41.594 1.5 20.426-5.356 39.375-20.368 56.336-12.394 13.996-30.855 26.98-54.878 38.578a.936.936 0 0 1-.407.094"/><path fill="#9e9569" d="M316.574 431.262h-68.113l-2.23 31.308-54.852 48.848 15.672 135.21h150.933l15.672-135.21-54.847-48.848-2.235-31.308"/><path fill="#fff" d="m240.277 509.191 6.317 58.633 17.144-.906 4.516-57.727h-27.977M246.496 574.34l2.004 18.84 13.234-1.203 1.204-18.641-16.442 1.004"/><path fill="#8b865c" d="M455.324 437.766s12.121-14.852 31.223-21.871c19.11-7.016 37.965-3.54 37.965-3.54s-12.121 14.856-31.227 21.872c-19.105 7.015-37.96 3.539-37.96 3.539"/><path fill="#776e42" d="m455.438 437.633-.114.133s18.856 3.476 37.961-3.54c19.106-7.015 31.227-21.87 31.227-21.87s-.067-.012-.172-.028l-68.903 25.305"/><path fill="#8b865c" d="M435.184 464.297s15.562-11.192 35.832-13.004c20.273-1.809 37.582 6.445 37.582 6.445s-15.567 11.2-35.844 13.004c-20.27 1.817-37.57-6.445-37.57-6.445"/><path fill="#776e42" d="M435.324 464.2c-.094.062-.14.097-.14.097s17.3 8.262 37.57 6.445c20.277-1.805 35.844-13.004 35.844-13.004s-.063-.027-.16-.074l-73.114 6.535"/><path fill="#8b865c" d="M446.508 451.57s-15.524-11.254-23.613-29.922c-8.094-18.668-5.684-37.687-5.684-37.687s15.52 11.254 23.61 29.922 5.687 37.687 5.687 37.687"/><path fill="#776e42" d="M446.367 451.469c.082.062.14.101.14.101s2.403-19.02-5.687-37.683c-8.09-18.672-23.617-29.926-23.617-29.926s0 .07-.015.172l29.18 67.336"/><path fill="#363e44" d="M383.605 562.766a.94.94 0 0 1-.867-.575c-10.988-25.351-12.234-45.539-3.715-60.004 5.895-9.992 14.61-14.082 24.696-18.82 6.84-3.215 14.59-6.855 22.64-12.933 18.88-14.254 32.344-36.883 40.02-67.258a.943.943 0 0 1 1.148-.688.949.949 0 0 1 .688 1.153c-7.785 30.804-21.48 53.785-40.715 68.308-8.207 6.196-16.05 9.88-22.973 13.133-10.21 4.793-18.273 8.578-23.867 18.07-8.2 13.907-6.918 33.52 3.813 58.286a.951.951 0 0 1-.489 1.25c-.125.05-.254.078-.379.078"/><path fill="#363e44" d="M467.293 404.355a.944.944 0 0 1-.371-.078.928.928 0 0 1-.527-.582l-9.778-30.453a.95.95 0 0 1 1.809-.582l9.445 29.43 34.469-16.34a.943.943 0 0 1 1.262.45.944.944 0 0 1-.45 1.26l-35.449 16.802a.928.928 0 0 1-.41.093"/><path fill="#363e44" d="M467.563 403.785a.945.945 0 0 1-.84-1.39l15.28-28.786a.948.948 0 0 1 1.676.89l-15.284 28.786a.945.945 0 0 1-.832.5M495.387 391.637c-3.45-6.215 1.578-15.594 11.226-20.946 9.649-5.355 20.266-4.652 23.719 1.567 3.45 6.215-1.578 15.594-11.223 20.941-9.648 5.352-20.27 4.653-23.722-1.562"/><path fill="#fff" d="M527.867 376.434c.473.34-1.484 5.14-5.207 9.003-7.719 8.016-19.469 8.297-19.644 7.692-.145-.492 7.308-1.313 15.433-7.563 5.965-4.586 8.914-9.488 9.418-9.132"/><path fill="#363e44" d="M478.41 380.324c-6.16-3.558-6.676-14.183-1.152-23.734 5.52-9.555 14.988-14.414 21.144-10.856 6.157 3.555 6.676 14.184 1.157 23.73-5.524 9.556-14.989 14.415-21.149 10.86"/><path fill="#fff" d="M498.434 350.586c.582.047 1.378 5.172.175 10.398-2.5 10.844-12.43 17.125-12.89 16.696-.375-.348 5.59-4.883 9.344-14.418 2.753-7 2.757-12.723 3.37-12.676"/><path fill="#9e9569" d="M462.871 386.113c-6.613 2.61-15.266-3.59-19.316-13.851-4.055-10.258-1.977-20.692 4.64-23.305 6.614-2.61 15.258 3.59 19.313 13.852 4.05 10.261 1.972 20.691-4.637 23.304"/><path fill="#fff" d="M452.02 351.95c.398-.427 4.906 2.136 8.253 6.331 6.942 8.688 5.692 20.371 5.07 20.465-.503.078-.355-7.41-5.491-16.281-3.77-6.508-8.254-10.063-7.832-10.516"/><path fill="#e0aa63" d="M595.664 714.426h-123V474.434c45.477-1.364 74.117.074 123.344 7.847 4.844.766 8.422 4.934 8.422 9.82v213.555a8.766 8.766 0 0 1-8.766 8.77"/><path fill="#efbc73" d="M480.531 713.824H326.145c-8.082 0-14.524-6.793-14.051-14.855 3.652-62.356 2.574-129.38-.965-199.047 0-14.531 11.777-26.309 26.316-26.309H474.07c11.309 0 20.477 9.164 20.477 20.469-3.36 74.797-4.082 144.316-.817 205.848.403 7.554-5.625 13.894-13.199 13.894"/><path fill="#e0aa63" d="M323.73 714.563c-.05 0-.109-.004-.164-.012a14.98 14.98 0 0 1-12.421-15.637c3.293-56.23 2.98-121.305-.961-198.945-.008-15.074 12.226-27.301 27.261-27.301H474.07c5.086 0 10.02 1.812 13.883 5.105a.95.95 0 0 1 .11 1.336.955.955 0 0 1-1.34.102c-3.52-3-8.02-4.649-12.653-4.649H337.445c-13.992 0-25.37 11.375-25.37 25.36 3.945 77.66 4.26 142.8.968 199.105-.395 6.653 4.273 12.524 10.848 13.657.52.086.863.578.773 1.093a.94.94 0 0 1-.934.785"/><path fill="#e0aa63" d="M342.793 602.133c0 2.094-.953 3.789-2.133 3.789-1.176 0-2.133-1.695-2.133-3.79 0-2.093.957-3.788 2.133-3.788 1.18 0 2.133 1.695 2.133 3.789M395.879 560.434c0 1.05-1.7 1.894-3.79 1.894-2.097 0-3.792-.844-3.792-1.894 0-1.043 1.695-1.895 3.793-1.895 2.09 0 3.789.852 3.789 1.895M405.36 598.578c0 1.961-.954 3.555-2.133 3.555-1.176 0-2.133-1.594-2.133-3.555 0-1.965.957-3.555 2.133-3.555 1.18 0 2.132 1.59 2.132 3.555M393.035 642.64c0 1.18-1.379 2.133-3.082 2.133-1.695 0-3.078-.953-3.078-2.132 0-1.176 1.383-2.13 3.078-2.13 1.703 0 3.082.954 3.082 2.13M453.707 680.074c0 2.489-1.594 4.5-3.555 4.5-1.964 0-3.554-2.011-3.554-4.5 0-2.484 1.59-4.504 3.554-4.504 1.961 0 3.555 2.02 3.555 4.504M470.297 637.668c0 1.57-1.383 2.844-3.082 2.844-1.703 0-3.082-1.274-3.082-2.844 0-1.57 1.379-2.844 3.082-2.844 1.7 0 3.082 1.274 3.082 2.844M364.598 677.941c0 1.047-1.274 1.895-2.844 1.895-1.567 0-2.848-.848-2.848-1.895 0-1.043 1.281-1.894 2.848-1.894 1.57 0 2.844.851 2.844 1.894M349.906 520.398c0 1.442-.957 2.606-2.133 2.606-1.18 0-2.132-1.164-2.132-2.606 0-1.441.953-2.605 2.132-2.605 1.176 0 2.133 1.164 2.133 2.605M389.246 498.367c0 1.309-1.172 2.367-2.605 2.367-1.442 0-2.61-1.058-2.61-2.367 0-1.308 1.168-2.367 2.61-2.367 1.433 0 2.605 1.059 2.605 2.367M442.332 509.027c0 1.965-1.062 3.555-2.371 3.555s-2.371-1.59-2.371-3.555c0-1.96 1.062-3.55 2.37-3.55 1.31 0 2.372 1.59 2.372 3.55M465.559 547.172c0 2.094-.637 3.789-1.426 3.789-.785 0-1.422-1.695-1.422-3.79 0-2.093.637-3.792 1.422-3.792.789 0 1.426 1.7 1.426 3.793M338.527 558.066c0 1.313-.742 2.368-1.656 2.368-.918 0-1.664-1.055-1.664-2.368 0-1.304.746-2.367 1.664-2.367.914 0 1.656 1.063 1.656 2.367M477.406 493.867c0 .914-.851 1.656-1.894 1.656-1.051 0-1.899-.742-1.899-1.656 0-.914.848-1.66 1.899-1.66 1.043 0 1.894.746 1.894 1.66M330.945 695c0 1.043-.636 1.895-1.422 1.895-.785 0-1.421-.852-1.421-1.895 0-1.05.636-1.898 1.421-1.898.786 0 1.422.847 1.422 1.898M399.672 692.867c0 1.703-1.063 3.078-2.367 3.078-1.309 0-2.371-1.375-2.371-3.078 0-1.703 1.062-3.082 2.37-3.082 1.305 0 2.368 1.38 2.368 3.082M479.777 706.371c0 1.305-1.382 2.367-3.086 2.367-1.695 0-3.078-1.062-3.078-2.367 0-1.312 1.383-2.371 3.078-2.371 1.704 0 3.086 1.059 3.086 2.371M476.457 582.941c0 1.18-1.062 2.133-2.371 2.133-1.305 0-2.367-.953-2.367-2.133 0-1.175 1.062-2.132 2.367-2.132 1.309 0 2.371.957 2.371 2.132M331.418 635.535a2.133 2.133 0 0 1-4.266 0 2.13 2.13 0 0 1 2.133-2.129c1.176 0 2.133.953 2.133 2.13M342.793 487.23c0 1.442-.953 2.61-2.133 2.61-1.176 0-2.133-1.168-2.133-2.61 0-1.437.957-2.605 2.133-2.605 1.18 0 2.133 1.168 2.133 2.605"/><path fill="#363e44" d="M554.96 656.055h152.692c14.79-21.102 22.922-47.817 22.922-75.293 0-23.254-5.703-45.746-16.48-65.043-13.875-24.828-19.903-54.598-16.973-83.824l7.93-78.95-169.028-5.293L555 425.414c7.938 32.55 4.457 67.594-9.543 96.145-8.777 17.898-13.418 38.367-13.418 59.203 0 27.476 8.133 54.191 22.922 75.293zm153.185 1.894h-153.68a.95.95 0 0 1-.774-.398c-15.183-21.48-23.55-48.75-23.55-76.79 0-21.12 4.707-41.882 13.617-60.034 13.808-28.16 17.23-62.735 9.398-94.868l-19.265-78.964c-.07-.29 0-.594.18-.825a.995.995 0 0 1 .769-.351l171.281 5.363a.929.929 0 0 1 .688.324.963.963 0 0 1 .23.723l-8.027 79.957c-2.895 28.84 3.047 58.215 16.738 82.707 10.938 19.582 16.719 42.39 16.719 65.969 0 28.039-8.364 55.308-23.555 76.789a.932.932 0 0 1-.77.398"/><path fill="#fff" d="m570.7 440.684-13.005-68.559 130.668 3.543-4.734 70.926c-2.469 25.582 6.437 50.77 17.969 72.25 8.824 16.422 13.96 36.113 13.96 57.289 0 25.39-7.39 48.644-19.656 66.687H566.707c-12.262-18.043-19.652-41.297-19.652-66.687 0-19.008 4.136-36.817 11.363-52.145 11.89-25.226 18.855-55.273 12.281-83.304"/><path fill="#f2e6dc" d="M678.309 515.742c2.937-.742 13.57 19.832 16.562 43.742 4.477 35.809-9.582 67.98-13.012 67.375-2.504-.441 1.578-18.207 0-56.738-1.445-35.336-6.242-53.691-3.55-54.379"/><path fill="#363e44" d="M749.27 557.59c-.32 0-.641-.024-.95-.063-7.582-.98-15.457-4.297-21.07-8.867a.943.943 0 0 1-.129-1.332.946.946 0 0 1 1.328-.137c5.352 4.356 12.867 7.52 20.114 8.461a5.407 5.407 0 0 0 6.055-4.664 5.35 5.35 0 0 0-1.075-3.988 5.366 5.366 0 0 0-3.59-2.063c-9.27-1.207-17.45-6.921-18.562-11.226-1.344-5.207 3.324-12.23 12.48-18.785 30.352-21.75 42.445-43.02 41.77-73.418-.34-15.012-6.938-29.653-17.645-39.188-9.203-8.175-20.789-12.066-32.637-10.949-12.675 1.195-24.359 6.098-33.793 14.18a.947.947 0 0 1-1.336-.102.946.946 0 0 1 .098-1.336c9.738-8.34 21.781-13.402 34.856-14.629 12.367-1.164 24.472 2.887 34.066 11.422 11.098 9.871 17.934 25.031 18.281 40.555.703 31.11-11.629 52.84-42.55 75-8.38 5.996-12.876 12.426-11.75 16.777.917 3.567 8.695 8.746 16.972 9.82a7.236 7.236 0 0 1 4.836 2.786 7.211 7.211 0 0 1 1.453 5.386 7.286 7.286 0 0 1-6.804 6.344c-.141.012-.278.016-.418.016"/><path fill="#363e44" d="M720.344 526.61a.95.95 0 0 1-.906-1.223c2.183-7.258 7.917-14.254 17.03-20.79 27.177-19.472 37.063-36.492 36.47-62.808-.258-11.543-5.262-22.754-13.391-29.98-4.61-4.098-12.348-8.778-22.996-7.797-15.176 1.43-28.156 9.453-36.551 22.593-.102.153-.2.305-.313.446a.942.942 0 0 1-1.32.191.949.949 0 0 1-.195-1.328c.082-.105.156-.215.23-.328 8.715-13.64 22.2-21.977 37.973-23.457 11.34-1.047 19.543 3.918 24.434 8.266 8.507 7.57 13.754 19.289 14.023 31.351.61 27.043-9.488 44.496-37.258 64.395-8.77 6.28-14.258 12.941-16.32 19.793a.95.95 0 0 1-.91.675"/><path fill="#e2a18d" d="M498.125 651.2c8.102-9.782 22.965-25.013 46.285-35.595 41.477-18.812 92.828-15.257 96.45-3.84.949 3-2.083 4.426-2.133 10.446-.106 13.098 14.125 19.191 13.43 23.36-.942 5.675-29.938 10.32-154.032 5.628"/><path fill="#d87355" d="M526.965 639.363a.938.938 0 0 1-.653-.261.946.946 0 0 1-.035-1.34c5.137-5.399 10.711-10.297 16.551-14.551 18.629-13.547 40.176-20.938 64.047-21.977a.951.951 0 0 1 .082 1.898c-23.496 1.016-44.695 8.29-63.008 21.614-5.754 4.18-11.238 9.004-16.297 14.324a.95.95 0 0 1-.687.293"/><path fill="#d87355" d="M543.86 635.39a.958.958 0 0 1-.774-.39.949.949 0 0 1 .215-1.324 139.859 139.859 0 0 1 20.578-12.383c22.734-11.121 47.851-15.79 74.676-13.875.523.039.918.492.883 1.016-.04.52-.5.91-1.016.879-26.477-1.899-51.277 2.71-73.711 13.683a137.476 137.476 0 0 0-20.297 12.215.948.948 0 0 1-.555.18"/><path fill="#d87355" d="M553.215 637.152a.961.961 0 0 1-.824-.472.946.946 0 0 1 .343-1.297 123.045 123.045 0 0 1 19.22-9.008c20.976-7.672 43.386-9.352 66.612-4.984a.94.94 0 0 1 .754 1.105.937.937 0 0 1-1.101.758c-22.883-4.3-44.965-2.652-65.617 4.898a120.77 120.77 0 0 0-18.914 8.871.918.918 0 0 1-.473.13"/><path fill="#e2a18d" d="M779.984 605.89c-8.629-8.73-77.144 18.919-74.34 55.942 2.774 36.578 73.043 54.254 80.473 44.383 4.555-6.059-16.777-19.57-18.793-48.528-2.066-29.562 18-46.398 12.66-51.796"/><path fill="#d87355" d="M707.71 654.57a.926.926 0 0 1-.6-.222.932.932 0 0 1-.13-1.328c9.442-11.395 20.786-20.399 33.73-26.762a98.254 98.254 0 0 1 36.052-9.856.947.947 0 1 1 .148 1.887 96.338 96.338 0 0 0-35.363 9.668c-12.695 6.242-23.836 15.086-33.106 26.27a.944.944 0 0 1-.73.343M716.621 657.313a.946.946 0 0 1-.613-1.668c7.426-6.356 15.804-11.235 24.906-14.512a78.387 78.387 0 0 1 28.535-4.621.949.949 0 0 1-.023 1.898h-.028a76.34 76.34 0 0 0-27.84 4.508c-8.886 3.2-17.066 7.965-24.32 14.164a.926.926 0 0 1-.617.23M723.766 662.734a.945.945 0 0 1-.938-.832.943.943 0 0 1 .824-1.054 857.41 857.41 0 0 0 24.114-3.301c6.156-.93 9.78-1.574 14.793-2.473l3.773-.672a.951.951 0 0 1 1.106.766.95.95 0 0 1-.774 1.098l-3.77.672c-5.03.902-8.664 1.55-14.84 2.484a880.385 880.385 0 0 1-24.171 3.305 1.18 1.18 0 0 1-.117.007M755.34 674.258a89.86 89.86 0 0 1-19.274-2.082 91.695 91.695 0 0 1-16.57-5.328.95.95 0 0 1 .75-1.743 89.138 89.138 0 0 0 16.227 5.22c10.886 2.382 22.082 2.679 33.28.878a.947.947 0 0 1 .302 1.871 92.762 92.762 0 0 1-14.715 1.184M768.516 693.05c-9.903 0-19.743-1.808-28.938-5.362-9.031-3.485-17.375-8.567-24.812-15.102a.94.94 0 0 1-.082-1.336.934.934 0 0 1 1.332-.086c7.277 6.387 15.43 11.356 24.246 14.758 12.328 4.758 25.836 6.316 39.054 4.496a.938.938 0 0 1 1.067.809.95.95 0 0 1-.809 1.07 81.383 81.383 0 0 1-11.058.754"/><path fill="#d87355" d="M727.637 658.816c.558 22.012-87.88 66.883-156.64 76.286-68.763 9.406-112.458-28.575-115.114-39.114-2.668-10.61 22.031-57.875 90.797-67.281 68.761-9.406 180.68 19.176 180.957 30.11"/><path fill="#fff" d="M503.43 669.164a4.43 4.43 0 0 1-3.79 4.988 4.424 4.424 0 0 1-4.988-3.785 4.425 4.425 0 0 1 3.79-4.988 4.428 4.428 0 0 1 4.988 3.785"/><path fill="#84524d" d="M461.984 696.715c-2.14 0-4.328-.485-6.539-1.457a.945.945 0 0 1-.484-1.246c.207-.48.77-.7 1.25-.489 3.117 1.368 6.168 1.653 9.07.84 3.18-.89 5.364-2.867 6.633-4.367a.95.95 0 0 1 1.336-.113c.398.34.445.937.11 1.34-1.446 1.699-3.926 3.949-7.567 4.968-1.25.348-2.523.524-3.809.524M506.438 681.871c-4.153 21.164-5.489 38.723-2.977 39.219 2.512.488 7.91-16.27 12.066-37.438 4.153-21.164 5.485-38.718 2.973-39.215-2.508-.488-7.91 16.27-12.063 37.434M551.762 678.68c-4.489 22.87-6.094 41.812-3.582 42.308 2.511.492 8.187-17.652 12.672-40.523 4.488-22.875 6.09-41.817 3.582-42.309-2.508-.492-8.184 17.649-12.672 40.524M597.145 675.219c-4.79 24.43-6.645 44.633-4.137 45.129 2.512.492 8.433-18.914 13.226-43.352 4.797-24.43 6.649-44.633 4.137-45.121-2.508-.496-8.43 18.91-13.226 43.344M642.535 671.695c-3.574 18.18-4.426 33.317-1.918 33.809 2.512.492 7.438-13.848 11.004-32.027 3.567-18.184 4.426-33.32 1.91-33.809-2.5-.496-7.43 13.848-10.996 32.027"/><path fill="#e2a18d" d="M615.828 681.016c4.063 9.785-4.09 31.043-14.039 34.027-6.832 2.05-35.293-16.816-31.582-26.566 3.668-9.641 42.594-14.762 45.621-7.461"/><path fill="#d87355" d="M619.895 687.91c-.06 0-.125 0-.184-.015a146.616 146.616 0 0 0-29.863-2.778c-8.399.082-16.844.899-25.118 2.426a.954.954 0 0 1-1.105-.762.952.952 0 0 1 .762-1.105 148.36 148.36 0 0 1 25.437-2.453 148.7 148.7 0 0 1 30.258 2.816.945.945 0 0 1-.188 1.871M616.613 712.95a.87.87 0 0 1-.285-.044 311.186 311.186 0 0 1-32.27-12.3 310.2 310.2 0 0 1-17.69-8.59.948.948 0 0 1-.4-1.282.96.96 0 0 1 1.286-.394 299.895 299.895 0 0 0 17.578 8.531 306.472 306.472 0 0 0 32.07 12.223.952.952 0 0 1-.29 1.855"/><path fill="#d87355" d="M619.738 700.125a.79.79 0 0 1-.234-.031 554.742 554.742 0 0 0-28.086-6.504 560.504 560.504 0 0 0-22.883-4.172.94.94 0 0 1-.789-1.086.938.938 0 0 1 1.082-.781 544.2 544.2 0 0 1 22.973 4.183 547.895 547.895 0 0 1 28.172 6.528.944.944 0 0 1 .68 1.156.939.939 0 0 1-.915.707"/><path fill="#8b865c" d="M95.309 772.871c-22.329 4.52-42.66 10.035-52.47 20.762l-3.316-6.031c7.961-8.649 31.13-12.516 53.934-16.5l1.852 1.77M93.586 769.063c.066 2.605-53.125-1.594-55.047-6.56l1.711-5.925c12.063 6.852 29.984 10.45 53.297 10.902l.039 1.582"/><path fill="#8b865c" d="M94.207 774.023c-17.695 6.23-30.273 13.082-34.121 20.993l-4.668-5.543c8.816-8.66 22.73-13.368 38.3-16.793l.489 1.343M92.223 767.059c-12.953-.262-27.434-3.102-42.985-7.762l1.45-5.469c15.527 6.79 29.68 10.793 41.933 10.957l-.398 2.274M95.238 769.93c-21.031 3.867-41.504 7.496-54.824 7.918l-.668-8.582c12.875 3.722 32.164 2.449 54.984-1.59l.508 2.254"/><path fill="#d87355" d="M230.797 767.86a4.534 4.534 0 0 1-4 4.867L100.03 787.3c-5.008.578-9.426-3.266-9.55-8.297l-.454-18.371c-.14-5.688 4.739-10.211 10.403-9.64l126.3 12.722a4.534 4.534 0 0 1 4.067 4.144"/><path fill="#e6d0be" d="M100.8 785.223h-.023a.945.945 0 0 1-.925-.97l.109-4.757a.946.946 0 0 1 1.895.047l-.11 4.754a.945.945 0 0 1-.945.926M105.059 762.824a.947.947 0 0 1-.946-.926l-.11-4.363a.95.95 0 0 1 .927-.972c.554-.02.957.398.968.925l.11 4.364a.944.944 0 0 1-.922.968l-.027.004M115.645 778.578a.956.956 0 0 1-.95-.926l-.105-4.367a.941.941 0 0 1 .922-.969c.511-.023.957.399.972.922l.11 4.367a.953.953 0 0 1-.926.973h-.023M126.93 763.738a.948.948 0 0 1-.95-.926l-.109-4.363a.953.953 0 0 1 .926-.972.948.948 0 0 1 .973.925l.105 4.364a.947.947 0 0 1-.922.972h-.023M144.887 782.55h-.02a.952.952 0 0 1-.93-.964l.098-5.211c.012-.523.469-.95.965-.93a.953.953 0 0 1 .934.965l-.098 5.211a.951.951 0 0 1-.95.93M151.219 763.832h-.031a.947.947 0 0 1-.918-.973l.117-4.308c.015-.52.43-.93.976-.918.524.02.934.453.922.976l-.12 4.301a.949.949 0 0 1-.946.922M165.02 772.984a.944.944 0 0 1-.946-.922l-.07-2.91a.945.945 0 0 1 .922-.972.963.963 0 0 1 .972.925l.07 2.91a.941.941 0 0 1-.921.97h-.027M177.25 763.64a.95.95 0 0 1-.945-.859l-.309-3.39a.946.946 0 0 1 .856-1.028.938.938 0 0 1 1.03.856l.31 3.386a.942.942 0 0 1-.856 1.032l-.086.004M194.238 776.633a.947.947 0 0 1-.945-.926l-.11-4.363a.953.953 0 0 1 .926-.973.95.95 0 0 1 .97.926l.108 4.363a.952.952 0 0 1-.921.973h-.028M202.754 767.688a.947.947 0 0 1-.945-.926l-.11-4.367a.956.956 0 0 1 .926-.973.938.938 0 0 1 .969.926l.11 4.367a.95.95 0 0 1-.923.972h-.027M220.402 774.527a.945.945 0 0 1-.949-.922l-.144-5.82a.953.953 0 0 1 .925-.972.933.933 0 0 1 .97.925l.144 5.82a.944.944 0 0 1-.922.97h-.024"/><path fill="#8b865c" d="m180.613 548.79 6.285-.43c-1.675 12.882-.695 24.43 3.762 34.226l-16.515-2.402c2.863-7.016 2.66-15.903 1.511-25.364-.37-3.062 1.88-5.816 4.957-6.03"/><path fill="#e0aa63" d="M208.785 711.73c-.265.043-.531.079-.797.114-13.77 1.797-25.734-9.664-25.453-23.547.692-34.258 2.617-66.223 7.817-92.121 2.011-10.028 10.386-17.797 20.59-18.453 6.87-.438 13.62 1.195 20.28 4.254 8.735 4 14.083 13.003 13.454 22.59-1.793 27.28-7.985 57.788-17.25 90.558-2.453 8.672-9.723 15.262-18.64 16.605M164.578 708.395c-.254.093-.504.187-.754.273-13.129 4.527-27.156-4.285-29.676-17.941-6.226-33.696-10.777-65.395-10.898-91.809-.05-10.227 6.586-19.523 16.45-22.215 6.644-1.812 13.581-1.57 20.722.078 9.363 2.164 16.414 9.907 17.726 19.422 3.739 27.078 3.82 58.211 1.344 92.172-.652 8.992-6.449 16.91-14.914 20.02"/><path fill="#efbc73" d="M183.082 711.559c-.262.066-.523.125-.781.183-13.543 3.074-26.528-7.215-27.547-21.058-2.52-34.172-3.594-66.18-.844-92.454 1.067-10.164 8.676-18.687 18.774-20.293 6.804-1.082 13.671-.082 20.59 2.333 9.07 3.171 15.238 11.636 15.507 21.238.77 27.324-2.539 58.277-8.695 91.77-1.633 8.863-8.25 16.105-17.004 18.28"/><path fill="#8b865c" d="m175.355 571.625-1.238.246c-2.457 1.524-6.695 2.629-16.52 3.965l13.962 5.18 12.578-2.442 15.105 4.606 6.606-4.489c-11.332-.894-17.774-3.593-25.23-8.117l-5.263 1.051"/><path fill="#b77250" d="M423.516 744.191H189.633c-12.004 0-21.738-9.722-21.738-21.726 0-44.64 49.558-81.703 108.105-83.438l58.543-.582c56.805-.578 106.367 41.325 106.367 88.367 0 9.598-7.789 17.38-17.394 17.38"/><path fill="#84524d" d="M307.883 684.59h-.02a.945.945 0 0 1-.933-.961l.582-42.879a.926.926 0 0 1 .96-.934.96.96 0 0 1 .938.957l-.582 42.883a.946.946 0 0 1-.945.934M330.945 686.46a.944.944 0 0 1-.945-.944v-46.438a.946.946 0 0 1 1.895 0v46.438a.947.947 0 0 1-.95.945M284.496 685.516a.954.954 0 0 1-.95-.953v-43.59a.947.947 0 0 1 1.895 0v43.59a.95.95 0 0 1-.945.953"/><path fill="#84524d" d="M402.938 667.207a.928.928 0 0 1-.579-.2c-25.578-19.882-79.738-20.41-101.84-19.718-38.542 1.215-74.464 8.55-81.78 16.707a.942.942 0 0 1-1.337.07.946.946 0 0 1-.074-1.336c7.746-8.636 43.484-16.085 83.133-17.335 22.3-.704 77-.145 103.062 20.117a.95.95 0 0 1 .168 1.332.956.956 0 0 1-.753.363"/><path fill="#e2a18d" d="M327.86 771.152c10.124-4.355 15.78-13.797 12.644-21.078-3.137-7.285-13.879-9.664-24-5.308-10.121 4.351-15.781 13.785-12.64 21.078 3.132 7.285 13.882 9.66 23.995 5.308"/><path fill="#fff" d="M326.672 743.531c-3.195 0-6.559.715-9.793 2.102-9.625 4.144-15.07 13.039-12.149 19.836 2.93 6.797 13.133 8.953 22.758 4.808 4.711-2.023 8.57-5.242 10.856-9.05 2.226-3.715 2.683-7.543 1.289-10.782-1.395-3.234-4.488-5.53-8.715-6.468a19.698 19.698 0 0 0-4.246-.446zm-8.953 30.73c-6.735 0-12.504-2.878-14.73-8.042-3.337-7.758 2.554-17.77 13.14-22.324 5.074-2.184 10.473-2.81 15.2-1.766 4.835 1.07 8.41 3.758 10.046 7.57 1.64 3.813 1.145 8.254-1.406 12.5-2.489 4.149-6.656 7.637-11.727 9.82-3.535 1.52-7.152 2.243-10.523 2.243"/><path fill="#e2a18d" d="M339.86 779.855c7.85-6.957 10.163-17.183 5.148-22.84-5.012-5.66-15.445-4.609-23.301 2.352-7.86 6.953-10.164 17.176-5.152 22.836 5.007 5.656 15.441 4.606 23.304-2.348"/><path fill="#fff" d="M336.105 754.316c-4.425 0-9.496 1.973-13.773 5.758-7.45 6.598-9.73 16.242-5.07 21.504 2.215 2.5 5.691 3.652 9.777 3.238 4.207-.425 8.535-2.441 12.188-5.671 7.453-6.598 9.73-16.247 5.07-21.504-1.98-2.239-4.914-3.325-8.192-3.325zm-10.671 32.48c-3.942 0-7.301-1.374-9.59-3.964-5.352-6.039-3.004-16.887 5.234-24.176 8.238-7.293 19.29-8.308 24.64-2.27 5.352 6.04 3.005 16.887-5.234 24.177-3.945 3.496-8.656 5.671-13.25 6.136-.609.067-1.21.098-1.8.098"/><path fill="#e2a18d" d="M355.332 781.867c3.969-9.047 1.895-18.699-4.625-21.558-6.52-2.856-15.023 2.164-18.992 11.214-3.969 9.055-1.902 18.704 4.62 21.559 6.524 2.86 15.028-2.16 18.997-11.215"/><path fill="#fff" d="M346.805 760.453c-5.32 0-11.164 4.485-14.223 11.45-1.84 4.199-2.394 8.648-1.566 12.523.812 3.77 2.836 6.535 5.703 7.793 6.031 2.636 13.988-2.172 17.742-10.727 1.844-4.199 2.394-8.644 1.566-12.523-.808-3.77-2.832-6.535-5.703-7.79a8.623 8.623 0 0 0-3.52-.726zm-6.61 34.375a10.46 10.46 0 0 1-4.238-.879c-3.445-1.504-5.855-4.746-6.793-9.125-.914-4.265-.316-9.12 1.68-13.683 4.172-9.512 13.254-14.762 20.246-11.7 3.437 1.512 5.851 4.75 6.789 9.125.914 4.27.32 9.125-1.68 13.684-3.367 7.68-9.926 12.578-16.004 12.578"/><path fill="#e2a18d" d="M367.137 777.008c.168-8.524-4.672-15.54-10.817-15.656-6.14-.125-11.261 6.687-11.425 15.214-.176 8.528 4.668 15.54 10.812 15.657 6.14.125 11.258-6.688 11.43-15.215"/><path fill="#fff" d="M367.137 777.008h.008zm-10.98-14.711c-5.548 0-10.16 6.363-10.317 14.285-.16 7.988 4.277 14.582 9.887 14.695 5.613.118 10.3-6.297 10.46-14.285.16-7.988-4.273-14.586-9.882-14.695h-.149zm-.29 30.875h-.18c-6.656-.133-11.925-7.59-11.746-16.625.18-9.031 5.75-16.29 12.399-16.145 6.656.133 11.926 7.594 11.742 16.63-.176 8.948-5.64 16.14-12.215 16.14"/><path fill="#e2a18d" d="M375.988 770.738c-1.304-7.156-6.543-12.195-11.699-11.254-5.152.938-8.273 7.5-6.965 14.653 1.301 7.156 6.535 12.191 11.692 11.254 5.156-.938 8.277-7.5 6.972-14.653"/><path fill="#fff" d="M365.543 760.32c-.363 0-.723.028-1.078.098-4.637.844-7.418 6.922-6.211 13.55 1.207 6.63 5.95 11.337 10.594 10.489 2.183-.394 4.039-1.984 5.222-4.469 1.23-2.593 1.582-5.816.985-9.082-.594-3.265-2.063-6.16-4.13-8.148-1.66-1.598-3.534-2.438-5.382-2.438zm2.246 26.13c-5.184 0-10.117-5.118-11.398-12.141-1.399-7.66 2.07-14.723 7.73-15.758 2.8-.508 5.688.5 8.121 2.844 2.352 2.261 4.012 5.515 4.676 9.171.668 3.653.262 7.29-1.137 10.235-1.449 3.05-3.793 5.011-6.594 5.52-.468.09-.937.128-1.398.128"/><path fill="#e2a18d" d="M377.727 758.941c-4.868-3.859-11.07-4.152-13.852-.644-2.781 3.5-1.094 9.473 3.773 13.336 4.868 3.863 11.075 4.148 13.856.648 2.781-3.508 1.09-9.476-3.777-13.34"/><path fill="#fff" d="M369.54 756.793c-2.11 0-3.849.73-4.927 2.09-1.148 1.449-1.437 3.469-.808 5.687.66 2.328 2.234 4.578 4.433 6.32 2.2 1.747 4.742 2.77 7.164 2.883 2.305.11 4.203-.632 5.356-2.082 2.457-3.09.828-8.48-3.617-12.007-2.204-1.746-4.75-2.77-7.164-2.883-.153-.008-.293-.008-.438-.008zm6.304 18.887c-.176 0-.352-.004-.528-.012-2.816-.133-5.75-1.305-8.257-3.293-2.508-1.988-4.313-4.578-5.082-7.29-.793-2.82-.383-5.44 1.152-7.378 1.543-1.941 4-2.937 6.933-2.8 2.817.128 5.743 1.3 8.254 3.288 5.266 4.184 7.032 10.762 3.93 14.676-1.45 1.82-3.707 2.809-6.402 2.809"/><path fill="#e2a18d" d="M374.598 749.742c-4.887-.125-8.918 2.621-9.008 6.14-.09 3.516 3.793 6.47 8.676 6.595 4.886.128 8.918-2.622 9.007-6.137.09-3.516-3.793-6.469-8.675-6.598"/><path fill="#fff" d="M374.27 750.688c-4.215 0-7.657 2.3-7.735 5.218-.074 2.992 3.402 5.516 7.758 5.625 4.34.117 7.957-2.226 8.035-5.218.035-1.387-.71-2.735-2.098-3.786-1.484-1.129-3.492-1.78-5.66-1.836-.097-.004-.199-.004-.3-.004zm.316 12.742c-.113 0-.23-.004-.348-.004-5.394-.14-9.703-3.535-9.593-7.567.101-4.039 4.574-7.207 9.976-7.062 2.559.062 4.961.855 6.75 2.219 1.895 1.433 2.902 3.332 2.852 5.347-.102 3.946-4.395 7.067-9.637 7.067"/><path fill="#e2a18d" d="M353.89 728.645c-1.32.886-1.484 2.925-.347 4.476l16.39 22.383 2.735-1.832-14.5-23.652c-1-1.637-2.953-2.262-4.277-1.375"/><path fill="#e2a18d" d="m373.863 753.445-10.574-25.644c-.734-1.77-2.559-2.7-4.008-2.035-1.441.672-1.926 2.66-1.05 4.367l12.644 24.687 2.988-1.375"/><path fill="#e2a18d" d="m369.402 756.434-19.722-19.508c-1.36-1.352-1.524-3.39-.36-4.477 1.164-1.086 3.192-.777 4.438.684l18.058 21.062-2.414 2.239M370.898 722.203c-1.574.215-2.617 1.973-2.28 3.867l4.886 27.301 3.262-.45-2.63-27.609c-.183-1.91-1.66-3.324-3.238-3.109"/><path fill="#e2a18d" d="m377.941 753.25 1.766-27.68c.121-1.91-1.105-3.55-2.703-3.582-1.594-.039-2.899 1.535-2.863 3.453l.511 27.735 3.29.074"/><path fill="#e2a18d" d="m372.625 753.98-9.148-26.187c-.63-1.813.117-3.719 1.644-4.184 1.524-.46 3.203.707 3.684 2.563l6.968 26.848-3.148.96M460.55 756.637c-10.831-1.996-20.78 2.71-22.218 10.511-1.434 7.805 6.184 15.743 17.02 17.739 10.832 1.992 20.777-2.719 22.218-10.516 1.438-7.8-6.183-15.742-17.02-17.734"/><path fill="#fff" d="M455.59 757.125c-8.3 0-15.2 4.07-16.324 10.195-1.34 7.278 5.953 14.739 16.257 16.633 10.297 1.899 19.774-2.48 21.114-9.754.636-3.465-.66-7.094-3.657-10.219-3.078-3.203-7.55-5.484-12.597-6.41a26.41 26.41 0 0 0-4.793-.445zm4.676 29.164c-1.657 0-3.364-.152-5.086-.469-11.336-2.086-19.313-10.539-17.778-18.84 1.528-8.304 11.989-13.363 23.317-11.277 5.441 1 10.277 3.473 13.629 6.969 3.43 3.574 4.902 7.789 4.152 11.867-1.297 7.043-9.012 11.75-18.234 11.75"/><path fill="#e2a18d" d="M455.41 742.742c-10.398 1.426-17.996 8.649-16.969 16.137 1.028 7.488 10.29 12.398 20.688 10.976 10.398-1.425 17.992-8.648 16.969-16.136-1.028-7.489-10.293-12.407-20.688-10.977"/><path fill="#fff" d="M455.535 743.684c-9.863 1.347-17.113 8.109-16.156 15.066.953 6.96 9.754 11.52 19.621 10.164 9.863-1.348 17.113-8.11 16.156-15.066-.953-6.961-9.75-11.52-19.62-10.164zm.047 27.363c-9.34 0-17.113-4.957-18.086-12.04-1.094-7.991 6.883-15.71 17.781-17.202 10.903-1.496 20.664 3.789 21.758 11.785 1.098 7.992-6.879 15.71-17.781 17.203a26.785 26.785 0 0 1-3.672.254"/><path fill="#e2a18d" d="M443.656 732.477c-8.324 5.324-11.965 14.5-8.125 20.496 3.832 5.996 13.696 6.543 22.024 1.215 8.324-5.329 11.965-14.504 8.125-20.497-3.832-6-13.696-6.539-22.024-1.214"/><path fill="#fff" d="M444.168 733.277c-3.863 2.465-6.793 5.856-8.254 9.547-1.422 3.582-1.273 7.004.414 9.64 1.688 2.638 4.735 4.208 8.582 4.415 3.961.223 8.274-1.02 12.133-3.488 3.863-2.47 6.793-5.864 8.254-9.551 1.422-3.578 1.273-7.004-.414-9.64-1.684-2.638-4.735-4.208-8.582-4.415-3.95-.219-8.274 1.02-12.133 3.492zm1.637 25.528c-.336 0-.664-.012-.996-.032-4.477-.246-8.055-2.125-10.079-5.289-2.027-3.16-2.23-7.195-.582-11.359 1.61-4.05 4.805-7.766 9-10.45 4.192-2.679 8.899-4.023 13.254-3.784 4.477.246 8.055 2.125 10.078 5.289 2.028 3.16 2.235 7.199.582 11.36-1.609 4.054-4.804 7.765-8.996 10.444-3.878 2.48-8.187 3.82-12.261 3.82"/><path fill="#e2a18d" d="M431.137 729.969c-4.875 6.996-4.739 15.515.3 19.027 5.043 3.508 13.083.684 17.958-6.316 4.875-6.996 4.738-15.516-.301-19.028-5.043-3.507-13.082-.683-17.957 6.317"/><path fill="#fff" d="M431.137 729.969h.008zm12.937-6.88c-1.18 0-2.426.227-3.707.677-3.203 1.125-6.21 3.523-8.453 6.742-2.242 3.222-3.453 6.867-3.394 10.27.046 3.277 1.277 5.921 3.457 7.437 2.18 1.523 5.09 1.758 8.187.672 3.203-1.133 6.207-3.524 8.453-6.746 2.246-3.223 3.453-6.868 3.399-10.266-.055-3.277-1.286-5.922-3.465-7.445-1.281-.887-2.805-1.34-4.477-1.34zm-7.625 28.368c-2.05 0-3.945-.566-5.554-1.684-2.696-1.878-4.215-5.066-4.274-8.972-.058-3.79 1.27-7.828 3.734-11.375 2.473-3.547 5.805-6.188 9.383-7.45 3.684-1.296 7.203-.976 9.899.903 2.695 1.875 4.21 5.058 4.273 8.965.059 3.793-1.27 7.832-3.738 11.379-2.473 3.547-5.805 6.195-9.379 7.453-1.488.52-2.95.781-4.344.781"/><path fill="#e2a18d" d="M420.293 730.277c-2.89 6.676-1.328 13.77 3.477 15.848 4.812 2.078 11.05-1.648 13.94-8.324 2.884-6.672 1.33-13.77-3.483-15.844-4.809-2.082-11.051 1.645-13.934 8.32"/><path fill="#fff" d="M431.383 722.32c-3.824 0-8.035 3.274-10.223 8.332-1.316 3.047-1.703 6.27-1.086 9.067.586 2.691 2.035 4.656 4.074 5.539 4.32 1.867 10.016-1.645 12.688-7.828 1.32-3.047 1.707-6.27 1.094-9.07-.59-2.688-2.04-4.653-4.075-5.536a6.223 6.223 0 0 0-2.472-.504zm-4.813 25.32c-1.09 0-2.16-.206-3.172-.644-2.617-1.129-4.457-3.57-5.18-6.871-.698-3.188-.273-6.816 1.204-10.227 3.09-7.144 9.906-11.097 15.183-8.816 2.61 1.133 4.45 3.57 5.172 6.871.703 3.188.274 6.82-1.199 10.227-2.496 5.773-7.422 9.46-12.008 9.46"/><path fill="#e2a18d" d="M412.297 739.121c1.902 5.914 6.898 9.598 11.164 8.227 4.262-1.371 6.172-7.278 4.266-13.188-1.907-5.918-6.903-9.601-11.168-8.226-4.258 1.367-6.168 7.273-4.262 13.187"/><path fill="#fff" d="M413.2 738.836c.859 2.668 2.405 4.934 4.359 6.367 1.851 1.367 3.847 1.809 5.609 1.242 3.758-1.207 5.398-6.593 3.656-12-1.742-5.406-6.215-8.82-9.972-7.613-3.758 1.211-5.395 6.594-3.653 12.004zm8.41 9.75c-1.735 0-3.516-.633-5.18-1.856-2.27-1.671-4.059-4.27-5.04-7.316-2.058-6.402.13-12.855 4.883-14.387 4.75-1.523 10.293 2.438 12.356 8.84 2.058 6.403-.129 12.852-4.879 14.383a7.022 7.022 0 0 1-2.14.336"/><path fill="#e2a18d" d="M409.793 748.508c3.988 2.816 8.871 2.77 10.898-.106 2.032-2.875.442-7.488-3.554-10.304-3.989-2.813-8.871-2.766-10.899.109-2.031 2.875-.437 7.488 3.555 10.3"/><path fill="#fff" d="M411.023 736.957c-1.699 0-3.164.598-4.011 1.793-1.723 2.45-.235 6.477 3.328 8.984 1.77 1.246 3.765 1.922 5.633 1.907 1.746-.02 3.144-.653 3.945-1.786 1.723-2.44.234-6.472-3.328-8.984-1.809-1.273-3.813-1.914-5.567-1.914zm4.875 14.582c-2.23 0-4.59-.8-6.652-2.258-4.414-3.11-6.11-8.324-3.781-11.62 2.324-3.298 7.805-3.446 12.219-.337 4.414 3.114 6.109 8.328 3.78 11.625-1.16 1.645-3.1 2.563-5.476 2.586l-.09.004"/><path fill="#e2a18d" d="M415.297 777.55c1.594-.003 2.86-1.616 2.777-3.534l-1.203-27.707-3.293.007-1.074 27.72c-.074 1.91 1.2 3.515 2.793 3.515"/><path fill="#e2a18d" d="m412.457 745.836-5.441 27.195c-.38 1.883.629 3.668 2.203 3.918 1.57.246 3.078-1.14 3.297-3.047l3.191-27.55-3.25-.516"/><path fill="#e2a18d" d="m417.824 745.82 5.574 27.176c.387 1.879-.613 3.668-2.187 3.922-1.574.258-3.082-1.125-3.313-3.031l-3.32-27.535 3.246-.532M397.574 773.473c1.43.695 3.278-.196 4.043-1.953l11.094-25.422-2.957-1.438-13.145 24.426c-.91 1.691-.472 3.687.965 4.387"/><path fill="#e2a18d" d="m408.957 743.738-16.84 22.04c-1.164 1.527-1.047 3.566.258 4.484 1.305.914 3.262.324 4.3-1.285l14.977-23.352-2.695-1.887"/><path fill="#e2a18d" d="m413.781 746.082-6.933 26.856c-.477 1.855-2.16 3.027-3.684 2.566-1.527-.461-2.277-2.363-1.648-4.18l9.12-26.195 3.145.953"/><path fill="#fff" d="M533.328 776.05c-18.355.91-35.418-13.152-36.328-31.5-.918-18.347 14.672-34.03 33.027-34.94 24.04-1.196 49.887 12.433 50.797 30.777.914 18.347-24.16 34.504-47.496 35.664"/><path fill="#363e44" d="M534.91 710.48c-.984 0-1.96.024-2.937.075-8.598.422-17.024 4.304-23.102 10.64-6.242 6.5-9.453 14.782-9.027 23.309.422 8.523 4.433 16.441 11.289 22.297 6.687 5.703 15.449 8.73 24.047 8.3 22.289-1.105 47.504-16.492 46.597-34.667-.414-8.32-6.187-16.11-16.254-21.95-8.886-5.14-19.894-8.004-30.613-8.004zm.32 65.567h.008zm-1.656.992c-8.52 0-17.062-3.16-23.672-8.797-7.254-6.195-11.504-14.594-11.957-23.644-.445-9.051 2.946-17.828 9.555-24.715 6.414-6.684 15.305-10.77 24.379-11.223 11.973-.59 24.586 2.39 34.594 8.188 10.644 6.168 16.754 14.511 17.199 23.492.953 19.242-25.23 35.504-48.399 36.656a30.64 30.64 0 0 1-1.699.043"/><path fill="#efbc73" d="M527.918 767.027c-10.5.52-19.434-7.562-19.957-18.062-.524-10.496 7.57-19.426 18.066-19.945 10.5-.528 19.438 7.562 19.961 18.058.52 10.492-7.57 19.426-18.07 19.95"/><path fill="#363e44" d="M93.156 713.773c-.043 0-.086 0-.125-.011a.942.942 0 0 1-.816-1.059 501.69 501.69 0 0 0 3.992-47.265c.707-19.223.29-38.735-1.242-57.985a.947.947 0 0 1 .87-1.02.941.941 0 0 1 1.02.872 503.619 503.619 0 0 1 1.247 58.203 502.895 502.895 0 0 1-4.008 47.445.946.946 0 0 1-.938.82"/><path fill="#d87355" d="M123.434 615.297c-10.856-1.496-19.891 2.34-26.47 9.902-5.968-8.05-14.679-12.57-25.62-11.918-23.375 1.395-33.266 27.434-28.637 52.328 5.11 27.438 17.18 49.598 34.656 48.555 6.625-.394 12.145-3.73 16.52-9.336 3.93 5.926 9.172 9.68 15.75 10.586 17.344 2.39 31.09-18.773 38.305-45.73 6.542-24.461-1.305-51.188-24.504-54.387"/><path fill="#f7f1eb" d="M119.516 625.637c-1.207 1.449 8.004 8.851 10.62 23.613 2.989 16.832.731 30.648 2.36 31.61 1.926 1.128 8.828-20.82 5.688-37.923-2.875-15.66-17.184-19.078-18.668-17.3"/><path fill="#363e44" d="M90.09 703.879h.035a.95.95 0 0 1 .754.426c3.914 5.91 8.992 9.332 15.09 10.168 17.933 2.48 31-21.645 37.258-45.035 4.046-15.118 2.347-30.844-4.426-41.043-4.547-6.844-11.215-11.047-19.29-12.16-10.1-1.387-18.964 1.925-25.624 9.59a.953.953 0 0 1-.75.327.977.977 0 0 1-.727-.382c-6.043-8.16-14.62-12.149-24.805-11.543-8.132.488-15.109 4.16-20.171 10.628-7.543 9.645-10.45 25.196-7.586 40.582 4.43 23.81 15.601 48.852 33.664 47.782 6.14-.367 11.465-3.387 15.828-8.977a.95.95 0 0 1 .75-.363zm18.414 12.668c-.926 0-1.86-.067-2.797-.195-6.281-.864-11.55-4.207-15.68-9.946-4.558 5.403-10.074 8.328-16.402 8.703-.414.028-.828.04-1.234.04-15.825 0-28.63-18.305-34.407-49.368-3.007-16.144-.03-31.879 7.957-42.09 5.407-6.91 12.86-10.84 21.551-11.355 10.457-.621 19.34 3.305 25.738 11.383 7.004-7.559 16.153-10.79 26.54-9.364 8.628 1.192 15.753 5.684 20.609 12.989 7.172 10.797 8.922 26.715 4.68 42.586-7.895 29.5-21.41 46.617-36.555 46.617"/></svg>