<svg xmlns="http://www.w3.org/2000/svg" width="1080" viewBox="0 0 810 810" height="1080" version="1.0"><path fill="#8c3f0a" d="M414.637 183.512c-132.707 0-240.285 107.613-240.285 240.363 0 132.746 107.582 240.36 240.285 240.36 132.707 0 240.289-107.614 240.289-240.36 0-132.75-107.578-240.363-240.29-240.363zm0 0"/><path fill="#7c3108" d="M568.016 238.855c34.543 41.625 55.328 95.094 55.328 153.422 0 132.75-107.582 240.364-240.29 240.364-58.308 0-111.761-20.79-153.374-55.348 44.074 53.11 110.562 86.941 184.96 86.941 132.712 0 240.29-107.613 240.29-240.359-.004-74.422-33.825-140.934-86.914-185.02zm0 0"/><path fill="#6d2e03" d="M576.465 246.2c38.926 42.714 62.668 99.523 62.668 161.874 0 132.75-107.582 240.363-240.29 240.363-62.331 0-119.12-23.75-161.823-62.687 43.945 48.219 107.25 78.484 177.617 78.484 132.71 0 240.289-107.613 240.289-240.359 0-70.395-30.254-133.715-78.461-177.676zm0 0"/><path fill="#76a34f" d="M307.453 764.16c-182.71-57.496-289.86-252.12-235.156-440.23C124.039 145.984 305.902 36.676 487.262 74.52c198.941 41.507 322.258 240.226 273.543 435.664-24.977 100.214-92.094 184.625-184.14 231.59l-18.657-36.594c81.457-41.559 140.851-116.258 162.957-204.938 43.105-172.937-66.016-348.777-242.055-385.508-160.48-33.488-321.41 63.243-367.2 220.7-48.397 166.445 46.4 338.652 208.06 389.543 10.355 3.261 16.398 14 13.773 24.535-2.86 11.48-14.809 18.199-26.09 14.648zm0 0"/><path fill="#648940" d="M658.66 163.68c80.156 85.515 116.75 208.75 86.352 330.707-24.422 97.976-89.14 180.832-178.04 228.375l9.696 19.015c92.047-46.965 159.164-131.379 184.14-231.59C793.134 380.485 749.68 249.363 658.66 163.68zm0 0"/><path fill="#76a34f" d="m628.402 753.773-58.375-97.187c-5.132-8.543-17.703-7.938-21.996 1.055l-44.21 92.71c-3.856 8.087 1.792 17.481 10.738 17.872l102.586 4.48c9.953.434 16.39-10.387 11.257-18.93zm0 0"/><path fill="#648940" d="m628.402 753.773-58.375-97.187c-2.293-3.813-6.066-5.79-9.925-6.027l52.507 87.414c5.133 8.547-1.304 19.367-11.257 18.93l-98.332-4.29c-1.957 7.477 3.418 15.258 11.539 15.61l102.586 4.48c9.953.434 16.39-10.387 11.257-18.93zm0 0"/><path fill="#e6e7e8" d="M502.813 663.965c0 1.441-.036 2.887-.11 4.328a88.692 88.692 0 0 1-.316 4.316 83.756 83.756 0 0 1-.532 4.297 86.702 86.702 0 0 1-1.688 8.488 88.899 88.899 0 0 1-1.151 4.172 88.864 88.864 0 0 1-2.918 8.153 86.999 86.999 0 0 1-1.754 3.957 87.075 87.075 0 0 1-4.078 7.633 88.63 88.63 0 0 1-2.313 3.656 92.944 92.944 0 0 1-2.492 3.539 89.894 89.894 0 0 1-2.664 3.414 86.737 86.737 0 0 1-2.828 3.277 86.881 86.881 0 0 1-2.985 3.137 86.933 86.933 0 0 1-3.132 2.984 89.765 89.765 0 0 1-6.688 5.492 88.714 88.714 0 0 1-7.195 4.809 87.074 87.074 0 0 1-7.633 4.078 85.123 85.123 0 0 1-3.957 1.754 82.69 82.69 0 0 1-4.035 1.559 85.69 85.69 0 0 1-8.281 2.512 86.702 86.702 0 0 1-4.223.949 92.516 92.516 0 0 1-4.262.742c-1.43.21-2.86.387-4.297.527-1.437.145-2.875.25-4.316.32a88.78 88.78 0 0 1-8.652 0 84.056 84.056 0 0 1-4.317-.32 88.323 88.323 0 0 1-4.297-.527 92.516 92.516 0 0 1-4.262-.742 86.701 86.701 0 0 1-4.222-.95 86.817 86.817 0 0 1-8.281-2.511 86.857 86.857 0 0 1-7.992-3.313 87.074 87.074 0 0 1-11.29-6.395 92.943 92.943 0 0 1-3.539-2.491 93.921 93.921 0 0 1-3.41-2.664 90.45 90.45 0 0 1-3.277-2.829 86.933 86.933 0 0 1-3.133-2.984 86.88 86.88 0 0 1-2.984-3.137 86.736 86.736 0 0 1-2.829-3.277 89.893 89.893 0 0 1-2.664-3.414 92.943 92.943 0 0 1-2.492-3.54 88.63 88.63 0 0 1-4.445-7.421 85.224 85.224 0 0 1-3.7-7.824 86.036 86.036 0 0 1-1.558-4.04 84.418 84.418 0 0 1-1.36-4.113 88.899 88.899 0 0 1-2.84-12.66c-.214-1.43-.39-2.86-.53-4.297a93.899 93.899 0 0 1-.32-4.316 88.9 88.9 0 0 1 0-8.656c.074-1.442.179-2.883.32-4.317a83.22 83.22 0 0 1 .53-4.297 86.839 86.839 0 0 1 1.688-8.488 85.69 85.69 0 0 1 2.512-8.285 84.401 84.401 0 0 1 1.559-4.04 85.224 85.224 0 0 1 3.7-7.824 88.628 88.628 0 0 1 6.938-10.965 89.765 89.765 0 0 1 5.49-6.687 83.748 83.748 0 0 1 2.985-3.136 86.933 86.933 0 0 1 3.133-2.985 89.765 89.765 0 0 1 6.688-5.492 88.729 88.729 0 0 1 7.195-4.808 87.071 87.071 0 0 1 7.632-4.079 91.471 91.471 0 0 1 3.954-1.757c1.335-.551 2.68-1.07 4.039-1.555 1.359-.488 2.73-.942 4.109-1.36a91.656 91.656 0 0 1 4.172-1.156 91.51 91.51 0 0 1 8.484-1.687c1.43-.211 2.86-.387 4.297-.532a88.69 88.69 0 0 1 17.285 0c1.438.145 2.867.32 4.297.532a91.51 91.51 0 0 1 8.484 1.688c1.399.35 2.79.738 4.172 1.155 1.38.418 2.75.872 4.11 1.36a86.83 86.83 0 0 1 7.992 3.312 87.072 87.072 0 0 1 11.29 6.395c1.198.8 2.378 1.633 3.538 2.492a89.766 89.766 0 0 1 6.688 5.492 86.933 86.933 0 0 1 3.132 2.985 83.748 83.748 0 0 1 2.985 3.136 89.766 89.766 0 0 1 5.492 6.688 88.628 88.628 0 0 1 12.195 22.828c.489 1.36.938 2.73 1.36 4.11a90.392 90.392 0 0 1 2.101 8.398 86.84 86.84 0 0 1 .738 4.265c.215 1.426.391 2.86.532 4.297.14 1.434.246 2.875.316 4.317.074 1.441.11 2.883.11 4.328zm0 0"/><path fill="#fff" d="M345.434 670.29a6.314 6.314 0 0 1-6.317-6.317 6.315 6.315 0 0 1 6.317-6.32c3.472 0 6.316 2.843 6.316 6.32 0 3.472-2.844 6.316-6.316 6.316zm4.546-24.708a6.18 6.18 0 0 1-2.273-.441 6.235 6.235 0 0 1-3.504-3.32c-.695-1.548-.726-3.255-.129-4.833 5.403-14.125 14.848-26.226 27.293-34.945 12.727-8.91 27.7-13.617 43.27-13.648 3.476 0 6.32 2.843 6.32 6.316a6.318 6.318 0 0 1-6.32 6.32c-25.867 0-49.492 16.274-58.75 40.477-.946 2.43-3.317 4.074-5.907 4.074zm0 0"/><path fill="#d1d3d4" d="M476.988 601.598a88.769 88.769 0 0 0-8.414-7.383c26.82 34.597 24.375 84.55-7.383 116.32-31.753 31.766-81.695 34.211-116.28 7.383 2.26 2.914 4.702 5.738 7.378 8.414 34.438 34.441 90.262 34.441 124.7 0 34.433-34.441 34.433-90.289 0-124.734zm0 0"/><path fill="#76a34f" d="M405.09 710.707c-3.953 0-7.91-1.512-10.93-4.527l-30.43-30.442c-6.03-6.035-6.03-15.82 0-21.86 6.036-6.034 15.82-6.034 21.856 0l19.504 19.513 38.707-38.72c6.035-6.034 15.816-6.034 21.851 0 6.036 6.04 6.036 15.825 0 21.86l-49.632 49.653a15.406 15.406 0 0 1-10.926 4.523zm0 0"/><path fill="#648940" d="M465.648 634.672c-1.105-1.106-2.363-1.938-3.675-2.637 3.12 5.848 2.289 13.25-2.641 18.18l-49.633 49.648a15.394 15.394 0 0 1-10.926 4.528c-3.957 0-7.91-1.508-10.925-4.528l6.316 6.32a15.41 15.41 0 0 0 10.926 4.528 15.41 15.41 0 0 0 10.926-4.527l49.632-49.653c6.036-6.035 6.036-15.82 0-21.86zm0 0"/><path fill="#fcc4ae" d="M451.125 263.086c-9.512-3.586-60.492-21.121-84.445-28.328-6.914-2.082-14.285 1.36-17.145 7.996l-21.34 50.746c-3.562 8.27 1.348 17.988 10.688 19.656l42.492 15.977c10.246 5.484 22.621.879 27-9.469.637-1.48 3.816-9.285 6.512-15.926 1.445-3.55 6.476-3.52 7.87.051 4.895 12.516 13.079 33.555 16.419 42.79 4.57 12.472 10.953 25.745 11.238 39.233.184 8.801-2.074 17.446-2 26.247.078 9.253 1.484 18.328 5.496 26.503 9.945 20.274-57.008-63.832-161.922-16.257-49.644-34.828-67.441-29.125-117.566-4.407a233.86 233.86 0 0 0-.074 5.977c0 76.484 35.71 144.621 91.367 188.64 9.203-30.523 20.324-53.937 56.226-76.277 52.973 25.61 105.918 29.297 158.895 11.375 29.66 7.262 68.664-8.824 78.605-21.484 9.946-12.66 11.93-23.61 5.758-36.399 7.207-60.261-84.062-215.332-114.074-226.644zm0 0"/><path fill="#f2ad97" d="M565.203 489.734c7.2-60.265-84.066-215.336-114.078-226.648-.078-.027-.16-.063-.242-.094 38.012 51.153 88.14 149.887 82.734 195.145 6.172 12.785 4.184 23.738-5.758 36.394-9.945 12.656-48.949 28.742-78.605 21.485-52.98 17.922-105.926 14.234-158.899-11.375-35.898 22.343-47.02 45.754-56.226 76.28a233.741 233.741 0 0 1-4.457-3.616 241.903 241.903 0 0 0 36.043 35.21c9.207-30.523 20.328-53.937 56.226-76.277 52.977 25.61 105.922 29.297 158.899 11.375 29.66 7.262 68.66-8.824 78.605-21.484 9.942-12.656 11.93-23.606 5.758-36.395zm0 0"/></svg>