<svg xmlns="http://www.w3.org/2000/svg" width="1080" viewBox="0 0 810 810" height="1080" version="1.0"><defs><clipPath id="t"><path d="M663 506h147v90H663zm0 0"/></clipPath><clipPath id="l"><path d="M232 0h159v76H232zm0 0"/></clipPath><clipPath id="d"><path d="M107 0h110v78H107zm0 0"/></clipPath><clipPath id="e"><path d="M554 764h153v46H554zm0 0"/></clipPath><clipPath id="f"><path d="M0 725h121v85H0zm0 0"/></clipPath><clipPath id="g"><path d="M0 0h91v91H0zm0 0"/></clipPath><clipPath id="h"><path d="M766.207 255H810v102h-43.793zm0 0"/></clipPath><clipPath id="i"><path d="M395 760h158.871v50H395zm0 0"/></clipPath><clipPath id="j"><path d="M796.543 41.488H810V124h-13.457zm0 0"/></clipPath><clipPath id="k"><path d="M795.418 612.215H810V695h-14.582zm0 0"/></clipPath><clipPath id="c"><path d="M0 0h810v810H0z"/></clipPath><clipPath id="m"><path d="M706 118h104v112H706zm0 0"/></clipPath><clipPath id="n"><path d="M713.406 720.066H810V810h-96.594zm0 0"/></clipPath><clipPath id="o"><path d="M542 0h80v39h-80zm0 0"/></clipPath><clipPath id="p"><path d="M273.004 716.695H395V810H273.004zm0 0"/></clipPath><clipPath id="q"><path d="M390 0h112v113H390zm0 0"/></clipPath><clipPath id="r"><path d="M789 374.035h21V485h-21zm0 0"/></clipPath><clipPath id="s"><path d="M705 0h105v24.637H705zm0 0"/></clipPath><filter x="0%" y="0%" width="100%" height="100%" id="a"><feColorMatrix values="0 0 0 0 1 0 0 0 0 1 0 0 0 0 1 0 0 0 1 0" color-interpolation-filters="sRGB"/></filter><mask id="b"><g filter="url(#a)"><path fill-opacity=".149" d="M-81-81h972v972H-81z"/></g></mask></defs><g clip-path="url(#c)" mask="url(#b)"><path fill="#004aad" d="M687.777 459.348h-.191v-.008c-.152 0-.305-.016-.453-.04-.094-.003-.18-.003-.274-.003a8.55 8.55 0 0 0-6.066 2.512 8.557 8.557 0 0 0-2.512 6.062c0 2.371.961 4.52 2.512 6.07a8.55 8.55 0 0 0 6.066 2.512 8.552 8.552 0 0 0 6.07-2.512 8.574 8.574 0 0 0 2.509-6.07 8.57 8.57 0 0 0-2.508-6.062 8.548 8.548 0 0 0-5.153-2.461zm53.785 14.593a8.536 8.536 0 0 0 6.067 2.512 8.527 8.527 0 0 0 6.062-2.512 8.548 8.548 0 0 0 2.516-6.07c0-2.367-.96-4.508-2.516-6.062a8.527 8.527 0 0 0-6.062-2.512 8.536 8.536 0 0 0-6.067 2.512 8.544 8.544 0 0 0-2.515 6.062c0 2.371.96 4.52 2.515 6.07zm-64.71-67.261 8.593 32.148h65.442l15.312-32.148zm-27.254-23.047a2.569 2.569 0 1 1 0-5.137h17.754c1.238 0 2.273.875 2.515 2.043l5.613 21.004h94.786a2.572 2.572 0 0 1 2.277 3.758l-17.715 37.203a2.563 2.563 0 0 1-2.316 1.46H686.82l2.735 10.243h56.347c.114 0 .223.004.336.023.453-.05.918-.07 1.39-.07 3.786 0 7.22 1.535 9.7 4.016 2.48 2.48 4.02 5.91 4.02 9.695 0 3.793-1.54 7.223-4.02 9.7a13.668 13.668 0 0 1-9.7 4.019 13.664 13.664 0 0 1-9.698-4.02 13.644 13.644 0 0 1-4.016-9.699 13.61 13.61 0 0 1 2.977-8.523H697.6a13.633 13.633 0 0 1 2.977 8.523c0 3.793-1.535 7.223-4.02 9.7a13.661 13.661 0 0 1-9.699 4.019 13.667 13.667 0 0 1-9.699-4.02 13.66 13.66 0 0 1-4.015-9.699c0-3.785 1.535-7.215 4.015-9.691a13.67 13.67 0 0 1 7.137-3.785l-13.168-49.25a2.66 2.66 0 0 1-.195-.747l-5.551-20.765h-15.785m-526.402 27.996h-.183v-.004c-.153 0-.309-.012-.457-.04-.09-.003-.18-.003-.274-.003a8.555 8.555 0 0 0-6.062 2.508 8.555 8.555 0 0 0-2.516 6.07c0 2.371.961 4.512 2.516 6.067a8.543 8.543 0 0 0 6.062 2.511c2.371 0 4.52-.96 6.067-2.511a8.546 8.546 0 0 0 2.515-6.067c0-2.37-.96-4.515-2.515-6.07a8.538 8.538 0 0 0-5.153-2.461zm53.785 14.598a8.575 8.575 0 0 0 6.07 2.511c2.372 0 4.512-.96 6.067-2.511a8.546 8.546 0 0 0 2.516-6.067c0-2.37-.961-4.515-2.516-6.07a8.572 8.572 0 0 0-6.066-2.508 8.586 8.586 0 0 0-6.07 2.508 8.581 8.581 0 0 0-2.508 6.07c0 2.371.96 4.512 2.507 6.067zm-64.703-67.262 8.594 32.148h65.442l15.308-32.148zM85.02 335.918a2.566 2.566 0 0 1-2.567-2.566 2.572 2.572 0 0 1 2.567-2.575h17.757c1.235 0 2.274.88 2.512 2.047l5.613 21.004h94.785a2.566 2.566 0 0 1 2.567 2.567c0 .43-.106.84-.293 1.195l-17.707 37.195a2.57 2.57 0 0 1-2.32 1.465h-65.692l2.735 10.238h56.351c.113 0 .223.012.332.024.457-.043.922-.07 1.39-.07 3.79 0 7.216 1.535 9.7 4.019a13.681 13.681 0 0 1 4.016 9.7c0 3.788-1.536 7.214-4.016 9.698a13.668 13.668 0 0 1-9.7 4.02 13.675 13.675 0 0 1-9.698-4.02 13.668 13.668 0 0 1-4.02-9.699c0-3.226 1.117-6.187 2.977-8.531h-39.286A13.655 13.655 0 0 1 136 420.16c0 3.79-1.535 7.215-4.02 9.7a13.668 13.668 0 0 1-9.699 4.019 13.659 13.659 0 0 1-9.695-4.02 13.665 13.665 0 0 1-4.016-9.699 13.67 13.67 0 0 1 4.016-9.7 13.675 13.675 0 0 1 7.133-3.776l-13.164-49.258a2.67 2.67 0 0 1-.203-.746l-5.547-20.762H85.02m606.058-233.355h-.187v-.004c-.157 0-.305-.012-.453-.04-.094-.003-.18-.003-.274-.003-2.371 0-4.516.96-6.07 2.515a8.57 8.57 0 0 0-2.508 6.063 8.568 8.568 0 0 0 8.578 8.582 8.556 8.556 0 0 0 6.066-2.512 8.568 8.568 0 0 0 2.512-6.07c0-2.367-.96-4.508-2.512-6.063a8.558 8.558 0 0 0-5.152-2.469zm53.785 14.601a8.566 8.566 0 0 0 6.067 2.512c2.37 0 4.52-.961 6.066-2.512a8.555 8.555 0 0 0 2.516-6.07 8.545 8.545 0 0 0-2.516-6.063 8.54 8.54 0 0 0-6.066-2.515c-2.367 0-4.512.96-6.067 2.515a8.54 8.54 0 0 0-2.511 6.063c0 2.37.957 4.515 2.511 6.07zm-47.027-35.113-8.461-32.149h-9.223l8.598 32.149zm13.953 0-8.46-32.149h-8.653l8.46 32.149zm13.953 0-8.46-32.149h-8.657l8.46 32.149zm13.95 0-8.462-32.149h-8.652l8.461 32.149zm14.19 0-8.694-32.149h-8.653l8.453 32.149zm9.95-32.149 3.188 11.11 6.683-11.11zm-5.246.332a2.013 2.013 0 0 1-.07-.332h-8.012l7.195 26.61 5.711-9.492zM652.902 26.855a2.576 2.576 0 0 1-2.574-2.57 2.572 2.572 0 0 1 2.574-2.566h17.75c1.243 0 2.274.875 2.52 2.043l5.613 21h99.45a2.564 2.564 0 0 1 2.566 2.57c0 .559-.176 1.074-.477 1.492L758.012 85.93a2.574 2.574 0 0 1-2.2 1.254v.004h-65.69l2.737 10.242h56.348c.113 0 .223.004.328.015.461-.043.922-.062 1.395-.062 3.789 0 7.218 1.531 9.703 4.015a13.688 13.688 0 0 1 4.015 9.696c0 3.789-1.539 7.222-4.015 9.699a13.677 13.677 0 0 1-9.703 4.02 13.659 13.659 0 0 1-9.696-4.02 13.654 13.654 0 0 1-4.02-9.7 13.69 13.69 0 0 1 2.973-8.53h-39.285a13.648 13.648 0 0 1 2.977 8.53c0 3.79-1.535 7.223-4.016 9.7a13.675 13.675 0 0 1-9.699 4.02 13.673 13.673 0 0 1-9.7-4.02 13.654 13.654 0 0 1-4.019-9.7c0-3.784 1.535-7.214 4.02-9.695a13.695 13.695 0 0 1 7.133-3.78l-13.164-49.25a2.86 2.86 0 0 1-.2-.755l-5.547-20.758h-15.785m40.618 668.711h-.188v-.004c-.156 0-.309-.015-.457-.042-.09-.004-.18-.004-.27-.004-2.37 0-4.511.96-6.066 2.511a8.555 8.555 0 0 0-2.516 6.07 8.53 8.53 0 0 0 2.516 6.063 8.546 8.546 0 0 0 6.066 2.516 8.545 8.545 0 0 0 6.067-2.516 8.543 8.543 0 0 0 2.512-6.062 8.568 8.568 0 0 0-7.664-8.532zm53.789 14.594a8.53 8.53 0 0 0 6.062 2.516 8.553 8.553 0 0 0 6.07-2.516 8.543 8.543 0 0 0 2.512-6.062c0-2.371-.96-4.516-2.515-6.07a8.552 8.552 0 0 0-6.067-2.512c-2.367 0-4.516.96-6.062 2.511a8.555 8.555 0 0 0-2.516 6.07 8.53 8.53 0 0 0 2.516 6.063zm-47.028-35.105-8.465-32.153h-9.218l8.593 32.153zm13.95 0-8.461-32.153h-8.653l8.461 32.153zm13.953 0-8.461-32.153h-8.653l8.457 32.153zm13.949 0-8.461-32.153h-8.649l8.457 32.153zm14.187 0-8.691-32.153h-8.656l8.46 32.153zm9.95-32.153 3.19 11.106 6.685-11.106zm-5.239.332a2.028 2.028 0 0 1-.074-.332h-8.016l7.2 26.614 5.707-9.493zM655.34 619.852a2.566 2.566 0 1 1 0-5.133h17.758c1.238 0 2.273.879 2.515 2.047l5.61 20.996h99.457a2.572 2.572 0 0 1 2.566 2.57c0 .555-.18 1.074-.484 1.496l-22.313 37.106a2.548 2.548 0 0 1-2.191 1.246v.008h-65.7l2.739 10.238h56.351c.114 0 .223.008.332.023.457-.047.922-.07 1.391-.07 3.79 0 7.215 1.535 9.7 4.02a13.674 13.674 0 0 1 4.015 9.699c0 3.785-1.535 7.215-4.016 9.699a13.697 13.697 0 0 1-9.699 4.015 13.702 13.702 0 0 1-9.7-4.015 13.691 13.691 0 0 1-4.019-9.7c0-3.226 1.118-6.195 2.98-8.53h-39.284a13.661 13.661 0 0 1 2.976 8.53 13.68 13.68 0 0 1-4.023 9.7 13.688 13.688 0 0 1-9.696 4.015 13.7 13.7 0 0 1-9.699-4.015 13.691 13.691 0 0 1-4.02-9.7c0-3.788 1.54-7.218 4.02-9.699a13.68 13.68 0 0 1 7.133-3.78l-13.164-49.255a2.419 2.419 0 0 1-.195-.746l-5.555-20.765H655.34" fill-rule="evenodd"/><g clip-path="url(#d)"><path fill="#004aad" d="M126.5 54.852h-.188v-.004c-.156 0-.308-.012-.457-.04-.085-.003-.18-.003-.273-.003a8.553 8.553 0 0 0-6.062 2.508 8.552 8.552 0 0 0-2.512 6.07c0 2.37.957 4.512 2.512 6.066a8.553 8.553 0 0 0 6.062 2.508 8.558 8.558 0 0 0 6.07-2.508 8.546 8.546 0 0 0 2.516-6.066 8.553 8.553 0 0 0-2.516-6.07 8.549 8.549 0 0 0-5.152-2.461zm53.785 14.597a8.556 8.556 0 0 0 6.067 2.508 8.565 8.565 0 0 0 8.578-8.574 8.565 8.565 0 0 0-8.578-8.578 8.57 8.57 0 0 0-8.579 8.578c0 2.37.961 4.512 2.512 6.066zm-47.027-35.113-8.461-32.152h-9.219l8.594 32.152zm13.953 0L138.75 2.184h-8.652l8.46 32.152zm13.95 0-8.458-32.152h-8.652l8.46 32.152zm13.956 0-8.46-32.152H158l8.46 32.152zm14.188 0-8.7-32.152h-8.652l8.461 32.152zm9.949-32.152 3.191 11.113 6.68-11.113zm-5.242.34a2.192 2.192 0 0 1-.07-.34h-8.02l7.203 26.617 5.707-9.496zM112.57-9.064l1.633 6.114h99.453a2.569 2.569 0 0 1 2.09 4.062L193.434 38.22a2.553 2.553 0 0 1-2.2 1.246v.008h-65.691l2.738 10.238h56.352c.11 0 .219.012.328.023.457-.047.922-.07 1.39-.07 3.79 0 7.22 1.535 9.7 4.02a13.654 13.654 0 0 1 4.02 9.699 13.67 13.67 0 0 1-4.02 9.699 13.674 13.674 0 0 1-9.7 4.016 13.682 13.682 0 0 1-9.699-4.016 13.681 13.681 0 0 1-4.015-9.7c0-3.226 1.11-6.19 2.976-8.53h-39.285a13.643 13.643 0 0 1 2.973 8.53c0 3.79-1.535 7.216-4.016 9.7a13.683 13.683 0 0 1-9.703 4.016 13.695 13.695 0 0 1-9.7-4.016 13.697 13.697 0 0 1-4.015-9.7c0-3.792 1.54-7.218 4.016-9.698a13.694 13.694 0 0 1 7.137-3.782L109.855.648a2.656 2.656 0 0 1-.199-.75l-2.394-8.96h5.308" fill-rule="evenodd"/></g><path fill="#004aad" d="M128.941 671.441h-.191a2.97 2.97 0 0 1-.453-.043l-.27-.003c-2.37 0-4.515.96-6.066 2.511a8.559 8.559 0 0 0-2.512 6.067 8.568 8.568 0 0 0 8.578 8.578 8.568 8.568 0 0 0 8.578-8.578 8.56 8.56 0 0 0-2.511-6.067 8.553 8.553 0 0 0-5.153-2.465zm53.786 14.602a8.565 8.565 0 0 0 6.07 2.508 8.54 8.54 0 0 0 6.062-2.508 8.555 8.555 0 0 0 2.516-6.07c0-2.371-.96-4.512-2.516-6.067a8.543 8.543 0 0 0-6.062-2.511c-2.371 0-4.516.96-6.07 2.511a8.559 8.559 0 0 0-2.512 6.067c0 2.37.96 4.515 2.512 6.07zm-47.028-35.113-8.457-32.153h-9.219l8.586 32.153zm13.95 0-8.454-32.153h-8.656L141 650.93zm13.956 0-8.46-32.153h-8.653l8.461 32.153zm13.954 0-8.461-32.153h-8.653l8.457 32.153zm14.187 0-8.695-32.153h-8.653l8.461 32.153zm9.95-32.153 3.187 11.11 6.68-11.11zm-5.247.336c-.031-.11-.05-.226-.07-.336h-8.012l7.196 26.614 5.71-9.493zM90.766 595.73a2.566 2.566 0 0 1-2.57-2.566 2.572 2.572 0 0 1 2.57-2.57h17.75c1.242 0 2.273.879 2.52 2.047l5.609 21.004h99.453a2.569 2.569 0 0 1 2.09 4.062l-22.313 37.102a2.548 2.548 0 0 1-2.2 1.246v.008h-65.69l2.738 10.242h56.347c.11 0 .227.008.336.02.457-.044.922-.067 1.39-.067a13.69 13.69 0 0 1 9.7 4.015 13.697 13.697 0 0 1 4.016 9.7c0 3.785-1.54 7.215-4.016 9.699a13.675 13.675 0 0 1-9.7 4.02 13.661 13.661 0 0 1-9.698-4.02 13.675 13.675 0 0 1-4.02-9.7c0-3.226 1.113-6.187 2.977-8.53h-39.29a13.632 13.632 0 0 1 2.977 8.53c0 3.786-1.531 7.216-4.015 9.7a13.668 13.668 0 0 1-9.7 4.02 13.668 13.668 0 0 1-9.699-4.02 13.675 13.675 0 0 1-4.02-9.7c0-3.788 1.536-7.214 4.02-9.699a13.658 13.658 0 0 1 7.137-3.777L112.3 617.242a2.57 2.57 0 0 1-.203-.75l-5.547-20.762H90.766m496.613-362.562h-.188v-.004c-.156 0-.308-.016-.457-.039-.09-.004-.18-.004-.27-.004-2.37 0-4.515.961-6.066 2.508a8.555 8.555 0 0 0-2.515 6.07c0 2.371.96 4.512 2.515 6.067a8.552 8.552 0 0 0 6.067 2.511c2.367 0 4.512-.96 6.066-2.511a8.559 8.559 0 0 0 2.512-6.067 8.568 8.568 0 0 0-7.664-8.531zm53.785 14.598a8.552 8.552 0 0 0 6.066 2.511 8.568 8.568 0 0 0 8.579-8.578c0-2.37-.961-4.515-2.508-6.07a8.581 8.581 0 0 0-6.07-2.508 8.565 8.565 0 0 0-8.579 8.578 8.56 8.56 0 0 0 2.512 6.067zm11.328-66.961h13.895v13.894a2.572 2.572 0 0 0 5.14 0v-13.894h13.891a2.57 2.57 0 1 0 0-5.14h-13.89V161.77a2.572 2.572 0 0 0-2.571-2.57 2.572 2.572 0 0 0-2.57 2.57v13.894h-13.895a2.566 2.566 0 0 0-2.566 2.566 2.572 2.572 0 0 0 2.566 2.575zm-13.183-.305h-62.852l8.594 32.152h65.445l4.012-8.425a29.766 29.766 0 0 1-6.574-4.97 29.62 29.62 0 0 1-8.625-18.757zm5.054-2.633v.067c0 .039 0 .074-.004.113v.183a24.534 24.534 0 0 0 7.203 17.395 24.51 24.51 0 0 0 17.395 7.203c6.79 0 12.941-2.75 17.395-7.203a24.53 24.53 0 0 0 7.199-17.395c0-6.792-2.75-12.94-7.2-17.39-4.453-4.45-10.605-7.207-17.394-7.207a24.53 24.53 0 0 0-17.394 7.207 24.518 24.518 0 0 0-7.2 17.027zm-95.164-20.41a2.568 2.568 0 0 1-2.566-2.566 2.572 2.572 0 0 1 2.566-2.575h17.754c1.238 0 2.274.88 2.516 2.047l5.613 21.004h64.281a29.583 29.583 0 0 1 8.57-18.156 29.61 29.61 0 0 1 21.024-8.711c8.207 0 15.64 3.324 21.023 8.71 5.38 5.376 8.711 12.81 8.711 21.02 0 8.211-3.332 15.649-8.71 21.028-5.383 5.379-12.817 8.71-21.024 8.71a29.68 29.68 0 0 1-9.762-1.64l-4.761 9.996a2.577 2.577 0 0 1-2.32 1.465h-65.692l2.734 10.238h56.348c.117 0 .23.012.336.024.46-.043.922-.07 1.39-.07a13.67 13.67 0 0 1 9.7 4.019 13.661 13.661 0 0 1 4.02 9.7c0 3.788-1.536 7.214-4.02 9.698a13.681 13.681 0 0 1-9.7 4.016 13.68 13.68 0 0 1-9.699-4.016 13.681 13.681 0 0 1-4.015-9.699 13.67 13.67 0 0 1 2.976-8.531h-39.285a13.666 13.666 0 0 1 2.973 8.531 13.68 13.68 0 0 1-4.016 9.7 13.681 13.681 0 0 1-9.7 4.015 13.697 13.697 0 0 1-9.702-4.016 13.697 13.697 0 0 1-4.016-9.699c0-3.789 1.54-7.219 4.024-9.699a13.633 13.633 0 0 1 7.128-3.777l-13.164-49.258a2.539 2.539 0 0 1-.199-.746l-5.547-20.762H549.2" fill-rule="evenodd"/><g clip-path="url(#e)"><path fill="#004aad" d="M660.55 796.832h13.9v13.895a2.566 2.566 0 1 0 5.132 0v-13.895h13.898a2.572 2.572 0 0 0 2.57-2.566 2.572 2.572 0 0 0-2.57-2.57h-13.898v-13.9a2.566 2.566 0 1 0-5.133 0v13.9h-13.898a2.569 2.569 0 0 0 0 5.136zm-8.128-2.934v.177l-.004.19c0 6.794 2.75 12.942 7.207 17.391 4.45 4.45 10.598 7.207 17.39 7.207 6.794 0 12.942-2.758 17.391-7.207a24.505 24.505 0 0 0 7.207-17.39 24.507 24.507 0 0 0-7.207-17.395 24.516 24.516 0 0 0-17.39-7.207 24.522 24.522 0 0 0-17.391 7.207 24.521 24.521 0 0 0-7.203 17.027zm-95.16-20.41a2.569 2.569 0 0 1-2.57-2.566 2.573 2.573 0 0 1 2.57-2.574h17.75c1.242 0 2.273.879 2.515 2.047l5.618 21.003h64.273c.676-7.07 3.828-13.41 8.57-18.16 5.383-5.379 12.817-8.71 21.028-8.71 8.21 0 15.644 3.331 21.027 8.71a29.649 29.649 0 0 1 8.707 21.028c0 8.21-3.328 15.644-8.707 21.023a29.967 29.967 0 0 1-4.438 3.656h-33.18a29.967 29.967 0 0 1-4.437-3.656 29.636 29.636 0 0 1-8.62-18.758h-62.856l5.992 22.414h-5.309l-6.398-23.949a2.473 2.473 0 0 1-.203-.75l-5.547-20.758h-15.785" fill-rule="evenodd"/></g><path fill="#004aad" d="M59.734 197.805a8.559 8.559 0 0 0 6.067 2.511c2.37 0 4.515-.96 6.066-2.511a8.555 8.555 0 0 0 2.516-6.07 8.53 8.53 0 0 0-2.516-6.063 8.54 8.54 0 0 0-6.066-2.516 8.547 8.547 0 0 0-6.067 2.516 8.543 8.543 0 0 0-2.511 6.062c0 2.371.96 4.516 2.511 6.07zm11.328-66.965h13.895v13.894a2.572 2.572 0 0 0 2.57 2.57 2.575 2.575 0 0 0 2.57-2.57V130.84h13.895a2.566 2.566 0 0 0 2.567-2.567 2.566 2.566 0 0 0-2.567-2.57H90.098v-13.898a2.574 2.574 0 0 0-2.57-2.567 2.572 2.572 0 0 0-2.571 2.567v13.898H71.063a2.564 2.564 0 0 0-2.567 2.57 2.563 2.563 0 0 0 2.567 2.567zm-8.128-2.934v.367a24.52 24.52 0 0 0 7.199 17.391 24.52 24.52 0 0 0 17.394 7.203 24.534 24.534 0 0 0 17.395-7.203 24.524 24.524 0 0 0 7.203-17.39c0-6.794-2.754-12.942-7.203-17.399a24.53 24.53 0 0 0-17.395-7.2 24.517 24.517 0 0 0-17.394 7.2 24.51 24.51 0 0 0-7.2 17.031zM0 125.402h57.93c.675-7.066 3.828-13.41 8.57-18.156 5.379-5.379 12.816-8.71 21.027-8.71s15.645 3.331 21.024 8.71c5.379 5.383 8.71 12.817 8.71 21.027 0 8.211-3.331 15.641-8.71 21.024-5.38 5.379-12.813 8.707-21.024 8.707-3.422 0-6.707-.578-9.765-1.64L73 166.358a2.56 2.56 0 0 1-2.316 1.47H4.996l2.73 10.241h56.352c.113 0 .223.004.332.02a13.697 13.697 0 0 1 11.09 3.945 13.688 13.688 0 0 1 4.016 9.7c0 3.788-1.536 7.214-4.016 9.699a13.668 13.668 0 0 1-9.7 4.02 13.675 13.675 0 0 1-9.698-4.02 13.684 13.684 0 0 1-4.02-9.7c0-3.222 1.117-6.187 2.98-8.53H15.773a13.666 13.666 0 0 1 2.98 8.53c0 3.79-1.538 7.215-4.019 9.7a13.668 13.668 0 0 1-9.699 4.02A13.57 13.57 0 0 1 0 204.495v-5.809a8.566 8.566 0 0 0 5.035 1.63 8.565 8.565 0 0 0 6.067-2.512 8.568 8.568 0 0 0 2.511-6.07c0-2.368-.96-4.516-2.511-6.063a8.547 8.547 0 0 0-5.157-2.469h-.183c-.157 0-.309-.016-.457-.043-.09 0-.18-.004-.27-.004A8.542 8.542 0 0 0 0 184.79v-5.816a13.65 13.65 0 0 1 2.473-.715L0 169.02v-19.868l3.621 13.54h65.442l4.015-8.43a29.893 29.893 0 0 1-6.578-4.965c-4.879-4.883-8.07-11.45-8.621-18.754H0v-5.14" fill-rule="evenodd"/><g clip-path="url(#f)"><path fill="#004aad" d="M74.066 757.54h13.895v13.898a2.569 2.569 0 1 0 5.137 0v-13.899h13.894a2.569 2.569 0 0 0 2.57-2.566 2.569 2.569 0 0 0-2.57-2.567H93.098v-13.894a2.563 2.563 0 0 0-2.567-2.567 2.564 2.564 0 0 0-2.57 2.567v13.894H74.066a2.566 2.566 0 1 0 0 5.133zm-8.129-2.93v.066c0 .039-.003.074-.003.113v.184c0 6.793 2.75 12.941 7.203 17.398a24.53 24.53 0 0 0 17.394 7.2c6.79 0 12.942-2.75 17.39-7.2a24.533 24.533 0 0 0 7.204-17.398c0-6.793-2.75-12.942-7.203-17.391a24.524 24.524 0 0 0-17.39-7.203 24.534 24.534 0 0 0-17.395 7.203 24.518 24.518 0 0 0-7.2 17.027zM0 752.104h60.93a29.654 29.654 0 0 1 8.578-18.156 29.623 29.623 0 0 1 21.023-8.707c8.211 0 15.64 3.324 21.024 8.707 5.382 5.383 8.71 12.817 8.71 21.024 0 8.21-3.328 15.644-8.71 21.027-5.383 5.379-12.813 8.707-21.024 8.707-3.422 0-6.707-.578-9.765-1.637l-4.762 9.996a2.567 2.567 0 0 1-2.317 1.465H7.998l2.733 10.239h56.348c.117 0 .227.007.336.023.457-.05.922-.07 1.39-.07 3.786 0 7.22 1.535 9.7 4.02a13.668 13.668 0 0 1 4.02 9.698c0 .164-.004.332-.008.504H77.37c.008-.172.012-.34.012-.504 0-2.37-.961-4.515-2.508-6.07a8.559 8.559 0 0 0-6.07-2.512 8.536 8.536 0 0 0-6.067 2.512 8.555 8.555 0 0 0-2.515 6.07c0 .164.007.332.02.504h-5.145c-.008-.172-.008-.34-.008-.504 0-3.226 1.11-6.187 2.976-8.53H18.777a13.655 13.655 0 0 1 2.977 8.53c0 .164-.004.332-.008.504h-5.144a11.1 11.1 0 0 0 .011-.504c0-2.37-.96-4.515-2.508-6.07a8.57 8.57 0 0 0-5.152-2.46h-.187v-.005c-.157 0-.309-.015-.457-.039-.09-.008-.18-.008-.274-.008a8.543 8.543 0 0 0-6.066 2.512A8.565 8.565 0 0 0 0 815.43v-8.106a13.597 13.597 0 0 1 5.473-2.36L0 784.485v-19.867l6.621 24.778h65.45l4.011-8.43A29.75 29.75 0 0 1 69.508 776c-4.883-4.883-8.078-11.45-8.625-18.754H0v-5.14" fill-rule="evenodd"/></g><path fill="#004aad" d="M550.258 117.43h-.192v-.008c-.152 0-.3-.012-.449-.04-.094-.003-.18-.003-.273-.003a8.568 8.568 0 0 0-8.578 8.582 8.56 8.56 0 0 0 2.507 6.062 8.555 8.555 0 0 0 6.07 2.516c2.372 0 4.512-.96 6.067-2.516a8.55 8.55 0 0 0 2.512-6.062 8.568 8.568 0 0 0-7.664-8.531zm53.785 14.593a8.555 8.555 0 0 0 6.07 2.516c2.364 0 4.512-.96 6.063-2.516a8.534 8.534 0 0 0 2.511-6.062 8.552 8.552 0 0 0-2.511-6.07 8.557 8.557 0 0 0-6.063-2.512c-2.37 0-4.515.96-6.07 2.512a8.552 8.552 0 0 0-2.512 6.07 8.53 8.53 0 0 0 2.512 6.062zm11.328-66.96h32.93a2.569 2.569 0 0 0 0-5.137h-32.93a2.569 2.569 0 1 0 0 5.136zm-13.183-.297h-62.856l8.594 32.144h65.445l4.012-8.426a29.962 29.962 0 0 1-6.574-4.964c-4.88-4.883-8.07-11.454-8.621-18.754zm5.054-2.633v.172l-.004.187c0 6.793 2.75 12.942 7.207 17.395a24.501 24.501 0 0 0 17.39 7.203c6.794 0 12.942-2.75 17.392-7.203a24.505 24.505 0 0 0 7.207-17.395c0-6.793-2.75-12.941-7.207-17.39a24.501 24.501 0 0 0-17.391-7.204 24.501 24.501 0 0 0-17.39 7.204 24.497 24.497 0 0 0-7.204 17.03zm-95.16-20.418a2.566 2.566 0 1 1 0-5.133h17.75c1.238 0 2.273.875 2.52 2.04l5.613 21.003h64.273a29.666 29.666 0 0 1 8.57-18.16c5.383-5.38 12.817-8.707 21.028-8.707 8.21 0 15.644 3.328 21.023 8.707a29.64 29.64 0 0 1 8.707 21.027 29.64 29.64 0 0 1-8.707 21.028 29.636 29.636 0 0 1-21.023 8.703c-3.418 0-6.707-.575-9.766-1.637l-4.761 10a2.563 2.563 0 0 1-2.317 1.465h-65.691l2.738 10.238h56.348c.11 0 .222.008.328.023.46-.046.926-.07 1.398-.07 3.785 0 7.215 1.535 9.692 4.02a13.665 13.665 0 0 1 4.023 9.699c0 3.785-1.539 7.215-4.023 9.7a13.669 13.669 0 0 1-9.692 4.01 13.689 13.689 0 0 1-9.699-4.01 13.675 13.675 0 0 1-4.02-9.7 13.66 13.66 0 0 1 2.973-8.531h-39.285a13.615 13.615 0 0 1 2.977 8.53c0 3.786-1.532 7.216-4.016 9.7a13.7 13.7 0 0 1-9.7 4.012 13.684 13.684 0 0 1-9.698-4.012 13.675 13.675 0 0 1-4.02-9.7c0-3.788 1.535-7.218 4.02-9.698a13.677 13.677 0 0 1 7.136-3.782l-13.168-49.253a2.805 2.805 0 0 1-.199-.747l-5.547-20.765h-15.785m34.996 692.305h-.187c-.153 0-.305-.02-.453-.043-.09-.004-.18-.008-.27-.008-2.371 0-4.52.96-6.066 2.515a8.546 8.546 0 0 0-2.516 6.067c0 2.367.96 4.515 2.512 6.066a8.545 8.545 0 0 0 6.07 2.512 8.527 8.527 0 0 0 6.062-2.512 8.546 8.546 0 0 0 2.516-6.066c0-2.371-.96-4.512-2.516-6.067a8.543 8.543 0 0 0-5.152-2.464zm53.79 14.597a8.543 8.543 0 0 0 6.066 2.512 8.543 8.543 0 0 0 6.066-2.512 8.546 8.546 0 0 0 2.516-6.066 8.547 8.547 0 0 0-2.516-6.067 8.546 8.546 0 0 0-6.066-2.515c-2.368 0-4.516.96-6.067 2.515a8.559 8.559 0 0 0-2.512 6.067c0 2.367.961 4.515 2.512 6.066zm11.327-66.965h32.93a2.569 2.569 0 0 0 0-5.137h-32.93a2.566 2.566 0 0 0-2.566 2.57 2.563 2.563 0 0 0 2.566 2.567zm-13.183-.297H536.16l8.594 32.149h65.441l4.012-8.43a29.801 29.801 0 0 1-6.57-4.96c-4.88-4.884-8.074-11.454-8.625-18.759zm5.054-2.628v.359a24.51 24.51 0 0 0 7.2 17.39 24.505 24.505 0 0 0 17.39 7.208 24.523 24.523 0 0 0 17.399-7.207 24.518 24.518 0 0 0 7.203-17.391 24.534 24.534 0 0 0-7.203-17.395 24.52 24.52 0 0 0-17.399-7.203 24.501 24.501 0 0 0-17.39 7.203c-4.371 4.375-7.106 10.387-7.2 17.036zm-95.164-20.418a2.566 2.566 0 0 1-2.566-2.57 2.566 2.566 0 0 1 2.566-2.567h17.754c1.242 0 2.278.879 2.516 2.043l5.613 21.004h64.278a29.649 29.649 0 0 1 8.574-18.16 29.64 29.64 0 0 1 21.02-8.707 29.65 29.65 0 0 1 21.027 8.707c5.379 5.382 8.71 12.816 8.71 21.027 0 8.21-3.332 15.644-8.71 21.027a29.649 29.649 0 0 1-21.028 8.707 29.57 29.57 0 0 1-9.758-1.644l-4.761 10.004a2.573 2.573 0 0 1-2.32 1.46h-65.692l2.734 10.243h56.352c.113 0 .223.008.332.023.457-.05.922-.07 1.39-.07a13.68 13.68 0 0 1 9.7 4.016 13.688 13.688 0 0 1 4.015 9.699 13.69 13.69 0 0 1-4.015 9.703 13.697 13.697 0 0 1-9.7 4.016c-3.785 0-7.214-1.54-9.699-4.016a13.694 13.694 0 0 1-4.02-9.703c0-3.223 1.118-6.192 2.981-8.531h-39.289a13.658 13.658 0 0 1 2.98 8.53c0 3.79-1.538 7.22-4.023 9.704a13.688 13.688 0 0 1-9.695 4.016c-3.79 0-7.215-1.54-9.7-4.016a13.69 13.69 0 0 1-4.015-9.703c0-3.785 1.535-7.215 4.016-9.696a13.653 13.653 0 0 1 7.133-3.78l-13.164-49.255a2.571 2.571 0 0 1-.2-.746l-5.55-20.765h-15.786" fill-rule="evenodd"/><g clip-path="url(#g)"><path fill="#004aad" d="M33.29 83.184a8.537 8.537 0 0 0 6.062 2.515c2.37 0 4.515-.96 6.07-2.515a8.543 8.543 0 0 0 2.512-6.063c0-2.371-.961-4.52-2.512-6.066a8.555 8.555 0 0 0-6.07-2.516 8.536 8.536 0 0 0-6.063 2.516 8.532 8.532 0 0 0-2.516 6.066 8.53 8.53 0 0 0 2.516 6.063zm11.323-66.961h32.93a2.569 2.569 0 1 0 0-5.137h-32.93a2.566 2.566 0 0 0-2.566 2.57 2.566 2.566 0 0 0 2.566 2.567zM0 63.453h37.629a3.1 3.1 0 0 1 .332.016c.46-.043.922-.063 1.39-.063 3.79 0 7.22 1.532 9.7 4.016a13.668 13.668 0 0 1 4.02 9.7c0 3.784-1.536 7.218-4.02 9.694a13.661 13.661 0 0 1-9.7 4.02 13.675 13.675 0 0 1-9.699-4.02 13.681 13.681 0 0 1-4.015-9.695c0-3.226 1.113-6.191 2.976-8.535H0zm0-52.668h31.484a29.614 29.614 0 0 1 8.57-18.156 27.02 27.02 0 0 1 1.844-1.691h9.739a24.717 24.717 0 0 0-7.953 5.324 24.54 24.54 0 0 0-7.204 17.035l.008.062c0 .036-.008.07-.008.106v.191c0 6.79 2.754 12.942 7.204 17.39a24.536 24.536 0 0 0 17.398 7.204c6.79 0 12.941-2.754 17.39-7.203a24.528 24.528 0 0 0 7.208-17.39c0-6.794-2.758-12.942-7.207-17.395a24.675 24.675 0 0 0-7.953-5.325h9.742c.636.536 1.25 1.102 1.843 1.692 5.38 5.383 8.707 12.816 8.707 21.027 0 8.207-3.328 15.64-8.707 21.02a29.631 29.631 0 0 1-21.023 8.71c-3.426 0-6.707-.577-9.766-1.64L46.555 51.75a2.567 2.567 0 0 1-2.317 1.46H0v-5.136h42.617l4.012-8.43a29.857 29.857 0 0 1-6.574-4.968 29.65 29.65 0 0 1-8.625-18.75H0v-5.14" fill-rule="evenodd"/></g><path fill="#004aad" d="M29.547 694.723a8.555 8.555 0 0 0 6.07 2.515c2.367 0 4.512-.96 6.067-2.515a8.555 8.555 0 0 0 2.515-6.067 8.546 8.546 0 0 0-2.515-6.062 8.553 8.553 0 0 0-6.067-2.516c-2.37 0-4.515.961-6.07 2.516a8.54 8.54 0 0 0-2.508 6.062 8.55 8.55 0 0 0 2.508 6.067zm11.328-66.961h32.934a2.572 2.572 0 0 0 0-5.14H40.875a2.569 2.569 0 0 0-2.566 2.57 2.566 2.566 0 0 0 2.566 2.57zm-8.129-2.934v.063c0 .035 0 .074-.004.109v.191a24.505 24.505 0 0 0 7.207 17.391 24.505 24.505 0 0 0 17.39 7.207 24.52 24.52 0 0 0 17.395-7.207 24.518 24.518 0 0 0 7.204-17.39 24.53 24.53 0 0 0-7.204-17.395 24.534 24.534 0 0 0-17.394-7.203 24.518 24.518 0 0 0-17.39 7.203 24.497 24.497 0 0 0-7.204 17.031zM0 674.988h33.895c.109 0 .222.008.332.02a13.684 13.684 0 0 1 11.09 3.95 13.681 13.681 0 0 1 4.015 9.698 13.68 13.68 0 0 1-4.016 9.7 13.665 13.665 0 0 1-9.699 4.015 13.665 13.665 0 0 1-9.699-4.016 13.668 13.668 0 0 1-4.02-9.699c0-3.222 1.114-6.191 2.977-8.531H0zm0-52.664h27.746a29.614 29.614 0 0 1 8.57-18.156c5.38-5.379 12.813-8.711 21.024-8.711 8.21 0 15.644 3.332 21.027 8.711 5.38 5.383 8.707 12.812 8.707 21.023s-3.328 15.645-8.707 21.024c-5.383 5.383-12.816 8.71-21.027 8.71-3.418 0-6.703-.577-9.762-1.64l-4.762 9.996a2.576 2.576 0 0 1-2.32 1.469H0v-5.137h38.879l4.012-8.43a29.766 29.766 0 0 1-6.575-4.968 29.64 29.64 0 0 1-8.625-18.75H0v-5.14" fill-rule="evenodd"/><g clip-path="url(#h)"><path fill="#004aad" d="M828.008 280.773v-8.933l-56.258 80.578a2.563 2.563 0 0 0 .633 3.562 2.554 2.554 0 0 0 3.558-.628zm0 75.868c-5.301-.153-10.055-2.852-13.492-7.137-3.422-4.262-5.532-10.106-5.532-16.531 0-6.426 2.11-12.27 5.532-16.532 3.437-4.285 8.191-6.984 13.492-7.136v5.14c-3.672.157-7.02 2.118-9.5 5.207-2.707 3.38-4.39 8.086-4.39 13.32 0 5.231 1.683 9.942 4.39 13.321 2.48 3.09 5.828 5.05 9.5 5.207zm-52.156-64.344c2.582 3.223 6.117 5.215 9.98 5.215 3.856 0 7.387-1.992 9.977-5.215 2.714-3.383 4.39-8.086 4.39-13.32 0-5.239-1.676-9.942-4.39-13.32-2.59-3.227-6.121-5.22-9.977-5.22-3.863 0-7.398 1.993-9.98 5.22-2.715 3.378-4.391 8.081-4.391 13.32 0 5.234 1.676 9.937 4.39 13.32zm9.98 10.355c-5.496 0-10.434-2.73-13.977-7.144-3.418-4.262-5.53-10.106-5.53-16.531 0-6.426 2.112-12.27 5.53-16.532 3.543-4.418 8.48-7.144 13.977-7.144 5.488 0 10.426 2.726 13.973 7.144 3.414 4.262 5.527 10.106 5.527 16.532 0 6.425-2.113 12.27-5.527 16.53-3.547 4.415-8.485 7.145-13.973 7.145" fill-rule="evenodd"/></g><path fill="#004aad" d="m274.316 208.54-67.14 96.163a2.554 2.554 0 0 0 .633 3.563 2.554 2.554 0 0 0 3.558-.633l67.14-96.168a2.55 2.55 0 0 0-.632-3.559 2.55 2.55 0 0 0-3.559.633zm-20.386 90.038c2.586 3.223 6.12 5.219 9.98 5.219 3.863 0 7.39-1.996 9.98-5.219 2.712-3.383 4.387-8.086 4.387-13.324 0-5.23-1.675-9.938-4.386-13.317-2.59-3.222-6.118-5.218-9.98-5.218-3.86 0-7.395 1.996-9.981 5.219-2.711 3.378-4.387 8.085-4.387 13.316 0 5.238 1.676 9.941 4.387 13.324zm9.98 10.356c-5.492 0-10.43-2.73-13.973-7.145-3.417-4.262-5.535-10.11-5.535-16.535 0-6.418 2.118-12.27 5.536-16.527 3.542-4.414 8.48-7.149 13.972-7.149 5.496 0 10.434 2.735 13.973 7.149 3.422 4.257 5.535 10.109 5.535 16.527 0 6.426-2.113 12.273-5.535 16.535-3.54 4.414-8.477 7.145-13.973 7.145zm-52.64-64.356c2.59 3.227 6.12 5.223 9.98 5.223 3.863 0 7.395-1.996 9.98-5.223 2.711-3.379 4.391-8.082 4.391-13.32 0-5.23-1.68-9.938-4.39-13.317-2.586-3.226-6.118-5.218-9.981-5.218-3.86 0-7.39 1.992-9.98 5.218-2.708 3.38-4.387 8.086-4.387 13.317 0 5.238 1.68 9.945 4.387 13.32zm9.98 10.356c-5.492 0-10.426-2.727-13.973-7.145-3.414-4.262-5.53-10.105-5.53-16.531 0-6.418 2.116-12.27 5.53-16.528 3.547-4.414 8.48-7.148 13.973-7.148 5.496 0 10.43 2.734 13.973 7.148 3.418 4.258 5.535 10.11 5.535 16.528 0 6.426-2.117 12.27-5.535 16.531-3.543 4.418-8.477 7.145-13.973 7.145m357.02 30.636a5.69 5.69 0 0 0 .183-2.738c-.183-1.07-.676-2.059-1.465-2.746H458.004c-.785.687-1.277 1.676-1.465 2.746a5.689 5.689 0 0 0 .188 2.738zm-110.032 64-10.07-47.699a2.564 2.564 0 0 1 2.469-3.281h113.722v.004c.172 0 .344.015.52.05a2.57 2.57 0 0 1 1.988 3.036l-10.11 47.89v-.004c-.35 2.02-1.448 3.829-2.948 5.125-1.551 1.34-3.551 2.168-5.625 2.168h-81.371c-2.075 0-4.075-.828-5.625-2.168-1.493-1.289-2.586-3.086-2.942-5.086zm45.63-74.617c.054-.137.128-.27.218-.398l18.77-27.403a2.562 2.562 0 0 1 3.562-.668 2.56 2.56 0 0 1 .672 3.559l-17.063 24.91h57.778v.004c.453 0 .914.121 1.332.375l.304.184-.004.007c2.274 1.512 3.633 3.891 4.075 6.422.43 2.477-.016 5.14-1.336 7.305l-.086.133a2.56 2.56 0 0 1-2.246 1.324H455.152v-.004a2.554 2.554 0 0 1-2.136-1.152 5.936 5.936 0 0 1-.196-.301c-1.32-2.164-1.77-4.828-1.336-7.305.43-2.465 1.73-4.785 3.903-6.308.058-.04.113-.086.168-.121l.14-.086a2.554 2.554 0 0 1 1.493-.477zm36.374 76.766 6.535-47.598c.02-.129.024-.266.024-.398h14.398l-9.457 44.804h.004c-.016.043-.02.082-.027.125-.125.825-.602 1.594-1.262 2.164-.648.559-1.457.903-2.273.903zm-14.25 0h9.117a2.49 2.49 0 0 1 .02-.414l6.531-47.582h-13.2l-.003.062-2.441 47.672c0 .094-.008.18-.024.262zm-15.926 0h10.86a2.87 2.87 0 0 1-.024-.52l2.426-47.476h-13.3c.027.14.038.285.038.433zm-16 0h10.864v-47.563c0-.148.011-.293.035-.433H501.66l2.434 47.476c.008.18 0 .352-.028.52zm-14.18 0c.005-.133 0-.274-.023-.414l-6.527-47.582h13.2v.062l2.44 47.672c.004.094.012.18.028.262zm-26.09-47.996 9.458 44.804c.02.075.027.149.035.22.149.788.613 1.523 1.25 2.07.645.558 1.457.902 2.274.902h7.94l-6.534-47.598a2.695 2.695 0 0 1-.024-.398h-14.398M0 228.36h21.652v.007c.457 0 .918.117 1.336.371l.297.188v.004c2.274 1.515 3.633 3.894 4.074 6.43.434 2.472-.015 5.136-1.336 7.296l-.082.133a2.564 2.564 0 0 1-2.246 1.328H0v-5.14h22.113c.285-.864.348-1.82.188-2.739-.184-1.066-.676-2.058-1.465-2.742H0zm0 76.769h2.027c.82 0 1.63-.344 2.278-.906.66-.57 1.133-1.332 1.265-2.16.004-.043.012-.086.02-.13h-.004l9.46-44.804H.646a2.75 2.75 0 0 1-.02.402L0 262.074v-10.078h18.207V252a2.56 2.56 0 0 1 2.508 3.086l-10.113 47.89c-.352 2.02-1.446 3.825-2.95 5.122-1.547 1.34-3.543 2.168-5.625 2.168H0v-5.137m503.246-118.152h13.899v13.894a2.57 2.57 0 0 0 2.566 2.574 2.57 2.57 0 0 0 2.566-2.574v-13.894h13.895a2.57 2.57 0 0 0 2.574-2.567 2.57 2.57 0 0 0-2.574-2.566h-13.895v-13.899a2.566 2.566 0 1 0-5.132 0v13.899h-13.899a2.566 2.566 0 1 0 0 5.133zm-13.152.085a30.76 30.76 0 0 1-.114-2.332v-.667l.004-.122v-.043a30.9 30.9 0 0 1 .125-2.324h-92.394c-.79.692-1.281 1.684-1.465 2.75a5.645 5.645 0 0 0 .188 2.738zm19.312 25.247a29.752 29.752 0 0 1-10.719-6.871c-.074-.075-.152-.149-.222-.227h-94.961l9.457 44.805c.016.074.031.148.039.222.148.785.61 1.52 1.246 2.067.649.558 1.457.906 2.274.906h81.367c.82 0 1.629-.348 2.273-.906.664-.57 1.137-1.332 1.266-2.157l.023-.132h-.004zm-13.851-23.262c.011.055.02.113.027.176a24.574 24.574 0 0 0 6.738 12.582 24.518 24.518 0 0 0 17.39 7.203 24.534 24.534 0 0 0 17.395-7.203 24.534 24.534 0 0 0 7.204-17.395 24.518 24.518 0 0 0-7.204-17.39c-4.453-4.45-10.601-7.208-17.394-7.208-6.793 0-12.941 2.758-17.39 7.208a24.505 24.505 0 0 0-7.208 17.39c0 1.586.149 3.133.442 4.637zm-41.762-13 18.77-27.402a2.567 2.567 0 0 1 3.562-.676 2.566 2.566 0 0 1 .672 3.562l-17.059 24.91h31.32a29.68 29.68 0 0 1 7.63-13.054 29.623 29.623 0 0 1 21.023-8.707 29.64 29.64 0 0 1 21.027 8.707c5.38 5.379 8.707 12.812 8.707 21.023s-3.328 15.645-8.707 21.028c-5.383 5.378-12.816 8.707-21.027 8.707-1.824 0-3.617-.165-5.352-.48l-7.898 37.39c-.348 2.023-1.445 3.828-2.95 5.125-1.546 1.34-3.542 2.168-5.624 2.168H416.52c-2.079 0-4.075-.828-5.622-2.168-1.496-1.29-2.586-3.082-2.945-5.086l-.008-.04-10.07-47.695a2.699 2.699 0 0 1-.098-.714 2.569 2.569 0 0 1 2.567-2.57h94.09a29.455 29.455 0 0 1-3.422-7.88h-96.157v-.004a2.556 2.556 0 0 1-2.136-1.148 32.678 32.678 0 0 1-.192-.305c-1.32-2.164-1.77-4.828-1.336-7.297.43-2.476 1.73-4.793 3.907-6.316.054-.043.105-.082.164-.117l.14-.09c.422-.3.938-.477 1.496-.477h57.47l-.575-.394" fill-rule="evenodd"/><g clip-path="url(#i)"><path fill="#004aad" d="M507.375 799.64h13.895v13.895a2.566 2.566 0 0 0 2.566 2.567 2.572 2.572 0 0 0 2.574-2.567v-13.894h13.895a2.57 2.57 0 0 0 0-5.14l-13.895-.001v-13.895a2.572 2.572 0 0 0-2.574-2.566 2.566 2.566 0 0 0-2.566 2.566V794.5h-13.895a2.572 2.572 0 0 0 0 5.14zm-13.156.079a28.691 28.691 0 0 1-.11-2.332c-.004-.102-.004-.207-.004-.32 0-.11 0-.223.004-.34v-.172c.012-.778.055-1.555.133-2.317H401.84c-.79.688-1.281 1.676-1.465 2.742a5.682 5.682 0 0 0 .188 2.739zm-36.301-11.012 18.773-27.406a2.56 2.56 0 0 1 3.559-.672 2.567 2.567 0 0 1 .672 3.566l-17.059 24.903h31.32a29.66 29.66 0 0 1 7.633-13.051c5.38-5.379 12.813-8.711 21.02-8.711 8.21 0 15.644 3.332 21.027 8.71 5.38 5.38 8.707 12.817 8.707 21.02a29.644 29.644 0 0 1-9.59 21.88h-8.878a24.794 24.794 0 0 0 6.128-4.481 24.506 24.506 0 0 0 7.204-17.399 24.51 24.51 0 0 0-7.204-17.39 24.53 24.53 0 0 0-17.394-7.2c-6.79 0-12.941 2.75-17.39 7.2-4.45 4.453-7.208 10.601-7.208 17.39 0 1.586.157 3.137.442 4.637.011.063.02.117.027.176a24.57 24.57 0 0 0 6.738 12.586 24.721 24.721 0 0 0 6.13 4.48h-8.876a26.057 26.057 0 0 1-.883-.847c-.078-.075-.148-.149-.222-.223h-94.965l.226 1.07h-5.234l-.621-2.922a2.721 2.721 0 0 1-.098-.714 2.57 2.57 0 0 1 2.567-2.575h94.094a29.494 29.494 0 0 1-3.426-7.875H398.98v-.007a2.56 2.56 0 0 1-2.136-1.149c-.055-.086-.121-.187-.192-.305-1.32-2.16-1.77-4.824-1.336-7.3.43-2.47 1.735-4.793 3.907-6.309.054-.047.109-.086.168-.125l.136-.082a2.545 2.545 0 0 1 1.496-.484h57.473l-.578-.391" fill-rule="evenodd"/></g><path fill="#004aad" d="M78.543 499.34h13.898v13.894a2.566 2.566 0 1 0 5.133 0V499.34h13.895a2.577 2.577 0 0 0 2.574-2.574 2.575 2.575 0 0 0-2.574-2.567H97.574v-13.894a2.563 2.563 0 0 0-2.566-2.567 2.56 2.56 0 0 0-2.567 2.567v13.894H78.543a2.57 2.57 0 0 0 0 5.14zm-7.7 2.062c.016.055.028.118.036.176a24.557 24.557 0 0 0 6.738 12.586 24.514 24.514 0 0 0 17.39 7.2c6.79 0 12.942-2.75 17.391-7.2a24.516 24.516 0 0 0 7.207-17.398 24.505 24.505 0 0 0-7.207-17.391 24.524 24.524 0 0 0-17.39-7.203 24.518 24.518 0 0 0-17.39 7.203 24.488 24.488 0 0 0-7.208 17.39c0 1.587.149 3.137.434 4.637zm-41.757-12.996L47.856 461a2.57 2.57 0 0 1 3.566-.672 2.567 2.567 0 0 1 .672 3.563L35.03 488.797h31.324a29.643 29.643 0 0 1 7.63-13.055 29.623 29.623 0 0 1 21.023-8.707c8.21 0 15.64 3.324 21.027 8.707a29.653 29.653 0 0 1 8.707 21.024 29.65 29.65 0 0 1-8.707 21.027c-5.387 5.379-12.816 8.71-21.027 8.71-1.828 0-3.621-.167-5.356-.483l-7.894 37.398c-.352 2.016-1.445 3.82-2.95 5.121-1.546 1.336-3.55 2.168-5.624 2.168H0v-5.14h73.184c.816 0 1.629-.344 2.273-.899.664-.574 1.137-1.34 1.266-2.164l.023-.133h-.004l7.961-37.707a29.667 29.667 0 0 1-10.719-6.871 12.075 12.075 0 0 1-.222-.219H0v-5.14h69.73a29.755 29.755 0 0 1-3.43-7.875H0v-5.141h65.39a30.563 30.563 0 0 1-.113-2.332c0-.106-.007-.211-.007-.32 0-.114 0-.227.007-.34v-.172c.016-.781.055-1.555.13-2.317H0v-5.14h29.664l-.578-.39" fill-rule="evenodd"/><g clip-path="url(#j)"><path fill="#004aad" d="M828.008 57.563h-27.434v-.004a2.556 2.556 0 0 1-2.136-1.149c-.055-.086-.122-.187-.192-.305-1.32-2.164-1.77-4.828-1.34-7.296.446-2.536 1.805-4.918 4.086-6.434.031-.027.07-.047.11-.074a2.539 2.539 0 0 1 1.511-.492h25.395v5.132h-24.574c-.79.692-1.282 1.684-1.473 2.75a5.738 5.738 0 0 0 .191 2.739h25.856zm0 66.156h-5.77c-2.078 0-4.074-.832-5.625-2.168-1.492-1.293-2.586-3.086-2.941-5.09l-.008-.035-10.07-47.7a2.699 2.699 0 0 1-.098-.714 2.569 2.569 0 0 1 2.567-2.57h21.945v5.14h-18.785l9.457 44.8c.015.075.03.15.035.223.148.793.613 1.52 1.25 2.07.644.56 1.457.903 2.273.903h5.77v5.14" fill-rule="evenodd"/></g><g clip-path="url(#k)"><path fill="#004aad" d="M828.008 628.094h-28.363v-.004a2.56 2.56 0 0 1-2.137-1.149 9.305 9.305 0 0 1-.192-.304c-1.32-2.164-1.77-4.824-1.336-7.301.446-2.535 1.801-4.914 4.082-6.434.036-.023.07-.047.11-.07.426-.312.95-.496 1.515-.496h26.32v5.14h-25.503c-.793.688-1.281 1.676-1.469 2.747a5.69 5.69 0 0 0 .192 2.738h26.78zm0 66.148h-6.696c-2.082 0-4.078-.828-5.625-2.168-1.492-1.285-2.59-3.078-2.945-5.086l-.012-.035-10.066-47.695a2.57 2.57 0 0 1 2.469-3.285h22.875v5.14h-19.719l9.465 44.801.035.219c.149.793.61 1.52 1.246 2.074.649.555 1.457.902 2.278.902h6.695v5.133" fill-rule="evenodd"/></g><g clip-path="url(#l)"><path fill="#004aad" d="M344.387 4.633h32.93a2.566 2.566 0 0 0 2.566-2.57 2.566 2.566 0 0 0-2.567-2.567h-32.93a2.568 2.568 0 0 0 0 5.137zm-13.153.078a26.93 26.93 0 0 1-.113-2.328c-.004-.106-.004-.211-.004-.32 0-.114 0-.231.004-.344v-.172c.016-.781.059-1.55.133-2.317h-92.402c-.79.684-1.278 1.676-1.465 2.743a5.689 5.689 0 0 0 .187 2.738zm19.313 25.254a29.823 29.823 0 0 1-10.719-6.88l-.219-.218h-94.964l9.457 44.801c.015.074.027.148.035.223.148.789.617 1.52 1.25 2.07.648.559 1.453.898 2.273.898h81.371c.817 0 1.63-.34 2.274-.898.66-.574 1.136-1.34 1.261-2.164l.024-.129zM294.934-6.297l1.89-2.766h6.215l-2.164 3.157h31.32c.305-1.082.66-2.137 1.078-3.157h5.637a24.512 24.512 0 0 0-2.652 11.126c0 1.582.148 3.132.433 4.632.012.059.028.117.036.176a24.54 24.54 0 0 0 6.73 12.586c4.457 4.45 10.606 7.203 17.398 7.203 6.79 0 12.942-2.754 17.391-7.203a24.527 24.527 0 0 0 7.203-17.395c0-4.003-.957-7.785-2.656-11.124h5.64a29.576 29.576 0 0 1 2.153 11.124 29.627 29.627 0 0 1-8.711 21.024 29.624 29.624 0 0 1-21.02 8.71c-1.832 0-3.62-.163-5.355-.48l-7.895 37.395h-.003c-.348 2.02-1.45 3.82-2.95 5.121-1.55 1.34-3.547 2.168-5.62 2.168H257.66c-2.074 0-4.07-.828-5.625-2.168-1.492-1.289-2.586-3.082-2.941-5.086l-.008-.035-10.07-47.7a2.566 2.566 0 0 1 2.465-3.281h94.097a29.404 29.404 0 0 1-3.43-7.878H236v-.004a2.568 2.568 0 0 1-2.137-1.153c-.062-.086-.125-.187-.199-.304-1.32-2.16-1.762-4.825-1.332-7.301.441-2.535 1.8-4.914 4.082-6.434.035-.02.074-.047.113-.074a2.566 2.566 0 0 1 1.508-.488h57.473l-.574-.39" fill-rule="evenodd"/></g><path fill="#004aad" d="M346.828 621.223h32.93a2.566 2.566 0 1 0 0-5.133h-32.93a2.566 2.566 0 1 0 0 5.133zm-13.152.082a30.46 30.46 0 0 1-.113-2.328c0-.106-.004-.215-.004-.32l.003-.345v-.125l.004-.046c.012-.782.051-1.551.13-2.317h-92.403c-.79.684-1.277 1.672-1.461 2.742a5.594 5.594 0 0 0 .188 2.739zm19.312 25.25a29.728 29.728 0 0 1-10.937-7.098h-94.965l9.457 44.805c.016.074.027.148.039.218.148.79.61 1.524 1.246 2.07.645.56 1.457.903 2.274.903h81.367c.82 0 1.629-.344 2.273-.902.664-.57 1.137-1.336 1.266-2.164.008-.04.015-.082.027-.125h-.008zm-13.855-23.266.035.176a24.524 24.524 0 0 0 6.734 12.582 24.505 24.505 0 0 0 17.391 7.207 24.507 24.507 0 0 0 17.394-7.207 24.518 24.518 0 0 0 7.204-17.39 24.534 24.534 0 0 0-7.204-17.395 24.52 24.52 0 0 0-17.394-7.203 24.518 24.518 0 0 0-17.39 7.203 24.52 24.52 0 0 0-7.208 17.394c0 1.582.153 3.133.438 4.633zm-41.758-13 18.77-27.402a2.557 2.557 0 0 1 3.562-.668 2.561 2.561 0 0 1 .672 3.558l-17.063 24.91h31.325a29.715 29.715 0 0 1 7.629-13.058 29.637 29.637 0 0 1 21.023-8.707 29.65 29.65 0 0 1 21.027 8.707c5.38 5.387 8.707 12.816 8.707 21.027s-3.328 15.645-8.707 21.024a29.633 29.633 0 0 1-21.027 8.707c-1.828 0-3.613-.16-5.352-.477l-7.894 37.395c-.352 2.02-1.45 3.824-2.95 5.12-1.554 1.34-3.55 2.169-5.628 2.169h-81.367c-2.075 0-4.075-.828-5.622-2.168-1.496-1.29-2.59-3.086-2.945-5.086l-.008-.035-10.066-47.7a2.566 2.566 0 0 1 2.465-3.281h94.09a29.614 29.614 0 0 1-3.426-7.883h-96.15v-.004a2.567 2.567 0 0 1-2.14-1.148c-.055-.086-.121-.187-.192-.305-1.32-2.164-1.77-4.828-1.34-7.304.446-2.535 1.805-4.914 4.086-6.43.036-.023.07-.047.11-.074.426-.305.95-.489 1.515-.489h57.47l-.575-.398" fill-rule="evenodd"/><g clip-path="url(#m)"><path fill="#004aad" d="m723.5 222.398-10.066-47.695a2.566 2.566 0 0 1 2.465-3.285h112.109v22.61l-5.988 28.37c-.352 2.02-1.45 3.829-2.95 5.122-1.55 1.34-3.547 2.167-5.629 2.167h-81.367c-2.074 0-4.07-.824-5.62-2.167-1.497-1.286-2.587-3.083-2.946-5.086zm45.629-74.617a2.42 2.42 0 0 1 .219-.39l18.77-27.41a2.565 2.565 0 0 1 4.234 2.894l-17.059 24.906h52.715v5.137H713.27c-.79.691-1.282 1.676-1.465 2.746a5.641 5.641 0 0 0 .187 2.738h116.016v5.137H710.414v-.004a2.55 2.55 0 0 1-2.137-1.152 6.211 6.211 0 0 1-.195-.305c-1.32-2.16-1.77-4.824-1.34-7.3.45-2.536 1.805-4.915 4.086-6.434.035-.02.07-.047.117-.067a2.51 2.51 0 0 1 1.508-.496zm-15.492 64.723h-10.11l1.598 11.633c.023.14.027.281.027.418h9.118a2.041 2.041 0 0 1-.028-.266zm16.558 0h-11.43l.59 11.527a2.6 2.6 0 0 1-.023.524h10.863zm16.555 0h-11.422v12.05h10.863c-.027-.171-.035-.347-.027-.523zm15.238 0h-10.101l-.606 11.785c-.004.09-.011.176-.027.266h9.117a2.516 2.516 0 0 1 .02-.418zm16.883 0h-11.71l-1.657 12.05h7.937c.825 0 1.63-.347 2.274-.906.664-.57 1.137-1.34 1.265-2.164.008-.043.016-.086.028-.125h-.004zm-66.148-17.84h-11.637l1.742 12.703h10.543zm17.472 0h-12.343l.652 12.703h11.691zm17.473 0h-12.34v12.703h11.688zm16.77 0h-11.645l-.645 12.703h10.547zm18.199 0h-13.028l-1.742 12.703h12.09zm-12.324-5.14h13.41l2.738-12.97h-14.399c0 .133-.007.27-.023.4zm-17.254 0h12.082l1.78-12.97h-13.198v.06zm-17.73 0h12.605l.66-12.97h-13.301c.023.141.035.286.035.434zm-17.74 0h12.606v-12.536c0-.148.012-.293.035-.433h-13.304zm-17.21 0h12.082l-.66-12.91-.004-.06h-13.2zm-13.734 22.98 1.87 8.855c.016.07.032.145.04.22.148.788.61 1.523 1.246 2.07.648.558 1.457.906 2.273.906h7.938l-1.649-12.051zm-3.766-17.84 2.683 12.703h12.094l-1.746-12.703zm-3.82-18.11 2.738 12.97h13.41l-1.723-12.57a2.252 2.252 0 0 1-.023-.4h-14.402" fill-rule="evenodd"/></g><g clip-path="url(#n)"><path fill="#004aad" d="M776.063 749.77c.058-.137.136-.27.222-.391l18.77-27.406a2.554 2.554 0 0 1 3.558-.672 2.558 2.558 0 0 1 .672 3.562l-17.058 24.907h45.78v5.136H720.204c-.789.688-1.277 1.676-1.465 2.742a5.685 5.685 0 0 0 .188 2.739h109.082v5.14H717.352v-.007a2.553 2.553 0 0 1-2.141-1.145 7.862 7.862 0 0 1-.195-.309c-1.32-2.16-1.77-4.824-1.332-7.296.441-2.54 1.8-4.918 4.078-6.434.035-.024.07-.05.117-.078a2.566 2.566 0 0 1 1.508-.488zm-16.407 46.878H748.02l1.742 12.704h10.543zm17.473 0h-12.344l.653 12.704h11.69zm17.473 0h-12.34v12.704h11.691zm16.77 0h-11.638l-.652 12.704h10.547zm-11.376-5.136h12.082l1.777-12.969H800.66l-.004.059zm-17.734 0h12.605l.66-12.969h-13.3c.023.14.035.285.035.434zm-17.735 0h12.602v-12.535c0-.149.012-.293.035-.434H763.86zm-17.215 0h12.086l-.664-12.91v-.059h-13.199zm-13.726 22.98.937 4.453h-5.234l-8.922-42.258a2.566 2.566 0 0 1 2.465-3.281h105.176v5.137h-9.012c.004.129-.004.266-.023.402l-1.727 12.567h10.762v5.136h-11.461l-1.746 12.704h12.094l1.113-5.29v14.883h-3.14l.937-4.453h-11.711l-.61 4.453h-5.172l.61-4.453H798.82l-.226 4.453h-5.133l.23-4.453h-11.43v4.453h-5.132v-4.453h-11.43l.23 4.453h-5.132l-.227-4.453h-10.1l.61 4.453h-5.173l-.61-4.453zm-3.77-17.844 2.684 12.704h12.09l-1.742-12.704zm-3.824-18.105 2.742 12.969h13.407l-1.723-12.567a2.364 2.364 0 0 1-.023-.402h-14.403" fill-rule="evenodd"/></g><path fill="#004aad" d="M268.95 110.688a5.66 5.66 0 0 0 .19-2.739c-.187-1.07-.675-2.058-1.464-2.742H148.688c-.79.684-1.278 1.672-1.461 2.742a5.595 5.595 0 0 0 .191 2.739zm-110.028 64-10.067-47.7a2.58 2.58 0 0 1-.105-.718 2.574 2.574 0 0 1 2.57-2.567h113.723v.004a2.565 2.565 0 0 1 2.512 3.086l-10.114 47.894c-.351 2.016-1.449 3.82-2.949 5.122-1.547 1.336-3.55 2.168-5.625 2.168H167.5c-2.078 0-4.074-.832-5.625-2.168-1.496-1.293-2.586-3.086-2.941-5.086zm45.625-74.622c.062-.136.137-.265.223-.394l18.77-27.402a2.567 2.567 0 0 1 3.565-.672 2.568 2.568 0 0 1 .672 3.558l-17.066 24.91h57.777v.004c.457 0 .922.125 1.34.38l.297.183-.004.004c2.277 1.515 3.633 3.894 4.078 6.43h-.004l.004.007c.43 2.473-.02 5.133-1.34 7.29l-.078.132a2.569 2.569 0 0 1-2.254 1.324H145.836v-.004a2.561 2.561 0 0 1-2.137-1.144c-.058-.086-.12-.192-.191-.309-1.324-2.16-1.77-4.824-1.34-7.297.441-2.535 1.805-4.918 4.086-6.433.031-.028.07-.047.11-.074a2.561 2.561 0 0 1 1.507-.493zm-15.488 64.72h-10.106l1.598 11.636c.02.14.027.277.02.414h9.117a2.74 2.74 0 0 1-.028-.258zm16.554 0h-11.422l.586 11.526c.008.18 0 .352-.027.524h10.863zm16.563 0h-11.422v12.05h10.86c-.028-.172-.036-.344-.028-.524zm15.238 0h-10.11l-.6 11.792a2.748 2.748 0 0 1-.024.258h9.113a2.478 2.478 0 0 1 .023-.414zm16.883 0h-11.715l-1.652 12.05h7.937c.817 0 1.63-.348 2.274-.902.664-.57 1.136-1.336 1.261-2.16.012-.044.02-.09.028-.133h-.004zm-66.149-17.84h-11.644l1.746 12.706h10.547zm17.465 0h-12.336l.649 12.706h11.687zm17.477 0h-12.336v12.706h11.684zm16.773 0H228.22l-.649 12.706h10.543zm18.2 0H245.03l-1.742 12.706h12.09zm-12.325-5.133h13.407l2.738-12.973h-14.399c0 .129-.004.265-.023.398zm-17.258 0h12.083l1.78-12.973h-13.198v.058zm-17.726 0h12.598l.664-12.973H210.71c.027.144.043.289.043.433zm-17.742 0h12.601v-12.54c0-.144.012-.289.04-.433h-13.301zm-17.211 0h12.082l-.66-12.915v-.058H174.02zm-13.73 22.972 1.867 8.856c.019.074.027.148.035.222.156.79.617 1.52 1.254 2.07.644.555 1.457.903 2.273.903h7.938l-1.657-12.05zm-3.766-17.84 2.68 12.707h12.097l-1.746-12.707zm-3.825-18.105 2.739 12.972h13.414l-1.73-12.574a3.444 3.444 0 0 1-.02-.398H154.48m105.68 601.25a5.75 5.75 0 0 0 .188-2.742c-.188-1.067-.676-2.059-1.465-2.743H139.898c-.789.684-1.28 1.676-1.464 2.743a5.654 5.654 0 0 0 .187 2.742zm-110.03 63.992-10.066-47.691a2.566 2.566 0 0 1 2.465-3.29h113.726v.008a2.56 2.56 0 0 1 2.504 3.082l-10.11 47.891c-.351 2.02-1.449 3.828-2.949 5.125-1.55 1.34-3.547 2.168-5.629 2.168h-81.363c-2.078 0-4.074-.828-5.625-2.168-1.492-1.289-2.586-3.082-2.945-5.09zm45.629-74.613a2.14 2.14 0 0 1 .219-.395l18.77-27.406a2.564 2.564 0 0 1 4.234 2.89l-17.06 24.91H259.7v.005c.457 0 .914.12 1.332.379l.301.18-.008.003c2.281 1.52 3.637 3.899 4.078 6.43h-.004l.004.008c.43 2.472-.011 5.136-1.332 7.289l-.086.136a2.57 2.57 0 0 1-2.25 1.325H137.043v-.004c-.832 0-1.64-.403-2.137-1.149a4.97 4.97 0 0 1-.195-.308c-1.32-2.157-1.77-4.82-1.332-7.297.437-2.535 1.797-4.914 4.078-6.434.035-.023.07-.043.113-.074a2.56 2.56 0 0 1 1.512-.488zm-15.492 64.718h-10.102l1.598 11.633c.015.14.02.282.015.418h9.121a1.916 1.916 0 0 1-.027-.261zm16.554 0h-11.425l.593 11.528c.008.176 0 .351-.031.523h10.863zm16.567 0h-11.43v12.051h10.863a2.6 2.6 0 0 1-.027-.523zm15.23 0h-10.105l-.602 11.79c-.004.09-.012.175-.027.261H227a3.023 3.023 0 0 1 .02-.418zm16.883 0h-11.71l-1.657 12.051h7.937c.825 0 1.63-.347 2.274-.902.664-.57 1.136-1.34 1.27-2.164.003-.043.015-.09.023-.129l-.004-.004zm-66.148-17.843H167.71l1.746 12.703H180zm17.468 0h-12.34l.653 12.703h11.687zm17.473 0h-12.336v12.703h11.688zm16.773 0H219.43l-.657 12.703h10.551zm18.2 0h-13.028l-1.742 12.703h12.09zm-12.325-5.133h13.414l2.735-12.969H238.69a2.76 2.76 0 0 1-.023.399zm-17.254 0h12.086l1.778-12.969h-13.2v.059zm-17.73 0h12.602l.664-12.969h-13.301c.023.14.035.285.035.434zm-17.738 0h12.601v-12.535c0-.149.012-.293.04-.434h-13.305zm-17.211 0h12.082l-.66-12.91-.004-.059h-13.2zm-13.727 22.976 1.867 8.852c.016.078.028.149.036.223.148.793.609 1.523 1.246 2.074.644.555 1.457.902 2.277.902h7.938l-1.657-12.05zm-3.773-17.843 2.687 12.703h12.09l-1.742-12.703zm-3.82-18.102 2.738 12.969h13.41l-1.723-12.57c-.023-.133-.027-.27-.023-.399h-14.403" fill-rule="evenodd"/><g clip-path="url(#o)"><path fill="#004aad" d="M621.52-9.063a238.98 238.98 0 0 1-8.825 12.461c-11.789 15.563-25.238 29.059-36.379 33.176-6.851 2.535-12.898 1.688-18.129-1.117-6.343-3.398-11.328-9.656-15.035-16.125a2.583 2.583 0 0 1-.3-1.734 10.62 10.62 0 0 1 .414-1.907c1.437-4.629 6.273-10.351 11.113-14.851 5.047-4.692 10.508-8.164 12.57-7.977.239.024.457.067.66.13 3.274 1.015 6.125 2.644 8.457 4.859a20.085 20.085 0 0 1 3.25 4.039l8.086-10.954h6.344L581 8.22c-.3.469-.758.847-1.32 1.043a2.56 2.56 0 0 1-3.262-1.575c-.863-2.453-2.184-4.5-3.887-6.12-1.687-1.614-3.77-2.813-6.168-3.594-.988.183-4.582 2.984-8.492 6.62-4.316 4.012-8.57 8.934-9.707 12.606a7.241 7.241 0 0 0-.105.363c3.25 5.485 7.441 10.653 12.53 13.38 4 2.144 8.653 2.777 13.962.816 10.133-3.742 22.781-16.567 34.054-31.45a238.687 238.687 0 0 0 6.743-9.37h6.172" fill-rule="evenodd"/></g><path fill="#004aad" d="M578.043 535.203c-12.957 3.297-22.121 8.977-27.734 17.145-5.618 8.164-7.579 18.656-6.145 31.566a2.567 2.567 0 0 0 5.102-.559c-1.301-11.664.375-21.003 5.257-28.097 4.883-7.102 13.07-12.098 24.786-15.074a2.57 2.57 0 0 0-1.266-4.98zm-51.137 51.445c-2.105-18.195 1.52-33.253 9.754-44.683 8.535-11.848 22.082-19.883 39.399-23.543a2.563 2.563 0 0 0 1.984-3.031 2.562 2.562 0 0 0-3.031-1.989c-18.586 3.93-33.2 12.66-42.504 25.575-8.98 12.464-12.953 28.742-10.7 48.257a2.564 2.564 0 0 0 2.84 2.254 2.56 2.56 0 0 0 2.258-2.84zm40.024-13.558a10.995 10.995 0 0 0 4.3 7.2 10.79 10.79 0 0 0 15.227-2.309 11.033 11.033 0 0 0 1.98-8.141 11.026 11.026 0 0 0-4.3-7.195 10.786 10.786 0 0 0-8.094-2.043 10.784 10.784 0 0 0-7.137 4.351 11.013 11.013 0 0 0-1.976 8.137zm5.066-.848c.012.051.016.11.024.16a5.862 5.862 0 0 0 2.28 3.774 5.676 5.676 0 0 0 4.263 1.078 5.674 5.674 0 0 0 3.742-2.281 5.919 5.919 0 0 0 1.054-4.368 5.894 5.894 0 0 0-2.297-3.847 5.67 5.67 0 0 0-4.175-1.094c-.055.012-.102.02-.16.027a5.654 5.654 0 0 0-3.668 2.274 5.889 5.889 0 0 0-1.063 4.277zm36.43-14.082c2.242 1.207 4.77 1.965 7.515 2.363v.008a2.59 2.59 0 0 1 1.153.477 2.549 2.549 0 0 1 .543 3.57l-35.32 47.875A2.574 2.574 0 0 1 581 613.5a2.56 2.56 0 0 1-3.262-1.582c-.867-2.45-2.187-4.496-3.89-6.117-1.688-1.61-3.77-2.817-6.168-3.598-.989.188-4.578 2.988-8.492 6.625-4.313 4.008-8.567 8.938-9.708 12.606-.035.12-.074.246-.101.359 3.246 5.484 7.437 10.656 12.527 13.383 4.004 2.144 8.653 2.781 13.961.812 10.133-3.742 22.781-16.562 34.055-31.445 13.672-18.043 25.156-38.91 27.758-50.422.195-.867.289-1.754.289-2.66 0-4.582-2.567-9.043-6.27-12.64-3.836-3.739-8.828-6.5-13.504-7.56a18.607 18.607 0 0 0-2.71-.413c-2.93 3.355-5.688 7.246-7.9 11.5-1.913 3.675-3.417 7.609-4.245 11.66a17.313 17.313 0 0 0 5.086 4.152zm2.738 6.586a25.474 25.474 0 0 1-5.168-2.074 22.583 22.583 0 0 1-7.45-6.453 2.562 2.562 0 0 1-.456-2.067c.879-4.976 2.644-9.761 4.937-14.175 2.621-5.028 5.953-9.606 9.45-13.461a2.555 2.555 0 0 1 1.898-.836v-.004c1.574 0 3.238.199 4.945.586 5.559 1.261 11.457 4.511 15.953 8.883 4.625 4.5 7.832 10.23 7.832 16.316 0 1.23-.136 2.492-.43 3.785-2.745 12.156-14.609 33.84-28.655 52.39-11.793 15.563-25.247 29.052-36.387 33.173-6.852 2.53-12.899 1.683-18.13-1.118-6.339-3.398-11.327-9.66-15.034-16.125a2.585 2.585 0 0 1-.297-1.734c.078-.633.219-1.27.41-1.902 1.438-4.637 6.277-10.356 11.113-14.852 5.047-4.691 10.508-8.168 12.57-7.98.239.023.458.066.66.129 3.274 1.015 6.126 2.644 8.458 4.863a19.82 19.82 0 0 1 3.25 4.035l30.531-41.379M334.781 121.105c-12.957 3.297-22.12 8.98-27.734 17.145-5.617 8.164-7.586 18.656-6.145 31.57a2.562 2.562 0 0 0 2.832 2.266 2.557 2.557 0 0 0 2.262-2.828c-1.293-11.66.383-21.004 5.262-28.098 4.883-7.097 13.07-12.097 24.789-15.078a2.57 2.57 0 0 0 1.855-3.121 2.572 2.572 0 0 0-3.12-1.856zm-51.14 51.45c-2.102-18.196 1.523-33.258 9.757-44.688 8.536-11.847 22.082-19.883 39.395-23.543a2.56 2.56 0 0 0 1.984-3.027 2.558 2.558 0 0 0-3.027-1.988c-18.586 3.925-33.203 12.656-42.508 25.566-8.98 12.469-12.949 28.746-10.695 48.262a2.554 2.554 0 0 0 2.84 2.254 2.553 2.553 0 0 0 2.254-2.836zm40.023-13.567v.004a11.047 11.047 0 0 0 4.3 7.203 10.788 10.788 0 0 0 8.095 2.04 10.809 10.809 0 0 0 7.136-4.348 11.007 11.007 0 0 0 1.973-8.14 11.016 11.016 0 0 0-4.293-7.2c-2.25-1.676-5.117-2.492-8.094-2.043l-.004.004c-2.972.445-5.48 2.074-7.132 4.347a11.01 11.01 0 0 0-1.98 8.133zm5.066-.843.024.164a5.888 5.888 0 0 0 2.281 3.77 5.663 5.663 0 0 0 4.262 1.077 5.656 5.656 0 0 0 3.742-2.281 5.92 5.92 0 0 0 1.059-4.367 5.894 5.894 0 0 0-2.297-3.848 5.68 5.68 0 0 0-4.176-1.094c-.055.012-.105.02-.16.028a5.655 5.655 0 0 0-3.668 2.27 5.919 5.919 0 0 0-1.067 4.28zm36.43-14.083c2.242 1.208 4.77 1.965 7.516 2.368v.007a2.557 2.557 0 0 1 1.7 4.047L339.05 198.36a2.565 2.565 0 0 1-4.582-.535c-.86-2.457-2.18-4.5-3.883-6.12-1.688-1.61-3.774-2.817-6.168-3.599-.988.188-4.578 2.985-8.5 6.63-4.309 4.003-8.566 8.933-9.703 12.6-.04.126-.074.247-.098.36 3.246 5.489 7.438 10.653 12.528 13.383 4.003 2.145 8.652 2.781 13.96.817 10.13-3.747 22.782-16.567 34.055-31.45 13.668-18.043 25.156-38.91 27.754-50.422.195-.867.29-1.757.29-2.656 0-4.582-2.563-9.047-6.267-12.644-3.835-3.735-8.832-6.5-13.503-7.559a18.226 18.226 0 0 0-2.711-.41c-2.93 3.351-5.688 7.242-7.903 11.496-1.918 3.68-3.414 7.61-4.242 11.66a17.348 17.348 0 0 0 5.082 4.153zm2.742 6.586a25.074 25.074 0 0 1-5.168-2.074c-2.843-1.535-5.355-3.644-7.453-6.453a2.56 2.56 0 0 1-.453-2.066c.875-4.977 2.637-9.758 4.938-14.176 2.62-5.027 5.945-9.606 9.449-13.457.504-.559 1.2-.84 1.894-.84v-.004c1.579 0 3.239.203 4.946.59 5.562 1.258 11.46 4.508 15.953 8.879 4.625 4.5 7.836 10.23 7.836 16.32 0 1.227-.14 2.492-.43 3.781-2.75 12.157-14.61 33.84-28.66 52.387-11.79 15.567-25.242 29.055-36.383 33.176-6.851 2.535-12.898 1.687-18.129-1.117-6.344-3.399-11.328-9.66-15.039-16.13a2.573 2.573 0 0 1-.297-1.734 10.54 10.54 0 0 1 .414-1.898c1.438-4.637 6.27-10.352 11.11-14.852 5.047-4.69 10.511-8.171 12.57-7.976.242.02.46.059.664.125 3.274 1.016 6.125 2.648 8.457 4.863a20.002 20.002 0 0 1 3.25 4.04l30.531-41.384" fill-rule="evenodd"/><g clip-path="url(#p)"><path fill="#004aad" d="M329.918 738.824c-12.957 3.29-22.121 8.977-27.734 17.14-5.618 8.169-7.579 18.661-6.145 31.571a2.566 2.566 0 0 0 5.102-.563c-1.301-11.663.379-21.007 5.257-28.097 4.883-7.098 13.067-12.102 24.786-15.074a2.561 2.561 0 0 0 1.855-3.121 2.567 2.567 0 0 0-3.121-1.856zm-51.133 51.446c-2.11-18.196 1.516-33.262 9.75-44.688 8.535-11.844 22.082-19.887 39.395-23.539a2.565 2.565 0 0 0-1.043-5.023c-18.586 3.93-33.2 12.664-42.504 25.574-8.985 12.468-12.953 28.738-10.7 48.261a2.568 2.568 0 0 0 5.102-.586zm40.02-13.563a11.01 11.01 0 0 0 4.3 7.2 10.792 10.792 0 0 0 8.09 2.046 10.794 10.794 0 0 0 7.137-4.355 11.015 11.015 0 0 0 1.98-8.137 11.01 11.01 0 0 0-4.3-7.2 10.803 10.803 0 0 0-8.094-2.042c-2.977.449-5.484 2.082-7.137 4.351a10.995 10.995 0 0 0-1.976 8.137zm5.062-.844c.012.051.02.106.028.157a5.871 5.871 0 0 0 2.28 3.773 5.694 5.694 0 0 0 4.259 1.082 5.688 5.688 0 0 0 3.746-2.281 5.923 5.923 0 0 0 1.054-4.367 5.898 5.898 0 0 0-2.293-3.852 5.677 5.677 0 0 0-4.175-1.09c-.055.008-.11.016-.164.02a5.7 5.7 0 0 0-3.668 2.273 5.924 5.924 0 0 0-1.067 4.285zm39.172-7.5a25.564 25.564 0 0 1-5.164-2.07 22.57 22.57 0 0 1-7.453-6.457 2.565 2.565 0 0 1-.457-2.066c.879-4.977 2.644-9.758 4.937-14.172 2.621-5.035 5.953-9.61 9.45-13.465a2.565 2.565 0 0 1 1.894-.836v-.004c1.578 0 3.242.203 4.95.59 5.558 1.258 11.456 4.508 15.949 8.879 4.632 4.504 7.835 10.234 7.835 16.316 0 1.235-.136 2.496-.43 3.79-2.75 12.155-14.605 33.839-28.66 52.386a206.349 206.349 0 0 1-6.113 7.691h-6.734c2.965-3.386 5.902-7.023 8.754-10.78 13.672-18.044 25.156-38.915 27.758-50.423.195-.867.289-1.762.289-2.664 0-4.578-2.567-9.039-6.27-12.644-3.836-3.73-8.828-6.5-13.504-7.555a18 18 0 0 0-2.71-.41c-2.926 3.347-5.684 7.246-7.903 11.5-1.91 3.676-3.414 7.605-4.242 11.66a17.284 17.284 0 0 0 5.086 4.144c2.242 1.215 4.77 1.97 7.52 2.368l-.005.007a2.556 2.556 0 0 1 1.695 4.047l-35.32 47.875c-.3.47-.753.848-1.32 1.043a2.555 2.555 0 0 1-3.258-1.574c-.867-2.453-2.187-4.496-3.89-6.121-1.688-1.606-3.77-2.813-6.168-3.594-.985.188-4.578 2.985-8.493 6.621-2.175 2.028-4.34 4.285-6.097 6.5h-6.258c2.223-3.496 5.54-7.164 8.863-10.25 5.047-4.691 10.508-8.168 12.57-7.98.239.023.458.066.66.129 3.274 1.015 6.126 2.644 8.458 4.867a19.69 19.69 0 0 1 3.25 4.031l30.531-41.379" fill-rule="evenodd"/></g><g clip-path="url(#q)"><path fill="#004aad" d="M431.14-.848a20.806 20.806 0 0 0-6.058 13.18h41.684a20.85 20.85 0 0 0-6.063-13.18 20.823 20.823 0 0 0-14.781-6.12 20.837 20.837 0 0 0-14.781 6.12zm38.231 18.317h-52.766c-1.171 0-2.12.375-2.84.976-.82.692-1.367 1.703-1.581 2.817l-16.41 83.172a1.218 1.218 0 0 0-.016.21c0 .43.285.887.734 1.29.637.57 1.551 1 2.559 1.199.37.07.758.11 1.152.11h91.438a6.2 6.2 0 0 0 1.152-.11c1.008-.2 1.922-.63 2.559-1.2.453-.402.738-.859.738-1.288 0-.075-.008-.145-.02-.211l-16.41-83.172c-.215-1.114-.762-2.125-1.582-2.817-.715-.601-1.668-.976-2.84-.976zM423.38 81.453h45.086c.226 0 .426-.09.578-.234a.826.826 0 0 0 .238-.574v-19.16a.835.835 0 0 0-.238-.579.818.818 0 0 0-.578-.238H423.38a.81.81 0 0 0-.574.238.806.806 0 0 0-.243.578v19.16c0 .223.09.426.243.575l-.004.004.004.004c.144.14.343.226.574.226zm45.086 5.14a5.928 5.928 0 0 0 4.207-1.745 5.919 5.919 0 0 0 1.746-4.203v-19.16a5.928 5.928 0 0 0-1.746-4.208 5.928 5.928 0 0 0-4.207-1.746H423.38a5.92 5.92 0 0 0-4.203 1.746 5.915 5.915 0 0 0-1.75 4.207v19.16c0 1.641.668 3.13 1.75 4.204l.004-.004a5.933 5.933 0 0 0 4.199 1.75zm-48.536-74.26a25.94 25.94 0 0 1 7.578-16.809 26.07 26.07 0 0 1 6.191-4.585h24.446a25.992 25.992 0 0 1 6.19 4.585 25.917 25.917 0 0 1 7.575 16.809h3.328c2.461 0 4.543.84 6.149 2.203 1.734 1.465 2.875 3.52 3.312 5.742l16.406 83.172c.082.41.122.809.122 1.196 0 1.984-.957 3.75-2.465 5.105-1.32 1.18-3.098 2.047-4.989 2.418a10.92 10.92 0 0 1-2.132.215h-91.438c-.71 0-1.43-.074-2.133-.215-1.886-.371-3.664-1.238-4.984-2.418-1.512-1.355-2.469-3.117-2.469-5.105 0-.387.04-.786.125-1.196l16.403-83.172c.437-2.222 1.582-4.277 3.312-5.742 1.61-1.363 3.688-2.203 6.148-2.203h3.325" fill-rule="evenodd"/></g><path fill="#004aad" d="M433.582 615.746a20.85 20.85 0 0 0-6.062 13.18h41.687a20.83 20.83 0 0 0-6.062-13.18 20.83 20.83 0 0 0-14.782-6.121c-5.773 0-11 2.336-14.781 6.121zm38.234 18.313h-52.77c-1.167 0-2.124.375-2.835.98-.824.691-1.367 1.703-1.586 2.816l-16.406 83.172a1.117 1.117 0 0 0-.024.207c0 .434.285.887.739 1.293.64.567 1.55.996 2.558 1.2.375.07.758.109 1.149.109h91.441c.395 0 .781-.04 1.148-.11 1.012-.203 1.926-.632 2.56-1.199.452-.406.737-.859.737-1.293a1.22 1.22 0 0 0-.015-.207l-16.407-83.172c-.218-1.113-.765-2.125-1.59-2.816-.71-.605-1.663-.98-2.835-.98zM425.82 698.05h45.09a.81.81 0 0 0 .57-.242.804.804 0 0 0 .243-.57V678.07a.804.804 0 0 0-.243-.57.807.807 0 0 0-.57-.238h-45.09a.802.802 0 0 0-.574.238.8.8 0 0 0-.238.57v19.168a.8.8 0 0 0 .238.57l-.008.005.008.007c.14.14.344.23.574.23zm45.09 5.136a5.932 5.932 0 0 0 4.203-1.746 5.919 5.919 0 0 0 1.746-4.203V678.07a5.94 5.94 0 0 0-1.746-4.203 5.949 5.949 0 0 0-4.203-1.746h-45.09c-1.64 0-3.132.672-4.207 1.746a5.94 5.94 0 0 0-1.746 4.203v19.168c0 1.64.668 3.13 1.746 4.203l.004-.004a5.957 5.957 0 0 0 4.203 1.75zm-48.535-74.261a25.931 25.931 0 0 1 7.578-16.813 25.946 25.946 0 0 1 18.41-7.629c7.192 0 13.7 2.914 18.414 7.63a25.95 25.95 0 0 1 7.578 16.812h3.325c2.465 0 4.547.84 6.148 2.199 1.735 1.465 2.879 3.523 3.317 5.746l16.398 83.172c.086.41.125.805.125 1.191 0 1.989-.953 3.75-2.461 5.102-1.328 1.187-3.105 2.05-4.988 2.426-.707.14-1.422.215-2.137.215h-91.441c-.711 0-1.43-.075-2.133-.215-1.887-.375-3.66-1.239-4.985-2.426-1.507-1.344-2.46-3.113-2.46-5.102 0-.386.039-.78.117-1.191l16.406-83.172c.437-2.223 1.578-4.281 3.312-5.746 1.606-1.36 3.688-2.2 6.149-2.2h3.328M178.89 470.484a20.805 20.805 0 0 0-6.058 13.176h41.68a20.845 20.845 0 0 0-6.059-13.176 20.837 20.837 0 0 0-14.781-6.12 20.83 20.83 0 0 0-14.781 6.12zm38.231 18.313h-52.766c-1.171 0-2.128.375-2.84.98-.82.692-1.367 1.703-1.585 2.817l-16.407 83.168a1.218 1.218 0 0 0-.015.21c0 .434.285.887.734 1.29.637.57 1.551 1 2.559 1.199.37.074.758.113 1.152.113h91.438c.39 0 .777-.039 1.152-.113 1.008-.2 1.918-.629 2.559-1.2.449-.402.734-.855.734-1.288 0-.075-.008-.145-.02-.211l-16.406-83.168c-.219-1.114-.765-2.125-1.586-2.817-.71-.605-1.668-.98-2.836-.98zm-45.996 63.992h45.09a.82.82 0 0 0 .812-.812v-19.168a.816.816 0 0 0-.813-.809h-45.089a.8.8 0 0 0-.57.238.794.794 0 0 0-.243.57v19.169c0 .218.09.421.243.57l-.008.004.008.004c.14.144.34.234.57.234zm45.09 5.137a5.958 5.958 0 0 0 4.207-1.746 5.949 5.949 0 0 0 1.746-4.203v-19.168c0-1.641-.672-3.13-1.746-4.204a5.942 5.942 0 0 0-4.207-1.746h-45.09a5.948 5.948 0 0 0-4.207 1.746 5.935 5.935 0 0 0-1.746 4.204v19.168a5.95 5.95 0 0 0 1.746 4.203l.004-.008a5.95 5.95 0 0 0 4.203 1.754zM167.68 483.66a25.94 25.94 0 0 1 7.578-16.808c4.715-4.715 11.222-7.63 18.414-7.63 7.187 0 13.695 2.915 18.41 7.63a25.921 25.921 0 0 1 7.578 16.808h3.328c2.461 0 4.543.84 6.149 2.203 1.734 1.465 2.875 3.524 3.312 5.746l16.406 83.168c.079.414.118.809.118 1.196 0 1.988-.953 3.75-2.461 5.101-1.328 1.188-3.102 2.051-4.989 2.426-.699.14-1.421.21-2.132.21h-91.438c-.715 0-1.433-.07-2.133-.21-1.886-.375-3.664-1.238-4.992-2.426-1.508-1.351-2.46-3.113-2.46-5.101 0-.387.038-.782.116-1.196l16.407-83.168c.441-2.222 1.578-4.28 3.312-5.746 1.606-1.363 3.688-2.203 6.152-2.203h3.325m384.89.465h66.95c.8 0 1.53-.332 2.058-.855a2.91 2.91 0 0 0 .86-2.06V380.23c0-.8-.329-1.535-.86-2.058a2.9 2.9 0 0 0-2.058-.863h-66.95a2.91 2.91 0 0 0-2.062.863 2.893 2.893 0 0 0-.863 2.058v100.98a2.935 2.935 0 0 0 2.926 2.914zm10.75-74.922h45.446a1.166 1.166 0 0 0 1.156-1.156v-17.961a1.159 1.159 0 0 0-1.156-1.156H563.32a1.15 1.15 0 0 0-1.152 1.156v17.96c0 .313.129.602.34.813l-.004.004c.207.211.5.34.816.34zm45.446 5.133a6.274 6.274 0 0 0 4.445-1.844 6.275 6.275 0 0 0 1.848-4.445v-17.961a6.268 6.268 0 0 0-1.848-4.445 6.261 6.261 0 0 0-4.445-1.848H563.32a6.27 6.27 0 0 0-4.437 1.848h.004l-.012.007a6.264 6.264 0 0 0-1.848 4.438v17.96c0 1.735.707 3.306 1.848 4.446l.004-.004.008.004a6.267 6.267 0 0 0 4.433 1.844zm-28.286 14.238h11.125a2.568 2.568 0 0 0 0-5.137H580.48a2.569 2.569 0 0 0 0 5.137zm20.887 0h11.125a2.57 2.57 0 0 0 2.567-2.566 2.572 2.572 0 0 0-2.567-2.57h-11.125a2.572 2.572 0 0 0-2.57 2.57 2.572 2.572 0 0 0 2.57 2.566zm-20.887 15.121h11.125a2.569 2.569 0 0 0 0-5.136H580.48a2.569 2.569 0 0 0 0 5.137zm20.887 0h11.125a2.568 2.568 0 0 0 0-5.137h-11.125a2.569 2.569 0 1 0 0 5.137zm-41.77 0h11.122a2.569 2.569 0 1 0 0-5.137h-11.121a2.566 2.566 0 0 0-2.57 2.567 2.57 2.57 0 0 0 2.57 2.57zm20.883 15.121h11.125a2.569 2.569 0 0 0 2.567-2.57 2.566 2.566 0 0 0-2.567-2.57H580.48a2.567 2.567 0 0 0-2.566 2.57 2.569 2.569 0 0 0 2.566 2.57zm20.887 0h11.125a2.572 2.572 0 0 0 0-5.14h-11.125a2.57 2.57 0 1 0 0 5.14zm-41.77 0h11.122a2.57 2.57 0 1 0 0-5.14h-11.121a2.57 2.57 0 1 0 0 5.14zm20.883 15.118h11.125a2.566 2.566 0 1 0 0-5.133H580.48a2.566 2.566 0 1 0 0 5.133zm20.887 0h11.125a2.566 2.566 0 1 0 0-5.133h-11.125a2.566 2.566 0 1 0 0 5.133zm-41.77 0h11.122a2.566 2.566 0 1 0 0-5.133h-11.121a2.566 2.566 0 1 0 0 5.133zm0-45.36h11.122a2.572 2.572 0 0 0 2.57-2.566 2.572 2.572 0 0 0-2.57-2.57h-11.121a2.569 2.569 0 1 0 0 5.137zm59.923 60.688h-66.95a8.056 8.056 0 0 1-8.058-8.051V380.23a8.03 8.03 0 0 1 2.36-5.696 8.06 8.06 0 0 1 5.698-2.363h66.95c2.218 0 4.23.906 5.695 2.363a8.037 8.037 0 0 1 2.363 5.695v100.98a8.048 8.048 0 0 1-2.363 5.692 8.054 8.054 0 0 1-5.695 2.36M41.941 372.805c1.73 0 3.305-.707 4.446-1.848a6.291 6.291 0 0 0 1.847-4.445v-17.965c0-1.727-.71-3.305-1.847-4.445a6.284 6.284 0 0 0-4.446-1.848H0v5.14h41.941c.313 0 .602.13.813.34.21.211.344.5.344.813v17.965c0 .308-.133.601-.344.808-.211.215-.5.344-.813.344H0v5.14zm-28.285 14.234h11.125a2.566 2.566 0 0 0 2.567-2.57 2.566 2.566 0 0 0-2.567-2.567H13.656a2.566 2.566 0 0 0-2.566 2.567 2.566 2.566 0 0 0 2.566 2.57zm20.887 0h11.125a2.566 2.566 0 0 0 2.566-2.57 2.566 2.566 0 0 0-2.566-2.567H34.543a2.566 2.566 0 0 0-2.566 2.567 2.566 2.566 0 0 0 2.566 2.57zM13.656 402.16h11.125a2.57 2.57 0 0 0 2.567-2.574 2.566 2.566 0 0 0-2.567-2.566H13.656a2.566 2.566 0 0 0-2.566 2.566 2.57 2.57 0 0 0 2.566 2.574zm20.887 0h11.125a2.57 2.57 0 0 0 2.566-2.574 2.566 2.566 0 0 0-2.566-2.566H34.543a2.566 2.566 0 0 0-2.566 2.566 2.57 2.57 0 0 0 2.566 2.574zM0 397.02v5.14h3.898a2.57 2.57 0 0 0 2.567-2.574 2.566 2.566 0 0 0-2.567-2.566zm13.656 20.257h11.125a2.566 2.566 0 0 0 2.567-2.566 2.572 2.572 0 0 0-2.567-2.574H13.656a2.572 2.572 0 0 0-2.566 2.574 2.566 2.566 0 0 0 2.566 2.566zm20.887 0h11.125a2.566 2.566 0 0 0 2.566-2.566 2.572 2.572 0 0 0-2.566-2.574H34.543a2.572 2.572 0 0 0-2.566 2.574 2.566 2.566 0 0 0 2.566 2.566zM0 412.137v5.14h3.898a2.566 2.566 0 0 0 2.567-2.566 2.572 2.572 0 0 0-2.567-2.574zm13.656 20.258h11.125a2.566 2.566 0 1 0 0-5.133H13.656a2.566 2.566 0 1 0 0 5.133zm20.887 0h11.125a2.566 2.566 0 1 0 0-5.133H34.543a2.566 2.566 0 1 0 0 5.133zM0 427.262v5.133h3.898a2.566 2.566 0 1 0 0-5.133zm0-45.36v5.137h3.898a2.566 2.566 0 0 0 2.567-2.57 2.566 2.566 0 0 0-2.567-2.567zm52.7 65.828H0v-5.14h52.7a2.91 2.91 0 0 0 2.058-.86 2.91 2.91 0 0 0 .86-2.058v-100.98c0-.801-.329-1.528-.86-2.06a2.91 2.91 0 0 0-2.059-.859H0v-5.14h52.7c2.214 0 4.23.91 5.687 2.367a8.032 8.032 0 0 1 2.363 5.691v100.98a8.03 8.03 0 0 1-2.363 5.692 8.036 8.036 0 0 1-5.688 2.367m647.145-121.902h40.785v-23.363h-40.785zm40.785 5.14H699.5a4.807 4.807 0 0 1-3.39-1.41 4.787 4.787 0 0 1-1.403-3.386v-24.05a4.793 4.793 0 0 1 4.793-4.794h41.129v-19.426c0-.804-.328-1.535-.86-2.062a2.913 2.913 0 0 0-2.058-.863H631.187c-.8 0-1.527.332-2.058.863a2.918 2.918 0 0 0-.863 2.062v72.493c0 .8.332 1.527.863 2.058.531.531 1.258.86 2.058.86h106.524a2.91 2.91 0 0 0 2.059-.86c.53-.531.859-1.258.859-2.058zm-32.66-14.253h11.125a2.569 2.569 0 0 0 0-5.137h-11.125a2.569 2.569 0 0 0 0 5.137zm37.797-38.813v72.493c0 2.218-.907 4.23-2.364 5.69a8.052 8.052 0 0 1-5.691 2.368H631.187c-2.218 0-4.23-.91-5.687-2.367a8.012 8.012 0 0 1-2.367-5.691v-72.493c0-2.222.902-4.238 2.367-5.695a8.009 8.009 0 0 1 5.688-2.363H737.71a8.03 8.03 0 0 1 5.691 2.363 8.037 8.037 0 0 1 2.364 5.695m-610.499.208h40.785v-23.364h-40.785zm40.785 5.14h-41.13a4.793 4.793 0 0 1-4.792-4.793V254.41c0-1.324.539-2.523 1.406-3.39a4.78 4.78 0 0 1 3.387-1.407h41.129v-19.43c0-.796-.332-1.527-.86-2.058a2.905 2.905 0 0 0-2.062-.86H66.609a2.91 2.91 0 0 0-2.058.86 2.91 2.91 0 0 0-.86 2.059v72.496c0 .797.329 1.53.86 2.058a2.91 2.91 0 0 0 2.058.86h106.52a2.9 2.9 0 0 0 2.062-.86 2.92 2.92 0 0 0 .86-2.058zM143.39 269h11.12a2.57 2.57 0 0 0 2.575-2.566 2.57 2.57 0 0 0-2.574-2.57H143.39a2.566 2.566 0 0 0-2.567 2.57A2.566 2.566 0 0 0 143.39 269zm37.797-38.816v72.496a8.022 8.022 0 0 1-2.368 5.691 8.028 8.028 0 0 1-5.691 2.363H66.609a8.048 8.048 0 0 1-5.691-2.363 8.038 8.038 0 0 1-2.367-5.691v-72.496c0-2.215.91-4.23 2.367-5.692a8.052 8.052 0 0 1 5.691-2.367h106.52a8.03 8.03 0 0 1 5.691 2.367 8.035 8.035 0 0 1 2.368 5.692" fill-rule="evenodd"/><g clip-path="url(#r)"><path fill="#004aad" d="M828.008 460.973v-5.133h-4.621v-16.238h4.62v-5.133H822.7c-1.226 0-2.34.5-3.144 1.3l.008.004a4.443 4.443 0 0 0-1.31 3.141v17.613c0 1.114.415 2.133 1.106 2.918a2.2 2.2 0 0 0 .196.227 4.434 4.434 0 0 0 3.144 1.3zm0 23.28h-18.235a7.559 7.559 0 0 1-5.359-2.226 7.575 7.575 0 0 1-2.226-5.359v-61.313a20.638 20.638 0 0 1-5.829-3.644 20.581 20.581 0 0 1-6.816-12.961 2.571 2.571 0 0 1 2.246-2.852c.102-.011.203-.015.305-.015h10.597l4.965-14.79c.551-1.636 1.285-3.238 2.621-4.519 1.422-1.367 3.36-2.254 6.157-2.254h11.574v5.14h-11.574c-1.297 0-2.094.317-2.606.806-.594.574-.992 1.48-1.316 2.457l-4.418 13.16h19.914v5.133h-32.742a15.514 15.514 0 0 0 4.48 6.867 15.444 15.444 0 0 0 5.625 3.176c.09.023.172.046.262.078 1.332.39 2.742.61 4.203.625l.035.004h.149c2.738 0 5.293-.696 7.5-1.918l.105-.063.105-.055.106-.062h.004l.101-.063.004-.003.102-.059.004-.004.101-.059h.004l.098-.066.004-.004.101-.062h.004l.098-.067.008-.004.097-.062.004-.004.094-.063.004-.007.098-.063.004-.004.093-.066.008-.004.094-.067.008-.003.093-.067.008-.008.09-.062.008-.008.09-.066.008-.008.09-.067.007-.003.09-.07.008-.005.086-.066.011-.008.086-.07.008-.008.086-.066.012-.008.082-.07.012-.012.082-.067.011-.007.082-.07.012-.013.082-.066.016-.012.078-.07.012-.012.074-.07.015-.012.079-.066.011-.012.078-.07.016-.012.074-.07c.059-.055.11-.102.164-.156l.016-.012.012-.02.07-.062.09-.09.015-.012.07-.074.02-.016.067-.07c.047-.05.093-.101.144-.148l.024-.032.02-.015.066-.07.015-.02.067-.07.086-.086.015-.024.063-.07.015-.02.063-.07.023-.023.078-.094.063-.07.066-.086.016-.008c.047-.063.102-.125.148-.188l.004-.004.067-.086.008-.007c.05-.059.093-.121.136-.176l.012-.016.023-.023.055-.07.02-.032.054-.07.008-.008c.043-.062.086-.12.133-.183l.008-.012.05-.074.016-.02.02-.027.05-.07.06-.09.019-.02a5.06 5.06 0 0 1 .12-.187l.009-.008.023-.035.043-.07.008-.005.05-.078.02-.031.047-.078.008-.016c.097-.156.21-.304.34-.437l.007-.008.008-.016.028-.023h.003l.008-.016.032-.023.023-.024.016-.011c.195-.18.414-.32.644-.434l.047-.02h.004l.05-.023a2.52 2.52 0 0 1 .895-.191h.168c.305.007.602.07.89.191h.005l.054.024.043.02h.004c.235.105.453.253.645.433l.015.011.024.024.031.023.012.016h.004l.039.039v.004l.004.004c.125.133.242.281.332.437l.062.094.028.035.046.074.004.012.059.09.012.016c.039.062.078.12.125.18l.007.015.047.07.024.031.047.07.023.028.008.016.004.004v7.308a21.257 21.257 0 0 1-2.68-2.484 20.926 20.926 0 0 1-5.34 4.234 20.563 20.563 0 0 1-9.968 2.574h-.254l-.168-.003h-.164l-.047-.004a21.073 21.073 0 0 1-2.063-.168v59.945c0 .672.278 1.281.723 1.73a2.45 2.45 0 0 0 1.726.72h18.235v5.136" fill-rule="evenodd"/></g><path fill="#004aad" d="M314.41 459.355h5.524a2.572 2.572 0 0 0 2.574-2.566 2.573 2.573 0 0 0-2.574-2.57h-5.524a2.569 2.569 0 0 0 0 5.136zm-70.164-48.609a20.995 20.995 0 0 1-2.059-.164v59.941c0 .668.274 1.282.72 1.727a2.446 2.446 0 0 0 1.73.723h53.707v-40.051c0-1.258.52-2.41 1.351-3.242l.008-.008a4.574 4.574 0 0 1 3.246-1.352h21.985a4.59 4.59 0 0 1 3.238 1.348l.004.004.012.004.003.004a4.598 4.598 0 0 1 1.348 3.242v40.05h7.426c.668 0 1.281-.277 1.726-.722a2.44 2.44 0 0 0 .72-1.727v-59.941a20.98 20.98 0 0 1-2.063.164h-.082l-.082.004h-.047l-.164.004h-.254c-3.602 0-7-.934-9.969-2.578a20.824 20.824 0 0 1-5.34-4.235 20.758 20.758 0 0 1-5.34 4.235 20.508 20.508 0 0 1-9.965 2.578c-3.597 0-7-.934-9.964-2.578a20.692 20.692 0 0 1-5.34-4.235 20.777 20.777 0 0 1-5.344 4.235 20.508 20.508 0 0 1-9.965 2.578c-3.597 0-6.996-.934-9.96-2.578a20.645 20.645 0 0 1-5.344-4.235 20.692 20.692 0 0 1-5.34 4.235 20.508 20.508 0 0 1-9.965 2.578h-.254l-.168-.004h-.043l-.078-.004zm-4.012-5.836c.082.024.172.047.254.078 1.336.39 2.75.61 4.211.63h.184c2.734 0 5.293-.696 7.496-1.915l.11-.062.421-.246v-.004l.098-.059h.008l.097-.062.008-.004.098-.063.008-.004.093-.066h.004l.098-.067h.004l.097-.066.008-.004.094-.066.008-.004.094-.067.007-.004.09-.066.012-.004.09-.066.004-.004.093-.067.008-.003.09-.07.008-.005.094-.066.007-.008.086-.066.012-.008.086-.067.008-.007.086-.067.012-.008.082-.07.015-.008.078-.066.012-.012.086-.07.012-.008.078-.07.015-.008.079-.07.011-.008.078-.07.016-.016.078-.07.012-.008.082-.07.012-.012.074-.07.02-.012.074-.067c.05-.054.105-.105.16-.156l.18-.18.011-.004.016-.015.066-.07.086-.09c.05-.047.098-.102.145-.149l.043-.043.086-.09.062-.074.02-.015.062-.07.02-.024.062-.07.02-.02.062-.07.016-.024.062-.07.078-.094.075-.082.007-.012c.055-.062.102-.125.153-.187h.004l.07-.086.008-.008c.043-.062.094-.12.137-.18l.011-.015.02-.024.054-.07.02-.027.05-.07.012-.012a7.47 7.47 0 0 0 .13-.184l.007-.008.055-.074.016-.02.023-.03.047-.071.062-.09.016-.02c.043-.062.082-.124.125-.187l.004-.008.023-.035.043-.066.004-.008.125-.188.008-.015c.098-.156.207-.301.336-.438v-.004h.008l.117-.117c.195-.176.41-.32.644-.433h.004l.043-.016.004-.004.051-.023h.004a2.57 2.57 0 0 1 .894-.192h.165c.3.008.605.074.894.192h.004l.055.027.043.016h.004c.23.113.453.257.644.433l.117.117h.004v.004c.133.137.242.282.34.438l.063.094.019.039.05.074.009.008.058.09.012.015c.039.063.078.125.121.18l.004.015.055.07.015.032.055.07.023.032.008.011.063.086.047.07.023.028.012.023c.043.055.086.114.133.168l.003.008.051.07.02.024.011.015c.043.06.094.118.141.176l.004.012.07.082.008.016.067.078.015.015c.047.059.094.121.145.176h.004l.054.07.024.024.011.016c.051.054.098.113.145.168l.066.07.02.023.027.028c.07.082.149.16.223.238l.066.07.016.02.066.07.305.3.059.06.074.07.015.011.075.07.011.02.079.067.015.011.074.07.012.012.082.07.012.009.078.07.012.015.082.07.011.009.079.07.015.008.082.07.008.008.086.07.012.012.015.012c.059.046.118.093.172.14l.086.067.012.007.082.067.015.008.083.066.011.008.09.066.008.004.09.07.008.004.09.067.011.004.09.066.004.004.098.066.003.004.094.067.008.004.098.066.004.004.097.066h.004l.094.067h.008l.097.066.008.004.094.063.004.004.101.062h.004l.102.059v.004l.422.246h.004l.105.062a15.455 15.455 0 0 0 7.496 1.914c2.738 0 5.293-.695 7.5-1.914l.317-.183h.003l.102-.063h.004l.102-.062.003-.004.204-.121.003-.004.102-.063.004-.004.094-.066h.007l.094-.067h.012l.094-.066.004-.004.097-.066.004-.004.098-.067.004-.004.094-.066.007-.004.094-.066.008-.004.086-.067.008-.003.09-.07.011-.005.09-.066.008-.008.09-.066.007-.008.086-.067.008-.007.09-.067c.059-.047.113-.094.172-.14l.031-.024.078-.07.012-.008.078-.07.016-.008.078-.07.02-.008.074-.07.015-.016.075-.07.02-.008.073-.07.012-.012.078-.07.016-.012.074-.067.012-.02.074-.07.02-.011.07-.07.066-.06.02-.023.02-.02.007-.003.168-.168.066-.07.086-.086.012-.02.07-.07c.075-.078.153-.156.227-.238l.02-.028.023-.023.062-.07c.047-.055.098-.114.149-.168l.012-.016.078-.094c.05-.055.097-.117.148-.176l.012-.015.066-.078.012-.016.066-.082.008-.012c.051-.058.094-.117.14-.176l.009-.015.023-.024.055-.07.004-.008c.039-.054.082-.113.125-.168l.015-.023.02-.027.055-.07.058-.087.012-.011.02-.032.05-.07.02-.031.05-.07.008-.016c.04-.055.082-.117.121-.18l.012-.015.059-.09.004-.008.05-.074.028-.04.047-.078.007-.015c.098-.156.211-.301.34-.438l.11-.11.015-.01c.196-.177.414-.321.645-.434l.047-.016.004-.004.05-.023a2.57 2.57 0 0 1 .895-.192h.164c.3.008.605.074.898.192l.055.023.004.004.039.016h.004c.234.113.453.257.644.433l.04.04.019.011.02.023v.004l.03.028.013.011h.003v.004c.13.137.247.282.336.438l.063.094.023.039.047.074.008.008.059.09.011.015c.04.063.082.125.125.18l.008.015.047.07.023.032.047.07.024.032.008.011.062.086.05.07.024.028.012.023c.04.055.086.114.129.168l.004.008.05.07.024.024.008.015c.05.06.094.118.14.176l.008.012.067.082.015.016.059.078.02.015c.042.059.093.121.144.176l.062.07.016.024.016.016c.047.054.093.113.148.168l.063.07.015.023.028.028c.074.082.148.16.222.238l.067.07.086.09.015.016.235.238.011.004.016.02.023.023.063.058.074.07.012.012.074.07.02.02.074.067.012.011.078.07.015.012.075.07.011.009.078.07.016.015.078.07.012.009.086.07.008.008.082.07.015.008.078.07.012.012.02.012c.054.046.113.093.171.14l.086.067.008.007.09.067.008.008.086.066.012.008.085.066.008.004.09.07.008.004.094.067.007.004.094.066.008.004.09.066.004.004.097.067.004.004.098.066.004.004.098.066h.003l.098.067h.004l.102.066.004.004.101.063v.004l.098.062h.008l.097.059.008.004.098.062h.007l.098.063h.004l.102.062h.004l.21.121a15.459 15.459 0 0 0 7.5 1.914c2.735 0 5.29-.695 7.497-1.914l.316-.183h.004l.101-.063h.004l.102-.062.004-.004.101-.059h.004l.098-.062.004-.004.101-.063.004-.004.098-.066h.008l.097-.067h.004l.098-.066.004-.004.094-.066.004-.004.097-.067.004-.004.094-.066.008-.004.093-.066.008-.004.086-.067.012-.003.09-.07.011-.005.086-.066.008-.008.09-.066.008-.008.086-.067.012-.007.085-.067.008-.008.086-.07.012-.008.082-.066.016-.012.078-.07.011-.008.086-.07.012-.008.078-.07.016-.008.078-.07.012-.016.082-.07.011-.008.075-.07.011-.012.082-.07.012-.012.074-.067c.059-.054.11-.105.164-.156l.032-.031.074-.067.074-.082.008-.004.105-.105.067-.07c.05-.047.097-.102.144-.149l.043-.043.067-.07.015-.02.067-.074.02-.015.066-.07.015-.024.063-.07.015-.02.067-.07.097-.118.063-.07.07-.082.012-.012c.047-.062.102-.125.148-.187h.004l.067-.086.008-.008c.05-.062.093-.12.14-.18l.012-.015.02-.024.054-.07.02-.027.054-.07.008-.012c.043-.059.09-.121.133-.184l.008-.008.054-.074.012-.02.024-.03.046-.071.063-.09.016-.02c.039-.062.082-.124.125-.187l.007-.008.02-.035.047-.066.004-.008.047-.078.023-.028.05-.082.005-.015c.097-.156.21-.301.34-.438l.003-.004h.004l.008-.011.04-.043.019-.012.05-.05c.196-.177.415-.321.649-.434h.004l.039-.016.004-.004.05-.023h.009c.285-.118.585-.184.89-.192h.164c.305.008.606.074.895.192l.054.023.004.004.043.016c.235.113.453.257.645.433l.02.012.023.027h.004l.082.082c.129.137.242.282.34.438l.003.015.079.118.046.074.004.008.063.09.008.015c.039.063.086.125.125.18l.007.015.047.07.024.032.047.07.023.032.008.011.062.086.051.07.024.028.011.023c.067.086.133.176.204.266l.015.02c.047.058.09.117.137.175l.008.008c.047.063.097.121.148.184l.012.011c.05.059.097.121.144.176l.004.008c.082.09.16.184.239.27l.062.07.016.023.086.086.062.074.035.036.067.07.172.176.066.07.105.105.07.067.044.043.062.058.07.07.016.012.074.07.016.02.016.012.07.066.078.07.016.012.078.07.012.009.078.07.011.015.082.07.012.009.082.07.012.008.078.07.016.008.082.07.007.012.086.066.012.008.082.07.012.008.086.067.008.007.09.067.007.008.09.066.008.008.086.066.012.004.09.07.007.004.09.067.008.004.094.066.007.004.094.066.008.004.09.067.008.004.093.066.004.004.098.066h.004l.101.067h.004l.098.066.004.004.101.063.004.004.204.12.003.005.102.062h.004l.101.063h.004l.317.183a15.459 15.459 0 0 0 7.5 1.914h.183a15.43 15.43 0 0 0 10.09-3.883 15.566 15.566 0 0 0 4.48-6.859H230.13a15.533 15.533 0 0 0 4.48 6.86 15.412 15.412 0 0 0 5.625 3.175zm84.168 46.64h-20.925v21.423h20.925zm-20.925-5.132h20.925v-12.961h-20.925zm-60.528-56.684h95.696l-4.422-13.16c-.325-.976-.72-1.883-1.317-2.453-.508-.492-1.304-.808-2.601-.808h-79.012c-1.293 0-2.094.316-2.606.808-.597.57-.988 1.477-1.316 2.453zm15.301 59.957h23.984v-16.234H258.25zm24.672 5.137c1.21 0 2.32-.5 3.129-1.3h.004l.007-.016a4.418 4.418 0 0 0 1.31-3.133v-17.61c0-1.21-.5-2.316-1.298-3.128l-.012-.004-.003-.012h-.004a4.445 4.445 0 0 0-3.133-1.305h-25.36c-1.23 0-2.34.5-3.144 1.305l.004.008a4.444 4.444 0 0 0-1.309 3.137v17.609a4.46 4.46 0 0 0 1.102 2.926c.062.074.133.148.203.222a4.443 4.443 0 0 0 3.144 1.301zm61.629-45.617v61.312a7.569 7.569 0 0 1-2.23 5.36 7.562 7.562 0 0 1-5.356 2.222h-92.328a7.565 7.565 0 0 1-5.36-2.222 7.553 7.553 0 0 1-2.23-5.36v-61.312a20.845 20.845 0 0 1-5.832-3.64c-3.684-3.27-6.195-7.829-6.809-12.966a2.558 2.558 0 0 1 2.246-2.847c.102-.016.203-.02.301-.02v-.004h10.598l4.965-14.785c.55-1.64 1.285-3.238 2.62-4.523 1.423-1.367 3.364-2.254 6.157-2.254h79.012c2.797 0 4.73.887 6.152 2.254 1.34 1.285 2.078 2.883 2.625 4.523l4.965 14.785h10.598a2.563 2.563 0 0 1 2.566 2.567c0 .148-.008.3-.035.441-.645 5.082-3.14 9.586-6.793 12.828a20.845 20.845 0 0 1-5.832 3.64m168.399 6.368H400.593v35.66a2.932 2.932 0 0 0 2.918 2.922h106.52c.796 0 1.53-.332 2.062-.855a2.927 2.927 0 0 0 .855-2.067zm0-19.066H400.593v13.93h112.355zm-112.356-5.137h112.355v-7.086c0-.8-.328-1.531-.855-2.059a2.92 2.92 0 0 0-2.063-.859h-106.52a2.9 2.9 0 0 0-2.058.86 2.896 2.896 0 0 0-.86 2.058zm12.203 38.52h38.953a2.572 2.572 0 0 0 0-5.141h-38.953a2.572 2.572 0 0 0 0 5.14zm0 10.878h25.687a2.566 2.566 0 0 0 2.567-2.566 2.572 2.572 0 0 0-2.567-2.574h-25.687a2.572 2.572 0 0 0-2.567 2.574 2.566 2.566 0 0 0 2.567 2.566zM518.09 384.29v66.95a8.024 8.024 0 0 1-2.367 5.695 8.018 8.018 0 0 1-5.692 2.363h-106.52a8.025 8.025 0 0 1-5.69-2.363 8.04 8.04 0 0 1-2.368-5.696V384.29a8.03 8.03 0 0 1 2.367-5.691 8.045 8.045 0 0 1 5.692-2.368h106.52a8.03 8.03 0 0 1 5.69 2.368 8.015 8.015 0 0 1 2.368 5.691m-104.04-74.845H301.692v35.66c0 .801.336 1.528.86 2.06a2.923 2.923 0 0 0 2.062.862h106.52a2.9 2.9 0 0 0 2.058-.863 2.9 2.9 0 0 0 .86-2.059zm0-19.074H301.692v13.934h112.36zm-112.359-5.133h112.36v-7.086a2.9 2.9 0 0 0-.86-2.058 2.9 2.9 0 0 0-2.058-.864h-106.52c-.797 0-1.531.332-2.062.864a2.936 2.936 0 0 0-.86 2.058zm12.211 38.52h38.953a2.569 2.569 0 0 0 2.567-2.57 2.566 2.566 0 0 0-2.567-2.57h-38.953a2.57 2.57 0 1 0 0 5.14zm0 10.879h25.684a2.572 2.572 0 0 0 2.57-2.567 2.572 2.572 0 0 0-2.57-2.57h-25.684a2.572 2.572 0 0 0-2.57 2.57 2.572 2.572 0 0 0 2.57 2.567zm105.29-56.485v66.953a8.06 8.06 0 0 1-2.364 5.696 8.04 8.04 0 0 1-5.695 2.36h-106.52a8.031 8.031 0 0 1-5.691-2.36 8.041 8.041 0 0 1-2.363-5.696v-66.953c0-2.218.902-4.23 2.363-5.695a8.034 8.034 0 0 1 5.691-2.363h106.52c2.219 0 4.238.906 5.695 2.363a8.057 8.057 0 0 1 2.363 5.695" fill-rule="evenodd"/><g clip-path="url(#s)"><path fill="#004aad" d="M812.223 17.191a6.37 6.37 0 0 0 4.52 1.872 6.355 6.355 0 0 0 4.515-1.872 6.338 6.338 0 0 0 1.87-4.515c0-1.766-.71-3.364-1.87-4.52a6.367 6.367 0 0 0-4.516-1.867 6.384 6.384 0 0 0-4.52 1.867 6.384 6.384 0 0 0-1.867 4.52c0 1.765.715 3.363 1.868 4.515zm4.52 7.012a11.51 11.51 0 0 0 8.152-3.375 11.509 11.509 0 0 0 3.113-5.71v-4.884a11.48 11.48 0 0 0-3.113-5.707 11.48 11.48 0 0 0-8.153-3.379 11.47 11.47 0 0 0-8.148 3.38 11.47 11.47 0 0 0-3.38 8.148 11.48 11.48 0 0 0 3.38 8.152 11.5 11.5 0 0 0 8.148 3.375zm-89.548-7.012a6.37 6.37 0 0 0 4.52 1.872 6.355 6.355 0 0 0 4.515-1.872 6.342 6.342 0 0 0 1.875-4.515 6.358 6.358 0 0 0-1.875-4.52 6.367 6.367 0 0 0-4.515-1.867 6.384 6.384 0 0 0-6.39 6.387c0 1.765.714 3.363 1.87 4.515zm4.52 7.012c3.183 0 6.066-1.293 8.148-3.375a11.493 11.493 0 0 0 3.375-8.152c0-3.184-1.289-6.063-3.375-8.149a11.464 11.464 0 0 0-8.148-3.379c-3.184 0-6.067 1.29-8.149 3.38a11.487 11.487 0 0 0-3.379 8.148c0 3.183 1.293 6.066 3.38 8.152a11.493 11.493 0 0 0 8.148 3.375zm-21.5-33.266V9.902h2.496a19.186 19.186 0 0 1 5.508-10.894 19.147 19.147 0 0 1 13.496-5.547A19.147 19.147 0 0 1 745.21-.992a19.21 19.21 0 0 1 5.508 10.894h2.496V-9.063h5.137V9.902h39.386A19.167 19.167 0 0 1 803.25-.992a19.13 19.13 0 0 1 13.492-5.547c4.211 0 8.098 1.36 11.266 3.66v7.106a14.043 14.043 0 0 0-11.266-5.629c-3.863 0-7.36 1.55-9.898 4.062a14.01 14.01 0 0 0-4.188 9.84 2.557 2.557 0 0 1-2.558 2.531v.012h-51.743v-.012a2.562 2.562 0 0 1-2.558-2.531 14.02 14.02 0 0 0-4.18-9.84 14.043 14.043 0 0 0-9.902-4.062c-3.863 0-7.36 1.55-9.903 4.062a14.026 14.026 0 0 0-4.175 9.64c0 .055.004.114.004.173a2.572 2.572 0 0 1-2.57 2.57h-7.426a2.572 2.572 0 0 1-2.567-2.57V-9.062h5.137" fill-rule="evenodd"/></g><g clip-path="url(#t)"><path fill="#004aad" d="M716.977 513.496v68.063h39.39a19.142 19.142 0 0 1 5.512-10.899 19.13 19.13 0 0 1 13.488-5.547 19.147 19.147 0 0 1 13.492 5.547 19.166 19.166 0 0 1 5.512 10.899h14.192v-68.063c0-.531-.215-1.012-.567-1.36a1.906 1.906 0 0 0-1.363-.57H718.91c-.527 0-1.015.215-1.363.57a1.89 1.89 0 0 0-.57 1.36zm-5.137 10.027h-32.813c-1.004 0-1.87.57-2.293 1.407l-12.668 21.449a2.589 2.589 0 0 0-.355 1.308h-.004v36.438a2.569 2.569 0 0 0 2.566 2.57h7.426a2.569 2.569 0 0 0 2.567-2.57c0-.055 0-.113-.004-.172a14.017 14.017 0 0 1 4.176-9.64 14.06 14.06 0 0 1 9.902-4.063 14.04 14.04 0 0 1 9.898 4.063 14.026 14.026 0 0 1 4.188 9.843 2.558 2.558 0 0 0 2.554 2.528v.011h51.747v-.011a2.56 2.56 0 0 0 2.558-2.528 14.023 14.023 0 0 1 4.184-9.843 14.05 14.05 0 0 1 9.898-4.063 14.06 14.06 0 0 1 9.903 4.063 14.037 14.037 0 0 1 4.18 9.64 2.572 2.572 0 0 0 2.559 2.742h19.124a2.572 2.572 0 0 0 2.57-2.57v-70.629c0-1.95-.797-3.715-2.074-4.992a7.048 7.048 0 0 0-4.996-2.078H718.91c-1.95 0-3.715.797-4.996 2.078a7.028 7.028 0 0 0-2.074 4.992zm59.012 65.325a6.368 6.368 0 0 0 4.515 1.87 6.37 6.37 0 0 0 4.52-1.87 6.357 6.357 0 0 0 1.87-4.52 6.355 6.355 0 0 0-1.87-4.515 6.374 6.374 0 0 0-4.52-1.875c-1.762 0-3.36.718-4.515 1.875a6.358 6.358 0 0 0-1.875 4.515 6.36 6.36 0 0 0 1.875 4.52zm4.515 7.007a11.49 11.49 0 0 1-8.148-3.375 11.47 11.47 0 0 1-3.375-8.152 11.46 11.46 0 0 1 3.375-8.148 11.49 11.49 0 0 1 8.148-3.375c3.184 0 6.067 1.289 8.149 3.375a11.46 11.46 0 0 1 3.375 8.148 11.47 11.47 0 0 1-3.375 8.152 11.477 11.477 0 0 1-8.149 3.375zm-89.543-7.007a6.344 6.344 0 0 1-1.875-4.52c0-1.765.715-3.363 1.875-4.515a6.358 6.358 0 0 1 4.516-1.875c1.765 0 3.367.718 4.52 1.875a6.355 6.355 0 0 1 1.87 4.515c0 1.77-.714 3.367-1.87 4.52a6.364 6.364 0 0 1-4.52 1.87 6.355 6.355 0 0 1-4.516-1.87zm4.516 7.007a11.477 11.477 0 0 1-8.149-3.375 11.486 11.486 0 0 1-3.375-8.152 11.48 11.48 0 0 1 3.375-8.148 11.477 11.477 0 0 1 8.149-3.375 11.47 11.47 0 0 1 8.148 3.375 11.464 11.464 0 0 1 3.38 8.148 11.47 11.47 0 0 1-3.38 8.152 11.47 11.47 0 0 1-8.148 3.375zm21.5-44.98h-43v30.684h2.496a19.213 19.213 0 0 1 5.512-10.899c3.472-3.426 8.234-5.547 13.492-5.547 5.258 0 10.023 2.121 13.496 5.547a19.237 19.237 0 0 1 5.512 10.899h2.492zm-41.438-5.14h41.438V528.66h-31.356zm27.934 14.316a2.566 2.566 0 0 1-2.566-2.57 2.569 2.569 0 0 1 2.566-2.57h6.047a2.569 2.569 0 0 1 2.566 2.57 2.566 2.566 0 0 1-2.566 2.57h-6.047" fill-rule="evenodd"/></g><path fill="#004aad" d="M394.324 487.969v68.062h39.387a19.178 19.178 0 0 1 5.512-10.898 19.147 19.147 0 0 1 13.492-5.547 19.147 19.147 0 0 1 13.492 5.547 19.154 19.154 0 0 1 5.512 10.898h14.191V487.97a1.93 1.93 0 0 0-.566-1.36 1.93 1.93 0 0 0-1.364-.57h-87.726a1.93 1.93 0 0 0-1.363.57 1.926 1.926 0 0 0-.567 1.36zm-5.137 10.027h-32.816c-.996 0-1.867.574-2.289 1.402l-12.668 21.457c-.242.41-.36.86-.36 1.305h-.007v36.438a2.57 2.57 0 0 0 2.574 2.57h7.426a2.566 2.566 0 0 0 2.566-2.57c0-.059-.004-.114-.008-.172a14.03 14.03 0 0 1 4.18-9.637 14.027 14.027 0 0 1 9.902-4.062c3.864 0 7.36 1.55 9.903 4.062a14.021 14.021 0 0 1 4.18 9.844 2.566 2.566 0 0 0 2.558 2.527v.008h51.742v-.008a2.57 2.57 0 0 0 2.563-2.527 14.008 14.008 0 0 1 4.183-9.844 14.027 14.027 0 0 1 9.899-4.062c3.863 0 7.36 1.55 9.902 4.062a14.01 14.01 0 0 1 4.176 9.637c-.004.058-.004.113-.004.172a2.569 2.569 0 0 0 2.566 2.57h19.13a2.569 2.569 0 0 0 2.566-2.57v-70.63a7.039 7.039 0 0 0-2.078-4.991 7.028 7.028 0 0 0-4.993-2.075h-87.726a7.035 7.035 0 0 0-4.992 2.075 7.035 7.035 0 0 0-2.075 4.992zm59.008 65.324a6.388 6.388 0 0 0 4.52 1.875 6.358 6.358 0 0 0 4.515-1.875 6.355 6.355 0 0 0 1.875-4.515 6.358 6.358 0 0 0-1.875-4.52 6.355 6.355 0 0 0-4.515-1.87 6.384 6.384 0 0 0-6.387 6.39 6.38 6.38 0 0 0 1.867 4.515zm4.52 7.008a11.49 11.49 0 0 1-8.149-3.375 11.478 11.478 0 0 1-3.378-8.148c0-3.184 1.289-6.067 3.378-8.149a11.506 11.506 0 0 1 16.3 0 11.493 11.493 0 0 1 3.376 8.149c0 3.18-1.293 6.062-3.375 8.148a11.5 11.5 0 0 1-8.152 3.375zm-89.543-7.008a6.355 6.355 0 0 1-1.875-4.515c0-1.766.715-3.364 1.875-4.52a6.355 6.355 0 0 1 4.515-1.87 6.37 6.37 0 0 1 4.52 1.87 6.37 6.37 0 0 1 1.871 4.52c0 1.761-.715 3.36-1.871 4.515a6.374 6.374 0 0 1-4.52 1.875 6.358 6.358 0 0 1-4.515-1.875zm4.515 7.008a11.476 11.476 0 0 1-8.148-3.375 11.49 11.49 0 0 1-3.375-8.148c0-3.184 1.29-6.067 3.375-8.149a11.483 11.483 0 0 1 8.149-3.383c3.183 0 6.066 1.297 8.148 3.383a11.477 11.477 0 0 1 3.375 8.149c0 3.18-1.29 6.062-3.375 8.148a11.477 11.477 0 0 1-8.149 3.375zm21.5-44.984h-43v30.687h2.497a19.202 19.202 0 0 1 5.511-10.898 19.147 19.147 0 0 1 13.493-5.547 19.147 19.147 0 0 1 13.492 5.547 19.202 19.202 0 0 1 5.511 10.898h2.497zm-41.44-5.133h41.44v-17.074h-31.355zm27.937 14.312a2.569 2.569 0 0 1 0-5.136h6.043a2.572 2.572 0 0 1 2.57 2.566 2.572 2.572 0 0 1-2.57 2.57h-6.043" fill-rule="evenodd"/></g></svg>