<svg xmlns="http://www.w3.org/2000/svg" width="1080" viewBox="0 0 810 810" height="1080" version="1.0"><defs><clipPath id="a"><path d="M86 176.063h287v457.812H86zm0 0"/></clipPath><clipPath id="b"><path d="M639.383 495H716v138.203h-76.617zm0 0"/></clipPath><clipPath id="c"><path d="M760 319h49.941v72H760zm0 0"/></clipPath></defs><path fill="#fc785e" d="M6.531 366.488h65.305V512.27H6.53zM386.723 366.488h65.304V512.27h-65.304zm0 0"/><path fill="#e1ebf4" d="M90.3 280.68a82.314 82.314 0 0 0-8.66 13.414 83.802 83.802 0 0 0-7.304 19.074 83.803 83.803 0 0 0-2.5 20.27v33.046H6.53v-33.046S21.703 280.68 66.47 280.68zM449.773 343.738v22.746h-63.05v-33.046a83.8 83.8 0 0 0-2.496-20.27 83.985 83.985 0 0 0-7.305-19.074 82.575 82.575 0 0 0-8.66-13.414h33.672s47.84 23.25 47.84 63.058zm0 0"/><path fill="#ffdb80" d="M127.059 253.41H65.125v29.953h23.137a86.83 86.83 0 0 1 17.234-17.777 86.946 86.946 0 0 1 10.344-6.863 86.82 86.82 0 0 1 11.219-5.313zM331.504 253.41a86.63 86.63 0 0 1 38.793 29.953h32.976V253.41zm0 0"/><path fill="#e1ebf4" d="M71.836 512.7v85.585c-33.602-.32-55.465-.535-55.465-.535s-9.84-22.496-9.84-62.305V512.7zM449.793 545.742v-33.054h-63.07v85.421c0 .95-.09 1.875-.141 2.813 15.762.105 27.516.168 33.54.168 44.76 0 29.671-55.348 29.671-55.348zm0 0"/><path fill="#fc785e" d="M132.668 250.91a28.769 28.769 0 0 1-3.113-2.078 28.642 28.642 0 0 1-2.813-2.469 28.613 28.613 0 0 1-8.39-20.227v-15.648H49.023v40.684h83.645zM340.207 210.488v15.649a28.416 28.416 0 0 1-.98 7.402 27.607 27.607 0 0 1-1.204 3.543 28.156 28.156 0 0 1-1.656 3.356 28.58 28.58 0 0 1-2.078 3.113 28.642 28.642 0 0 1-8.394 7.36v.26h81.851v-40.683zm0 0"/><g clip-path="url(#a)"><path fill="#2d4356" d="M311.582 262.797v-22.352c.938 0 1.871-.093 2.793-.277a14.27 14.27 0 0 0 2.684-.813c.867-.359 1.691-.8 2.476-1.32a14.371 14.371 0 0 0 3.95-3.95 14.444 14.444 0 0 0 2.136-5.155c.18-.922.274-1.852.274-2.793v-28.614c0-.703-.036-1.402-.106-2.101-.07-.7-.172-1.395-.312-2.082a21.39 21.39 0 0 0-3.207-7.735 21.268 21.268 0 0 0-4.23-4.664 21.268 21.268 0 0 0-1.692-1.254 22.31 22.31 0 0 0-1.805-1.085 22.907 22.907 0 0 0-1.906-.899 20.972 20.972 0 0 0-1.98-.71 21.993 21.993 0 0 0-4.13-.825 22.2 22.2 0 0 0-2.101-.106h-150.29c-.702.004-1.406.036-2.105.106-.699.07-1.394.172-2.082.312a21.39 21.39 0 0 0-5.93 2.122 21.722 21.722 0 0 0-3.5 2.34c-.542.445-1.062.917-1.558 1.413-.5.497-.969 1.016-1.414 1.56-.45.542-.867 1.105-1.258 1.69a21.684 21.684 0 0 0-1.984 3.707 21.39 21.39 0 0 0-1.223 4.027 21.93 21.93 0 0 0-.312 2.083c-.067.7-.102 1.398-.102 2.101v28.614a14.254 14.254 0 0 0 2.41 7.949 14.371 14.371 0 0 0 3.95 3.95c.78.519 1.605.96 2.472 1.32a14.396 14.396 0 0 0 5.48 1.09v22.35c-2.093.321-4.167.731-6.222 1.231a73.004 73.004 0 0 0-6.094 1.778 72.226 72.226 0 0 0-5.906 2.308 71.471 71.471 0 0 0-16.188 9.918 70.196 70.196 0 0 0-4.738 4.215 71.85 71.85 0 0 0-8.27 9.602 70.749 70.749 0 0 0-3.464 5.312 71.644 71.644 0 0 0-5.453 11.438 71.429 71.429 0 0 0-1.95 6.035 71.437 71.437 0 0 0-1.402 6.183 71.425 71.425 0 0 0-1.145 12.621V598.11a36.29 36.29 0 0 0 .18 3.504c.113 1.164.29 2.32.52 3.469.226 1.148.515 2.281.855 3.402.34 1.121.734 2.22 1.184 3.301.449 1.082.953 2.14 1.504 3.172a36.075 36.075 0 0 0 6.257 8.426 35.312 35.312 0 0 0 5.418 4.445 35.005 35.005 0 0 0 3.008 1.805 35.62 35.62 0 0 0 6.477 2.687 34.12 34.12 0 0 0 3.402.856 36.226 36.226 0 0 0 6.977.7l214.699-.001a36.162 36.162 0 0 0 6.976-.7 34.12 34.12 0 0 0 3.403-.855 35.386 35.386 0 0 0 6.476-2.687 35.682 35.682 0 0 0 8.43-6.25 35.37 35.37 0 0 0 2.356-2.602 35.054 35.054 0 0 0 2.093-2.816 35.005 35.005 0 0 0 1.805-3.008 35.112 35.112 0 0 0 1.504-3.172c.45-1.082.844-2.18 1.183-3.3.344-1.122.63-2.255.86-3.403.23-1.148.402-2.305.52-3.469.117-1.168.175-2.336.175-3.504V333.437a71.422 71.422 0 0 0-1.14-12.62 72.936 72.936 0 0 0-1.407-6.184 71.4 71.4 0 0 0-10.867-22.785 70.69 70.69 0 0 0-3.922-4.985 69.348 69.348 0 0 0-4.347-4.617 70.196 70.196 0 0 0-4.739-4.215 70.697 70.697 0 0 0-5.093-3.781 71.546 71.546 0 0 0-5.41-3.313 71.784 71.784 0 0 0-5.68-2.824 72.867 72.867 0 0 0-5.91-2.308 73.353 73.353 0 0 0-6.09-1.778 73.59 73.59 0 0 0-6.223-1.23zM146.98 197.523c0-.468.047-.933.141-1.394a7.274 7.274 0 0 1 1.07-2.574c.262-.39.559-.75.891-1.082a7.106 7.106 0 0 1 2.32-1.55c.434-.18.88-.318 1.34-.411a6.98 6.98 0 0 1 1.395-.14h150.289c.469 0 .933.046 1.394.14.457.093.907.23 1.34.41a7.07 7.07 0 0 1 2.317 1.55 7.17 7.17 0 0 1 2.105 5.051v28.614H146.98zm150.286 42.922v21.457H161.293v-21.457zm60.832 357.664c0 .703-.036 1.403-.106 2.102a21.39 21.39 0 0 1-4.773 11.508 21.375 21.375 0 0 1-1.414 1.558c-.496.496-1.016.97-1.559 1.414-.547.446-1.11.864-1.695 1.254a21.684 21.684 0 0 1-3.707 1.984 21.446 21.446 0 0 1-8.215 1.637h-214.7c-.699 0-1.402-.035-2.1-.101a21.931 21.931 0 0 1-4.126-.824 21.756 21.756 0 0 1-5.695-2.695 21.268 21.268 0 0 1-1.692-1.255 21.375 21.375 0 0 1-6.215-8.375 21.39 21.39 0 0 1-1.223-4.023 20.744 20.744 0 0 1-.312-2.082c-.07-.7-.105-1.399-.105-2.102v-57.226h257.637zm0-71.535H100.46v-157.37h257.637zm0-171.68H100.46v-21.457a57.26 57.26 0 0 1 .285-5.609 56.928 56.928 0 0 1 2.2-10.996 56.714 56.714 0 0 1 4.3-10.355 57.714 57.714 0 0 1 2.887-4.817 58.771 58.771 0 0 1 3.347-4.508 56.798 56.798 0 0 1 3.774-4.16 57.048 57.048 0 0 1 8.672-7.113 57.756 57.756 0 0 1 4.816-2.89 57.488 57.488 0 0 1 15.809-5.668 57.195 57.195 0 0 1 11.164-1.11h143.133a57.317 57.317 0 0 1 16.609 2.48 57.488 57.488 0 0 1 10.363 4.297 57.756 57.756 0 0 1 9.325 6.235 56.745 56.745 0 0 1 7.934 7.93 57.76 57.76 0 0 1 3.347 4.507 57.755 57.755 0 0 1 2.89 4.817 57.78 57.78 0 0 1 4.301 10.355 57.81 57.81 0 0 1 2.2 10.996c.183 1.867.28 3.735.28 5.61zm0 0"/></g><path fill="#81d9e3" d="M311.582 197.523v28.614H146.98v-28.614c0-.468.047-.933.141-1.394a7.274 7.274 0 0 1 1.07-2.574c.262-.39.559-.75.891-1.082a7.106 7.106 0 0 1 2.32-1.55c.434-.18.88-.318 1.34-.411a6.98 6.98 0 0 1 1.395-.14h150.289c.469 0 .933.046 1.394.14.457.093.907.23 1.34.41a7.07 7.07 0 0 1 2.317 1.55 7.17 7.17 0 0 1 2.105 5.051zm0 0"/><path fill="#ffdb80" d="M161.293 240.445h135.973v21.457H161.293zm0 0"/><path fill="#e1ebf4" d="M358.098 333.438v21.457H100.46v-21.457a57.26 57.26 0 0 1 .285-5.61 56.928 56.928 0 0 1 2.2-10.996 56.714 56.714 0 0 1 4.3-10.355 57.714 57.714 0 0 1 2.887-4.817 58.771 58.771 0 0 1 3.347-4.508 56.798 56.798 0 0 1 3.774-4.16 57.048 57.048 0 0 1 8.672-7.113 57.756 57.756 0 0 1 4.816-2.89 57.488 57.488 0 0 1 15.809-5.668 57.195 57.195 0 0 1 11.164-1.11h143.133a57.317 57.317 0 0 1 16.609 2.48 57.488 57.488 0 0 1 10.363 4.297 57.756 57.756 0 0 1 9.325 6.235 56.745 56.745 0 0 1 7.934 7.93 57.76 57.76 0 0 1 3.347 4.507 57.755 57.755 0 0 1 2.89 4.817 57.78 57.78 0 0 1 4.301 10.355 57.81 57.81 0 0 1 2.2 10.996c.183 1.867.28 3.735.28 5.61zm0 0"/><path fill="#81d9e3" d="M100.46 369.203v157.371h257.638v-157.37zm81.587 114.953c2.898 4.258 7.3 10.73 11.844 12.48a14.798 14.798 0 0 0 4.664 1.145c1.613.13 3.21 0 4.78-.39.72-.18 4.118-1.145 5.227-1.395-.574 4.254-.714 7.258-.753 8.262-.07 2.21.203 4.383.824 6.508-.61.18-1.215.359-1.824.5a29.022 29.022 0 0 1-9.137.796 28.95 28.95 0 0 1-8.934-2.082c-8.73-3.363-14.636-12.054-18.535-17.777a72.045 72.045 0 0 1-6.781-12.476 71.83 71.83 0 0 1-4.211-13.559 72.03 72.03 0 0 1-1.48-14.121 71.838 71.838 0 0 1 1.308-14.137 36.142 36.142 0 0 1 10.703-20.242 36.024 36.024 0 0 1 6.149-4.723 38.728 38.728 0 0 1 7.46-3.078 38.515 38.515 0 0 1 7.93-1.476 38.94 38.94 0 0 1 15.922 2.05c.36-1.312.578-2.648.649-4.003a18.909 18.909 0 0 0-1.297-7.965 18.875 18.875 0 0 0-1.895-3.59 7.197 7.197 0 0 1-1.176-2.531 7.23 7.23 0 0 1-.117-2.79c.074-.464.192-.917.352-1.359.16-.441.363-.86.61-1.262.245-.402.526-.773.843-1.12a7.212 7.212 0 0 1 2.254-1.645 6.92 6.92 0 0 1 1.324-.465 7.272 7.272 0 0 1 2.793-.117c.46.074.914.187 1.355.351.442.16.864.364 1.266.61.402.242.774.523 1.121.84.344.32.656.668.934 1.046a32.449 32.449 0 0 1 3.168 5.559 32.198 32.198 0 0 1 2.011 6.074c.47 2.09.73 4.203.778 6.348.05 2.14-.11 4.265-.48 6.379a38.672 38.672 0 0 1 8.07-2.113 38.903 38.903 0 0 1 8.336-.34c2.793.183 5.53.664 8.218 1.441a38.833 38.833 0 0 1 7.723 3.156c4.598 2.692 8.328 6.278 11.2 10.766a89.053 89.053 0 0 0-13.778 5.437 18.287 18.287 0 0 0-4.653-3.863 24.812 24.812 0 0 0-4.773-1.84 24.878 24.878 0 0 0-5.05-.828 24.571 24.571 0 0 0-5.11.227c-1.7.25-3.352.668-4.961 1.261-4.207 1.915-8.621 2.77-13.238 2.575a30.84 30.84 0 0 1-10.664-2.575 24.68 24.68 0 0 0-4.957-1.261 24.62 24.62 0 0 0-5.114-.227c-1.71.102-3.394.38-5.05.828a24.812 24.812 0 0 0-4.774 1.84 22.759 22.759 0 0 0-3.68 2.961 22.76 22.76 0 0 0-2.98 3.664 22.322 22.322 0 0 0-2.156 4.2 22.386 22.386 0 0 0-1.239 4.554 57.732 57.732 0 0 0-1.043 11.328 57.938 57.938 0 0 0 4.579 22.176 57.941 57.941 0 0 0 5.445 9.988zm102.805 11.23c-16.82 15.024-40.258 16.884-50.778 16.884-5.082 0-12.164-.79-11.949-7.547.035-1.395 1.36-34.73 23.148-54.258 21.829-19.527 54.82-16.813 56.215-16.703a7.25 7.25 0 0 1 1.328.254 7.4 7.4 0 0 1 1.258.5c.403.203.781.445 1.14.722.356.278.684.586.985.922.301.34.567.703.797 1.094.23.387.422.797.578 1.219.153.425.266.863.34 1.308.07.446.102.895.09 1.348-.04 1.394-1.363 34.73-23.152 54.258zm0 0"/><path fill="#e1ebf4" d="M358.098 540.883v57.226c0 .703-.036 1.403-.106 2.102a21.39 21.39 0 0 1-4.773 11.508 21.375 21.375 0 0 1-1.414 1.558c-.496.496-1.016.97-1.559 1.414-.547.446-1.11.864-1.695 1.254a21.684 21.684 0 0 1-3.707 1.984 21.446 21.446 0 0 1-8.215 1.637h-214.7c-.699 0-1.402-.035-2.1-.101a21.931 21.931 0 0 1-4.126-.824 21.756 21.756 0 0 1-5.695-2.695 21.268 21.268 0 0 1-1.692-1.255 21.375 21.375 0 0 1-6.215-8.375 21.39 21.39 0 0 1-1.223-4.023 20.744 20.744 0 0 1-.312-2.082c-.07-.7-.105-1.399-.105-2.102v-57.226zm0 0"/><path fill="#98e07e" d="M292.867 447.96c-1.504 9.552-5.797 26.216-17.57 36.767-11.738 10.48-28.555 12.77-38.074 13.164 1.504-9.516 5.761-26.145 17.605-36.77 11.703-10.476 28.52-12.766 38.04-13.16zm0 0"/><path fill="#2d4356" d="M129.09 605.262h14.312c.47 0 .934-.047 1.395-.137a7.313 7.313 0 0 0 2.582-1.07 7.145 7.145 0 0 0 1.973-1.973 7.275 7.275 0 0 0 1.07-2.578c.09-.461.137-.926.137-1.395 0-.472-.047-.937-.137-1.398a7.275 7.275 0 0 0-1.07-2.578 7.17 7.17 0 0 0-.891-1.082 7.106 7.106 0 0 0-3.664-1.957 6.98 6.98 0 0 0-1.395-.14H129.09v-16.688a6.99 6.99 0 0 0-.14-1.399 6.975 6.975 0 0 0-.407-1.34 7.106 7.106 0 0 0-2.637-3.21 7.071 7.071 0 0 0-2.578-1.067 6.99 6.99 0 0 0-2.793 0 7.097 7.097 0 0 0-2.578 1.066 7.201 7.201 0 0 0-1.977 1.973c-.261.39-.48.805-.66 1.238-.18.434-.316.88-.406 1.34a6.99 6.99 0 0 0-.14 1.399v16.687c.003.942.093 1.871.28 2.793.184.918.454 1.813.813 2.68a14.74 14.74 0 0 0 1.324 2.472 14.371 14.371 0 0 0 3.95 3.946 14.282 14.282 0 0 0 7.95 2.418zM304.426 297.672c-.469 0-.93.047-1.387.14-.46.094-.902.231-1.336.41a7.285 7.285 0 0 0-2.305 1.543 7.285 7.285 0 0 0-1.543 2.305 7.29 7.29 0 0 0-.41 1.332c-.09.461-.136.922-.14 1.387 0 .469.043.93.129 1.39a7.291 7.291 0 0 0 1.043 2.571c.257.387.55.75.875 1.082a6.88 6.88 0 0 0 1.07.895 7.195 7.195 0 0 0 3.938 1.25c.96-.004 1.913.09 2.855.28.941.188 1.855.47 2.742.845a14.368 14.368 0 0 1 7.816 8.012c.348.898.606 1.82.77 2.765.168.945.234 1.902.207 2.863.04.465.121.922.25 1.371.125.45.293.887.504 1.301a7.16 7.16 0 0 0 1.7 2.2 7.5 7.5 0 0 0 1.128.82c.406.234.828.43 1.27.586a7.384 7.384 0 0 0 2.75.402 7.195 7.195 0 0 0 3.89-1.457 6.99 6.99 0 0 0 1.024-.957c.312-.352.586-.735.82-1.14a7.34 7.34 0 0 0 .582-1.274 7.167 7.167 0 0 0 .367-2.77 28.637 28.637 0 0 0-.605-5.523 28.117 28.117 0 0 0-.707-2.692 27.536 27.536 0 0 0-.965-2.609 28.327 28.327 0 0 0-4.344-7.094 28.246 28.246 0 0 0-3.96-3.898 28.984 28.984 0 0 0-4.64-3.059 28.942 28.942 0 0 0-2.525-1.172 27.588 27.588 0 0 0-2.629-.922 27.76 27.76 0 0 0-2.7-.664 28.572 28.572 0 0 0-5.534-.52zM71.836 286.941h13.75a86.141 86.141 0 0 1 11.625-14.308s-27.758.12-28.953.183v-14.488h48.062a85.075 85.075 0 0 1 16.348-6.996v-.453a28.643 28.643 0 0 1-7.961-6.86H53.945v-21.46c0-.47.047-.934.137-1.395a7.274 7.274 0 0 1 1.07-2.574 7.201 7.201 0 0 1 1.973-1.977 7.38 7.38 0 0 1 1.238-.66c.434-.18.883-.316 1.344-.406a6.95 6.95 0 0 1 1.395-.14h57.25v-14.305h-57.25a21.92 21.92 0 0 0-4.188.414c-.691.14-1.371.308-2.043.515a21.445 21.445 0 0 0-3.887 1.61 20.995 20.995 0 0 0-3.496 2.34 21.375 21.375 0 0 0-4.23 4.664 21.034 21.034 0 0 0-1.985 3.707c-.27.648-.507 1.308-.71 1.98a20.9 20.9 0 0 0-.824 4.125c-.071.7-.106 1.402-.106 2.102v21.46c0 .942.094 1.872.277 2.79a14.444 14.444 0 0 0 2.137 5.156 14.371 14.371 0 0 0 3.95 3.945 14.282 14.282 0 0 0 7.95 2.418l-.002 16.66a71.726 71.726 0 0 0-21.438 9.512 71.136 71.136 0 0 0-4.78 3.438 70.441 70.441 0 0 0-4.48 3.816 69.717 69.717 0 0 0-4.153 4.172 71.111 71.111 0 0 0-7.21 9.293 70.95 70.95 0 0 0-3.009 5.058 71.156 71.156 0 0 0-2.586 5.29 71.757 71.757 0 0 0-2.137 5.484 70.745 70.745 0 0 0-2.894 11.398 71.603 71.603 0 0 0-.988 11.719V573.07a35.782 35.782 0 0 0 1.55 10.379 35.387 35.387 0 0 0 2.688 6.473 34.482 34.482 0 0 0 1.804 3.012c.653.972 1.348 1.91 2.094 2.816a35.37 35.37 0 0 0 4.957 4.957 35.07 35.07 0 0 0 2.82 2.09 35.692 35.692 0 0 0 9.488 4.492c1.118.34 2.255.625 3.403.856 1.149.23 2.309.402 3.473.515 1.164.117 2.336.176 3.508.18h36.968c-.64-4.75-1.035-9.52-1.187-14.309H36.055a21.05 21.05 0 0 1-2.106-.105c-.699-.07-1.394-.172-2.082-.313a21.39 21.39 0 0 1-5.93-2.12 21.722 21.722 0 0 1-3.5-2.34 21.375 21.375 0 0 1-1.558-1.415 21.375 21.375 0 0 1-2.672-3.25 21.612 21.612 0 0 1-2.695-5.691 21.61 21.61 0 0 1-.93-6.227V523h57.254v-14.309H14.582v-135.91h57.254v-14.308H14.582v-14.305c.004-1.875.098-3.742.281-5.606a57.706 57.706 0 0 1 2.2-11 56.785 56.785 0 0 1 4.3-10.36 56.04 56.04 0 0 1 2.89-4.811 57.048 57.048 0 0 1 3.345-4.512 59.406 59.406 0 0 1 3.773-4.16 57.047 57.047 0 0 1 8.672-7.113 57.755 57.755 0 0 1 4.816-2.891 57.488 57.488 0 0 1 10.363-4.297c1.798-.543 3.61-1 5.45-1.367a56.851 56.851 0 0 1 5.555-.828 56.067 56.067 0 0 1 5.609-.282zM404.617 274.988v-16.66a14.282 14.282 0 0 0 7.945-2.418 14.371 14.371 0 0 0 5.273-6.418 14.282 14.282 0 0 0 1.095-5.472v-21.461c0-.7-.035-1.403-.106-2.102a21.688 21.688 0 0 0-.824-4.125 22.125 22.125 0 0 0-.71-1.98 21.684 21.684 0 0 0-1.985-3.707 20.397 20.397 0 0 0-1.258-1.692 20.518 20.518 0 0 0-1.414-1.558c-.496-.5-1.016-.97-1.559-1.415a21.071 21.071 0 0 0-3.5-2.34 20.116 20.116 0 0 0-1.902-.898 20.659 20.659 0 0 0-1.985-.71 21.409 21.409 0 0 0-2.042-.516 21.92 21.92 0 0 0-4.184-.414h-57.254v14.304h57.254c.469 0 .934.047 1.394.14a7.23 7.23 0 0 1 2.578 1.066c.391.263.755.56 1.087.892.332.332.628.695.886 1.086.262.387.485.8.664 1.234.18.434.317.88.407 1.34.093.461.14.926.14 1.395v21.46h-70.762a28.699 28.699 0 0 1-7.96 6.86v.453a85.145 85.145 0 0 1 16.343 6.996h48.067v14.488c-1.196-.062-28.957-.183-28.957-.183a86.141 86.141 0 0 1 11.625 14.308h13.75c1.875 0 3.746.094 5.609.282a56.5 56.5 0 0 1 5.555.828c1.84.367 3.656.824 5.449 1.367a57.488 57.488 0 0 1 10.363 4.297 57.755 57.755 0 0 1 9.328 6.234 57.529 57.529 0 0 1 7.934 7.93 57.095 57.095 0 0 1 3.348 4.512 57.058 57.058 0 0 1 7.187 15.171 56.928 56.928 0 0 1 2.2 11c.187 1.864.28 3.731.28 5.606v14.305h-57.253v14.308h57.254v135.91h-57.254V523h57.254v50.07c0 .703-.036 1.407-.106 2.106-.07.699-.172 1.39-.308 2.082a22.9 22.9 0 0 1-.516 2.039 21.045 21.045 0 0 1-.711 1.984 21.684 21.684 0 0 1-3.238 5.399 21.375 21.375 0 0 1-2.977 2.972c-.543.446-1.105.864-1.691 1.254a22.31 22.31 0 0 1-1.805 1.086c-.621.328-1.258.63-1.906.899-.649.27-1.309.507-1.98.71a21.688 21.688 0 0 1-6.231.93h-35.785c-.153 4.79-.547 9.559-1.188 14.309h36.973a35.782 35.782 0 0 0 10.383-1.55 35.386 35.386 0 0 0 6.476-2.688 35.682 35.682 0 0 0 8.43-6.25 35.717 35.717 0 0 0 4.45-5.418 35.517 35.517 0 0 0 3.308-6.18 36.57 36.57 0 0 0 1.187-3.305 36.41 36.41 0 0 0 .856-3.402c.226-1.149.402-2.305.515-3.473a34.96 34.96 0 0 0 .176-3.504V344.168a72.009 72.009 0 0 0-.25-5.879 71.615 71.615 0 0 0-.738-5.84 70.848 70.848 0 0 0-1.211-5.762 72.378 72.378 0 0 0-1.68-5.636 71.79 71.79 0 0 0-7.73-15.832 72.53 72.53 0 0 0-3.414-4.797 73.285 73.285 0 0 0-3.797-4.496 70.966 70.966 0 0 0-4.156-4.172 69.37 69.37 0 0 0-4.481-3.817 71.135 71.135 0 0 0-9.828-6.468 71.912 71.912 0 0 0-5.277-2.61 72.46 72.46 0 0 0-5.477-2.164 72.996 72.996 0 0 0-5.633-1.707zm0 0"/><path fill="#fc785e" d="M235.719 439.813c7.207-6.356 15.328-11.165 24.37-14.418a9.746 9.746 0 0 0-4.194-4.555c-18.786-10.281-42.942-4.695-42.942-4.695s-.531-.102-1.476-.243c-7.793-1.152-43.704-4.894-41.91 24.61 2.015 33.086-7.38 42.554 18.117 57.379a39.58 39.58 0 0 0 9.734 4.004 39.767 39.767 0 0 0 10.445 1.316c.352-6.563 3.356-41.441 27.856-63.399zm0 0"/><path fill="#2d4356" d="M265.242 423.71a89.053 89.053 0 0 0-13.777 5.438 18.287 18.287 0 0 0-4.653-3.863 24.812 24.812 0 0 0-4.773-1.84 24.878 24.878 0 0 0-5.05-.828 24.571 24.571 0 0 0-5.11.227c-1.7.25-3.352.668-4.961 1.261-4.207 1.915-8.621 2.77-13.238 2.575a30.84 30.84 0 0 1-10.664-2.575 24.68 24.68 0 0 0-4.957-1.261 24.62 24.62 0 0 0-5.114-.227c-1.71.102-3.394.38-5.05.828a24.812 24.812 0 0 0-4.774 1.84 22.759 22.759 0 0 0-3.68 2.961 22.76 22.76 0 0 0-2.98 3.664 22.322 22.322 0 0 0-2.156 4.2 22.386 22.386 0 0 0-1.239 4.554 57.732 57.732 0 0 0-1.043 11.328 57.938 57.938 0 0 0 4.579 22.176 57.941 57.941 0 0 0 5.445 9.988c2.898 4.258 7.3 10.73 11.844 12.48a14.798 14.798 0 0 0 4.664 1.145c1.613.13 3.21 0 4.78-.39.72-.18 4.118-1.145 5.227-1.395-.574 4.254-.714 7.258-.753 8.262-.07 2.21.203 4.383.824 6.508-.61.18-1.215.359-1.824.5a29.022 29.022 0 0 1-9.137.796 28.95 28.95 0 0 1-8.934-2.082c-8.73-3.363-14.636-12.054-18.535-17.777a72.045 72.045 0 0 1-6.781-12.476 71.83 71.83 0 0 1-4.211-13.559 72.03 72.03 0 0 1-1.48-14.121 71.838 71.838 0 0 1 1.308-14.137 36.142 36.142 0 0 1 10.703-20.242 36.024 36.024 0 0 1 6.149-4.723 38.728 38.728 0 0 1 7.46-3.078 38.515 38.515 0 0 1 7.93-1.476 38.94 38.94 0 0 1 15.922 2.05c.36-1.312.578-2.648.649-4.003a18.909 18.909 0 0 0-1.297-7.965 18.875 18.875 0 0 0-1.895-3.59 7.197 7.197 0 0 1-1.176-2.531 7.23 7.23 0 0 1-.117-2.79c.074-.464.192-.917.352-1.359.16-.441.363-.86.61-1.262.245-.402.526-.773.843-1.12a7.212 7.212 0 0 1 2.254-1.645 6.92 6.92 0 0 1 1.324-.465 7.272 7.272 0 0 1 2.793-.117c.46.074.914.187 1.355.351.442.16.864.364 1.266.61.402.242.774.523 1.121.84.344.32.656.668.934 1.046a32.449 32.449 0 0 1 3.168 5.559 32.198 32.198 0 0 1 2.011 6.074c.47 2.09.73 4.203.778 6.348.05 2.14-.11 4.265-.48 6.379a38.672 38.672 0 0 1 8.07-2.113 38.903 38.903 0 0 1 8.336-.34c2.793.183 5.53.664 8.218 1.441a38.833 38.833 0 0 1 7.723 3.156c4.598 2.692 8.328 6.278 11.2 10.766zm0 0"/><path fill="#2d4356" d="M301.488 433.762c-1.394-.11-34.386-2.825-56.215 16.703-21.789 19.527-23.113 52.863-23.148 54.258-.215 6.757 6.867 7.547 11.95 7.547 10.519 0 33.956-1.86 50.777-16.883 21.789-19.528 23.113-52.864 23.152-54.258a7.398 7.398 0 0 0-.09-1.348 7.582 7.582 0 0 0-.34-1.308 7.401 7.401 0 0 0-.578-1.22 7.054 7.054 0 0 0-.797-1.093 7.58 7.58 0 0 0-.984-.922 7.108 7.108 0 0 0-1.14-.722 7.4 7.4 0 0 0-1.259-.5 7.25 7.25 0 0 0-1.328-.254zm-26.191 50.965c-11.738 10.48-28.555 12.77-38.074 13.164 1.504-9.516 5.761-26.145 17.605-36.77 11.703-10.476 28.52-12.766 38.04-13.16-1.505 9.55-5.798 26.215-17.571 36.766zm0 0"/><path fill="#e8fbfc" d="M100.46 369.203h257.638v7.152H100.46zm0 0" fill-opacity=".4"/><path fill="#0f423c" d="M100.46 519.422h257.638v7.152H100.46zm0 0" fill-opacity=".298"/><path fill="#9fa5aa" d="M358.098 590.953v7.156c0 .703-.036 1.403-.106 2.102a21.39 21.39 0 0 1-4.773 11.508 21.375 21.375 0 0 1-1.414 1.558c-.496.496-1.016.97-1.559 1.414-.547.446-1.11.864-1.695 1.254a21.684 21.684 0 0 1-3.707 1.984 21.446 21.446 0 0 1-8.215 1.637h-214.7c-.699 0-1.402-.035-2.1-.101a21.931 21.931 0 0 1-4.126-.824 21.756 21.756 0 0 1-5.695-2.695 21.268 21.268 0 0 1-1.692-1.255 21.375 21.375 0 0 1-6.215-8.375 21.39 21.39 0 0 1-1.223-4.023 20.744 20.744 0 0 1-.312-2.082c-.07-.7-.105-1.399-.105-2.102v-7.156c0 .703.035 1.406.105 2.106a21.688 21.688 0 0 0 .824 4.125c.204.671.442 1.332.712 1.98.27.649.57 1.285.902 1.902.328.621.691 1.223 1.082 1.809a21.939 21.939 0 0 0 2.668 3.25c.5.496 1.02.969 1.562 1.414a21.269 21.269 0 0 0 3.496 2.336 21.756 21.756 0 0 0 3.891 1.613 21.39 21.39 0 0 0 4.125.82c.7.07 1.402.106 2.102.106h214.699c.703 0 1.402-.035 2.105-.105a21.688 21.688 0 0 0 4.125-.82 22.65 22.65 0 0 0 1.985-.712 21.684 21.684 0 0 0 5.402-3.238 21.375 21.375 0 0 0 2.973-2.976c.445-.543.867-1.106 1.258-1.688a21.68 21.68 0 0 0 2.695-5.691 21.688 21.688 0 0 0 .82-4.125c.07-.7.106-1.403.106-2.106zm0 0" fill-opacity=".498"/><path fill="#fff" d="M358.098 333.438v7.152a57.116 57.116 0 0 0-1.114-11.16 58.098 58.098 0 0 0-1.367-5.446 57.857 57.857 0 0 0-4.3-10.355 57.755 57.755 0 0 0-2.891-4.817 57.5 57.5 0 0 0-11.281-12.438 57.97 57.97 0 0 0-4.508-3.343 56.674 56.674 0 0 0-4.817-2.886 56.348 56.348 0 0 0-5.078-2.407 58.666 58.666 0 0 0-5.285-1.894c-1.793-.543-3.61-1-5.445-1.367a58.075 58.075 0 0 0-5.555-.832 58.56 58.56 0 0 0-5.61-.282H157.716a58.434 58.434 0 0 0-5.61.282 57.706 57.706 0 0 0-11.003 2.199 56.785 56.785 0 0 0-10.36 4.3 56.674 56.674 0 0 0-4.816 2.887 56.798 56.798 0 0 0-8.672 7.117 57.554 57.554 0 0 0-3.774 4.157 58.771 58.771 0 0 0-3.347 4.507 57.714 57.714 0 0 0-5.293 9.891 56.683 56.683 0 0 0-1.895 5.281 56.928 56.928 0 0 0-2.199 11 57.12 57.12 0 0 0-.285 5.606v-7.152a57.26 57.26 0 0 1 .285-5.61 56.928 56.928 0 0 1 2.2-10.996 56.714 56.714 0 0 1 4.3-10.355 57.714 57.714 0 0 1 2.887-4.817 58.771 58.771 0 0 1 3.347-4.508 56.798 56.798 0 0 1 3.774-4.16 57.048 57.048 0 0 1 8.672-7.113 57.756 57.756 0 0 1 4.816-2.89 57.488 57.488 0 0 1 15.809-5.668 57.195 57.195 0 0 1 11.164-1.11h143.133a57.317 57.317 0 0 1 16.609 2.48 57.488 57.488 0 0 1 10.363 4.297 57.756 57.756 0 0 1 9.325 6.235 56.745 56.745 0 0 1 7.934 7.93 57.76 57.76 0 0 1 3.347 4.507 57.755 57.755 0 0 1 2.89 4.817 57.78 57.78 0 0 1 4.301 10.355 57.81 57.81 0 0 1 2.2 10.996c.183 1.867.28 3.735.28 5.61zm0 0" fill-opacity=".498"/><path fill="#e8fbfc" d="M311.582 197.523v7.153a7.605 7.605 0 0 0-.14-1.395 7.09 7.09 0 0 0-1.074-2.574 7.17 7.17 0 0 0-.891-1.082 7.17 7.17 0 0 0-1.082-.89c-.391-.258-.801-.481-1.235-.66a7.367 7.367 0 0 0-1.34-.41c-.46-.09-.925-.142-1.394-.142h-150.29c-.468 0-.933.051-1.394.141a7.274 7.274 0 0 0-2.578 1.07 7.17 7.17 0 0 0-1.082.891 7.071 7.071 0 0 0-1.55 2.316c-.18.434-.317.883-.41 1.34a6.98 6.98 0 0 0-.142 1.395v-7.153c0-.468.047-.933.141-1.394a7.274 7.274 0 0 1 1.07-2.574c.262-.39.559-.75.891-1.082a7.106 7.106 0 0 1 2.32-1.55c.434-.18.88-.318 1.34-.411a6.98 6.98 0 0 1 1.395-.14h150.289c.469 0 .933.046 1.394.14.457.093.907.23 1.34.41a7.07 7.07 0 0 1 2.317 1.55 7.17 7.17 0 0 1 2.105 5.051zm0 0" fill-opacity=".4"/><path fill="#f9dbd7" d="M118.352 215.406v7.153h-57.25c-.47.004-.934.05-1.395.144a7.124 7.124 0 0 0-2.578 1.07 7.145 7.145 0 0 0-3.043 4.547 6.98 6.98 0 0 0-.14 1.395v-7.156c0-.47.046-.934.14-1.391.094-.461.227-.91.41-1.34a7.106 7.106 0 0 1 2.633-3.207c.39-.262.805-.484 1.238-.664.434-.18.88-.316 1.34-.41.461-.09.926-.137 1.395-.14zm0 0" fill-opacity=".298"/><path fill="#fff" d="M90.3 280.68a82.314 82.314 0 0 0-8.66 13.414h-9.804a58.433 58.433 0 0 0-5.61.281 57.706 57.706 0 0 0-11.003 2.2 57.488 57.488 0 0 0-10.36 4.296 57.755 57.755 0 0 0-9.328 6.234 57.645 57.645 0 0 0-4.16 3.77 58.453 58.453 0 0 0-3.773 4.16 58.771 58.771 0 0 0-3.348 4.508 57.714 57.714 0 0 0-5.293 9.89 56.283 56.283 0 0 0-1.895 5.282 56.928 56.928 0 0 0-2.199 10.996 57.26 57.26 0 0 0-.285 5.61v-7.153a57.26 57.26 0 0 1 .285-5.61 56.928 56.928 0 0 1 2.2-10.996 56.785 56.785 0 0 1 4.3-10.36 58.288 58.288 0 0 1 2.887-4.811 58.017 58.017 0 0 1 3.348-4.508 56.798 56.798 0 0 1 3.773-4.16 57.048 57.048 0 0 1 8.672-7.113 57.756 57.756 0 0 1 4.816-2.891 57.852 57.852 0 0 1 5.075-2.403 56.356 56.356 0 0 1 5.285-1.894 57.004 57.004 0 0 1 11.004-2.2 56.009 56.009 0 0 1 5.609-.28h13.742a70.766 70.766 0 0 1 4.508-6.262zm0 0" fill-opacity=".498"/><path fill="#f9dbd7" d="M404.617 222.559v7.156a7.605 7.605 0 0 0-.14-1.395 7.274 7.274 0 0 0-.41-1.34 6.951 6.951 0 0 0-.665-1.234 7.145 7.145 0 0 0-1.973-1.973 7.09 7.09 0 0 0-2.574-1.07 7.283 7.283 0 0 0-1.394-.144h-57.254v-7.153h57.254c.469.004.934.051 1.394.14.457.095.907.231 1.34.411.434.18.844.402 1.235.664.39.258.754.555 1.082.887a7.124 7.124 0 0 1 1.555 2.32 7.184 7.184 0 0 1 .55 2.73zm0 0" fill-opacity=".298"/><path fill="#fff" d="M443.977 344.168v7.152a58.496 58.496 0 0 0-.282-5.61 57.81 57.81 0 0 0-2.199-10.995 57.852 57.852 0 0 0-4.3-10.355 57.755 57.755 0 0 0-2.891-4.817 57.76 57.76 0 0 0-7.118-8.668 58.546 58.546 0 0 0-4.164-3.77 57.755 57.755 0 0 0-9.324-6.234 57.398 57.398 0 0 0-26.976-6.777h-9.801a82.575 82.575 0 0 0-8.66-13.414h.18a65.038 65.038 0 0 1 4.542 6.261h13.739c1.875 0 3.746.094 5.609.282a56.928 56.928 0 0 1 11.004 2.2 57.398 57.398 0 0 1 10.363 4.297 57.756 57.756 0 0 1 9.324 6.233 56.745 56.745 0 0 1 7.934 7.93 57.031 57.031 0 0 1 3.348 4.508 58.33 58.33 0 0 1 2.89 4.812 57.852 57.852 0 0 1 4.301 10.36 57.81 57.81 0 0 1 2.2 10.996c.183 1.867.277 3.734.28 5.609zm0 0" fill-opacity=".498"/><path fill="#f9dbd7" d="M386.723 372.781h57.254v7.153h-57.254zM14.582 372.781h57.254v7.153H14.582zm0 0" fill-opacity=".298"/><path fill="#a54b3f" d="M14.582 501.54h57.254v7.151H14.582zm0 0" fill-opacity=".498"/><path fill="#9fa5aa" d="M71.836 587.379v7.152H36.055a21.92 21.92 0 0 1-4.188-.414 21.39 21.39 0 0 1-5.933-2.125 21.269 21.269 0 0 1-3.496-2.336 22.278 22.278 0 0 1-1.563-1.414c-.496-.5-.969-1.02-1.414-1.562a21.268 21.268 0 0 1-1.254-1.692 20.042 20.042 0 0 1-1.082-1.804 21.165 21.165 0 0 1-.902-1.903 20.972 20.972 0 0 1-.711-1.98 21.994 21.994 0 0 1-.825-4.125 21.05 21.05 0 0 1-.105-2.106v-7.152c0 .703.035 1.402.105 2.102a21.61 21.61 0 0 0 1.535 6.11 21.684 21.684 0 0 0 3.239 5.397 21.375 21.375 0 0 0 2.977 2.973c.542.45 1.105.867 1.69 1.258.587.39 1.188.75 1.806 1.082.62.332 1.257.633 1.906.898.648.27 1.308.508 1.984.711.672.207 1.352.375 2.043.516a21.92 21.92 0 0 0 4.188.414zm0 0" fill-opacity=".498"/><path fill="#a54b3f" d="M386.723 501.54h57.254v7.151h-57.254zm0 0" fill-opacity=".498"/><path fill="#9fa5aa" d="M386.723 594.531h35.785a22 22 0 0 0 4.188-.414 21.688 21.688 0 0 0 2.042-.512 22.65 22.65 0 0 0 1.985-.71 21.684 21.684 0 0 0 5.398-3.239 20.652 20.652 0 0 0 1.563-1.414c.496-.5.968-1.02 1.414-1.562.445-.543.863-1.106 1.254-1.692a20.08 20.08 0 0 0 1.086-1.804 21.165 21.165 0 0 0 1.609-3.883 20.844 20.844 0 0 0 .824-4.125c.07-.7.106-1.403.106-2.106v-7.152c0 .703-.036 1.402-.106 2.102a20.977 20.977 0 0 1-.824 4.125 21.019 21.019 0 0 1-2.695 5.69 21.268 21.268 0 0 1-2.668 3.25c-.497.5-1.016.97-1.563 1.415a20.995 20.995 0 0 1-3.496 2.34 21.446 21.446 0 0 1-8.016 2.434c-.699.07-1.398.105-2.101.105h-35.785zm0 0" fill-opacity=".498"/><path fill="#42a5f5" d="m664.324 523.844-10.953 49.832c0 .011-.012.035-.012.047a3.655 3.655 0 0 1-1.652 2.218 3.795 3.795 0 0 1-1.906.536c-.293 0-.602-.043-.895-.122l-5.125 10.383-2.218 8.957c-1.762 7.164-.649 14.602 3.16 20.926 3.808 6.332 9.87 10.762 17.039 12.555a27.575 27.575 0 0 0 20.938-3.148c6.323-3.805 10.769-9.868 12.562-17.032l4.883-19.7-3.582-.886a3.7 3.7 0 0 1-2.262-1.66 3.71 3.71 0 0 1-.43-2.8l14.633-59.036c2.703-10.848-3.961-21.875-14.817-24.555a19.188 19.188 0 0 0-4.914-.613c-3.656 0-7.222.984-10.43 2.91-4.64 2.79-11.667 6.617-12.956 11.88l-1.02 9.066c-.012.078-.031.164-.043.242M515.434 490.035l-15.102 60.824c0 .024 0 .036-.012.055a3.605 3.605 0 0 1-1.652 2.223 3.77 3.77 0 0 1-1.902.535c-.297 0-.59-.043-.887-.121l-3.567-.887-2.222 8.969c-1.762 7.156-.645 14.594 3.164 20.914 3.808 6.336 9.871 10.773 17.039 12.558 2.219.547 4.465.82 6.695.82 4.969 0 9.871-1.343 14.239-3.972 6.324-3.805 10.77-9.851 12.562-17.027l4.883-19.7-3.578-.874a3.698 3.698 0 0 1-2.266-1.676 3.684 3.684 0 0 1-.43-2.79l14.633-59.042c2.703-10.852-3.96-21.875-14.816-24.547a19.196 19.196 0 0 0-4.914-.621c-3.656 0-7.223.996-10.43 2.91a20.116 20.116 0 0 0-9.226 12.48l-2.165 8.727c-.011.078-.023.164-.046.242" fill-rule="evenodd"/><path fill="#fff" d="m768.246 328.578 10.899 43.957 2.418 9.715 6.445-1.598c10.277-2.539 16.547-12.972 14.012-23.21l-4.082-16.462c-2.551-10.261-12.981-16.539-23.223-13.988l-6.469 1.586" fill-rule="evenodd"/><path fill="#42a5f5" d="m778.367 400.121-20.398-82.297c-2.278-9.23-10.582-15.41-19.688-15.41a20.17 20.17 0 0 0-4.879.602c-10.859 2.687-17.5 13.691-14.82 24.554l4.828 19.504c.02.063.043.117.067.196l9.761 39.367c.02.074.032.152.055.23l5.687 23c2.704 10.852 13.715 17.48 24.57 14.813 10.856-2.692 17.5-13.696 14.817-24.559" fill-rule="evenodd"/><path fill="#fff" d="m725.172 384.809-7.98-32.204-96.676 23.957 7.98 32.2 96.676-23.953" fill-rule="evenodd"/><path fill="#42a5f5" d="m622.258 414.125-9.774-39.367c-.011-.078-.035-.153-.043-.242l-4.84-19.47c-1.288-5.26-4.574-9.69-9.214-12.48-3.203-1.902-6.793-2.898-10.43-2.898-1.629 0-3.293.207-4.91.602-10.86 2.703-17.5 13.707-14.832 24.554l2.191 8.817c.02.054.032.097.043.152l15.09 60.84c.024.074.047.164.055.25l3.031 12.242a20.126 20.126 0 0 0 9.227 12.48c4.64 2.797 10.101 3.61 15.367 2.317a20.112 20.112 0 0 0 12.484-9.219c2.793-4.64 3.613-10.086 2.32-15.36l-5.722-23.046c-.012-.055-.035-.117-.043-.172" fill-rule="evenodd"/><path fill="#fff" d="m564.168 379.145-6.457 1.585c-4.98 1.223-9.16 4.332-11.809 8.715a19.077 19.077 0 0 0-2.187 14.496l4.082 16.461c1.215 4.977 4.32 9.164 8.71 11.801 4.388 2.649 9.544 3.414 14.513 2.2l6.445-1.598-13.297-53.66M500.934 490.242a19.636 19.636 0 0 0-4.606-.57c-8.601 0-16.45 5.844-18.637 14.558l-4.082 16.461c-1.214 4.98-.449 10.13 2.2 14.496 2.636 4.387 6.828 7.47 11.808 8.715l6.445 1.598 13.329-53.672-6.457-1.586M558.434 515.871l-7.98 32.2 96.679 23.956 7.965-32.203-96.664-23.953M750.922 490.45c0 10.16 8.273 18.44 18.45 18.44 10.167 0 18.452-8.269 18.452-18.44-.011-10.173-8.285-18.454-18.453-18.454-10.164 0-18.45 8.27-18.45 18.453M514.855 350.355c6.094 0 11.063-4.976 11.063-11.058 0-6.125-4.969-11.07-11.063-11.07-6.105 0-11.066 4.976-11.066 11.07 0 6.09 4.969 11.058 11.066 11.058" fill-rule="evenodd"/><g clip-path="url(#b)"><path fill="#092f6a" d="M667.367 633.203a28 28 0 0 1-6.699-.82c-14.797-3.664-23.867-18.696-20.203-33.492l20.41-82.301c3.668-14.785 18.703-23.856 33.512-20.192 14.797 3.664 23.867 18.696 20.203 33.493l-20.41 82.3c-1.797 7.164-6.239 13.223-12.567 17.032-4.375 2.613-9.3 3.98-14.246 3.98zm20.344-130.262c-9.106 0-17.39 6.18-19.688 15.399l-20.398 82.3c-2.703 10.852 3.93 21.876 14.816 24.555 5.254 1.293 10.715.48 15.368-2.316 4.636-2.793 7.921-7.223 9.222-12.48l20.399-82.301c2.703-10.852-3.926-21.875-14.817-24.555a20.36 20.36 0 0 0-4.902-.602" fill-rule="evenodd"/></g><path fill="#092f6a" d="M709.215 605.617c-2.121 0-4.258-.254-6.38-.777l-10.026-2.492c-1.989-.473-3.184-2.485-2.692-4.453l15.094-60.836c.23-.954.84-1.774 1.672-2.278a3.71 3.71 0 0 1 2.793-.414l10.011 2.48c14.227 3.512 22.918 17.95 19.395 32.15L735 585.456c-3 12.066-13.879 20.16-25.785 20.16zm-4.617-7.941c10.273 2.539 20.683-3.742 23.222-14l4.082-16.461c2.551-10.262-3.734-20.676-13.996-23.211l-6.457-1.586-13.32 53.66 6.469 1.598M516.988 595.926c-2.23 0-4.476-.274-6.695-.82-7.168-1.786-13.23-6.223-17.04-12.56-3.808-6.32-4.925-13.757-3.163-20.913l20.41-82.309c1.793-7.164 6.227-13.21 12.563-17.02A27.604 27.604 0 0 1 544 459.134c14.793 3.664 23.867 18.703 20.188 33.492l-20.399 82.3c-1.793 7.177-6.238 13.223-12.562 17.028a27.542 27.542 0 0 1-14.239 3.973zm20.313-130.25c-3.656 0-7.223.996-10.43 2.91a20.116 20.116 0 0 0-9.226 12.48l-20.41 82.297c-1.29 5.262-.47 10.719 2.32 15.356a20.146 20.146 0 0 0 12.488 9.222c5.254 1.301 10.715.48 15.363-2.308 4.64-2.801 7.926-7.23 9.227-12.48l20.398-82.31c2.703-10.85-3.96-21.874-14.816-24.546a19.196 19.196 0 0 0-4.914-.621" fill-rule="evenodd"/><path fill="#092f6a" d="M649.813 580.188c-.297 0-.602-.047-.899-.122l-103.82-25.714a3.698 3.698 0 0 1-2.266-1.676 3.684 3.684 0 0 1-.43-2.79l9.762-39.374a3.684 3.684 0 0 1 4.469-2.692l103.82 25.727c.953.226 1.774.84 2.278 1.66.503.844.668 1.852.414 2.8l-9.762 39.368a3.704 3.704 0 0 1-1.66 2.266 3.546 3.546 0 0 1-1.907.547zm-99.36-32.118 96.68 23.957 7.965-32.203-96.664-23.953-7.98 32.2M496.766 553.672c-.297 0-.59-.043-.887-.121l-10.024-2.492c-6.894-1.707-12.695-5.996-16.351-12.055-3.664-6.07-4.738-13.192-3.031-20.094l4.082-16.45c3.511-14.222 17.949-22.917 32.164-19.382l10.011 2.492a3.673 3.673 0 0 1 2.704 4.465l-15.102 60.824a3.63 3.63 0 0 1-1.664 2.278 3.77 3.77 0 0 1-1.902.535zm-.438-64c-8.601 0-16.45 5.844-18.637 14.558l-4.082 16.461c-1.214 4.98-.449 10.13 2.2 14.496 2.636 4.387 6.828 7.47 11.808 8.715l6.445 1.598 13.329-53.672-6.457-1.586a19.636 19.636 0 0 0-4.606-.57M608.258 469.93c-4.965 0-9.86-1.344-14.227-3.98-6.324-3.81-10.789-9.868-12.562-17.032l-20.41-82.3c-3.664-14.798 5.406-29.817 20.203-33.493 7.168-1.781 14.61-.664 20.933 3.164 6.328 3.816 10.793 9.863 12.567 17.027l20.41 82.301c1.781 7.176.656 14.602-3.176 20.926-3.808 6.32-9.86 10.785-17.027 12.555-2.211.558-4.465.832-6.711.832zm-20.301-130.262c-1.629 0-3.293.207-4.91.602-10.86 2.703-17.5 13.707-14.832 24.554l20.41 82.301a20.126 20.126 0 0 0 9.227 12.48c4.64 2.797 10.101 3.61 15.367 2.317a20.112 20.112 0 0 0 12.484-9.219c2.793-4.64 3.613-10.086 2.32-15.36l-20.421-82.296c-1.29-5.262-4.575-9.692-9.215-12.48-3.203-1.903-6.793-2.899-10.43-2.899" fill-rule="evenodd"/><path fill="#092f6a" d="M566.379 442.367c-4.785 0-9.477-1.305-13.66-3.828-6.074-3.668-10.364-9.473-12.047-16.344l-4.094-16.46c-1.707-6.891-.613-14.024 3.043-20.094 3.664-6.082 9.465-10.36 16.348-12.055l10.015-2.48a3.746 3.746 0 0 1 2.79.414 3.65 3.65 0 0 1 1.675 2.273l15.09 60.84c.23.941.078 1.957-.426 2.789a3.61 3.61 0 0 1-2.265 1.664l-10.024 2.492c-2.156.516-4.3.79-6.445.79zm-2.211-63.222-6.457 1.585c-4.98 1.223-9.16 4.332-11.809 8.715a19.077 19.077 0 0 0-2.187 14.496l4.082 16.461c1.215 4.977 4.32 9.164 8.71 11.801 4.388 2.649 9.544 3.414 14.513 2.2l6.445-1.598-13.297-53.66M758.715 432.652c-12.422 0-23.75-8.422-26.867-21l-20.41-82.3c-1.786-7.164-.668-14.59 3.16-20.922 3.82-6.325 9.87-10.785 17.043-12.547 14.804-3.676 29.832 5.37 33.507 20.191l20.41 82.297c3.665 14.79-5.382 29.809-20.203 33.484a29.017 29.017 0 0 1-6.64.797zM738.28 302.414a20.17 20.17 0 0 0-4.879.602c-10.859 2.687-17.5 13.691-14.82 24.554l20.398 82.297c2.704 10.852 13.715 17.48 24.57 14.813 10.856-2.692 17.5-13.696 14.817-24.559l-20.398-82.297c-2.278-9.23-10.582-15.41-19.688-15.41" fill-rule="evenodd"/><path fill="#092f6a" d="M625.824 416.914c-1.652 0-3.164-1.129-3.566-2.789l-9.774-39.367a3.734 3.734 0 0 1 .426-2.801 3.673 3.673 0 0 1 2.278-1.664L719 344.566c1.992-.468 3.992.723 4.477 2.704l9.761 39.367a3.732 3.732 0 0 1-.43 2.789 3.628 3.628 0 0 1-2.273 1.672l-103.812 25.714a3.584 3.584 0 0 1-.899.102zm-5.308-40.351 7.98 32.199 96.676-23.953-7.98-32.204-96.676 23.957" fill-rule="evenodd"/><g clip-path="url(#c)"><path fill="#092f6a" d="M778.86 390.398c-1.641 0-3.16-1.125-3.567-2.8l-15.09-60.825a3.683 3.683 0 0 1 2.703-4.464l10.012-2.485c14.215-3.52 28.652 5.153 32.164 19.371l4.082 16.453c3.512 14.22-5.164 28.637-19.383 32.149l-10.023 2.492a3.71 3.71 0 0 1-.899.11zm10.027-6.18zm-20.653-55.64 13.328 53.672 6.446-1.598c10.277-2.539 16.547-12.972 14.012-23.21l-4.082-16.462c-2.551-10.261-12.981-16.539-23.223-13.988l-6.48 1.586" fill-rule="evenodd"/></g><path fill="#092f6a" d="M514.855 357.715c-10.18 0-18.453-8.27-18.453-18.453 0-10.16 8.266-18.442 18.453-18.442 10.168 0 18.45 8.27 18.45 18.442-.008 10.183-8.282 18.453-18.45 18.453zm0-29.488c-6.105 0-11.066 4.976-11.066 11.07 0 6.09 4.969 11.058 11.066 11.058 6.094 0 11.063-4.976 11.063-11.058 0-6.125-4.969-11.07-11.063-11.07M769.371 516.242c-14.234 0-25.836-11.574-25.836-25.816 0-14.23 11.59-25.824 25.836-25.824 14.227 0 25.828 11.574 25.828 25.824-.011 14.242-11.601 25.816-25.828 25.816zm0-44.246c-10.164 0-18.45 8.27-18.45 18.453 0 10.16 8.274 18.442 18.45 18.442 10.168 0 18.453-8.27 18.453-18.442-.011-10.172-8.285-18.453-18.453-18.453" fill-rule="evenodd"/><path fill="#fff" d="M731.902 567.215c2.551-10.262-3.734-20.676-13.996-23.211l-6.426-1.586-11.609 46.812.274.067-1.7 6.86 6.153 1.519c10.273 2.539 20.683-3.742 23.222-14l4.082-16.461" fill-rule="evenodd"/></svg>