<svg xmlns="http://www.w3.org/2000/svg" width="125" viewBox="0 0 93.75 93.75" height="125" version="1.0"><defs><clipPath id="a"><path d="M87 72h6.5v21.5H87zm0 0"/></clipPath><clipPath id="b"><path d="M33 67h60.5v26.5H33zm0 0"/></clipPath></defs><path fill="#b2e6fa" d="M21.746 9.918c-.027.012-.058.02-.09.031a.607.607 0 0 0 .09-.031M43.742 10.04c.047-.009.094-.028.137-.044-.043.016-.09.031-.137.043"/><path fill="#b2e6fa" d="M16.031 9.766h-1.855c-.215 0-.403.058-.54.14-.1.067-.167.153-.167.246V13.7H76.44v-3.547c0-.199-.28-.367-.64-.386-.02-.004-.047-.004-.074-.004h-7.004c-.336.57-.82 1.039-1.403 1.351a3.616 3.616 0 0 1-1.699.426c-1.062 0-2-.465-2.66-1.195a3.71 3.71 0 0 1-.426-.582H46.36a3.545 3.545 0 0 1-1.406 1.351 3.57 3.57 0 0 1-1.687.426c-1.317 0-2.446-.719-3.07-1.777H23.987a3.577 3.577 0 0 1-1.398 1.351 3.44 3.44 0 0 1-1.68.426c-1.316 0-2.453-.715-3.082-1.777h-1.797v.004"/><path fill="#b2e6fa" d="M66.094 10.04c.125-.028.254-.067.37-.114.005 0 .005-.004.009-.008l-.008.008a2.535 2.535 0 0 1-.371.113M22.027 9.773c-.03.02-.062.032-.093.051.03-.02.062-.027.09-.047.007-.004.011-.007.019-.015a.054.054 0 0 0-.016.011M44.234 9.855c-.05.028-.101.055-.156.079.055-.024.106-.051.156-.079M44.402 9.77c.004-.004.008-.004.008-.008-.004.004-.008.004-.008.008M18.746 7.926V6.492 7.93a2.18 2.18 0 0 0 1.727 2.125c.132.023.273.035.414.039a2.17 2.17 0 0 1-2.14-2.168M43.7 10.05a2.4 2.4 0 0 1-.415.044c.14-.004.281-.016.41-.04a.127.127 0 0 0 .051-.015h-.004l-.043.012M41.664 9.367c.152.168.324.317.523.43.317.183.68.297 1.079.297-.395 0-.762-.114-1.078-.301a2.195 2.195 0 0 1-.524-.426M63.46 7.926V6.492 7.93c0 .894.548 1.664 1.321 1.996.258.11.543.168.836.168h.004c-.297 0-.582-.059-.84-.168a2.179 2.179 0 0 1-1.32-2M35.336 44.715H4.813v1.437a3.606 3.606 0 0 0 3.601 3.606h26.922c.39 0 .715.32.715.726a.715.715 0 0 1-.715.715H13.469v2.18a.71.71 0 0 0 .707.707h23.316v-9.371h-2.156"/><path fill="#83d282" d="M40.996 56.04v6.698h5.117a7.943 7.943 0 0 0-5.117-6.699"/><path fill="#fff" d="M70.672 69.23c-4.988 0-8.684 2.633-10.902 4.84a.729.729 0 0 1-.508.211h-5.578c-1.7 0-3.032 1.266-3.032 2.883s1.332 2.887 3.032 2.887h14.824a.72.72 0 1 1 0 1.441H53.684a4.63 4.63 0 0 1-2.532-.738.701.701 0 0 1-.453-.195l-8.71-8.442a3.878 3.878 0 0 0-2.766-1.14 3.87 3.87 0 0 0-2.754 1.132 3.796 3.796 0 0 0-1.137 2.72c0 1.026.402 1.991 1.133 2.718l10.555 10.45c.957.948 2.12 1.429 3.457 1.429h33.175v-14.18c-2.718-3.656-7.785-6.016-12.98-6.016"/><g clip-path="url(#a)"><path fill="#b2e6fa" d="M93.75 72.648V91.59c0 1.195-.973 2.16-2.164 2.16h-3.793V73.371c0-.398.324-.723.723-.723h5.234"/></g><path fill="#83d282" d="M76.477 62.738h6.457c.398 0 .718-.32.718-.715V55.57a7.793 7.793 0 0 0-2.523.664 7.937 7.937 0 0 0-4.652 6.504"/><path fill="#fff" d="M54.805 26.684v-7.211h-7.211v7.21h7.21"/><path fill="#83d282" d="M77.734 46.984a9.398 9.398 0 0 1-2.191-3.484h-5.11a6.491 6.491 0 0 1 3.122 5.54v5.769a6.495 6.495 0 0 1-6.489 6.488.72.72 0 1 1 0-1.442 5.055 5.055 0 0 0 5.047-5.046v-5.77a5.055 5.055 0 0 0-5.047-5.05.712.712 0 0 1-.675-.489h-4.375v.492h1.445a3.61 3.61 0 0 1 3.605 3.606v1.441a.72.72 0 0 1-1.441 0v-1.441a2.166 2.166 0 0 0-2.164-2.164h-1.445v5.77h1.445a3.61 3.61 0 0 1 3.605 3.605v1.441a3.61 3.61 0 0 1-3.605 3.605h-1.445v1.442a.72.72 0 1 1-1.442 0v-1.442h-1.441a3.61 3.61 0 0 1-3.606-3.605v-1.441a.72.72 0 1 1 1.442 0v1.441c0 1.195.968 2.164 2.164 2.164h1.441v-5.77h-1.441a3.61 3.61 0 0 1-3.606-3.605v-1.441a3.61 3.61 0 0 1 3.606-3.606h1.441V43.5H56.2a.707.707 0 0 1-.672.488 5.056 5.056 0 0 0-5.05 5.051v5.77a5.055 5.055 0 0 0 5.05 5.046.72.72 0 0 1 0 1.442c-3.578 0-6.492-2.91-6.492-6.488v-5.77a6.491 6.491 0 0 1 3.121-5.539H47.04a9.401 9.401 0 0 1-2.887 4.121 9.403 9.403 0 0 1-3.156 1.707v5.2c3.59 1.117 6.262 4.331 6.559 8.21H75.03a9.34 9.34 0 0 1 2.649-5.816 9.345 9.345 0 0 1 5.972-2.797v-4.398a9.326 9.326 0 0 1-5.898-2.723c-.008-.004-.012-.012-.02-.02"/><path fill="#83d282" d="M56.969 47.598v1.441c0 1.191.968 2.164 2.164 2.164h1.441v-5.77h-1.441a2.164 2.164 0 0 0-2.164 2.165M62.016 58.414h1.445a2.166 2.166 0 0 0 2.164-2.164v-1.441a2.166 2.166 0 0 0-2.164-2.164h-1.445v5.77M40.996 44.512v3.297a7.83 7.83 0 0 0 1.79-.946A7.976 7.976 0 0 0 45.5 43.5h-3.488c-.559 0-1.016.453-1.016 1.012M77.09 43.5c1.125 2.617 3.61 4.512 6.562 4.781V43.5H77.09"/><path fill="#f57e7e" d="M38.727 24.73a.721.721 0 0 1-1.02 1.02l-1.652-1.656-1.653 1.656a.725.725 0 0 1-1.02 0 .714.714 0 0 1 0-1.02l1.653-1.656-1.652-1.652a.721.721 0 0 1 1.02-1.02l1.652 1.653 1.652-1.653a.721.721 0 0 1 1.02 1.02l-1.653 1.652zm.933-5.257h-7.21v7.21h7.21v-7.21"/><path fill="#fff" d="M62.738 26.684h7.211v-7.211h-7.21v7.21M18.746 6.492v1.434a2.17 2.17 0 0 0 2.14 2.168h.024c.164 0 .317-.02.465-.059.098-.02.191-.05.281-.086.032-.011.063-.02.09-.031.067-.027.125-.063.188-.094.03-.02.062-.031.093-.05a2.29 2.29 0 0 0 .578-.512c.29-.371.465-.828.465-1.332V3.602c0-.293-.062-.586-.168-.84a2.381 2.381 0 0 0-.152-.278c-.016-.03-.027-.062-.047-.09-.035-.05-.078-.093-.117-.14l-.023-.027c-.051-.063-.114-.114-.172-.168a2.09 2.09 0 0 0-.547-.399 2.076 2.076 0 0 0-.934-.215c-.668 0-1.254.301-1.652.782a2.12 2.12 0 0 0-.512 1.379v2.886M17.305 26.684h7.21v-7.211h-7.21v7.21M41.555 2.297c-.028.035-.059.062-.082.098-.043.062-.075.132-.11.199-.023.047-.05.09-.074.14-.004.008-.012.016-.016.024a2.226 2.226 0 0 0-.168.844V7.93c0 .55.215 1.054.56 1.437.151.168.327.313.523.426.316.187.683.3 1.078.3h.02a2.4 2.4 0 0 0 .413-.042l.043-.012c.047-.012.094-.027.137-.043.066-.02.137-.039.2-.062.054-.024.105-.051.155-.079.055-.027.114-.054.168-.085 0-.004.004-.004.008-.008a1.66 1.66 0 0 0 .168-.121c.035-.028.074-.055.11-.082.07-.063.132-.133.195-.2.015-.02.039-.039.054-.058.075-.09.141-.184.2-.285 0-.004.004-.008.004-.012.183-.316.289-.684.289-1.074V3.605a2.07 2.07 0 0 0-.285-1.046 2.16 2.16 0 0 0-.254-.364 2.138 2.138 0 0 0-1.625-.75c-.457 0-.868.153-1.211.39a2.08 2.08 0 0 0-.5.462M24.516 31.73h-7.211v7.207h7.21V31.73M63.46 6.492v1.434c0 .898.548 1.668 1.321 2a2.149 2.149 0 0 0 1.309.113c.129-.027.254-.062.375-.113l.008-.008a2.055 2.055 0 0 0 .53-.324c.161-.133.298-.285.411-.457.238-.344.371-.762.371-1.207V3.602c0-.172-.02-.336-.058-.497a2.174 2.174 0 0 0-.766-1.19c-.035-.024-.07-.044-.102-.067a2.169 2.169 0 0 0-1.238-.403 2.157 2.157 0 0 0-2.16 2.157v2.89"/><path fill="#46378d" d="M18.602 84.742a9.157 9.157 0 0 1-1.43.278 10.769 10.769 0 0 1-7.895-2.16 10.785 10.785 0 0 1-4.238-8.575c0-5.965 4.86-10.824 10.824-10.824a10.79 10.79 0 0 1 8.578 4.242 10.77 10.77 0 0 1 2.239 6.582c0 5.02-3.434 9.25-8.078 10.457zm-2.739-22.719c-6.761 0-12.261 5.5-12.261 12.262 0 6.117 4.515 11.211 10.398 12.117.61.094 1.23.141 1.863.141 6.754 0 12.262-5.504 12.262-12.258 0-.637-.047-1.258-.145-1.863-.902-5.883-5.996-10.399-12.117-10.399"/><path fill="#faea6d" d="M17.887 65.484c-.446 0-.883.036-1.317.09.004.016.012.031.012.051v1.492h1.316a3.016 3.016 0 0 1 3.012 3.012v1.266a.724.724 0 0 1-1.445 0v-1.266c0-.863-.703-1.567-1.567-1.567h-1.316v5.016h1.316a3.016 3.016 0 0 1 3.012 3.012v1.883a3.016 3.016 0 0 1-3.012 3.011h-1.316v1.45a.72.72 0 1 1-1.441 0v-1.45h-1.317a3.016 3.016 0 0 1-3.011-3.011v-1.309a.72.72 0 0 1 1.44 0v1.309a1.57 1.57 0 0 0 1.571 1.566h1.317v-5.016h-1.317a3.016 3.016 0 0 1-3.011-3.011v-1.883a3.016 3.016 0 0 1 3.011-3.012h1.317v-1.265c-4.637 1.222-8.075 5.441-8.075 10.457 0 2.46.829 4.73 2.211 6.55a10.769 10.769 0 0 0 7.895 2.16 9.157 9.157 0 0 0 1.43-.277c4.644-1.207 8.078-5.437 8.078-10.457a10.77 10.77 0 0 0-2.239-6.582 10.79 10.79 0 0 0-6.554-2.219"/><path fill="#faea6d" d="M12.254 70.129v1.883a1.57 1.57 0 0 0 1.57 1.566h1.317v-5.016h-1.317a1.57 1.57 0 0 0-1.57 1.567M19.465 78.473V76.59c0-.863-.703-1.567-1.567-1.567h-1.316v5.016h1.316c.864 0 1.567-.703 1.567-1.566"/><path fill="#46378d" d="M16.582 75.023h1.316c.864 0 1.567.704 1.567 1.567v1.883c0 .863-.703 1.566-1.567 1.566h-1.316zm-1.441-1.445h-1.317a1.57 1.57 0 0 1-1.57-1.566v-1.883a1.57 1.57 0 0 1 1.57-1.567h1.317zm.718-8.672a.717.717 0 0 0-.718.719v1.492h-1.317a3.016 3.016 0 0 0-3.011 3.012v1.883a3.016 3.016 0 0 0 3.011 3.011h1.317v5.016h-1.317a1.57 1.57 0 0 1-1.57-1.566v-1.309a.72.72 0 0 0-1.441 0v1.309a3.016 3.016 0 0 0 3.011 3.011h1.317v1.45a.72.72 0 1 0 1.441 0v-1.45h1.316a3.016 3.016 0 0 0 3.012-3.011V76.59a3.016 3.016 0 0 0-3.012-3.012h-1.316v-5.016h1.316c.864 0 1.567.704 1.567 1.567v1.266a.724.724 0 0 0 1.445 0v-1.266a3.016 3.016 0 0 0-3.012-3.012h-1.316v-1.492c0-.02-.008-.035-.012-.05a.713.713 0 0 0-.71-.669"/><g clip-path="url(#b)"><path fill="#46378d" d="M92.305 91.59a.723.723 0 0 1-.72.722h-5.769a.724.724 0 0 1-.722-.722V70.672a.72.72 0 0 1 .722-.719h5.77a.72.72 0 0 1 .719.719zm-8.649-2.164h-33.18c-1.335 0-2.5-.48-3.46-1.43L36.465 77.551a3.824 3.824 0 0 1-1.133-2.723 3.81 3.81 0 0 1 1.137-2.719 3.88 3.88 0 0 1 2.754-1.132c1.047 0 2.023.406 2.765 1.14L50.7 80.56a.73.73 0 0 0 .453.195 4.627 4.627 0 0 0 2.532.734h14.824a.717.717 0 0 0 .722-.715.721.721 0 0 0-.722-.722H53.684c-1.7 0-3.032-1.266-3.032-2.887 0-1.617 1.332-2.879 3.032-2.879h5.578a.739.739 0 0 0 .508-.21c2.218-2.216 5.91-4.845 10.906-4.845 5.195 0 10.254 2.36 12.98 6.02zm7.93-20.91h-5.77c-1.195 0-2.16.964-2.16 2.156v2.355c-3.133-3.23-8.008-5.234-12.98-5.234-5.324 0-9.274 2.691-11.711 5.047h-5.281c-2.489 0-4.442 1.875-4.47 4.277l-6.21-6.031a5.337 5.337 0 0 0-3.781-1.555c-1.43 0-2.766.555-3.77 1.555a5.233 5.233 0 0 0-1.566 3.742c0 1.418.558 2.746 1.566 3.746l10.55 10.446c1.224 1.207 2.767 1.847 4.474 1.847h33.18v.723c0 1.195.964 2.16 2.16 2.16h5.769a2.163 2.163 0 0 0 2.164-2.16V70.672a2.162 2.162 0 0 0-2.164-2.156"/></g><path fill="#46378d" d="M88.703 72.117a.718.718 0 0 0-.723.719v6.492a.721.721 0 1 0 1.442 0v-6.492a.717.717 0 0 0-.719-.719M10.094 7.2c0-.177.066-.333.168-.454a.733.733 0 0 1 .543-.262H17.3V7.93c0 .234.027.465.074.687v.04c.012.066.047.128.063.195a3.5 3.5 0 0 0 .39.91c.629 1.062 1.766 1.777 3.082 1.777.61 0 1.18-.148 1.68-.426a3.577 3.577 0 0 0 1.398-1.351c.055-.09.114-.18.16-.274.23-.472.368-1 .368-1.558V6.484h15.148V7.93c0 .597.16 1.16.422 1.66.031.058.074.113.11.172.624 1.058 1.753 1.777 3.07 1.777a3.57 3.57 0 0 0 1.687-.426 3.545 3.545 0 0 0 1.406-1.351c.188-.317.332-.66.414-1.032.008-.027.02-.046.028-.074.02-.101.011-.203.027-.304.02-.141.047-.274.047-.422V6.484h15.14V7.93c0 .672.196 1.297.52 1.832.125.207.266.406.426.582a3.572 3.572 0 0 0 4.36.77 3.615 3.615 0 0 0 1.402-1.352c.32-.535.507-1.164.507-1.832V6.484h6.497c.027 0 .054 0 .074.008.36.031.64.344.64.707v6.496H10.094zm8.949-4.677c.062-.105.137-.203.215-.296.398-.48.984-.782 1.652-.782.336 0 .652.075.934.211.203.102.383.242.547.399.058.058.12.11.172.172.007.007.015.015.023.027.039.043.078.09.121.14.012.028.023.063.047.09.055.086.105.18.148.274.106.258.168.547.168.844V7.93a2.154 2.154 0 0 1-1.027 1.832c-.008.008-.012.011-.02.015-.027.016-.058.028-.09.047-.062.031-.12.067-.187.094a.607.607 0 0 1-.09.031c-.09.035-.183.067-.281.086-.148.04-.3.059-.465.059h-.023a2.86 2.86 0 0 1-.414-.04 2.18 2.18 0 0 1-1.727-2.124V3.602c0-.395.11-.762.297-1.079zm22.426-.128c.027-.036.054-.067.082-.102.14-.18.316-.328.504-.457.343-.238.754-.39 1.21-.39a2.148 2.148 0 0 1 1.88 1.113c.18.304.285.66.285 1.043V7.93a2.172 2.172 0 0 1-.293 1.086 2.07 2.07 0 0 1-.2.285.75.75 0 0 1-.054.058c-.063.067-.125.137-.196.196-.035.03-.074.058-.109.086a1.66 1.66 0 0 1-.168.12c0 .005-.004.005-.008.009-.054.03-.113.058-.168.085-.05.028-.101.055-.156.079a2.396 2.396 0 0 1-.2.062c-.042.016-.085.035-.132.043a.127.127 0 0 1-.05.016c-.13.023-.27.035-.41.039h-.02a2.133 2.133 0 0 1-1.598-.727 2.135 2.135 0 0 1-.563-1.437V3.602c0-.301.063-.586.168-.844.004-.008.012-.016.016-.028.023-.046.05-.09.074-.14.04-.067.067-.133.106-.195zm22.164.367a2.157 2.157 0 0 1 1.988-1.317c.461 0 .883.157 1.238.403.032.023.07.043.102.07a2.13 2.13 0 0 1 .824 1.684V7.93c0 .445-.133.863-.37 1.207-.114.172-.25.324-.411.457-.004.004-.008.004-.012.008a2.055 2.055 0 0 1-.52.316l-.007.008a2.398 2.398 0 0 1-.371.113h-.004a2.149 2.149 0 0 1-1.309-.113 2.177 2.177 0 0 1-1.32-1.996V3.602c0-.297.062-.582.172-.84zM8.653 51.199v2.18c0 1.187.964 2.144 2.152 2.144h24.53c.286 0 .536-.16.642-.41a.65.65 0 0 0 .074-.304.72.72 0 0 0-.715-.723H10.805a.71.71 0 0 1-.711-.707v-2.18h25.242c.39 0 .715-.316.715-.715a.72.72 0 0 0-.715-.726H5.039a3.608 3.608 0 0 1-3.601-3.606v-1.437h33.898a.724.724 0 0 0 .582-1.14c-.008-.013-.02-.02-.027-.028a.679.679 0 0 0-.555-.281H10.094v-28.13H76.44v21.645c0 .39.32.715.715.715.086 0 .164-.02.239-.047.027-.011.058-.02.085-.035a.697.697 0 0 0 .407-.633V7.2a2.162 2.162 0 0 0-2.16-2.16H69.23V3.602a3.608 3.608 0 0 0-7.215 0v1.437h-15.14V3.602A3.61 3.61 0 0 0 43.265 0a3.6 3.6 0 0 0-3.6 3.602v1.437h-15.15V3.602A3.603 3.603 0 0 0 20.91 0a3.61 3.61 0 0 0-3.61 3.602v1.437h-6.495c-1.188 0-2.153.98-2.153 2.16v36.067H.715a.72.72 0 0 0-.715.726v2.16C0 48.934 2.262 51.2 5.04 51.2h3.612"/><path fill="#46378d" d="M24.516 26.684h-7.211v-7.211h7.21zm.722-8.653h-8.66a.719.719 0 0 0-.719.715v8.656a.72.72 0 0 0 .72.723h8.66c.398 0 .718-.32.718-.723v-8.656a.716.716 0 0 0-.719-.715M54.809 26.684h-7.22v-7.211h7.22zm.714-8.653h-8.652a.722.722 0 0 0-.723.715v8.656c0 .403.329.723.723.723h8.652c.399 0 .727-.32.727-.723v-8.656a.723.723 0 0 0-.727-.715M69.945 26.684h-7.21v-7.211h7.21zm.727-8.653H62.02a.72.72 0 0 0-.727.715v8.656c0 .403.324.723.727.723h8.652a.72.72 0 0 0 .719-.723v-8.656a.719.719 0 0 0-.72-.715M55.523 30.285h-8.652a.724.724 0 0 0-.723.727v6.484c0 .406.329.727.723.727.399 0 .719-.32.719-.727v-5.77h7.219v5.77c0 .406.32.727.714.727.399 0 .727-.32.727-.727v-6.484a.725.725 0 0 0-.727-.727M70.672 30.285H62.02a.723.723 0 0 0-.727.727v6.484a.724.724 0 1 0 1.445 0v-5.77h7.207v5.77a.73.73 0 0 0 .727.727.724.724 0 0 0 .719-.727v-6.484a.721.721 0 0 0-.72-.727M17.305 31.73v-.003h7.21v7.21h-7.21zm-.727 8.653h8.66a.72.72 0 0 0 .719-.719v-8.652a.719.719 0 0 0-.719-.727h-8.66a.721.721 0 0 0-.719.727v8.652c0 .395.325.719.72.719M40.379 30.285h-8.652a.719.719 0 0 0-.72.727v8.652c0 .395.321.719.72.719h3.609a.719.719 0 0 0 .715-.719.725.725 0 0 0-.715-.727h-2.887v-7.21h7.211v5.77a.723.723 0 1 0 1.445 0v-6.485a.723.723 0 0 0-.726-.727M39.66 26.684h-7.21v-7.211h7.21zm.719-8.653h-8.652a.716.716 0 0 0-.72.715v8.656c0 .403.321.723.72.723h8.652c.402 0 .723-.32.723-.723v-8.656a.717.717 0 0 0-.723-.715"/><path fill="#46378d" d="M38.727 20.402a.721.721 0 0 0-1.02 0l-1.652 1.653-1.653-1.653a.721.721 0 0 0-1.02 1.02l1.653 1.652-1.652 1.656a.714.714 0 0 0 0 1.02.725.725 0 0 0 1.02 0l1.652-1.656 1.652 1.656a.718.718 0 0 0 1.02 0 .721.721 0 0 0 0-1.02l-1.653-1.656 1.653-1.652a.721.721 0 0 0 0-1.02"/><path fill="#fff" d="M71.39 27.402a.72.72 0 0 1-.718.723H62.02a.722.722 0 0 1-.727-.723v-8.656a.72.72 0 0 1 .727-.715h8.652c.394 0 .719.32.719.715zm0 10.094a.721.721 0 1 1-1.44 0v-5.77h-7.216v5.77c0 .406-.32.727-.714.727a.723.723 0 0 1-.727-.727v-6.484c0-.407.324-.727.727-.727h8.652c.394 0 .719.32.719.727zM56.25 27.402a.724.724 0 0 1-.727.723h-8.652a.724.724 0 0 1-.723-.723v-8.656c0-.394.329-.715.723-.715h8.652c.399 0 .727.32.727.715zm0 10.094a.725.725 0 0 1-.727.727.718.718 0 0 1-.714-.727v-5.77h-7.22v5.77c0 .406-.32.727-.718.727a.724.724 0 0 1-.723-.727v-6.484c0-.407.329-.727.723-.727h8.652c.399 0 .727.32.727.727zM41.102 27.402c0 .403-.32.723-.723.723h-8.652a.718.718 0 0 1-.72-.723v-8.656c0-.394.321-.715.72-.715h8.652c.402 0 .723.32.723.715zm0 10.094a.721.721 0 1 1-1.441 0v-5.77h-7.212v7.212h2.887c.394 0 .715.332.715.726 0 .395-.32.719-.715.719h-3.61a.72.72 0 0 1-.718-.719v-8.652c0-.407.32-.727.719-.727h8.652a.72.72 0 0 1 .723.727zM25.957 27.402c0 .403-.32.723-.719.723h-8.66a.72.72 0 0 1-.719-.723v-8.656c0-.394.325-.715.72-.715h8.66c.398 0 .718.32.718.715zm-10.098 3.61c0-.407.325-.727.72-.727h8.66c.398 0 .718.32.718.727v8.652a.72.72 0 0 1-.719.719h-8.66a.722.722 0 0 1-.719-.719zm61.536 6.437a.681.681 0 0 1-.239.047.715.715 0 0 1-.715-.715V15.137H10.094v28.129h25.242c.23 0 .43.109.555.28.011.013.02.02.027.032h1.574v-1.754c0-1.187.973-2.16 2.168-2.16h37.82v-2.25c-.027.016-.058.023-.085.035M38.3 63.742h.067a.45.45 0 0 1-.066-.054v.054M84.855 40.8h-.03c.01.02.023.044.03.063v-.062"/><path fill="#fff" d="M38.938 48.285a7.83 7.83 0 0 0 2.058-.476v-3.297c0-.559.457-1.012 1.016-1.012H45.5c.32-.746.535-1.55.613-2.395H39.66a.706.706 0 0 0-.445.168.707.707 0 0 0-.278.551v6.461M38.938 55.57v6.453c0 .172.07.325.171.45a.72.72 0 0 0 .551.265h1.336V56.04a7.822 7.822 0 0 0-2.059-.469M40.996 49.328a9.37 9.37 0 0 1-2.059.399v4.402c.711.05 1.399.195 2.06.398v-5.199M52.156 43.5a6.444 6.444 0 0 1 3.371-.953.72.72 0 0 1 .72.723c0 .082-.02.156-.048.23h4.375v-.953a.72.72 0 0 1 1.442 0v.953h4.375c-.024-.074-.047-.148-.047-.23 0-.399.324-.723.722-.723a6.42 6.42 0 0 1 3.368.953h5.109a9.336 9.336 0 0 1-.512-2.395H47.555a9.183 9.183 0 0 1-.52 2.395h5.121M83.652 43.5v-1.676a.714.714 0 0 0-.441-.66.667.667 0 0 0-.277-.059h-6.461c.078.844.293 1.649.617 2.395h6.562"/><path fill="#46378d" d="M83.652 48.285c-2.953-.27-5.441-2.168-6.562-4.785a7.808 7.808 0 0 1-.617-2.395h6.46c.102 0 .196.02.278.06a.714.714 0 0 1 .441.66zm0 5.84v.004a9.321 9.321 0 0 0-5.972 2.793 9.34 9.34 0 0 0-2.649 5.816H47.555c-.297-3.875-2.965-7.093-6.559-8.21a9.234 9.234 0 0 0-2.059-.4v-4.401a9.37 9.37 0 0 0 8.098-6.227c.27-.758.457-1.559.52-2.395H75.03a9.398 9.398 0 0 0 2.703 5.879l.02.02a9.326 9.326 0 0 0 5.898 2.723zm0 7.898c0 .395-.32.715-.718.715h-6.461a7.936 7.936 0 0 1 4.656-6.504 7.793 7.793 0 0 1 2.523-.664zm-42.656.715H39.66a.72.72 0 0 1-.55-.265.712.712 0 0 1-.172-.45V55.57c.718.063 1.41.227 2.058.47a7.943 7.943 0 0 1 5.117 6.698zm-1.781-21.465a.706.706 0 0 1 .445-.168h6.453A7.803 7.803 0 0 1 45.5 43.5a7.962 7.962 0 0 1-2.71 3.36c-.552.39-1.153.71-1.794.949a7.83 7.83 0 0 1-2.059.476v-6.46c0-.227.114-.419.278-.552zm.445-1.609a2.169 2.169 0 0 0-2.168 2.16v20.2c0 .675.32 1.269.809 1.663a2.124 2.124 0 0 0 1.36.492h43.273c1.187 0 2.16-.96 2.16-2.156V41.824c0-.347-.09-.672-.239-.96-.007-.024-.02-.04-.03-.063a2.16 2.16 0 0 0-1.891-1.137H39.66"/><path fill="#46378d" d="M63.46 52.645c1.192 0 2.165.968 2.165 2.164v1.441a2.166 2.166 0 0 1-2.164 2.164h-1.445v-5.77zm-2.886-1.442h-1.441a2.166 2.166 0 0 1-2.164-2.164v-1.441c0-1.196.968-2.164 2.164-2.164h1.441zm.723-9.375a.72.72 0 0 0-.723.719v1.445h-1.441a3.61 3.61 0 0 0-3.606 3.606v1.441a3.61 3.61 0 0 0 3.606 3.606h1.441v5.77h-1.441a2.164 2.164 0 0 1-2.164-2.165v-1.441a.72.72 0 1 0-1.441 0v1.441a3.61 3.61 0 0 0 3.605 3.605h1.441v1.442a.72.72 0 1 0 1.441 0v-1.442h1.446a3.61 3.61 0 0 0 3.605-3.605v-1.441a3.61 3.61 0 0 0-3.605-3.606h-1.445v-5.77h1.445c1.191 0 2.164.97 2.164 2.165v1.441a.72.72 0 0 0 1.441 0v-1.441a3.61 3.61 0 0 0-3.605-3.606h-1.445v-1.445a.717.717 0 0 0-.72-.719"/><path fill="#46378d" d="M66.344 43.27c0 .082.023.156.047.23.097.285.359.488.675.488a5.055 5.055 0 0 1 5.047 5.051v5.77a5.055 5.055 0 0 1-5.047 5.046.72.72 0 1 0 0 1.441 6.495 6.495 0 0 0 6.489-6.487v-5.77a6.491 6.491 0 0 0-3.121-5.539 6.466 6.466 0 0 0-3.368-.953.724.724 0 0 0-.722.723M55.527 42.547a6.48 6.48 0 0 0-3.37.953 6.491 6.491 0 0 0-3.122 5.54v5.769c0 3.578 2.914 6.488 6.492 6.488a.72.72 0 0 0 0-1.441 5.055 5.055 0 0 1-5.05-5.047v-5.77a5.056 5.056 0 0 1 5.05-5.05.707.707 0 0 0 .672-.489.656.656 0 0 0 .047-.23.72.72 0 0 0-.719-.723"/></svg>