<svg xmlns="http://www.w3.org/2000/svg" width="125" viewBox="0 0 93.75 93.75" height="125" version="1.0"><defs><clipPath id="a"><path d="M11.676 0h70.5v93.5h-70.5zm0 0"/></clipPath><clipPath id="b"><path d="M58 0h24.176v24H58zm0 0"/></clipPath></defs><g clip-path="url(#a)"><path fill="#eceff1" d="M58.676-.059H17.55c-3.235 0-5.875 2.633-5.875 5.86v82.031c0 3.234 2.64 5.86 5.875 5.86H76.3c3.242 0 5.875-2.626 5.875-5.86V23.379zm0 0"/></g><g clip-path="url(#b)"><path fill="#cfd8dc" d="M58.676-.059V17.52c0 3.234 2.633 5.859 5.875 5.859h17.625zm0 0"/></g><path fill="#90a4ae" d="M67.488 46.816h-11.75a2.935 2.935 0 0 1-2.937-2.93 2.935 2.935 0 0 1 2.937-2.929h11.75a2.93 2.93 0 1 1 0 5.86zM67.488 58.535h-11.75a2.935 2.935 0 0 1-2.937-2.93 2.935 2.935 0 0 1 2.937-2.93h11.75a2.935 2.935 0 0 1 2.938 2.93 2.935 2.935 0 0 1-2.938 2.93zM67.488 70.254H26.363a2.935 2.935 0 0 1-2.937-2.93 2.935 2.935 0 0 1 2.937-2.93h41.125a2.935 2.935 0 0 1 2.938 2.93 2.935 2.935 0 0 1-2.938 2.93zM67.488 81.973H26.363a2.935 2.935 0 0 1-2.937-2.93 2.935 2.935 0 0 1 2.937-2.93h41.125a2.935 2.935 0 0 1 2.938 2.93 2.935 2.935 0 0 1-2.938 2.93zm0 0"/><path fill="#2196f3" d="M46.926 42.422c0-5.652-5.27-10.254-11.75-10.254-3.184 0-5.875-2.008-5.875-4.395 0-2.382 2.691-4.394 5.875-4.394 1.597 0 3.09.492 4.203 1.394a2.938 2.938 0 0 0 4.129-.421 2.913 2.913 0 0 0-.422-4.118c-1.418-1.156-3.133-1.93-4.973-2.343V14.59a2.935 2.935 0 0 0-2.937-2.93 2.935 2.935 0 0 0-2.938 2.93v3.293c-5.05 1.148-8.812 5.129-8.812 9.89 0 5.657 5.27 10.254 11.75 10.254 3.183 0 5.875 2.012 5.875 4.395 0 2.387-2.692 4.394-5.875 4.394-1.598 0-3.09-.492-4.2-1.394a2.938 2.938 0 0 0-4.128.422 2.919 2.919 0 0 0 .422 4.125c1.414 1.148 3.132 1.922 4.968 2.34v3.296a2.935 2.935 0 0 0 2.938 2.93 2.935 2.935 0 0 0 2.937-2.93v-3.292c5.055-1.149 8.813-5.126 8.813-9.891zm0 0"/></svg>