<svg style="enable-background:new 0 0 64 64" viewBox="0 0 64 64" xml:space="preserve" xmlns="http://www.w3.org/2000/svg"><style>.st0{fill:#0072ff}</style><g id="Layer_2"><path class="st0" d="m27.1 24.1-2.6 15.8h4.1l2.6-15.8h-4.1zM50.8 24.1c-1 0-1.7.3-2.1 1.3L42.6 40h4.3s.7-2 .9-2.4H53c.1.6.5 2.4.5 2.4h3.8L54 24.1h-3.2zm-1.9 10.2c.3-.9 1.6-4.4 1.6-4.4l.5-1.5.3 1.4s.8 3.8 1 4.6h-3.4zM39.4 30.5c-1.4-.7-2.3-1.2-2.3-2 0-.7.7-1.4 2.3-1.4 1.3 0 2.3.3 3.1.6l.4.2.6-3.4c-.8-.3-2.1-.7-3.7-.7-4 0-6.9 2.2-6.9 5.2 0 2.3 2 3.6 3.6 4.3 1.6.8 2.1 1.3 2.1 2 0 1.1-1.3 1.5-2.5 1.5-1.6 0-2.5-.2-3.9-.8l-.5-.3-.6 3.5c1 .4 2.7.8 4.6.8 4.3 0 7.1-2.1 7.1-5.4.1-1.6-1-3-3.4-4.1zM21.1 24.1l-4 10.8-.4-2.2-1.4-7.3c-.2-1-1-1.3-1.9-1.3H6.9c-.1 0-.1.1-.2.1 0 .1 0 .2.1.2 1 .3 1.9.6 2.7 1 .9.4 1.5 1.2 1.8 2.1l3.3 12.4h4.3l6.4-15.8h-4.2z"/></g></svg>