<svg xmlns="http://www.w3.org/2000/svg" width="1080" viewBox="0 0 810 810" height="1080" version="1.0"><defs><clipPath id="a"><path d="M64 135.133h61V185H64zm0 0"/></clipPath><clipPath id="b"><path d="M128 622h39.992v53.05H128zm0 0"/></clipPath><clipPath id="c"><path d="M31 622h39.406v53.05H31zm0 0"/></clipPath><clipPath id="d"><path d="M673 622h38.457v53.05H673zm0 0"/></clipPath><clipPath id="e"><path d="M726 622h39v53.05h-39zm0 0"/></clipPath><clipPath id="f"><path d="M777.078 404.543H810V463h-32.922zm0 0"/></clipPath></defs><path fill="#f8c09d" d="M92.61 184.633c-15.79.207-26.547 16.633-19.95 30.98 1.82 3.957 4.824 7.278 9.668 8.758 16.61 5.055 53.434 2.883 34.656-25.281-7.504-11.266-16.402-14.563-24.375-14.457"/><path fill="#f8c09d" d="M121.7 183.785c4.362 21.785-10.938 32.848-25.872 32.848-14.926 0-29.351-13.371-25.863-32.848 0-18.14 10.937-32.851 25.863-32.851 14.934 0 25.871 14.71 25.871 32.851"/><path fill="#f5a77e" d="M117.809 163.852c-3.63-2.657-7.72-5.176-11.985-6.653-8.117-2.816-17.101-1.441-24.883 1.774-4.113 1.703-8.82 3.937-11.187 7.922-1.05 1.761-1.637 3.89-1.281 5.94.172.954.547 1.84 1.027 2.68.281.497.61.962.945 1.415.145.191 1.086 1.672 1.11 1.683-.368-.133-1.215.407-.621.614.464.164.906.136 1.285-.063.652.344.867 3.367 2.355 3.223.82-.086 1.223-.75 1.301-1.504.223-2.172-.219-4.418.012-6.63.093-.858.25-1.753.636-2.542.16-.328.364-.742.633-.992 1.09-.985 1.82-.328 2.824-.078 1.239.308 2.485.172 3.676-.278 3.313-1.242 5.2-4.488 8.188-6.183-.281 2.757 6.527 1.726 7.894 1.496.512-.09 1.54-.336 1.965-.348 1.52-.05 1.86.48 2.953.973.57.258 1.117.422 1.742.46 2.254.153 4.778-1.628 6.875-.25 3.395 2.227 1.59 7.782 4.895 10 2.281 1.536 4.316-2.32 4.527-4.081.442-3.703-2.101-6.535-4.886-8.578"/><g clip-path="url(#a)"><path fill="#8c5649" d="M74.246 172.336c.328-2.813 3.344-5.66 5.77-4.2.453.27.828.665 1.312.872 1.328.574 2.762-.438 3.828-1.41a94.856 94.856 0 0 0 8.88-9.278l.03 4.332c.008.403.02.844.27 1.164.289.368.797.47 1.262.52 3.515.363 7.172-.8 9.84-3.121.32 1.07.414 2.219.261 3.34 1.946 1.203 4.406-.621 6.684-.43 1.992.164 3.543 1.895 4.242 3.762.703 1.87.754 3.91 1.043 5.883a24.777 24.777 0 0 0 2.062 6.902c.23.48.508.992 1 1.215 1.407.636 2.368-1.512 2.434-3.063.348-7.683.695-15.367 1.04-23.058.038-.825.07-1.676-.22-2.453-.53-1.415-1.996-2.227-2.925-3.43-1.946-2.531-1.555-6.797-4.391-8.27-1.484-.77-3.356-.41-4.863-1.144-1.168-.57-1.938-1.723-2.89-2.617-2.333-2.168-5.767-2.72-8.938-2.497-3.176.215-6.27 1.102-9.438 1.399-3.059.285-6.39.086-8.887 1.875-.855.61-1.55 1.418-2.414 2.016-1.004.703-2.195 1.085-3.316 1.578-6.067 2.668-10.395 8.933-10.727 15.554-.105 2.043.137 4.082.25 6.118.32 5.996-3.648 15.75 2.977 19.359 8.55 4.668 5.355-6.89 5.824-10.918"/></g><path fill="#f8c09d" d="M46.047 290.734c-6.203 19.141-12.395 34.903-12.395 34.903s-5.078 51.629-13.175 77.218c-4.516 14.286-9.977 20.461-16.012 5.055-16.86-43.023-2.04-94.476-2.621-100.578-.578-6.105 5.23-59.016 20.347-73.55 15.118-14.532 31.68-9.884 31.68-9.884 10.371 3.457 1.262 38.774-7.824 66.836M191.352 407.91c-6.098 15.57-11.614 9.59-16.153-4.383-8.02-24.632-13.043-74.097-13.043-74.097s-7.25-19.2-13.914-41.239c-8.523-28.187-16.086-61.027-6.3-64.293 0 0 16.57-4.648 31.683 9.883 15.113 14.535 20.922 71.23 20.344 77.336-.578 6.102 14.242 53.77-2.617 96.793M99.016 421.523v.008c0 5.078-.09 10.094-.278 15A385.598 385.598 0 0 1 97.551 456c-3.215 36.902-1.934 74.477-15.34 90.074-3.168 3.7-7.172 6.164-12.246 7.094-35.805.23-37.738-89.55-38.684-97.195-5.484-44.512 8.793-106.618 8.793-106.618s35.254-48.066 50.996-1.359c2.051 6.067 3.72 13.723 4.903 23.3 2.109 17.13 3.043 34.071 3.043 50.227"/><path fill="#f8c09d" d="M84.531 526.172s-.105 5.969-.672 15.308c-1.394 23.176-5.586 67.16-17.89 92.336-.414.852-.84 1.68-1.274 2.489a55.563 55.563 0 0 1-3.265 5.343c-6.364 12.454-14.535 2.922-20.41-15.687-10.325-32.684-13.56-93.383 12.507-112.149 42.375-30.507 31.004 12.36 31.004 12.36M166.625 455.25v.008c-3.527 86.445-24.277 101.293-38.547 97.91-3.543-.848-10.293-9.906-10.293-9.906a13.589 13.589 0 0 1-2.672-1.422c-15.886-10.797-14.035-55.574-14.625-85.86-.125-6.246-.586-12.687-.96-19.3-.282-4.953-.512-10.008-.512-15.149v-.008c0-16.152.945-33.097 3.054-50.226 1.153-9.406 2.75-16.965 4.668-22.98 15.059-47.25 48.895 1.038 48.895 1.038s15.504 61.442 10.992 105.895"/><path fill="#f8c09d" d="M157.676 626.504c-5.766 15.844-14.442 23.836-24.438 14.45a110.58 110.58 0 0 1-.836-1.669c-.359-.758-.714-1.52-1.062-2.308-11.66-26.38-15.899-73.332-17.34-96.688-.531-8.605-.676-14.008-.676-14.008s-11.707-42.601 30.942-12.48c24.8 17.504 24.976 80.91 13.41 112.703M28.172 440.559c-.422.578-.98.789-1.61.699-1.964-.285-4.609-3.54-5.648-7.809-1.379-5.656-6.973-13.496-6.07-.363.347 5.133 1.082 9.82 1.515 13.601.664 5.883.586 9.563-2.843 9.282C7.875 455.496-2.102 437.215-3.371 432c-1.274-5.21 2.629-23.195 2.629-23.195s8.238-17.196 19.035-8.782c10.793 8.418 11.594 38.145 9.879 40.536M200.645 431.863c-1.223 5.227-11.04 23.59-16.672 24.11-3.536.324-3.543-3.582-2.868-9.786.403-3.683 1.047-8.18 1.336-13.074.782-13.14-4.738-5.254-6.066.414-.41 1.723-1.074 3.293-1.86 4.563-1.769 2.883-4.128 4.265-5.331 2.61-1.743-2.384-1.211-32.114 9.515-40.626 10.723-8.512 19.11 8.617 19.11 8.617s4.058 17.946 2.836 23.172"/><path fill="#1c6e72" d="M166.625 455.25v.008c-8.324 16.379-46.703 6.652-60.867 2.398-3.172-.953-5.133-1.629-5.27-1.676-.836-9.562-1.336-7.96-1.445-15.59a247.422 247.422 0 0 1-.027-3.722c0 1.445-.008 2.668-.02 3.715-.105 7.394-.586 6.14-1.367 14.703-.012.14-.027.277-.04.414-.01.172-.026.336-.038.5a41.655 41.655 0 0 1-3.969 2.195c-26.45 12.903-62.297-2.215-62.297-2.215l-.004-.007c-3.918-31.82 1.957-72.63 5.637-93.313.969-5.469 1.781-9.527 2.23-11.648.223-1.086.348-1.657.348-1.657l10.215-.789 14.676-1.125 26.683.555 15.668.32 45.91.961 3.563.078s.312 1.29.832 3.63c.5 2.234 1.2 5.44 1.984 9.406 4.09 20.449 10.828 61.011 7.598 92.859"/><path fill="#015d61" d="M157.043 352.984c-1.129-1.55-2.648-2.734-4.395-3.707l-45.91-.96-15.668-.32-26.683-.556-14.676 1.125c-3.492.961-7.008 1.813-10.563 2.446-.449 2.12-1.261 6.18-2.23 11.648.125.434.266.86.402 1.293 1.578 4.89 3.094 9.887 6.875 13.547 3.63 3.512 7.578 6.785 11.5 9.95 3.907 3.148 7.97 6.109 12.32 8.6 4.133 2.376 8.547 4.305 13.176 5.497 4.95 1.262 10.121 1.668 15.207 2.012 10.372.71 21.02.402 30.91-3.118 9.087-3.218 16.31-9.109 21.75-17.015 2.735-3.977 5.102-8.246 7.192-12.59 1.273-2.66 2.387-5.52 2.777-8.445l-1.984-9.407"/><path fill="#f8c09d" d="M150.375 300.477a.52.52 0 0 0 .043.117c22.3 56.437-2.004 78.36-2.004 78.36a2.94 2.94 0 0 1-.133.198c-18.59 28.352-46.215 17.715-46.215 17.715-27.468 7.738-50.53-17.07-50.53-17.07a40.571 40.571 0 0 1-2.134-1.692c-28.406-24.195-4.832-78.332-4.832-78.332a1.198 1.198 0 0 1-.093-.113c-26.32-29.644-11.664-73.238-11.664-73.238 7.851-6.399 41.117-20.852 41.117-20.852h36.879l53.953 21.73c30.52 61.915-14.387 73.177-14.387 73.177M73.355 183.004c-.62-1.82-2.207-3.2-4.12-3.379-1.563-.145-3.16.512-3.305 3.707-.297 6.398 2.32 18.313 6.394 11.05 2.582-4.612 1.887-8.878 1.031-11.378M119.082 178.836s6.106-3.774 6.395 2.625c.296 6.394-2.329 18.312-6.395 11.043-4.07-7.266 0-13.668 0-13.668"/><path fill="#8c5649" d="m101.605 395.219-.25-7.004.422-.012.243 6.992-.415.024M74.473 548.105c-6.375 0-12.375-3.253-12.465-3.304l.203-.371c.129.074 13.414 7.273 21.223.035l.28.308c-2.694 2.497-6.01 3.332-9.241 3.332M130.254 547.48c-8.352 0-15.234-5.304-15.324-5.375l.254-.328c.125.098 12.351 9.504 23.859 2.98l.21.372c-3.03 1.715-6.105 2.351-9 2.351M99.555 372.426c-.422 2.59-.114 3.55.23 3.894.172.168.395.227.684.196.172-.172.855-.868.797-1.793-.063-.797-.633-1.567-1.711-2.297zm.757 4.515c-.332 0-.605-.109-.824-.328-.625-.625-.73-2.101-.308-4.508.406-2.32 1.172-4.687 1.183-4.714l.395.132c-.008.028-.715 2.23-1.125 4.45 1.297.843 1.984 1.757 2.047 2.73.082 1.266-.942 2.137-.98 2.168l-.048.04-.05.007c-.106.02-.2.023-.29.023M28.348 324.738c-8.243 0-12.309-4.39-12.348-4.437l.309-.281c.039.043 4.132 4.437 12.433 4.296l.008.422h-.402M171.332 327.793l-.039-.418c.078-.008 7.945-.738 10.39-3.004l.286.309c-2.547 2.367-10.309 3.082-10.637 3.113M15.055 455.883c-6.235-3.176-7.477-24.778-7.52-25.695l.418-.02c.016.223 1.27 22.277 7.29 25.34l-.188.375M6.09 449.973c-3.426-6.02-3.742-18.043-3.742-18.168l.422-.008c0 .117.308 12.035 3.68 17.965l-.36.21M184.11 456.133l-.278-.317c5.379-4.863 5.352-26.425 5.352-26.64h.421c.004.887.024 21.969-5.496 26.957M192.422 448.414l-.332-.254c3.64-4.598 2.988-18.836 2.984-18.98l.418-.02c.028.594.664 14.543-3.07 19.254M199.652 435.273h-.418v-5.097h.418v5.097"/><g clip-path="url(#b)"><path fill="#f8c09d" d="M162.79 673.992c-8.106 0-29.907 2.38-32.106 0-.461-.496-1.164-3.32-1.672-7.41-.953-7.742-1.196-20.027 2.328-29.605.34-.934.715-1.84 1.137-2.707 3.988-8.383 11.515-13.793 25.039-10.336 0 0 .047.968.16 2.57.472 6.91 2.015 25.59 5.113 29.844 3.813 5.246 8.102 17.644 0 17.644"/></g><path fill="#8c5649" d="M140.422 668.898c-.328-1.285-1.762-2.195-1.774-2.203-4.351-2.945-8.898 1.617-8.945 1.664l-.3-.289c.05-.054 4.835-4.867 9.476-1.73.059.039 1.582 1.012 1.95 2.453l-.407.105M141.125 668.602l-.281-.317c.039-.031 3.832-3.32 7.02.012l-.305.289c-2.903-3.035-6.293-.11-6.434.016M148.594 668.457l-.239-.344c.032-.023 3.813-2.59 6.704.016l-.274.312c-2.652-2.379-6.16-.004-6.191.016M155.902 668.363l-.277-.316c.031-.024 3.215-2.785 6.21-.149l-.276.317c-2.72-2.387-5.54.043-5.657.148M162.547 668.516l-.39-.153c1.038-2.656 4.534-1.617 4.57-1.601l-.125.398c-.125-.039-3.157-.933-4.055 1.356"/><g clip-path="url(#c)"><path fill="#f8c09d" d="M69.375 668.543c-.46 3.016-1.012 5.035-1.395 5.45-2.207 2.378-24.003 0-32.105 0-8.105 0-3.813-12.4 0-17.645 3.18-4.371 4.719-23.993 5.145-30.387.085-1.281.125-2.027.125-2.027 12.437-3.18 19.796 1.132 24.003 8.37.29.493.567.997.82 1.512 5.313 10.668 4.68 26.442 3.407 34.727"/></g><path fill="#8c5649" d="m58.66 668.898-.406-.105c.367-1.441 1.89-2.414 1.957-2.453 4.637-3.137 9.418 1.676 9.473 1.73l-.305.29c-.043-.048-4.594-4.61-8.938-1.673-.02.016-1.457.934-1.78 2.211M57.54 668.602c-.142-.125-3.532-3.051-6.438-.016l-.301-.29c3.18-3.331 6.98-.042 7.02-.01l-.282.316M50.07 668.457c-.039-.02-3.543-2.394-6.191-.016l-.274-.312c2.891-2.598 6.665-.04 6.704-.016l-.239.344M42.762 668.363c-.117-.105-2.938-2.535-5.66-.148l-.274-.317c2.996-2.636 6.176.125 6.211.149l-.277.316M36.117 668.516c-.898-2.293-4.023-1.36-4.054-1.356l-.126-.398c.032-.016 3.532-1.055 4.567 1.601l-.387.153"/><path fill="#333" d="m121.54 159.973-.302-.29c.32-.335.5-1.788.051-3.398-.32-1.164-1.195-3.203-3.504-3.828-3.27-.887-3.652-3.035-4.125-5.766-.144-.84-.308-1.793-.578-2.793-1.066-3.988-8.676-3.488-8.754-3.488l-.027-.422c.328-.02 8.039-.52 9.187 3.805.27 1.016.442 1.98.586 2.828.485 2.781.801 4.613 3.824 5.43 2.504.683 3.457 2.87 3.801 4.12.426 1.56.352 3.267-.16 3.802M69.297 165.297c-.18-1.98 1.246-4.504 2.734-6.129 1.293-1.41 2.672-2.227 3.778-2.227 2.59 0 7.3-3.937 8.359-6.054 1.195-2.387 6.758-.196 6.992-.098l-.156.387c-.05-.02-5.434-2.14-6.461-.098-1.125 2.254-5.961 6.285-8.734 6.285-.985 0-2.254.762-3.47 2.09-1.683 1.84-2.76 4.23-2.624 5.809l-.418.035M69.645 153.129l-.415-.066c.028-.172.707-4.188 2.47-5.364.456-.3.94-.394 1.448-.277 2.457.566 4.594-.559 8.16-4.297 3.544-3.707 9.618-2.605 9.872-2.559l-.078.414c-.067-.011-6.106-1.105-9.485 2.434-3.691 3.871-5.933 5.027-8.562 4.418-.403-.094-.762-.02-1.125.215-1.602 1.078-2.282 5.043-2.285 5.082M119.883 165.309l-.13-.61c-.671-3.215-.98-4.687-4.515-5.601-4.136-1.067-5.797-3.996-5.66-5.739.106-1.308-3.805-2.722-5.324-3.156l.117-.402c.594.172 5.774 1.71 5.629 3.59-.133 1.59 1.445 4.293 5.344 5.3 3.785.977 4.152 2.735 4.824 5.914l.129.614-.414.09"/><path fill="#f5a77e" d="M43.55 298.262c-.046.136-.093.273-.136.414-5.207 15.375-9.762 26.96-9.762 26.96s-5.078 51.63-13.175 77.22c-.594-.965-.68-2.27-.704-3.34-.062-2.254 0-4.508.137-6.758.297-4.832.985-9.63 1.852-14.387 1.742-9.578 4.215-19.012 5.793-28.621.793-4.86 1.36-9.754 1.457-14.684.027-1.285.02-2.566-.02-3.847-.027-.781-.441-2.621-.164-3.266.375-.863 1.137-1.578 1.5-2.504.438-1.117.707-2.316 1.02-3.472 1.359-5.047 2.949-10.098 3.996-15.223 1.054-5.18.32-10.059-1.395-15-2.906-8.367-7.906-17.422-4.101-26.348a.46.46 0 0 1 .23-.215.377.377 0 0 1 .156-.199c.008-.004.008-.004.016-.004h.406c0 .254-.156 24.746 12.895 33.274"/><path fill="#8c5649" d="m45.09 299.16-.192.375a16.317 16.317 0 0 1-1.484-.86c-13.246-8.546-13.18-33.077-13.18-33.683v-.004h.422c0 .254-.156 24.746 12.895 33.274.492.328 1.004.629 1.539.898"/><path fill="#f5a77e" d="M49.402 378.105c-28.406-24.195-4.832-78.332-4.832-78.332a1.198 1.198 0 0 1-.093-.113c.164-.008.324-.02.488-.027.172-.004.543.082.48.344-3.558 14.68-6.238 29.777-5.304 44.933.379 6.266 2.199 12.274 3.957 18.309.87 3.015 2.507 6.074 3.785 8.953.71 1.601 4.074 7.453 4.91 8.996.184.352-3.578-3.43-3.39-3.063M88.453 293.844c-2.531 4.265-8.484 5.39-12.945 6.422-5.274 1.222-10.649 1.894-16.004 2.57-.285.031-.508.238-.54.402-.327 0-.663.125-.972.332-.187.133-.308.403.012.461 6.547 1.219 13.262 1.125 19.75-.386 5.062-1.176 11.605-3.668 11.71-9.848.009-.461-.866-.195-1.01.047"/><path fill="#8c5649" d="m65.07 302.27-.047-.418c.196-.024 20.067-2.223 23.727-7.961l.355.23c-3.773 5.902-23.214 8.063-24.035 8.149"/><path fill="#f5a77e" d="M133.105 304.848c-.476.539-3.69.316-4.316.3a25.73 25.73 0 0 1-4.305-.433c-2.925-.54-5.765-1.54-8.418-2.89-1.394-.712-7.761-4.782-10.82-8.29 4.238 1.059 7.98 3.965 12.27 5.352 2.703.87 5.476 1.523 8.203 2.324 1.488.441 2.965.914 4.398 1.508.77.32 3.766 1.261 2.988 2.129"/><path fill="#8c5649" d="M128.367 302.27c-7.531-1.188-21.762-8.004-21.898-8.079l.18-.375c.144.067 14.312 6.856 21.785 8.04l-.067.414"/><path fill="#f5a77e" d="M148.414 378.953a2.94 2.94 0 0 1-.133.2c.18-1.192 1.473-2.676 1.867-3.426 2.957-5.622 10.946-25.098-1.097-74.852-.09-.379.586-.57.828-.473.18.075.355.141.539.192 22.3 56.437-2.004 78.36-2.004 78.36"/><path fill="#8c5649" d="M114.71 398.984c-6.925 0-12.038-1.691-12.651-1.902-22.41 5.39-39.817-7.137-46.262-12.77-2.692-2.359-4.813-5.238-6.313-8.566l-4.683-10.445.379-.168 4.695 10.441c1.465 3.27 3.547 6.102 6.195 8.414 6.403 5.602 23.703 18.051 45.95 12.668l.058-.011.059.02c.074.022 7.308 2.612 16.57 1.702 8.531-.836 20.578-4.906 29.531-19.523.043-.067 3.688-5.102 4.785-11.418l.415.07c-1.118 6.422-4.813 11.531-4.852 11.582-9.04 14.758-21.223 18.867-29.86 19.707-1.386.14-2.734.2-4.015.2"/><path fill="#f5a77e" d="M175.86 400.324c-.02 1.098-.208 2.254-.66 3.203-8.02-24.632-13.044-74.097-13.044-74.097s-4.816-12.75-10.207-29.395c-.039-.133-.086-.27-.125-.402 14.5-6.942 10.496-28.508 9.418-33.246.266.488.508.98.746 1.48 3.547 7.54 4.086 16.328 1.551 24.305a32.155 32.155 0 0 1-2.61 6.035 31.13 31.13 0 0 1-1.75 2.75c-1.05 1.477-1.519 2.523-1.124 4.395 1.172 5.593 3.148 11.125 5.465 16.336 1.062 2.406 2.382 4.687 3.457 7.085.976 2.188.925 4.465 1.03 6.825.243 5.37.61 10.738 1.11 16.09 1.02 10.953 2.598 21.835 4.672 32.632 1.016 5.262 2.137 10.621 2.07 16.004"/><path fill="#8c5649" d="M162.98 280.336c-.48 9.723-4.285 16.492-11.03 19.7-.485.237-.985.448-1.505.636l-.144-.387c.527-.195 1.039-.414 1.523-.652 14.5-6.942 10.496-28.508 9.418-33.246a27.416 27.416 0 0 0-.222-.922l.402-.117c.008.027.258.964.566 2.52.54 2.753 1.235 7.452.992 12.468"/><path fill="#f5a77e" d="M26.563 441.258c-1.965-.285-4.61-3.54-5.649-7.809-1.379-5.656-6.973-13.496-6.07-.363.347 5.133 1.082 9.82 1.515 13.601-2.238-4.464-2.968-9.519-3.324-14.515-.144-2.05-.758-4.95.192-6.883.687-1.398 2.273-2.226 3.777-2.371 1.453-.145 3.101.387 3.793 1.773.59 1.192.375 2.848.566 4.149.192 1.32.485 2.617.88 3.883.933 2.984 2.636 5.3 4.089 7.996.09.183.172.36.23.539M183.61 435.61c-.153 2.445-.419 4.89-1.098 7.25-.317 1.093-.782 2.273-1.407 3.327.403-3.683 1.047-8.18 1.336-13.074.782-13.14-4.738-5.254-6.066.414-.41 1.723-1.074 3.293-1.86 4.563.407-1.461.684-2.953.82-4.477.231-2.55.138-5.324 1.88-7.398 1.933-2.305 6.305-2.344 6.722 1.219.31 2.609-.156 5.554-.328 8.175M83.688 544.176c-1.543 23.761-5.876 65.41-17.72 89.64 5.313 10.668 4.68 26.442 3.407 34.727a5.967 5.967 0 0 1-.27-.66c-.644-1.946-.335-4.086-.16-6.078a44.643 44.643 0 0 0-.144-9.5 45.195 45.195 0 0 0-2.055-9.043c-.789-2.309-1.894-4.512-2.05-6.957a7.8 7.8 0 0 1-.016-.957c.047-1.028.226-2.04.468-3.043.434-1.778 1.07-3.524 1.59-5.235.98-3.261 1.914-6.535 2.793-9.82a340.104 340.104 0 0 0 4.399-18.39 348.08 348.08 0 0 0 5.808-37.708c.305-3.082.559-6.164.778-9.254.117-1.597.214-3.203.312-4.804.043-.782-.101-2.176.043-3.188-.277-1.308.281-2.625.742-3.906a114.34 114.34 0 0 0 2.09-6.367c1.266-4.29 2.3-8.64 3.16-13.016 1.774-9.039 2.809-18.195 3.668-27.351.875-9.278 1.668-18.563 2.485-27.848.21-2.402.406-4.809.566-7.223A41.655 41.655 0 0 0 97.551 456c-3.09 35.477-2.024 71.578-13.864 88.176M132.402 639.285c-.175 1.727-.457 3.442-.675 5.145l-2.485 19.457c-.097.73-.086 1.742-.23 2.695-.953-7.742-1.196-20.027 2.328-29.605-11.535-26.102-15.813-72.344-17.293-95.946-14.734-12.047-12.98-55.465-13.559-85.05.137.046 2.098.722 5.27 1.675.133 8.598.265 17.192.402 25.79.278 17.167.692 35.074 7.98 50.96.872 1.926 2.419 4.926 1.266 6.996.364.457.625 1.024.79 1.715.742 3.063.843 6.414 1.113 9.551 1.109 12.863 2.324 25.687 4.226 38.465a459.13 459.13 0 0 0 3.258 19.273c1.156 6.074 2.687 11.871 5.45 17.426 1.03 2.07 1.945 4.14 2.234 6.438.027.242.05.492.066.75.086 1.41.012 2.84-.14 4.265"/><path fill="#015d61" d="M104.512 440.152c.582 1.07.86 2.301.972 3.563.223 2.582.137 5.21.176 7.8.035 2.048.067 4.098.098 6.141-3.172-.953-5.133-1.629-5.27-1.676-.097-5.054-.422-10.242-.734-15.53-.246-.02-.48-.036-.711-.06-.016 0-.035 0-.047-.007-.137-.016-.277-.028-.414-.04-.23 5.028-.55 9.958-.953 14.743-.012.14-.027.277-.04.414-.01.172-.026.336-.038.5a41.655 41.655 0 0 1-3.969 2.195c.414-6.382.52-12.777-.316-19.129-9.582-3.464-16.36-12.12-16.454-12.23l.325-.246c.008 0 .011-.004.02-.004.23-.086.491-.121.616-.016 5.875 4.91 13.2 7.875 20.836 8.535 6.895.598 16.258-.449 21.485-5.68a12.698 12.698 0 0 0 1.472-1.75c.067-.093.375-.222.63-.26-5.387 7.308-11.329 11.581-17.684 12.737"/><path fill="#f5a77e" d="M118.754 207.016c-.988 2.898-4.016 5.359-6.402 7.101a28.218 28.218 0 0 1-9.13 4.383c-6.507 1.793-13.558 1.066-19.593-1.945-4.738-2.36-9.883-6.672-10.895-12.082a8.523 8.523 0 0 1-.144-1.059c.398.75 8.226 14.633 25.406 13.008 15.8-1.492 19.844-10.774 20.516-12.711.101.156.187.32.261.5.329.762.36 1.707-.02 2.805"/><path fill="#8c5649" d="M119.035 203.469c-.008.011-.078.289-.262.742-1.027 2.594-5.543 11.2-20.742 12.625-.96.094-1.894.14-2.793.14-13.441 0-20.586-9.492-22.504-12.503-.355-.547-.527-.875-.539-.895l.375-.195c0 .004.004.012.02.031.398.75 8.226 14.633 25.406 13.008 15.8-1.492 19.844-10.774 20.516-12.711.078-.211.11-.344.11-.348l.413.106"/><path fill="#f5a77e" d="M114.71 225.535c-2.577 1.246-5.335 2.149-8.108 2.774a41.39 41.39 0 0 1-16.926.27 39.934 39.934 0 0 1-8.188-2.52c-1.656-.711-4.715-1.934-4.156-4.192.008-.027.02-.066.027-.094-.105-.039-.203-.066-.308-.105-.192-.066-.067-.203.144-.316 1.754.777 21.442 9.136 40.008.207.004.011.012.02.02.03.058.118.105.243.136.36.528 1.684-1.386 2.98-2.648 3.586"/><path fill="#8c5649" d="m117.93 221.676-.57.273c-6.415 3.086-12.962 4.117-18.864 4.117-10.629 0-19.172-3.351-21.164-4.199-.27-.113-.418-.187-.437-.191l.175-.383c.012.008.055.027.125.059 1.754.777 21.442 9.136 40.008.207.184-.082.367-.172.543-.266l.184.383"/><path fill="#333" d="M122.625 426.828c-.14.195-.285.395-.43.586-6.3 8.543-13.351 12.934-20.945 13.066h-.336c-13.418 0-23.988-13.507-24.102-13.644l.325-.246.011-.012.008.008c.25.32 10.64 13.473 23.758 13.473h.328c6.758-.118 13.094-3.688 18.852-10.633a51.218 51.218 0 0 0 2.187-2.84l.344.242"/><path fill="#8c5649" d="M103.648 204.07c-1.367-2.707-4.332-3.09-7.085-3.093-2.774-.008-5.657.316-7.305 2.812-.39.586.523 1.156.906.578 1.426-2.156 4-2.32 6.356-2.312 2.34.004 4.992.183 6.183 2.53.309.618 1.262.11.945-.515M114.988 177.633a35.474 35.474 0 0 0-10.906-3.653c-.687-.113-.809.958-.125 1.07 3.742.61 7.29 1.821 10.64 3.59.614.32 1-.683.391-1.007M109.367 180.617c-.047-.629-.125-1.601-.828-1.87-1.543-1.282-1.953 2.784-1.898 3.542.058.695.117 1.984.78 2.406.657.418 1.274-.187 1.524-.757.434-.985.5-2.262.422-3.32M86.18 180.617c-.047-.629-.125-1.601-.828-1.87-1.543-1.282-1.957 2.784-1.899 3.542.05.695.117 1.984.781 2.406.653.418 1.274-.187 1.524-.757.433-.985.5-2.262.422-3.32M77.438 177.633a35.462 35.462 0 0 1 10.91-3.653c.683-.113.804.958.12 1.07-3.741.61-7.288 1.821-10.636 3.59-.61.32-1-.683-.394-1.007M95.012 195.79c-1.2-1.407-3.219-1.77-2.543-4.196.402-1.426 1.261-2.735 1.683-4.164.762-2.586.73-5.254-.625-7.633-.34-.598-1.273-.059-.933.547 2.11 3.691.324 7.148-1.051 10.687-.402 1.031-.606 2.14 0 3.133.637 1.047 1.926 1.473 2.707 2.387.453.527 1.21-.235.762-.762M99.102 195.172a.54.54 0 0 0-.735-.192c-.305.18-.601.356-.902.532a.557.557 0 0 0-.192.746c.145.246.489.34.739.187l.898-.539a.538.538 0 0 0 .192-.734M124.352 182.582c-.051-1.031-.473-2.05-1.555-2.312-.227-.051-.324.296-.102.347 1.59.383 1.301 2.375 1.23 3.61-.077 1.289-.152 2.582-.23 3.87-.011.239.348.231.364 0 .105-1.812.379-3.699.293-5.515M68.316 192.113a19.065 19.065 0 0 1-.578-8.523c.04-.23-.308-.324-.343-.098a19.392 19.392 0 0 0 .574 8.723c.07.215.414.125.347-.102M70.484 184.516c-.136-.176-.445 0-.308.183.953 1.262.965 2.801.777 4.305-.094.738-.23 1.46-.355 2.191-.067.375-.133.75-.192 1.118l-.113.636c-.004.348-.23.531-.676.551-.058-.223-.402-.129-.34.094.11.433.598.597.965.32.309-.226.36-.676.426-1.023.125-.692.238-1.387.355-2.078.364-2.083.848-4.47-.539-6.297M123.02 190.473c-.454.703-1.06.543-1.239-.2-.09-.367-.07-.773-.058-1.148.027-.66.078-1.316-.059-1.965-.191-.894-.559-1.71-.668-2.625a8.3 8.3 0 0 1 .215-3.07c.059-.223-.29-.32-.348-.09-.289 1.164-.367 2.352-.18 3.547.114.7.364 1.336.555 2.012.184.652.164 1.27.137 1.933-.027.762-.105 1.781.48 2.387.508.512 1.168-.133 1.473-.598.125-.199-.191-.383-.308-.183"/><path fill="#f8c09d" d="M793.547 244.676c-5.258 25.234-11 39.996-16.227 50.883a245.228 245.228 0 0 1-3.18 6.343c-2.925 5.625-5.593 10.38-7.804 15.618-1.59 10.19-2.133 21.253-2.266 30.75-.066 4.964-.02 9.507.059 13.257.105 5.688.277 9.578.2 10.465-.54 5.88-.974 7.79-.974 7.79-3.918 10.753-13.777 21.878-23.918 30.316-10.14 8.441-19.312 14.191-19.316 14.199-.422.039-.844.078-1.262.094-.39.023-.777.039-1.156.039-.476 0-.95-.02-1.414-.055-25.574-1.563-43.406-45.078-43.406-45.078-.664-2.149-.024-4.285-.61-6.402h-.007c-.551-1.985-.422-8.606-.5-16.676-.004-.645-.012-1.309-.02-1.973-.031-2.57-.09-5.254-.21-7.96a81.268 81.268 0 0 0-.09-1.927c-.016-.289-.028-.578-.048-.875a31.675 31.675 0 0 0-.05-.859 16.611 16.611 0 0 0-.028-.453c-.015-.258-.035-.508-.054-.766a19.566 19.566 0 0 0-.043-.664c-.02-.242-.035-.476-.055-.715-.008-.093-.012-.175-.02-.261l-.058-.7c-.028-.375-.067-.746-.098-1.109-.074-.738-.144-1.453-.222-2.176a34.657 34.657 0 0 0-.086-.703c-.008-.074-.016-.144-.02-.219-.035-.25-.066-.492-.101-.734a100.88 100.88 0 0 0-.34-2.395c0-.003-.008-.011-.008-.02-.04-.241-.078-.483-.117-.726a63.725 63.725 0 0 0-.606-3.09c-.05-.23-.105-.46-.156-.69-.125-.52-.258-1.04-.395-1.532-.054-.2-.113-.395-.164-.586l-.238-.781c-.059-.18-.117-.348-.172-.52-.07-.21-.144-.426-.222-.633a7.96 7.96 0 0 0-.23-.601 23.67 23.67 0 0 0-.466-1.14 64.465 64.465 0 0 1-.27-.571c-.085-.184-.179-.356-.269-.531-1.55-2.954-3.707-8.403-6.105-15.075a607.332 607.332 0 0 1-3.946-11.398c-7.148-21.297-14.734-46.934-14.886-49.082.027-.027.054-.05.078-.078l.008-.008c7.336-9.309 40.964-7.02 64.238-31.176 5.594-5.812 6.574-2.98 8.027-1.578 29.285 28.047 71.047 21.488 79.223 32.762"/><path fill="#f8c09d" d="M734.277 202.953v52.988H694.7v-52.988h39.578"/><path fill="#f8c09d" d="M734.277 202.953v52.988H694.7v-52.988h39.578"/><path fill="#f5a77e" d="M734.277 202.953v10.461a22.305 22.305 0 0 1-2.136 1.977c-5.684 4.632-13.145 6.632-20.38 5.504-6.46-1.016-12.437-4.262-17.062-8.856v-5.324c.504-.461 1.012-.906 1.524-1.356.965-.855 1.965-1.675 3.043-2.406h35.011"/><path fill="#f8c09d" d="M739.813 186.559c-1.27 21.699-10.391 31.496-25.872 31.171-15.746-2.667-23.054-8.234-25.867-31.171 0-18.133 10.942-32.844 25.867-32.844 14.934 0 25.871 14.71 25.871 32.844M661.469 301.895c-.016.039-.02.085-.035.125a94.514 94.514 0 0 0-.63 3.214c-2.48 14.344.317 23.664-6 41.414-.015.184-.019.372-.027.57-.011.204-.02.423-.035.645a30.41 30.41 0 0 0-.031.625c-.008.196-.012.395-.02.598-.03.715-.058 1.484-.086 2.312-.011.239-.02.473-.027.72-.012.339-.02.687-.031 1.05l-.04 1.215v.055c-.01.406-.027.82-.038 1.253-.008.223-.016.446-.02.676a2127.688 2127.688 0 0 1-.348 10.703c-.519 14.47-1.488 32.504-3.898 44.625-2.77 13.88-7.433 20.012-15.531 4.196-18.5-66.426-3.324-69.825-4.621-75.817-.465-2.129-2.262-11.976-2.117-24.46.086-6.844.75-14.481 2.539-22.079a49.737 49.737 0 0 1-.758-2.832c-3.766-16.039.816-33.113 7.953-41.07 1.531-1.703 2.894-3.395 4.305-4.88.027-.026.054-.05.078-.077l.008-.008c3.957-4.102 25.671 28.969 19.41 57.227M716.29 424.305v.07c0 11.984-.43 23.547-1.196 34.406-.16 2.254-.305 4.438-.442 6.547-.125 2.043-.242 4.008-.355 5.914-1.203 20.348-1.649 45.004-5.227 56.617-.543 1.762-1.156 3.223-1.851 4.32-.117.184-.23.356-.356.532-2.898 4.258-7.191 6.988-13.734 8.73-9.567 2.551-13.563.301-18.031-11.898-.52-1.422-1.051-2.977-1.59-4.68v-.008c-2.305-7.21-9.477-54.773-10.2-60.199-.269-1.926-.492-3.898-.699-5.902-2.898-29.04 2.02-65.45 4.102-87.445.008-.07.016-.145.027-.215.895-9.528 2.578-17.88 4.797-24.809a69.886 69.886 0 0 1 1.856-5.14c9.738-24.215 26.789-25.707 36.449 9.636 1.664 6.055 3.023 13.727 3.972 23.297.157 1.55.31 3.11.446 4.66a510.375 510.375 0 0 1 2.031 45.567"/><g clip-path="url(#d)"><path fill="#f8c09d" d="M709.98 673.992c-2.21 2.38-24.003 0-32.109 0-8.101 0-3.816-12.398 0-17.637 3.149-4.332 7.27-23.617 8.61-30.203.292-1.394.449-2.218.449-2.218 8.683-3.297 14.398.18 18.101 6.574.348.605.676 1.238.992 1.887 2.707 5.648 4.125 12.996 4.766 19.945.984 10.832.078 20.7-.809 21.652"/></g><path fill="#f8c09d" d="M772.535 458.742a168.312 168.312 0 0 1-1.07 8.504c-.676 4.453-7.528 50.387-9.828 57.598-.13.406-.254.808-.38 1.195-5.007 15.25-8.827 18.168-19.245 15.395-5.489-1.461-9.39-3.621-12.219-6.786a19.456 19.456 0 0 1-1.633-2.12c-.082-.118-.16-.243-.238-.364-5.29-8.34-5.684-37.422-7.05-60.703-.102-1.55-.192-3.14-.298-4.774-.16-2.535-.328-5.171-.527-7.917-.77-10.856-1.188-22.403-1.188-34.38v-.1c0-14.716.625-30.087 2.036-45.657.132-1.524.285-3.043.433-4.574.961-9.57 2.317-17.235 3.977-23.297 9.289-33.977 26.125-30.809 35.879-9.867a64.776 64.776 0 0 1 2.886 7.375c2.157 6.554 3.68 14.218 4.317 22.632.093 1.215.191 2.477.312 3.782 1.918 22.242 6.59 56.457 3.836 84.058"/><path fill="#f8c09d" d="M751.285 627.453c-5.676 12.606-11.922 19.567-16.777 15.129a202.866 202.866 0 0 1-2.645-10.523 5.81 5.81 0 0 1-.062-.301c-7.41-33.262-8.453-73.938-3.64-99.23a92.87 92.87 0 0 1 1.003-4.7c4.64-19.379 13.348-27.004 25.816-9.598 2.56 1.907 4.63 4.563 6.278 7.81 11.527 22.78 2.043 74.745-9.973 101.413"/><g clip-path="url(#e)"><path fill="#f8c09d" d="M759.633 673.992c-8.102 0-29.899 2.38-32.113 0-.926-1-1.872-11.734-.665-23.14.008 0 .008 0 .008-.004.73-6.758 2.215-13.758 4.938-19.09.011-.028.023-.059.043-.086 3.664-7.117 9.531-11.227 18.734-7.738 0 0 .262 1.355.707 3.52 1.559 7.523 5.383 24.827 8.348 28.901 3.812 5.239 8.105 17.637 0 17.637"/></g><path fill="#f8c09d" d="M800.934 415.89c-8.739 17.063-13.579 7.856-16.352-9.23-3.422-21.098-3.71-54.21-4.324-64.805-6.703-20.57-2.504-23.632-6.117-39.953v-.007a44.662 44.662 0 0 1-.633-3.485c-3.89-27.422 16.254-57.691 20.039-53.734.027.027.055.05.078.078 1.414 1.484 2.773 3.176 4.305 4.879 7.015 7.828 11.57 19.746 8.808 39.254a97.08 97.08 0 0 1-.77 4.66c1.048 5.422 1.587 10.812 1.802 15.906.671 15.438-1.68 28.137-2.22 30.621-1.296 5.992 13.88 9.39-4.616 75.817M706.023 632.395c-.203.875-.402 1.75-.617 2.605a188.205 188.205 0 0 1-1.828 7c-4.941 4.527-11.332-2.79-17.098-15.848-11.183-25.367-20.02-72.414-11.382-96.609 1.836-5.133 4.457-9.25 8.011-11.898 11.504-16.06 19.805-10.805 24.668 5.332a75.11 75.11 0 0 1 1.293 4.882c5.84 25.098 5.024 69.203-3.047 104.536"/><path fill="#8c5649" d="M692.707 534.07c-6.324 0-11.11-2.707-11.18-2.746l.211-.367c.098.066 10.672 6.031 21.09 0l.211.367c-3.562 2.063-7.137 2.746-10.332 2.746M746.191 533.82c-5.597 0-9.398-2.468-9.457-2.504l.239-.347c.078.054 8.433 5.46 18.558-.012l.207.367c-3.472 1.88-6.738 2.496-9.547 2.496M709.855 243.023c-.02-.003-2.222-1.003-3.84-1.003H679.11v-.422h26.907c1.707 0 3.925 1.007 4.015 1.047l-.176.378M715.645 247.895c-1.973 0-3.266-1.149-3.286-1.16l.282-.317c.113.098 2.695 2.379 6.152-.016l.234.344c-1.242.86-2.398 1.149-3.382 1.149M755.598 244.07c-16.043-2.675-32.02-1.039-32.18-1.027l-.043-.418c.164-.016 16.191-1.652 32.297 1.031l-.074.414M715.414 218.48c-10.734 0-19.633-8.617-19.723-8.71l.293-.301c.094.097 9.848 9.543 21.16 8.511 6.407-.585 12.114-4.37 16.961-11.265l.344.242c-4.922 7-10.734 10.852-17.265 11.445-.598.051-1.192.078-1.77.078M717.55 281.906l-.183-9.812.418-.008.188 9.809-.422.011M718.379 364.941c-.422 2.59-.106 3.543.234 3.891.172.172.39.23.68.191.176-.164.855-.863.793-1.789-.05-.796-.621-1.562-1.707-2.293zm.754 4.516c-.328 0-.598-.113-.82-.328-.625-.625-.723-2.106-.301-4.516.406-2.32 1.168-4.687 1.176-4.707l.398.13c-.004.019-.723 2.222-1.129 4.452 1.297.832 1.984 1.746 2.05 2.719.087 1.277-.944 2.137-.984 2.176l-.039.035-.062.012c-.098.011-.195.027-.29.027M658.656 292.773c-2.61-1.863-3.531-19.91-3.57-20.675l.414-.02c.258 5.168 1.367 18.906 3.398 20.344l-.242.351M773.957 290.188l-.21-.368c3.273-1.812 4.237-17.59 4.25-17.746l.421.024c-.047.66-1 16.164-4.461 18.09M791.512 345.777c-6.817-2.988-10.918-.05-10.957-.023l-.25-.336c.172-.133 4.324-3.117 11.375-.027l-.168.386M654.64 346.777c-3.05-3.773-12.542-2.367-12.632-2.351l-.067-.422c.399-.059 9.82-1.453 13.028 2.512l-.328.261M718.2 353.277h-.419v-27.39h.418v27.39"/><g clip-path="url(#f)"><path fill="#f8c09d" d="M809.578 438.773c-1.223 5.223-11.035 23.598-16.676 24.118-3.41.308-3.535-3.34-2.93-9.192.395-3.793 1.098-8.512 1.4-13.68.788-13.14-4.731-5.246-6.06.415-.722 3.062-2.261 5.613-3.8 6.93-1.301 1.109-2.594 1.335-3.395.25-1.742-2.38-1.203-32.11 9.516-40.626 10.726-8.511 16.59 8.614 16.59 8.614s6.586 17.945 5.355 23.171"/></g><path fill="#8c5649" d="m793.047 463.04-.281-.31c5.375-4.863 5.355-26.43 5.355-26.648h.422c0 .895.02 21.969-5.496 26.957M801.355 455.328l-.328-.262c3.633-4.586 2.985-18.824 2.977-18.968l.422-.028c.027.598.664 14.547-3.07 19.258M808.586 442.184h-.422v-5.094h.422v5.094"/><path fill="#f8c09d" d="M656.27 448.863c-1.297 1.766-3.907.07-5.707-3.242a16.074 16.074 0 0 1-1.485-3.937c-1.328-5.66-6.855-13.547-6.074-.414.308 5.101.992 9.761 1.387 13.527.625 5.941.535 9.656-2.918 9.34-5.625-.52-15.446-18.89-16.668-24.11-1.227-5.226 5.36-23.172 5.36-23.172s5.866-17.128 16.585-8.617c10.723 8.512 11.254 38.242 9.52 40.625"/><path fill="#8c5649" d="M641.336 464.297c-5.516-4.996-5.496-26.07-5.488-26.965h.414c0 .219-.02 21.785 5.355 26.648l-.281.317M633.027 456.578c-3.738-4.71-3.101-18.66-3.066-19.254l.418.02c-.004.144-.656 14.383 2.976 18.98l-.328.254M626.219 443.434h-.422v-5.098h.422v5.098M737.715 670.39c-.32-1.285-1.754-2.202-1.77-2.21-4.347-2.938-8.898 1.617-8.949 1.664l-.297-.297c.047-.047 4.836-4.856 9.473-1.723.062.04 1.59 1.012 1.95 2.461l-.407.106M738.418 670.086l-.281-.316c.043-.032 3.836-3.317 7.02.015l-.305.29c-2.91-3.044-6.29-.114-6.434.01M745.89 669.95l-.242-.348c.04-.028 3.817-2.586 6.711.02l-.285.308c-2.648-2.38-6.152-.008-6.183.02M753.2 669.855l-.282-.316c.031-.031 3.21-2.793 6.215-.156l-.274.316c-2.73-2.394-5.543.051-5.66.156M759.844 670.008l-.395-.153c1.04-2.66 4.535-1.617 4.57-1.609l-.124.402c-.125-.035-3.157-.933-4.051 1.36M699.574 670.797l-.406-.106c.36-1.441 1.887-2.414 1.953-2.457 4.633-3.129 9.422 1.676 9.469 1.727l-.297.297c-.05-.047-4.598-4.61-8.945-1.672-.02.016-1.45.934-1.774 2.21M698.871 670.492c-.144-.125-3.527-3.047-6.441-.004l-.301-.297c3.187-3.324 6.98-.046 7.02-.007l-.278.308M691.398 670.355c-.03-.027-3.543-2.39-6.183-.011l-.285-.317c2.894-2.601 6.672-.039 6.71-.011l-.242.34M684.09 670.266c-.117-.106-2.938-2.54-5.66-.16l-.274-.317c2.996-2.629 6.184.133 6.215.16l-.281.317M677.445 670.414c-.894-2.293-3.922-1.39-4.054-1.351l-.118-.403c.032-.012 3.52-1.058 4.567 1.606l-.395.148M687.992 373.215c-3.683-2.055-11.058-16.899-11.367-17.531l.3-.149c.079.149 7.638 15.38 11.235 17.38l-.168.3M746.215 373.21l-.188-.284c5.653-3.758 14.743-17.281 14.836-17.41l.282.187c-.09.14-9.215 13.715-14.93 17.508M732.777 179.305a35.454 35.454 0 0 0-11.12-2.926c-.696-.066-.743 1.02-.052 1.086a34.2 34.2 0 0 1 10.852 2.87c.629.282.953-.75.32-1.03M727.086 182.664c-.043-.64-.125-1.605-.828-1.875-1.543-1.281-1.95 2.785-1.899 3.543.051.691.118 1.98.782 2.406.652.422 1.277-.183 1.527-.758.434-.984.496-2.265.418-3.316M712.734 197.832c-1.203-1.406-3.222-1.766-2.547-4.191.395-1.426 1.258-2.73 1.684-4.168.762-2.582.73-5.258-.625-7.633-.34-.606-1.281-.059-.933.547 2.113 3.687.316 7.152-1.051 10.68-.399 1.035-.606 2.152 0 3.144.636 1.043 1.922 1.465 2.707 2.387.449.523 1.21-.239.765-.766M716.82 197.215a.543.543 0 0 0-.734-.192c-.305.18-.598.356-.902.536a.556.556 0 0 0-.196.742c.149.25.485.34.735.191l.902-.539a.549.549 0 0 0 .195-.738M694.844 179.285a35.357 35.357 0 0 1 11.133-2.887c.691-.058.734 1.02.046 1.079a34.564 34.564 0 0 0-10.859 2.84c-.637.28-.945-.75-.32-1.032M700.96 185.98c.25.575.868 1.18 1.524.758.664-.425.727-1.715.786-2.406.05-.758-.356-4.824-1.903-3.543-.703.27-.781 1.234-.828 1.875-.078 1.05-.012 2.332.422 3.316"/><path fill="#fff" d="M706.113 201.21c3.29.75 9.735 1.653 17.602-.183.797-.183 1.422.692.98 1.383a10.802 10.802 0 0 1-2.437 2.653c-5.227 4.125-11.488 3.585-16.918-2.208-.055-.066-.102-.132-.153-.195-.519-.683.094-1.637.926-1.45"/><path fill="#f5a77e" d="M632.45 298.023c-.36 1.336-1.407 2.407-1.95 3.676-1.906 4.39-.914 9.492-2.566 13.914.086-6.843.75-14.48 2.539-22.078a49.737 49.737 0 0 1-.758-2.832c.586 1.168 1.164 2.344 1.75 3.516.59 1.187 1.351 2.43.984 3.804M807.77 309.453c-.59-.254-1.06-.973-1.426-1.746-.895-1.828-1.27-3.898-1.782-5.855-.316-1.223-.687-2.446-.953-3.684-.195-.887-.058-1.559.278-2.398.855-2.118 1.742-4.22 2.62-6.332.075-.184.153-.368.231-.551a97.08 97.08 0 0 1-.77 4.66c1.048 5.422 1.587 10.812 1.802 15.906"/><path fill="#8c5649" d="M633.613 298.805c-4.39-7.047-4.98-17.64-4.988-17.746l.422-.028c.004.106.59 10.606 4.922 17.551l-.356.223M802.133 298.84l-.305-.29c4.93-5.07 4.957-16.097 4.957-16.202l.422-.008c0 .46-.027 11.312-5.074 16.5"/><path fill="#f5a77e" d="m657.02 349.156-.239-.031c-.222-.031-.32.316-.097.348.078.007.156.02.234.035.23.031.332-.317.102-.352"/><path fill="#f5a77e" d="M673.39 341.145c-.124 2.793-.43 5.585-.835 8.363-.047 1.91-.395 3.863-.645 5.683-.047.344-.09.684-.144 1.028a95.581 95.581 0 0 1-1.657 8.57c-.539 2.227.04 12.61-3.035 6.633-.047.039-.125.031-.18 0-.058-.031-.12-.074-.183-.113.008-.07.016-.145.027-.215.895-9.528 2.578-17.88 4.797-24.809a81.268 81.268 0 0 0-.09-1.926c-.015-.289-.027-.578-.047-.875a31.675 31.675 0 0 0-.05-.859 16.611 16.611 0 0 0-.028-.453c-.015-.258-.035-.508-.054-.766a19.566 19.566 0 0 0-.043-.664c-.02-.242-.035-.476-.055-.715-.008-.093-.012-.175-.02-.261l-.058-.7c-.031-.375-.067-.746-.098-1.109-.074-.738-.144-1.453-.222-2.176a34.657 34.657 0 0 0-.086-.703c-.008-.074-.016-.144-.02-.219-.035-.25-.066-.492-.101-.734a100.88 100.88 0 0 0-.34-2.395c0-.003-.008-.011-.008-.02-.04-.241-.078-.483-.117-.726a63.725 63.725 0 0 0-.606-3.09c-.05-.23-.105-.46-.156-.69-.125-.52-.258-1.04-.395-1.532-.054-.2-.113-.395-.164-.586l-.238-.781c-.059-.18-.117-.348-.172-.52-.07-.21-.144-.422-.222-.633a7.96 7.96 0 0 0-.23-.601 23.67 23.67 0 0 0-.235-.594c-.075-.191-.153-.367-.23-.547a64.465 64.465 0 0 1-.27-.57c-.086-.184-.18-.356-.27-.531-1.55-2.954-3.707-8.403-6.105-15.075-2.48 14.344.316 23.664-6 41.414-.016.184-.02.372-.028.57-.011.204-.027.423-.035.645a30.41 30.41 0 0 0-.031.625c-.008.196-.012.399-.02.598-.03.715-.058 1.484-.086 2.312-.007.239-.011.473-.027.72-.012.339-.02.687-.031 1.05l-.04 1.215v.055c-.01.406-.027.828-.038 1.253-.008.223-.016.446-.02.676a2127.688 2127.688 0 0 1-.348 10.703c-.519 14.47-1.488 32.504-3.898 44.625-.324-.629-.43-1.425-.453-2.043-.078-2.261.313-4.62.484-6.875.743-9.8 1.485-19.601 2.23-29.402.196-2.691.302-5.426.563-8.14-.273-.938-.312-1.946-.34-2.91-.039-1.5-.054-2.993-.054-4.49.015-5.3.289-10.608 1.047-15.862.793-5.47 2.582-10.754 3.273-16.235.695-5.554.426-11.254.453-16.836.02-5.332.258-10.8-1.426-15.922-.066-.195.23-.312.329-.136.175.328.359.664.55.992 1.52 2.73 3.063 5.45 4.575 8.184 2.175 3.906 4.285 7.835 6.187 11.867 2.863 6.078 4.969 12.433 5.59 19.152a61.72 61.72 0 0 1 .18 8.106M650.563 445.621a16.074 16.074 0 0 1-1.485-3.937c-1.328-5.66-6.855-13.547-6.074-.414.308 5.101.992 9.761 1.387 13.527 0 0-.004-.008-.004-.012a39.361 39.361 0 0 1-2.293-15.078c.078-1.805.11-3.934 1.18-5.477.91-1.3 2.484-1.683 3.925-1.058 1.684.734 2.551 2.379 2.887 4.11.457 2.35.348 4.863.434 7.25.02.359.03.722.043 1.09M792.16 443.023c-.703 2.625-.77 5.293-1.308 7.934-.184.934-.457 1.875-.88 2.742.395-3.793 1.098-8.512 1.4-13.68.788-13.14-4.731-5.246-6.06.415-.722 3.062-2.261 5.613-3.8 6.93 1.039-2.04 1.742-4.227 2.386-6.434.684-2.356 1.172-5.043 2.473-7.16.79-1.274 2.098-2.313 3.66-1.84 1.856.543 2.82 2.593 3.07 4.363.329 2.3-.347 4.535-.94 6.73M784.734 405.434a8.03 8.03 0 0 1-.152 1.226c-3.422-21.098-3.71-54.21-4.324-64.805-6.703-20.57-2.504-23.632-6.117-39.953-2.926 5.625-5.594 10.38-7.805 15.618-1.59 10.19-2.133 21.253-2.266 30.75 2.157 6.554 3.68 14.218 4.317 22.632.093 1.215.191 2.477.312 3.782a3.747 3.747 0 0 1-.52-.133c-1.058-.375-1.468-1.281-1.702-2.301-.817-3.504-1.547-7.027-2.313-10.54-.016-.058-.02-.12-.035-.183-1.309-5.906-2.805-11.816-2.938-17.898a53.151 53.151 0 0 1-.007-2.734c.082-5.297.718-10.657 1.468-15.875.86-5.993 3.239-11.41 5.817-16.84a172.075 172.075 0 0 1 5.039-9.77 179.564 179.564 0 0 1 3.61-6.215c.089-.144.347-.093.339.09-.059 1.09-.105 2.176-.137 3.274a178.522 178.522 0 0 0 2.078 34.246c.86 5.43 2.313 10.8 2.446 16.324.058 2.832-.035 5.672.043 8.504.074 2.828.246 5.648.422 8.46.738 11.255 1.597 22.493 2.273 33.747.172 2.855.316 5.738.152 8.594M759.793 296.223a4.429 4.429 0 0 1-.363.57c-1 1.39-2.668 2.094-4.356 2.473-2.445.558-5.054.718-7.558.836-2.801.117-5.614-.079-8.368-.606a35.716 35.716 0 0 1-7.796-2.445c-.664-.29-1.774-.63-2.305-1.281a1.271 1.271 0 0 1-.277-.551c3.406 1.328 17.082 5.972 31.023 1.004M702.309 295.52c-.27.21-.54.402-.77.558-.273.192-.5.328-.59.375-2.281 1.125-4.949 1.559-7.453 1.895a43.135 43.135 0 0 1-15.066-.621 39.806 39.806 0 0 1-4.102-1.118c-.762-.242-1.988-.437-2.515-1.129a.983.983 0 0 1-.06-.093 1.246 1.246 0 0 1-.132-.293l.02-.145c.222.031 20.453 2.528 30.668.57"/><path fill="#8c5649" d="M704.68 295.363c-.91.293-1.97.532-3.14.715-2.759.442-6.114.606-9.571.606-9.082 0-18.848-1.125-20.215-1.297l-.156-.02.023-.273.02-.145c.222.031 20.453 2.528 30.668.57.82-.152 1.57-.34 2.242-.558l.129.402M761.04 296.21c-.54.212-1.08.4-1.61.583-4.52 1.539-8.992 2.094-13.098 2.094-8.039 0-14.637-2.125-17.285-3.117-.79-.297-1.223-.493-1.25-.5l.172-.387c.02.012.3.129.8.336 3.407 1.328 17.083 5.972 31.024 1.004.36-.125.727-.262 1.09-.407l.156.395"/><path fill="#f5a77e" d="M714.297 471.242c-1.203 20.348-1.649 45.004-5.227 56.617 5.84 25.098 5.024 69.203-3.047 104.536 2.707 5.648 4.125 12.996 4.766 19.945a5.271 5.271 0 0 1-.187.062c-.098.043-.184-.03-.223-.117-1.957-5.383-3.918-10.832-4.848-16.504-.047-.258-.082-.52-.125-.781-.218-1.5-.343-3-.375-4.492a32.03 32.03 0 0 1 1.082-9.223c.664-2.469 3.098-20.433 2.946-23-.145-2.426-.211-4.902.406-7.27.27-5.343.605-10.675.777-16.019.336-10.437.211-20.941-1.281-31.3-.383-2.61-.844-5.216-1.406-7.798-.23-1.058-.492-2.117-.692-3.187-.242-1.316-.383-2.649-.242-4.004.203-1.934.734-3.832 1.156-5.73a34.8 34.8 0 0 0 .29-1.383c.5-2.668.855-5.367 1.117-8.078.984-10.282.546-20.625.644-30.946.027-2.636.078-5.277.203-7.914.106-2.09.047-4.379.676-6.398.469-1.477 1.453-2.754 3.07-2.942.297-.035.594-.035.875.012-.125 2.043-.242 4.008-.355 5.914M731.863 633.816c-.11 1.536-.558 3.016-1.011 4.477-.504 1.66-1.012 3.324-1.516 4.973-.77 2.511-1.367 5.18-2.473 7.582.73-6.758 2.215-13.758 4.938-19.09-7.41-33.262-8.453-73.938-3.64-99.23-.083-.118-.161-.243-.24-.364-5.288-8.34-5.683-37.422-7.05-60.703-.101-1.55-.191-3.14-.297-4.774 1.098.66 1.867 1.797 2.215 3.083.36 1.316.348 2.703.3 4.058a182.713 182.713 0 0 0-.128 5.067c-.04 6.91.484 13.804 1.34 20.652.875 6.984 2.09 13.926 3.398 20.832.465 2.484 1.012 4.965 1.465 7.45.156.878.3 1.76.434 2.648.195 1.394.242 2.78.195 4.171-.059 1.954-.281 3.899-.445 5.86a408.705 408.705 0 0 0 1.512 83.164 429 429 0 0 0 .644 5.015c.133.993.27 1.985.34 2.985.008.125.02.258.02.387.034.586.034 1.171 0 1.757"/><path fill="#1c6e72" d="M772.535 458.742a168.312 168.312 0 0 1-1.07 8.504c-8.54 4.492-22.367 8.41-48.668 4.512-.64-.102-1.277-.2-1.926-.297-.246-3.957-.5-8.184-.824-12.691-.762-10.829-.492-5.004-1.188-13.707v-.067c-.39.027-2.105.02-2.57-.012-.008.047-.008.09-.016.13-.515 7.835-.414 2.866-1.18 13.667-.308 4.43-.573 8.578-.796 12.461-1.465.168-2.86.336-4.2.488-13.847 1.618-22.386 2.352-46.788-7.074-.27-1.926-.493-3.898-.7-5.902-2.726-27.336.586-61.317 3.551-83.461.2-1.453.387-2.852.578-4.2 1.512.544 3.367 1.157 5.528 1.802h.007c9.137 2.695 22.622 5.816 41.985 5.843 2.148.008 4.363-.027 6.637-.105 13.12-.453 26.843-2.356 43.433-6.64 1.34-.348 2.692-.716 4.059-1.09.12.847.238 1.71.363 2.6 3.023 22.075 6.594 57.157 3.785 85.24"/><path fill="#333" d="M713.254 384.582c-6.41 0-11.785-.355-16.125-.844-13.649-1.531-20.29-4.613-20.356-4.64l.18-.387c.067.035 6.664 3.098 20.254 4.613 12.543 1.403 33.777 1.738 63.707-4.625l.086.414c-19.652 4.172-35.57 5.469-47.746 5.469"/><path fill="#015d61" d="M768.75 373.504c-.191.121-.375.238-.547.351a30.652 30.652 0 0 1-4.586 2.47c-3.387 1.491-6.972 2.46-10.601 3.163-7.934 1.543-16.078 2.285-24.133 2.68a206.87 206.87 0 0 1-25.383-.293 205.687 205.687 0 0 1-24.871-3.336c-2.024-.394-4.043-.82-6.047-1.273-1.734-.395-3.496-.77-5.16-1.414a13.34 13.34 0 0 1-1.262-.559c.2-1.453.387-2.852.578-4.2 1.512.544 3.367 1.157 5.528 1.802h.007c9.137 2.695 22.622 5.816 41.985 5.843 2.148.008 4.363-.027 6.637-.105 13.12-.453 26.843-2.356 43.433-6.64 1.34-.348 2.692-.716 4.059-1.09.12.847.238 1.71.363 2.6M738.004 432.082c-6.25 8.531-13.223 12.93-20.723 13.047-.113.004-.222.004-.328.004-2.562 0-5.023-.496-7.316-1.313-.672-.652-2.594-.644-3.543-1.066-5.344-2.363-9.004-6.492-12.54-11.133-.238.242-.394-.113-.116-.402.039-.04.078-.059.117-.059.066 0 .133.04.172.09.039-.02.09-.02.144.027 3.043 2.13 6.27 4.012 9.692 5.477 5.976 2.57 12.574 3.86 19.054 2.93 5.785-.832 11.332-3.352 15.387-7.602"/><path fill="#015d61" d="M709.637 443.82c2.097.743 4.32 1.223 6.636 1.293-.515 7.836-.414 2.867-1.18 13.668-.308 4.43-.573 8.578-.796 12.461-1.465.168-2.86.336-4.2.488.301-3.32.52-6.644.645-9.976.13-3.645.156-7.293.07-10.942-.03-1.734.086-3.625-.28-5.335a3.302 3.302 0 0 0-.415-1.051 2.903 2.903 0 0 0-.48-.606M718.86 445.063c2.6-.184 4.062-.711 4.827-1.211-.433 1.683-.707 4.742-.714 5.386-.008.832-.012 1.66-.012 2.496-.063 6.68-.113 13.352-.164 20.024-.64-.102-1.277-.2-1.926-.297-.246-3.957-.5-8.184-.824-12.691-.762-10.829-.492-5.004-1.188-13.707M723.688 443.852c.152-.59.324-1.012.515-1.098.328-.145.473.46-.515 1.098"/><path fill="#333" d="M738.66 431.902c-.047.067-.09.137-.144.2-6.387 8.8-13.524 13.316-21.235 13.445-.105.008-.222.008-.328.008-2.379 0-4.676-.426-6.836-1.13-10.012-3.241-17.18-12.405-17.265-12.515l.336-.258c.085.114 6.886 8.809 16.449 12.168 2.293.817 4.754 1.313 7.316 1.313.106 0 .215 0 .328-.004 7.5-.117 14.473-4.516 20.723-13.047.113-.14.21-.277.316-.422l.106.07.144.106.09.066"/><path fill="#f5a77e" d="M735.125 167.07c-1.09-1.394-2.387-2.64-3.988-3.437-1.567-.781-3.293-1.164-4.996-1.54-1.907-.413-3.754-.952-5.606-1.577-1.8-.61-3.62-1.168-5.527-1.266-3.41-.191-6.633.945-9.434 2.832-2.62 1.762-4.863 4.008-7.242 6.074-1.234 1.07-2.516 2.102-3.898 2.989-1.305.835-2.825 1.382-4.047 2.355-1.164.918-1.649 2.242-1.38 3.707.34 1.852 1.571 3.352 2.22 5.094.336.914.472 1.86.21 2.8-.109-.027-.19.157-.078.243.426.328.809.883 1.332.46.391-.316.477-.886.54-1.347.226-1.559.257-3.14.374-4.715.122-1.629.305-3.277.868-4.824.226-.61.62-1.832 1.25-2.18.722-.41 1.886.645 2.62.832 2.712.703 5.274-1.32 6.93-3.226.973-1.11 1.86-2.313 2.938-3.324.383-.356 1.945-1.895 2.457-1.18.18.25.14.691.223.972.082.239.207.461.37.66 1.052 1.266 2.833.985 4.25.688 2.067-.433 4.122-.87 6.18-1.305.32 1.098 1.407 1.614 2.485 1.762 1.734.227 3.437-.707 5.16-.336 1.039.223 1.793.992 2.484 1.746a16.435 16.435 0 0 1 1.68 2.215 16.617 16.617 0 0 1 2.098 4.946c.172.703.16 1.562.468 2.222.184.399.582.645 1.024.5 1.277-.418 1.328-2.55 1.355-3.617.086-3.348-1.289-6.621-3.32-9.223"/><path fill="#8c5649" d="M692.36 175.117c.32-2.812 3.335-5.66 5.761-4.207.453.274.836.668 1.32.88 1.325.573 2.762-.438 3.829-1.415a95.197 95.197 0 0 0 8.87-9.273c.016 1.445.028 2.886.04 4.324 0 .41.015.847.27 1.172.284.367.796.464 1.257.511 3.52.368 7.168-.793 9.836-3.113a8.002 8.002 0 0 1 .27 3.332c1.94 1.207 4.406-.617 6.68-.422 1.991.164 3.542 1.895 4.245 3.766.696 1.867.75 3.906 1.04 5.879a24.445 24.445 0 0 0 2.07 6.894c.222.485.504 1 .992 1.223 1.41.637 2.363-1.512 2.437-3.063.34-7.683.692-15.37 1.04-23.058.03-.824.07-1.68-.223-2.453-.528-1.414-2-2.23-2.922-3.434-1.95-2.527-1.555-6.797-4.395-8.265-1.484-.77-3.359-.41-4.859-1.145-1.176-.574-1.938-1.73-2.898-2.617-2.332-2.168-5.762-2.723-8.938-2.496-3.168.215-6.262 1.101-9.437 1.398-3.051.281-6.387.086-8.887 1.875-.852.602-1.551 1.418-2.41 2.016-1.008.699-2.192 1.086-3.313 1.578-6.074 2.668-10.39 8.934-10.726 15.55-.106 2.048.136 4.083.242 6.122.324 5.988-3.64 15.75 2.984 19.36 8.55 4.667 5.356-6.891 5.824-10.919"/><path fill="#333" d="M738.45 157.742c-.013-.066-1.602-6.988-4.81-6.988-.066 0-.124 0-.19.008-3.997.328-6.434-1.196-8.419-5.27-.652-1.336-1.52-2.191-2.578-2.547-1.5-.5-2.887.192-2.898.2l-.192-.375c.059-.036 1.559-.778 3.223-.223 1.168.387 2.121 1.32 2.82 2.758 1.899 3.894 4.219 5.347 8.012 5.035.078-.004.148-.004.223-.004 3.543 0 5.152 7.012 5.222 7.316l-.414.09M738.996 168.707c-1.851-.773-3.137-3.55-4.273-6-.368-.785-.707-1.52-1.051-2.176-1.399-2.625-3.371-2.625-8.137-2.625-4.855 0-5.847-5.594-5.863-5.652l.414-.07c.039.214.953 5.304 5.45 5.304 4.796 0 6.987 0 8.503 2.844.356.664.7 1.406 1.066 2.195 1.106 2.38 2.352 5.082 4.055 5.786l-.164.394M685.902 162.605h-.418c0-1.457 1.743-5.085 3.47-5.53 1.472-.376 5.776-3.59 5.534-7.356-.047-.79.196-1.434.742-1.922 1.801-1.617 6.29-.848 6.48-.82l-.077.421c-.04-.015-4.469-.77-6.125.715-.45.403-.64.914-.598 1.578.254 3.989-4.3 7.387-5.851 7.79-1.54.402-3.157 3.804-3.157 5.124M688.23 174.656l-.316-.27c.02-.019 1.73-2.03.895-3.988-.461-1.085-1.137-5.058 9.523-10.57 4.824-2.5 6.106-4.387 6.328-5.535.16-.781-.187-1.195-.203-1.219l.316-.273c.02.02.489.562.309 1.543-.234 1.25-1.559 3.273-6.55 5.86-8.223 4.25-10.216 7.964-9.337 10.026.934 2.204-.886 4.34-.965 4.426"/><path fill="#f8c09d" d="M691.438 185.707c-.625-1.797-2.208-3.125-4.094-3.3-1.567-.145-3.16.511-3.305 3.706-.289 6.395 2.324 18.313 6.395 11.051 2.609-4.668 1.867-8.973 1.004-11.457"/><path fill="#8c5649" d="M689.895 186.332c-.41-.852-1.012-1.539-1.907-1.863-.16-.059-.222.191-.066.246.965.351 1.55 1.195 1.914 2.12.148.384.273.782.351 1.192.102.461.145.84-.167 1.235-.122.152-.278.261-.403.406-.422.516-.238 1.008.078 1.527.344.559.528 1.051.344 1.703-.184.625-.586 1.165-.992 1.649-.106.133.078.308.183.183.606-.734 1.301-1.687 1.13-2.699-.098-.574-.57-.949-.712-1.488-.175-.688.594-.938.805-1.496.3-.809-.21-1.992-.558-2.715M687.5 195.844a21.188 21.188 0 0 1-1.445-10.106c.02-.172-.235-.164-.25 0a21.37 21.37 0 0 0 1.445 10.176c.059.145.309.078.25-.07"/><path fill="#f8c09d" d="M737.195 181.625s6.106-3.781 6.395 2.61c.289 6.402-2.324 18.32-6.395 11.05-4.066-7.273 0-13.66 0-13.66"/><path fill="#8c5649" d="M740.691 182.773c-.742.461-1.222 1.165-1.504 1.985-.238.699-.574 1.887-.308 2.605.078.196.203.301.348.453.359.375.539.704.394 1.235-.156.613-.539 1.125-.664 1.762a3.948 3.948 0 0 0 .598 2.933c.086.137.308.012.218-.125-.62-.96-.816-2.144-.433-3.234.246-.711.89-1.54.472-2.32-.285-.512-.738-.56-.73-1.301.008-.477.09-.953.195-1.414.239-.954.684-1.829 1.547-2.36.137-.086.012-.308-.133-.219M742.04 184.563c-.032-.165-.278-.094-.25.066.55 3.168.218 6.414-.938 9.41-.063.152.183.227.242.066a17.838 17.838 0 0 0 .945-9.542"/><path fill="#a4c5c7" d="M462.297 587.441v-80.953L211.715 598.16l-.184-445.789 250.582 91.672v-80.95L610.5 375.478 462.297 587.44"/><path fill="#3d6414" d="M422.898 371.172s-8.3-3.719-15.296 3.496c-7 7.227-19.477 26.262-13.13 48.793 6.344 22.543 24.786 20.34 32.63 20.348 7.847.003-4.204-72.637-4.204-72.637"/><path fill="#519131" d="M424.504 370.902c-3.965-1.828-8.649-.859-11.727 2.235-6.734 6.789-17.718 23.27-7.367 52.738 14.223 40.477 54.258 3.281 33.258-15.758-18.211-16.504-2.867-34.004-14.164-39.215"/><path fill="#8cc155" d="M424.34 374.688c-3.55-1.637-7.742-.77-10.504 2-6.031 6.078-15.86 20.832-6.59 47.203 12.73 36.238 48.57 2.937 29.766-14.102-16.305-14.777-2.563-30.434-12.672-35.101"/><path fill="#bc3b2c" d="M424.379 401.164c-3.035-1.965-7.11-.176-7.836 3.367-1.516 7.453-4.027 26.371 9.875 25.434 13.418-.91 6.387-23.336-2.04-28.8"/><path fill="#333" d="M416.77 369.816c-6.055.809-10.348 5.899-13.653 10.606a58.35 58.35 0 0 0-8.332 17.45 58.062 58.062 0 0 0-1.992 10.714c-.035.316.46.305.484-.004a57.905 57.905 0 0 1 4.72-18.137c2.452-5.515 5.757-10.976 10.038-15.27 2.399-2.405 5.3-4.41 8.735-4.87.308-.04.308-.532 0-.489M405.305 439.41c-3.11-1.945-5.5-4.676-7.25-7.89-1.68-3.094-2.793-6.461-3.883-9.793-.098-.301-.57-.176-.473.125 1.13 3.464 2.285 6.953 4.063 10.148 1.765 3.188 4.199 5.89 7.293 7.828.265.168.515-.254.25-.418M424.715 404.5c-.2-.246-.54.098-.344.34 4.473 5.37 6.461 12.594 5.363 19.504-.043.3.422.433.473.133 1.133-7.094-.89-14.465-5.492-19.977M427.191 429.41a7.852 7.852 0 0 1-6.492-.492c-2.242-1.23-3.43-3.426-4.05-5.836-1.352-5.371-1.208-11.293-.044-16.676.485-2.258 1.524-5.332 4.18-5.687.3-.04.309-.531 0-.489-2.148.286-3.387 2.125-4.09 4.032-1.023 2.781-1.32 5.976-1.433 8.922-.11 3.128.105 6.308.765 9.363.54 2.492 1.582 4.89 3.746 6.371 2.18 1.504 5.051 1.894 7.543.965.297-.11.172-.578-.125-.473"/><path fill="#519131" d="M478.793 369.844c-.758-1.262-1.61-2.473-2.582-3.574-.805-.91-1.715-1.653-2.957-1.75-2.711-.211-4.688 1.984-6.957 3.03-1.188.544-2.68.794-3.89.165-1.196-.625-2.083-3.05-.376-3.723.125-.05.41-.437.145-.351-3.047.953-6.09 1.937-9.153 2.863-1.191.355-2.84.683-3.562-.656-.711-1.32.215-3.051.996-4.121.047-.075.125-.29-.05-.22-2.544.993-5.333 1.395-8.044 1.013-2.156-.301-5.468-1.84-4.398-4.594.75-1.934 3.37-2.715 5.191-3.14 2.938-.677 5.883-1.317 8.82-1.974.087-.019.387-.28.223-.363-1.062-.484-1.367-1.687-1.101-2.758.433-1.757 2.246-2.23 3.836-1.98 2.742.434 4.707 2.637 7.113 3.828.125.059.379-.2.348-.316-.383-1.262.32-2.543 1.5-3.09 1.023-.48 2.234-.238 3.18.316 2.398 1.387 2.995 4.285 3.35 6.82.02.133.243-.023.278-.05 1.14-.98 2.797-.903 4.102-.281 1.28.601 2.199 1.78 2.882 2.996 1.493 2.64 2.454 5.718 3.247 8.636a53.252 53.252 0 0 1 1.613 8.82c.031.325.058.66.062.989a1.68 1.68 0 0 1-.93.504 25.966 25.966 0 0 0-2.886-7.04"/><path fill="#8dc154" d="M492.688 353.89c-.055.06.011.106.07.114 1.23.187 1.894 1.348 2.02 2.504.136 1.293-.481 2.43-1.27 3.41-.86 1.066-1.89 1.973-2.754 3.039a18.145 18.145 0 0 0-2.098 3.336c-1.187 2.465-1.61 5.031-1.804 7.73-.16 2.211-.348 4.747-2.106 6.286a27.111 27.111 0 0 0-.933-2.012c.226-4.14-1.493-8.07-3.141-11.82-.965-2.188-1.953-4.383-2.621-6.684-.324-1.125-.598-2.285-.7-3.457-.042-.617-.038-1.254.172-1.848.348-.965 1.465-1.754 2.407-.965.097.086.55-.054.441-.18-1.683-1.925-2.781-4.296-3.11-6.835-.16-1.227-.152-2.531.317-3.7.602-1.53 2.207-2.75 3.89-2.058.087.04.512-.04.407-.195-1.664-2.473-3.531-5.41-2.496-8.516.484-1.457 1.668-2.719 3.305-2.629 1.273.067 2.464.828 2.761 2.117.032.145.477.02.473-.129-.035-.836-.02-1.699.223-2.511.32-1.051 1.242-1.992 2.437-1.547 1.742.66 2.524 2.734 2.965 4.37 1.137 4.169 1.07 8.595-.117 12.743-.047.164.414.043.472-.066.223-.469 1.032-.719 1.52-.555.207.066.398.184.57.336.387.328.625.809.774 1.289.297.953.304 2.02.199 3.004-.203 1.992-1.012 3.871-2.274 5.43"/><path fill="#3c6315" d="M522.04 344.668a60.15 60.15 0 0 1-5.352 3.656c-.247.156.093.262.25.188a4.529 4.529 0 0 1 3.425-.188c.348.125 1.028.29.848.723-.172.414-.676.836-.98 1.164-1.168 1.246-2.547 2.273-4.028 3.129-3.07 1.773-6.508 2.824-9.898 3.832-.203.058-.278.32.007.273a9.42 9.42 0 0 1 3.227.008c.414.074.82.176 1.223.309.086.027 1.472.441 1.453.699-.02.207-.863.723-.973.805-.238.171-.48.332-.73.48-.703.43-1.453.777-2.215 1.078-2.79 1.094-5.77 1.547-8.57 2.606-2.84 1.07-4.997 2.804-6.555 5.422-1.774 2.972-3.016 6.71-6.29 8.414a5.391 5.391 0 0 1-.788.32c1.152-3.922 2.3-7.848 3.453-11.766.601-2.054 1.187-4.113 1.805-6.164.285-.933.586-1.886 1.203-2.668.777-.98 2.215-1.535 3.285-.652.101.078.457.05.457-.125.004-5.488 4.008-10.61 9.383-11.82.078-.02.18-.07.203-.157 1-3.699 6.238-5.074 8.933-2.347.106.113.36.035.442-.078a7.57 7.57 0 0 1 4.324-3.207c1.602-.454 4.371-.594 5.527.886 1.578 2.004-1.742 4.157-3.07 5.18"/><path fill="#d85656" d="M487.395 373.895s-24.489-4.813-22.11 15.773c1.192 10.281 9.809 18.043 20.152 18.11h.395s2.168 10.027-7.488 13.034c0 0 13.008-1.386 13.133-13.152 0 0 17.726-7.012 15.375-20.351-1.079-6.098-5.903-10.852-11.989-12.036-3.09-.605-6.394-1.23-7.468-1.378"/><path fill="#333" d="M481.45 371.848c-1.532-5.442-5.122-10.227-9.993-13.118a22.214 22.214 0 0 0-8.34-2.906c-3.18-.441-6.25-.027-9.387.551-4.007.742-8.023 1.125-12.113.973-.312-.012-.312.472 0 .488a52.025 52.025 0 0 0 9.676-.54c3.215-.495 6.367-1.308 9.64-1.183 5.962.23 11.676 2.965 15.567 7.485a21.963 21.963 0 0 1 4.48 8.382c.079.297.555.172.47-.132M487.422 330.902c-.086-.293-.559-.168-.473.133 2.996 10.688-1.644 21.5-2.226 32.192-.16 2.949 0 5.906.66 8.793.074.308.547.175.476-.125-2.48-10.813 2.258-21.5 2.555-32.274.078-2.937-.203-5.879-.992-8.719M520.738 340.809a120.825 120.825 0 0 0-15.8 10.183c-4.727 3.594-9.66 7.344-12.41 12.738-1.485 2.926-2.47 6.067-3.438 9.184-.098.3.375.434.469.133.878-2.82 1.761-5.649 3.023-8.324 1.273-2.68 2.957-5.036 5.106-7.07 4.41-4.176 9.386-7.844 14.453-11.157a120.76 120.76 0 0 1 8.847-5.266c.278-.152.028-.57-.25-.421M473.398 385.758c-1.093-.031-2.175-.067-3.261-.098-.309-.008-.309.48 0 .492 1.086.028 2.168.059 3.261.094.309.004.309-.48 0-.488M478.852 392.215a3.92 3.92 0 0 1-2.637-.094c-.29-.117-.418.356-.13.465a4.275 4.275 0 0 0 2.892.094c.3-.094.175-.567-.125-.465M489.031 397.695c-1.031.078-2.062.157-3.094.239-.316.023-.316.515 0 .492 1.032-.078 2.063-.164 3.094-.246.309-.024.317-.512 0-.485M487.336 386.227a2.522 2.522 0 0 1-1.234.156c-.317-.04-.309.445 0 .484.464.063.925 0 1.359-.168.297-.113.164-.586-.125-.472M479.152 401.875a4.815 4.815 0 0 0-1.851-.348c-.317 0-.317.489 0 .489.597 0 1.168.109 1.722.332.297.113.418-.36.13-.473M485.293 407.574c-.309.02-.316.508 0 .488.547-.027.152 3.688.105 4.028-.191 1.242-.507 2.473-1.097 3.59-1.031 1.945-2.746 3.445-4.793 4.254-.29.109-.164.586.133.464 2.437-.953 4.449-2.84 5.46-5.27.598-1.448.864-3.05.942-4.608.031-.618.34-3.004-.75-2.946M490.934 374.398a25.046 25.046 0 0 0-14.403-.73c-4.094 1.016-8.722 3.117-10.504 7.21-.125.29.297.54.422.25 1.774-4.065 6.414-6.097 10.485-7.05a24.598 24.598 0 0 1 13.867.79c.297.105.426-.364.133-.47"/><path fill="#bdc3c7" d="M342.05 407.023c21.731 17.512 29.012 60.961 19.755 61.23a2.015 2.015 0 0 1-.43-.034c-5.816-.957-15.832-23.86-19.645-19.442a2.05 2.05 0 0 0-.48 1.157c-.309.058-.586.222-.84.511-1.797 2.086 1.84 6.582 5.828 11.246l6.164 14.504c-6.086.395-19.129-6.113-39.687-25.761-4.082-3.91-7.016-7.723-9.05-11.387a27.704 27.704 0 0 1-2.493-5.988v-.004c-6.285-22.36 20.8-42.207 40.879-26.032"/><path fill="#fb6e51" d="M340.719 410.613c19.086 15.375 26.492 51.73 20.656 57.606-.504.515-1.105.797-1.809.808-5.105.153-14.101-19.882-18.316-19.093-.309.058-.586.222-.84.511-1.797 2.086 1.84 6.582 5.828 11.246 4.313 5.036 9.043 10.278 7.828 12.887-.328.715-.886 1.266-1.664 1.617-4.722 2.102-17.703-3.164-39.675-24.172-3.899-3.726-6.7-7.363-8.637-10.859-1.512-2.715-2.457-5.441-2.918-8.105v-.004c-3.524-20.32 21.11-37.305 39.547-22.442"/><path fill="#ffbaa5" d="M335.652 443.559c-.52.492-1.617 1.222-3.164.578-1.695-.711-2.59-1.758-2.66-3.125-.055-.973.309-1.89 1.012-2.594a3.653 3.653 0 0 1 1.77-.961 3.59 3.59 0 0 1 1.062-.086c1.586.106 2.648.781 3.078 1.961.484 1.348.02 3.16-1.098 4.227zm1.844-4.497a3.512 3.512 0 0 0-1.371-1.757c-.637-.418-1.453-.668-2.398-.735a4.488 4.488 0 0 0-3.446 1.282c-.875.859-1.316 2-1.25 3.199.059 1.172.66 2.781 3.149 3.82.761.324 1.539.395 2.27.23.628-.144 1.226-.472 1.753-.964 1.348-1.29 1.895-3.426 1.293-5.075"/><path fill="#ffbaa5" d="M335.652 443.559c-.52.492-1.617 1.222-3.164.578-1.695-.711-2.59-1.758-2.66-3.125-.055-.973.309-1.89 1.012-2.594a3.653 3.653 0 0 1 1.77-.961 3.59 3.59 0 0 1 1.062-.086c1.586.106 2.648.781 3.078 1.961.484 1.348.02 3.16-1.098 4.227M316.203 417.297a1.382 1.382 0 0 1-.113-.277.906.906 0 0 1-.004-.34.25.25 0 0 1 .02-.075c.128.036.605.25 1.734 1.579 3.902 4.582 9.59 14.664 10.023 16.734-1.441-.996-6.172-8.137-11.66-17.621zm7.242 7.508c-1.636-2.637-5.625-8.782-7.27-9-.34-.04-.75.125-.866.71-.086.395-.012.813.203 1.184.738 1.266 3.34 5.742 6 9.918 5.246 8.235 6.16 8.223 6.601 8.215.04 0 .078-.004.117-.012.22-.05.426-.222.446-.59.086-1.468-3.383-7.46-5.23-10.425"/><path fill="#ffbaa5" d="M327.863 434.918c-1.441-.996-6.172-8.137-11.66-17.621a1.382 1.382 0 0 1-.113-.277.906.906 0 0 1-.004-.34.25.25 0 0 1 .02-.075c.128.036.605.25 1.734 1.579 3.902 4.582 9.59 14.664 10.023 16.734M325.977 442.473c-.098 2.492-2.32 3.882-4.602 4.152-1.871.219-4.395.023-5.559-1.695-1.199-1.766-.355-4.086 1.176-5.336 1.793-1.465 4.192-1.715 6.414-1.961.23-.024.528-.426.137-.38-2.613.282-5.461.665-7.398 2.638-1.493 1.515-2.086 4.144-.461 5.804 1.617 1.64 4.632 1.649 6.703 1.098 2.136-.566 4.05-2.176 4.14-4.512.016-.23-.539-.027-.55.192M320.785 430.805a15.71 15.71 0 0 0-11.832 4.324c-.281.27.23.183.367.055a14.63 14.63 0 0 1 11.07-4.024c.157.008.61-.344.395-.355M316.098 429.102c-1.914 1.175-5.192 2.394-6.625-.172-.473-.848-.328-1.82.21-2.594 1.051-1.5 3.122-1.52 4.778-1.547.137-.004.578-.336.406-.328-1.55.027-3.199.086-4.555.96-.996.65-1.843 1.782-1.64 3.032.242 1.43 1.742 2.293 3.094 2.36 1.656.085 3.203-.778 4.562-1.618.348-.21-.027-.218-.23-.093M314.04 420.031c-2.673.04-5.212.98-7.255 2.707-.305.258.059.395.29.203a10.485 10.485 0 0 1 6.702-2.507c.203-.008.606-.41.262-.403M326.332 409.5c-3.137.71-5.71 3-6.71 6.063-.04.125.483-.036.538-.211.906-2.77 3.152-4.88 6-5.524.184-.043.55-.406.172-.328M327.2 415.707c-2.63-.414-4.997 2.098-5.114 4.574-.008.117.523-.074.531-.222.106-2.23 2.223-4.91 4.692-3.88.87.368 1.5 1.282 1.285 2.235-.25 1.106-1.422 1.703-2.356 2.149-.316.152-.23.316.086.164.973-.465 2.137-1.079 2.637-2.09.664-1.348-.395-2.715-1.762-2.93M336.918 417.492c-4.684.824-8.129 4.82-8.07 9.613.007.25.558.032.554-.19-.062-4.438 2.989-8.243 7.387-9.013.242-.047.52-.472.129-.41M341.941 424.125c-2.117-.871-4.687.375-6.37 1.645a10.815 10.815 0 0 0-3.954 5.875c-.043.125.492-.04.54-.215.53-1.98 1.609-3.766 3.152-5.114 1.617-1.406 4.293-2.84 6.414-1.742 1.547.801 1.96 2.813 1.55 4.38-.636 2.448-3.171 3.663-5.402 4.323-.168.051-.539.426-.168.32 2.188-.644 4.606-1.726 5.73-3.859.977-1.851.649-4.73-1.492-5.613M334.39 450.465c-2.359 3.59-6.835 5.383-11.023 4.45-.21-.052-.656.335-.375.394 4.516 1.015 9.348-.954 11.89-4.817.192-.289-.366-.21-.491-.027M337.695 457.281c-2.543 2.406-5.836 3.762-9.332 3.887-.144.004-.586.34-.41.336 3.82-.14 7.41-1.672 10.184-4.29.207-.194-.344-.023-.442.067M341.777 461.73a10.1 10.1 0 0 1-8.464 4.004c-.145-.004-.598.325-.415.329 3.653.132 7.176-1.563 9.383-4.477.102-.137-.418.027-.504.144M346.055 466.926c-.57 2.168-2.305 3.82-4.535 4.191-.262.043-.504.496-.118.43 2.496-.422 4.547-2.235 5.2-4.695.086-.301-.48-.149-.547.074M351.36 472.781c-1.243.848-2.602 1.281-4.102 1.336-.133.004-.57.328-.414.32a8.827 8.827 0 0 0 4.73-1.578c.344-.23-.023-.207-.215-.078M350.078 432.121c-.2 5.117-3.453 9.899-8.21 11.852-.274.109-.356.523.019.375 5.023-2.059 8.539-6.977 8.75-12.418.008-.25-.547-.047-.559.191M355.652 441.316c-.77 4.75-5.207 7.84-9.953 6.75-.164-.03-.562.297-.484.32 5.039 1.153 10.148-2.16 10.969-7.292.02-.114-.508.058-.532.222M360.043 450.387a14.218 14.218 0 0 1-9.879 3.285c-.203-.012-.613.375-.277.394 3.8.184 7.511-1.058 10.437-3.484.309-.254-.054-.379-.281-.195M360.633 457.137c-1.867 1.644-4.246 2.414-6.719 2.234-.195-.012-.61.371-.273.395 2.726.191 5.336-.727 7.379-2.536.296-.257-.223-.242-.387-.093M360.758 463.297c-1.281.363-2.563.715-3.844 1.078-.289.078-.383.46 0 .348 1.285-.356 2.57-.715 3.852-1.078.28-.079.379-.454-.008-.348"/><path fill="#333" d="M307.766 408.383c-3.504 3.195-6.055 7.058-7.2 11.687-1.07 4.344-.906 8.922.2 13.254 1.254 4.903 3.671 9.438 6.629 13.52.183.25.585-.028.402-.281-5.063-6.977-8.52-15.516-7.176-24.258.688-4.508 2.652-8.606 5.797-11.922 3.008-3.188 6.715-5.903 10.805-7.535 4.644-1.848 9.922-2.188 14.609-.293.29.117.5-.325.203-.442-8.59-3.476-17.805.375-24.27 6.27"/><path fill="#333" d="M309.34 408.563c-.168.511-.34 1.03-.504 1.55-.098.293.34.504.441.211.168-.52.332-1.039.504-1.558.094-.297-.347-.508-.441-.204M316.61 403.781c-.145.172-.29.344-.426.52-.204.238.171.55.367.308.144-.164.289-.34.433-.511.204-.239-.171-.559-.375-.317M313.488 406.613l-.117.66c-.058.309.426.395.48.086l.118-.664c.05-.308-.426-.394-.48-.082M306.336 412.29c-.234.312-.477.628-.715.937-.191.25.184.566.375.324.238-.317.48-.633.715-.95.191-.242-.184-.562-.375-.312M320.063 402.945l-.278.594c-.133.281.309.484.442.203l.273-.59c.133-.285-.309-.488-.438-.207M324.582 402.586c-.293.242-.52.547-.644.914-.106.29.335.5.44.203.099-.281.259-.527.481-.715.243-.199-.035-.601-.277-.402M334.066 404.195c-.261.375-.5.77-.691 1.184-.129.281.313.492.441.203.18-.375.383-.73.625-1.07.176-.258-.191-.57-.375-.317M329.406 402.527c-.097.368-.195.743-.297 1.11-.082.304.403.386.48.086.102-.375.2-.743.306-1.118.078-.3-.41-.382-.489-.078M338.621 405.957c-.254.305-.504.606-.762.906-.203.246.172.559.375.317.25-.301.504-.606.762-.907.203-.238-.172-.558-.375-.316M343.176 409.238c-.301.172-.606.34-.914.512-.27.152.008.55.285.402.3-.172.601-.343.906-.511.274-.153-.008-.555-.277-.403M364.602 460.11c-.282.374-.418.8-.418 1.273 0 .316.484.27.484-.04 0-.335.105-.656.3-.917.192-.25-.183-.574-.366-.317M363.582 454.625a.874.874 0 0 1-.148.621c-.192.25.183.57.367.313.219-.282.316-.625.27-.977-.048-.309-.532-.27-.489.043M362.426 447.27c.105.382.047.796-.168 1.132-.172.262.203.578.375.317.32-.496.414-1.047.254-1.617-.086-.305-.547-.133-.461.168M360.48 442.637a.492.492 0 0 1-.125.664c-.25.183.028.59.286.402.418-.308.53-.91.242-1.348-.172-.265-.57.02-.403.282M359.469 435.242c-.117-.02-.27.07-.281.203-.016.29-.036.586-.047.875-.008.133.058.258.203.282.12.02.27-.067.277-.196.02-.297.031-.586.05-.883.009-.125-.058-.253-.202-.28M357.164 430.293c-.14.047-.18.184-.144.309.082.34.164.675.25 1.02.03.124.195.183.308.144.137-.047.176-.184.149-.317-.086-.336-.168-.676-.25-1.012-.032-.132-.204-.19-.313-.144M354.164 424.777a.992.992 0 0 1-.031.696c-.125.285.316.496.441.203.149-.34.164-.707.043-1.063-.09-.304-.55-.133-.453.164M351.266 420.137c.015.36.02.722.035 1.09.004.316.492.265.484-.047-.012-.36-.02-.727-.031-1.09-.008-.317-.492-.27-.488.047M349.297 415.746c-.094.32-.18.637-.266.961-.078.3.403.379.489.078.085-.316.171-.64.253-.96.082-.302-.398-.384-.476-.079M346.297 412.625c.015.36.02.723.035 1.09.004.316.492.262.484-.047l-.03-1.09c-.009-.316-.493-.27-.49.047M340.652 407.332l-.414.887c-.133.281.317.492.446.203l.414-.887c.132-.281-.313-.492-.446-.203M303.07 416.063c.172.351.16.722-.03 1.058-.161.27.28.477.44.203.247-.433.27-.972.051-1.426-.136-.285-.597-.12-.46.164M301.691 420.734c-.125-.02-.27.075-.28.204-.024.171-.044.343-.063.511a.257.257 0 0 0 .199.285c.125.02.27-.074.281-.203l.059-.515a.251.251 0 0 0-.196-.282M340.316 449.879c-1.906 1.348-1.101 3.832.067 5.367.191.242.59-.035.402-.285-.883-1.156-1.664-2.8-.703-4.152 1.195-1.696 2.898-.336 3.996.687 2.195 2.047 3.977 4.484 5.645 6.961 1.648 2.441 3.195 4.957 5 7.285 1.453 1.875 3.5 3.754 6.062 3.035.3-.082.13-.539-.172-.457-2.89.809-4.949-2.07-6.402-4.09-1.512-2.085-2.871-4.273-4.316-6.394-1.403-2.05-2.88-4.059-4.61-5.84-1.176-1.207-3.129-3.418-4.969-2.117"/><path fill="#99ad34" d="M401.152 471.703s-23.8-16.332-32.672 9.485c-8.87 25.82 11.497 33.28 16.332 32.675 0 0 13.868 10.02 26.223.035 12.36-9.984 17.348-39.57-9.883-42.195"/><path fill="#bc3b2c" d="m399.36 479.29-1.512-1.665.125-.25c.011-.031.05-.102.101-.215.883-1.691 6.457-11.996 11.235-10.945l6.992 1.539-2.18.32c-.082.008-7.73 1.258-13 11.09-.125.23-.258.48-.383.723l-1.379-.598"/><path fill="#333" d="M403.46 479.941c-2.616.004-5.878-1.105-6.042-4.187-.02-.309-.504-.317-.492 0 .183 3.363 3.629 4.68 6.535 4.672.312 0 .312-.485 0-.485M408.305 466.629c-4.496.617-5.91 5.691-8.52 8.652-.203.235.137.582.348.348 2.543-2.887 3.937-7.934 8.3-8.527.317-.043.184-.52-.128-.473M385.879 466.29c-9.86-.81-15.867 9.116-18.39 17.265-2.669 8.625-2.106 18.664 4.62 25.3 3.16 3.118 7.387 5.13 11.875 5.055.317-.004.317-.492 0-.492-8.097.137-14.789-6.488-16.757-13.996-1.192-4.508-.934-9.285.183-13.777 1.082-4.344 2.902-8.704 5.617-12.286 3.024-4.004 7.68-7.007 12.852-6.578.312.028.312-.469 0-.492"/><path fill="#ffcf55" d="M261.914 212.918c-5.875 13.922-18.23 18.117-29.312 13.445-11.082-4.683-16.696-16.46-10.82-30.39 5.878-13.922 21.777-26.516 32.863-21.844 11.082 4.68 13.144 24.867 7.27 38.789"/><path fill="#333" d="M253.816 173.625c-8.55-1.125-17.43 2.465-22.793 9.223-.195.25.192.55.387.3 5.258-6.625 13.953-10.14 22.34-9.039.316.04.383-.445.066-.484M234.73 226.645c-6.902-2.204-13.21-7.258-14.464-14.73-.055-.31-.54-.25-.489.058 1.282 7.644 7.7 12.87 14.762 15.117.297.101.492-.352.191-.445M228.016 203.96l-.153-.058a.24.24 0 0 0-.316.125c-.047.125 0 .27.125.32l.152.067c.117.047.274-.008.32-.133a.25.25 0 0 0-.128-.32M232.707 204.605a.252.252 0 0 0-.324-.132l-.207.086a.249.249 0 0 0-.14.316c.054.125.198.184.323.137.07-.032.137-.059.211-.094.121-.043.184-.188.137-.313M229.781 213.621l-.086-.207a.253.253 0 0 0-.32-.14.252.252 0 0 0-.133.324c.028.07.059.136.086.21a.247.247 0 0 0 .317.137.257.257 0 0 0 .136-.324M225.094 211.363c-.004-.105-.102-.191-.207-.21-.082-.06-.207-.075-.285 0-.09.077-.137.183-.106.3a.302.302 0 0 0 .184.2c.218.09.437-.055.414-.29M228.895 208.574a.25.25 0 0 0-.32.133l-.063.148c-.051.122.008.27.133.325a.25.25 0 0 0 .316-.133l.066-.149c.051-.12-.007-.277-.132-.324M236.578 219.953l-.094-.039c-.289-.117-.48.328-.187.453l.09.031c.289.125.48-.32.191-.445M239.707 214.813l-.086-.22c-.047-.116-.2-.183-.316-.128a.241.241 0 0 0-.133.316c.027.07.055.145.086.215a.25.25 0 0 0 .316.133.243.243 0 0 0 .133-.316M235.855 210.098a.259.259 0 0 0-.324.132l-.058.153c-.051.117 0 .27.125.316.125.051.27 0 .324-.125l.062-.152c.047-.117-.004-.277-.129-.324M227.922 218.422a.247.247 0 0 0-.32.129l-.063.148a.247.247 0 0 0 .133.32.25.25 0 0 0 .316-.132l.067-.145c.043-.117-.008-.273-.133-.32"/><path fill="#fac903" d="M364.012 407.152c-2.668.461-10.516-15.105-17.371-20.132-6.856-5.028-32.258-33.832-33.907-38.934-1.652-5.094-4.015-11.176-11.3-22.5-7.282-11.324-6.215-21.727-3.504-27.031.62-1.215 2.355-2.43 4.699-3.543 5.262-2.489 13.582-4.469 19.273-4.739 2.871-.128 5.067.164 5.875 1.047 3.114 3.418 3.582 9.348 3.649 11.293.097 2.785 6.453 36.14 10.148 42.586 3.692 6.457 11.856 14.278 18.278 26.688 6.425 12.406 6.828 34.808 4.16 35.265"/><path fill="#87934d" d="M302.629 295.012c5.262-2.489 13.582-4.469 19.273-4.739a9.12 9.12 0 0 1-.683 3.168c-1.258 3-14.656 7.54-18.59 1.57"/><path fill="#98a738" d="M317.578 294.617s4.887-4.797 1.524-7.734c-3.364-2.934-5.325-13.977-1.196-14.903 4.121-.933 6.567-3.332 4.66-6.738-1.906-3.41-8.992 3.309-11.312 6.067-2.328 2.77-1.203 12.464-1.957 15.12-.75 2.66-4.543 7.106-.324 8.958 4.218 1.855 8.605-.77 8.605-.77"/><path fill="#333" d="M321.453 264.262c-1.265-.246-2.351.355-3.402 1.008-1.113.69-2.211 1.394-3.254 2.168-1.938 1.44-3.762 3.167-4.738 5.417-1.176 2.688-.926 5.653-.7 8.493.121 1.445.461 3.234-.02 4.632-.23.665-.694 1.165-1.081 1.743a4.66 4.66 0 0 0-.672 1.738c-.25 1.406-.047 3.129-1.184 4.2-.629.589-2.382.339-2.379 1.476 0 .316.493.316.493 0-.004-.504 1.078-.52 1.421-.637.368-.125.696-.355.958-.645.64-.707.87-1.668.98-2.582.078-.695.094-1.394.262-2.07.168-.664.508-1.191.91-1.73.723-.985.992-1.946.976-3.16-.02-2.774-.59-5.536-.289-8.31.305-2.741 1.684-5.007 3.704-6.835 1.042-.95 2.195-1.762 3.37-2.531 1.282-.836 2.903-2.223 4.516-1.907.309.06.438-.406.13-.468M322.113 361.238a1326.78 1326.78 0 0 1-4.574-6.191c-1.434-1.934-3.012-3.82-4.215-5.91-1.176-2.051-1.648-4.375-2.445-6.578-.676-1.88-1.524-3.7-2.457-5.47-3.82-7.23-9.309-13.804-11.207-21.921-1.309-5.574-.649-11.379.789-16.86.078-.304-.395-.437-.473-.132-1.234 4.71-1.898 9.637-1.261 14.492.55 4.242 2.187 8.191 4.226 11.918 2.031 3.726 4.41 7.246 6.504 10.934 1.055 1.859 2.04 3.753 2.855 5.722.88 2.145 1.372 4.418 2.266 6.547.992 2.387 2.707 4.414 4.227 6.477 1.78 2.406 3.562 4.812 5.336 7.222.183.25.613.008.43-.25M364.898 402.656l-.175 2.512c-.02.297.058 1.008-.094 1.258-.23.394-.781.32-1.156.242-1.5-.328-2.262-1.875-3.016-3.05a80.53 80.53 0 0 0-4.89-6.817 79.992 79.992 0 0 0-12.028-12.09c-.246-.195-.594.148-.344.344a79.693 79.693 0 0 1 11.844 11.87 78.668 78.668 0 0 1 4.996 6.942c1.063 1.664 2.59 4.149 4.942 3.082.078-.031.117-.129.117-.21.101-1.36.191-2.72.289-4.083.023-.312-.465-.312-.485 0M568.777 387.324a10.704 10.704 0 0 1-2.21-4.91c-.051-.312-.52-.168-.465.145a11.002 11.002 0 0 0 2.261 5.027c.196.242.61-.016.414-.262"/><path fill="#333" d="M570.684 386.652a765.264 765.264 0 0 0-3.329-3.773c-.203-.238-.539.125-.328.355a999.352 999.352 0 0 0 3.328 3.774c.204.234.532-.125.329-.356M571.66 385.324a11.984 11.984 0 0 0-3.37-2.637c-.282-.144-.513.29-.231.434a11.523 11.523 0 0 1 3.273 2.567c.203.234.54-.125.328-.364M574.113 385.121a29.69 29.69 0 0 0-5.336-3.578c-.285-.145-.515.285-.23.43a29.399 29.399 0 0 1 5.23 3.504c.243.203.578-.16.336-.356"/><path fill="#3d6414" d="m463.156 258.242 6.344-6.699 48.281 47.625-5.234 5.273-49.39-46.199"/><path fill="#519131" d="m468.758 254.66 4.883-6 42.882 45.23-5.191 7.184-42.574-46.414"/><path fill="#519131" d="m499.344 230.719 22.914 72.773s2.734 4.195 6.847 10.473c11.188 17.043 32.56 49.484 36.985 55.148 6.058 7.766 7.773 12.07 1.129 15.086-6.637 3.02-9.602-11.437-9.602-11.437-2.289-6.383-29.023-44.606-38.535-58.086-2.07-2.942-3.324-4.707-3.324-4.707l-56.106-50.254 4.84-4.672 42.61 39.266-23.88-52.336 8.282-5.778 20.308 54.184-17.917-55.852 5.449-3.808"/><path fill="#3d6414" d="m504.156 291.594-26.816-45.52 9.648-3.812 27.07 56.914-9.902-7.582"/><path fill="#ddd" d="M566.09 369.113c6.058 7.766 7.773 12.07 1.129 15.086-6.637 3.02-9.602-11.437-9.602-11.437-2.289-6.383-29.023-44.606-38.535-58.086a46.554 46.554 0 0 1 10.023-.711c11.188 17.043 32.56 49.484 36.985 55.148"/><path fill="#333" d="m474.316 267.29-2.175-1.556c-.254-.183-.485.25-.23.434l2.175 1.547c.25.183.48-.25.23-.426M493.996 284.844c-5.293-4.547-10.582-9.09-15.875-13.633-.234-.203-.57.152-.328.355 5.293 4.547 10.574 9.09 15.875 13.633.234.203.562-.152.328-.355M498.66 239.066c-.117-.28-.582-.144-.465.145a271.638 271.638 0 0 1 12.696 37.148c.082.301.546.164.468-.144a271.308 271.308 0 0 0-12.699-37.149M504.805 285.957a1327.598 1327.598 0 0 0-14.97-29.465 1578.853 1578.853 0 0 0-4.444-8.406c-.145-.277-.559-.012-.414.262a1310.377 1310.377 0 0 1 19.414 37.87c.14.278.554.02.414-.261M489.887 270.383c-2.852-2.246-5.278-4.969-7.782-7.598-2.562-2.703-5.132-5.402-7.703-8.105-.218-.223-.55.132-.336.363l7.711 8.102c2.496 2.628 4.922 5.343 7.782 7.593.242.196.578-.156.328-.355"/><path fill="#d85656" d="m368.79 339.25-.196 1.492a4.587 4.587 0 0 0 1.406 3.945c2.266 2.145 6.047 5.989 6.54 8.29.706 3.312 1.03 6.605 1.03 6.605s14.453 2.75 17.075.809c2.617-1.946 40.73-10.47 45.73-22.57 4.996-12.11 6.777-12.65 7.992-13.801 1.211-1.141.27-3.633 1.18-5.301.91-1.68 7.36-8.336 6.918-9.942-.438-1.609-7.207-26.332-10.621-25.8-3.41.535-77.055 56.273-77.055 56.273"/><path fill="#ffbaa5" d="M375.152 325.45s-18.379 14.57-1.027 21.124c17.348 6.555 27.035-5.875 37.34-6.125 10.297-.246 20.52-10.195 27.129-25.762 6.62-15.574 14.316-35.234 1.074-34.023-13.238 1.211-24.734 18.14-33.574 24.531-8.84 6.383-30.942 20.254-30.942 20.254"/><path fill="#eb7374" d="M378.406 324.875s-16.687 13.238-.933 19.195c15.754 5.95 24.554-5.343 33.906-5.566 9.36-.227 18.64-9.258 24.648-23.395 6-14.148 12.993-32 .973-30.902-12.031 1.098-22.473 16.48-30.496 22.277-8.027 5.797-28.098 18.391-28.098 18.391"/><path fill="#ffbaa5" d="M401.035 342.152c-6.469 3.649-16.129 5.067-16.703 5.145l-.09-.645c.195-.023 19.578-2.863 21.723-10.554.785-2.86.773-4.832.765-6.567-.02-2.972-.039-5.12 4.473-9.027 5.887-5.106 5.34-8.29 5.145-8.918l-11.278-3.852-1.078-1.054 12.84 4.379.063.117c.078.152 1.742 3.742-5.266 9.82-4.277 3.711-4.266 5.524-4.246 8.527.008 1.696.027 3.801-.797 6.75-.668 2.399-2.824 4.34-5.55 5.88"/><path fill="#ffbaa5" d="M437.742 311.598c-.094.039-9.832 3.925-21.242.03l.21-.608c8.938 3.043 18.138.605 21.505-.512a.27.27 0 0 1 .262.46l-.735.63"/><path fill="#ffbaa5" d="m424.129 313.043-.578-.309c.054-.097 5.37-10.285 4.187-14.75-1.261-4.773 9.575-15.906 10.043-16.379l.461.457c-.113.114-11.043 11.34-9.879 15.75 1.246 4.715-4.011 14.805-4.234 15.231M416.645 338.113l-.43-.492c.035-.031 3.558-3.14 5.996-7.734 3.246-6.13 3.152-11.856-.285-17.02l.539-.363c3.539 5.312 3.644 11.433.312 17.695-2.5 4.707-6.093 7.883-6.132 7.914"/><path fill="#333" d="M394.094 359.973c-.309.367-1.504.414-1.946.476-.683.102-1.375.16-2.062.188-1.277.05-2.559 0-3.832-.121-2.547-.243-5.055-.754-7.559-1.282.012-5.476-2.918-10.722-7.586-13.582-.27-.164-.52.258-.25.43 4.586 2.8 7.426 7.98 7.348 13.352 0 .101.078.214.18.234 2.804.594 5.617 1.172 8.484 1.387 1.426.113 2.86.125 4.285 0a23.575 23.575 0 0 0 1.88-.254c.46-.086 1.085-.102 1.398-.488.199-.243-.145-.586-.34-.34"/><path fill="#333" d="m387.297 354.957-2.969-2.894c-.226-.215-.566.125-.344.347.993.961 1.98 1.926 2.965 2.895.23.215.57-.125.348-.348M400.996 351.367a1111.36 1111.36 0 0 1-2.789-3.57c-.191-.25-.531.098-.34.344.926 1.187 1.852 2.382 2.778 3.574.19.25.539-.098.351-.348M418.86 345.871a701.381 701.381 0 0 0-2.051-2.496c-.204-.246-.547.102-.348.34.684.836 1.367 1.668 2.055 2.5.199.242.539-.106.343-.344M432.215 333.816c-.27-.328-.547-.652-.824-.972-.204-.242-.543.105-.34.347.27.32.547.645.82.965.203.246.547-.105.344-.34M448.46 309.703a10.836 10.836 0 0 0-2.397-2.765c-.243-.196-.586.144-.344.347a10.494 10.494 0 0 1 2.316 2.664c.164.27.59.024.426-.246"/><path fill="#333" d="M452.043 315.215c-1.176 1.312-2.387 2.668-3.09 4.305-.3.71-.465 1.433-.57 2.195-.16 1.183-.555 2.058-1.309 2.976-1.203 1.473-2.437 2.88-3.512 4.457a38.687 38.687 0 0 0-2.898 5.09c-.828 1.746-1.437 3.594-2.293 5.336a12.498 12.498 0 0 1-3.586 4.43c-3.02 2.355-6.793 3.805-10.273 5.324a184.765 184.765 0 0 1-13.664 5.324c-.305.098-.172.575.125.473a185.909 185.909 0 0 0 11.933-4.582c3.668-1.55 7.531-3.063 10.883-5.238 1.41-.914 2.703-1.996 3.715-3.34 1.144-1.524 1.828-3.313 2.539-5.059 1.55-3.86 3.633-7.469 6.328-10.648.578-.684 1.223-1.336 1.715-2.098.598-.933.664-1.906.86-2.973.421-2.234 1.972-3.988 3.437-5.625.21-.238-.13-.578-.34-.347"/><path d="m227.969 285.648-.403-.277 24.754-36.43.407.278-24.758 36.43"/><path fill="#dcecf9" d="m285.766 267.977-32.844 48.32a3.696 3.696 0 0 1-5.137.98l-25.402-17.27a3.686 3.686 0 0 1-.98-5.132l32.847-48.34a5.153 5.153 0 0 1 1.488-1.433l.004-.004 21.184-13.38 14.137 9.618-4.508 24.703a5.07 5.07 0 0 1-.79 1.938"/><path fill="#809eb7" d="m293.563 243.031-18.997-12.91c1.973-2.906 5.922-3.652 8.829-1.684l8.484 5.766a6.362 6.362 0 0 1 1.683 8.828"/><path fill="#fff" d="M266.297 242.137s7.848 1.797 8.742 7.718c.887 5.922 10.176 5.45 10.176 5.45l-1.598 10.03-32.5 47.821-26-17.668 32.5-47.828 8.68-5.523"/><path d="M274.883 230.043a.215.215 0 0 0 .066-.078c.63-1.137 1.324-2.414 2.563-2.985 1.347-.625 2.902-.242 4.086.56.265.17.507-.25.25-.43-1.243-.84-2.864-1.223-4.305-.669-1.426.54-3.258 3.508-3.258 3.508-.039.121.043.27.168.305h.02l-.043.066 7.53 5.121.278-.402-7.355-4.996"/><path fill="#8cc155" d="M228.934 361.898s8.914 5.016 13.507 19.086c4.598 14.067 2.649 16.856 4.04 22.844 1.394 5.996.835 10.453.835 10.453s11.149 7.801 18.254 1.946c0 0-.699-4.598 4.73-20.196 5.438-15.605 21.177-19.648 21.177-19.648l-8.497-14.485s-16.484 9.012-18.851 15.559l10.766-18.203-10.168-5.856-3.2 20.336s0-13.93-8.914-21.867c-8.918-7.941-12.953-3.203-12.953-3.203s13.317 24.406 12.5 30.766c0 0-9.023-28.262-16.68-28.399-7.664-.136-6.546 10.867-6.546 10.867"/><path fill="#3d6414" d="M308.324 365.898c-.18-1.226-.383-2.464-.765-3.648-.34-1.055-.852-2.035-1.407-2.996-1.101-1.918-2.402-3.902-4.132-5.313-.797-.64-1.723-1.082-2.512-1.726-.774-.637-1.195-1.527-1.762-2.332-1.062-1.516-2.633-2.29-4.41-2.723-1.188-.285-2.402-.414-3.606-.644-.886-.18-2.183-.368-2.761-1.153-.465-.62-.473-1.55-.696-2.273-.296-.938-.796-1.813-1.52-2.492-1.558-1.446-3.679-2.004-5.187-3.536-1.378-1.406-2.418-3.261-4.25-4.14-1.472-.711-3.128-.625-4.734-.684-2.445-.093-4.816-.84-7.27-.867-.656-.008-1.195.203-1.8.031-1.098-.316-2.114-.867-3.23-1.117-2.446-.523-4.602.676-6.93 1.156-1.993.414-4.325-.375-6.098.883a3.193 3.193 0 0 0-.914 1.063c-.192.351-.356.953-.695 1.199-.27.184-.786.184-1.114.254-.437.094-.82.23-1.207.46-.785.47-1.469 1.098-2.308 1.446-1.07.442-2.305.555-3.418.895-1.149.355-2.254.78-3.465.53-1.055-.214-2.07-.581-3.168-.523-.715.04-1.621.125-2.188.618-.414.363-.53.867-.73 1.355-.395.957-1.121 1.406-1.813 2.121-.77.805-1.27 1.84-1.972 2.703-1.051 1.29-2.746 2.098-3.13 3.832-.183.86-.124 1.793-.425 2.621-.262.72-1.023 1.157-1.465 1.77-1.105 1.52-1.414 3.387-.547 5.082.723 1.414 1.965 2.469 2.907 3.734-.954 1.563.007 3.313 1.378 4.434.723.594 1.551 1.121 2.454 1.402 1.168.36 2.55.317 3.754.262.64-.027 1.28-.098 1.917-.195.418-.067.907-.106 1.274-.325.539-.316.508-.933.758-1.433.148-.293.281-.563.367-.89.031-.126.047-.266.09-.391.023-.047.023-.078.015-.09.012-.008.028-.008.051-.016.23-.058.52.04.77-.02.289-.066.492-.23.699-.437.742-.777.687-1.808 1.246-2.676.527-.816 1.223-1.613 1.336-2.609.027-.23.012-.441-.027-.64.703-.282 1.433.054 2.03.702.724.797 1.024 1.856 1.27 2.88.493 2.093 1.032 4.062 2.899 5.347 1.734 1.188 3.902 1.629 5.828 2.438 1.059.445 2.137.875 3.3.914 1.118.027 2.216-.368 3.247-.739.972-.347 1.933-.722 2.945-.937 1.07-.23 2.176-.18 3.238-.43a6.039 6.039 0 0 0 2.329-1.129c.668-.531 1.164-1.258 1.84-1.773.702-.535 1.097-1.285.98-2.192-.094-.675-.809-1.601-.192-2.175.946-.875 2.872-.48 3.864.093 1.32.762 1.36 2.7 1.441 4.063a7.43 7.43 0 0 1-.285 2.535c-.25.856-.457 1.656-.34 2.559.164 1.195.645 2.379 1.11 3.484a20.647 20.647 0 0 0 1.671 3.172c1.196 1.836 2.61 3.57 4.309 4.953 1.625 1.32 3.523 2.36 5.613 2.688 2.367.367 4.672.906 7.012 1.367 2.394.465 4.805.703 7.227.34 1.984-.301 3.746-1.399 5.19-2.754 1.485-1.391 2.708-3.094 3.642-4.903.492-.945.878-1.937 1.355-2.89.457-.93.938-1.856 1.273-2.84.762-2.25.176-4.457-.156-6.735"/><path d="M252.613 414.738c-2.445.364-2.949-2.758-3.273-4.488-.375-1.953-.742-3.91-1.043-5.883-.613-3.957-.692-7.949-1.192-11.91-.464-3.723-1.511-7.352-2.671-10.906-.97-2.946-2.098-5.856-3.618-8.567-1.668-2.96-3.832-5.617-6.617-7.597-.258-.184-.5.242-.25.422 5.578 3.949 8.332 10.53 10.317 16.832 1.23 3.894 2.21 7.796 2.566 11.867.348 3.976.621 7.914 1.3 11.851.192 1.137.407 2.274.618 3.407.195 1.023.336 2.093.691 3.082.524 1.418 1.7 2.601 3.305 2.367.309-.047.176-.52-.133-.477M252.496 381.125c-.086-.305-.559-.172-.473.129a92.809 92.809 0 0 1 3.641 25.375c0 .316.488.316.488 0a93.445 93.445 0 0 0-3.656-25.504M261.5 374.871c.02-.312-.465-.308-.484 0a173.175 173.175 0 0 0-.172 15.469c.011.316.5.316.484 0-.168-5.152-.11-10.313.172-15.469M272.438 380.191a97.198 97.198 0 0 0-10.66 27.825c-.067.3.406.433.472.125a96.623 96.623 0 0 1 10.61-27.7c.156-.277-.266-.52-.423-.25M224.082 354.18c-.012-.133-.105-.25-.242-.243-.125 0-.262.106-.242.243.007.05.007.105.011.156.016.125.106.25.243.246.125 0 .265-.105.25-.246a2.133 2.133 0 0 0-.02-.156M225.129 348.074a.243.243 0 0 0-.242.242v.164c0 .125.11.25.242.243a.243.243 0 0 0 .242-.243v-.164c0-.125-.11-.25-.242-.242M231.328 345.05a.245.245 0 0 0-.344 0l-.164.165a.234.234 0 0 0 0 .34c.094.097.25.097.34 0 .055-.051.113-.106.168-.164.09-.09.09-.25 0-.34M232.215 348.316v.098c0 .316.484.316.484 0v-.098c0-.316-.484-.316-.484 0M230.348 352.215a.245.245 0 0 0-.344 0l-.164.164a.248.248 0 0 0 0 .34c.094.101.25.101.347 0 .055-.051.106-.102.16-.156a.243.243 0 0 0 0-.348M227.895 361.754a.249.249 0 0 0-.243.242v.164c0 .133.114.25.243.25.132-.015.242-.113.242-.25v-.164c0-.125-.11-.25-.242-.242M237.188 350.426l-.165-.164a.248.248 0 0 0-.34 0 .245.245 0 0 0 0 .343c.051.06.106.11.165.165.09.09.25.09.34 0a.245.245 0 0 0 0-.344M240.113 341.395h-.164c-.133 0-.25.113-.242.242a.247.247 0 0 0 .242.246h.164c.125 0 .25-.113.242-.246a.249.249 0 0 0-.242-.242M244.348 338.297h-.164c-.125 0-.25.113-.246.246.007.129.105.242.246.242h.164c.125 0 .25-.113.242-.242-.008-.133-.106-.246-.242-.246M251.512 337.977h-.164c-.125 0-.25.113-.246.242.007.133.113.246.246.246h.164c.129 0 .25-.113.242-.246-.008-.13-.106-.242-.242-.242M252.16 344.16c-.308 0-.308.488 0 .488.317 0 .317-.488 0-.488M246.95 345.957c-.31 0-.317.484 0 .484.316 0 .316-.484 0-.484M244.512 354.586c-.133.008-.25.105-.25.246v.164c0 .125.117.25.25.242.129-.008.242-.105.242-.242v-.164c0-.125-.113-.25-.242-.246M249.559 358.168c-.133.008-.243.105-.243.246v.164c0 .129.11.25.243.242.132-.007.242-.105.242-.242v-.164c0-.125-.11-.25-.242-.246M255.906 351.492a.246.246 0 0 0-.242.242v.164c0 .125.113.25.242.243a.247.247 0 0 0 .246-.243v-.164c0-.125-.113-.25-.246-.242M271.871 340.258a.238.238 0 0 0-.242.242v.16c0 .13.113.25.242.25a.253.253 0 0 0 .242-.25v-.16c0-.129-.11-.254-.242-.242M278.055 343.512h-.164a.251.251 0 0 0-.243.242c.008.133.114.242.243.242h.164a.25.25 0 0 0 .25-.242.25.25 0 0 0-.25-.242M277.57 350.027a.24.24 0 0 0-.242.243v.164c0 .132.11.25.242.242.133-.008.243-.106.243-.242v-.164c0-.125-.11-.25-.243-.243M270.406 353.61c-.316 0-.316.492 0 .492.317 0 .317-.493 0-.493M262.75 357.684c-.316 0-.316.484 0 .484s.316-.484 0-.484M256.234 361.754h-.164c-.125 0-.25.11-.242.242.008.137.106.25.242.25h.164c.125 0 .25-.113.246-.25-.007-.133-.105-.242-.246-.242M262.637 344.215c-.098.05-.13.172-.11.277-.02.098.02.215.118.27.105.05.214.05.308-.02a.334.334 0 0 0 .117-.258.293.293 0 0 0-.433-.27M262.945 337.121c-.058-.105-.11-.21-.164-.32-.058-.117-.23-.153-.336-.086-.117.066-.148.215-.082.336.051.105.102.21.164.32.059.117.223.152.332.086.121-.066.145-.215.086-.336M268.941 343.512h-.164c-.132 0-.25.113-.246.242.008.133.106.242.246.242h.164c.125 0 .25-.11.243-.242-.008-.129-.114-.242-.243-.242M283.168 372.848c-.031-.098-.117-.176-.223-.164-.136.011-.254.074-.293.218a.36.36 0 0 0 .098.32c.164.192.465.165.543-.097a.235.235 0 0 0-.125-.277M287.18 363.547h-.098c-.316 0-.316.484 0 .484h.098c.316 0 .316-.484 0-.484M292.39 356.703c-.132.008-.242.106-.242.242v.168c0 .13.11.246.243.242.132-.007.242-.105.242-.242v-.168c0-.12-.11-.246-.242-.242M282.453 361.102c-.133.007-.242.105-.242.242v.164c0 .133.11.25.242.246.133-.008.25-.106.25-.246v-.164c0-.125-.117-.25-.25-.242M275.777 366.965c-.132.008-.246.105-.246.242v.164c0 .133.114.25.246.246.137-.008.25-.105.25-.246v-.164c0-.125-.113-.25-.25-.242M280.18 376.254h-.106c-.316 0-.316.484 0 .484h.106c.308 0 .308-.484 0-.484M290.273 379.672h-.164c-.125 0-.25.11-.242.242.008.133.106.242.242.242h.164c.125 0 .25-.11.247-.242-.008-.133-.106-.242-.247-.242M302.816 368.266c-.316 0-.316.492 0 .492.313 0 .313-.492 0-.492M295.156 372.176c-.129.008-.242.105-.242.246v.164c0 .129.113.25.242.242.133-.008.246-.105.246-.242v-.164c0-.125-.113-.25-.246-.246M292.879 368.11c-.317 0-.317.484 0 .484.312 0 .312-.485 0-.485M299.07 362.246a.245.245 0 0 0-.074.012.168.168 0 0 0-.066-.012c-.137.004-.23.11-.243.25-.007.168.153.3.317.293.156 0 .328-.129.308-.3-.019-.126-.097-.25-.242-.243M286.691 357.031h-.164c-.129 0-.25.114-.242.246.008.13.106.243.242.243h.164c.125 0 .25-.114.247-.243-.008-.132-.106-.246-.247-.246M278.824 354.64a8.346 8.346 0 0 0-.32-.163c-.117-.059-.27-.036-.336.086-.066.105-.031.273.086.332l.32.168c.121.058.27.03.336-.086.067-.114.035-.278-.086-.336M274.473 359.309c-.313 0-.313.492 0 .492.316 0 .316-.492 0-.492M285.715 367.781a.247.247 0 0 0-.246.242v.164c0 .133.113.25.246.243a.246.246 0 0 0 .242-.243v-.164c0-.125-.113-.25-.242-.242M296.625 382.93c-.316 0-.316.488 0 .488.313 0 .313-.488 0-.488M303.953 376.574h-.101c-.313 0-.313.492 0 .492h.101c.313 0 .313-.492 0-.492"/><path fill="#c83317" d="M222.508 574.773c-.063 8.653 6.597 3.079 6.597 3.079 4.141 0 2.747-.633 5.7-2.356 2.949-1.723 14.804-8.984 22.726-9.05 7.918-.075 12.856-4.45 22.63-6.442 9.773-1.992 19.847-3.55 22.859-5.64 3.015-2.09 9.507-4.673 26.375-16.684 16.859-12.004 11.785-27.606 11.785-27.606-1.45-3.215-4.543-4.828-7.317-5.64-2.898-.844-5.441-.817-5.441-.817-4.379-2.535-7.953-3.187-10.844-2.715-8.387 1.356-11.101 12.114-11.121 13.793-.035 2.254-3.348 8.051-2.648 10.438.695 2.387-5.961 3.812-11.399 4.71-5.433.895-29.12 4.88-48.012 13.505-18.882 8.62-21.828 22.773-21.89 31.425"/><path fill="#519131" d="M317.578 500.902c7.203 10.703 13.813 5.989 16.285 3.532-2.898-.844-5.441-.817-5.441-.817-4.379-2.535-7.953-3.187-10.844-2.715"/><path fill="#519131" d="M330.328 503.414s-5.765-10.684-11.312-13.738c-6.75-3.715-14.707 5.086-20.82 6.887-6.122 1.804-13.481.421-13.481.421s-1.84 9.625-.348 8.903c1.176-.575.867-3.625 3.555-3.473 2.695.145 16.676-2.84 23.777-8.61 7.102-5.773 12.438 8.243 12.438 8.243s2.87 4.133 6.191 1.367"/><path d="M321.566 529.43c-.394-.192-.875-.04-1.296-.02a19 19 0 0 1-1.946.02 21.324 21.324 0 0 1-3.789-.461 22.194 22.194 0 0 1-7.125-2.88c-.27-.167-.508.259-.238.423 2.11 1.32 4.43 2.289 6.855 2.84 1.157.27 2.34.449 3.524.527a21.6 21.6 0 0 0 1.812.05c.348 0 .692-.011 1.04-.038.171-.012.343-.02.519-.032.078.02.144.02.191.004.047.125.196.23.36.164a.565.565 0 0 0 .101-.043c.078-.027.13-.132.125-.21 0-.04-.008-.087-.008-.133-.007-.086-.046-.172-.125-.211M273.332 533.79c-1.375.296-2.742.608-4.102.944-2.726.68-5.44 1.426-8.125 2.25-5.289 1.618-10.527 3.496-15.597 5.72-5.028 2.206-9.95 4.901-13.918 8.753-3.61 3.504-6.219 7.902-7.828 12.656a37.765 37.765 0 0 0-1.77 8.078c-.262 2.45-.176 5.27 1.77 7.051.234.211.578-.129.347-.347-1.82-1.657-1.87-4.293-1.636-6.579.242-2.386.73-4.746 1.425-7.043 1.395-4.574 3.723-8.898 6.993-12.41 3.539-3.785 8.02-6.527 12.672-8.734 4.734-2.25 9.675-4.082 14.652-5.719a155.02 155.02 0 0 1 8.223-2.445c1.359-.367 2.718-.711 4.085-1.04.73-.171 1.465-.34 2.204-.503.445-.102 1.32-.79.605-.633M334.371 504.195c-.312-.078-.43.395-.125.47 3.438.878 6 3.792 6.996 7.124.969 3.246.559 6.742-.476 9.91-2.407 7.383-8.028 13.254-14.145 17.781-3.61 2.684-7.48 4.989-11.351 7.266-.27.164-.028.582.242.426 7.23-4.246 14.574-8.723 19.988-15.258 4.418-5.328 8.234-12.922 6.281-20-.992-3.61-3.726-6.785-7.41-7.719"/><path fill="#e9583f" d="M501.066 479.8s-12.304-14.663-18.921-1.417c-6.625 13.25-14.668 30.281-4.258 35.719 10.41 5.441 36.187-6.383 37.605-15.137 1.422-8.75-14.426-19.164-14.426-19.164"/><path fill="#3d6414" d="M499.273 482.168s-4.777-5.16-4.28-9.246l.5-4.09s3.55 6.691 4.507 7.316c.96.618 3.684-6.316 3.684-6.316s-1.887 10.36.57 10.66c2.453.297 8.437-2.8 8.437-2.8s-6.57 4.484-5.644 5.425c.922.945 10.64 1.293 10.64 1.293s-6.359 1.098-5.539 2.86c.82 1.761 8.274 3.707 8.274 3.707s-8.781 5.574-21.149-8.809"/><path d="M488.781 483.387c-.34.558-.676 1.117-1.015 1.675-.153.25.234.477.386.231.34-.563.684-1.125 1.024-1.684.152-.25-.242-.48-.395-.222M496.406 488.031a13.937 13.937 0 0 1-1.61 1.715c-.222.192.099.516.317.317.59-.52 1.121-1.09 1.61-1.708.175-.23-.137-.554-.317-.324M505.508 495.637c-.309.238-.617.48-.926.722-.23.18.094.493.316.325l.934-.73c.23-.177-.098-.493-.324-.317M494.617 505.727c-.61.5-1.215 1-1.824 1.5-.223.183.098.5.32.316.614-.5 1.215-1 1.82-1.5.231-.184-.09-.5-.316-.316M492.332 498.227c-.508.703-1.02 1.402-1.523 2.105-.172.234.214.457.386.23l1.524-2.105c.18-.234-.215-.465-.387-.23M483.531 496.906l-.886 2.426c-.098.27.34.395.44.117.294-.808.59-1.617.888-2.418.097-.277-.344-.394-.442-.125M484.203 508.297c-.297.258-.598.508-.902.762-.215.191.105.507.324.324.3-.258.598-.512.898-.762.223-.191-.097-.516-.32-.324M505.68 503.27c-.88.421-1.703.94-2.457 1.543-.23.183.09.507.32.324a11.545 11.545 0 0 1 2.367-1.473c.262-.125.035-.512-.23-.394M478.07 491.16c-.113.703-.222 1.406-.336 2.11-.046.289.387.41.442.125.105-.704.222-1.407.336-2.11.043-.289-.395-.406-.442-.125M476.145 504.668c-.06.66-.125 1.309-.184 1.96-.027.29.418.29.453 0 .059-.651.125-1.3.184-1.96.03-.29-.422-.29-.453 0M500.996 479.863c-1.394-1.39-3.234-2.789-3.894-4.707-.09-.27-.532-.16-.434.117.691 2.02 2.547 3.45 4.004 4.903.21.21.527-.11.324-.313M513.102 490.39a7.236 7.236 0 0 1-3.793-2.081c-.204-.204-.52.117-.317.32a7.559 7.559 0 0 0 3.992 2.195c.282.063.407-.375.118-.433M510.926 485.883c-1.297-.094-2.57 0-3.844.27-.285.058-.16.5.125.44a13.06 13.06 0 0 1 3.719-.257c.289.02.289-.434 0-.453M505.293 481.898c-.211.45-.492.844-.856 1.176-.214.2.106.52.317.324.394-.363.703-.789.926-1.27.125-.26-.27-.491-.387-.23M501.934 478.27c-.118-.27-.504-.04-.395.226a7.362 7.362 0 0 1 .531 3.91c-.039.281.395.406.438.117a7.934 7.934 0 0 0-.574-4.253"/><path d="M493.488 473.809c-1.879.128-3.554-.954-5.472-.711-1.575.203-3.02.98-4.204 2.011-2.843 2.485-3.957 6.383-5.203 9.809-1.46 4.016-3.011 8.012-4.363 12.059-1.117 3.367-2.058 7.015-1.469 10.578.625 3.742 3.176 6.836 6.77 8.066.285.09.394-.344.125-.441-3.285-1.117-5.652-3.883-6.367-7.27-.73-3.437.156-7.039 1.215-10.312 1.183-3.664 2.597-7.258 3.91-10.868 1.25-3.43 2.25-7.343 4.629-10.195 1.175-1.414 2.773-2.543 4.593-2.918 1.012-.21 1.985-.097 2.977.164.945.258 1.86.551 2.86.48.288-.019.296-.472 0-.452"/><path fill="#bc3b2c" d="m235.742 504.629-3.488 2.598 2.379.375.629 1.675 1.027-.382 1.637 1.511-2.184-5.777M262.152 450.57s4.414-13.113 1.887-18.12l-2.527-5.005 2.98-1.125s4.16 9.868 1.465 15.153c-2.695 5.285-3.805 9.097-3.805 9.097"/><path fill="#fac903" d="M244.078 454.363c-3.348 3.309-6.883 6.403-10.656 9.223-8.64 6.46-22.89 20.898-5.969 37.113 21.844 20.938 44.352 9.781 40.828-22.285a49.25 49.25 0 0 1 0-10.484c1.02-9.61 6.18-28.145-8.668-24.063-5.316 1.457-11.37 6.375-15.535 10.496"/><path fill="#8cc155" d="M263.125 428.328s2.129-.074 4.578 1.578c1.473.992 3.063 2.61 4.371 5.239 3.496 7-4.402 8.062 3.543 17.832l7.942 9.773s13.605-43.441-20.434-34.422"/><path d="M282.672 455.336c-1.016-1.781-2.723-3.07-3.664-4.89-1.223-2.38-.11-4.891.5-7.27.488-1.899.535-3.793-.195-5.633-.692-1.734-1.899-3.227-3.34-4.398a14.222 14.222 0 0 0-5.883-2.825c-.309-.066-.442.407-.13.473 4.845 1.062 10.036 5.203 9.392 10.66-.317 2.695-1.965 5.344-1.211 8.113.66 2.41 2.906 3.91 4.109 6.012.152.277.578.027.422-.242M239.469 457.906c-2.262 3.348-5.739 5.485-8.946 7.817-3.09 2.246-5.8 4.855-7.8 8.136-4.004 6.582-4.621 14.996-.77 21.793 1.113 1.946 2.578 3.602 4.215 5.125.703.653 5.855 4.649 5.027 5.528-.21.23.133.578.348.347 1.105-1.18-1.367-2.922-2.102-3.601-1.593-1.446-3.261-2.805-4.707-4.403-2.84-3.12-4.488-7.191-4.836-11.386-.699-8.407 3.875-15.953 10.461-20.825 3.391-2.503 7.125-4.71 9.532-8.289.175-.261-.243-.503-.422-.242"/><path d="M230.879 482.715h-.484c-.317 0-.317.484 0 .484h.484c.316 0 .316-.484 0-.484M235.133 474.879l-.98.492c-.282.145-.032.567.25.422.32-.164.652-.324.972-.488.281-.145.031-.563-.242-.426M241.633 477.832c-.317 0-.317.484 0 .484.308 0 .316-.484 0-.484M237.723 486.133c-.317 0-.317.492 0 .492.312 0 .312-.492 0-.492M234.547 481.492v.492c0 .309.484.309.484 0v-.492c0-.316-.484-.316-.484 0M233.082 490.781v.485c0 .316.484.316.484 0v-.485c0-.316-.484-.316-.484 0M239.988 488.648l-.484.497c-.227.214.125.562.348.34.156-.165.32-.329.484-.485.223-.227-.125-.574-.348-.352"/><path fill="#f5911f" d="M357.137 267.512c7.972-4.88 10.293-15.422 5.347-23.356-3.93-6.312-11.546-14.246-26.3-21.746-31.461-15.992-36.598-27.543-39.73-23.3-2.786 3.765 33.905 84.788 60.683 68.402"/><path fill="#519131" d="M356.586 261.273s2.219-7.527 11.664-2.578c9.445 4.95 27.078 4.157 28.484-4.363 1.407-8.512 7.684-17 13.016-12.371 5.336 4.629.605 13.289.605 13.289s26.743-14.531 28.286-3.074c1.546 11.457-25.325 11.902-25.325 11.902s5.504 2.828 3.926 7.508c-1.586 4.687-10.156 2-10.156 2s14.184 24.715-31.95 1.453c-5.445-2.75-20.937-9.902-18.55-13.766"/><path d="m349.781 246.629 2.348-3.129c.183-.25-.203-.547-.395-.297l-2.34 3.137c-.19.25.196.543.387.289M342.066 256.113l1.762-2.347c.184-.25-.203-.547-.394-.29l-1.754 2.348c-.192.25.203.543.386.29M338.426 238.215c.722-.68 1.445-1.356 2.168-2.031.23-.22-.067-.606-.297-.391-.723.68-1.445 1.355-2.168 2.031-.23.219.066.602.297.39M333.172 247.613l1.46-1.953c.192-.25-.198-.543-.386-.293l-1.469 1.957c-.187.25.207.547.395.29M327.02 232.082l2.789-2.21c.242-.196-.055-.587-.305-.388-.926.735-1.852 1.473-2.785 2.207-.242.2.054.586.3.391M319.277 223.777l1.172-1.562c.192-.258-.203-.547-.387-.297l-1.18 1.566c-.183.25.208.543.395.293M327.89 239.996l1.755-2.348c.19-.25-.204-.546-.387-.296l-1.762 2.347c-.187.258.203.547.395.297M319.027 231.441a3.36 3.36 0 0 1 1.72-1.53c.288-.118.097-.571-.192-.454-.875.363-1.54.98-1.98 1.809-.145.277.308.453.452.175M307.54 213.309c.327-.164.651-.329.98-.496.277-.137.093-.59-.192-.446-.328.164-.648.32-.976.488-.286.145-.094.59.187.454"/><path d="M364.668 254.602c.52-7.692-3.457-14.922-8.867-20.137-7.207-6.942-16.707-10.668-25.414-15.281-5.102-2.704-10.063-5.786-14.153-9.907-.222-.222-.609.078-.386.305 6.906 6.961 16.023 10.824 24.609 15.242 8.012 4.121 16.074 9.117 20.629 17.176 2.156 3.82 3.39 8.137 3.098 12.543-.02.312.457.375.484.059M364.688 265.605a163.117 163.117 0 0 0 36.648 11.582c.309.06.363-.43.059-.488a162.031 162.031 0 0 1-36.524-11.547c-.289-.132-.465.32-.183.453M364.965 262.605l1.332.434c.89.297 1.777.586 2.668.871 3.5 1.11 7.02 2.156 10.598 2.965 3.527.793 7.117 1.36 10.73 1.516 3.492.144 6.934-.235 10.406-.532 3.93-.343 7.953-.472 11.703.954.297.105.477-.348.18-.461-5.633-2.13-11.7-.86-17.516-.5-6.683.414-13.308-.774-19.73-2.543-1.809-.5-3.602-1.04-5.39-1.606-.848-.262-1.688-.539-2.536-.812-.45-.145-.887-.29-1.336-.434-.137-.047-.793-.184-1.148-.324.164 0 .328-.145.234-.32-.308-.579-1.195-.067-.906.46.125.227.508.262.71.332M366.7 259.07c2.09 1.172 4.429 2.004 6.738 2.637 4.597 1.254 9.402 1.57 14.148 1.25 4.922-.336 9.793-1.363 14.512-2.797 4.863-1.484 9.5-3.543 14.238-5.375 5.422-2.105 11.098-3.867 16.988-3.535.317.02.367-.469.059-.488-9.535-.532-18.145 4.175-26.828 7.383-8.774 3.238-18.352 5.285-27.73 4.12a35.96 35.96 0 0 1-7.544-1.742 31.31 31.31 0 0 1-3.515-1.46c-.625-.301-1.23-.583-1.684-1.13-.363-.44-.914-1.394-.125-1.69.297-.11.106-.563-.191-.454-1.704.652.011 2.762.933 3.281"/><path d="M401.637 257.387a31.89 31.89 0 0 0 5.293-13.422c.047-.309-.442-.367-.48-.05a31.53 31.53 0 0 1-5.2 13.183c-.176.257.21.547.387.289"/><path fill="#4d6878" d="m440.336 456.914-10.895 1.172s5.094 8.426 6.07 9.34l.989.918 6.281-4.086-2.445-7.344"/><path fill="#3d6414" d="M515.922 456.965c31.047-9.95 42.758-23.184 43.121-33.813.07-2.023-.27-3.949-.965-5.742-.902-2.308-2.394-4.394-4.351-6.176-4.016-3.632-10.02-5.96-16.997-6.257-26.94-1.137-21.242 19.644-64.574 31.882-26.488 7.48-33.652 14.317-35.219 18.493-.28.742-.386 1.398-.386 1.964 0 1.454.652 2.274.652 2.274.164 1.332.399 2.57.727 3.7.054.19.105.374.172.554.316.984.703 1.879 1.175 2.695l2.356 2.813c8.129 6.78 28.543 2.285 74.289-12.387"/><path fill="#519131" d="M553.566 411.875c-4.02-3.637-10.023-5.969-16.996-6.266-26.941-1.129-21.242 19.641-64.566 31.88-26.496 7.48-33.66 14.316-35.23 18.491 22.683-7.011 63.542-25.34 81.066-37.027 13.172-8.781 26.617-8.734 35.726-7.078M441.633 469.352c26-6.97 58.906-18.965 68.453-20.489 13.465-2.152 40.887-19.832 48.797-25.078.074-2.023-.27-3.95-.973-5.746-16.98.52-44.77 12.516-62.93 24.32-15.609 10.157-38.382 16.926-52.671 20.477-1.504.367-2.91.71-4.207 1.008.316.984.703 1.879 1.175 2.695l2.356 2.813"/><path fill="#333" d="M500.21 423.938c8.474-4.497 14.009-13.11 22.802-17.114 4.504-2.05 9.531-2.601 14.422-2.07 4.785.527 9.632 1.98 13.742 4.531 2.156 1.332 4.113 3.016 5.594 5.086 1.476 2.086 2.68 4.719 2.214 7.324-.054.309-.535.192-.472-.12.445-2.509-.797-5.067-2.239-7.044-1.37-1.886-3.168-3.445-5.125-4.687-3.957-2.52-8.636-3.973-13.27-4.551-4.929-.61-10.062-.125-14.616 1.953-4.14 1.887-7.617 4.883-10.961 7.906-3.715 3.36-7.39 6.836-11.84 9.203-.274.153-.531-.27-.25-.418M431.86 460.758c1.148-.223 2.292-.438 3.437-.656.308-.059.453.414.137.472-1.145.219-2.293.434-3.438.653-.308.058-.445-.407-.137-.47M433.402 462.7c.52-.04 1.047-.048 1.559-.145.031-.055.098-.086.176-.094.207-.004.593-.25.77-.059.132.145.066.336-.106.407-.754.332-1.574.316-2.39.382-.31.02-.325-.464-.009-.492M435.375 465.55c.492-.046.953-.25 1.328-.57.235-.203.586.137.348.34-.48.41-1.04.66-1.664.723-.313.035-.32-.457-.012-.492"/></svg>