<svg xmlns="http://www.w3.org/2000/svg" width="125" viewBox="0 0 93.75 93.75" height="125" version="1.0"><defs><clipPath id="a"><path d="M5.906 7H72v85.484H5.906zm0 0"/></clipPath><clipPath id="b"><path d="M22 .984h33V18H22zm0 0"/></clipPath><clipPath id="c"><path d="M74 20h13.652v60H74zm0 0"/></clipPath><clipPath id="d"><path d="M74 79h13.652v7H74zm0 0"/></clipPath><clipPath id="e"><path d="M74 17h13.652v4H74zm0 0"/></clipPath><clipPath id="f"><path d="M74 7h13.652v11H74zm0 0"/></clipPath></defs><g clip-path="url(#a)"><path fill="#083b78" d="M64.762 92.484h-52.32c-3.598 0-6.54-2.941-6.54-6.535V14.055c0-3.594 2.942-6.535 6.54-6.535h52.32c3.597 0 6.539 2.94 6.539 6.535v71.894c0 3.594-2.942 6.535-6.54 6.535zm0 0"/></g><path fill="#00225a" d="M64.762 90.852h-52.32a3.28 3.28 0 0 1-3.27-3.27v-71.89a3.28 3.28 0 0 1 3.27-3.27h52.32a3.28 3.28 0 0 1 3.27 3.27v71.89a3.28 3.28 0 0 1-3.27 3.27zm0 0"/><path fill="#f0d2d0" d="M64.762 89.219h-52.32a3.28 3.28 0 0 1-3.27-3.27V14.055a3.278 3.278 0 0 1 3.27-3.266h52.32a3.278 3.278 0 0 1 3.27 3.266v71.894a3.28 3.28 0 0 1-3.27 3.27zm0 0"/><path fill="#d2b8b6" d="M48.41 9.156V7.52c0-2.778-2.125-4.903-4.902-4.903h-9.813c-2.777 0-4.902 2.125-4.902 4.903v1.636h-3.27a3.278 3.278 0 0 0-3.273 3.266v3.27a3.278 3.278 0 0 0 3.273 3.265h26.16a3.278 3.278 0 0 0 3.27-3.266v-3.27a3.278 3.278 0 0 0-3.27-3.265zm0 0"/><g clip-path="url(#b)"><path fill="#c8082f" d="M48.41 7.52V5.887c0-2.778-2.125-4.903-4.902-4.903h-9.813c-2.777 0-4.902 2.125-4.902 4.903V7.52h-3.27a3.282 3.282 0 0 0-3.273 3.27v3.265a3.28 3.28 0 0 0 3.273 3.27h26.16a3.278 3.278 0 0 0 3.27-3.27v-3.266a3.28 3.28 0 0 0-3.27-3.27zm0 0"/></g><path fill="#a0000d" d="M28.793 12.422a1.623 1.623 0 0 1-.48 1.156 1.62 1.62 0 0 1-1.156.477c-.216 0-.427-.04-.626-.121a1.691 1.691 0 0 1-.531-.356 1.62 1.62 0 0 1-.477-1.156c0-.215.04-.426.122-.625a1.617 1.617 0 0 1 .887-.883c.198-.086.41-.125.624-.125.219 0 .426.04.625.125.203.082.38.2.532.352a1.637 1.637 0 0 1 .48 1.156zM51.684 12.422a1.623 1.623 0 0 1-.48 1.156c-.153.152-.333.27-.532.356-.2.082-.41.12-.625.12a1.62 1.62 0 0 1-1.512-1.007 1.623 1.623 0 0 1 0-1.25 1.617 1.617 0 0 1 .887-.883c.2-.086.406-.125.625-.125.215 0 .426.04.625.125a1.617 1.617 0 0 1 .887.883c.082.2.125.41.125.625zm0 0"/><g clip-path="url(#c)"><path fill="#c8082f" d="M74.57 20.594h13.082v58.82H74.57zm0 0"/></g><g clip-path="url(#d)"><path fill="#f0c080" d="M87.652 79.414H74.57l3.27 6.535h6.543zm0 0"/></g><path fill="#083b78" d="m77.84 85.95 1.8 3.593a1.69 1.69 0 0 0 2.942 0l1.8-3.594zm0 0"/><g clip-path="url(#e)"><path fill="#f0d2d0" d="M74.57 17.324h13.082v3.27H74.57zm0 0"/></g><g clip-path="url(#f)"><path fill="#083b78" d="M84.383 7.52H77.84a3.28 3.28 0 0 0-3.27 3.27v6.534h13.082V10.79a3.28 3.28 0 0 0-3.27-3.27zm0 0"/></g><path fill="#d2b8b6" d="M59.855 32.031h-1.632V27.13c0-.98-.657-1.637-1.637-1.637h-6.54c-.98 0-1.636.656-1.636 1.637v8.168H28.793v-8.168c0-.98-.656-1.637-1.637-1.637h-6.539c-.98 0-1.637.656-1.637 1.637v4.902h-1.632c-.98 0-1.637.653-1.637 1.633v9.805c0 .98.656 1.633 1.637 1.633h1.632v4.902c0 .98.657 1.633 1.637 1.633h6.54c.98 0 1.636-.653 1.636-1.633v-8.172H48.41v8.172c0 .98.656 1.633 1.637 1.633h6.539c.98 0 1.637-.653 1.637-1.633v-4.902h1.632c.98 0 1.637-.653 1.637-1.633v-9.805c0-.98-.656-1.633-1.637-1.633zm0 0"/><path fill="#083b78" d="M27.156 50.004h-6.539c-.98 0-1.637-.656-1.637-1.637V25.492c0-.98.657-1.633 1.637-1.633h6.54c.98 0 1.636.653 1.636 1.633v22.875c0 .98-.656 1.637-1.637 1.637zM56.586 50.004h-6.54c-.98 0-1.636-.656-1.636-1.637V25.492c0-.98.656-1.633 1.637-1.633h6.539c.98 0 1.637.653 1.637 1.633v22.875c0 .98-.657 1.637-1.637 1.637zm0 0"/><path fill="#007cc8" d="M28.793 33.664H48.41V40.2H28.793zm0 0"/><path fill="#083b78" d="M17.348 43.469h1.632V30.395h-1.632c-.98 0-1.637.656-1.637 1.636v9.801c0 .98.656 1.637 1.637 1.637zM58.223 43.469h1.632c.98 0 1.637-.657 1.637-1.637v-9.8c0-.981-.656-1.637-1.637-1.637h-1.632zm0 0"/><path fill="#00225a" d="M17.348 30.395h1.632v13.074h-1.632zM58.223 30.395h1.632v13.074h-1.632zm0 0"/><path fill="#0064aa" d="M28.793 33.664h1.633V40.2h-1.633zM46.777 33.664h1.633V40.2h-1.633zm0 0"/><path fill="#d2b8b6" d="M22.25 58.172a3.256 3.256 0 0 1-2.016 3.02c-.402.163-.82.25-1.254.25-.433 0-.847-.087-1.25-.25a3.244 3.244 0 0 1-1.77-1.77 3.189 3.189 0 0 1-.25-1.25c0-.434.083-.852.25-1.25.165-.399.403-.754.708-1.059a3.255 3.255 0 0 1 2.312-.957 3.239 3.239 0 0 1 2.313.957 3.239 3.239 0 0 1 .957 2.309zM59.855 59.805H27.156c-.98 0-1.633-.653-1.633-1.633s.653-1.633 1.633-1.633h32.7c.98 0 1.636.652 1.636 1.633 0 .98-.656 1.633-1.637 1.633zM22.25 66.344a3.239 3.239 0 0 1-.957 2.309c-.305.308-.66.542-1.059.706-.402.168-.82.25-1.254.25-.433 0-.847-.082-1.25-.25a3.184 3.184 0 0 1-1.062-.707 3.228 3.228 0 0 1-.707-1.058 3.203 3.203 0 0 1-.25-1.25c0-.434.082-.852.25-1.254a3.244 3.244 0 0 1 1.77-1.766c.402-.168.816-.25 1.25-.25.433 0 .851.082 1.253.25.399.164.754.403 1.059.707a3.239 3.239 0 0 1 .957 2.313zM59.855 67.977H27.156c-.98 0-1.633-.653-1.633-1.633s.653-1.637 1.633-1.637h32.7c.98 0 1.636.656 1.636 1.637 0 .98-.656 1.633-1.637 1.633zM22.25 74.512a3.256 3.256 0 0 1-2.016 3.02c-.402.163-.82.25-1.254.25a3.307 3.307 0 0 1-2.313-.957 3.244 3.244 0 0 1-.706-1.063 3.189 3.189 0 0 1-.25-1.25c0-.434.082-.852.25-1.25a3.244 3.244 0 0 1 1.77-1.77c.402-.164.816-.25 1.25-.25a3.29 3.29 0 0 1 2.313.957 3.255 3.255 0 0 1 .956 2.313zM59.855 76.145H27.156c-.98 0-1.633-.653-1.633-1.633s.653-1.633 1.633-1.633h32.7c.98 0 1.636.652 1.636 1.633 0 .98-.656 1.633-1.637 1.633zM22.25 82.68a3.239 3.239 0 0 1-.957 2.313c-.305.304-.66.542-1.059.706-.402.168-.82.25-1.254.25-.433 0-.847-.082-1.25-.25a3.244 3.244 0 0 1-1.77-1.765 3.222 3.222 0 0 1-.25-1.254c0-.434.083-.848.25-1.25.165-.399.403-.754.708-1.059.309-.308.66-.543 1.062-.707.403-.168.817-.25 1.25-.25.434 0 .852.082 1.254.25.399.164.754.398 1.059.707a3.239 3.239 0 0 1 .957 2.309zM59.855 84.316H27.156c-.98 0-1.633-.656-1.633-1.636 0-.98.653-1.633 1.633-1.633h32.7c.98 0 1.636.652 1.636 1.633 0 .98-.656 1.636-1.637 1.636zm0 0"/></svg>