<svg xmlns="http://www.w3.org/2000/svg" width="125" viewBox="0 0 93.75 93.75" height="125" version="1.0"><defs><clipPath id="a"><path d="M29 73h15v19.973H29zm0 0"/></clipPath><clipPath id="b"><path d="M50 73h15v19.973H50zm0 0"/></clipPath><clipPath id="c"><path d="M5 .723h84V70H5zm0 0"/></clipPath><clipPath id="d"><path d="M.723 67h92.25v9H.723zm0 0"/></clipPath></defs><g clip-path="url(#a)"><path fill="#895648" d="m43.668 73.887-.113 1.59-5.871 16.445a1.608 1.608 0 0 1-1.493 1.05h-5.25c-1.097 0-1.855-1.093-1.496-2.128l5.492-15.367.778-1.59h7.953"/></g><g clip-path="url(#b)"><path fill="#895648" d="m50.027 73.887.114 1.59 5.87 16.445c.239.621.829 1.05 1.493 1.05h5.25c1.098 0 1.855-1.093 1.496-2.128l-5.492-15.367-.778-1.59h-7.953"/></g><g clip-path="url(#c)"><path fill="#d4dbf0" d="M5.496 69.117V3.902a3.177 3.177 0 0 1 3.18-3.18H85.02a3.18 3.18 0 0 1 3.183 3.18v65.215H5.496"/></g><g clip-path="url(#d)"><path fill="#b6c4d9" d="M2.313 75.477h89.07c.875 0 1.59-.715 1.59-1.59v-4.77c0-.879-.715-1.594-1.59-1.594H2.313c-.876 0-1.59.715-1.59 1.594v4.77c0 .875.715 1.59 1.59 1.59"/></g><path fill="#889dbc" d="M32.535 22.992h-6.363c-.875 0-1.59-.715-1.59-1.594v-3.18c0-.874.715-1.59 1.59-1.59h6.363v6.364M61.164 22.992h6.36c.878 0 1.593-.715 1.593-1.594v-3.18c0-.874-.715-1.59-1.594-1.59h-6.359v6.364M37.305 22.992H56.39V16.63H37.305v6.363"/><path fill="#1b334b" d="M35.715 30.941h-1.59a3.18 3.18 0 0 1-3.184-3.18V11.856a3.18 3.18 0 0 1 3.184-3.18h1.59a3.177 3.177 0 0 1 3.18 3.18v15.907a3.177 3.177 0 0 1-3.18 3.18M57.98 30.941h1.59a3.178 3.178 0 0 0 3.184-3.18V11.856a3.178 3.178 0 0 0-3.184-3.18h-1.59a3.177 3.177 0 0 0-3.18 3.18v15.907a3.177 3.177 0 0 0 3.18 3.18"/><path fill="#4c68bb" d="M77.066 32.535h-6.359a1.589 1.589 0 1 0 0 3.18h2.465C51.516 56.199 16.914 57.969 16.559 57.98a1.598 1.598 0 0 0-1.52 1.66 1.594 1.594 0 0 0 1.59 1.524h.066c1.492-.062 36.278-1.836 58.782-23.25v2.57c0 .88.714 1.594 1.59 1.594.878 0 1.593-.715 1.593-1.594v-6.359c0-.879-.715-1.59-1.594-1.59"/><path fill="#de3c73" d="M25.707 42.543a1.591 1.591 0 0 0-2.25 0l-2.059 2.055-2.054-2.055a1.591 1.591 0 0 0-2.25 2.25l2.058 2.055-2.058 2.058a1.587 1.587 0 0 0 0 2.246 1.58 1.58 0 0 0 1.125.47c.41 0 .812-.157 1.125-.47l2.054-2.054 2.059 2.054a1.58 1.58 0 0 0 2.25 0 1.587 1.587 0 0 0 0-2.246l-2.059-2.058 2.059-2.055a1.591 1.591 0 0 0 0-2.25M49.563 34.59a1.591 1.591 0 0 0-2.25 0l-2.055 2.055-2.059-2.055a1.587 1.587 0 0 0-2.246 0 1.591 1.591 0 0 0 0 2.25l2.055 2.055-2.055 2.058a1.587 1.587 0 0 0 0 2.246c.309.313.715.469 1.125.469.41 0 .813-.156 1.121-.469l2.059-2.054 2.054 2.054a1.58 1.58 0 0 0 1.126.469c.41 0 .816-.156 1.124-.469a1.587 1.587 0 0 0 0-2.246l-2.054-2.058 2.054-2.055a1.591 1.591 0 0 0 0-2.25M74.547 54.8l2.055-2.058a1.587 1.587 0 0 0 0-2.246 1.591 1.591 0 0 0-2.25 0l-2.055 2.055-2.059-2.055a1.587 1.587 0 0 0-2.246 0 1.587 1.587 0 0 0 0 2.246l2.055 2.059-2.055 2.054a1.591 1.591 0 0 0 1.125 2.715c.406 0 .813-.152 1.121-.465l2.059-2.054 2.055 2.054c.312.313.714.465 1.125.465a1.591 1.591 0 0 0 1.125-2.715l-2.055-2.054"/></svg>